<svg width="25" height="24" viewBox="0 0 25 24" fill="none" xmlns="http://www.w3.org/2000/svg">
<g clip-path="url(#clip0_4695_14099)">
<path opacity="0.995" fill-rule="evenodd" clip-rule="evenodd" d="M2.11719 -0.0234375C5.78905 -0.0234375 9.46095 -0.0234375 13.1328 -0.0234375C13.125 1.61726 13.1328 3.25789 13.1563 4.89844C13.1953 5.31248 13.4219 5.53908 13.8359 5.57813C15.4765 5.60156 17.1171 5.60939 18.7578 5.60156C18.7656 6.63295 18.7578 7.6642 18.7344 8.69531C17.0938 10.3359 15.4531 11.9766 13.8125 13.6172C13.6481 13.852 13.5075 14.102 13.3906 14.3672C13.0694 15.2527 12.7959 16.1511 12.5703 17.0625C12.7457 18.2832 13.4488 18.8457 14.6797 18.75C15.6158 18.4588 16.5377 18.1307 17.4453 17.7656C17.8889 17.4002 18.3186 17.0174 18.7344 16.6172C18.7656 18.5078 18.7656 20.3985 18.7344 22.2891C18.515 23.1882 17.9602 23.7507 17.0703 23.9766C12.086 23.9766 7.10155 23.9766 2.11719 23.9766C1.27344 23.7266 0.726562 23.1797 0.476562 22.3359C0.476562 15.4297 0.476562 8.52342 0.476562 1.61719C0.726562 0.773438 1.27344 0.226562 2.11719 -0.0234375ZM3.99219 7.00781C7.25783 6.99998 10.5235 7.00781 13.7891 7.03125C14.4073 7.15064 14.6026 7.5022 14.375 8.08594C14.222 8.26791 14.0267 8.36949 13.7891 8.39063C10.5234 8.42189 7.25783 8.42189 3.99219 8.39063C3.33461 8.22361 3.17054 7.84083 3.5 7.24219C3.6475 7.11755 3.81156 7.03941 3.99219 7.00781ZM3.99219 9.82031C6.32038 9.81249 8.64847 9.82031 10.9766 9.84375C11.5948 9.96314 11.7901 10.3147 11.5625 10.8984C11.4095 11.0804 11.2142 11.182 10.9766 11.2031C8.64842 11.2344 6.32033 11.2344 3.99219 11.2031C3.33461 11.0361 3.17054 10.6533 3.5 10.0547C3.6475 9.93005 3.81156 9.85191 3.99219 9.82031ZM3.99219 12.6328C6.32038 12.625 8.64847 12.6328 10.9766 12.6563C11.5948 12.7756 11.7901 13.1272 11.5625 13.7109C11.4095 13.8929 11.2142 13.9945 10.9766 14.0156C8.64842 14.0469 6.32033 14.0469 3.99219 14.0156C3.33461 13.8486 3.17054 13.4658 3.5 12.8672C3.6475 12.7425 3.81156 12.6644 3.99219 12.6328ZM3.99219 15.4453C6.32038 15.4375 8.64847 15.4453 10.9766 15.4688C11.5948 15.5881 11.7901 15.9397 11.5625 16.5234C11.4095 16.7054 11.2142 16.807 10.9766 16.8281C8.64842 16.8594 6.32033 16.8594 3.99219 16.8281C3.33461 16.6611 3.17054 16.2783 3.5 15.6797C3.6475 15.555 3.81156 15.4769 3.99219 15.4453ZM9.61719 19.6641C11.0079 19.6562 12.3985 19.6641 13.7891 19.6875C14.4073 19.8069 14.6026 20.1585 14.375 20.7422C14.222 20.9242 14.0267 21.0257 13.7891 21.0469C12.3984 21.0781 11.0078 21.0781 9.61719 21.0469C8.99895 20.9275 8.80367 20.5759 9.03125 19.9922C9.19363 19.8136 9.38895 19.7042 9.61719 19.6641Z" fill="#FEFEFE"/>
<path opacity="0.984" fill-rule="evenodd" clip-rule="evenodd" d="M14.4922 -0.0234375C14.6797 -0.0234375 14.8672 -0.0234375 15.0547 -0.0234375C15.4057 0.083055 15.7338 0.247118 16.0391 0.46875C16.7812 1.21094 17.5235 1.95313 18.2656 2.69531C18.603 3.13709 18.767 3.63709 18.7578 4.19531C17.336 4.19531 15.914 4.19531 14.4922 4.19531C14.4922 2.78906 14.4922 1.38281 14.4922 -0.0234375Z" fill="#FEFEFE"/>
<path opacity="0.956" fill-rule="evenodd" clip-rule="evenodd" d="M24.4766 7.94506C24.4766 8.17943 24.4766 8.41381 24.4766 8.64818C24.3941 8.90651 24.2612 9.14089 24.0781 9.35131C23.748 9.69711 23.4043 10.0252 23.0469 10.3357C22.345 9.68853 21.6653 9.01667 21.0078 8.32006C21.4199 7.93137 21.8262 7.53293 22.2266 7.12475C22.965 6.7414 23.6291 6.84298 24.2188 7.42943C24.3278 7.59429 24.4138 7.76614 24.4766 7.94506Z" fill="#FEFEFE"/>
<path opacity="0.957" fill-rule="evenodd" clip-rule="evenodd" d="M19.9766 9.30423C20.0259 9.29725 20.0728 9.30503 20.1172 9.32767C20.7819 9.98458 21.4382 10.6487 22.0859 11.3199C20.5632 12.8661 19.0319 14.4052 17.4922 15.937C17.4453 15.9683 17.3984 15.9683 17.3516 15.937C16.6868 15.2801 16.0306 14.6161 15.3828 13.9449C16.9151 12.397 18.4463 10.8501 19.9766 9.30423Z" fill="#FEFEFE"/>
<path opacity="0.926" fill-rule="evenodd" clip-rule="evenodd" d="M14.5857 15.0703C15.1465 15.6077 15.7012 16.1546 16.2497 16.7109C16.282 16.7499 16.2741 16.7812 16.2263 16.8047C15.6499 17.0046 15.0718 17.1999 14.4919 17.3906C14.1113 17.4785 13.9317 17.3301 13.9528 16.9453C14.1596 16.3172 14.3706 15.6923 14.5857 15.0703Z" fill="#FEFEFE"/>
</g>
<defs>
<clipPath id="clip0_4695_14099">
<rect width="24" height="24" fill="white" transform="translate(0.5)"/>
</clipPath>
</defs>
</svg>
