<svg width="84" height="84" viewBox="0 0 84 84" fill="none" xmlns="http://www.w3.org/2000/svg">
<g filter="url(#filter0_d_4695_7872)">
<g clip-path="url(#clip0_4695_7872)">
<rect x="2" y="2" width="80" height="80" rx="8" fill="white"/>
<path d="M61.1486 23.0322C62.5422 23.0322 86.011 23.1922 87.4862 23.1394C87.5918 23.1394 87.6462 22.9794 87.5438 22.9282C86.6142 22.469 85.5598 22.5602 84.5934 22.2354C84.0238 22.0434 83.675 21.6722 83.2814 21.245C82.9545 20.8719 82.5318 20.5952 82.059 20.445C81.627 20.3153 81.1686 20.301 80.7294 20.4034C80.2494 20.517 79.8398 20.789 79.387 20.9618C78.267 21.3874 77.163 20.9826 76.3582 20.149C75.6942 19.461 75.0414 18.8114 74.139 18.4418C73.3838 18.1314 72.539 18.0674 71.7886 18.4098C70.9278 18.7986 70.3374 19.5842 69.5278 20.0546C68.5678 20.6162 67.4238 20.4834 66.3646 20.6514C65.3054 20.8194 64.4926 21.7122 63.5646 22.2258C63.263 22.4228 62.9133 22.5334 62.5534 22.5458C62.3462 22.5273 62.1401 22.4985 61.9358 22.4594C61.6158 22.4194 61.3134 22.429 61.0974 22.6946C61.0414 22.757 61.0558 23.0322 61.1486 23.0322Z" fill="#EBEBEB"/>
<path d="M-2.58632 23.4847C-1.56872 23.4847 15.5657 23.5983 16.6425 23.5631C16.7193 23.5631 16.7609 23.4479 16.6841 23.4031C16.0057 23.0671 15.2361 23.1343 14.5305 22.8975C14.1145 22.7567 13.8601 22.4863 13.5705 22.1743C13.3317 21.9029 13.0236 21.7016 12.6793 21.5919C12.3638 21.4971 12.0289 21.4866 11.7081 21.5615C11.3609 21.6447 11.0585 21.8431 10.7273 21.9695C9.90328 22.2799 9.10488 21.9839 8.51608 21.3759C8.03608 20.8735 7.55608 20.3999 6.89688 20.1295C6.62771 20.0078 6.33635 19.9428 6.04098 19.9387C5.7456 19.9346 5.45254 19.9913 5.18008 20.1055C4.55128 20.3903 4.12088 20.9631 3.53048 21.3071C2.82968 21.7167 1.99288 21.6271 1.22008 21.7439C0.447278 21.8607 -0.146323 22.5183 -0.824723 22.8927C-1.04517 23.0347 -1.30021 23.1138 -1.56232 23.1215C-1.71432 23.1215 -1.86312 23.0767 -2.01352 23.0575C-2.24552 23.0287 -2.46792 23.0351 -2.62472 23.2303C-2.66152 23.2799 -2.65352 23.4847 -2.58632 23.4847Z" fill="#EBEBEB"/>
<path d="M46.0231 28.4819C47.0407 28.4819 64.1751 28.5939 65.2519 28.5603C65.3303 28.5603 65.3703 28.4435 65.2935 28.4003C64.6151 28.0643 63.8455 28.1331 63.1399 27.8947C62.7255 27.7555 62.4695 27.4835 62.1799 27.1715C61.9414 26.9001 61.6332 26.6993 61.2887 26.5907C60.9732 26.4952 60.6382 26.4847 60.3175 26.5603C59.9703 26.6419 59.6679 26.8419 59.3367 26.9667C58.5143 27.2771 57.7143 26.9827 57.1255 26.3731C56.6455 25.8723 56.1655 25.3971 55.5063 25.1267C55.237 25.0052 54.9456 24.9406 54.6502 24.9367C54.3548 24.9329 54.0618 24.9899 53.7895 25.1043C53.1607 25.3891 52.7303 25.9603 52.1399 26.3059C51.4391 26.7139 50.6023 26.6179 49.8295 26.7411C49.0567 26.8643 48.4631 27.5155 47.7863 27.8899C47.565 28.0315 47.3096 28.1106 47.0471 28.1187C46.8951 28.1187 46.7463 28.0739 46.5975 28.0563C46.3639 28.0275 46.1415 28.0339 45.9847 28.2275C45.9479 28.2803 45.9559 28.4819 46.0231 28.4819Z" fill="#EBEBEB"/>
<path d="M35.8536 40.8131C36.8728 40.8131 54.0072 40.9251 55.084 40.8915C55.1608 40.8915 55.2024 40.7747 55.1256 40.7315C54.4472 40.3955 53.676 40.4627 52.972 40.2259C52.556 40.0851 52.3016 39.8147 52.012 39.5027C51.7729 39.2317 51.465 39.0305 51.1208 38.9203C50.8051 38.8264 50.4705 38.8159 50.1496 38.8899C49.8024 38.9731 49.5 39.1731 49.1688 39.2979C48.3448 39.6083 47.5448 39.3139 46.9576 38.7043C46.4776 38.2019 45.9976 37.7283 45.3368 37.4579C45.0678 37.3366 44.7767 37.2719 44.4817 37.2678C44.1866 37.2637 43.8939 37.3202 43.6216 37.4339C42.9928 37.7187 42.5608 38.2915 41.9704 38.6371C41.2712 39.0451 40.4344 38.9571 39.6616 39.0723C38.8888 39.1875 38.2952 39.8467 37.6168 40.2211C37.3957 40.363 37.1402 40.4421 36.8776 40.4499C36.7267 40.4365 36.5766 40.4151 36.428 40.3859C36.1944 40.3571 35.9736 40.3651 35.8168 40.5587C35.78 40.6115 35.788 40.8131 35.8536 40.8131Z" fill="#EBEBEB"/>
<path d="M11.7171 19.2222C11.7363 19.2782 38.7235 19.2222 38.3827 19.2222C38.2227 19.2222 38.6179 18.9886 38.4659 18.915C37.5875 18.4782 36.6259 18.467 35.6691 18.3774C35.1123 18.3278 34.5379 18.2462 34.0355 17.9822C33.5331 17.7182 33.2099 17.2526 32.8499 16.8254C32.2932 16.1666 31.5779 15.6606 30.7713 15.3552C29.9647 15.0498 29.0936 14.955 28.2403 15.0798C26.3203 15.3806 24.8083 16.8398 22.8867 17.1118C21.7315 17.2718 20.6387 16.8254 19.5107 16.6686C18.5827 16.539 17.8083 16.7198 16.9763 17.1326C16.3683 17.4334 15.8051 17.6878 15.1171 17.7358C14.5891 17.7726 14.0579 17.7118 13.5299 17.707C12.6635 17.7226 11.8327 18.0543 11.1939 18.6398C11.1075 18.7166 10.8355 19.2222 11.7171 19.2222Z" fill="#EBEBEB"/>
<path d="M86.16 17.8867H75.7168V72.6291H86.16V17.8867Z" fill="#DBDBDB"/>
<path d="M79.3683 19.666H77.3379V21.7556H79.3683V19.666Z" fill="#EBEBEB"/>
<path d="M81.9659 19.666H79.9355V21.7556H81.9659V19.666Z" fill="#EBEBEB"/>
<path d="M79.3683 23.2148H77.3379V25.3044H79.3683V23.2148Z" fill="#EBEBEB"/>
<path d="M81.9659 23.2148H79.9355V25.3044H81.9659V23.2148Z" fill="#EBEBEB"/>
<path d="M79.3683 26.7637H77.3379V28.8533H79.3683V26.7637Z" fill="#EBEBEB"/>
<path d="M81.9659 26.7637H79.9355V28.8533H81.9659V26.7637Z" fill="#EBEBEB"/>
<path d="M79.3683 30.3125H77.3379V32.4021H79.3683V30.3125Z" fill="#EBEBEB"/>
<path d="M81.9659 30.3125H79.9355V32.4021H81.9659V30.3125Z" fill="#EBEBEB"/>
<path d="M79.3683 33.8613H77.3379V35.9509H79.3683V33.8613Z" fill="#EBEBEB"/>
<path d="M81.9659 33.8613H79.9355V35.9509H81.9659V33.8613Z" fill="#EBEBEB"/>
<path d="M79.3683 37.4102H77.3379V39.4998H79.3683V37.4102Z" fill="#EBEBEB"/>
<path d="M81.9659 37.4102H79.9355V39.4998H81.9659V37.4102Z" fill="#EBEBEB"/>
<path d="M79.3683 40.959H77.3379V43.0486H79.3683V40.959Z" fill="#EBEBEB"/>
<path d="M81.9659 40.959H79.9355V43.0486H81.9659V40.959Z" fill="#EBEBEB"/>
<path d="M79.3683 44.5078H77.3379V46.5974H79.3683V44.5078Z" fill="#EBEBEB"/>
<path d="M81.9659 44.5078H79.9355V46.5974H81.9659V44.5078Z" fill="#EBEBEB"/>
<path d="M79.3683 48.0566H77.3379V50.1462H79.3683V48.0566Z" fill="#EBEBEB"/>
<path d="M81.9659 48.0566H79.9355V50.1462H81.9659V48.0566Z" fill="#EBEBEB"/>
<path d="M79.3683 51.6055H77.3379V53.6951H79.3683V51.6055Z" fill="#EBEBEB"/>
<path d="M81.9659 51.6055H79.9355V53.6951H81.9659V51.6055Z" fill="#EBEBEB"/>
<path d="M79.3683 55.1543H77.3379V57.2439H79.3683V55.1543Z" fill="#EBEBEB"/>
<path d="M81.9659 55.1543H79.9355V57.2439H81.9659V55.1543Z" fill="#EBEBEB"/>
<path d="M79.3683 58.7021H77.3379V60.7917H79.3683V58.7021Z" fill="#EBEBEB"/>
<path d="M81.9659 58.7021H79.9355V60.7917H81.9659V58.7021Z" fill="#EBEBEB"/>
<path d="M79.3683 62.251H77.3379V64.3406H79.3683V62.251Z" fill="#EBEBEB"/>
<path d="M81.9659 62.251H79.9355V64.3406H81.9659V62.251Z" fill="#EBEBEB"/>
<path d="M79.3683 65.7998H77.3379V67.8894H79.3683V65.7998Z" fill="#EBEBEB"/>
<path d="M81.9659 65.7998H79.9355V67.8894H81.9659V65.7998Z" fill="#EBEBEB"/>
<path d="M2.53214 13.6406H-10.0391V72.6294H2.53214V13.6406Z" fill="#EBEBEB"/>
<path d="M2.5318 12.4658H-10.3418V13.6402H2.5318V12.4658Z" fill="#C7C7C7"/>
<path d="M10.6016 13.6406H2.53125V72.6294H10.6016V13.6406Z" fill="#DBDBDB"/>
<path d="M10.952 12.4658H2.53125V13.6402H10.952V12.4658Z" fill="#C7C7C7"/>
<path d="M4.94352 15.3711H3.66992V72.6287H4.94352V15.3711Z" fill="#C7C7C7"/>
<path d="M7.19938 15.3711H5.92578V72.6287H7.19938V15.3711Z" fill="#C7C7C7"/>
<path d="M9.45524 15.3711H8.18164V72.6287H9.45524V15.3711Z" fill="#C7C7C7"/>
<path d="M4.94352 16.8564H3.66992V19.1748H4.94352V16.8564Z" fill="#DBDBDB"/>
<path d="M7.19938 16.8564H5.92578V19.1748H7.19938V16.8564Z" fill="#DBDBDB"/>
<path d="M9.45524 16.8564H8.18164V19.1748H9.45524V16.8564Z" fill="#DBDBDB"/>
<path d="M4.94352 20.624H3.66992V22.9424H4.94352V20.624Z" fill="#DBDBDB"/>
<path d="M7.19938 20.624H5.92578V22.9424H7.19938V20.624Z" fill="#DBDBDB"/>
<path d="M9.45524 20.624H8.18164V22.9424H9.45524V20.624Z" fill="#DBDBDB"/>
<path d="M4.94352 24.3936H3.66992V26.712H4.94352V24.3936Z" fill="#DBDBDB"/>
<path d="M7.19938 24.3936H5.92578V26.712H7.19938V24.3936Z" fill="#DBDBDB"/>
<path d="M9.45524 24.3936H8.18164V26.712H9.45524V24.3936Z" fill="#DBDBDB"/>
<path d="M4.94352 28.1621H3.66992V30.4805H4.94352V28.1621Z" fill="#DBDBDB"/>
<path d="M7.19938 28.1621H5.92578V30.4805H7.19938V28.1621Z" fill="#DBDBDB"/>
<path d="M9.45524 28.1621H8.18164V30.4805H9.45524V28.1621Z" fill="#DBDBDB"/>
<path d="M4.94352 31.9316H3.66992V34.25H4.94352V31.9316Z" fill="#DBDBDB"/>
<path d="M7.19938 31.9316H5.92578V34.25H7.19938V31.9316Z" fill="#DBDBDB"/>
<path d="M9.45524 31.9316H8.18164V34.25H9.45524V31.9316Z" fill="#DBDBDB"/>
<path d="M4.94352 35.6992H3.66992V38.0176H4.94352V35.6992Z" fill="#DBDBDB"/>
<path d="M7.19938 35.6992H5.92578V38.0176H7.19938V35.6992Z" fill="#DBDBDB"/>
<path d="M9.45524 35.6992H8.18164V38.0176H9.45524V35.6992Z" fill="#DBDBDB"/>
<path d="M4.94352 39.4678H3.66992V41.7862H4.94352V39.4678Z" fill="#DBDBDB"/>
<path d="M7.19938 39.4678H5.92578V41.7862H7.19938V39.4678Z" fill="#DBDBDB"/>
<path d="M9.45524 39.4678H8.18164V41.7862H9.45524V39.4678Z" fill="#DBDBDB"/>
<path d="M4.94352 43.2373H3.66992V45.5557H4.94352V43.2373Z" fill="#DBDBDB"/>
<path d="M7.19938 43.2373H5.92578V45.5557H7.19938V43.2373Z" fill="#DBDBDB"/>
<path d="M9.45524 43.2373H8.18164V45.5557H9.45524V43.2373Z" fill="#DBDBDB"/>
<path d="M4.94352 47.0049H3.66992V49.3233H4.94352V47.0049Z" fill="#DBDBDB"/>
<path d="M7.19938 47.0049H5.92578V49.3233H7.19938V47.0049Z" fill="#DBDBDB"/>
<path d="M9.45524 47.0049H8.18164V49.3233H9.45524V47.0049Z" fill="#DBDBDB"/>
<path d="M4.94352 50.7734H3.66992V53.0918H4.94352V50.7734Z" fill="#DBDBDB"/>
<path d="M7.19938 50.7734H5.92578V53.0918H7.19938V50.7734Z" fill="#DBDBDB"/>
<path d="M9.45524 50.7734H8.18164V53.0918H9.45524V50.7734Z" fill="#DBDBDB"/>
<path d="M4.94352 54.543H3.66992V56.8614H4.94352V54.543Z" fill="#DBDBDB"/>
<path d="M7.19938 54.543H5.92578V56.8614H7.19938V54.543Z" fill="#DBDBDB"/>
<path d="M9.45524 54.543H8.18164V56.8614H9.45524V54.543Z" fill="#DBDBDB"/>
<path d="M4.94352 58.3105H3.66992V60.6289H4.94352V58.3105Z" fill="#DBDBDB"/>
<path d="M7.19938 58.3105H5.92578V60.6289H7.19938V58.3105Z" fill="#DBDBDB"/>
<path d="M9.45524 58.3105H8.18164V60.6289H9.45524V58.3105Z" fill="#DBDBDB"/>
<path d="M4.94352 62.0791H3.66992V64.3975H4.94352V62.0791Z" fill="#DBDBDB"/>
<path d="M7.19938 62.0791H5.92578V64.3975H7.19938V62.0791Z" fill="#DBDBDB"/>
<path d="M9.45524 62.0791H8.18164V64.3975H9.45524V62.0791Z" fill="#DBDBDB"/>
<path d="M4.94352 65.8486H3.66992V72.631H4.94352V65.8486Z" fill="#DBDBDB"/>
<path d="M7.19938 65.8486H5.92578V72.631H7.19938V65.8486Z" fill="#DBDBDB"/>
<path d="M9.45524 65.8486H8.18164V72.631H9.45524V65.8486Z" fill="#DBDBDB"/>
<path d="M63.0949 33.4463H52.7637V72.6303H63.0949V33.4463Z" fill="#EBEBEB"/>
<path d="M63.0968 30.8467H54.2344V33.4451H63.0968V30.8467Z" fill="#C7C7C7"/>
<path d="M61.9621 34.8018H53.8965V64.0946H61.9621V34.8018Z" fill="#DBDBDB"/>
<path d="M61.9621 37.5967H53.8965V38.2895H61.9621V37.5967Z" fill="white"/>
<path d="M61.9621 40.4639H53.8965V41.1567H61.9621V40.4639Z" fill="white"/>
<path d="M61.9621 43.3311H53.8965V44.0239H61.9621V43.3311Z" fill="white"/>
<path d="M61.9621 46.1982H53.8965V46.891H61.9621V46.1982Z" fill="white"/>
<path d="M61.9621 49.0674H53.8965V49.7602H61.9621V49.0674Z" fill="white"/>
<path d="M61.9621 51.9346H53.8965V52.6274H61.9621V51.9346Z" fill="white"/>
<path d="M61.9621 54.8018H53.8965V55.4946H61.9621V54.8018Z" fill="white"/>
<path d="M61.9621 57.6689H53.8965V58.3617H61.9621V57.6689Z" fill="white"/>
<path d="M61.9621 60.5361H53.8965V61.2289H61.9621V60.5361Z" fill="white"/>
<path d="M61.9621 63.4033H53.8965V64.0961H61.9621V63.4033Z" fill="white"/>
<path d="M69.5677 33.4463H63.0957V72.6303H69.5677V33.4463Z" fill="#DBDBDB"/>
<path d="M68.5965 30.8467H63.0957V33.4451H68.5965V30.8467Z" fill="#A6A6A6"/>
<path d="M68.9662 34.8018H63.9902V64.0946H68.9662V34.8018Z" fill="#C7C7C7"/>
<path d="M68.9662 37.5967H63.9902V38.2895H68.9662V37.5967Z" fill="white"/>
<path d="M68.9662 40.4639H63.9902V41.1567H68.9662V40.4639Z" fill="white"/>
<path d="M68.9662 43.3311H63.9902V44.0239H68.9662V43.3311Z" fill="white"/>
<path d="M68.9662 46.1982H63.9902V46.891H68.9662V46.1982Z" fill="white"/>
<path d="M68.9662 49.0674H63.9902V49.7602H68.9662V49.0674Z" fill="white"/>
<path d="M68.9662 51.9346H63.9902V52.6274H68.9662V51.9346Z" fill="white"/>
<path d="M68.9662 54.8018H63.9902V55.4946H68.9662V54.8018Z" fill="white"/>
<path d="M68.9662 57.6689H63.9902V58.3617H68.9662V57.6689Z" fill="white"/>
<path d="M68.9662 60.5361H63.9902V61.2289H68.9662V60.5361Z" fill="white"/>
<path d="M68.9662 63.4033H63.9902V64.0961H68.9662V63.4033Z" fill="white"/>
<path d="M74.9754 34.1055H69.457V40.6239H74.9754V34.1055Z" fill="#DBDBDB"/>
<path d="M78.4738 34.1055H74.9746V40.8623H78.4738V34.1055Z" fill="#C7C7C7"/>
<path d="M78.7064 36.9844H75.2344V40.8628H78.7064V36.9844Z" fill="#DBDBDB"/>
<path d="M80.8734 36.9844H78.707V40.8628H80.8734V36.9844Z" fill="#C7C7C7"/>
<path d="M76.263 40.2021H67.3398V72.631H76.263V40.2021Z" fill="#EBEBEB"/>
<path d="M71.1658 41.5957H68.3594V42.7429H71.1658V41.5957Z" fill="white"/>
<path d="M74.7556 41.5957H71.9492V42.7429H74.7556V41.5957Z" fill="white"/>
<path d="M71.1658 43.541H68.3594V44.6882H71.1658V43.541Z" fill="white"/>
<path d="M74.7556 43.541H71.9492V44.6882H74.7556V43.541Z" fill="white"/>
<path d="M71.1658 45.4883H68.3594V46.6355H71.1658V45.4883Z" fill="white"/>
<path d="M74.7556 45.4883H71.9492V46.6355H74.7556V45.4883Z" fill="white"/>
<path d="M71.1658 47.4355H68.3594V48.5827H71.1658V47.4355Z" fill="white"/>
<path d="M74.7556 47.4355H71.9492V48.5827H74.7556V47.4355Z" fill="white"/>
<path d="M71.1658 49.3809H68.3594V50.5281H71.1658V49.3809Z" fill="white"/>
<path d="M74.7556 49.3809H71.9492V50.5281H74.7556V49.3809Z" fill="white"/>
<path d="M71.1658 51.3281H68.3594V52.4753H71.1658V51.3281Z" fill="white"/>
<path d="M74.7556 51.3281H71.9492V52.4753H74.7556V51.3281Z" fill="white"/>
<path d="M71.1658 53.2734H68.3594V54.4206H71.1658V53.2734Z" fill="white"/>
<path d="M74.7556 53.2734H71.9492V54.4206H74.7556V53.2734Z" fill="white"/>
<path d="M71.1658 55.2207H68.3594V56.3679H71.1658V55.2207Z" fill="white"/>
<path d="M74.7556 55.2207H71.9492V56.3679H74.7556V55.2207Z" fill="white"/>
<path d="M71.1658 57.167H68.3594V58.3142H71.1658V57.167Z" fill="white"/>
<path d="M74.7556 57.167H71.9492V58.3142H74.7556V57.167Z" fill="white"/>
<path d="M71.1658 59.1143H68.3594V60.2615H71.1658V59.1143Z" fill="white"/>
<path d="M74.7556 59.1143H71.9492V60.2615H74.7556V59.1143Z" fill="white"/>
<path d="M71.1658 61.0596H68.3594V62.2068H71.1658V61.0596Z" fill="white"/>
<path d="M74.7556 61.0596H71.9492V62.2068H74.7556V61.0596Z" fill="white"/>
<path d="M71.1658 63.0068H68.3594V64.154H71.1658V63.0068Z" fill="white"/>
<path d="M74.7556 63.0068H71.9492V64.154H74.7556V63.0068Z" fill="white"/>
<path d="M71.1658 64.9521H68.3594V66.0993H71.1658V64.9521Z" fill="white"/>
<path d="M74.7556 64.9521H71.9492V66.0993H74.7556V64.9521Z" fill="white"/>
<path d="M71.1658 66.8994H68.3594V68.0466H71.1658V66.8994Z" fill="white"/>
<path d="M74.7556 66.8994H71.9492V68.0466H74.7556V66.8994Z" fill="white"/>
<path d="M83.4921 40.2021H76.2617V72.631H83.4921V40.2021Z" fill="#C7C7C7"/>
<path d="M80.4636 68.0469H82.7676V66.8997H80.4636V68.0469Z" fill="#EBEBEB"/>
<path d="M77.5163 68.0469H79.8203V66.8997H77.5163V68.0469Z" fill="#EBEBEB"/>
<path d="M80.4636 66.0996H82.7676V64.9524H80.4636V66.0996Z" fill="#EBEBEB"/>
<path d="M77.5163 66.0996H79.8203V64.9524H77.5163V66.0996Z" fill="#EBEBEB"/>
<path d="M80.4636 64.1523H82.7676V63.0051H80.4636V64.1523Z" fill="#EBEBEB"/>
<path d="M77.5163 64.1523H79.8203V63.0051H77.5163V64.1523Z" fill="#EBEBEB"/>
<path d="M80.4636 62.207H82.7676V61.0598H80.4636V62.207Z" fill="#EBEBEB"/>
<path d="M77.5163 62.207H79.8203V61.0598H77.5163V62.207Z" fill="#EBEBEB"/>
<path d="M80.4636 60.2598H82.7676V59.1126H80.4636V60.2598Z" fill="#EBEBEB"/>
<path d="M77.5163 60.2598H79.8203V59.1126H77.5163V60.2598Z" fill="#EBEBEB"/>
<path d="M80.4636 58.3135H82.7676V57.1663H80.4636V58.3135Z" fill="#EBEBEB"/>
<path d="M77.5163 58.3135H79.8203V57.1663H77.5163V58.3135Z" fill="#EBEBEB"/>
<path d="M80.4636 56.3662H82.7676V55.219H80.4636V56.3662Z" fill="#EBEBEB"/>
<path d="M77.5163 56.3662H79.8203V55.219H77.5163V56.3662Z" fill="#EBEBEB"/>
<path d="M80.4636 54.4209H82.7676V53.2737H80.4636V54.4209Z" fill="#EBEBEB"/>
<path d="M77.5163 54.4209H79.8203V53.2737H77.5163V54.4209Z" fill="#EBEBEB"/>
<path d="M80.4636 52.4736H82.7676V51.3264H80.4636V52.4736Z" fill="#EBEBEB"/>
<path d="M77.5163 52.4736H79.8203V51.3264H77.5163V52.4736Z" fill="#EBEBEB"/>
<path d="M80.4636 50.5283H82.7676V49.3811H80.4636V50.5283Z" fill="#EBEBEB"/>
<path d="M77.5163 50.5283H79.8203V49.3811H77.5163V50.5283Z" fill="#EBEBEB"/>
<path d="M80.4636 48.5811H82.7676V47.4339H80.4636V48.5811Z" fill="#EBEBEB"/>
<path d="M77.5163 48.5811H79.8203V47.4339H77.5163V48.5811Z" fill="#EBEBEB"/>
<path d="M80.4636 46.6357H82.7676V45.4885H80.4636V46.6357Z" fill="#EBEBEB"/>
<path d="M77.5163 46.6357H79.8203V45.4885H77.5163V46.6357Z" fill="#EBEBEB"/>
<path d="M80.4636 44.6885H82.7676V43.5413H80.4636V44.6885Z" fill="#EBEBEB"/>
<path d="M77.5163 44.6885H79.8203V43.5413H77.5163V44.6885Z" fill="#EBEBEB"/>
<path d="M80.4636 42.7412H82.7676V41.594H80.4636V42.7412Z" fill="#EBEBEB"/>
<path d="M77.5163 42.7412H79.8203V41.594H77.5163V42.7412Z" fill="#EBEBEB"/>
<path d="M10.9399 41.7041H0.685547V72.6305H10.9399V41.7041Z" fill="#C7C7C7"/>
<path d="M4.11323 44.3809H2.29883V46.2753H4.11323V44.3809Z" fill="#DBDBDB"/>
<path d="M4.11323 48.4277H2.29883V50.3221H4.11323V48.4277Z" fill="#DBDBDB"/>
<path d="M4.11323 52.4756H2.29883V54.37H4.11323V52.4756Z" fill="#DBDBDB"/>
<path d="M4.11323 56.5215H2.29883V58.4159H4.11323V56.5215Z" fill="#DBDBDB"/>
<path d="M4.11323 60.5684H2.29883V62.4628H4.11323V60.5684Z" fill="#DBDBDB"/>
<path d="M4.11323 64.6162H2.29883V66.5106H4.11323V64.6162Z" fill="#DBDBDB"/>
<path d="M4.11323 68.6631H2.29883V70.5575H4.11323V68.6631Z" fill="#DBDBDB"/>
<path d="M6.72456 44.3809H4.91016V46.2753H6.72456V44.3809Z" fill="#DBDBDB"/>
<path d="M6.72456 48.4277H4.91016V50.3221H6.72456V48.4277Z" fill="#DBDBDB"/>
<path d="M6.72456 52.4756H4.91016V54.37H6.72456V52.4756Z" fill="#DBDBDB"/>
<path d="M6.72456 56.5215H4.91016V58.4159H6.72456V56.5215Z" fill="#DBDBDB"/>
<path d="M6.72456 60.5684H4.91016V62.4628H6.72456V60.5684Z" fill="#DBDBDB"/>
<path d="M6.72456 64.6162H4.91016V66.5106H6.72456V64.6162Z" fill="#DBDBDB"/>
<path d="M6.72456 68.6631H4.91016V70.5575H6.72456V68.6631Z" fill="#DBDBDB"/>
<path d="M9.32612 44.3809H7.51172V46.2753H9.32612V44.3809Z" fill="#DBDBDB"/>
<path d="M9.32612 48.4277H7.51172V50.3221H9.32612V48.4277Z" fill="#DBDBDB"/>
<path d="M9.32612 52.4756H7.51172V54.37H9.32612V52.4756Z" fill="#DBDBDB"/>
<path d="M9.32612 56.5215H7.51172V58.4159H9.32612V56.5215Z" fill="#DBDBDB"/>
<path d="M9.32612 60.5684H7.51172V62.4628H9.32612V60.5684Z" fill="#DBDBDB"/>
<path d="M9.32612 64.6162H7.51172V66.5106H9.32612V64.6162Z" fill="#DBDBDB"/>
<path d="M9.32612 68.6631H7.51172V70.5575H9.32612V68.6631Z" fill="#DBDBDB"/>
<path d="M10.9405 38.4814H4.11328V41.7038H10.9405V38.4814Z" fill="#DBDBDB"/>
<path d="M10.9393 36.4863H6.61133V38.4815H10.9393V36.4863Z" fill="#EBEBEB"/>
<path d="M19.471 41.7041H10.9414V72.6305H19.471V41.7041Z" fill="#A6A6A6"/>
<path d="M16.8476 70.2559H18.5996V68.3615H16.8476V70.2559Z" fill="#C7C7C7"/>
<path d="M16.8476 66.208H18.5996V64.3136H16.8476V66.208Z" fill="#C7C7C7"/>
<path d="M16.8476 62.1602H18.5996V60.2658H16.8476V62.1602Z" fill="#C7C7C7"/>
<path d="M16.8476 58.1152H18.5996V56.2208H16.8476V58.1152Z" fill="#C7C7C7"/>
<path d="M16.8476 54.0674H18.5996V52.173H16.8476V54.0674Z" fill="#C7C7C7"/>
<path d="M16.8476 50.0215H18.5996V48.1271H16.8476V50.0215Z" fill="#C7C7C7"/>
<path d="M16.8476 45.9727H18.5996V44.0783H16.8476V45.9727Z" fill="#C7C7C7"/>
<path d="M14.3261 70.2559H16.0781V68.3615H14.3261V70.2559Z" fill="#C7C7C7"/>
<path d="M14.3261 66.208H16.0781V64.3136H14.3261V66.208Z" fill="#C7C7C7"/>
<path d="M14.3261 62.1602H16.0781V60.2658H14.3261V62.1602Z" fill="#C7C7C7"/>
<path d="M14.3261 58.1152H16.0781V56.2208H14.3261V58.1152Z" fill="#C7C7C7"/>
<path d="M14.3261 54.0674H16.0781V52.173H14.3261V54.0674Z" fill="#C7C7C7"/>
<path d="M14.3261 50.0215H16.0781V48.1271H14.3261V50.0215Z" fill="#C7C7C7"/>
<path d="M14.3261 45.9727H16.0781V44.0783H14.3261V45.9727Z" fill="#C7C7C7"/>
<path d="M11.8125 70.2559H13.5645V68.3615H11.8125V70.2559Z" fill="#C7C7C7"/>
<path d="M11.8125 66.208H13.5645V64.3136H11.8125V66.208Z" fill="#C7C7C7"/>
<path d="M11.8125 62.1602H13.5645V60.2658H11.8125V62.1602Z" fill="#C7C7C7"/>
<path d="M11.8125 58.1152H13.5645V56.2208H11.8125V58.1152Z" fill="#C7C7C7"/>
<path d="M11.8125 54.0674H13.5645V52.173H11.8125V54.0674Z" fill="#C7C7C7"/>
<path d="M11.8125 50.0215H13.5645V48.1271H11.8125V50.0215Z" fill="#C7C7C7"/>
<path d="M11.8125 45.9727H13.5645V44.0783H11.8125V45.9727Z" fill="#C7C7C7"/>
<path d="M18.1798 38.4814H10.9414V41.7038H18.1798V38.4814Z" fill="#C7C7C7"/>
<path d="M14.863 36.4863H10.9414V38.4815H14.863V36.4863Z" fill="#DBDBDB"/>
<path d="M-10.4805 72.6301C23.1403 72.5309 60.8555 72.5309 94.4795 72.6301C60.8587 72.7277 23.1435 72.7277 -10.4805 72.6301Z" fill="#263238"/>
<path d="M18.6399 67.9696H17.3535L17.6815 40.5328L17.7087 38.248H18.2831L18.3103 40.5328L18.6399 67.9696Z" fill="#031A6B"/>
<path opacity="0.1" d="M18.3104 40.5328H17.6816L17.7088 38.248H18.2832L18.3104 40.5328Z" fill="black"/>
<path d="M15.6914 32.5529L16.053 38.9913L16.4786 39.0601L16.8642 39.1209V32.1689L16.0434 32.4377L15.6914 32.5529Z" fill="#031A6B"/>
<path d="M16.0912 33.3057C16.0912 33.3057 14.5232 33.3217 14.5552 33.4097C14.5872 33.4977 15.2192 33.6721 15.2752 33.7121C15.3312 33.7521 15.9312 34.8961 16.0912 34.8961C16.2512 34.8961 16.0912 33.3057 16.0912 33.3057Z" fill="#031A6B"/>
<path d="M16.2064 35.1279C16.2064 35.1279 14.6384 35.1439 14.6704 35.2319C14.7024 35.3199 15.3344 35.4959 15.3904 35.5359C15.4464 35.5759 16.0464 36.7199 16.2064 36.7199C16.3664 36.7199 16.2064 35.1279 16.2064 35.1279Z" fill="#031A6B"/>
<path d="M16.322 36.9502C16.322 36.9502 14.7556 36.9662 14.7876 37.0542C14.8196 37.1422 15.45 37.3182 15.506 37.3582C15.562 37.3982 16.162 38.5422 16.322 38.5422C16.482 38.5422 16.322 36.9502 16.322 36.9502Z" fill="#031A6B"/>
<path opacity="0.1" d="M16.043 32.4377L16.4782 39.0601L16.8638 39.1209V32.1689L16.043 32.4377Z" fill="black"/>
<path d="M20.3014 32.5529L19.9382 38.9913L19.5142 39.0601L19.127 39.1209V32.1689L19.9494 32.4377L20.3014 32.5529Z" fill="#031A6B"/>
<path d="M19.9012 33.3057C19.9012 33.3057 21.4676 33.3217 21.4356 33.4097C21.4036 33.4977 20.7716 33.6721 20.7156 33.7121C20.6596 33.7521 20.0612 34.8961 19.9012 34.8961C19.7412 34.8961 19.9012 33.3057 19.9012 33.3057Z" fill="#031A6B"/>
<path d="M19.784 35.1279C19.784 35.1279 21.352 35.1439 21.32 35.2319C21.288 35.3199 20.656 35.4959 20.6 35.5359C20.544 35.5759 19.944 36.7199 19.784 36.7199C19.624 36.7199 19.784 35.1279 19.784 35.1279Z" fill="#031A6B"/>
<path d="M19.6688 36.9502C19.6688 36.9502 21.2368 36.9662 21.2048 37.0542C21.1728 37.1422 20.5408 37.3182 20.4848 37.3582C20.4288 37.3982 19.8288 38.5422 19.6688 38.5422C19.5088 38.5422 19.6688 36.9502 19.6688 36.9502Z" fill="#031A6B"/>
<path opacity="0.1" d="M19.9494 32.4377L19.5142 39.0601L19.127 39.1209V32.1689L19.9494 32.4377Z" fill="black"/>
<path d="M19.4678 31.6445L19.3398 39.2781H16.6534L16.5254 31.6445H19.4678Z" fill="#031A6B"/>
<path d="M18.9591 33C18.9591 33.1899 18.9028 33.3755 18.7973 33.5334C18.6918 33.6913 18.5419 33.8143 18.3664 33.887C18.191 33.9596 17.998 33.9786 17.8118 33.9416C17.6256 33.9046 17.4545 33.8131 17.3202 33.6789C17.186 33.5446 17.0946 33.3735 17.0575 33.1873C17.0205 33.0011 17.0395 32.8081 17.1121 32.6327C17.1848 32.4572 17.3078 32.3073 17.4657 32.2018C17.6236 32.0963 17.8092 32.04 17.9991 32.04C18.2537 32.04 18.4979 32.1412 18.6779 32.3212C18.8579 32.5013 18.9591 32.7454 18.9591 33Z" fill="#DB6A57"/>
<path d="M18.9591 37.8399C18.9591 38.0298 18.9028 38.2154 18.7973 38.3732C18.6918 38.5311 18.5419 38.6541 18.3664 38.7268C18.191 38.7995 17.998 38.8185 17.8118 38.7814C17.6256 38.7444 17.4545 38.653 17.3202 38.5187C17.186 38.3844 17.0946 38.2134 17.0575 38.0272C17.0205 37.8409 17.0395 37.6479 17.1121 37.4725C17.1848 37.2971 17.3078 37.1472 17.4657 37.0417C17.6236 36.9362 17.8092 36.8799 17.9991 36.8799C18.2537 36.8799 18.4979 36.981 18.6779 37.1611C18.8579 37.3411 18.9591 37.5853 18.9591 37.8399Z" fill="white"/>
<path d="M18.9591 35.4395C18.9591 35.6294 18.9028 35.815 18.7973 35.9728C18.6918 36.1307 18.5419 36.2538 18.3664 36.3264C18.191 36.3991 17.998 36.4181 17.8118 36.381C17.6256 36.344 17.4545 36.2526 17.3202 36.1183C17.186 35.9841 17.0946 35.813 17.0575 35.6268C17.0205 35.4406 17.0395 35.2475 17.1121 35.0721C17.1848 34.8967 17.3078 34.7468 17.4657 34.6413C17.6236 34.5358 17.8092 34.4795 17.9991 34.4795C18.2537 34.4795 18.4979 34.5806 18.6779 34.7607C18.8579 34.9407 18.9591 35.1849 18.9591 35.4395Z" fill="white"/>
<path d="M19.0256 72.6297H16.9648L17.1408 67.2361L17.1952 65.5625H18.752L18.816 67.2361L19.0256 72.6297Z" fill="#031A6B"/>
<path opacity="0.1" d="M18.8158 67.2361H17.1406L17.195 65.5625H18.7518L18.8158 67.2361Z" fill="black"/>
<g opacity="0.5">
<path d="M29.2085 64.5375C30.2501 65.2767 36.1429 60.9215 37.2485 60.0831C38.3541 59.2447 37.5685 56.1775 36.2485 55.5935C34.9285 55.0095 33.8101 54.3471 33.5445 52.7135C33.2789 51.0799 33.7157 50.2239 34.9365 49.8175C36.1573 49.4111 38.5749 48.6975 38.0325 46.1119C37.4901 43.5263 34.6725 44.1167 33.1429 43.6159C31.6133 43.1151 29.9141 42.3647 30.0325 40.6143C30.1509 38.8639 31.7925 39.1119 34.3909 39.0287C36.9893 38.9455 38.8709 34.5679 39.0741 33.2687C39.2773 31.9695 38.9701 29.1615 37.5317 29.0575C36.0933 28.9535 35.1141 30.9951 34.2373 30.2239C33.3605 29.4527 35.8373 28.7023 35.8021 27.7439C35.7669 26.7855 34.9045 25.9359 33.9045 26.6399C32.9045 27.3439 31.0901 28.1615 30.2757 26.8271C29.4613 25.4927 30.2965 24.1375 31.3813 23.7423C32.4661 23.3471 33.9669 23.1375 34.2373 21.8447C34.5077 20.5519 32.6533 18.9263 33.4245 17.5247C34.1957 16.1231 35.3637 16.7951 35.3637 16.7951C35.3637 16.7951 33.9877 16.1071 33.1333 16.9823C32.2789 17.8575 33.8629 20.5023 32.8821 21.2559C31.9013 22.0095 28.4837 21.8191 27.3989 22.9871C26.3141 24.1551 24.9189 26.0095 25.8565 27.5519C26.7941 29.0943 29.3173 29.2831 30.3173 29.2831C31.3173 29.2831 32.2149 28.8239 32.5701 29.0127C32.9253 29.2015 32.4245 29.7631 31.5477 30.1167C30.6709 30.4703 28.7541 32.0367 30.1077 33.3279C31.4613 34.6191 33.6101 32.9935 34.4661 32.5775C35.3221 32.1615 34.4661 37.1423 32.1717 37.5183C29.8773 37.8943 28.7525 36.2255 27.3141 36.4975C25.8757 36.7695 23.9541 39.1647 25.0389 42.0015C26.1237 44.8383 31.5461 45.6815 32.0261 46.4895C32.5061 47.2975 32.3461 48.1583 31.6021 48.5695C30.8581 48.9807 27.0021 49.3695 26.0021 52.3455C25.0021 55.3215 24.8805 61.4671 29.2085 64.5375Z" fill="#DBDBDB"/>
<path d="M36.6336 59.8123C37.672 59.2603 38.048 57.7323 37.7776 56.6331C37.7245 56.3687 37.5988 56.1243 37.4144 55.9275C36.5392 55.1787 35.0336 55.1147 34.416 53.9579C34.057 53.3014 33.9436 52.5385 34.096 51.8059C34.2928 50.9371 35.1344 50.3659 35.9392 50.1819C36.6032 50.0603 37.2592 49.8731 37.7696 49.4123C38.8096 48.5355 39.1296 47.0347 38.8528 45.7323C38.7988 45.4061 38.6732 45.0959 38.4851 44.824C38.297 44.552 38.051 44.3251 37.7648 44.1595C37.184 43.8107 36.4768 43.6491 35.7792 43.4539C35.0816 43.2587 34.2448 43.0683 33.8176 42.3819C33.3616 41.6731 33.7664 40.7419 34.4192 40.3307C34.7321 40.1207 35.0842 39.9759 35.4544 39.9051C35.8144 39.8363 36.1648 39.8363 36.4976 39.6811C37.8144 39.0699 38.4784 37.5787 38.8864 36.2539C38.512 37.6203 37.8992 39.1339 36.5568 39.8139C36.2368 39.9835 35.84 40.0059 35.4928 40.0811C35.1522 40.1589 34.8307 40.3042 34.5472 40.5083C33.5872 41.2011 33.696 42.4155 34.8512 42.7995C35.88 43.1931 36.9712 43.2283 37.9856 43.7771C38.3332 43.9672 38.6355 44.2302 38.8719 44.548C39.1083 44.8659 39.2732 45.2311 39.3552 45.6187C39.9328 47.8747 38.7872 50.3707 36.3728 50.8363C35.2928 51.0475 34.6 51.7499 34.9216 52.8859C34.9764 53.109 35.0597 53.3242 35.1696 53.5259C35.3584 53.8363 35.6496 54.0059 36.0144 54.1835C36.88 54.5595 38.0368 54.7995 38.528 55.7595C38.8426 56.4272 38.9765 57.1656 38.9164 57.9012C38.8563 58.6368 38.6043 59.3438 38.1856 59.9515C37.9275 60.314 37.5961 60.6182 37.2128 60.8443L36.6336 59.8155V59.8123Z" fill="#DBDBDB"/>
<path d="M28.1132 65.1996C25.3004 62.4668 23.0284 58.6124 23.5468 54.5612C23.7964 52.902 24.4412 51.2684 25.5692 50.03C26.5196 49.0812 27.7772 48.5515 29.014 48.1179C29.3049 48.0246 29.5902 47.9146 29.8684 47.7884C30.2236 47.6108 30.2988 46.9771 29.9436 46.7675C27.8492 45.5803 24.4268 44.6876 24.1404 41.8604C24.5772 44.6492 28.014 45.3115 30.1564 46.3884C30.8284 46.7499 30.7436 47.8284 30.11 48.1852C29.8112 48.3365 29.5034 48.4696 29.1884 48.5836C28.3212 48.9244 27.4444 49.3179 26.7068 49.8731C26.2205 50.2243 25.8138 50.6741 25.5132 51.1932C24.8789 52.2456 24.4838 53.4246 24.3558 54.6467C24.2277 55.8688 24.37 57.1041 24.7724 58.2652C25.5548 60.5868 27.0796 62.6716 28.8892 64.31L28.1132 65.1996Z" fill="#DBDBDB"/>
</g>
<path d="M33.0109 55.6512L37.6061 59.104L31.8605 58.096L31.7373 62.64L30.0685 58.48L27.1309 62.5136L28.3437 58.16L22.8477 59.1088L27.7677 56.496L24.4701 55.8112L28.0477 55.2384L24.3677 50.9568L29.3597 53.3136L30.0605 47.3936L31.3693 53.0016C31.3693 53.0016 35.4941 49.6176 35.3693 49.712C35.2445 49.8064 32.5341 54.056 32.5341 54.056L37.0141 52.768L33.0109 55.6512Z" fill="#031A6B"/>
<path opacity="0.4" d="M33.0109 55.6512L37.6061 59.104L31.8605 58.096L31.7373 62.64L30.0685 58.48L27.1309 62.5136L28.3437 58.16L22.8477 59.1088L27.7677 56.496L24.4701 55.8112L28.0477 55.2384L24.3677 50.9568L29.3597 53.3136L30.0605 47.3936L31.3693 53.0016C31.3693 53.0016 35.4941 49.6176 35.3693 49.712C35.2445 49.8064 32.5341 54.056 32.5341 54.056L37.0141 52.768L33.0109 55.6512Z" fill="white"/>
<path opacity="0.4" d="M32.2387 55.6432L35.4595 58.064L31.4387 57.36L31.3523 60.5488L30.1827 57.6256L28.1219 60.4544L28.9731 57.4064L25.1523 58.336L28.5683 56.24L26.2563 55.76L28.7635 55.3584L26.1827 52.3568L29.6883 54L30.1795 49.8496L31.0963 53.7808C31.0963 53.7808 33.9875 51.408 33.8963 51.4752C33.8051 51.5424 31.9091 54.5152 31.9091 54.5152L35.0451 53.6128L32.2387 55.6432Z" fill="white"/>
<path d="M25.3405 72.3952L27.3074 72.6009C28.2961 72.7043 29.1815 71.9866 29.2849 70.9978L30.1203 63.0094C30.2237 62.0207 29.506 61.1354 28.5172 61.032L26.5504 60.8263C25.5616 60.7229 24.6763 61.4406 24.5729 62.4293L23.7375 70.4177C23.6341 71.4065 24.3518 72.2918 25.3405 72.3952Z" fill="#CC9933"/>
<path d="M26.8118 53.7951C26.8118 53.7951 27.6518 53.7951 27.8294 53.6783C28.007 53.5615 28.7718 53.0463 28.9494 53.0895C29.6038 53.2495 31.2486 54.0175 31.6806 54.5567C31.9174 54.8527 31.0758 55.9359 30.6726 56.1023C30.2694 56.2687 28.2294 55.4735 27.9334 55.2703C27.7357 55.1053 27.5965 54.8808 27.5366 54.6303L26.6406 54.5119L26.8118 53.7951Z" fill="#CC9933"/>
<path d="M26.0684 53.166C26.0684 53.166 26.6492 53.3004 26.7804 53.4348C26.9116 53.5692 27.2764 54.5932 27.2204 54.9308C27.1644 55.2684 26.774 55.59 26.774 55.59L26.0684 53.166Z" fill="#CC9933"/>
<path opacity="0.1" d="M26.0684 53.166C26.0684 53.166 26.6492 53.3004 26.7804 53.4348C26.9116 53.5692 27.2764 54.5932 27.2204 54.9308C27.1644 55.2684 26.774 55.59 26.774 55.59L26.0684 53.166Z" fill="black"/>
<path d="M28.4076 58.3516C28.4076 58.3516 29.1996 59.174 29.3292 59.5052C29.3612 59.5836 29.406 60.1852 29.4332 60.3372C29.4332 60.3372 29.7356 61.1372 29.7532 61.4188C29.7628 61.6444 29.1404 65.7692 29.1708 66.198C29.2012 66.6268 29.4252 66.8764 29.4172 67.0588C29.3552 67.2431 29.2826 67.4237 29.1996 67.5996C29.1996 67.6412 29.2908 68.014 29.2556 68.1324C28.9356 69.2316 28.5324 70.7276 28.3948 70.958C28.2044 71.278 25.7324 71.5644 25.7324 71.5644L28.4076 58.3516Z" fill="#CC9933"/>
<g opacity="0.1">
<path d="M28.4076 58.3516C28.4076 58.3516 29.1996 59.174 29.3292 59.5052C29.3612 59.5836 29.406 60.1852 29.4332 60.3372C29.4332 60.3372 29.7356 61.1372 29.7532 61.4188C29.7628 61.6444 29.1404 65.7692 29.1708 66.198C29.2012 66.6268 29.4252 66.8764 29.4172 67.0588C29.3552 67.2431 29.2826 67.4237 29.1996 67.5996C29.1996 67.6412 29.2908 68.014 29.2556 68.1324C28.9356 69.2316 28.5324 70.7276 28.3948 70.958C28.2044 71.278 25.7324 71.5644 25.7324 71.5644L28.4076 58.3516Z" fill="black"/>
</g>
<path d="M28.4992 68.8208C28.4816 68.9808 27.8304 71.3184 27.5936 71.5504C27.3568 71.7824 22.7936 71.792 22.5088 71.7824C22.224 71.7728 21.3776 71.2432 21.2144 71.1984C21.0512 71.1536 11.9008 70.8208 10.7824 70.776C9.66399 70.7312 0.516788 70.3472 0.350388 70.3792C0.183988 70.4112 -0.708812 70.8704 -0.988812 70.8592C-1.26881 70.848 -5.81921 70.48 -6.03681 70.2288C-6.25441 69.9776 -6.72001 67.6 -6.72641 67.44C-6.73281 67.28 -6.53281 66.6992 -6.52801 66.5712C-6.52321 66.4432 -6.31201 57.6112 -6.26721 57.4512C-6.22241 57.2912 -5.81601 56.0992 -5.64321 55.8512C-5.47041 55.6032 -3.95681 53.824 -3.92001 53.712C-2.92801 51.0816 -0.291213 47.2816 0.102387 46.9536C0.468112 46.6523 0.912102 46.4614 1.38239 46.4032C1.76319 46.3712 6.91039 46.384 11.7184 46.5728C16.5264 46.7616 21.6592 47.1536 22.0368 47.2128C22.5029 47.3076 22.9328 47.5323 23.2768 47.8608C23.6416 48.2192 25.9728 52.216 26.7568 54.9152C26.7904 55.0304 28.1632 56.9104 28.3152 57.1744C28.4672 57.4384 28.7792 58.648 28.8112 58.8192C28.8256 58.9008 28.6272 60.8224 28.5184 62.9152C28.5056 63.1744 28.5712 63.4912 28.5776 63.752C28.5776 63.8704 27.8768 65.0208 27.8832 65.088C27.912 65.3744 28.3632 67.8848 28.3552 67.9392C28.3648 68.0672 28.5184 68.656 28.4992 68.8208Z" fill="#CC9933"/>
<path opacity="0.1" d="M27.456 67.2064C27.456 67.3584 27.1968 68.5328 27.0624 68.56C23.3584 69.3296 14.5152 69.7504 10.8304 69.5456C7.1408 69.4608 -1.64001 68.3488 -5.27361 67.2912C-5.40641 67.2528 -5.56481 66.0624 -5.55841 65.9104C-5.55201 65.7584 -5.33441 64.08 -5.14561 64.0368C-4.95681 63.9936 -1.10241 64.8368 2.14399 65.4048C5.06055 65.8908 8.00524 66.1896 10.96 66.2991C13.9138 66.4221 16.8724 66.3547 19.8176 66.0975C23.096 65.7935 27.0048 65.248 27.192 65.3072C27.3792 65.3664 27.4608 67.0544 27.456 67.2064Z" fill="black"/>
<path opacity="0.5" d="M23.921 65.6531L22.5322 69.1587C18.4442 69.5283 13.3882 69.6883 10.825 69.5459C8.26497 69.4867 3.23297 68.9315 -0.815028 68.2419L-1.92383 64.6387C-0.671028 64.8867 0.786572 65.1715 2.13857 65.4051C5.05724 65.8914 8.00408 66.1902 10.961 66.2995C13.9148 66.4224 16.8734 66.355 19.8186 66.0979C21.1818 65.9715 22.6586 65.8035 23.921 65.6531Z" fill="white"/>
<path d="M19.8159 66.0978C19.8303 66.1842 19.0751 67.5506 18.5119 68.3586C18.3519 68.6002 17.5647 69.1394 17.3919 69.1714C17.2191 69.2034 15.0031 69.709 10.8319 69.5458C6.66065 69.3826 4.50225 68.7026 4.32625 68.6578C4.15025 68.613 3.41585 68.0178 3.26705 67.7602C2.77105 66.9106 2.12465 65.4882 2.14705 65.405C2.16945 65.3218 4.75665 66.0546 10.9615 66.2994C17.1663 66.5442 19.8031 66.013 19.8159 66.0978Z" fill="#CC9933"/>
<path d="M24.6588 67.0787C24.6529 67.2307 24.6922 67.3811 24.7718 67.5108C24.8513 67.6405 24.9675 67.7438 25.1057 67.8074C25.2439 67.8711 25.3979 67.8924 25.5482 67.8686C25.6985 67.8448 25.8383 67.777 25.9501 67.6737C26.0618 67.5705 26.1405 67.4364 26.1761 67.2884C26.2116 67.1405 26.2026 66.9853 26.15 66.8425C26.0974 66.6997 26.0037 66.5757 25.8807 66.4862C25.7576 66.3967 25.6108 66.3456 25.4588 66.3395C25.3577 66.3354 25.2568 66.3513 25.1619 66.3863C25.0669 66.4212 24.9798 66.4746 24.9055 66.5432C24.8312 66.6119 24.7712 66.6945 24.7288 66.7864C24.6865 66.8783 24.6627 66.9776 24.6588 67.0787Z" fill="white"/>
<path d="M26.0003 66.5858C25.9058 66.4836 25.7837 66.4112 25.6487 66.3774C25.5138 66.3436 25.3719 66.3499 25.2405 66.3955C25.1091 66.4412 24.9938 66.5241 24.9088 66.6342C24.8238 66.7444 24.7728 66.8769 24.762 67.0156C24.7512 67.1543 24.781 67.2931 24.8479 67.4151C24.9148 67.5371 25.0158 67.6369 25.1386 67.7023C25.2613 67.7678 25.4005 67.796 25.5391 67.7835C25.6776 67.7711 25.8095 67.7185 25.9187 67.6322C25.9953 67.5706 26.0586 67.494 26.1046 67.4071C26.1505 67.3201 26.1782 67.2247 26.1858 67.1266C26.1935 67.0286 26.1809 66.93 26.149 66.837C26.1171 66.744 26.0665 66.6585 26.0003 66.5858ZM26.0003 66.5858C26.1081 66.7039 26.1796 66.8506 26.2061 67.0083C26.2326 67.166 26.213 67.328 26.1496 67.4749C26.0863 67.6217 25.9818 67.7472 25.8489 67.8361C25.716 67.925 25.5602 67.9737 25.4003 67.9762C25.2851 67.9754 25.1713 67.951 25.066 67.9044C24.9607 67.8579 24.866 67.7903 24.7878 67.7057C24.7097 67.6211 24.6498 67.5213 24.6117 67.4127C24.5737 67.304 24.5583 67.1886 24.5667 67.0738C24.5827 66.9142 24.6446 66.7627 24.7448 66.6374C24.845 66.5122 24.9792 66.4186 25.1314 66.3679C25.2835 66.3172 25.4471 66.3115 25.6024 66.3516C25.7576 66.3917 25.898 66.4758 26.0067 66.5938L26.0003 66.5858Z" fill="#DBDBDB"/>
<path d="M26.0844 54.7603C26.0844 54.7603 19.2044 54.7907 11.4236 54.4851C3.64276 54.1795 -3.21484 53.6099 -3.21484 53.6099C-1.67084 50.1443 0.273156 47.4931 0.481156 47.3491C0.845333 47.1639 1.22977 47.0216 1.62676 46.9251C2.49876 46.7427 8.66676 46.9475 11.7148 47.0675C14.7628 47.1875 20.9276 47.4659 21.782 47.7155C22.17 47.8437 22.542 48.016 22.8908 48.2291C23.0876 48.3891 24.8172 51.1843 26.0844 54.7603Z" fill="#37474F"/>
<path d="M26.0844 54.7598C26.0844 54.7598 19.2044 54.7902 11.4236 54.4846C3.64276 54.179 -3.21484 53.6094 -3.21484 53.6094C-3.06978 53.283 -2.92151 52.963 -2.77004 52.6494C-1.19244 52.7742 4.79316 53.2302 11.462 53.4926C18.1308 53.755 24.134 53.7694 25.7164 53.7678C25.8412 54.0921 25.9638 54.4227 26.0844 54.7598Z" fill="#CC9933"/>
<g opacity="0.3">
<path d="M26.0824 54.7597C25.428 54.2797 24.5864 53.7309 23.98 53.2445L23.9896 52.2477L24.0104 52.2813L22.5208 51.5645H22.5112V51.5565L21.4008 49.8877C20.6648 49.6237 19.732 49.2477 18.9336 48.9277C19.7736 49.2333 20.6264 49.5245 21.4552 49.8477L22.5752 51.5101L22.5608 51.4957L24.0456 52.2189L24.0664 52.2285V52.2509L24.0488 53.2461C24.6392 53.6349 25.4344 54.2813 26.0872 54.7613L26.0824 54.7597Z" fill="white"/>
<path d="M24.8187 53.8396C24.1323 53.8844 23.4459 53.9356 22.7595 53.9708L21.2203 53.5068C20.5403 53.4556 19.7707 53.3948 19.0619 53.334C18.3531 53.2732 17.6107 53.2124 16.8843 53.1452C16.4763 52.6204 16.0731 52.0892 15.6699 51.5596C16.0587 52.054 16.5771 52.6476 16.9003 53.094C17.6235 53.1452 18.3462 53.1985 19.0683 53.254C19.7905 53.3094 20.5147 53.3692 21.2411 53.4332L22.7755 53.9132C23.4155 53.8796 24.1499 53.8588 24.8187 53.8332V53.8396Z" fill="white"/>
<path d="M20.7618 53.4304C20.2722 53.1504 19.7746 52.8304 19.3074 52.5136C19.0354 52.4704 18.6114 52.3648 18.293 52.2832C18.6434 52.3296 18.9938 52.384 19.341 52.4432C19.821 52.7488 20.3106 53.0832 20.7618 53.424V53.4304Z" fill="white"/>
<path d="M23.8366 52.1561C23.6766 51.8985 23.5422 51.6361 23.4046 51.3705C23.4622 51.0777 23.555 50.6617 23.6254 50.3673V50.3913C23.5054 50.1721 23.3854 49.9545 23.2734 49.7305C23.419 49.9385 23.5534 50.1529 23.6894 50.3705C23.6302 50.6697 23.5422 51.0841 23.4718 51.3769C23.6058 51.6313 23.7265 51.8924 23.8334 52.1593L23.8366 52.1561Z" fill="white"/>
<path d="M23.813 53.8862C23.5266 53.6942 23.1938 53.4574 22.9394 53.2734L22.2994 53.0014L21.6594 52.7198H21.6434C21.5986 52.5214 21.5602 52.3198 21.5186 52.1198C21.477 51.9198 21.4434 51.7294 21.4082 51.5342C21.4626 51.7246 21.5154 51.9166 21.5682 52.1086C21.621 52.3006 21.669 52.4942 21.7122 52.6878L21.693 52.6622L22.333 52.9358L22.973 53.2158C23.2589 53.4366 23.541 53.6622 23.8194 53.8926L23.813 53.8862Z" fill="white"/>
<path d="M21.7313 53.6221C21.4481 53.7821 21.1617 53.9421 20.8705 54.1021C20.4097 54.1021 19.9479 54.0919 19.4849 54.0717C19.3329 54.0717 19.1793 54.0541 19.0273 54.0429C19.1793 54.0349 19.3329 54.0285 19.4865 54.0253C19.9169 54.0253 20.4785 54.0109 20.8465 54.0349C21.1377 53.893 21.4327 53.7575 21.7313 53.6285V53.6221Z" fill="white"/>
</g>
<path d="M0.359375 52.45C0.359375 52.45 1.78498 51.9844 1.91938 51.97C2.05378 51.9556 7.74498 51.7412 7.74498 51.7412L7.75458 51.866C7.75458 51.866 2.25538 52.266 2.16578 52.2756C2.07618 52.2852 0.388175 52.8804 0.388175 52.8804L0.359375 52.45Z" fill="#0F0F0F"/>
<path d="M15.1484 53.7487L17.5628 53.8447C17.5138 53.6375 17.4463 53.4351 17.3612 53.2399C17.2972 53.1615 16.678 53.0287 16.3868 53.0159C16.0956 53.0031 15.4668 53.0895 15.3964 53.1631C15.2968 53.3507 15.2138 53.5466 15.1484 53.7487Z" fill="#CC9933"/>
<path d="M16.3125 53.075C16.3125 53.075 17.7381 52.611 17.8725 52.595C18.0069 52.579 23.6997 52.3662 23.6997 52.3662L23.7077 52.491L18.1205 52.899C18.0309 52.907 16.3413 53.4974 16.3413 53.4974L16.3125 53.075Z" fill="#0F0F0F"/>
<g opacity="0.1">
<path d="M9.27508 46.9779L1.71508 53.9667C1.07508 53.9267 0.494278 53.8867 -0.0449219 53.8499L7.44788 46.9219L9.27508 46.9779Z" fill="white"/>
<path d="M23.1202 48.5329L16.5026 54.6401L14.6738 54.5905L22.0226 47.7969C22.3264 47.9066 22.6172 48.0493 22.8898 48.2225C22.976 48.3187 23.0531 48.4226 23.1202 48.5329Z" fill="white"/>
<path d="M25.6098 53.5078L24.2578 54.759C23.7298 54.759 23.1026 54.759 22.3906 54.7446L25.0802 52.2598C25.2578 52.6566 25.4354 53.0742 25.6098 53.5078Z" fill="white"/>
<path d="M6.87858 46.9058L-0.588622 53.8098L-0.857422 53.7906L6.59698 46.8994L6.87858 46.9058Z" fill="white"/>
<path d="M15.5765 47.2364L7.90446 54.3276L7.63086 54.3132L15.3013 47.2236L15.5765 47.2364Z" fill="white"/>
<path d="M24.7619 51.5701L21.3395 54.7333H21.0547L24.6739 51.3877C24.7027 51.4405 24.7331 51.5061 24.7619 51.5701Z" fill="white"/>
<path d="M2.94684 46.8545L-2.28516 51.6913C-2.05956 51.2609 -1.83396 50.8545 -1.61636 50.4737L2.28444 46.8689C2.47964 46.8625 2.69724 46.8561 2.94684 46.8545Z" fill="white"/>
<path d="M17.9993 47.3663L10.3481 54.4415L9.73047 54.4143L17.3913 47.3311L17.9993 47.3663Z" fill="white"/>
</g>
<path opacity="0.1" d="M26.0836 54.7598C26.5982 55.419 27.0383 56.1332 27.3956 56.8894C27.5396 57.1694 27.0756 57.5294 26.8804 57.6702C26.9636 57.5534 27.0484 57.4398 27.1204 57.3214C27.1716 57.2398 27.2676 57.0814 27.2468 57.0014C27.2372 56.9838 27.2148 56.947 27.202 56.9278C26.7667 56.2388 26.392 55.5134 26.082 54.7598H26.0836Z" fill="black"/>
<path d="M14.7715 64.6869L7.28125 64.3926L7.2026 66.3942L14.6928 66.6885L14.7715 64.6869Z" fill="white"/>
<path opacity="0.1" d="M15.4081 59.5005L14.6241 58.2109L10.0801 60.0221L14.7457 59.8189L15.4081 59.5005Z" fill="black"/>
<path opacity="0.1" d="M23.2521 58.2819L18.5529 54.6963L17.9961 56.8339L23.2521 58.2819Z" fill="black"/>
<path d="M27.2462 57.0014C27.1902 57.675 25.699 58.667 25.699 58.667C25.699 58.667 24.259 59.1374 22.4126 59.627C21.9998 59.7038 21.563 59.7758 21.1054 59.8398C18.6126 60.1886 11.555 60.0846 9.45898 60.0622C10.2894 60.0222 15.099 59.6094 15.4142 59.499C15.7294 59.3886 17.6798 57.0126 17.9998 56.8334C18.1518 56.747 22.7998 58.0814 23.2558 58.2814C23.3006 58.3006 25.4702 56.6814 25.5246 56.571C25.579 56.4606 26.0878 54.7598 26.0878 54.7598C26.0878 54.7598 27.2798 56.6606 27.2462 57.0014Z" fill="#CC9933"/>
<path opacity="0.1" d="M25.5199 56.571L23.5039 54.763L26.0831 54.7598L25.5199 56.571Z" fill="black"/>
<path opacity="0.1" d="M28.5275 60.6077C28.5275 60.7677 28.4779 61.6925 28.3483 61.7629C27.9899 61.9597 26.4283 62.3885 25.4507 62.5293C20.8971 63.1853 14.3067 63.3981 11.0811 63.2173C7.84913 63.1437 1.29713 62.4173 -3.19087 61.4045C-4.15087 61.1885 -5.67887 60.6381 -6.02127 60.4141C-6.14287 60.3325 -6.11408 59.4093 -6.10768 59.2493C-6.10128 59.0893 -4.94127 56.9821 -4.73967 56.9357C-4.53807 56.8893 -2.35567 58.2461 1.35793 59.0669C5.16433 59.9069 11.2011 60.1629 11.2011 60.1629C11.2011 60.1629 17.2379 60.3821 21.0987 59.8429C24.8651 59.3165 27.1419 58.2429 27.3387 58.3117C27.5355 58.3805 28.5339 60.4477 28.5275 60.6077Z" fill="black"/>
<path opacity="0.5" d="M28.3472 61.7629C27.0304 62.4029 25.5824 62.7037 24.1392 62.8941C22.696 63.0845 21.2496 63.2621 19.7984 63.3917C16.8944 63.6397 13.9776 63.8189 11.0608 63.6989C6.32802 63.4733 1.63042 62.6973 -2.97758 61.6189C-4.04127 61.3583 -5.06415 60.9529 -6.01758 60.4141C-5.03831 60.8885 -4.00286 61.2369 -2.93598 61.4509C1.69442 62.3069 6.37602 63.0333 11.0832 63.2429C13.9776 63.3725 16.8832 63.2093 19.776 63.0381C21.224 62.9389 22.672 62.8237 24.1168 62.6733C24.8392 62.618 25.5577 62.5208 26.2688 62.3821C26.9777 62.2321 27.6733 62.025 28.3488 61.7629H28.3472Z" fill="white"/>
<path d="M26.5404 57.7363C25.758 57.7779 21.966 59.9299 21.8028 60.1139C21.6396 60.2979 21.19 62.1827 21.4156 62.3779C21.6412 62.5731 24.4428 62.5875 25.2908 62.4851C26.1388 62.3827 27.8988 61.9795 28.302 61.6931C28.7052 61.4067 28.4892 59.2707 28.1212 58.8307C27.6476 58.2643 27.0428 57.7091 26.5404 57.7363Z" fill="white"/>
<path d="M26.5397 57.7363C26.3376 57.7697 26.1404 57.8277 25.9525 57.9091C25.3854 58.1446 24.832 58.4117 24.2949 58.7091C23.4949 59.1491 22.6837 59.5971 21.9205 60.1059C21.8853 60.1363 21.8469 60.1555 21.8325 60.1907C21.7387 60.4224 21.6669 60.6624 21.6181 60.9075C21.5043 61.3408 21.4505 61.7876 21.4581 62.2355C21.4581 62.2771 21.4821 62.3187 21.4805 62.3059C21.5142 62.3209 21.5497 62.3317 21.5861 62.3379C22.2384 62.4172 22.8955 62.4509 23.5525 62.4387C24.3643 62.4664 25.1769 62.4128 25.9781 62.2787C26.7189 62.1331 27.4805 62.0019 28.1781 61.7011C28.2397 61.6711 28.2928 61.626 28.3325 61.5701C28.3722 61.5142 28.3972 61.4492 28.4053 61.3811C28.4679 61.0852 28.49 60.7822 28.4709 60.4803C28.4592 60.0729 28.4012 59.6682 28.2981 59.2739C28.2529 59.0748 28.157 58.8907 28.0197 58.7395C27.6261 58.3059 27.1637 57.7683 26.5365 57.7443L26.5397 57.7363ZM26.5397 57.7363C27.2005 57.7539 27.7237 58.3763 28.1397 58.8355C28.4373 59.3155 28.4885 59.9155 28.5477 60.4675C28.5573 60.8771 28.6197 61.3427 28.3781 61.7027C28.2941 61.7738 28.1989 61.8306 28.0965 61.8707C27.2298 62.204 26.3288 62.4401 25.4101 62.5747C24.385 62.6768 23.3531 62.6934 22.3253 62.6243C22.0637 62.613 21.8032 62.5825 21.5461 62.5331C21.482 62.522 21.4206 62.4986 21.3653 62.4643C21.3361 62.4391 21.3123 62.4082 21.2952 62.3736C21.2782 62.339 21.2683 62.3013 21.2661 62.2627C21.2293 61.7827 21.3605 61.3235 21.4693 60.8643C21.5201 60.6634 21.5816 60.4652 21.6533 60.2707C21.6832 60.1585 21.7539 60.0615 21.8517 59.9987C22.6373 59.5187 23.4597 59.0931 24.2805 58.6755C24.8309 58.4019 25.3813 58.1283 25.9525 57.9043C26.1416 57.8274 26.3393 57.7737 26.5413 57.7443L26.5397 57.7363Z" fill="#DBDBDB"/>
<path d="M24.507 60.4946C24.4994 60.6509 24.5302 60.8067 24.5966 60.9484C24.663 61.0901 24.7631 61.2134 24.8881 61.3076C25.013 61.4018 25.1591 61.464 25.3137 61.4888C25.4682 61.5136 25.6264 61.5003 25.7746 61.45C25.9228 61.3996 26.0564 61.3138 26.1638 61.2001C26.2713 61.0863 26.3493 60.948 26.391 60.7971C26.4328 60.6463 26.4371 60.4876 26.4034 60.3347C26.3698 60.1819 26.2994 60.0396 26.1982 59.9202C26.0731 59.7729 25.9065 59.6667 25.7202 59.6156C25.5338 59.5644 25.3363 59.5707 25.1536 59.6337C24.9709 59.6966 24.8114 59.8132 24.696 59.9682C24.5807 60.1233 24.5148 60.3095 24.507 60.5026V60.4946ZM24.507 60.4946C24.515 60.3165 24.5672 60.1431 24.6589 59.9902C24.7506 59.8372 24.8788 59.7095 25.0322 59.6185C25.1855 59.5274 25.3591 59.4759 25.5372 59.4687C25.7154 59.4614 25.8926 59.4986 26.0528 59.5768C26.2131 59.655 26.3513 59.7719 26.4552 59.9169C26.559 60.0618 26.6252 60.2304 26.6477 60.4073C26.6702 60.5842 26.6484 60.7639 26.5841 60.9302C26.5199 61.0966 26.4153 61.2443 26.2798 61.3602C26.1204 61.4945 25.9255 61.5798 25.7187 61.6057C25.5119 61.6315 25.302 61.5969 25.1145 61.506C24.9269 61.4151 24.7697 61.2718 24.6619 61.0935C24.5541 60.9151 24.5003 60.7093 24.507 60.501V60.4946Z" fill="#DBDBDB"/>
<path d="M22.4108 61.088C22.4045 61.2453 22.4444 61.4011 22.5255 61.5361C22.6065 61.671 22.7253 61.7794 22.8671 61.8478C23.0089 61.9163 23.1676 61.9417 23.3237 61.9212C23.4798 61.9006 23.6265 61.8348 23.7458 61.732C23.8651 61.6292 23.9517 61.4938 23.995 61.3424C24.0383 61.191 24.0364 61.0303 23.9896 60.8799C23.9428 60.7296 23.8531 60.5962 23.7315 60.4961C23.6099 60.3961 23.4617 60.3338 23.3052 60.3168C23.1952 60.3056 23.0841 60.3169 22.9787 60.3501C22.8732 60.3833 22.7757 60.4376 22.692 60.5098C22.6082 60.582 22.5401 60.6705 22.4918 60.7699C22.4434 60.8693 22.4159 60.9776 22.4108 61.088ZM22.4108 61.088C22.4166 60.9347 22.4605 60.7853 22.5387 60.6533C22.6168 60.5213 22.7266 60.4109 22.8582 60.3321C22.9898 60.2533 23.139 60.2086 23.2923 60.202C23.4455 60.1954 23.598 60.2272 23.7358 60.2945C23.8737 60.3617 23.9926 60.4623 24.0817 60.5872C24.1709 60.712 24.2274 60.8571 24.2463 61.0093C24.2652 61.1615 24.2458 61.316 24.1899 61.4589C24.1339 61.6017 24.0432 61.7283 23.926 61.8272C23.7889 61.9402 23.6221 62.0114 23.4456 62.0322C23.2691 62.0531 23.0904 62.0228 22.9307 61.9448C22.771 61.8669 22.637 61.7447 22.5449 61.5928C22.4527 61.4409 22.4061 61.2656 22.4108 61.088Z" fill="#DBDBDB"/>
<path d="M26.7996 59.6322C26.9052 59.9826 26.9596 61.6722 26.894 61.893C26.8352 62.0171 26.7562 62.1306 26.6604 62.229C27.366 62.069 28.0604 61.861 28.2956 61.693C28.7004 61.4066 28.4828 59.2706 28.1132 58.8306C27.6412 58.2626 27.0348 57.7106 26.534 57.7362C26.2154 57.7941 25.9068 57.897 25.6172 58.0418C25.6172 58.0418 26.7004 59.2802 26.7996 59.6322Z" fill="#FEFEFE"/>
<path d="M28.5183 60.6896L27.9839 61.1136L27.6639 61.7328L27.2703 61.344L26.9359 61.4752L26.4671 61.6608L26.0031 61.5376L25.6831 61.6352L25.3791 60.9408H24.8495L24.7871 60.5248L25.0703 60L25.8527 59.4352L25.5487 59.2976L25.6287 58.7776L26.0303 58.5184L26.4751 58.2304L27.0047 57.9248L27.5295 58.4864L27.9839 58.6672C28.0351 58.7232 28.0831 58.7792 28.1311 58.8368C28.2751 59.008 28.3967 59.44 28.4671 59.9184L28.3439 60.2944L28.5263 60.5184C28.5151 60.5712 28.5183 60.6304 28.5183 60.6896Z" fill="#FEFEFE"/>
<path d="M25.6167 58.7713C25.4455 58.7809 25.2727 58.7873 25.1015 58.7905C24.9223 58.9201 24.5991 59.0993 24.3703 59.2433C23.9303 59.4177 23.4903 59.5889 23.0391 59.7345C23.4551 59.5345 23.9239 59.3393 24.3303 59.1745C24.5847 59.0289 24.8375 58.8785 25.0951 58.7393C25.2695 58.7473 25.4439 58.7585 25.6167 58.7713Z" fill="#DBDBDB"/>
<path d="M24.838 60.9344C24.5853 60.9081 24.3342 60.8675 24.086 60.8128C23.7748 60.8493 23.4618 60.8674 23.1484 60.8672C23.4577 60.8054 23.7702 60.761 24.0844 60.7344C24.3372 60.7904 24.59 60.8528 24.838 60.9344Z" fill="#DBDBDB"/>
<path d="M21.0987 59.8421C21.1147 59.9285 20.0955 61.9141 19.9147 62.1541C19.7339 62.3941 18.9003 62.7941 18.7083 62.8197C18.5163 62.8453 15.5691 63.3285 11.0827 63.1525C6.59631 62.9765 3.69551 62.2693 3.50671 62.2229C3.31791 62.1765 2.51791 61.7189 2.35791 61.4661C2.19791 61.2133 1.33391 59.1509 1.35791 59.0661C1.38191 58.9813 4.16911 59.6405 5.86671 59.7733C6.70191 59.8405 9.31791 60.0933 11.2011 60.1621C13.0843 60.2309 15.7099 60.1941 16.5483 60.1941C18.2507 60.1957 21.0843 59.7605 21.0987 59.8421Z" fill="#CC9933"/>
<path d="M3.19644 59.3791C3.57724 59.4495 3.98524 59.5231 4.39004 59.5871L1.49244 59.4735C1.46844 59.4143 1.44924 59.3583 1.43164 59.3135L3.19644 59.3791ZM19.238 60.0095C18.854 60.0495 18.438 60.0895 18.0332 60.1215L20.9292 60.2367C20.958 60.1791 20.982 60.1263 21.0044 60.0767L19.238 60.0095ZM12.9468 60.2015C12.3436 60.2015 11.7404 60.1839 11.1996 60.1631C10.6588 60.1423 10.0556 60.1055 9.45244 60.0639L1.60444 59.7599L1.67004 59.9199L20.7196 60.6655L20.798 60.5055L12.9468 60.2015ZM1.78684 60.2015C1.80924 60.2559 1.83164 60.3103 1.85564 60.3615L20.4988 61.0943C20.526 61.0431 20.5532 60.9903 20.5788 60.9343L1.78684 60.2015ZM1.97564 60.6479L2.04764 60.8079L20.2716 61.5199L20.3564 61.3599L1.97564 60.6479ZM2.17244 61.0943C2.19964 61.1535 2.22684 61.2079 2.24764 61.2543L20.0364 61.9519L20.1244 61.7919L2.17244 61.0943ZM2.41724 61.5423C2.47657 61.6004 2.54022 61.6538 2.60764 61.7023L19.6428 62.3711C19.7142 62.3255 19.7821 62.2747 19.846 62.2191L2.41724 61.5423ZM3.05724 62.0063C3.16074 62.0691 3.26756 62.1262 3.37724 62.1775L18.8172 62.7839C18.9334 62.7417 19.0472 62.693 19.158 62.6383L3.05724 62.0063ZM4.96604 62.5199C5.34684 62.5871 5.79644 62.6591 6.30844 62.7311L15.8652 63.1071C16.3836 63.0751 16.8364 63.0383 17.222 62.9999L4.96604 62.5199Z" fill="#CC9933"/>
<path d="M27.8978 65.0896L27.349 64.2384L25.7874 64.1936L24.5058 64.0352L22.2226 64.7264L21.2578 64.7168L22.2226 64.8496L24.5058 64.3536L25.805 64.6208H26.8434L28.0082 65.7696L27.8978 65.0896Z" fill="#CC9933"/>
<path d="M40.4184 55.3139C38.2792 53.5939 35.0728 51.0275 34.6056 50.6867C34.3416 50.7283 33.3928 51.0851 32.9736 51.2403C32.3736 51.4659 32.3736 51.4659 32.2792 51.4355C32.1384 51.3891 30.9528 50.0579 30.6888 49.7587C30.4952 49.7171 29.8088 49.6243 29.1992 49.5523L29.2552 49.0723C30.9112 49.2691 30.9416 49.3075 31.0152 49.3923C31.0712 49.4595 32.1 50.5939 32.4168 50.9235L32.8056 50.7811C34.5176 50.1411 34.6584 50.1411 34.8104 50.2339C35.1016 50.4131 40.1448 54.4675 40.7192 54.9283L40.4184 55.3139Z" fill="#031A6B"/>
<path d="M89.3728 65.9443L74.416 66.0163C74.416 66.0163 76.016 59.0211 81.8608 58.9923C87.7056 58.9635 89.1072 64.3843 89.3728 65.9443Z" fill="#031A6B"/>
<path opacity="0.2" d="M89.3728 65.9443L74.416 66.0163C74.416 66.0163 76.016 59.0211 81.8608 58.9923C87.7056 58.9635 89.1072 64.3843 89.3728 65.9443Z" fill="black"/>
<path d="M45.9708 66.9056L31.0156 66.9776C31.0156 66.9776 32.6156 59.9824 38.4604 59.9552C44.3052 59.928 45.7068 65.3472 45.9708 66.9056Z" fill="#031A6B"/>
<path opacity="0.2" d="M45.9708 66.9056L31.0156 66.9776C31.0156 66.9776 32.6156 59.9824 38.4604 59.9552C44.3052 59.928 45.7068 65.3472 45.9708 66.9056Z" fill="black"/>
<path d="M92.7322 53.1822C93.0522 53.6894 93.6458 59.299 93.6794 59.4942C93.713 59.6894 94.1833 60.5486 94.1914 60.7118C94.1994 60.875 94.3274 63.403 94.2634 63.5662C94.1132 63.8654 93.9421 64.1536 93.7514 64.4286C93.6698 64.5278 91.5594 66.3614 91.3226 66.387C91.0858 66.4126 88.8922 66.4398 88.8522 66.3998C88.8122 66.3598 88.5242 59.6094 81.8714 59.6414C75.2186 59.6734 75.3273 66.8414 75.2057 66.8654C75.0841 66.8894 45.3097 67.7134 45.3097 67.7134C45.3097 66.6174 45.1881 60.0878 38.6617 60.1182C34.4105 60.139 32.4393 63.6558 32.3785 66.2398C32.3529 67.3166 32.5385 68.4974 32.4793 68.4974C32.2825 68.4974 31.6121 68.5518 31.4985 68.4974C31.3849 68.443 31.5881 67.5646 31.4729 67.5374C31.3577 67.5102 30.5561 67.4926 30.3529 67.4446C30.1497 67.3966 28.7449 65.8814 28.7193 65.8398C28.6937 65.7982 29.5033 62.4142 29.5017 62.259C29.5017 62.1982 29.4153 60.2094 29.4409 59.9982C29.4713 59.7406 30.0153 59.5598 30.1081 59.3022C30.6057 57.9342 31.0121 56.3182 31.3753 56.227C31.5001 56.1966 32.5305 56.867 32.6745 56.787C32.8889 56.6606 33.1225 56.2142 33.4985 55.8782C33.5193 55.8606 34.1177 55.8782 34.1385 55.8526C34.1593 55.827 34.5257 54.8638 34.6057 54.8702C34.8521 54.8878 35.5737 55.3966 35.7257 55.3838C35.8777 55.371 36.2841 54.5614 36.2969 54.5582C36.5401 54.499 36.8105 54.4942 37.0777 54.4302C37.7177 54.2782 39.8089 54.8878 40.1273 54.8622C40.6777 54.819 42.5705 53.4942 42.6617 53.4222C42.9065 53.2494 54.3961 46.5854 56.3977 46.091C58.0169 45.6894 76.7737 46.1406 77.7561 46.1838C78.7385 46.227 81.4569 46.707 81.7177 46.7054C81.9785 46.7038 84.9914 46.6734 85.1722 46.755C85.353 46.8366 85.1721 47.555 84.9465 47.6878C84.7209 47.8206 92.1722 52.3006 92.7322 53.1822Z" fill="#031A6B"/>
<path opacity="0.2" d="M43.6816 62.7857C43.6816 62.7857 73.3584 61.9665 73.528 62.2193C73.6976 62.4721 44.0464 64.0017 44.0464 64.0017L43.6816 62.7857Z" fill="white"/>
<path opacity="0.2" d="M92.7325 53.1827C92.7325 53.1827 79.4269 54.6547 78.8317 54.6451C78.2365 54.6355 46.6045 55.8195 46.0317 55.7875C45.4589 55.7555 40.1309 54.8563 40.1309 54.8563C40.6813 54.8147 42.5741 53.4883 42.6653 53.4163C42.9117 53.2419 54.3997 46.5779 56.4013 46.0835C58.0205 45.6819 76.7773 46.1315 77.7597 46.1779C78.7421 46.2243 81.4605 46.6995 81.7213 46.6979C81.9821 46.6963 84.9949 46.6659 85.1757 46.7475C85.3565 46.8291 85.1757 47.5475 84.9501 47.6803C84.7245 47.8131 92.1709 52.3011 92.7325 53.1827Z" fill="white"/>
<path opacity="0.1" d="M37.4178 55.9831C37.4178 56.0423 36.805 55.9735 36.7522 55.9735C36.6994 55.9735 35.7266 55.3783 35.7266 55.3783C35.8562 55.3655 36.285 54.5543 36.2978 54.5527C36.3106 54.5511 37.4178 55.9207 37.4178 55.9831Z" fill="black"/>
<path opacity="0.1" d="M34.135 57.0145C34.1078 57.0945 33.5302 57.0401 33.5046 57.0465C33.479 57.0529 32.6758 56.7809 32.6758 56.7809C32.8902 56.6561 33.1238 56.2097 33.4998 55.8721C33.4998 55.8721 34.1606 56.9345 34.135 57.0145Z" fill="black"/>
<path opacity="0.1" d="M34.6078 54.8643L34.5582 55.9283L34.1406 55.8451C34.1598 55.8307 34.5262 54.8627 34.6078 54.8643Z" fill="black"/>
<path d="M84.0792 52.7204C83.7592 53.6676 46.3752 55.258 46.1592 54.8004C45.9992 54.4612 48.0616 52.0228 49.6792 51.106C51.2968 50.1892 55.9192 47.5412 58.204 47.266C60.4888 46.9908 65.116 46.986 69.1512 47.042C73.1512 47.0964 77.8664 47.1716 79.5384 47.8756C80.9992 48.4884 84.324 51.9684 84.0792 52.7204Z" fill="#263238"/>
<path d="M82.9892 52.1748C82.8932 52.53 74.3301 53.4932 64.2933 54.0068C54.2565 54.5204 49.2964 54.6196 49.1732 54.57C49.05 54.5204 49.5044 51.85 49.6756 51.6228C49.8468 51.3956 57.0212 47.6836 58.1556 47.5812C59.29 47.4788 65.3844 47.4356 68.466 47.4692C71.5476 47.5028 77.9669 47.842 79.0612 48.2788C80.018 48.6612 83.0852 51.818 82.9892 52.1748Z" fill="#37474F"/>
<g opacity="0.1">
<path d="M69.6797 47.4951L75.4557 53.2167C76.4813 53.1223 77.4285 53.0279 78.2813 52.9367L72.9229 47.6295C71.7869 47.5671 70.6541 47.5207 69.6797 47.4951Z" fill="white"/>
<path d="M49.1992 54.0003L49.7816 54.5763C50.3656 54.5763 51.3816 54.5507 52.8216 54.5043L49.8168 51.5283C49.7705 51.5532 49.7275 51.5839 49.6888 51.6195C49.5544 51.7811 49.2872 53.2003 49.1992 54.0003Z" fill="white"/>
<path d="M65.3867 47.4595L71.5307 53.5395C72.0219 53.5027 72.5019 53.4659 72.9707 53.4259L66.9403 47.4531L65.3867 47.4595Z" fill="white"/>
<path d="M52.2734 50.2023L56.4846 54.3719L57.9742 54.3079L53.3038 49.6807C52.9502 49.8583 52.603 50.0327 52.2734 50.2023Z" fill="white"/>
<path d="M73.9531 47.6885L79.1499 52.8373L79.5435 52.7909L74.4235 47.7173L73.9531 47.6885Z" fill="white"/>
<path d="M51.3828 50.6631L55.178 54.4231L55.6036 54.4071L51.6724 50.5127L51.3828 50.6631Z" fill="white"/>
<path d="M56.7969 48.0415L62.8913 54.0767L63.3137 54.0575L57.1105 47.9199L56.7969 48.0415Z" fill="white"/>
<path d="M78.0605 48.0625L82.4093 52.3697C82.5555 52.3388 82.6739 52.31 82.7646 52.2833L78.5933 48.1537C78.4397 48.1217 78.2605 48.0913 78.0605 48.0625Z" fill="white"/>
</g>
<path d="M77.594 47.9984C77.554 47.9984 77.5364 48.0512 77.5716 48.1456C77.7764 48.7024 79.3604 51.848 79.7572 52.5824C79.7812 52.623 79.8133 52.6582 79.8516 52.6857C79.8899 52.7132 79.9335 52.7325 79.9796 52.7424L77.2148 53.04C77.263 53.0202 77.3028 52.9844 77.3276 52.9386C77.3524 52.8929 77.3606 52.8399 77.3508 52.7888C77.322 52.6144 76.2772 48.912 75.9508 48.0032C75.9131 47.9186 75.8468 47.8501 75.7636 47.8096C75.7092 47.8096 76.2436 47.8096 76.7364 47.8656C77.1764 47.92 77.594 47.9984 77.594 47.9984Z" fill="#263238"/>
<path d="M73.9465 47.6864C73.9465 47.6864 73.8953 47.7152 73.8937 47.816C73.8809 48.688 73.8041 53.056 73.8937 53.296C73.9049 53.3264 73.9177 53.3456 73.9353 53.352L73.4121 53.3968C73.4393 53.3581 73.4554 53.3127 73.4585 53.2656C73.5145 52.5264 73.5481 48.5232 73.5353 47.7824C73.53 47.7376 73.5129 47.6951 73.4857 47.6592L73.9465 47.6864Z" fill="#263238"/>
<path d="M65.3464 47.6399C65.2856 47.8335 65.212 53.5359 65.212 53.7199C65.212 53.9039 65.4216 53.9471 65.4216 53.9471L62.1816 54.1071C62.1816 54.1071 62.3912 54.0479 62.428 53.9471C62.4648 53.8463 63.452 47.6959 63.4456 47.6159C63.4392 47.5359 63.2856 47.4559 63.2856 47.4559L65.5448 47.4463C65.5001 47.4629 65.4593 47.4888 65.4252 47.5221C65.391 47.5555 65.3642 47.5956 65.3464 47.6399Z" fill="#263238"/>
<path d="M33.6151 58.2183C33.4791 58.6183 31.5127 59.2343 30.5607 59.2263C30.2503 59.2263 30.1063 58.9351 29.9863 58.7847L30.1223 58.4519H30.2103L30.3031 58.2295L30.3959 58.2487L30.4935 57.8695L30.6215 57.6583L30.4615 57.4807C30.5171 57.3902 30.5856 57.3083 30.6647 57.2375C30.8519 57.0855 31.6551 56.8103 32.3751 56.8135C32.6199 56.8151 33.8263 57.5927 33.6151 58.2183Z" fill="#263238"/>
<path d="M33.6145 58.2177C33.4785 58.6177 31.5121 59.2337 30.5601 59.2257C30.4608 59.2171 30.3651 59.1843 30.2814 59.1302C30.1978 59.0761 30.1286 59.0023 30.0801 58.9153L30.1793 58.8625L30.5361 58.8289L31.4289 58.8017L31.7185 58.1329L31.8545 58.3217L32.0961 57.9889L31.8481 57.7473L32.1025 57.5425L31.6721 57.2481L31.0321 57.2081L30.8465 57.3521L30.7585 57.2257L30.4913 57.4417C30.541 57.3667 30.6002 57.2984 30.6673 57.2385C30.8545 57.0865 31.6577 56.8113 32.3777 56.8145C32.6193 56.8145 33.8257 57.5921 33.6145 58.2177Z" fill="white"/>
<path d="M31.125 59.8007L31.5474 59.4727L31.6226 59.7063L31.789 59.7351L31.5378 60.1175L31.2994 59.8647L31.125 59.8007Z" fill="white"/>
<path d="M32.0977 59.4897L32.3121 59.3857L32.4161 59.6241L32.0977 59.4897Z" fill="white"/>
<path d="M30.1902 59.3525L30.1406 59.4309L30.2478 59.3925L30.1902 59.3525Z" fill="white"/>
<path d="M30.2578 59.4775L30.2962 59.8679L30.4306 59.7255L30.4946 59.7127L30.4514 59.5527L30.2578 59.4775Z" fill="white"/>
<path d="M31.7012 60.4533L31.8148 60.5573L31.89 60.4821L32.0292 60.4581L31.8228 60.2773L31.7012 60.4533Z" fill="white"/>
<path d="M33.0389 58.3408C32.7957 58.408 32.5013 58.48 32.2805 58.5248C32.1205 58.6256 31.9605 58.7248 31.8085 58.8224C31.6805 58.8224 31.5541 58.8096 31.4277 58.8016C31.5413 58.8016 31.7141 58.7888 31.7973 58.8016C31.9493 58.6992 32.1045 58.5984 32.2597 58.4992C32.5173 58.44 32.7781 58.3904 33.0389 58.3472V58.3408Z" fill="#DBDBDB"/>
<path d="M32.7436 58.04C32.6801 58.1937 32.5926 58.3362 32.4844 58.4624C32.5469 58.3083 32.6345 58.1656 32.7436 58.04Z" fill="#DBDBDB"/>
<path d="M32.1035 57.543C32.1803 57.5798 32.2539 57.6198 32.3275 57.6614H32.3163C32.51 57.6194 32.7061 57.5895 32.9035 57.5718C32.7102 57.6261 32.5135 57.6678 32.3147 57.6966C32.2427 57.6486 32.1723 57.599 32.1035 57.5462V57.543Z" fill="#DBDBDB"/>
<g opacity="0.1">
<path d="M63.5049 54.5176L63.2905 56.0888L63.1993 56.8808C63.1849 57.012 63.1721 57.1448 63.1625 57.2776C63.1529 57.4104 63.1625 57.5416 63.1625 57.6744L63.2073 60.8456L63.2393 62.4296L63.2569 63.2296L63.2649 63.6248L63.2969 64.02L63.4265 65.6008L63.5689 67.18L63.4809 65.5976L63.3817 64.0168L63.3577 63.6216V63.2248L63.3449 62.4328L63.3225 60.8504L63.2521 57.6824C63.2521 57.5512 63.2393 57.4184 63.2521 57.2872C63.2649 57.156 63.2697 57.0248 63.2809 56.8936L63.3577 56.1064L63.5049 54.5176Z" fill="black"/>
<path d="M46.1023 55.3219L45.8399 56.9011L45.7103 57.6915L45.6783 57.8883C45.6647 57.9537 45.6567 58.02 45.6543 58.0867C45.6543 58.2211 45.6543 58.3539 45.6543 58.4883C45.6687 59.5555 45.6991 60.6211 45.7375 61.6883C45.7471 61.9555 45.7599 62.2211 45.7743 62.4883C45.792 62.7567 45.8458 63.0215 45.9343 63.2755C46.0831 63.7891 46.2543 64.2963 46.4383 64.7971C46.6166 65.3007 46.8305 65.791 47.0783 66.2643L47.1775 66.4403C47.2127 66.4979 47.2511 66.5523 47.2879 66.6099C47.3248 66.6664 47.366 66.7199 47.4111 66.7699L47.4767 66.8483C47.5124 66.8689 47.5524 66.8809 47.5935 66.8835C47.8623 66.9091 48.1279 66.9123 48.3935 66.9203C50.5279 66.9539 52.6607 66.9203 54.7935 66.8995C56.9263 66.8787 59.0607 66.8323 61.1935 66.7827C63.3263 66.7331 65.4591 66.6643 67.5935 66.5747C68.6591 66.5267 69.7247 66.4867 70.7935 66.3859C70.9299 66.3745 71.0653 66.3526 71.1983 66.3203C71.2735 66.2899 71.3167 66.2547 71.3807 66.2275C71.4447 66.2003 71.4991 66.1683 71.5583 66.1411C71.7999 66.0307 72.0495 65.9331 72.2895 65.8115C72.5335 65.6941 72.7593 65.5422 72.9599 65.3603C73.1335 65.1547 73.2938 64.9383 73.4399 64.7123C74.0367 63.8259 74.6063 62.9235 75.1775 62.0227C75.7487 61.1219 76.3087 60.2131 76.8687 59.3027C77.4287 58.3923 77.9887 57.4819 78.5263 56.5651L78.7295 56.2195L78.7775 56.1299L78.8015 56.0835C78.8031 56.067 78.8031 56.0504 78.8015 56.0339L78.8207 55.8339C78.8415 55.5683 78.8607 55.3027 78.8687 55.0339C78.8687 54.9667 78.8687 54.8995 78.8687 54.8323C78.86 54.7661 78.8455 54.7008 78.8255 54.6371C78.7871 54.5091 78.7439 54.3827 78.6991 54.2579C78.6074 54.0062 78.5114 53.7571 78.4111 53.5107C78.5087 53.7587 78.6047 54.0083 78.6927 54.2595C78.7359 54.3859 78.7791 54.5123 78.8159 54.6403C78.8353 54.7036 78.8492 54.7683 78.8575 54.8339C78.8575 54.8995 78.8575 54.9667 78.8575 55.0339C78.8463 55.2995 78.8255 55.5651 78.8015 55.8339L78.7823 56.0323C78.7832 56.0489 78.7832 56.0654 78.7823 56.0819L78.7583 56.1235C78.7423 56.1523 78.7295 56.1811 78.7119 56.2099L78.5151 56.5603C77.9615 57.4723 77.3951 58.3795 76.8335 59.2803C75.7039 61.0899 74.5791 62.9043 73.3903 64.6755C73.2436 64.8985 73.0833 65.1122 72.9103 65.3155C72.714 65.4914 72.4936 65.6385 72.2559 65.7523C72.0191 65.8707 71.7759 65.9683 71.5263 66.0723C71.4655 66.1011 71.4047 66.1283 71.3455 66.1587C71.2863 66.1891 71.2207 66.2307 71.1711 66.2483C71.0449 66.2784 70.9165 66.2982 70.7871 66.3075C69.7263 66.4051 68.6591 66.4419 67.5871 66.4883C65.4559 66.5715 63.3231 66.6275 61.1871 66.6771C59.0511 66.7267 56.9215 66.7779 54.7871 66.8115C52.6527 66.8451 50.5199 66.8787 48.3871 66.8515C48.1199 66.8515 47.8527 66.8419 47.5871 66.8163C47.5624 66.8134 47.5378 66.8091 47.5135 66.8035L47.4495 66.7283C47.4063 66.6778 47.3668 66.6244 47.3311 66.5683C47.2943 66.5123 47.2559 66.4595 47.2223 66.4083L47.1231 66.2371C46.8763 65.7667 46.6625 65.2796 46.4831 64.7795C46.2959 64.2803 46.1247 63.7747 45.9759 63.2643C45.8872 63.0148 45.8334 62.7542 45.8159 62.4899L45.7759 61.6899C45.7279 60.6259 45.6879 59.5587 45.6655 58.4899C45.6655 58.3555 45.6655 58.2227 45.6655 58.0899C45.6678 58.0234 45.6747 57.9571 45.6863 57.8915L45.7167 57.6947L45.8399 56.9043L46.1023 55.3219Z" fill="black"/>
<path d="M33.0391 58.6816C33.2715 58.8544 33.5159 59.0105 33.7703 59.1488C34.0231 59.2928 34.2807 59.4304 34.5367 59.5696C34.7927 59.7088 35.0551 59.8384 35.3175 59.9664C35.5799 60.0944 35.8439 60.224 36.1175 60.3424C35.8679 60.1936 35.6135 60.0528 35.3575 59.912L34.5879 59.4976L33.8119 59.0944L33.4231 58.8928C33.2913 58.8296 33.1631 58.7591 33.0391 58.6816Z" fill="black"/>
<path d="M77.3142 61.0049L73.159 61.1345L69.0022 61.2801L60.6918 61.5745L52.383 61.9041L48.2278 62.0705L44.0742 62.2529L48.2294 62.1249L52.3846 61.9777L60.6966 61.6849L69.0054 61.3537L73.1606 61.1873L77.3142 61.0049Z" fill="black"/>
<path d="M77.5284 55.0485H77.6884H77.7284C77.738 55.0485 77.7396 55.0485 77.7444 55.0693C77.7516 55.0944 77.7564 55.1201 77.7588 55.1461C77.7699 55.2524 77.7731 55.3594 77.7684 55.4661C77.7684 55.5189 77.7684 55.5733 77.754 55.6261C77.7514 55.6498 77.7454 55.6729 77.7364 55.6949H77.7236H77.6932C77.5876 55.7045 77.4788 55.7077 77.3732 55.7125C76.9412 55.7285 76.5076 55.7445 76.0756 55.7541L75.426 55.7749L75.106 55.7829H74.9732C74.9604 55.7829 74.9652 55.7829 74.9732 55.7829C74.9655 55.7705 74.9596 55.757 74.9556 55.7429C74.9489 55.7188 74.9441 55.6942 74.9412 55.6693C74.9259 55.5634 74.9206 55.4563 74.9252 55.3493C74.926 55.2958 74.9303 55.2423 74.938 55.1893C74.9406 55.1683 74.9465 55.1477 74.9556 55.1285C74.9746 55.119 74.9952 55.113 75.0164 55.1109C75.226 55.0741 75.4436 55.0597 75.6564 55.0373C75.4385 55.0331 75.2207 55.04 75.0036 55.0581C74.9709 55.0582 74.9391 55.0683 74.9124 55.0869C74.8922 55.1137 74.879 55.145 74.874 55.1781C74.8634 55.231 74.856 55.2844 74.8516 55.3381C74.8411 55.4483 74.8411 55.5592 74.8516 55.6693C74.854 55.6985 74.8588 55.7274 74.866 55.7557C74.8687 55.7751 74.8754 55.7938 74.8856 55.8106C74.8958 55.8273 74.9092 55.8419 74.9252 55.8533C74.9342 55.8607 74.9455 55.8647 74.9572 55.8645H74.9812H75.026H75.434L76.0836 55.8533C76.5172 55.8341 76.9492 55.8197 77.3828 55.7861C77.4916 55.7765 77.5988 55.7685 77.7028 55.7525C77.7191 55.7511 77.7351 55.7478 77.7508 55.7429C77.7603 55.7406 77.7695 55.7368 77.778 55.7317C77.7869 55.7238 77.794 55.7139 77.7988 55.7029C77.8093 55.6746 77.8157 55.645 77.818 55.6149C77.8209 55.5616 77.8209 55.5082 77.818 55.4549C77.8151 55.3475 77.8039 55.2405 77.7844 55.1349C77.7799 55.1075 77.7724 55.0807 77.762 55.0549C77.7602 55.0471 77.7563 55.0399 77.7508 55.0341C77.7508 55.0341 77.73 55.0197 77.7252 55.0229H77.6852L77.5284 55.0485Z" fill="black"/>
<path d="M61.6221 55.5173H61.7821H61.8221C61.8317 55.5173 61.8333 55.5173 61.8381 55.5381C61.8455 55.5631 61.8503 55.5889 61.8525 55.6149C61.8636 55.7212 61.8668 55.8281 61.8621 55.9349C61.8621 55.9877 61.8621 56.0405 61.8477 56.0949C61.8453 56.1186 61.8394 56.1418 61.8301 56.1637H61.8173H61.7869C61.6813 56.1733 61.5725 56.1765 61.4669 56.1813C61.0349 56.1957 60.6013 56.2117 60.1693 56.2213L59.5197 56.2437H59.1997H59.0669C59.0541 56.2437 59.0589 56.2437 59.0669 56.2437C59.0592 56.2312 59.0533 56.2178 59.0493 56.2037C59.0428 56.1795 59.038 56.1549 59.0349 56.1301C59.0197 56.0241 59.0144 55.917 59.0189 55.8101C59.0197 55.7565 59.024 55.7031 59.0317 55.6501C59.0349 55.6291 59.0408 55.6087 59.0493 55.5893C59.0683 55.5798 59.0889 55.5738 59.1101 55.5717C59.3197 55.5333 59.5373 55.5205 59.7501 55.4981C59.5323 55.4925 59.3144 55.4989 59.0973 55.5173C59.0649 55.5185 59.0334 55.5285 59.0061 55.5461C58.9863 55.573 58.9731 55.6043 58.9677 55.6373C58.9574 55.6902 58.9499 55.7436 58.9453 55.7973C58.9349 55.908 58.9349 56.0194 58.9453 56.1301C58.9479 56.1587 58.9527 56.187 58.9597 56.2149C58.9625 56.2345 58.9691 56.2534 58.9793 56.2705C58.9894 56.2875 59.0029 56.3023 59.0189 56.3141C59.0287 56.32 59.0396 56.3238 59.0509 56.3253H59.5309L60.1805 56.3125C60.6141 56.2949 61.0461 56.2805 61.4797 56.2469C61.5885 56.2373 61.6957 56.2293 61.7997 56.2133C61.816 56.2111 61.8321 56.2074 61.8477 56.2021C61.8572 56.2003 61.8664 56.1971 61.8749 56.1925C61.8832 56.1839 61.8902 56.1742 61.8957 56.1637C61.9062 56.1348 61.9126 56.1047 61.9149 56.0741C61.9179 56.0208 61.9179 55.9674 61.9149 55.9141C61.9122 55.8067 61.901 55.6997 61.8813 55.5941C61.8766 55.5663 61.8697 55.5391 61.8605 55.5125C61.8574 55.5057 61.8536 55.4993 61.8493 55.4933C61.8461 55.4892 61.8419 55.4859 61.8372 55.4837C61.8325 55.4814 61.8273 55.4804 61.8221 55.4805H61.7821L61.6221 55.5173Z" fill="black"/>
</g>
<path d="M86.522 70.9374C88.9377 68.5217 88.9377 64.6052 86.522 62.1896C84.1064 59.774 80.1899 59.774 77.7743 62.1896C75.3586 64.6052 75.3586 68.5217 77.7743 70.9374C80.1899 73.353 84.1064 73.353 86.522 70.9374Z" fill="#263238"/>
<path d="M76.9964 66.69C77.0165 67.7091 77.3384 68.6994 77.9214 69.5356C78.5044 70.3718 79.3222 71.0163 80.2715 71.3876C81.2208 71.759 82.2589 71.8405 83.2545 71.6218C84.2501 71.4031 85.1585 70.8941 85.8648 70.1592C86.5711 69.4242 87.0436 68.4963 87.2225 67.4928C87.4015 66.4893 87.2788 65.4553 86.87 64.5215C86.4612 63.5877 85.7847 62.7961 84.9261 62.2468C84.0674 61.6975 83.0651 61.4152 82.046 61.4356C81.3674 61.4425 80.6971 61.5847 80.0742 61.8538C79.4513 62.1229 78.8882 62.5134 78.4181 63.0027C77.9479 63.4919 77.58 64.07 77.3359 64.7032C77.0918 65.3363 76.9763 66.0117 76.9964 66.69Z" fill="#37474F"/>
<path d="M84.1836 70.5974C86.4107 69.4738 87.3054 66.7575 86.1818 64.5303C85.0583 62.3031 82.3419 61.4084 80.1147 62.532C77.8875 63.6556 76.9929 66.3719 78.1164 68.5991C79.24 70.8263 81.9564 71.721 84.1836 70.5974Z" fill="#DBDBDB"/>
<path d="M85.0927 69.5084C86.7191 67.882 86.7191 65.245 85.0927 63.6185C83.4662 61.9921 80.8292 61.9921 79.2028 63.6185C77.5763 65.245 77.5763 67.882 79.2028 69.5084C80.8292 71.1349 83.4662 71.1349 85.0927 69.5084Z" fill="#A6A6A6"/>
<path d="M81.4739 65.5314L82.7811 65.5058C82.3267 64.877 83.8211 62.6258 83.8211 62.6258L83.1283 62.4082C82.6867 63.2082 82.4627 63.4386 82.0867 63.445C81.7107 63.4514 81.4755 63.2274 81.0019 62.4514L80.3203 62.6946C80.3203 62.6946 81.9027 64.8802 81.4739 65.5314Z" fill="#DBDBDB"/>
<path d="M82.1055 67.7413L81.0399 66.9941C81.0399 67.7701 78.5039 68.7157 78.5039 68.7157L78.9359 69.2981C79.7615 68.9157 80.0799 68.8565 80.3887 69.0725C80.6975 69.2885 80.7535 69.6069 80.6815 70.5125L81.3775 70.7157C81.3775 70.7157 81.3791 68.0117 82.1055 67.7413Z" fill="#DBDBDB"/>
<path d="M80.9866 66.8662L81.3658 65.6134C80.6282 65.8518 78.945 63.7334 78.945 63.7334L78.5242 64.3254C79.1434 64.991 79.2986 65.2854 79.1882 65.6374C79.0778 65.9894 78.793 66.1494 77.9082 66.3622L77.929 67.0854C77.929 67.0854 80.505 66.2582 80.9866 66.8662Z" fill="#DBDBDB"/>
<path d="M80.9377 66.559C80.9425 66.7982 81.0181 67.0306 81.155 67.2268C81.2918 67.423 81.4838 67.5742 81.7066 67.6613C81.9293 67.7484 82.173 67.7675 82.4066 67.7162C82.6402 67.6649 82.8534 67.5455 83.0192 67.373C83.1849 67.2005 83.2959 66.9828 83.3379 66.7473C83.3799 66.5118 83.3511 66.2691 83.2552 66.0499C83.1594 65.8308 83.0006 65.645 82.7992 65.516C82.5977 65.3871 82.3625 65.3207 82.1233 65.3254C81.8026 65.3322 81.4977 65.4658 81.2754 65.6971C81.0532 65.9283 80.9317 66.2383 80.9377 66.559Z" fill="#DBDBDB"/>
<path d="M43.3322 72.7063H34.4186C33.5994 72.7063 34.1162 72.2807 34.2874 72.2807C34.4314 72.2807 34.4282 72.0023 34.5274 71.9095L34.5578 71.8823L38.8778 71.6631L43.1978 71.8823L43.2186 71.9031C43.305 71.9815 43.3178 72.2807 43.4666 72.2807C43.6154 72.2807 44.1498 72.7063 43.3322 72.7063Z" fill="#263238"/>
<path d="M45.0603 67.4068C45.081 68.463 44.8274 69.5064 44.3243 70.4352C43.8212 71.364 43.0858 72.1464 42.1899 72.706H35.5387C35.1746 72.4754 34.8357 72.2073 34.5275 71.906C33.3772 70.7856 32.7169 69.2556 32.6907 67.65C32.658 66.0097 33.2783 64.4236 34.4151 63.2406C35.5518 62.0577 37.112 61.3747 38.7523 61.342C40.3926 61.3094 41.9787 61.9296 43.1617 63.0664C44.3447 64.2032 45.0276 65.7633 45.0603 67.4036V67.4068Z" fill="#263238"/>
<path d="M33.7219 67.6291C33.7691 68.9819 34.3465 70.2618 35.3296 71.1923C36.3126 72.1228 37.6222 72.6292 38.9756 72.6021C40.3289 72.575 41.6172 72.0165 42.5622 71.0474C43.5072 70.0783 44.0329 68.7763 44.0259 67.4227C44.0223 66.7395 43.883 66.0638 43.6159 65.435C43.3488 64.8061 42.9594 64.2366 42.4702 63.7597C41.9811 63.2827 41.402 62.9078 40.7666 62.6566C40.1312 62.4055 39.4522 62.2832 38.7691 62.2969C38.0861 62.3106 37.4125 62.46 36.7877 62.7363C36.1629 63.0127 35.5993 63.4105 35.1296 63.9067C34.6599 64.4029 34.2936 64.9875 34.0519 65.6265C33.8103 66.2656 33.6981 66.9463 33.7219 67.6291Z" fill="#37474F"/>
<path d="M40.6748 71.6731C42.9627 70.6788 44.0113 68.0181 43.017 65.7303C42.0227 63.4424 39.362 62.3938 37.0741 63.3881C34.7863 64.3824 33.7377 67.0431 34.732 69.331C35.7263 71.6188 38.387 72.6674 40.6748 71.6731Z" fill="#DBDBDB"/>
<path d="M41.8192 70.4743C43.4457 68.8478 43.4457 66.2108 41.8192 64.5843C40.1928 62.9579 37.5558 62.9579 35.9293 64.5843C34.3029 66.2108 34.3029 68.8478 35.9293 70.4743C37.5558 72.1007 40.1928 72.1007 41.8192 70.4743Z" fill="#A6A6A6"/>
<path d="M38.2007 66.4995L39.5079 66.4739C39.0535 65.8451 40.5479 63.5939 40.5479 63.5939L39.8551 63.3779C39.4135 64.1779 39.1895 64.4067 38.8119 64.4147C38.4343 64.4227 38.2023 64.1955 37.7287 63.4195L37.0391 63.6595C37.0391 63.6595 38.6279 65.8531 38.2007 66.4995Z" fill="#DBDBDB"/>
<path d="M39.6191 66.5506L40.0479 67.7858C40.5055 67.1602 43.1119 67.8834 43.1119 67.8834L43.1039 67.1586C42.2127 66.9842 41.9199 66.8386 41.7967 66.4866C41.6735 66.1346 41.8159 65.8466 42.4063 65.149L41.9647 64.5762C41.9647 64.5762 40.3663 66.7586 39.6191 66.5506Z" fill="#DBDBDB"/>
<path d="M40.0086 67.9199L38.959 68.7055C39.6966 68.9471 39.8134 71.6495 39.8134 71.6495L40.5014 71.4175C40.391 70.5151 40.4342 70.1935 40.735 69.9663C41.0358 69.7391 41.3558 69.7839 42.1958 70.1263L42.6054 69.5295C42.6054 69.5295 40.0422 68.6911 40.0086 67.9199Z" fill="#DBDBDB"/>
<path d="M38.8323 68.7088L37.7587 67.96C37.7587 68.736 35.2227 69.6832 35.2227 69.6832L35.6547 70.264C36.4787 69.8816 36.7987 69.824 37.1075 70.0384C37.4163 70.2528 37.4723 70.5744 37.4003 71.4784L38.0963 71.6832C38.0963 71.6832 38.1043 68.9792 38.8323 68.7088Z" fill="#DBDBDB"/>
<path d="M37.7132 67.8324L38.0924 66.5812C37.3548 66.818 35.6716 64.7012 35.6716 64.7012L35.2508 65.2932C35.87 65.9588 36.0236 66.2436 35.9148 66.6052C35.806 66.9668 35.5196 67.1172 34.6348 67.3284L34.6556 68.0532C34.6556 68.0532 37.2316 67.226 37.7132 67.8324Z" fill="#DBDBDB"/>
<path d="M37.6642 67.5252C37.6687 67.7644 37.7441 67.997 37.8807 68.1934C38.0174 68.3898 38.2092 68.5413 38.432 68.6287C38.6548 68.716 38.8984 68.7354 39.1322 68.6842C39.3659 68.6331 39.5793 68.5137 39.7452 68.3413C39.9111 68.1689 40.0222 67.9511 40.0643 67.7156C40.1065 67.4801 40.0778 67.2373 39.982 67.0181C39.8861 66.7988 39.7274 66.6129 39.5259 66.4839C39.3243 66.3549 39.0891 66.2885 38.8498 66.2932C38.5294 66.2999 38.2248 66.4334 38.0025 66.6643C37.7803 66.8952 37.6587 67.2048 37.6642 67.5252Z" fill="#DBDBDB"/>
<path d="M50.5836 52.2566C50.8108 52.4806 50.7996 54.4966 50.6364 54.6566C50.4732 54.8166 48.2364 54.9766 48.046 53.7286C47.8556 52.4806 50.23 51.9062 50.5836 52.2566Z" fill="#031A6B"/>
<path d="M55.4622 47.2086C55.4622 47.2086 48.963 50.3382 44.2302 53.4902L42.5566 53.4998C42.6126 53.4614 42.6478 53.4342 42.6606 53.4278L42.7006 53.4022L42.7358 53.3798L43.0078 53.2198L43.1166 53.1558L43.179 53.1206L43.3038 53.047L43.3806 53.0006L43.875 52.7142C43.9534 52.6694 44.035 52.623 44.1198 52.5718L44.2174 52.5158L44.4174 52.4006C44.451 52.3814 44.4862 52.3622 44.5214 52.3398L44.8302 52.1638L44.8638 52.143C44.971 52.0838 45.0782 52.0214 45.1838 51.9574L45.2174 51.9398L45.6686 51.6806C45.7918 51.6102 45.9182 51.5366 46.0494 51.4646L46.2318 51.3606L46.4462 51.239L46.8862 50.9894L47.1294 50.8534L47.9822 50.3734L48.2702 50.2134L48.7502 49.9478L49.163 49.719L49.3118 49.6358L49.6094 49.4758L49.9054 49.3158C50.3518 49.071 50.7966 48.8358 51.2318 48.5942L51.5214 48.4342L51.667 48.3558C51.7278 48.3254 51.7886 48.2934 51.8478 48.2598L51.9502 48.2054L52.2302 48.0566L52.3694 47.983L52.6462 47.839L52.7806 47.767C52.9166 47.6982 53.0494 47.6278 53.179 47.5606L53.435 47.4278C53.4894 47.4022 53.5422 47.375 53.595 47.3478L53.9342 47.1766C54.0846 47.0998 54.2302 47.0294 54.3726 46.959L55.4622 47.2086Z" fill="#37474F"/>
<g opacity="0.5">
<path d="M89.3592 62.233C88.9747 61.606 88.5052 61.0352 87.964 60.537C86.3294 59.0034 84.1585 58.1722 81.9176 58.2218L81.364 58.2506L81.0888 58.265C80.996 58.2762 80.9048 58.2906 80.8136 58.3034L80.2664 58.385C80.0856 58.4234 79.9064 58.4714 79.7272 58.5146C79.0093 58.6963 78.3257 58.9935 77.7032 59.3946C77.0848 59.799 76.5331 60.2973 76.068 60.8714C75.6156 61.4512 75.2292 62.0796 74.916 62.745C75.253 62.095 75.6579 61.4825 76.124 60.9178C76.5936 60.3602 77.1469 59.8787 77.764 59.4906C78.9992 58.7114 80.4696 58.3898 81.924 58.3706C82.6487 58.3567 83.3724 58.4308 84.0792 58.5914C85.507 58.9239 86.8277 59.6112 87.9192 60.5898C88.4694 61.0719 88.9535 61.6244 89.3592 62.233Z" fill="white"/>
<path d="M46.0144 62.441C45.6299 61.814 45.1604 61.2432 44.6192 60.745C42.9846 59.2115 40.8137 58.3802 38.5728 58.4298L38.0192 58.4586L37.744 58.473C37.6512 58.4842 37.56 58.4986 37.4688 58.513L36.9216 58.593C36.7408 58.6314 36.5616 58.6794 36.3824 58.7226C35.6645 58.9043 34.9809 59.2015 34.3584 59.6026C33.7383 60.0067 33.185 60.5049 32.7184 61.0794C32.266 61.6592 31.8796 62.2876 31.5664 62.953C31.9034 62.303 32.3083 61.6905 32.7744 61.1258C33.244 60.5682 33.7973 60.0867 34.4144 59.6986C35.6496 58.9194 37.12 58.5978 38.5744 58.5786C39.3024 58.5644 40.0293 58.6391 40.7392 58.801C42.1641 59.1347 43.482 59.822 44.5712 60.7994C45.1224 61.2808 45.6076 61.8328 46.0144 62.441Z" fill="white"/>
<path d="M88.4098 51.9719C87.4418 51.2199 86.461 50.4887 85.4722 49.7655C84.4834 49.0423 83.4866 48.3335 82.4594 47.6599C82.3298 47.5783 82.1986 47.4999 82.0642 47.4199C81.9986 47.3799 81.9298 47.3431 81.8578 47.3079C81.7854 47.2732 81.7098 47.2453 81.6322 47.2247C81.3362 47.1383 81.0386 47.0647 80.741 46.9927C80.1442 46.8487 79.5474 46.7111 78.9458 46.5959C78.3409 46.4837 77.7274 46.4237 77.1122 46.4167C76.4994 46.4071 75.8866 46.4167 75.2754 46.4423C75.8866 46.4423 76.4994 46.4551 77.109 46.4887C77.719 46.5095 78.326 46.5828 78.9234 46.7079C79.5202 46.8391 80.1154 46.9735 80.709 47.1223C81.005 47.1975 81.301 47.2727 81.5922 47.3591C81.6623 47.3779 81.7304 47.4036 81.7954 47.4359C81.861 47.4695 81.9266 47.5063 81.9922 47.5447C82.1234 47.6199 82.2514 47.7047 82.381 47.7847C83.4082 48.4423 84.4034 49.1575 85.4066 49.8647L88.4098 51.9719Z" fill="white"/>
</g>
<path opacity="0.1" d="M40.4648 60.3029C45.2104 61.3637 45.3048 66.7301 45.3096 67.7141C45.3096 67.7141 75.0824 66.8917 75.2056 66.8661C75.3032 66.8453 75.252 62.1461 78.7576 60.3381C77.1832 61.1269 75.1688 63.0261 74.4168 65.7909C74.3352 66.0853 70.0008 66.5685 62.5896 66.8405C55.1784 67.1125 48.7336 67.0005 47.5112 66.8277C46.2888 66.6549 44.8216 60.2629 40.4648 60.3029Z" fill="black"/>
<path opacity="0.1" d="M32.2199 66.2382C32.1943 67.3134 32.3799 68.4958 32.3223 68.4942C32.1959 68.4942 31.8775 68.5182 31.6327 68.5198C31.5894 68.5207 31.5462 68.5148 31.5047 68.5022C31.3895 68.4542 31.5927 67.5694 31.4791 67.5422C31.3655 67.515 30.5623 67.4974 30.3671 67.4494C30.1719 67.4014 28.7447 65.8814 28.7207 65.8398C29.0135 65.9134 30.5975 66.7678 30.7863 66.5598C30.9751 66.3518 30.7655 66.2254 31.5863 64.5038C32.4071 62.7822 34.4263 61.1038 35.6455 60.8398C34.6571 61.3674 33.8221 62.1419 33.2218 63.0879C32.6215 64.0339 32.2763 65.1193 32.2199 66.2382Z" fill="black"/>
</g>
</g>
<defs>
<filter id="filter0_d_4695_7872" x="0" y="0" width="84" height="84" filterUnits="userSpaceOnUse" color-interpolation-filters="sRGB">
<feFlood flood-opacity="0" result="BackgroundImageFix"/>
<feColorMatrix in="SourceAlpha" type="matrix" values="0 0 0 0 0 0 0 0 0 0 0 0 0 0 0 0 0 0 127 0" result="hardAlpha"/>
<feMorphology radius="1" operator="dilate" in="SourceAlpha" result="effect1_dropShadow_4695_7872"/>
<feOffset/>
<feGaussianBlur stdDeviation="0.5"/>
<feComposite in2="hardAlpha" operator="out"/>
<feColorMatrix type="matrix" values="0 0 0 0 0 0 0 0 0 0 0 0 0 0 0 0 0 0 0.05 0"/>
<feBlend mode="normal" in2="BackgroundImageFix" result="effect1_dropShadow_4695_7872"/>
<feBlend mode="normal" in="SourceGraphic" in2="effect1_dropShadow_4695_7872" result="shape"/>
</filter>
<clipPath id="clip0_4695_7872">
<rect x="2" y="2" width="80" height="80" rx="8" fill="white"/>
</clipPath>
</defs>
</svg>
