<svg width="40" height="40" viewBox="0 0 40 40" fill="none" xmlns="http://www.w3.org/2000/svg">
<g clip-path="url(#clip0_5215_33918)">
<path opacity="0.989" fill-rule="evenodd" clip-rule="evenodd" d="M19.5703 -0.0390625C19.7005 -0.0390625 19.8307 -0.0390625 19.9609 -0.0390625C19.9609 3.1901 19.9609 6.41927 19.9609 9.64844C14.7266 9.64844 9.49219 9.64844 4.25781 9.64844C9.34273 6.38598 14.4469 3.1568 19.5703 -0.0390625Z" fill="#818DB5"/>
<path fill-rule="evenodd" clip-rule="evenodd" d="M19.9609 -0.0390625C20.0912 -0.0390625 20.2213 -0.0390625 20.3516 -0.0390625C25.475 3.1568 30.5791 6.38598 35.6641 9.64844C30.4297 9.64844 25.1953 9.64844 19.9609 9.64844C19.9609 6.41927 19.9609 3.1901 19.9609 -0.0390625Z" fill="#818DB5"/>
<path opacity="0.995" fill-rule="evenodd" clip-rule="evenodd" d="M4.25781 9.64939C9.49219 9.64939 14.7266 9.64939 19.9609 9.64939C25.1953 9.64939 30.4297 9.64939 35.6641 9.64939C35.6901 9.64939 35.7162 9.64939 35.7422 9.64939C30.4949 9.72744 25.2345 9.75345 19.9609 9.72752C19.9609 11.941 19.9609 14.1546 19.9609 16.3681C18.8672 16.3681 17.7734 16.3681 16.6797 16.3681C15.0651 16.3681 13.4505 16.3681 11.8359 16.3681C10.7422 16.3681 9.64844 16.3681 8.55469 16.3681C7.46094 16.3681 6.36719 16.3681 5.27344 16.3681C4.04393 16.4035 2.81998 16.3645 1.60156 16.251C0.729365 15.8731 0.247594 15.209 0.15625 14.2588C0.104167 13.4254 0.104167 12.5921 0.15625 11.7588C0.294199 10.6837 0.880133 9.99353 1.91406 9.68845C2.69488 9.64939 3.47613 9.63642 4.25781 9.64939Z" fill="#57669C"/>
<path fill-rule="evenodd" clip-rule="evenodd" d="M35.7422 9.64939C36.4978 9.63642 37.253 9.64939 38.0078 9.68845C39.0417 9.99353 39.6277 10.6837 39.7656 11.7588C39.8339 12.7517 39.8078 13.7413 39.6875 14.7275C39.4689 15.5711 38.9351 16.1049 38.0859 16.3291C36.9144 16.3681 35.7425 16.3812 34.5703 16.3681C33.4505 16.3681 32.3307 16.3681 31.2109 16.3681C30.1172 16.3681 29.0234 16.3681 27.9297 16.3681C26.3672 16.3681 24.8047 16.3681 23.2422 16.3681C22.1484 16.3681 21.0547 16.3681 19.9609 16.3681C19.9609 14.1546 19.9609 11.941 19.9609 9.72752C25.2345 9.75345 30.4949 9.72744 35.7422 9.64939Z" fill="#2D4084"/>
<path opacity="0.978" fill-rule="evenodd" clip-rule="evenodd" d="M5.27344 16.3672C6.36719 16.3672 7.46094 16.3672 8.55469 16.3672C8.55469 20.5599 8.55469 24.7526 8.55469 28.9453C7.46094 28.9453 6.36719 28.9453 5.27344 28.9453C5.27344 24.7526 5.27344 20.5599 5.27344 16.3672Z" fill="#818DB5"/>
<path fill-rule="evenodd" clip-rule="evenodd" d="M8.55469 16.3672C9.64844 16.3672 10.7422 16.3672 11.8359 16.3672C11.8359 20.5599 11.8359 24.7526 11.8359 28.9453C10.7422 28.9453 9.64844 28.9453 8.55469 28.9453C8.55469 24.7526 8.55469 20.5599 8.55469 16.3672Z" fill="#818DB5"/>
<path opacity="0.99" fill-rule="evenodd" clip-rule="evenodd" d="M16.6797 16.3672C17.7734 16.3672 18.8672 16.3672 19.9609 16.3672C19.9609 20.5599 19.9609 24.7526 19.9609 28.9453C18.8672 28.9453 17.7734 28.9453 16.6797 28.9453C16.6797 24.7526 16.6797 20.5599 16.6797 16.3672Z" fill="#818DB5"/>
<path fill-rule="evenodd" clip-rule="evenodd" d="M19.9609 16.3672C21.0547 16.3672 22.1484 16.3672 23.2422 16.3672C23.2422 20.5599 23.2422 24.7526 23.2422 28.9453C22.1484 28.9453 21.0547 28.9453 19.9609 28.9453C19.9609 24.7526 19.9609 20.5599 19.9609 16.3672Z" fill="#818DB5"/>
<path opacity="0.978" fill-rule="evenodd" clip-rule="evenodd" d="M27.9297 16.3672C29.0234 16.3672 30.1172 16.3672 31.2109 16.3672C31.2109 20.5599 31.2109 24.7526 31.2109 28.9453C30.1172 28.9453 29.0234 28.9453 27.9297 28.9453C27.9297 24.7526 27.9297 20.5599 27.9297 16.3672Z" fill="#818DB5"/>
<path fill-rule="evenodd" clip-rule="evenodd" d="M31.2109 16.3672C32.3307 16.3672 33.4505 16.3672 34.5703 16.3672C34.5703 20.5599 34.5703 24.7526 34.5703 28.9453C33.4505 28.9453 32.3307 28.9453 31.2109 28.9453C31.2109 24.7526 31.2109 20.5599 31.2109 16.3672Z" fill="#818DB5"/>
<path opacity="0.997" fill-rule="evenodd" clip-rule="evenodd" d="M5.27441 28.9455C6.36816 28.9455 7.46191 28.9455 8.55566 28.9455C9.64941 28.9455 10.7432 28.9455 11.8369 28.9455C13.4515 28.9455 15.0661 28.9455 16.6807 28.9455C17.7744 28.9455 18.8682 28.9455 19.9619 28.9455C21.0557 28.9455 22.1494 28.9455 23.2432 28.9455C22.1632 29.0233 21.0695 29.0494 19.9619 29.0237C19.9619 30.4299 19.9619 31.8362 19.9619 33.2424C25.4828 33.2424 31.0036 33.2424 36.5244 33.2424C31.0168 33.3204 25.4959 33.3465 19.9619 33.3205C14.4279 33.3465 8.90707 33.3204 3.39941 33.2424C3.3864 32.0702 3.39942 30.8983 3.43847 29.7268C3.55114 29.4319 3.74645 29.2105 4.02441 29.0627C4.4335 28.9581 4.85018 28.919 5.27441 28.9455Z" fill="#57669C"/>
<path fill-rule="evenodd" clip-rule="evenodd" d="M23.2422 28.946C24.8047 28.946 26.3672 28.946 27.9297 28.946C29.0234 28.946 30.1172 28.946 31.2109 28.946C32.3307 28.946 33.4505 28.946 34.5703 28.946C35.0205 28.9186 35.4631 28.9576 35.8984 29.0632C36.1764 29.211 36.3717 29.4323 36.4844 29.7272C36.5234 30.8988 36.5365 32.0707 36.5234 33.2429C31.0026 33.2429 25.4818 33.2429 19.9609 33.2429C19.9609 31.8366 19.9609 30.4304 19.9609 29.0241C21.0685 29.0498 22.1623 29.0238 23.2422 28.946Z" fill="#2D4084"/>
<path opacity="0.996" fill-rule="evenodd" clip-rule="evenodd" d="M3.39684 33.2431C8.9045 33.3212 14.4254 33.3473 19.9593 33.3213C19.9593 35.5348 19.9593 37.7484 19.9593 39.9619C13.6052 39.9619 7.25101 39.9619 0.896845 39.9619C0.477004 39.7231 0.229609 39.3585 0.154657 38.8681C0.0801952 37.2495 0.106237 35.6349 0.232782 34.0244C0.383312 33.6394 0.656749 33.392 1.05309 33.2822C1.83391 33.2431 2.61516 33.2302 3.39684 33.2431Z" fill="#031659"/>
<path fill-rule="evenodd" clip-rule="evenodd" d="M36.5234 33.2431C37.3052 33.2302 38.0864 33.2431 38.8672 33.2822C39.2635 33.392 39.537 33.6394 39.6875 34.0244C39.8141 35.6349 39.8401 37.2495 39.7656 38.8681C39.6907 39.3585 39.4433 39.7231 39.0234 39.9619C32.6693 39.9619 26.3151 39.9619 19.9609 39.9619C19.9609 37.7484 19.9609 35.5348 19.9609 33.3213C25.4949 33.3473 31.0158 33.3212 36.5234 33.2431Z" fill="#031A6B"/>
</g>
<defs>
<clipPath id="clip0_5215_33918">
<rect width="40" height="40" fill="white"/>
</clipPath>
</defs>
</svg>
