<svg width="24" height="24" viewBox="0 0 24 24" fill="none" xmlns="http://www.w3.org/2000/svg">
<g clip-path="url(#clip0_4695_13530)">
<path opacity="0.97" fill-rule="evenodd" clip-rule="evenodd" d="M16.2422 -0.0234375C16.3984 -0.0234375 16.5547 -0.0234375 16.7109 -0.0234375C18.1469 1.37342 19.5609 2.79529 20.9531 4.24219C20.9844 4.39844 20.9844 4.55469 20.9531 4.71094C20.8984 4.82812 20.8125 4.91405 20.6953 4.96875C19.6485 5.00002 18.6016 5.00002 17.5547 4.96875C16.6562 4.8203 16.1328 4.29688 15.9844 3.39844C15.9531 2.35156 15.9531 1.30469 15.9844 0.257812C16.0481 0.139565 16.1341 0.0458152 16.2422 -0.0234375Z" fill="#0F0F0F"/>
<path opacity="0.995" fill-rule="evenodd" clip-rule="evenodd" d="M18.4922 23.9766C14.1484 23.9766 9.8047 23.9766 5.46094 23.9766C4.1389 23.678 3.31859 22.8655 3 21.5391C2.96875 15.5078 2.96875 9.47658 3 3.44531C3.30023 2.05131 4.1518 1.231 5.55469 0.984376C8.25783 0.953125 10.9609 0.953125 13.6641 0.984376C13.7636 1.03696 13.8495 1.10727 13.9219 1.19531C13.9704 2.52101 14.0173 3.84913 14.0625 5.17969C14.335 6.04594 14.9209 6.53813 15.8203 6.65625C17.4453 6.67186 19.0703 6.68752 20.6953 6.70313C20.8125 6.75783 20.8984 6.84375 20.9531 6.96094C20.9844 11.8203 20.9844 16.6797 20.9531 21.5391C20.6358 22.8642 19.8155 23.6768 18.4922 23.9766ZM7.14844 10.0078C9.69534 9.99999 12.2423 10.0078 14.7891 10.0313C14.8822 10.0931 14.9369 10.179 14.9531 10.2891C14.9956 10.8075 14.98 11.3231 14.9063 11.8359C14.8364 11.9064 14.7504 11.9455 14.6484 11.9531C12.1953 11.9844 9.74217 11.9844 7.28906 11.9531C7.179 11.9369 7.09308 11.8822 7.03125 11.7891C6.99999 11.2422 6.99999 10.6953 7.03125 10.1484C7.08024 10.1075 7.11928 10.0606 7.14844 10.0078ZM7.19531 13.9922C10.3829 13.9844 13.5704 13.9922 16.7578 14.0156C16.8437 14.0391 16.8984 14.0938 16.9219 14.1797C16.9531 14.7109 16.9531 15.2422 16.9219 15.7734C16.8984 15.8594 16.8437 15.9141 16.7578 15.9375C13.5703 15.9688 10.3828 15.9688 7.19531 15.9375C7.10939 15.9141 7.05469 15.8594 7.03125 15.7734C6.99999 15.2422 6.99999 14.7109 7.03125 14.1797C7.06359 14.093 7.11825 14.0304 7.19531 13.9922ZM7.28906 17.9766C9.08602 17.9687 10.8829 17.9766 12.6797 18C12.8078 18.0187 12.8937 18.089 12.9375 18.2109C12.9688 18.7266 12.9688 19.2422 12.9375 19.7578C12.9141 19.8437 12.8594 19.8984 12.7734 19.9219C10.8984 19.9531 9.02344 19.9531 7.14844 19.9219C7.10939 19.8828 7.0703 19.8437 7.03125 19.8047C6.99999 19.2578 6.99999 18.711 7.03125 18.1641C7.10156 18.0718 7.18749 18.0093 7.28906 17.9766Z" fill="#0F0F0F"/>
</g>
<defs>
<clipPath id="clip0_4695_13530">
<rect width="24" height="24" fill="white"/>
</clipPath>
</defs>
</svg>
