<svg width="280" height="280" viewBox="0 0 280 280" fill="none" xmlns="http://www.w3.org/2000/svg">
<path d="M49.5316 247.638C100.044 277.452 181.949 277.452 232.467 247.638C282.984 217.823 282.984 169.484 232.467 139.675C181.949 109.866 100.044 109.861 49.526 139.675C-0.991572 169.49 -0.985975 217.84 49.5316 247.638Z" fill="#FAFAFA"/>
<path d="M219.039 241.388C232.706 241.388 243.786 234.992 243.786 227.102C243.786 219.213 232.706 212.817 219.039 212.817C205.372 212.817 194.293 219.213 194.293 227.102C194.293 234.992 205.372 241.388 219.039 241.388Z" fill="#FAFAFA"/>
<path d="M203.514 43.1984L207.809 45.6792C207.786 45.4934 207.773 45.3065 207.77 45.1192V43.8648C207.77 41.6248 209.327 40.7512 211.242 41.86C212.067 42.3668 212.774 43.0447 213.314 43.848C213.628 41.048 215.812 40.0288 218.466 41.5576C221.333 43.2376 223.657 47.2416 223.657 50.5568V52.416C223.676 53.1584 223.527 53.8955 223.221 54.572L226.782 56.6328C227.346 57.0006 227.815 57.4969 228.15 58.081C228.485 58.6651 228.676 59.3203 228.709 59.9928C228.709 61.2192 227.846 61.7176 226.782 61.1128L203.514 47.6728C202.95 47.305 202.482 46.8087 202.147 46.2246C201.812 45.6405 201.62 44.9853 201.588 44.3128C201.599 43.0808 202.45 42.56 203.514 43.1984Z" fill="#CFCFCF"/>
<path d="M185.136 55.7088L188.378 57.5792C188.361 57.438 188.351 57.2959 188.35 57.1536V56.2128C188.35 54.5328 189.526 53.8664 190.971 54.7008C191.594 55.0819 192.127 55.594 192.533 56.2016C192.768 54.1016 194.415 53.3176 196.42 54.4712C197.561 55.2157 198.511 56.2187 199.192 57.399C199.873 58.5792 200.266 59.9033 200.34 61.264V62.6696C200.355 63.229 200.242 63.7845 200.009 64.2936L202.697 65.8504C203.121 66.1254 203.473 66.4965 203.726 66.9334C203.979 67.3703 204.126 67.8607 204.153 68.3648C204.153 69.2944 203.504 69.6696 202.697 69.2048L185.136 59.0632C184.714 58.7893 184.362 58.42 184.109 57.9852C183.856 57.5504 183.709 57.0622 183.68 56.56C183.68 55.6192 184.335 55.244 185.136 55.7088Z" fill="#CFCFCF"/>
<path d="M41.3729 161.627C41.0537 161.801 35.2129 163.464 33.0289 160.597C30.8449 157.73 34.4569 153.266 32.4241 151.637C30.3913 150.007 24.6905 151.637 23.3185 148.182C21.9465 144.726 26.0121 143.226 23.7273 139.737C22.2881 137.542 18.7489 136.31 18.4353 134.277C17.9201 130.883 23.5425 129.321 28.3585 132.53C33.1745 135.738 36.0809 134.266 37.6097 134.047C39.1385 133.829 42.4257 134.31 42.3193 139.647C42.2129 144.984 41.3729 161.627 41.3729 161.627Z" fill="#031A6B"/>
<path d="M41.7597 154C41.6837 154.001 41.6101 153.974 41.5524 153.925C41.4947 153.875 41.4569 153.806 41.4461 153.731C39.7661 143.562 27.9445 135.279 21.7957 133.504C21.714 133.481 21.6448 133.426 21.6033 133.352C21.5618 133.278 21.5515 133.191 21.5745 133.109C21.5975 133.028 21.652 132.958 21.7261 132.917C21.8001 132.875 21.8876 132.865 21.9693 132.888C28.2581 134.708 40.3541 143.192 42.0733 153.608C42.0862 153.691 42.0658 153.776 42.0166 153.844C41.9673 153.912 41.8931 153.958 41.8101 153.972L41.7597 154Z" fill="#FEFEFE"/>
<path d="M27.8148 145.488C27.7443 145.49 27.6751 145.469 27.6183 145.427C27.5614 145.386 27.5203 145.326 27.5016 145.258C27.4828 145.19 27.4875 145.118 27.5148 145.053C27.5422 144.988 27.5906 144.934 27.6524 144.9C27.8428 144.782 32.39 142.1 36.8756 143.366C36.9569 143.39 37.0255 143.445 37.0672 143.52C37.109 143.594 37.1205 143.681 37.0996 143.763C37.0761 143.844 37.0218 143.912 36.9484 143.953C36.875 143.994 36.7885 144.004 36.7076 143.982C32.4796 142.8 27.9996 145.421 27.9996 145.449C27.9431 145.48 27.8789 145.493 27.8148 145.488Z" fill="#FEFEFE"/>
<path d="M43.6406 165.536C43.7005 166.35 43.9511 167.139 44.3724 167.839C44.7936 168.538 45.3736 169.129 46.0654 169.562L114.01 208.762C114.762 209.144 115.592 209.342 116.435 209.342C117.278 209.342 118.108 209.144 118.86 208.762L211.82 155.086C212.553 154.7 213.166 154.12 213.594 153.411C214.021 152.701 214.248 151.889 214.248 151.06C214.248 150.231 214.021 149.419 213.594 148.709C213.166 148 212.553 147.42 211.82 147.034L143.881 107.834C143.129 107.452 142.298 107.254 141.456 107.254C140.613 107.254 139.782 107.452 139.031 107.834L46.071 161.51C45.3782 161.943 44.7971 162.533 44.3749 163.232C43.9526 163.932 43.7011 164.721 43.6406 165.536Z" fill="#37474F"/>
<path d="M116.435 204.12V209.367C115.592 209.39 114.757 209.198 114.01 208.807L46.065 169.607C45.3547 169.233 44.7563 168.677 44.3307 167.996C43.9052 167.315 43.6679 166.533 43.6428 165.731C43.6178 164.928 43.806 164.134 44.1882 163.427C44.5704 162.721 45.133 162.129 45.8186 161.711C44.7322 162.49 44.8162 163.632 46.065 164.354L114.01 203.554C114.757 203.947 115.591 204.141 116.435 204.12Z" fill="#263238"/>
<path d="M41.3674 161.594C40.6913 161.136 40.133 160.525 39.7379 159.811C39.3427 159.097 39.122 158.299 39.0938 157.483V76.4008C39.1397 75.5595 39.3832 74.7408 39.8045 74.0112C40.2257 73.2815 40.813 72.6613 41.5186 72.2008L134.479 18.5304C135.2 18.1483 136.001 17.9411 136.817 17.9255C137.633 17.91 138.442 18.0865 139.177 18.4408C139.854 18.8996 140.412 19.5113 140.808 20.2264C141.204 20.9415 141.426 21.7399 141.456 22.5568V103.634C141.411 104.475 141.168 105.294 140.747 106.024C140.325 106.754 139.738 107.374 139.031 107.834L46.0713 161.51C45.3493 161.893 44.5468 162.101 43.7294 162.115C42.912 162.13 42.1027 161.951 41.3674 161.594Z" fill="#455A64"/>
<path d="M45.7802 161.655C45.085 161.969 44.3294 162.126 43.5669 162.115C42.8044 162.104 42.0535 161.926 41.3674 161.594C40.6923 161.135 40.1346 160.524 39.7396 159.81C39.3446 159.096 39.1234 158.299 39.0938 157.483V76.4008C39.1213 75.5576 39.3662 74.7358 39.805 74.0152L44.3521 76.636C43.9167 77.358 43.6719 78.179 43.641 79.0216V160.11C43.641 161.543 44.5762 162.187 45.7802 161.655Z" fill="#263238"/>
<path d="M43.6406 79.0272V160.11C43.6406 161.655 44.727 162.282 46.0654 161.51L139.025 107.834C139.732 107.374 140.319 106.754 140.741 106.024C141.162 105.294 141.405 104.475 141.45 103.634V22.5568C141.45 21.0112 140.364 20.384 139.025 21.1568L46.0654 74.8272C45.3601 75.288 44.7732 75.9083 44.3519 76.6379C43.9307 77.3675 43.687 78.186 43.6406 79.0272Z" fill="#37474F"/>
<path d="M46.0656 164.31L114.01 203.51C114.762 203.891 115.593 204.09 116.435 204.09C117.278 204.09 118.109 203.891 118.86 203.51L211.82 149.834C213.158 149.061 213.158 147.806 211.82 147.034L143.881 107.834C143.129 107.452 142.299 107.254 141.456 107.254C140.613 107.254 139.783 107.452 139.031 107.834L46.0712 161.51C44.7272 162.282 44.7272 163.52 46.0656 164.31Z" fill="#455A64"/>
<path d="M47.3701 79.3296L136.97 27.5968C137.776 27.132 138.426 27.5072 138.426 28.4368V98.6216C138.399 99.1267 138.253 99.6182 138 100.056C137.747 100.494 137.394 100.866 136.97 101.142L47.3701 152.88C46.5637 153.345 45.9141 152.97 45.9141 152.04V81.8496C45.941 81.3445 46.0869 80.853 46.3399 80.415C46.593 79.9771 46.9459 79.6052 47.3701 79.3296Z" fill="#FEFEFE"/>
<path opacity="0.6" d="M47.3701 79.3296L136.97 27.5968C137.776 27.132 138.426 27.5072 138.426 28.4368V98.6216C138.399 99.1267 138.253 99.6182 138 100.056C137.747 100.494 137.394 100.866 136.97 101.142L47.3701 152.88C46.5637 153.345 45.9141 152.97 45.9141 152.04V81.8496C45.941 81.3445 46.0869 80.853 46.3399 80.415C46.593 79.9771 46.9459 79.6052 47.3701 79.3296Z" fill="#031A6B"/>
<path d="M91.9914 74.8888C94.377 73.5112 96.3146 74.6312 96.3146 77.3864C96.2325 78.8854 95.7983 80.344 95.0472 81.6439C94.2961 82.9438 93.2492 84.0483 91.9914 84.868C89.6058 86.2456 87.6738 85.1312 87.6738 82.376C87.7544 80.8765 88.1874 79.4171 88.9375 78.1162C89.6877 76.8153 90.734 75.7096 91.9914 74.8888Z" fill="#FEFEFE"/>
<path d="M100.508 89.628C100.508 85.1032 97.3274 83.0928 93.4074 85.3552L90.9602 86.8C87.0402 89.04 83.8594 94.5672 83.8594 99.12V100.341L100.508 90.7312V89.628Z" fill="#FEFEFE"/>
<path d="M108.926 91.84C108.769 91.476 108.366 91.3864 107.912 91.644L78.8369 108.444C78.5247 108.649 78.2649 108.925 78.0782 109.249C77.8915 109.573 77.7831 109.936 77.7617 110.309V113.725C77.7617 114.285 78.1089 114.593 78.5793 114.464L78.6577 114.436C78.719 114.411 78.7788 114.383 78.8369 114.352L107.912 97.552C108.226 97.3478 108.486 97.0725 108.673 96.7484C108.86 96.4244 108.968 96.0608 108.987 95.6872V92.288C108.993 92.1362 108.972 91.9847 108.926 91.84Z" fill="#FEFEFE"/>
<path d="M81.4626 108.87C82.0226 108.539 82.4874 108.808 82.4874 109.458C82.4693 109.813 82.3669 110.158 82.1887 110.466C82.0105 110.774 81.7616 111.035 81.4626 111.227C80.9026 111.552 80.4434 111.289 80.4434 110.634C80.4617 110.28 80.5636 109.936 80.7408 109.629C80.918 109.322 81.1653 109.062 81.4626 108.87Z" fill="#031A6B"/>
<path d="M84.8451 106.915C85.4051 106.59 85.8643 106.854 85.8643 107.509C85.846 107.862 85.744 108.207 85.5669 108.513C85.3897 108.82 85.1423 109.08 84.8451 109.273C84.2851 109.603 83.8203 109.334 83.8203 108.713C83.834 108.353 83.9343 108.001 84.1127 107.689C84.2911 107.376 84.5423 107.11 84.8451 106.915Z" fill="#031A6B"/>
<path d="M88.2221 104.966C88.7821 104.642 89.2413 104.905 89.2413 105.554C89.2238 105.909 89.1223 106.254 88.9451 106.562C88.7678 106.87 88.52 107.131 88.2221 107.324C87.6621 107.649 87.1973 107.386 87.1973 106.736C87.2154 106.381 87.3177 106.035 87.4959 105.727C87.6741 105.42 87.923 105.159 88.2221 104.966Z" fill="#031A6B"/>
<path d="M91.5993 103.04C92.1593 102.71 92.6241 102.978 92.6241 103.6C92.606 103.955 92.5036 104.301 92.3254 104.609C92.1472 104.916 91.8983 105.177 91.5993 105.37C91.0393 105.694 90.5801 105.431 90.5801 104.81C90.5976 104.455 90.6991 104.11 90.8763 103.802C91.0535 103.494 91.3013 103.233 91.5993 103.04Z" fill="#031A6B"/>
<path d="M94.9762 101.063C95.5362 100.738 96.001 101.002 96.001 101.657C95.9807 102.011 95.8774 102.356 95.6994 102.664C95.5214 102.971 95.2737 103.232 94.9762 103.426C94.4162 103.751 93.957 103.488 93.957 102.833C93.9767 102.479 94.0792 102.134 94.2562 101.827C94.4332 101.519 94.6798 101.258 94.9762 101.063Z" fill="#031A6B"/>
<path d="M98.3588 99.12C98.9188 98.7952 99.378 99.0584 99.378 99.68C99.3605 100.035 99.259 100.38 99.0818 100.688C98.9046 100.995 98.6568 101.257 98.3588 101.45C97.7988 101.774 97.334 101.511 97.334 100.89C97.3521 100.534 97.4545 100.189 97.6327 99.881C97.8109 99.5733 98.0598 99.3124 98.3588 99.12Z" fill="#031A6B"/>
<path d="M101.736 97.1656C102.296 96.8408 102.755 97.104 102.755 97.7536C102.738 98.1082 102.636 98.4536 102.459 98.7613C102.282 99.069 102.034 99.3301 101.736 99.5232C101.176 99.848 100.717 99.5848 100.717 98.9352C100.734 98.5805 100.836 98.2351 101.013 97.9275C101.19 97.6198 101.438 97.3586 101.736 97.1656Z" fill="#031A6B"/>
<path d="M105.113 95.2C105.673 94.8752 106.138 95.1384 106.138 95.7936C106.117 96.1482 106.014 96.4931 105.836 96.8004C105.658 97.1078 105.41 97.3691 105.113 97.5632C104.553 97.888 104.094 97.6248 104.094 96.9696C104.114 96.6157 104.217 96.2714 104.394 95.9642C104.571 95.657 104.817 95.3954 105.113 95.2Z" fill="#031A6B"/>
<path d="M53.9509 162.21L140.241 112.37C140.617 112.179 141.032 112.08 141.454 112.08C141.875 112.08 142.29 112.179 142.666 112.37L147.079 114.918C147.225 114.967 147.352 115.061 147.442 115.187C147.532 115.313 147.581 115.463 147.581 115.618C147.581 115.772 147.532 115.923 147.442 116.048C147.352 116.174 147.225 116.268 147.079 116.318L60.7773 166.152C60.4015 166.342 59.9862 166.442 59.5649 166.442C59.1436 166.442 58.7283 166.342 58.3525 166.152L53.9509 163.61C53.8046 163.56 53.6776 163.466 53.5876 163.34C53.4976 163.215 53.4492 163.064 53.4492 162.91C53.4492 162.755 53.4976 162.605 53.5876 162.479C53.6776 162.353 53.8046 162.259 53.9509 162.21Z" fill="#37474F"/>
<path d="M65.3243 168.778L151.615 118.938C151.99 118.748 152.406 118.649 152.827 118.649C153.248 118.649 153.664 118.748 154.04 118.938L181.188 134.618C181.335 134.668 181.462 134.762 181.552 134.888C181.642 135.013 181.69 135.164 181.69 135.318C181.69 135.473 181.642 135.623 181.552 135.749C181.462 135.875 181.335 135.969 181.188 136.018L94.9987 185.78C94.6215 185.969 94.2054 186.068 93.7835 186.068C93.3616 186.068 92.9455 185.969 92.5683 185.78L65.3299 170.167C65.1847 170.118 65.0585 170.025 64.9689 169.901C64.8792 169.777 64.8307 169.628 64.8301 169.475C64.8295 169.322 64.8768 169.172 64.9654 169.047C65.054 168.922 65.1795 168.828 65.3243 168.778Z" fill="#263238"/>
<path d="M142.677 141.372L145.381 139.81C145.493 139.742 145.488 139.63 145.381 139.563L142.24 137.76C142.173 137.726 142.099 137.708 142.024 137.708C141.949 137.708 141.875 137.726 141.809 137.76L139.104 139.322C138.992 139.384 138.997 139.496 139.104 139.569L142.229 141.372C142.297 141.409 142.374 141.429 142.453 141.429C142.531 141.429 142.608 141.409 142.677 141.372ZM137.345 135.173L134.646 136.73C134.529 136.797 134.534 136.909 134.646 136.982L137.771 138.785C137.838 138.818 137.912 138.835 137.987 138.835C138.061 138.835 138.135 138.818 138.202 138.785L140.907 137.222C141.019 137.155 141.013 137.043 140.907 136.976L137.76 135.184C137.696 135.151 137.626 135.132 137.554 135.13C137.482 135.128 137.411 135.143 137.345 135.173ZM128.615 140.213L124.045 142.85C123.928 142.918 123.939 143.03 124.045 143.102L127.165 144.906C127.232 144.939 127.305 144.956 127.38 144.956C127.455 144.956 127.529 144.939 127.596 144.906L132.171 142.268C132.283 142.201 132.277 142.089 132.171 142.022L129.046 140.213C128.979 140.18 128.905 140.162 128.831 140.162C128.756 140.162 128.682 140.18 128.615 140.213ZM133.397 137.452L130.693 139.014C130.581 139.076 130.586 139.188 130.693 139.261L133.84 141.064C133.907 141.097 133.981 141.114 134.055 141.114C134.13 141.114 134.204 141.097 134.271 141.064L136.97 139.502C137.088 139.434 137.082 139.322 136.97 139.255L133.84 137.463C133.773 137.425 133.697 137.404 133.62 137.402C133.543 137.4 133.466 137.417 133.397 137.452ZM122.797 143.573L120.097 145.13C119.98 145.197 119.985 145.309 120.097 145.382L123.222 147.185C123.289 147.219 123.363 147.237 123.438 147.237C123.513 147.237 123.587 147.219 123.653 147.185L126.358 145.628C126.47 145.561 126.465 145.449 126.358 145.376L123.233 143.573C123.166 143.539 123.091 143.521 123.015 143.521C122.939 143.521 122.864 143.539 122.797 143.573ZM118.849 145.852L116.149 147.409C116.032 147.476 116.037 147.588 116.149 147.661L119.28 149.464C119.347 149.497 119.421 149.514 119.495 149.514C119.57 149.514 119.644 149.497 119.711 149.464L122.416 147.902C122.528 147.834 122.522 147.722 122.416 147.655L119.28 145.863C119.214 145.827 119.141 145.807 119.066 145.805C118.991 145.803 118.916 145.819 118.849 145.852ZM131.135 153.188L133.84 151.626C133.952 151.558 133.946 151.446 133.84 151.379L130.715 149.576C130.648 149.542 130.574 149.524 130.499 149.524C130.424 149.524 130.35 149.542 130.284 149.576L127.585 151.138C127.467 151.2 127.478 151.312 127.585 151.385L130.704 153.188C130.77 153.222 130.844 153.24 130.919 153.24C130.994 153.24 131.068 153.222 131.135 153.188ZM127.215 155.467L129.92 153.905C130.032 153.838 130.026 153.731 129.92 153.658L126.795 151.855C126.728 151.821 126.654 151.803 126.579 151.803C126.504 151.803 126.43 151.821 126.364 151.855L123.665 153.418C123.547 153.485 123.553 153.591 123.665 153.664L126.789 155.467C126.852 155.496 126.919 155.511 126.988 155.511C127.057 155.511 127.125 155.496 127.187 155.467H127.215ZM123.267 157.746L125.972 156.184C126.084 156.122 126.078 156.01 125.972 155.938L122.847 154.134C122.78 154.1 122.706 154.082 122.631 154.082C122.556 154.082 122.482 154.1 122.416 154.134L119.672 155.68C119.554 155.747 119.56 155.859 119.672 155.926L122.797 157.73C122.863 157.768 122.939 157.79 123.016 157.793C123.093 157.796 123.17 157.78 123.239 157.746H123.267ZM119.347 160.026L122.052 158.463C122.164 158.402 122.158 158.29 122.052 158.217L118.927 156.414C118.86 156.38 118.786 156.363 118.711 156.363C118.637 156.363 118.563 156.38 118.496 156.414L115.791 157.976C115.679 158.043 115.685 158.155 115.791 158.222L118.916 160.026C118.973 160.05 119.035 160.062 119.098 160.062C119.16 160.062 119.222 160.05 119.28 160.026H119.347ZM138.785 143.651L141.484 142.089C141.601 142.022 141.596 141.915 141.484 141.842L138.32 140.039C138.253 140.005 138.179 139.987 138.104 139.987C138.029 139.987 137.955 140.005 137.889 140.039L135.184 141.602C135.072 141.669 135.077 141.775 135.184 141.848L138.32 143.64C138.383 143.672 138.452 143.69 138.523 143.692C138.594 143.694 138.664 143.68 138.729 143.651H138.785ZM135.145 150.931L141.12 147.426C141.232 147.358 141.226 147.246 141.12 147.179L133.509 142.8C133.443 142.766 133.369 142.748 133.294 142.748C133.219 142.748 133.145 142.766 133.078 142.8L129.965 144.598C129.847 144.665 129.853 144.777 129.965 144.85L133.985 147.168C134.109 147.241 134.114 147.353 133.985 147.414L131.493 148.854C131.376 148.921 131.387 149.033 131.493 149.106L134.618 150.909C134.69 150.948 134.771 150.969 134.853 150.969C134.936 150.969 135.017 150.948 135.089 150.909L135.145 150.931ZM114.985 148.131L112.28 149.694C112.168 149.755 112.173 149.867 112.28 149.94L115.36 151.76C115.427 151.793 115.501 151.81 115.575 151.81C115.65 151.81 115.724 151.793 115.791 151.76L118.49 150.198C118.608 150.13 118.602 150.018 118.49 149.951L115.36 148.142C115.291 148.101 115.212 148.079 115.132 148.077C115.051 148.075 114.972 148.094 114.901 148.131H114.985ZM111.037 150.41L108.332 151.973C108.22 152.04 108.225 152.146 108.332 152.219L111.457 154.022C111.523 154.057 111.597 154.075 111.672 154.075C111.747 154.075 111.821 154.057 111.888 154.022L114.587 152.46C114.705 152.393 114.699 152.281 114.587 152.214L111.462 150.41C111.386 150.361 111.298 150.335 111.207 150.335C111.117 150.335 111.029 150.361 110.953 150.41H111.037ZM91.3022 175.974C91.3689 176.009 91.4428 176.027 91.5178 176.027C91.5928 176.027 91.6667 176.009 91.7334 175.974L94.4382 174.412C94.5502 174.345 94.5446 174.233 94.4382 174.166L91.3134 172.362C91.2467 172.328 91.1728 172.31 91.0978 172.31C91.0228 172.31 90.9489 172.328 90.8822 172.362L88.183 173.925C88.0654 173.986 88.071 174.098 88.183 174.171L91.3022 175.974ZM79.447 168.65L76.6582 170.24C76.5462 170.302 76.5518 170.414 76.6582 170.486L79.783 172.29C79.85 172.323 79.9238 172.34 79.9986 172.34C80.0734 172.34 80.1471 172.323 80.2142 172.29L82.9134 170.727C83.031 170.66 83.0254 170.548 82.9134 170.481L79.7886 168.678C79.7249 168.64 79.6531 168.617 79.5791 168.613C79.5052 168.608 79.4311 168.62 79.363 168.65H79.447ZM85.803 173.998C85.8697 174.032 85.9436 174.05 86.0186 174.05C86.0936 174.05 86.1675 174.032 86.2342 173.998L88.9334 172.435C89.051 172.368 89.0398 172.256 88.9334 172.189L85.8086 170.386C85.7419 170.351 85.668 170.333 85.593 170.333C85.518 170.333 85.4441 170.351 85.3774 170.386L82.6782 171.948C82.5662 172.015 82.5718 172.122 82.6782 172.194L85.803 173.998ZM98.2742 177.358L100.979 175.795C101.091 175.728 101.085 175.616 100.979 175.549L97.8542 173.746C97.7875 173.711 97.7136 173.693 97.6386 173.693C97.5636 173.693 97.4897 173.711 97.423 173.746L94.6398 175.28C94.5222 175.342 94.5278 175.454 94.6398 175.526L97.7646 177.33C97.8283 177.367 97.8998 177.39 97.9735 177.395C98.0473 177.401 98.1213 177.39 98.1902 177.363L98.2742 177.358ZM93.895 179.598C93.9617 179.632 94.0356 179.65 94.1106 179.65C94.1856 179.65 94.2595 179.632 94.3262 179.598L97.031 178.035C97.143 177.968 97.1374 177.856 97.031 177.789L93.9062 175.986C93.8395 175.951 93.7656 175.933 93.6906 175.933C93.6156 175.933 93.5417 175.951 93.475 175.986L90.7702 177.548C90.6582 177.61 90.6638 177.722 90.7702 177.794L93.895 179.598ZM83.395 166.337L80.6902 167.894C80.5782 167.961 80.5838 168.073 80.6902 168.146L83.815 169.949C83.882 169.982 83.9558 169.999 84.0306 169.999C84.1054 169.999 84.1791 169.982 84.2462 169.949L86.9454 168.386C87.063 168.319 87.0574 168.207 86.9454 168.14L83.8206 166.331C83.7403 166.29 83.6502 166.272 83.5602 166.279C83.4703 166.285 83.384 166.317 83.311 166.37L83.395 166.337ZM103.04 154.969L100.335 156.531C100.223 156.598 100.229 156.71 100.335 156.778L103.46 158.581C103.526 158.615 103.6 158.633 103.675 158.633C103.75 158.633 103.824 158.615 103.891 158.581L106.59 157.018C106.708 156.957 106.697 156.845 106.59 156.772L103.465 154.969C103.399 154.936 103.326 154.919 103.253 154.919C103.179 154.919 103.106 154.936 103.04 154.969ZM87.259 164.08L84.5598 165.648C84.4422 165.715 84.4478 165.827 84.5598 165.9L87.6846 167.703C87.7513 167.738 87.8252 167.755 87.9002 167.755C87.9752 167.755 88.0491 167.738 88.1158 167.703L90.8206 166.146C90.9326 166.079 90.927 165.967 90.8206 165.894L87.6902 164.08C87.6231 164.047 87.5494 164.03 87.4746 164.03C87.3998 164.03 87.326 164.047 87.259 164.08ZM107.005 152.678L104.3 154.241C104.188 154.308 104.193 154.42 104.3 154.487L107.425 156.29C107.491 156.325 107.565 156.343 107.64 156.343C107.715 156.343 107.789 156.325 107.856 156.29L110.555 154.728C110.673 154.661 110.661 154.554 110.555 154.482L107.43 152.678C107.363 152.647 107.29 152.631 107.216 152.633C107.142 152.635 107.07 152.654 107.005 152.69V152.678ZM99.1198 157.248L96.4206 158.81C96.303 158.878 96.3142 158.99 96.4206 159.057L99.5454 160.86C99.6121 160.894 99.686 160.912 99.761 160.912C99.836 160.912 99.9099 160.894 99.9766 160.86L102.676 159.303C102.788 159.236 102.782 159.124 102.676 159.051L99.551 157.248C99.4839 157.215 99.4102 157.198 99.3354 157.198C99.2606 157.198 99.1868 157.215 99.1198 157.248ZM95.1718 159.533L92.4726 161.09C92.355 161.157 92.3662 161.269 92.4726 161.336L95.5918 163.145C95.6588 163.178 95.7326 163.195 95.8074 163.195C95.8822 163.195 95.9559 163.178 96.023 163.145L98.7278 161.588C98.8398 161.521 98.8342 161.409 98.7278 161.336L95.603 159.533C95.5342 159.496 95.4572 159.476 95.379 159.476C95.3008 159.476 95.2238 159.496 95.155 159.533H95.1718ZM91.2518 161.812L88.5526 163.369C88.435 163.436 88.4406 163.548 88.5526 163.621L91.6774 165.424C91.7444 165.457 91.8182 165.474 91.893 165.474C91.9678 165.474 92.0415 165.457 92.1086 165.424L94.8134 163.867C94.9254 163.8 94.9198 163.688 94.8134 163.615L91.6382 161.84C91.5711 161.807 91.4974 161.79 91.4226 161.79C91.3478 161.79 91.274 161.807 91.207 161.84L91.2518 161.812ZM111.412 164.584L114.111 163.027C114.229 162.96 114.217 162.848 114.111 162.775L110.986 160.972C110.92 160.938 110.846 160.92 110.771 160.92C110.696 160.92 110.622 160.938 110.555 160.972L107.85 162.529C107.738 162.596 107.744 162.708 107.85 162.781L110.975 164.584C111.041 164.615 111.112 164.632 111.185 164.632C111.258 164.632 111.329 164.615 111.395 164.584H111.412ZM146.093 130.133L143.36 131.695C143.248 131.757 143.253 131.869 143.36 131.942L146.485 133.745C146.552 133.778 146.625 133.795 146.7 133.795C146.775 133.795 146.849 133.778 146.916 133.745L149.615 132.182C149.733 132.115 149.727 132.003 149.615 131.936L146.49 130.133C146.426 130.101 146.355 130.085 146.283 130.085C146.211 130.085 146.14 130.101 146.076 130.133H146.093ZM141.31 132.894L138.611 134.45C138.493 134.518 138.499 134.63 138.611 134.702L141.736 136.506C141.802 136.54 141.876 136.558 141.951 136.558C142.026 136.558 142.1 136.54 142.167 136.506L144.872 134.949C144.984 134.882 144.978 134.77 144.872 134.697L141.747 132.894C141.677 132.857 141.599 132.838 141.52 132.838C141.441 132.838 141.363 132.857 141.293 132.894H141.31ZM150.041 127.854L147.336 129.41C147.224 129.478 147.229 129.59 147.336 129.662L150.461 131.466C150.528 131.499 150.601 131.516 150.676 131.516C150.751 131.516 150.825 131.499 150.892 131.466L153.591 129.903C153.709 129.836 153.703 129.724 153.591 129.657L150.466 127.848C150.397 127.814 150.321 127.797 150.244 127.798C150.167 127.799 150.092 127.818 150.024 127.854H150.041ZM129.584 148.96L132.289 147.398C132.401 147.33 132.395 147.218 132.289 147.151L129.164 145.342C129.097 145.309 129.023 145.292 128.948 145.292C128.873 145.292 128.8 145.309 128.733 145.342L126 146.866C125.888 146.933 125.893 147.045 126 147.118L129.125 148.921C129.192 148.965 129.269 148.991 129.349 148.998C129.429 149.005 129.51 148.992 129.584 148.96ZM154.403 125.608C154.336 125.575 154.262 125.558 154.187 125.558C154.113 125.558 154.039 125.575 153.972 125.608L151.273 127.12C151.155 127.187 151.161 127.299 151.273 127.372L154.397 129.175C154.464 129.21 154.538 129.227 154.613 129.227C154.688 129.227 154.762 129.21 154.829 129.175L157.533 127.618C157.645 127.551 157.64 127.439 157.533 127.366L154.403 125.608ZM115.36 162.305L118.059 160.748C118.177 160.681 118.171 160.569 118.059 160.496L114.934 158.693C114.867 158.66 114.793 158.642 114.719 158.642C114.644 158.642 114.57 158.66 114.503 158.693L111.798 160.255C111.686 160.322 111.692 160.434 111.798 160.502L114.923 162.31C114.991 162.343 115.066 162.36 115.142 162.359C115.218 162.358 115.292 162.34 115.36 162.305ZM163.783 134.35L166.482 132.787C166.6 132.72 166.594 132.608 166.482 132.541L163.357 130.738C163.291 130.703 163.217 130.685 163.142 130.685C163.067 130.685 162.993 130.703 162.926 130.738L160.221 132.3C160.109 132.362 160.115 132.474 160.221 132.546L163.346 134.35C163.411 134.382 163.483 134.399 163.556 134.399C163.629 134.399 163.701 134.382 163.766 134.35H163.783ZM155.383 134.053L158.082 132.49C158.2 132.423 158.194 132.311 158.082 132.244L154.957 130.441C154.891 130.406 154.817 130.388 154.742 130.388C154.667 130.388 154.593 130.406 154.526 130.441L151.76 131.992C151.648 132.054 151.653 132.166 151.76 132.238L154.885 134.042C154.955 134.085 155.036 134.108 155.118 134.11C155.201 134.112 155.283 134.092 155.355 134.053H155.383ZM158.894 128.156C158.827 128.123 158.753 128.106 158.679 128.106C158.604 128.106 158.53 128.123 158.463 128.156L155.758 129.713C155.646 129.78 155.652 129.892 155.758 129.965L158.883 131.768C158.95 131.801 159.024 131.818 159.099 131.818C159.173 131.818 159.247 131.801 159.314 131.768L162.019 130.206C162.131 130.138 162.125 130.026 162.019 129.959L158.894 128.156ZM159.723 127.68L167.311 132.059C167.378 132.092 167.452 132.109 167.527 132.109C167.601 132.109 167.675 132.092 167.742 132.059L170.447 130.497C170.559 130.43 170.553 130.318 170.447 130.25L162.859 125.866C162.792 125.832 162.718 125.815 162.643 125.815C162.569 125.815 162.495 125.832 162.428 125.866L159.729 127.422C159.566 127.495 159.6 127.607 159.695 127.68H159.723ZM150.567 132.72L147.84 134.271C147.728 134.338 147.733 134.445 147.84 134.518L150.965 136.321C151.031 136.355 151.105 136.373 151.18 136.373C151.255 136.373 151.329 136.355 151.396 136.321L154.095 134.758C154.213 134.691 154.207 134.585 154.095 134.512L150.97 132.72C150.904 132.686 150.83 132.668 150.755 132.668C150.68 132.668 150.606 132.686 150.539 132.72H150.567ZM120.848 149.878L118.143 151.441C118.031 151.508 118.037 151.614 118.143 151.687L121.268 153.49C121.334 153.525 121.408 153.543 121.483 153.543C121.558 153.543 121.632 153.525 121.699 153.49L124.398 151.928C124.516 151.861 124.505 151.754 124.398 151.682L121.279 149.878C121.21 149.837 121.131 149.815 121.051 149.813C120.97 149.811 120.891 149.83 120.82 149.867L120.848 149.878ZM159.387 136.64C159.454 136.674 159.528 136.692 159.603 136.692C159.678 136.692 159.752 136.674 159.818 136.64L162.517 135.078C162.635 135.01 162.629 134.904 162.517 134.831L159.393 133.028C159.326 132.994 159.252 132.976 159.177 132.976C159.102 132.976 159.028 132.994 158.961 133.028L156.24 134.568C156.128 134.635 156.133 134.742 156.24 134.814L159.387 136.64ZM124.768 147.588L122.08 149.15C121.968 149.212 121.973 149.324 122.08 149.397L125.205 151.2C125.271 151.234 125.345 151.252 125.42 151.252C125.495 151.252 125.569 151.234 125.636 151.2L128.335 149.638C128.453 149.57 128.447 149.458 128.335 149.391L125.21 147.588C125.142 147.552 125.066 147.533 124.989 147.533C124.912 147.533 124.836 147.552 124.768 147.588ZM95.1662 173.695C95.2332 173.728 95.307 173.745 95.3818 173.745C95.4566 173.745 95.5303 173.728 95.5974 173.695L98.3022 172.133C98.4142 172.066 98.4086 171.954 98.3022 171.886L95.1774 170.083C95.1107 170.049 95.0368 170.031 94.9618 170.031C94.8868 170.031 94.8129 170.049 94.7462 170.083L92.047 171.646C91.9294 171.707 91.935 171.819 92.047 171.892L95.1662 173.695ZM89.2302 168.095L86.5254 169.68C86.4134 169.742 86.419 169.854 86.5254 169.926L89.6502 171.73C89.7172 171.763 89.791 171.78 89.8658 171.78C89.9406 171.78 90.0143 171.763 90.0814 171.73L92.7806 170.167C92.8982 170.1 92.887 169.988 92.7806 169.921L89.6614 168.118C89.5956 168.081 89.5222 168.062 89.4472 168.06C89.3721 168.058 89.2977 168.074 89.2302 168.106V168.095ZM99.5454 171.416L102.25 169.854C102.362 169.786 102.357 169.674 102.25 169.607L99.1198 167.81C99.0527 167.776 98.979 167.759 98.9042 167.759C98.8294 167.759 98.7556 167.776 98.6886 167.81L95.9894 169.366C95.8718 169.434 95.883 169.546 95.9894 169.618L99.1198 171.416C99.1853 171.45 99.2576 171.469 99.3313 171.471C99.405 171.472 99.4782 171.458 99.5454 171.427V171.416ZM103.499 169.131L106.198 167.574C106.31 167.507 106.305 167.395 106.198 167.322L103.04 165.53C102.973 165.497 102.899 165.48 102.824 165.48C102.749 165.48 102.676 165.497 102.609 165.53L99.9094 167.087C99.7918 167.154 99.803 167.266 99.9094 167.339L103.034 169.142C103.107 169.179 103.188 169.197 103.27 169.193C103.351 169.189 103.43 169.164 103.499 169.12V169.131ZM107.447 166.852L110.146 165.295C110.264 165.228 110.253 165.116 110.146 165.043L107.021 163.24C106.955 163.207 106.882 163.19 106.809 163.19C106.735 163.19 106.662 163.207 106.596 163.24L103.891 164.797C103.779 164.864 103.785 164.976 103.891 165.049L107.016 166.88C107.083 166.913 107.157 166.93 107.231 166.93C107.306 166.93 107.38 166.913 107.447 166.88V166.852ZM93.1782 165.816L90.4734 167.373C90.3614 167.44 90.367 167.552 90.4734 167.625L93.5982 169.428C93.6652 169.461 93.739 169.478 93.8138 169.478C93.8886 169.478 93.9623 169.461 94.0294 169.428L96.7286 167.866C96.8462 167.798 96.8406 167.686 96.7286 167.619L93.6038 165.81C93.5362 165.781 93.4628 165.767 93.3891 165.77C93.3153 165.773 93.2432 165.792 93.1782 165.827V165.816ZM97.1262 163.537L94.4214 165.094C94.3094 165.161 94.315 165.273 94.4214 165.346L97.5462 167.149C97.6129 167.183 97.6868 167.201 97.7618 167.201C97.8368 167.201 97.9107 167.183 97.9774 167.149L100.677 165.592C100.794 165.525 100.789 165.413 100.677 165.34L97.5518 163.537C97.4846 163.506 97.4114 163.491 97.3377 163.493C97.264 163.495 97.1917 163.514 97.1262 163.548V163.537ZM112.918 154.414L110.219 155.977C110.101 156.044 110.113 156.156 110.219 156.223L113.344 158.026C113.409 158.061 113.482 158.079 113.557 158.079C113.631 158.079 113.704 158.061 113.769 158.026L116.474 156.464C116.586 156.402 116.581 156.29 116.474 156.218L113.349 154.414C113.281 154.383 113.207 154.368 113.132 154.37C113.058 154.372 112.984 154.391 112.918 154.426V154.414ZM108.998 156.694L106.299 158.256C106.181 158.323 106.193 158.435 106.299 158.502L109.418 160.311C109.485 160.344 109.559 160.361 109.634 160.361C109.709 160.361 109.782 160.344 109.849 160.311L112.554 158.754C112.666 158.687 112.661 158.575 112.554 158.502L109.429 156.699C109.358 156.662 109.279 156.643 109.199 156.644C109.119 156.645 109.04 156.666 108.97 156.705L108.998 156.694ZM116.9 152.135L114.195 153.698C114.083 153.765 114.089 153.877 114.195 153.944L117.32 155.747C117.386 155.782 117.46 155.799 117.535 155.799C117.61 155.799 117.684 155.782 117.751 155.747L120.45 154.185C120.568 154.123 120.557 154.011 120.45 153.938L117.325 152.135C117.255 152.098 117.177 152.079 117.097 152.081C117.018 152.083 116.94 152.105 116.872 152.146L116.9 152.135ZM101.074 161.28L98.375 162.837C98.2574 162.904 98.263 163.016 98.375 163.089L101.5 164.892C101.567 164.925 101.641 164.942 101.715 164.942C101.79 164.942 101.864 164.925 101.931 164.892L104.636 163.335C104.748 163.268 104.742 163.156 104.636 163.083L101.505 161.28C101.438 161.247 101.365 161.23 101.29 161.23C101.215 161.23 101.141 161.247 101.074 161.28ZM104.994 159.001L102.295 160.558C102.177 160.625 102.183 160.737 102.295 160.81L105.42 162.613C105.487 162.646 105.561 162.663 105.635 162.663C105.71 162.663 105.784 162.646 105.851 162.613L108.556 161.056C108.668 160.989 108.662 160.877 108.556 160.804L105.431 159.001C105.368 158.968 105.299 158.95 105.228 158.948C105.157 158.946 105.087 158.961 105.022 158.99L104.994 159.001ZM102.11 175.095L104.815 173.533C104.927 173.466 104.921 173.354 104.815 173.286L101.69 171.478C101.623 171.444 101.549 171.427 101.475 171.427C101.4 171.427 101.326 171.444 101.259 171.478L98.5598 173.04C98.4422 173.107 98.4478 173.219 98.5598 173.292L101.679 175.095C101.751 175.131 101.83 175.149 101.91 175.147C101.99 175.145 102.068 175.123 102.138 175.084L102.11 175.095ZM78.9598 172.743L75.8406 170.94C75.7739 170.906 75.7 170.888 75.625 170.888C75.55 170.888 75.4761 170.906 75.4094 170.94L72.7102 172.48C72.5982 172.542 72.6038 172.654 72.7102 172.726L75.835 174.53C75.9017 174.564 75.9756 174.582 76.0506 174.582C76.1256 174.582 76.1995 174.564 76.2662 174.53L78.9654 172.967C79.0998 172.922 79.0886 172.81 78.9598 172.743ZM84.879 174.479L81.7598 172.676C81.6931 172.642 81.6192 172.624 81.5442 172.624C81.4692 172.624 81.3953 172.642 81.3286 172.676L77.1734 175.078C77.0614 175.146 77.067 175.252 77.1734 175.325L80.2982 177.128C80.3649 177.162 80.4388 177.18 80.5138 177.18C80.5888 177.18 80.6627 177.162 80.7294 177.128L84.8846 174.726C85.0134 174.658 85.0078 174.552 84.8846 174.479H84.879ZM74.1718 169.254L71.0526 167.44C70.9855 167.407 70.9118 167.39 70.837 167.39C70.7622 167.39 70.6884 167.407 70.6214 167.44L67.295 169.361C67.1774 169.428 67.1886 169.54 67.295 169.613L70.4142 171.416C70.4812 171.449 70.555 171.466 70.6298 171.466C70.7046 171.466 70.7783 171.449 70.8454 171.416L74.1718 169.495C74.3062 169.439 74.3006 169.327 74.1774 169.254H74.1718ZM76.7198 167.782C76.7865 167.816 76.8604 167.834 76.9354 167.834C77.0104 167.834 77.0843 167.816 77.151 167.782L79.8502 166.219C79.9678 166.152 79.9566 166.046 79.8502 165.973L76.7198 164.181C76.6531 164.146 76.5792 164.128 76.5042 164.128C76.4292 164.128 76.3553 164.146 76.2886 164.181L73.5838 165.76C73.4718 165.827 73.4774 165.934 73.5838 166.006L76.7198 167.782ZM90.3838 176.456L87.259 174.653C87.1923 174.618 87.1184 174.6 87.0434 174.6C86.9684 174.6 86.8945 174.618 86.8278 174.653L81.631 177.654C81.519 177.722 81.5246 177.834 81.631 177.901L84.7558 179.704C84.8225 179.738 84.8964 179.756 84.9714 179.756C85.0464 179.756 85.1203 179.738 85.187 179.704L90.3782 176.702C90.5182 176.635 90.5126 176.529 90.3894 176.456H90.3838ZM92.9766 180.113L89.8518 178.31C89.7851 178.275 89.7112 178.257 89.6362 178.257C89.5612 178.257 89.4873 178.275 89.4206 178.31L86.0942 180.23C85.9822 180.298 85.9878 180.41 86.0942 180.477L89.219 182.286C89.286 182.319 89.3598 182.336 89.4346 182.336C89.5094 182.336 89.5831 182.319 89.6502 182.286L92.971 180.365C93.111 180.32 93.1054 180.186 92.9598 180.113H92.9766ZM106.075 150.83C106.142 150.865 106.216 150.883 106.291 150.883C106.366 150.883 106.44 150.865 106.506 150.83L109.211 149.268C109.323 149.206 109.317 149.094 109.211 149.022L106.086 147.218C106.02 147.184 105.946 147.166 105.871 147.166C105.796 147.166 105.722 147.184 105.655 147.218L102.956 148.781C102.838 148.848 102.849 148.96 102.956 149.027L106.075 150.83ZM98.179 155.394C98.246 155.427 98.3198 155.445 98.3946 155.445C98.4694 155.445 98.5431 155.427 98.6102 155.394L101.315 153.838C101.427 153.77 101.421 153.658 101.315 153.586L98.1902 151.782C98.1231 151.749 98.0494 151.732 97.9746 151.732C97.8998 151.732 97.826 151.749 97.759 151.782L95.0598 153.345C94.9422 153.412 94.9478 153.524 95.0598 153.591L98.179 155.394ZM80.6678 165.502C80.7345 165.537 80.8084 165.555 80.8834 165.555C80.9584 165.555 81.0323 165.537 81.099 165.502L83.7982 163.94C83.9158 163.873 83.9102 163.761 83.7982 163.694L80.6734 161.89C80.6067 161.856 80.5328 161.838 80.4578 161.838C80.3828 161.838 80.3089 161.856 80.2422 161.89L77.5374 163.453C77.4254 163.514 77.431 163.626 77.5374 163.699L80.6678 165.502ZM102.127 153.11C102.194 153.144 102.268 153.162 102.343 153.162C102.418 153.162 102.492 153.144 102.558 153.11L105.263 151.547C105.375 151.486 105.369 151.374 105.263 151.301L102.127 149.52C102.06 149.487 101.986 149.47 101.911 149.47C101.837 149.47 101.763 149.487 101.696 149.52L98.9966 151.082C98.879 151.15 98.8846 151.262 98.9966 151.329L102.127 153.11ZM94.231 157.674C94.298 157.707 94.3718 157.724 94.4466 157.724C94.5214 157.724 94.5951 157.707 94.6622 157.674L97.367 156.117C97.479 156.05 97.4734 155.938 97.367 155.865L94.2422 154.062C94.1755 154.027 94.1016 154.009 94.0266 154.009C93.9516 154.009 93.8777 154.027 93.811 154.062L91.1062 155.618C90.9942 155.686 90.9998 155.798 91.1062 155.87L94.231 157.674ZM95.1438 180.404C95.0771 180.37 95.0032 180.352 94.9282 180.352C94.8532 180.352 94.7793 180.37 94.7126 180.404L90.5574 182.801C90.4454 182.868 90.451 182.98 90.5574 183.053L93.6822 184.856C93.7492 184.889 93.823 184.906 93.8978 184.906C93.9726 184.906 94.0463 184.889 94.1134 184.856L98.2686 182.459C98.3806 182.392 98.375 182.28 98.2686 182.207L95.1438 180.404ZM88.5694 160.944C88.6361 160.978 88.71 160.996 88.785 160.996C88.86 160.996 88.9339 160.978 89.0006 160.944L91.7054 159.387C91.8174 159.32 91.8118 159.208 91.7054 159.135L88.5638 157.36C88.4967 157.327 88.423 157.31 88.3482 157.31C88.2734 157.31 88.1996 157.327 88.1326 157.36L85.4334 158.917C85.3158 158.984 85.3214 159.096 85.4334 159.169L88.5694 160.944ZM84.6494 163.223C84.7164 163.256 84.7902 163.273 84.865 163.273C84.9398 163.273 85.0135 163.256 85.0806 163.223L87.7798 161.661C87.8974 161.594 87.8918 161.482 87.7798 161.414L84.6158 159.6C84.5491 159.566 84.4752 159.548 84.4002 159.548C84.3252 159.548 84.2513 159.566 84.1846 159.6L81.4798 161.157C81.3678 161.224 81.3734 161.336 81.4798 161.409L84.6494 163.223ZM168.336 138.169C168.269 138.136 168.195 138.118 168.12 138.118C168.045 138.118 167.972 138.136 167.905 138.169L161.252 142.01C161.14 142.078 161.145 142.19 161.252 142.262L164.377 144.066C164.444 144.099 164.517 144.116 164.592 144.116C164.667 144.116 164.741 144.099 164.808 144.066L171.455 140.224C171.573 140.162 171.567 140.05 171.455 139.978L168.336 138.169ZM159.605 143.209C159.539 143.174 159.465 143.156 159.39 143.156C159.315 143.156 159.241 143.174 159.174 143.209L156.475 144.771C156.357 144.838 156.363 144.95 156.475 145.018L159.6 146.821C159.666 146.855 159.74 146.873 159.815 146.873C159.89 146.873 159.964 146.855 160.031 146.821L162.736 145.258C162.848 145.197 162.842 145.085 162.736 145.012L159.605 143.209ZM106.114 172.799L108.819 171.242C108.931 171.175 108.925 171.063 108.819 170.99L105.694 169.187C105.627 169.154 105.553 169.137 105.479 169.137C105.404 169.137 105.33 169.154 105.263 169.187L102.564 170.744C102.446 170.811 102.457 170.923 102.564 170.996L105.689 172.799C105.751 172.829 105.819 172.844 105.887 172.844C105.956 172.844 106.024 172.829 106.086 172.799H106.114ZM151.709 147.767C151.643 147.733 151.569 147.715 151.494 147.715C151.419 147.715 151.345 147.733 151.278 147.767L148.573 149.324C148.461 149.391 148.467 149.503 148.573 149.576L151.698 151.379C151.765 151.412 151.839 151.429 151.914 151.429C151.989 151.429 152.062 151.412 152.129 151.379L154.829 149.822C154.946 149.755 154.941 149.643 154.829 149.57L151.709 147.767ZM172.284 135.89C172.217 135.855 172.143 135.837 172.068 135.837C171.993 135.837 171.919 135.855 171.853 135.89L169.12 137.441C169.008 137.508 169.013 137.62 169.12 137.687L172.245 139.49C172.311 139.525 172.385 139.543 172.46 139.543C172.535 139.543 172.609 139.525 172.676 139.49L175.375 137.928C175.493 137.866 175.487 137.754 175.375 137.682L172.284 135.89ZM179.357 135.414L171.741 131.04C171.674 131.006 171.6 130.988 171.525 130.988C171.45 130.988 171.376 131.006 171.309 131.04L168.61 132.602C168.493 132.664 168.498 132.776 168.61 132.849L176.209 137.2C176.276 137.234 176.35 137.252 176.425 137.252C176.5 137.252 176.574 137.234 176.641 137.2L179.345 135.638C179.457 135.593 179.452 135.486 179.329 135.414H179.357ZM136.953 156.285C136.886 156.252 136.813 156.234 136.738 156.234C136.663 156.234 136.589 156.252 136.522 156.285L133.196 158.206C133.078 158.267 133.089 158.379 133.196 158.452L136.321 160.255C136.387 160.29 136.461 160.307 136.536 160.307C136.611 160.307 136.685 160.29 136.752 160.255L140.073 158.334C140.19 158.267 140.185 158.155 140.073 158.088L136.953 156.285ZM146.927 150.528C146.86 150.495 146.786 150.478 146.711 150.478C146.637 150.478 146.563 150.495 146.496 150.528L142.341 152.93C142.223 152.998 142.234 153.11 142.341 153.177L145.465 154.98C145.532 155.014 145.606 155.032 145.681 155.032C145.756 155.032 145.83 155.014 145.897 154.98L150.052 152.578C150.164 152.516 150.158 152.404 150.052 152.331L146.927 150.528ZM127.809 161.566C127.742 161.531 127.668 161.513 127.593 161.513C127.518 161.513 127.444 161.531 127.377 161.566L105.112 174.395C104.994 174.462 105.005 174.574 105.112 174.647L108.231 176.45C108.298 176.483 108.372 176.501 108.447 176.501C108.521 176.501 108.595 176.483 108.662 176.45L130.9 163.615C131.017 163.548 131.012 163.436 130.9 163.363L127.809 161.566ZM104.322 175.123C104.255 175.09 104.181 175.073 104.107 175.073C104.032 175.073 103.958 175.09 103.891 175.123L100.565 177.044C100.453 177.106 100.458 177.218 100.565 177.29L103.689 179.094C103.756 179.128 103.83 179.146 103.905 179.146C103.98 179.146 104.054 179.128 104.121 179.094L107.447 177.173C107.559 177.106 107.553 176.994 107.447 176.926L104.322 175.123ZM132.378 158.928C132.312 158.894 132.238 158.876 132.163 158.876C132.088 158.876 132.014 158.894 131.947 158.928L128.626 160.849C128.509 160.916 128.514 161.028 128.626 161.095L131.751 162.904C131.818 162.937 131.892 162.954 131.967 162.954C132.041 162.954 132.115 162.937 132.182 162.904L135.509 160.983C135.621 160.916 135.615 160.81 135.509 160.737L132.378 158.928ZM99.7526 177.766C99.6859 177.732 99.612 177.714 99.537 177.714C99.462 177.714 99.3881 177.732 99.3214 177.766L95.995 179.687C95.8774 179.754 95.8886 179.866 95.995 179.934L99.1198 181.742C99.1859 181.775 99.2587 181.793 99.3326 181.793C99.4065 181.793 99.4793 181.775 99.5454 181.742L102.872 179.822C102.989 179.754 102.984 179.648 102.872 179.575L99.7526 177.766ZM141.523 153.647C141.456 153.614 141.382 153.597 141.307 153.597C141.233 153.597 141.159 153.614 141.092 153.647L137.76 155.557C137.648 155.624 137.653 155.736 137.76 155.809L140.885 157.612C140.951 157.646 141.025 157.664 141.1 157.664C141.175 157.664 141.249 157.646 141.316 157.612L144.642 155.697C144.754 155.63 144.749 155.518 144.642 155.445L141.523 153.647ZM155.657 145.488C155.59 145.455 155.517 145.438 155.442 145.438C155.367 145.438 155.293 145.455 155.226 145.488L152.521 147.05C152.409 147.118 152.415 147.23 152.521 147.297L155.646 149.106C155.713 149.139 155.787 149.156 155.862 149.156C155.937 149.156 156.01 149.139 156.077 149.106L158.777 147.549C158.894 147.482 158.889 147.37 158.777 147.297L155.657 145.488ZM164.309 139.205L167.009 137.642C167.126 137.581 167.121 137.469 167.009 137.396L163.884 135.593C163.817 135.558 163.743 135.54 163.668 135.54C163.593 135.54 163.519 135.558 163.453 135.593L160.72 137.144C160.608 137.211 160.613 137.323 160.72 137.39L163.845 139.194C163.911 139.231 163.986 139.251 164.062 139.253C164.138 139.255 164.213 139.238 164.281 139.205H164.309ZM146.653 139.093L149.357 137.53C149.469 137.463 149.464 137.351 149.357 137.284L146.233 135.481C146.166 135.446 146.092 135.428 146.017 135.428C145.942 135.428 145.868 135.446 145.801 135.481L143.102 137.038C142.985 137.105 142.99 137.217 143.102 137.29L146.227 139.093C146.29 139.121 146.357 139.135 146.426 139.135C146.494 139.135 146.562 139.121 146.625 139.093H146.653ZM137.693 154.566L145.589 150.002C145.701 149.94 145.695 149.828 145.589 149.755L142.464 147.952C142.397 147.918 142.323 147.9 142.248 147.9C142.173 147.9 142.099 147.918 142.033 147.952L134.137 152.51C134.019 152.578 134.03 152.69 134.137 152.762L137.261 154.566C137.327 154.596 137.399 154.611 137.472 154.61C137.545 154.609 137.616 154.592 137.681 154.56L137.693 154.566ZM159.913 141.473C159.98 141.507 160.054 141.525 160.129 141.525C160.204 141.525 160.278 141.507 160.345 141.473L163.044 139.916C163.161 139.849 163.15 139.737 163.044 139.664L159.925 137.861C159.858 137.828 159.784 137.81 159.709 137.81C159.634 137.81 159.56 137.828 159.493 137.861L156.761 139.44C156.649 139.507 156.654 139.619 156.761 139.686L159.913 141.473ZM155.881 138.908L158.581 137.346C158.698 137.284 158.693 137.172 158.581 137.099L155.461 135.296C155.395 135.262 155.321 135.244 155.246 135.244C155.171 135.244 155.097 135.262 155.03 135.296L152.32 136.847C152.208 136.914 152.213 137.026 152.32 137.094L155.445 138.897C155.51 138.932 155.582 138.951 155.656 138.953C155.73 138.955 155.803 138.94 155.87 138.908H155.881ZM133.739 156.828L136.444 155.266C136.556 155.198 136.55 155.086 136.444 155.019L133.28 153.233C133.213 153.198 133.139 153.18 133.064 153.18C132.989 153.18 132.915 153.198 132.849 153.233L130.149 154.795C130.032 154.857 130.043 154.969 130.149 155.042L133.269 156.845C133.339 156.883 133.418 156.902 133.498 156.902C133.578 156.902 133.657 156.883 133.728 156.845L133.739 156.828ZM151.2 146.513C151.266 146.547 151.34 146.565 151.415 146.565C151.49 146.565 151.564 146.547 151.631 146.513L154.33 144.95C154.448 144.889 154.442 144.777 154.33 144.704L151.205 142.901C151.139 142.866 151.065 142.848 150.99 142.848C150.915 142.848 150.841 142.866 150.774 142.901L148.03 144.48C147.918 144.547 147.924 144.659 148.03 144.726L151.2 146.513ZM114.016 168.241L116.715 166.684C116.833 166.617 116.821 166.505 116.715 166.432L113.551 164.64C113.484 164.606 113.41 164.588 113.335 164.588C113.26 164.588 113.186 164.606 113.12 164.64L110.415 166.197C110.303 166.264 110.309 166.376 110.415 166.449L113.54 168.252C113.61 168.286 113.687 168.303 113.765 168.301C113.843 168.299 113.919 168.278 113.988 168.241H114.016ZM117.936 165.962L120.635 164.405C120.753 164.338 120.747 164.226 120.635 164.153L117.51 162.35C117.443 162.316 117.369 162.299 117.295 162.299C117.22 162.299 117.146 162.316 117.079 162.35L114.374 163.912C114.262 163.979 114.268 164.091 114.374 164.158L117.499 165.962C117.566 165.997 117.641 166.015 117.717 166.015C117.793 166.015 117.868 165.997 117.936 165.962ZM110.04 170.52L112.739 168.963C112.857 168.896 112.845 168.784 112.739 168.711L109.614 166.908C109.547 166.875 109.473 166.858 109.399 166.858C109.324 166.858 109.25 166.875 109.183 166.908L106.484 168.465C106.372 168.532 106.377 168.644 106.484 168.717L109.609 170.52C109.676 170.553 109.749 170.57 109.824 170.57C109.899 170.57 109.973 170.553 110.04 170.52ZM125.832 161.403L128.537 159.841C128.649 159.774 128.643 159.667 128.537 159.594L125.412 157.791C125.345 157.757 125.271 157.739 125.196 157.739C125.121 157.739 125.047 157.757 124.981 157.791L122.281 159.354C122.164 159.421 122.169 159.527 122.281 159.6L125.406 161.403C125.472 161.437 125.545 161.454 125.619 161.454C125.693 161.454 125.766 161.437 125.832 161.403ZM121.912 163.682L124.611 162.12C124.729 162.058 124.723 161.946 124.611 161.874L121.486 160.07C121.42 160.036 121.346 160.018 121.271 160.018C121.196 160.018 121.122 160.036 121.055 160.07L118.35 161.633C118.238 161.7 118.244 161.812 118.35 161.879L121.475 163.682C121.539 163.713 121.609 163.729 121.679 163.729C121.75 163.729 121.82 163.713 121.884 163.682H121.912ZM129.808 159.124L132.513 157.562C132.625 157.494 132.619 157.382 132.513 157.315L129.36 155.512C129.293 155.478 129.219 155.46 129.144 155.46C129.069 155.46 128.995 155.478 128.929 155.512L126.229 157.074C126.112 157.136 126.117 157.248 126.229 157.321L129.354 159.124C129.42 159.157 129.493 159.175 129.567 159.175C129.641 159.175 129.714 159.157 129.78 159.124H129.808ZM147.84 125.395C147.906 125.43 147.98 125.447 148.055 125.447C148.13 125.447 148.204 125.43 148.271 125.395L150.976 123.833C151.088 123.766 151.082 123.659 150.976 123.586L150.141 123.105C150.075 123.07 150.001 123.052 149.926 123.052C149.851 123.052 149.777 123.07 149.71 123.105L147.011 124.662C146.899 124.729 146.905 124.841 147.011 124.914L147.84 125.395ZM128.413 137.939C128.48 137.972 128.554 137.989 128.629 137.989C128.704 137.989 128.778 137.972 128.845 137.939L131.544 136.382C131.661 136.315 131.656 136.203 131.544 136.13L128.425 134.327C128.358 134.293 128.284 134.275 128.209 134.275C128.134 134.275 128.06 134.293 127.993 134.327L125.289 135.884C125.177 135.951 125.182 136.063 125.289 136.136L128.413 137.939ZM136.309 133.375C136.376 133.41 136.45 133.427 136.525 133.427C136.6 133.427 136.674 133.41 136.741 133.375L139.44 131.824C139.557 131.762 139.552 131.65 139.44 131.578L136.315 129.774C136.248 129.741 136.174 129.724 136.099 129.724C136.025 129.724 135.951 129.741 135.884 129.774L133.179 131.337C133.067 131.404 133.073 131.516 133.179 131.583L136.309 133.375ZM123.592 140.722C123.659 140.755 123.733 140.773 123.807 140.773C123.882 140.773 123.956 140.755 124.023 140.722L126.722 139.166C126.84 139.098 126.829 138.986 126.722 138.914L123.603 137.11C123.536 137.077 123.462 137.06 123.387 137.06C123.313 137.06 123.239 137.077 123.172 137.11L120.467 138.667C120.355 138.734 120.361 138.846 120.467 138.919L123.592 140.722ZM132.361 135.682C132.428 135.715 132.502 135.733 132.577 135.733C132.652 135.733 132.726 135.715 132.793 135.682L135.492 134.126C135.609 134.058 135.604 133.946 135.492 133.874L132.367 132.07C132.3 132.037 132.226 132.02 132.151 132.02C132.077 132.02 132.003 132.037 131.936 132.07L129.231 133.633C129.119 133.7 129.125 133.812 129.231 133.879L132.361 135.682ZM115.696 145.303C115.762 145.336 115.835 145.353 115.909 145.353C115.982 145.353 116.055 145.336 116.121 145.303L118.826 143.741C118.938 143.674 118.933 143.562 118.826 143.494L115.69 141.68C115.623 141.647 115.549 141.63 115.475 141.63C115.4 141.63 115.326 141.647 115.259 141.68L112.56 143.226C112.442 143.293 112.453 143.405 112.56 143.478L115.696 145.303ZM119.616 143.024C119.682 143.058 119.756 143.076 119.831 143.076C119.906 143.076 119.98 143.058 120.047 143.024L122.746 141.467C122.864 141.4 122.853 141.288 122.746 141.215L119.621 139.412C119.555 139.379 119.482 139.362 119.409 139.362C119.335 139.362 119.262 139.379 119.196 139.412L116.491 140.969C116.379 141.036 116.385 141.148 116.491 141.221L119.616 143.024ZM139.916 129.976C139.982 130.01 140.056 130.028 140.131 130.028C140.206 130.028 140.28 130.01 140.347 129.976L143.046 128.414C143.164 128.352 143.158 128.24 143.046 128.167L142.24 127.68C142.173 127.647 142.099 127.63 142.024 127.63C141.949 127.63 141.876 127.647 141.809 127.68L139.109 129.237C138.992 129.304 138.997 129.416 139.109 129.489L139.916 129.976ZM151.76 123.138C151.826 123.173 151.9 123.191 151.975 123.191C152.05 123.191 152.124 123.173 152.191 123.138L154.896 121.576C155.008 121.509 155.002 121.397 154.896 121.33L154.067 120.848C154 120.815 153.926 120.798 153.851 120.798C153.777 120.798 153.703 120.815 153.636 120.848L150.931 122.41C150.819 122.478 150.825 122.59 150.931 122.657L151.76 123.138ZM158.323 126.93C158.39 126.963 158.464 126.98 158.539 126.98C158.613 126.98 158.687 126.963 158.754 126.93L161.459 125.373C161.571 125.306 161.565 125.194 161.459 125.121L158.334 123.318C158.267 123.284 158.193 123.267 158.119 123.267C158.044 123.267 157.97 123.284 157.903 123.318L155.221 124.88C155.103 124.947 155.109 125.059 155.221 125.132L158.323 126.93ZM168.196 136.948L170.895 135.386C171.013 135.318 171.007 135.212 170.895 135.139L167.77 133.336C167.704 133.302 167.63 133.284 167.555 133.284C167.48 133.284 167.406 133.302 167.339 133.336L164.64 134.865C164.528 134.932 164.533 135.038 164.64 135.111L167.765 136.914C167.834 136.956 167.914 136.979 167.996 136.981C168.077 136.983 168.158 136.964 168.229 136.926L168.196 136.948ZM143.92 127.68C143.986 127.714 144.06 127.732 144.135 127.732C144.21 127.732 144.284 127.714 144.351 127.68L147.05 126.118C147.168 126.056 147.162 125.944 147.05 125.871L146.216 125.39C146.149 125.356 146.075 125.339 146 125.339C145.925 125.339 145.852 125.356 145.785 125.39L143.085 126.946C142.968 127.014 142.979 127.126 143.085 127.198L143.92 127.68ZM111.748 147.56C111.814 147.594 111.888 147.612 111.963 147.612C112.038 147.612 112.112 147.594 112.179 147.56L114.884 145.998C114.996 145.93 114.99 145.818 114.884 145.751L111.759 143.948C111.692 143.914 111.618 143.896 111.543 143.896C111.468 143.896 111.394 143.914 111.328 143.948L108.64 145.51C108.522 145.572 108.533 145.684 108.64 145.757L111.748 147.56Z" fill="#455A64"/>
<path d="M129.259 171.265L155.92 155.87C156.372 155.641 156.87 155.522 157.376 155.522C157.882 155.522 158.381 155.641 158.832 155.87L174.12 164.696C174.927 165.161 174.927 165.911 174.12 166.376L147.459 181.77C147.008 182 146.509 182.119 146.003 182.119C145.497 182.119 144.998 182 144.547 181.77L129.259 172.945C128.458 172.48 128.458 171.724 129.259 171.265Z" fill="#263238"/>
<path d="M178.294 97.2384H178.26L173.707 94.6176C173.444 94.5 173.058 94.6176 172.587 94.9648C168.354 98.2016 162.658 99.2096 158.027 97.7312C157.728 97.4515 157.444 97.1562 157.176 96.8464L157.092 96.7512C156.958 96.5964 156.799 96.4657 156.622 96.3648L156.543 96.32L151.985 93.7048C151.464 93.4584 150.994 93.7048 150.68 94.4776C146.278 105.414 136.898 116.497 130.643 119.269C130.17 119.481 129.75 119.795 129.411 120.187C128.962 120.675 128.714 121.316 128.717 121.979L129.618 146.535C129.618 153.63 132.614 161.123 138.724 164.769L143.439 167.49L143.523 167.535C146.073 168.967 148.955 169.699 151.878 169.658C152.534 169.658 153.2 169.63 153.889 169.562C155.229 169.342 156.47 168.721 157.45 167.782C171.12 153.664 177.767 134.557 177.767 123.984L178.641 98.2688C178.674 97.7144 178.54 97.3728 178.294 97.2384Z" fill="#031A6B"/>
<path d="M178.641 98.2688L177.74 123.956C177.74 134.529 171.092 153.636 157.423 167.754C156.443 168.693 155.201 169.314 153.861 169.534C153.172 169.602 152.506 169.63 151.851 169.63C148.927 169.671 146.045 168.939 143.496 167.507L143.412 167.462L143.249 167.362C137.14 163.716 134.144 156.223 134.144 149.128L133.281 124.572C133.278 123.908 133.526 123.268 133.976 122.78C134.314 122.387 134.735 122.074 135.208 121.862C141.463 119.062 150.843 108.007 155.244 97.0704C155.558 96.2976 156.034 96.0456 156.555 96.292L156.633 96.3368C156.811 96.4377 156.97 96.5684 157.104 96.7232L157.188 96.8184C161.858 102.256 171.042 102.25 177.174 97.5576C177.639 97.2048 178.025 97.0928 178.294 97.2104H178.328C178.54 97.3728 178.675 97.7144 178.641 98.2688Z" fill="#031A6B"/>
<path opacity="0.4" d="M178.265 97.2048C178.002 97.0872 177.616 97.2048 177.145 97.552C171.372 101.97 162.888 102.234 158.021 97.6976C162.675 99.1816 168.359 98.1736 172.581 94.9312C173.046 94.5784 173.433 94.4664 173.701 94.584L178.265 97.2048Z" fill="#FEFEFE"/>
<path opacity="0.4" d="M156.526 96.2864C156.005 96.04 155.529 96.2864 155.216 97.0648C150.814 108.002 141.434 119.084 135.179 121.856C134.706 122.068 134.285 122.382 133.947 122.774C133.829 122.908 133.724 123.053 133.633 123.206L129.086 120.579C129.177 120.429 129.28 120.287 129.394 120.154C129.457 120.08 129.524 120.011 129.596 119.946L129.674 119.868L129.752 119.795C130.011 119.565 130.304 119.376 130.62 119.235C136.876 116.463 146.256 105.381 150.657 94.444C150.971 93.6712 151.441 93.4248 151.962 93.6712L156.526 96.2864Z" fill="#FEFEFE"/>
<path d="M129.602 119.935C129.625 119.908 129.652 119.884 129.681 119.862L129.602 119.941C129.602 119.941 129.596 119.935 129.602 119.935Z" fill="#031A6B"/>
<path opacity="0.15" d="M129.68 119.84L129.602 119.918C129.625 119.889 129.651 119.863 129.68 119.84Z" fill="#0F0F0F"/>
<path opacity="0.15" d="M143.506 167.502L143.422 167.462L138.707 164.735C132.597 161.09 129.601 153.597 129.601 146.502L128.7 121.946C128.69 121.462 128.824 120.986 129.086 120.579L133.633 123.206C133.376 123.612 133.243 124.085 133.253 124.566L134.154 149.122C134.154 156.218 137.15 163.682 143.26 167.356L143.422 167.457L143.506 167.502Z" fill="#0F0F0F"/>
<path d="M159.6 144.911L152.32 149.111L153.44 135.946C152.572 135.486 152.012 134.355 152.012 132.726C152.012 129.83 153.776 126.459 155.932 125.205C158.088 123.95 159.852 125.283 159.852 128.178C159.808 129.897 159.318 131.574 158.429 133.045L159.6 144.911Z" fill="#455A64"/>
<path d="M159.589 144.911L152.998 141.103L152.314 149.111L159.589 144.911Z" fill="#37474F"/>
<path d="M155.956 125.205C154.528 126.028 153.29 127.753 152.596 129.657L158.481 133.045C159.37 131.574 159.86 129.897 159.904 128.178C159.887 125.283 158.129 123.95 155.956 125.205Z" fill="#37474F"/>
<path d="M64.916 221.39V223.574C64.916 226.15 66.596 228.721 70.0008 230.686C75.1192 233.638 82.6344 234.36 88.9344 232.854L94.7808 236.214L99.2608 235.194L102.324 236.97L102.492 240.671L104.172 241.629L108.322 241.993L111.301 243.673V245.762L115.047 247.918H124.567L127.978 245.952V243.746L97.5472 228.385C98.8381 227.121 99.5923 225.408 99.6528 223.602V221.362C99.1936 219.223 97.4128 218.12 94.5736 216.479C87.792 212.559 76.8048 212.559 70.0232 216.479C66.9544 218.271 65.224 219.089 64.916 221.39ZM74.2344 218.831C75.3122 218.285 76.5036 218 77.712 218C78.9204 218 80.1119 218.285 81.1896 218.831C83.1104 219.951 83.1104 221.738 81.1896 222.846C80.1119 223.393 78.9204 223.678 77.712 223.678C76.5036 223.678 75.3122 223.393 74.2344 222.846C72.3136 221.76 72.3136 219.94 74.2344 218.831Z" fill="#031A6B"/>
<path opacity="0.1" d="M64.916 221.39V223.574C64.916 226.15 66.596 228.721 70.0008 230.686C75.1192 233.638 82.6344 234.36 88.9344 232.854L94.7808 236.214L99.2608 235.194L102.324 236.97L102.492 240.671L104.172 241.629L108.322 241.993L111.301 243.673V245.762L115.047 247.918H124.567L127.978 245.952V243.746L97.5472 228.385C98.8381 227.121 99.5923 225.408 99.6528 223.602V221.362C99.1936 219.223 97.4128 218.12 94.5736 216.479C87.792 212.559 76.8048 212.559 70.0232 216.479C66.9544 218.271 65.224 219.089 64.916 221.39ZM74.2344 218.831C75.3122 218.285 76.5036 218 77.712 218C78.9204 218 80.1119 218.285 81.1896 218.831C83.1104 219.951 83.1104 221.738 81.1896 222.846C80.1119 223.393 78.9204 223.678 77.712 223.678C76.5036 223.678 75.3122 223.393 74.2344 222.846C72.3136 221.76 72.3136 219.94 74.2344 218.831Z" fill="#0F0F0F"/>
<path d="M70.0008 228.48C75.1192 231.437 82.6344 232.159 88.9344 230.647L94.7808 234.007L99.2608 232.994L102.324 234.763L102.492 238.47L104.172 239.422L108.322 239.786L111.558 241.59L111.301 243.538L115.047 245.7H124.567L127.978 243.734L97.5472 226.162C101.131 222.359 100.146 217.504 94.5736 214.29C87.792 210.37 76.8048 210.37 70.0232 214.29C63.2416 218.21 63.2192 224.56 70.0008 228.48ZM74.2344 216.625C75.3122 216.078 76.5036 215.793 77.712 215.793C78.9204 215.793 80.1118 216.078 81.1896 216.625C83.1104 217.745 83.1104 219.531 81.1896 220.64C80.1118 221.187 78.9204 221.471 77.712 221.471C76.5036 221.471 75.3122 221.187 74.2344 220.64C72.3136 219.52 72.3136 217.728 74.2344 216.619V216.625Z" fill="#031A6B"/>
<path opacity="0.3" d="M82.2751 229.488C77.9687 229.488 73.9535 228.536 70.9631 226.811C68.3423 225.299 66.8359 223.322 66.8359 221.39C66.8359 219.458 68.3423 217.47 70.9631 215.964C73.9535 214.239 77.9687 213.287 82.2751 213.287C86.5815 213.287 90.5967 214.239 93.5871 215.964C96.2079 217.482 97.7143 219.453 97.7143 221.39C97.7143 223.328 96.2079 225.31 93.5871 226.811C90.5967 228.536 86.5815 229.488 82.2751 229.488ZM82.2751 214.06C78.1031 214.06 74.2223 214.973 71.3439 216.63C68.9695 218.002 67.6087 219.738 67.6087 221.39C67.6087 223.042 68.9695 224.75 71.3439 226.145C74.2223 227.825 78.1031 228.721 82.2751 228.721C86.4471 228.721 90.3279 227.802 93.2063 226.145C95.5807 224.773 96.9415 223.037 96.9415 221.39C96.9415 219.744 95.5807 218.03 93.2063 216.63C90.3279 214.973 86.4471 214.06 82.2751 214.06Z" fill="#0F0F0F"/>
<path opacity="0.1" d="M76.0273 230.72V232.96C80.2837 233.885 84.6923 233.855 88.9353 232.87V230.664C84.6895 231.635 80.2815 231.654 76.0273 230.72Z" fill="#0F0F0F"/>
<path opacity="0.1" d="M94.7812 234.018V236.23L99.2725 235.211V233.005L94.7812 234.018Z" fill="#0F0F0F"/>
<path opacity="0.1" d="M102.336 234.774V236.986L102.504 240.688V238.482L102.336 234.774Z" fill="#0F0F0F"/>
<path opacity="0.1" d="M104.154 239.434V241.646L108.304 242.01V239.798L104.154 239.434Z" fill="#0F0F0F"/>
<path opacity="0.1" d="M124.546 245.711H115.031V247.923H124.546V245.711Z" fill="#0F0F0F"/>
<path opacity="0.15" d="M127.955 243.74V245.952L124.545 247.918V245.711L126.035 244.849V245.801L126.863 245.325V244.362L127.955 243.74Z" fill="#0F0F0F"/>
<path d="M126.864 244.362L126.035 244.849V245.801L126.864 245.325V244.362Z" fill="#031A6B"/>
<path opacity="0.15" d="M126.863 244.362V245.325L95.6543 227.304L96.4775 226.822L126.863 244.362Z" fill="#0F0F0F"/>
<path opacity="0.15" d="M96.4775 226.822V227.786L95.6543 227.304L96.4775 226.822Z" fill="#0F0F0F"/>
<path d="M232.138 161.594C232.536 147.034 231.365 143.511 227.479 140.84L225.978 149.29C225.978 149.29 227.748 159.253 227.557 162.568C227.389 165.486 227.104 169.131 226.437 171.483C226.31 171.9 226.035 172.257 225.664 172.486C224.858 173.055 224.139 173.74 223.531 174.518C222.971 175.129 222.456 175.28 222.528 175.476C222.642 175.689 222.832 175.852 223.06 175.932C223.288 176.012 223.538 176.003 223.76 175.907C224.257 175.714 224.728 175.458 225.16 175.146C224.82 176.041 224.336 176.876 223.727 177.615C222.338 179.295 222.276 180.359 225.076 180.387C226.835 180.387 228.235 179.318 229.556 175.454C230.07 174.038 230.482 172.588 230.788 171.114C231.432 167.289 232.076 163.94 232.138 161.594Z" fill="#B16668"/>
<path d="M224.213 139.731C225.406 139.52 226.636 139.702 227.718 140.249C228.799 140.796 229.674 141.68 230.21 142.766C231.84 145.673 232.238 150.679 232.45 155.646C232.45 155.646 229.219 158.351 225.344 157.024L224.213 139.731Z" fill="#031A6B"/>
<path opacity="0.7" d="M224.213 139.731C225.406 139.52 226.636 139.702 227.718 140.249C228.799 140.796 229.674 141.68 230.21 142.766C231.84 145.673 232.238 150.679 232.45 155.646C232.45 155.646 229.219 158.351 225.344 157.024L224.213 139.731Z" fill="#0F0F0F"/>
<path d="M229.668 219.957C229.959 220.069 230.032 220.629 230.076 221.743C230.11 222.583 230.295 224.056 229.304 224.353C228.312 224.65 226.868 224.493 226.235 223.698C225.469 222.632 224.65 221.606 223.782 220.623C222.808 219.576 221.749 218.59 221.352 217.118C220.999 215.79 221.296 215.214 222.203 214.827C223.452 214.267 225.412 216.031 226.392 216.306C227.232 216.541 229.371 219.845 229.668 219.957Z" fill="#263238"/>
<path d="M229.669 218.921V220.293C229.154 220.62 228.561 220.802 227.951 220.818C227.341 220.833 226.739 220.683 226.208 220.382C226.146 220.254 225.85 218.428 225.85 218.428L229.669 218.921Z" fill="#B16668"/>
<path d="M218.58 227.842C218.82 228.577 219.022 229.325 219.184 230.082C219.352 230.91 219.593 232.322 219.308 232.915C219.022 233.509 217.885 233.94 216.132 233.929C215.012 233.929 213.232 234.69 212.022 235.368C210.812 236.046 208.169 236.342 206.842 236.186C205.285 236.001 203.672 235.099 203.42 234.455C203.168 233.811 203.499 233.139 207.178 231.571C207.212 231.571 212.285 229.891 214.06 227.948L218.58 227.842Z" fill="#263238"/>
<path d="M218.58 226.363V227.959C218.58 228.519 217.902 229.404 216.127 229.342C214.884 229.298 214.01 228.962 214.061 227.937V226.453L218.58 226.363Z" fill="#B16668"/>
<path d="M230.557 200.76C230.253 198.336 229.711 195.949 228.939 193.631C228.939 193.631 229.426 187.471 229.661 181.653C229.913 175.353 229.661 167.44 229.768 165.866C229.768 165.866 209.445 161.756 209.081 169.036C208.717 176.316 209.888 194.846 210.129 198.044C210.369 201.242 210.918 204.075 211.579 209.244C212.24 214.413 214.06 226.442 214.06 226.442C214.762 226.799 215.542 226.978 216.331 226.962C217.119 226.947 217.891 226.737 218.579 226.352C218.579 226.352 220.013 211.792 219.861 208.102C219.745 205.368 219.275 202.661 218.461 200.049C218.461 200.049 218.848 194.046 219.189 188.849C219.531 183.652 219.889 181.115 219.968 178.847L220.405 178.629C220.405 178.629 220.853 187.639 221.093 190.837C221.334 194.034 221.838 197.098 222.773 203.039C223.58 208.197 225.971 219.1 225.971 219.1C228.289 220.354 229.678 218.932 229.678 218.932C229.678 218.932 231.179 205.234 230.557 200.76Z" fill="#37474F"/>
<path d="M219.969 178.836C219.969 178.836 224.897 176.4 227.361 174.216C227.361 174.216 225.07 177.442 222.063 178.875C222.063 178.875 220.994 190.075 220.999 189.84L220.378 178.819L219.969 178.836Z" fill="#263238"/>
<path d="M215.578 137.43L216.782 144.049L222.763 143.606L221.509 136.108L215.578 137.43Z" fill="#B16668"/>
<path d="M229.074 143.125C228.486 141.327 226.201 139.367 223.916 139.765C220.525 140.35 217.183 141.194 213.92 142.29C211.832 143.035 209.922 144.844 209.748 151.726C209.748 151.726 209.048 167.765 209.037 170.867C213.403 172.58 218.158 173.049 222.774 172.222C229.057 170.85 229.819 168.241 229.819 168.241C229.819 168.241 229.897 156.705 229.707 151.726C229.539 147.493 229.483 144.362 229.074 143.125Z" fill="#031A6B"/>
<g opacity="0.15">
<path d="M229.074 143.125C228.486 141.327 226.201 139.367 223.916 139.765C220.525 140.35 217.183 141.194 213.92 142.29C211.832 143.035 209.922 144.844 209.748 151.726C209.748 151.726 209.048 167.765 209.037 170.867C213.403 172.58 218.158 173.049 222.774 172.222C229.057 170.85 229.819 168.241 229.819 168.241C229.819 168.241 229.897 156.705 229.707 151.726C229.539 147.493 229.483 144.362 229.074 143.125Z" fill="#0F0F0F"/>
</g>
<path d="M210.97 129.36C210.97 129.36 209.452 131.779 209.637 132.009C209.821 132.238 210.981 132.423 210.981 132.423L210.97 129.36Z" fill="#9A4A4D"/>
<path d="M215.175 122.69C212.017 123.43 211.132 124.846 210.947 129.903C210.751 135.178 211.328 136.825 212.033 137.519C212.515 137.99 215.113 138.018 216.418 137.626C218.048 137.138 221.727 135.738 223.401 133.05C225.373 129.881 225.815 125.642 223.592 123.956C220.456 121.582 216.463 122.388 215.175 122.69Z" fill="#B16668"/>
<path d="M210.98 124.006C211.705 125.063 212.729 125.88 213.92 126.353C214.525 127.042 214.194 129.713 215.258 130.161C215.258 130.161 215.717 128.201 217.364 128.414C219.01 128.626 219.296 130.721 218.282 132.026C217.269 133.33 216.289 132.86 216.289 132.86C216.289 132.86 216.401 135.66 217.672 137.194C217.672 137.194 219.083 137.62 221.659 137.01C223.238 136.634 225.439 134.602 226.335 132.479C228.233 127.999 228.278 123.984 225.417 122.847C225.064 120.803 223.429 119.924 221.581 119.543C217.599 118.72 215.034 121.223 211.971 120.988C210.218 120.865 209.893 122.142 210.98 124.006Z" fill="#263238"/>
<path d="M225.479 123.53L227.355 122.371C227.294 122.219 227.201 122.082 227.082 121.969C226.963 121.857 226.821 121.772 226.666 121.721C226.51 121.669 226.346 121.652 226.183 121.671C226.02 121.69 225.864 121.745 225.725 121.831C225.585 121.917 225.467 122.032 225.377 122.169C225.287 122.306 225.228 122.461 225.205 122.623C225.181 122.785 225.194 122.95 225.241 123.107C225.288 123.264 225.37 123.408 225.479 123.53Z" fill="#263238"/>
<path d="M188.631 154.207C189.611 154.644 201.197 163.201 203.001 162.204C204.804 161.207 214.072 150.382 214.072 150.382C214.855 149.173 215.271 147.763 215.271 146.322C215.271 144.882 214.855 143.472 214.072 142.262C214.072 142.262 211.104 142.822 209.547 145.163C207.99 147.504 201.281 155.932 201.281 155.932C199.624 155.103 197.97 154.263 196.32 153.412C194.965 152.706 193.604 152.006 192.277 151.25C191.904 151.077 191.552 150.861 191.229 150.606C190.574 149.957 190.669 148.366 190.703 147.538C190.703 147.14 190.703 146.742 190.759 146.345C190.815 145.858 190.91 144.665 190.031 145.046C189.865 145.125 189.72 145.244 189.611 145.393C189.476 145.575 189.37 145.777 189.297 145.992C189.135 146.507 189.185 147.073 189.034 147.594C189.016 147.67 188.98 147.741 188.928 147.801C188.85 147.861 188.752 147.891 188.653 147.885C187.377 147.846 186.167 146.054 185.579 145.085C185.376 144.623 185.038 144.233 184.61 143.965C183.916 143.634 183.076 144.105 182.622 144.732C182.076 145.556 181.853 146.553 181.995 147.532C182.113 148.872 182.71 150.124 183.675 151.06C185.134 152.386 186.811 153.451 188.631 154.207Z" fill="#B16668"/>
<path d="M215.041 141.915C213.764 142.061 211.642 142.156 209.559 144.514C207.106 147.28 203.908 151.76 203.908 151.76C204.235 153.085 204.937 154.288 205.93 155.223C206.924 156.159 208.166 156.788 209.508 157.035C209.508 157.035 213.893 152.555 215.108 150.069C216.323 147.582 216.525 143.584 215.041 141.915Z" fill="#031A6B"/>
<path opacity="0.7" d="M215.041 141.915C213.764 142.061 211.642 142.156 209.559 144.514C207.106 147.28 203.908 151.76 203.908 151.76C204.235 153.085 204.937 154.288 205.93 155.223C206.924 156.159 208.166 156.788 209.508 157.035C209.508 157.035 213.893 152.555 215.108 150.069C216.323 147.582 216.525 143.584 215.041 141.915Z" fill="#0F0F0F"/>
</svg>
