<svg width="84" height="84" viewBox="0 0 84 84" fill="none" xmlns="http://www.w3.org/2000/svg">
<g filter="url(#filter0_d_4695_7385)">
<g clip-path="url(#clip0_4695_7385)">
<rect x="2" y="2" width="80" height="80" rx="8" fill="white"/>
<path d="M47.6676 30.1074H39.6484V32.229H47.6676V30.1074Z" fill="#FEFEFE"/>
<path d="M38.1247 6.78223H30.1055V8.90383H38.1247V6.78223Z" fill="#CFCFCF"/>
<path d="M76.2008 32.5322H68.1816V34.6538H76.2008V32.5322Z" fill="#CFCFCF"/>
<path d="M72.8085 36.8879C72.8078 36.8751 72.8078 36.8623 72.8085 36.8495C72.8085 36.8223 72.8085 36.7855 72.8085 36.7407C72.8085 36.6415 72.8085 36.5023 72.8085 36.3231C72.8085 35.9567 72.8005 35.4303 72.7957 34.7679L72.8197 34.7919L64.8021 34.8079L64.8421 34.7679V35.8415C64.8421 36.1967 64.8421 36.5444 64.8421 36.8847L64.8021 36.8447L70.5173 36.8639L72.2037 36.8751H72.6597H72.7797H72.8213C72.8213 36.8751 72.8101 36.8751 72.7845 36.8751H72.6709H72.2229L70.5445 36.8863L64.8021 36.9039H64.7637V34.7711L64.8053 34.7295L72.8229 34.7455H72.8485V34.7711C72.8485 35.4399 72.8373 35.9727 72.8341 36.3423C72.8341 36.5183 72.8341 36.6543 72.8341 36.7535C72.8341 36.7967 72.8341 36.8303 72.8341 36.8575C72.8341 36.8847 72.8101 36.8895 72.8085 36.8879Z" fill="#CFCFCF"/>
<path d="M23.8922 55.2256H15.873V57.3472H23.8922V55.2256Z" fill="#CFCFCF"/>
<path d="M20.2008 28.9082H12.1816V31.0298H20.2008V28.9082Z" fill="#CFCFCF"/>
<path d="M16.8096 33.264C16.8088 33.2512 16.8088 33.2384 16.8096 33.2256C16.8096 33.1968 16.8096 33.1616 16.8096 33.1168C16.8096 33.0176 16.8096 32.8784 16.8096 32.6992C16.8096 32.3328 16.8096 31.8064 16.7968 31.1424L16.8208 31.168L8.80315 31.184C8.82075 31.1664 8.76155 31.224 8.84315 31.1424V32.2192C8.84315 32.5728 8.84315 32.9216 8.84315 33.2624L8.80315 33.2224L14.5184 33.2416L16.2048 33.2528H16.6608H16.7808H16.8224C16.8224 33.2528 16.8112 33.2528 16.7856 33.2528H16.672H16.224L14.5456 33.264L8.80315 33.2816H8.75195V33.2416C8.75195 32.9008 8.75195 32.552 8.75195 32.1984V31.1216C8.83355 31.04 8.77435 31.0992 8.79355 31.0816L16.8112 31.0976H16.8368V31.1216C16.8368 31.792 16.8256 32.3232 16.8224 32.6928C16.8224 32.8704 16.8224 33.0128 16.8224 33.1056C16.8224 33.1488 16.8224 33.1824 16.8224 33.2096C16.8224 33.2368 16.8112 33.2656 16.8096 33.264Z" fill="#CFCFCF"/>
<path d="M72.4264 13.4842C72.4264 13.4842 72.4264 13.4698 72.4264 13.4458C72.4264 13.4218 72.4264 13.3818 72.4264 13.337C72.4264 13.2362 72.4264 13.097 72.4264 12.9194C72.4264 12.553 72.4184 12.0266 72.4136 11.3626L72.4376 11.3882L64.42 11.4042C64.4376 11.385 64.3784 11.4442 64.46 11.3626V12.4378C64.46 12.7914 64.46 13.1402 64.46 13.481L64.42 13.441L70.1352 13.4586L71.8216 13.4698H72.2776H72.3976C72.4114 13.4685 72.4254 13.4685 72.4392 13.4698H72.4024H72.2888H71.8408L70.1624 13.481L64.4072 13.5194H64.3672V11.3658L64.4088 11.3242L72.4264 11.3402H72.452V11.3658C72.452 12.0362 72.4408 12.5674 72.4376 12.937C72.4376 13.113 72.4376 13.257 72.4376 13.3482C72.4376 13.3914 72.4376 13.4266 72.4376 13.4538C72.4351 13.4644 72.4313 13.4746 72.4264 13.4842Z" fill="#CFCFCF"/>
<path d="M73.5203 11.3635C73.5181 11.3503 73.5181 11.3368 73.5203 11.3235C73.5203 11.2931 73.5203 11.2563 73.5203 11.2099C73.5203 11.1059 73.5203 10.9651 73.5123 10.7859C73.5123 10.4131 73.5043 9.88831 73.4963 9.24191L73.5267 9.27071L68.7091 9.28351C68.6723 9.31871 68.7587 9.23391 68.7491 9.24191V10.3331C68.7491 10.6883 68.7491 11.0323 68.7491 11.3619L68.7091 11.3235L72.1571 11.3411L73.1603 11.3523H73.4307H73.5283C73.499 11.3546 73.4696 11.3546 73.4403 11.3523H73.1779L72.1827 11.3635L68.7091 11.3811H68.6707V11.3427C68.6707 11.0131 68.6707 10.6691 68.6707 10.3139V9.24351C68.6611 9.25311 68.7475 9.16671 68.7123 9.20351L73.5299 9.21471H73.5587V9.24351C73.5587 9.89791 73.5475 10.4291 73.5427 10.8051C73.5427 10.9811 73.5427 11.1251 73.5427 11.2243C73.5427 11.3235 73.5203 11.3651 73.5203 11.3635Z" fill="#CFCFCF"/>
<path d="M58.9273 62.4161C58.9273 62.4161 58.9273 62.4017 58.9273 62.3777C58.9273 62.3537 58.9273 62.3137 58.9273 62.2689C58.9273 62.1681 58.9273 62.0289 58.9273 61.8513C58.9273 61.4849 58.9193 60.9585 58.9145 60.2945L58.9385 60.3201L50.9209 60.3361C50.9385 60.3169 50.8793 60.3761 50.9609 60.2945V62.4161L50.9209 62.3761L56.6345 62.3937L58.3209 62.4049H58.7769H58.8969C58.9107 62.4035 58.9246 62.4035 58.9385 62.4049H58.9017H58.7881H58.3401L56.6633 62.4177L50.9209 62.4353H50.8809V62.3953C50.8809 62.0545 50.8809 61.7057 50.8809 61.3521V60.2769C50.9625 60.1953 50.9033 60.2545 50.9225 60.2369L58.9401 60.2529H58.9593V60.2769C58.9593 60.9473 58.9481 61.4785 58.9449 61.8481C58.9449 62.0241 58.9449 62.1681 58.9449 62.2609C58.9449 62.3025 58.9449 62.3377 58.9449 62.3649C58.9425 62.383 58.9365 62.4004 58.9273 62.4161Z" fill="#CFCFCF"/>
<path d="M60.0156 60.2947C60.0144 60.2814 60.0144 60.268 60.0156 60.2547C60.0156 60.2243 60.0156 60.1875 60.0156 60.1427C60.0156 60.0371 60.0156 59.8963 60.0076 59.7171C60.0076 59.3443 59.9996 58.8195 59.9932 58.1731L60.022 58.2035L55.2044 58.2147C55.1676 58.2515 55.254 58.1651 55.2444 58.1731V59.2643C55.2444 59.6195 55.2444 59.9635 55.2444 60.2931L55.206 60.2547L58.6524 60.2723L59.6556 60.2835H59.926H60.0236C59.9943 60.2858 59.9649 60.2858 59.9356 60.2835H59.6732L58.678 60.2947L55.206 60.3123H55.166V60.2723C55.166 59.9427 55.166 59.5987 55.166 59.2435V58.1523L55.2076 58.1123L60.0252 58.1235H60.054V58.1523C60.054 58.8067 60.0428 59.3379 60.038 59.7139C60.038 59.8899 60.038 60.0339 60.038 60.1331C60.038 60.2323 60.0172 60.2963 60.0156 60.2947Z" fill="#CFCFCF"/>
<path d="M77.9326 74.4863H6.42383V76.4479H77.9326V74.4863Z" fill="#CFCFCF"/>
<path d="M50.0514 76.4373C49.9959 75.792 49.9959 75.1433 50.0514 74.498C50.1068 75.1433 50.1068 75.792 50.0514 76.4373Z" fill="#031A6B"/>
<path d="M43.3033 76.4373C43.2479 75.792 43.2479 75.1433 43.3033 74.498C43.3588 75.1433 43.3588 75.792 43.3033 76.4373Z" fill="#031A6B"/>
<path d="M35.6861 76.4373C35.6307 75.792 35.6307 75.1433 35.6861 74.498C35.7416 75.1433 35.7416 75.792 35.6861 76.4373Z" fill="#031A6B"/>
<path d="M24.6568 76.4373C24.6014 75.792 24.6014 75.1433 24.6568 74.498C24.7123 75.1433 24.7123 75.792 24.6568 76.4373Z" fill="#031A6B"/>
<path d="M16.2291 76.4001C16.1736 75.7549 16.1736 75.1061 16.2291 74.4609C16.2846 75.1061 16.2846 75.7549 16.2291 76.4001Z" fill="#031A6B"/>
<path d="M7.73887 76.4001C7.6834 75.7549 7.6834 75.1061 7.73887 74.4609C7.79434 75.1061 7.79434 75.7549 7.73887 76.4001Z" fill="#031A6B"/>
<path d="M56.7682 76.4373C56.7127 75.792 56.7127 75.1433 56.7682 74.498C56.8236 75.1433 56.8236 75.792 56.7682 76.4373Z" fill="#031A6B"/>
<path d="M63.1959 76.4373C63.1404 75.792 63.1404 75.1433 63.1959 74.498C63.2514 75.1433 63.2514 75.792 63.1959 76.4373Z" fill="#031A6B"/>
<path d="M69.8014 76.4373C69.7459 75.792 69.7459 75.1433 69.8014 74.498C69.8568 75.1433 69.8568 75.792 69.8014 76.4373Z" fill="#031A6B"/>
<path d="M77.1127 74.4801C77.1127 74.5025 61.0967 74.5217 41.3431 74.5217C21.5895 74.5217 5.57031 74.5089 5.57031 74.4801C5.57031 74.4513 21.5831 74.4385 41.3431 74.4385C61.1031 74.4385 77.1127 74.4625 77.1127 74.4801Z" fill="#031A6B"/>
<path d="M77.1127 76.4484C77.1127 76.4708 61.0967 76.49 41.3431 76.49C21.5895 76.49 5.57031 76.4708 5.57031 76.4484C5.57031 76.426 21.5831 76.4004 41.3431 76.4004C61.1031 76.4004 77.1127 76.4244 77.1127 76.4484Z" fill="#031A6B"/>
<path d="M76.401 76.4373C76.3455 75.792 76.3455 75.1433 76.401 74.498C76.4564 75.1433 76.4564 75.792 76.401 76.4373Z" fill="#031A6B"/>
<path d="M54.7456 67.2947C55.1105 67.4288 55.4089 67.6996 55.5776 68.0499C55.7344 68.3854 55.8084 68.7535 55.7936 69.1235C55.784 69.8307 55.4384 70.5635 55.0432 71.1491C54.36 70.6691 54.12 69.7779 54.0272 69.3203C53.8816 68.5971 54.0832 67.2227 54.7456 67.2947Z" fill="#031A6B"/>
<path d="M55.8962 72.2645C55.8323 72.0706 55.8245 71.8625 55.8738 71.6644C55.923 71.4662 56.0273 71.286 56.1746 71.1445C56.4931 70.8553 56.9127 70.703 57.3426 70.7205C57.4429 70.7136 57.5436 70.7271 57.6385 70.7604C57.7334 70.7937 57.8206 70.846 57.8946 70.9141C57.9507 70.9837 57.9864 71.0677 57.9974 71.1564C58.0084 71.2452 57.9944 71.3353 57.957 71.4165C57.8771 71.5767 57.7541 71.7114 57.6018 71.8053C57.093 72.1573 56.5282 72.4069 55.8962 72.2693" fill="#031A6B"/>
<path d="M55.3226 74.4596C55.3169 74.4113 55.3169 74.3624 55.3226 74.314C55.3322 74.2074 55.3434 74.0762 55.3562 73.9204C55.3803 73.4844 55.4793 73.0557 55.649 72.6532C55.8324 72.2467 56.1255 71.8993 56.4954 71.65C56.6106 71.5743 56.7348 71.513 56.865 71.4676C56.9 71.4543 56.9358 71.4431 56.9722 71.434C56.9855 71.4321 56.9989 71.4321 57.0122 71.434C56.8392 71.502 56.6736 71.5872 56.5178 71.6884C56.1616 71.9415 55.8793 72.2851 55.7002 72.6836C55.5325 73.0818 55.4294 73.5042 55.3946 73.9348C55.3754 74.0948 55.3578 74.234 55.3434 74.3252C55.3413 74.3707 55.3343 74.4157 55.3226 74.4596Z" fill="#031A6B"/>
<path d="M54.6905 68.3574C54.6973 68.3777 54.7021 68.3986 54.7049 68.4198L54.7353 68.6006C54.7609 68.7606 54.7961 68.983 54.8345 69.263C54.9145 69.8246 55.0137 70.599 55.1017 71.4582C55.1897 72.3174 55.2505 73.0934 55.2873 73.6566C55.3049 73.9382 55.3177 74.1654 55.3241 74.3238C55.3241 74.3974 55.3241 74.4582 55.3241 74.5046C55.3269 74.5259 55.3269 74.5474 55.3241 74.5686C55.319 74.5476 55.3158 74.5262 55.3145 74.5046C55.3145 74.4582 55.3049 74.3974 55.2985 74.3238C55.2841 74.1638 55.2665 73.9334 55.2441 73.6582C55.1977 73.095 55.1305 72.3174 55.0425 71.4598C54.9545 70.6022 54.8617 69.8278 54.7913 69.2662C54.7577 68.991 54.7305 68.7654 54.7097 68.6022C54.7017 68.527 54.6937 68.4678 54.6889 68.4214C54.6866 68.4001 54.6871 68.3786 54.6905 68.3574Z" fill="#031A6B"/>
<path d="M54.8566 72.7524C54.7247 72.3204 54.495 71.9246 54.1853 71.5958C53.8756 71.267 53.4944 71.014 53.0711 70.8564C52.8519 70.7748 52.5719 70.7284 52.4151 70.8852C52.2583 71.042 52.3255 71.3028 52.4311 71.5028C52.6734 71.9229 53.0276 72.2676 53.454 72.4987C53.8805 72.7297 54.3627 72.838 54.847 72.8116" fill="#031A6B"/>
<path d="M53.2442 71.5156C53.2919 71.5275 53.3385 71.5436 53.3834 71.5636C53.4378 71.5828 53.4912 71.6047 53.5434 71.6292C53.6026 71.6596 53.6746 71.6884 53.7466 71.7316C53.8186 71.7748 53.9066 71.818 53.9818 71.874C54.0701 71.9316 54.155 71.9941 54.2362 72.0612C54.4215 72.2123 54.5895 72.3835 54.737 72.5716C54.8794 72.7582 54.9996 72.9606 55.0954 73.1748C55.1358 73.2676 55.1706 73.3627 55.1994 73.4596C55.2265 73.5425 55.2484 73.6269 55.265 73.7124C55.2842 73.7908 55.289 73.8628 55.2986 73.9252C55.3065 73.9782 55.3102 74.0317 55.3098 74.0852C55.3157 74.1309 55.3157 74.1771 55.3098 74.2228C55.2986 74.2228 55.2986 74.0276 55.2282 73.7188C55.2092 73.635 55.1857 73.5522 55.1578 73.4708C55.128 73.3758 55.0922 73.2829 55.0506 73.1924C54.9545 72.9826 54.8354 72.784 54.6954 72.6004C54.55 72.4156 54.3859 72.2461 54.2058 72.0948C54.1264 72.0288 54.0436 71.9668 53.9578 71.9092C53.8843 71.856 53.8079 71.8068 53.729 71.762C53.4378 71.6004 53.2394 71.5268 53.2442 71.5156Z" fill="#031A6B"/>
<path d="M44.3825 70.2002C44.3937 70.2114 44.1777 70.3986 43.8689 70.7346C43.4665 71.174 43.1144 71.657 42.8193 72.1746C42.5278 72.6935 42.2944 73.2429 42.1233 73.813C41.9937 74.2514 41.9441 74.5314 41.9297 74.5282C41.9298 74.4614 41.9374 74.3949 41.9521 74.3298C41.9713 74.2018 42.0097 74.0194 42.0673 73.797C42.3784 72.6301 42.9845 71.5628 43.8273 70.6978C43.9531 70.5653 44.0855 70.4392 44.2241 70.3202C44.2734 70.2758 44.3264 70.2356 44.3825 70.2002Z" fill="#031A6B"/>
<path d="M42.3063 68.0801C42.2888 68.1635 42.2647 68.2453 42.2343 68.3249C42.1815 68.4849 42.1095 68.7073 42.0263 68.9889C41.807 69.72 41.6349 70.4645 41.5111 71.2177C41.3894 71.9723 41.3146 72.7338 41.2871 73.4977C41.2775 73.7905 41.2743 74.0273 41.2743 74.1921C41.2783 74.277 41.2746 74.3622 41.2631 74.4465C41.2492 74.3624 41.2417 74.2773 41.2407 74.1921C41.2311 74.0321 41.2263 73.7905 41.2295 73.4961C41.2455 71.959 41.4953 70.4332 41.9703 68.9713C42.0615 68.6913 42.1415 68.4673 42.2039 68.3137C42.2309 68.2329 42.2652 68.1547 42.3063 68.0801Z" fill="#031A6B"/>
<path d="M39.0477 71.5119C39.0669 71.5007 39.4797 72.1855 39.9693 73.0399C40.4589 73.8943 40.8381 74.5967 40.8189 74.6095C40.7997 74.6223 40.3869 73.9359 39.8973 73.0815C39.4077 72.2271 39.0269 71.5231 39.0477 71.5119Z" fill="#031A6B"/>
<path d="M14.1891 70.2002C14.2003 70.2114 13.9843 70.3986 13.6755 70.7346C13.2731 71.174 12.9211 71.657 12.6259 72.1746C12.3344 72.6935 12.101 73.2429 11.9299 73.813C11.8003 74.2514 11.7507 74.5314 11.7363 74.5282C11.7363 74.4582 11.7443 74.3884 11.7603 74.3202C11.7884 74.1405 11.8268 73.9626 11.8755 73.7874C12.1867 72.6205 12.7927 71.5532 13.6355 70.6882C13.7606 70.5586 13.8926 70.4358 14.0307 70.3202C14.08 70.2758 14.133 70.2356 14.1891 70.2002Z" fill="#031A6B"/>
<path d="M12.111 68.0801C12.0935 68.1635 12.0694 68.2453 12.039 68.3249C11.9862 68.4849 11.9142 68.7073 11.831 68.9889C11.6117 69.72 11.4396 70.4645 11.3158 71.2177C11.1933 71.9722 11.1185 72.7337 11.0918 73.4977C11.0822 73.7905 11.079 74.0273 11.079 74.1921C11.083 74.277 11.0793 74.3622 11.0678 74.4465C11.0539 74.3624 11.0464 74.2773 11.0454 74.1921C11.0358 74.0321 11.031 73.7905 11.0342 73.4961C11.0502 71.959 11.3 70.4332 11.775 68.9713C11.8662 68.6913 11.9462 68.4673 12.0086 68.3137C12.0356 68.2329 12.0699 68.1547 12.111 68.0801Z" fill="#031A6B"/>
<path d="M8.85433 71.5119C8.87353 71.5007 9.28633 72.1855 9.77593 73.0399C10.2655 73.8943 10.6447 74.5967 10.6255 74.6095C10.6063 74.6223 10.1935 73.9359 9.70393 73.0815C9.21433 72.2271 8.83353 71.5231 8.85433 71.5119Z" fill="#031A6B"/>
<path d="M68.7484 70.1494C68.8061 70.1838 68.8597 70.2246 68.9084 70.271C69.0478 70.3874 69.1808 70.5113 69.3068 70.6422C70.1498 71.5077 70.7559 72.5755 71.0668 73.743C71.1154 73.9182 71.1539 74.0961 71.182 74.2758C71.1977 74.3408 71.2052 74.4074 71.2044 74.4742C71.19 74.4742 71.1404 74.1974 71.0108 73.759C70.6726 72.6136 70.0753 71.5614 69.2652 70.6838C68.9532 70.3462 68.7388 70.1606 68.7484 70.1494Z" fill="#031A6B"/>
<path d="M70.8262 68.0215C70.8677 68.0959 70.902 68.1741 70.9286 68.2551C70.991 68.4151 71.071 68.6327 71.1638 68.9111C71.6364 70.3736 71.8861 71.899 71.9046 73.4359C71.9046 73.7303 71.9046 73.9687 71.8918 74.1335C71.8916 74.2188 71.8841 74.3039 71.8694 74.3879C71.858 74.3031 71.8548 74.2173 71.8598 74.1319C71.8598 73.9719 71.8598 73.7303 71.8454 73.4375C71.8184 72.6742 71.7441 71.9132 71.623 71.1591C71.4979 70.4055 71.3253 69.6605 71.1062 68.9287C71.023 68.6487 70.9462 68.4215 70.8982 68.2663C70.868 68.1866 70.8439 68.1048 70.8262 68.0215Z" fill="#031A6B"/>
<path d="M74.0826 71.4611C74.1034 71.4723 73.7226 72.1747 73.233 73.0307C72.7434 73.8867 72.3322 74.5683 72.3114 74.5571C72.2906 74.5459 72.6714 73.8435 73.161 72.9891C73.6506 72.1347 74.0634 71.4499 74.0826 71.4611Z" fill="#031A6B"/>
<path d="M37.6492 31.1068C37.6078 31.104 37.5666 31.0981 37.526 31.0892L37.174 31.0236L36.9212 30.9724C36.8284 30.9516 36.7308 30.9228 36.6236 30.8956C36.4124 30.8364 36.166 30.7804 35.9052 30.6844L35.494 30.542C35.35 30.4924 35.2076 30.4252 35.0556 30.3644C34.75 30.2476 34.4396 30.0876 34.11 29.926C33.4061 29.5522 32.7358 29.118 32.1068 28.6284C31.4862 28.1284 30.9102 27.5754 30.3852 26.9756C30.1532 26.6908 29.9244 26.4252 29.7452 26.1548C29.6524 26.022 29.5548 25.8972 29.4732 25.7692L29.2412 25.4012C29.0812 25.1692 28.9772 24.9436 28.87 24.75C28.8188 24.6524 28.7676 24.5628 28.7276 24.478C28.6876 24.3932 28.6524 24.318 28.6204 24.2428C28.5596 24.1068 28.5116 23.9996 28.4764 23.9228C28.4575 23.8861 28.4424 23.8475 28.4316 23.8076C28.4538 23.8425 28.4736 23.8788 28.4908 23.9164L28.6508 24.2364L28.7644 24.4668C28.8076 24.55 28.8604 24.638 28.9132 24.734C29.0236 24.9244 29.1356 25.1484 29.2924 25.374L29.5276 25.7388C29.6108 25.8652 29.7084 25.9884 29.8028 26.1196C29.9884 26.3868 30.2172 26.6492 30.4428 26.9292C30.968 27.5202 31.5423 28.0657 32.1596 28.5596C32.7838 29.0472 33.4486 29.4802 34.1468 29.854C34.4668 30.014 34.7868 30.174 35.0828 30.2988C35.2332 30.3596 35.374 30.4268 35.5164 30.4796L35.9244 30.6252C36.182 30.7244 36.4252 30.7852 36.6364 30.8476C36.742 30.8764 36.8396 30.9084 36.9308 30.9308L37.182 30.9884L37.5292 31.0684C37.5702 31.0779 37.6103 31.0908 37.6492 31.1068Z" fill="#031A6B"/>
<path d="M36.08 31.9192C36.0458 31.9132 36.0121 31.9046 35.9792 31.8936L35.6928 31.8072C35.568 31.7688 35.4176 31.7208 35.2448 31.6472C35.072 31.5736 34.872 31.5144 34.6608 31.42C34.4496 31.3256 34.2112 31.2312 33.9664 31.1096C33.7216 30.988 33.4624 30.8536 33.1904 30.7096C32.0225 30.058 30.9486 29.2506 29.9984 28.3096C29.784 28.0888 29.576 27.884 29.3968 27.6696C29.2176 27.4552 29.04 27.2952 28.8992 27.1192C28.7584 26.9432 28.6288 26.7688 28.5184 26.6216C28.408 26.4744 28.3168 26.3432 28.2464 26.2344L28.0864 25.9848C28.0651 25.9569 28.0479 25.9262 28.0352 25.8936C28.059 25.9191 28.0809 25.9464 28.1008 25.9752L28.2768 26.2168C28.352 26.3224 28.4448 26.4504 28.56 26.5944C28.6752 26.7384 28.7968 26.9144 28.9504 27.0824C29.104 27.2504 29.2608 27.4536 29.448 27.652C29.6352 27.8504 29.8368 28.06 30.0528 28.276C31.0035 29.2039 32.0705 30.0047 33.2272 30.6584C33.496 30.804 33.7504 30.948 33.9968 31.0632C34.2432 31.1784 34.4768 31.2904 34.6832 31.3832C34.8896 31.476 35.0896 31.5528 35.2608 31.6216C35.432 31.6904 35.5808 31.7448 35.7024 31.7816L35.984 31.884C36.0173 31.8915 36.0496 31.9033 36.08 31.9192Z" fill="#031A6B"/>
<path d="M12.4785 49.8545C12.4851 49.8731 12.4894 49.8924 12.4913 49.9121L12.5153 50.0833C12.5361 50.2433 12.5665 50.4593 12.6049 50.7425C12.6241 50.8849 12.6433 51.0433 12.6673 51.2225C12.6913 51.4017 12.7345 51.5825 12.7729 51.7825C12.8545 52.1841 12.9233 52.6465 13.0641 53.1425C13.1281 53.3921 13.1948 53.6529 13.2641 53.9249C13.3361 54.1969 13.4353 54.4721 13.5249 54.7617C13.6145 55.0513 13.7025 55.3521 13.8273 55.6497C13.9521 55.9473 14.0625 56.2609 14.1857 56.5777C15.3167 59.3146 16.9343 61.824 18.9601 63.9841L19.6561 64.6945C19.8753 64.9329 20.1201 65.1297 20.3409 65.3345C20.5617 65.5393 20.7761 65.7409 20.9953 65.9169C21.2145 66.0929 21.4241 66.2625 21.6241 66.4241C22.0177 66.7585 22.4097 67.0113 22.7441 67.2529C22.9041 67.3697 23.0641 67.4833 23.2113 67.5729L23.6177 67.8257L24.1809 68.1793L24.3265 68.2721L24.3745 68.3073C24.3558 68.3005 24.3381 68.2913 24.3217 68.2801L24.1713 68.1937L23.6001 67.8641L23.1873 67.6177C23.0401 67.5217 22.8849 67.4097 22.7169 67.2977C22.3825 67.0593 21.9873 66.8081 21.5969 66.4769L20.9569 65.9729C20.7361 65.7969 20.5249 65.5921 20.2977 65.3921C20.0705 65.1921 19.8289 64.9873 19.6081 64.7521L18.9073 64.0417C16.8682 61.8795 15.2458 59.3594 14.1217 56.6081C14.0001 56.2881 13.8801 55.9777 13.7649 55.6753C13.6497 55.3729 13.5617 55.0705 13.4657 54.7825C13.3697 54.4945 13.2785 54.2161 13.2097 53.9425L13.0129 53.1553C12.8753 52.6577 12.8097 52.1953 12.7329 51.7905C12.6977 51.5889 12.6593 51.4017 12.6337 51.2289C12.6081 51.0561 12.5953 50.8945 12.5793 50.7489C12.5473 50.4657 12.5233 50.2449 12.5057 50.0881C12.4977 50.0161 12.4929 49.9601 12.4881 49.9169C12.4833 49.8737 12.4785 49.8545 12.4785 49.8545Z" fill="#031A6B"/>
<path d="M10.8008 50.5693C10.8061 50.5887 10.8098 50.6085 10.812 50.6285C10.812 50.6701 10.8264 50.7277 10.8376 50.7997C10.8584 50.9597 10.8872 51.1757 10.9256 51.4573C10.9448 51.6013 10.9656 51.7613 10.988 51.9373C11.0152 52.1117 11.0568 52.2973 11.0936 52.4989C11.1752 52.8989 11.244 53.3613 11.3848 53.8573C11.4488 54.1069 11.516 54.3693 11.5864 54.6413C11.6568 54.9133 11.7576 55.1885 11.8472 55.4781C11.9368 55.7677 12.0232 56.0685 12.148 56.3661L12.508 57.2941C13.6354 60.0331 15.2522 62.544 17.2792 64.7037L17.9752 65.4157C18.1944 65.6525 18.4376 65.8509 18.6584 66.0557C18.8792 66.2605 19.0952 66.4621 19.3128 66.6397L19.9432 67.1469C20.3368 67.4797 20.7272 67.7341 21.0632 67.9741C21.2232 68.0909 21.3832 68.2061 21.5304 68.3021L21.9384 68.5565L22.5 68.9085L22.6456 69.0029L22.6936 69.0365C22.6751 69.0293 22.6574 69.0202 22.6408 69.0093L22.492 68.9229L21.9208 68.5837L21.5096 68.3357C21.3608 68.2413 21.2072 68.1277 21.0296 68.0157C20.6952 67.7789 20.3 67.5277 19.9096 67.1965C19.708 67.0365 19.4952 66.8669 19.2696 66.6925C19.044 66.5181 18.8392 66.3101 18.6104 66.1101C18.3816 65.9101 18.1432 65.7069 17.9224 65.4701L17.2216 64.7597C15.1813 62.5981 13.5582 60.0779 12.4344 57.3261L12.0808 56.3869C11.956 56.0877 11.8776 55.7821 11.7816 55.4941C11.6856 55.2061 11.596 54.9261 11.5256 54.6541C11.4552 54.3821 11.3928 54.1181 11.3304 53.8669C11.1928 53.3677 11.1272 52.9069 11.0488 52.5021C11.0136 52.3005 10.9752 52.1133 10.9496 51.9389C10.924 51.7645 10.9112 51.6061 10.8952 51.4589C10.8632 51.1757 10.8392 50.9533 10.8216 50.7981C10.8216 50.7261 10.8088 50.6685 10.8056 50.6253C10.8023 50.6068 10.8007 50.5881 10.8008 50.5693Z" fill="#031A6B"/>
<path d="M24.3078 24.0977L27.8691 9.69629L17.9099 7.23348L14.3486 21.6349L24.3078 24.0977Z" fill="#031A6B"/>
<path d="M25.6234 18.6657C25.066 18.6715 24.516 18.5379 24.0234 18.2769L24.4106 17.5777C24.7388 17.7447 25.0985 17.8408 25.4662 17.8595C25.834 17.8783 26.2016 17.8193 26.545 17.6865C26.7843 17.5817 26.9945 17.4204 27.1576 17.2164C27.3206 17.0123 27.4316 16.7717 27.481 16.5153C27.5297 16.3188 27.5388 16.1147 27.5077 15.9147C27.4767 15.7147 27.4062 15.5229 27.3002 15.3505C26.9816 14.8879 26.4987 14.5641 25.9498 14.4449L26.1258 13.6641C26.8836 13.831 27.5478 14.2838 27.9802 14.9281C28.1407 15.1884 28.2482 15.478 28.2965 15.78C28.3449 16.082 28.3331 16.3906 28.2618 16.6881C28.1869 17.0676 28.0213 17.4233 27.7792 17.725C27.5371 18.0267 27.2257 18.2655 26.8714 18.4209C26.4768 18.5877 26.0519 18.671 25.6234 18.6657Z" fill="#031A6B"/>
<path d="M14.7539 20.0029C14.7891 20.0047 14.8241 20.0106 14.8579 20.0205L15.1491 20.0877L16.2147 20.3533L19.7219 21.2605L23.2243 22.1901L24.2835 22.4813L24.5699 22.5645C24.6041 22.5721 24.6374 22.5833 24.6691 22.5981C24.6339 22.5964 24.599 22.5905 24.5651 22.5805L24.2755 22.5117L23.2099 22.2461L19.7011 21.3405L16.1987 20.4109L15.1395 20.1197L14.8531 20.0365C14.8192 20.0281 14.786 20.0168 14.7539 20.0029Z" fill="#CC9933"/>
<path d="M19.8345 21.2572C19.8121 21.2572 20.4953 18.4092 21.3609 14.9068C22.2265 11.4044 22.9465 8.57076 22.9609 8.57716C22.9753 8.58356 22.3001 11.4252 21.4345 14.9276C20.5689 18.43 19.8569 21.2636 19.8345 21.2572Z" fill="#CC9933"/>
<path d="M21.8244 13.9298C21.793 13.8379 21.7268 13.7621 21.6399 13.7187C21.5531 13.6753 21.4527 13.6678 21.3604 13.6978C21.2655 13.7336 21.1876 13.8039 21.1422 13.8947C21.0968 13.9854 21.0873 14.09 21.1156 14.1874C21.151 14.2802 21.2201 14.3562 21.309 14.4004C21.3979 14.4446 21.5003 14.4536 21.5956 14.4258C21.6892 14.3877 21.7641 14.3144 21.8042 14.2216C21.8443 14.1289 21.8464 14.0241 21.81 13.9298" fill="#CC9933"/>
<path d="M14.3496 21.6388C14.5049 21.5722 14.6654 21.5187 14.8296 21.4788C15.1304 21.3892 15.5464 21.2708 16.0088 21.1444L15.9912 21.2148L15.1192 20.3492L14.8536 20.09C14.7912 20.0292 14.7544 19.9972 14.7544 20.0036C14.788 19.9508 15.3704 20.4836 16.0504 21.1524L16.1016 21.202L16.0328 21.2212C15.5704 21.3476 15.1512 21.4564 14.8472 21.5316C14.6845 21.5808 14.5181 21.6167 14.3496 21.6388Z" fill="#CC9933"/>
<path d="M24.4764 23.2964C24.4764 23.3188 22.5804 22.8596 20.254 22.2708C17.9276 21.682 16.046 21.1892 16.0508 21.1668C16.0556 21.1444 17.9468 21.602 20.2748 22.1908C22.6028 22.7796 24.4828 23.2804 24.4764 23.2964Z" fill="#CC9933"/>
<path d="M19.9442 76.6451C19.9442 76.6451 19.1234 75.4403 19.0434 75.1507C18.9634 74.8611 19.0434 73.8979 19.0434 73.8979L19.6386 73.2579C19.6386 73.2579 19.6866 72.4947 19.5746 72.2051H20.3138C20.3138 72.2051 20.1362 72.8979 20.2162 73.2579L21.149 74.6003C21.149 74.6003 22.2098 76.3507 22.4994 76.5283C22.789 76.7059 24.4754 77.3635 24.4754 77.3635C24.4754 77.3635 26.197 77.8307 26.613 78.3443C26.613 78.3443 26.773 78.7059 26.4434 78.7187C26.1138 78.7315 23.6002 78.4291 23.6002 78.4291L20.9634 77.2563L19.8706 76.1155L19.9442 76.6451Z" fill="#031A6B"/>
<path d="M19.8683 76.5328C19.8523 76.5104 16.8075 76.5056 16.3595 76.5328C15.9115 76.56 15.4651 76.744 15.4475 76.9088C15.4299 77.0736 16.4267 77.424 17.0475 77.5568C17.6683 77.6896 18.9675 77.6224 19.4475 77.5568C19.9275 77.4912 20.6667 76.952 20.6667 76.952L19.8667 76.1152L19.8683 76.5328Z" fill="#031A6B"/>
<path d="M19.5913 72.2674L19.3945 71.9138L19.9529 71.6338L20.5001 71.9506L20.2841 72.333L19.5913 72.2674Z" fill="#031A6B"/>
<path d="M20.7188 73.9902C20.7891 73.9902 22.7363 75.8398 23.3411 75.9726C23.9459 76.1054 26.6483 76.1998 26.6483 76.1998L27.9187 76.4638C27.9187 76.4638 23.0612 76.6958 22.7268 76.5678C22.3924 76.4398 21.9268 75.827 21.9268 75.827L20.7188 73.9902Z" fill="#031A6B"/>
<g opacity="0.5">
<path d="M15.4944 76.8228C15.4944 76.8228 16.144 77.1668 17.3488 77.2516C18.2077 77.2863 19.0676 77.2143 19.9088 77.0372C19.9862 76.9618 20.0358 76.8625 20.0498 76.7553C20.0637 76.6482 20.0411 76.5395 19.9856 76.4468L19.28 75.25L19.9552 76.2196L20.6336 76.9812C20.3194 77.2471 19.9482 77.437 19.5488 77.5364C18.7692 77.6611 17.9763 77.6789 17.192 77.5892C16.968 77.5508 15.544 77.2436 15.4512 76.9092L15.4944 76.8228Z" fill="#FEFEFE"/>
</g>
<path d="M19.1992 75.1279C19.2887 75.2257 19.367 75.333 19.4328 75.4479C19.5672 75.6463 19.7528 75.9279 19.9864 76.2015C20.4664 76.7519 20.8968 77.1615 20.876 77.1871C20.767 77.1145 20.6666 77.0297 20.5768 76.9343C20.3466 76.7196 20.1281 76.4926 19.9224 76.2543C19.7234 76.0092 19.5427 75.7499 19.3816 75.4783C19.308 75.3686 19.2468 75.2511 19.1992 75.1279Z" fill="#031A6B"/>
<g opacity="0.5">
<path d="M21.291 74.8564C21.8549 75.559 22.6478 76.041 23.531 76.218C24.971 76.4868 27.1998 76.498 27.1998 76.498C27.1998 76.498 24.5566 76.5972 23.3598 76.6068C23.1647 76.6126 22.9694 76.6029 22.7758 76.578C22.5646 76.522 22.1966 76.1588 22.0686 75.994C21.9406 75.8292 21.291 74.8564 21.291 74.8564Z" fill="#FEFEFE"/>
</g>
<path d="M20.9668 74.4365C21.2479 74.745 21.4972 75.0811 21.7108 75.4397L22.1908 76.1741C22.265 76.2709 22.3293 76.3749 22.3828 76.4845C22.1021 76.1774 21.8529 75.8429 21.6388 75.4861L21.1588 74.7517C21.0841 74.6535 21.0198 74.5479 20.9668 74.4365Z" fill="#031A6B"/>
<path d="M25.6992 78.4805C25.6086 78.4608 25.5197 78.4335 25.4336 78.3989L24.72 78.1381L23.6656 77.7525C23.272 77.6021 22.8304 77.4565 22.3856 77.2501C21.9634 77.0577 21.5792 76.7911 21.2512 76.4629C20.9855 76.1961 20.745 75.9052 20.5328 75.5941C20.3488 75.3317 20.2128 75.1141 20.12 74.9541C20.0689 74.8762 20.0229 74.7949 19.9824 74.7109C20.0415 74.7819 20.095 74.8573 20.1424 74.9365C20.2432 75.0837 20.3872 75.2981 20.576 75.5557C20.7928 75.8582 21.0347 76.1419 21.2992 76.4037C21.6251 76.7224 22.0041 76.9818 22.4192 77.1701C22.8592 77.3717 23.3008 77.5221 23.6992 77.6757L24.7472 78.0789L25.4512 78.3573C25.5368 78.3922 25.6197 78.4334 25.6992 78.4805Z" fill="#031A6B"/>
<path d="M19.4949 76.7599C19.3298 76.7917 19.1622 76.8083 18.9941 76.8095C18.6837 76.8287 18.2533 76.8431 17.7797 76.8399C17.3061 76.8367 16.8757 76.8223 16.5653 76.8015C16.397 76.7985 16.2294 76.7803 16.0645 76.7471C16.2322 76.734 16.4007 76.734 16.5685 76.7471C16.8773 76.7471 17.3061 76.7599 17.7797 76.7615C18.2533 76.7631 18.6821 76.7615 18.9909 76.7615C19.1586 76.7487 19.327 76.7482 19.4949 76.7599Z" fill="#031A6B"/>
<path d="M19.2429 74.7492C19.2317 74.7492 19.2093 74.6868 19.1869 74.5812C19.156 74.4405 19.1484 74.2956 19.1645 74.1524C19.1801 74.0048 19.241 73.8657 19.3389 73.754C19.4157 73.6692 19.4845 73.6468 19.4893 73.6548C19.4941 73.6628 19.4429 73.706 19.3837 73.7908C19.3092 73.9026 19.2621 74.0303 19.2461 74.1636C19.2332 74.2999 19.2332 74.437 19.2461 74.5732C19.2525 74.6804 19.2541 74.7476 19.2429 74.7492Z" fill="#FEFEFE"/>
<path d="M19.7592 73.186C19.7396 73.06 19.7369 72.932 19.7512 72.8052C19.7392 72.6776 19.7451 72.5489 19.7688 72.4229C19.826 72.5417 19.8487 72.6742 19.8344 72.8052C19.847 72.9368 19.8209 73.0692 19.7592 73.186Z" fill="#FEFEFE"/>
<path d="M16.7404 76.6279C16.7404 76.6519 16.5052 76.6375 16.2252 76.6759C15.9452 76.7143 15.7244 76.7895 15.7148 76.7671C15.8618 76.6639 16.0348 76.6041 16.214 76.5943C16.3892 76.5561 16.5716 76.5677 16.7404 76.6279Z" fill="#FEFEFE"/>
<path d="M17.6066 76.6208C17.6066 76.6432 17.4962 76.664 17.3586 76.6672C17.221 76.6704 17.1074 76.6528 17.1074 76.6288C17.1074 76.6048 17.2194 76.5856 17.357 76.5824C17.4946 76.5792 17.6066 76.5968 17.6066 76.6208Z" fill="#FEFEFE"/>
<path d="M21.1833 77.0559C20.9702 76.934 20.7766 76.7808 20.6089 76.6015C20.4235 76.4424 20.2619 76.2576 20.1289 76.0527C20.322 76.2006 20.5024 76.3643 20.6681 76.5423C20.8538 76.6989 21.0262 76.8707 21.1833 77.0559Z" fill="#FEFEFE"/>
<path d="M38.2482 77.1104C38.2125 77.1277 38.1749 77.1411 38.1362 77.1504C38.0626 77.1728 37.9522 77.2048 37.8162 77.2368C37.4113 77.3303 36.9981 77.3839 36.5826 77.3968C36.0546 77.4224 35.4322 77.3312 34.7442 77.344C34.3854 77.3483 34.0298 77.4116 33.6914 77.5312C33.3293 77.6839 32.9545 77.8048 32.5714 77.8927C32.1634 77.9647 31.7714 77.8703 31.4002 77.7983C31.0538 77.7075 30.6917 77.6938 30.3394 77.7583C30.0254 77.842 29.7237 77.9662 29.4418 78.1279C29.1915 78.2694 28.9316 78.3934 28.6642 78.4992C28.4408 78.5856 28.203 78.629 27.9634 78.6272C27.7826 78.6242 27.6041 78.585 27.4386 78.512C27.3339 78.4659 27.2392 78.3996 27.1602 78.3168C27.132 78.2891 27.1083 78.2573 27.0898 78.2224C27.189 78.3356 27.3127 78.4248 27.4514 78.4831C27.8396 78.6244 28.2673 78.61 28.645 78.4431C28.9076 78.3351 29.1626 78.2095 29.4082 78.0672C29.6936 77.8979 30.0003 77.7677 30.3202 77.68C30.683 77.6098 31.0569 77.6213 31.4146 77.7135C31.7826 77.7839 32.1682 77.8736 32.557 77.8064C32.9334 77.7186 33.3016 77.5993 33.6578 77.4496C34.0042 77.327 34.3688 77.2637 34.7362 77.2624C35.4338 77.2544 36.053 77.3504 36.5746 77.3344C36.9874 77.3264 37.3986 77.2819 37.8034 77.2016C37.9458 77.1744 38.0562 77.1472 38.133 77.1312C38.1709 77.1216 38.2094 77.1147 38.2482 77.1104Z" fill="#031A6B"/>
<path d="M39.8865 77.1631C39.8865 77.1711 39.7633 77.1935 39.5441 77.2511C39.3249 77.3087 39.0097 77.4111 38.6257 77.5439C38.1784 77.717 37.7191 77.8571 37.2513 77.9631C36.9701 78.0094 36.6843 78.0218 36.4001 77.9999L35.4929 77.9583C34.9124 77.9167 34.3289 77.9582 33.7601 78.0815C33.2369 78.2063 32.7745 78.3599 32.3697 78.4335C32.0516 78.5026 31.7235 78.5129 31.4017 78.4639C31.315 78.4478 31.2299 78.4243 31.1473 78.3935C31.1175 78.3858 31.089 78.3739 31.0625 78.3583C31.093 78.3614 31.123 78.3678 31.1521 78.3775C31.2356 78.4011 31.3206 78.4193 31.4065 78.4319C31.7273 78.4693 32.0522 78.4504 32.3665 78.3759C32.7649 78.2959 33.2241 78.1375 33.7505 78.0063C34.3276 77.8765 34.9206 77.8323 35.5105 77.8751L36.4177 77.9183C36.6965 77.9384 36.9768 77.9266 37.2529 77.8831C37.7175 77.7811 38.1746 77.6475 38.6209 77.4831C38.9254 77.3762 39.2358 77.287 39.5505 77.2159C39.6625 77.1903 39.7505 77.1759 39.8097 77.1679C39.8352 77.1647 39.8608 77.1631 39.8865 77.1631Z" fill="#031A6B"/>
<path d="M41.7154 77.0532C41.5785 77.0996 41.4341 77.1197 41.2898 77.1124C41.146 77.1323 40.9998 77.1236 40.8594 77.0868C40.997 77.0415 41.1418 77.022 41.2866 77.0292C41.4297 77.0092 41.5754 77.0174 41.7154 77.0532Z" fill="#031A6B"/>
<path d="M69.7762 9.12174L67.5522 6.81934L67.0002 10.4609L64.021 10.3601L65.885 12.8081L64.0098 15.2689L67.1154 14.6561L67.565 17.7809L70.0754 15.8801L73.2418 17.5377L72.549 14.3377L76.141 13.7729L73.3474 12.1233L74.9762 9.31374L72.1842 10.4065L71.8434 6.94094L69.7762 9.12174Z" fill="#FEFEFE"/>
<path d="M69.7766 9.12126L69.9126 8.98206L70.319 8.55966C70.6726 8.18846 71.1942 7.64446 71.863 6.94686L71.831 6.93566C71.9222 7.87646 72.0342 9.04766 72.1638 10.4013V10.4349L72.1942 10.4237L74.9894 9.33566L74.9526 9.29246L73.3206 12.1005L73.303 12.1293L73.3318 12.1453L76.1254 13.7965L76.1382 13.7309L72.543 14.3005H72.5046V14.3389L73.1974 17.5389L73.2518 17.4957L70.5094 16.0557L70.0854 15.8333L70.0646 15.8221L70.0438 15.8365L67.5414 17.7501L67.6022 17.7757C67.4486 16.709 67.2988 15.6674 67.1526 14.6509V14.6125H67.1142L64.0086 15.2269L64.0438 15.2829L65.9174 12.8205L65.9318 12.8013L65.9174 12.7805L64.0454 10.3405L64.0214 10.3901L66.999 10.4861H67.023V10.4621C67.2374 9.02206 67.4198 7.80766 67.567 6.82046L67.5366 6.83006L69.199 8.54046L69.6262 8.97566L69.7718 9.12126L69.6278 8.96126L69.2038 8.51646L67.5654 6.79966L67.5398 6.77246V6.80926C67.3798 7.79806 67.199 9.01726 66.9798 10.4493L67.0054 10.4269L64.0278 10.3229H63.9638L64.0022 10.3741L65.863 12.8237V12.7837L63.9814 15.2461L63.9238 15.3213L64.0166 15.3037L67.119 14.6925L67.0742 14.6621C67.2204 15.6775 67.3697 16.7191 67.5222 17.7869L67.5318 17.8509L67.583 17.8109L70.095 15.9101H70.0534L70.479 16.1341L73.223 17.5741L73.295 17.6125L73.2774 17.5325L72.5846 14.3325L72.5526 14.3773L76.1462 13.8109L76.2438 13.7949L76.1574 13.7453L73.359 12.0941L73.3718 12.1405L74.9974 9.32926L75.0406 9.25566L74.9606 9.28606L72.175 10.3821L72.2086 10.4029C72.0742 9.05086 71.9558 7.87966 71.863 6.93886V6.89886L71.8358 6.92766C71.1766 7.63006 70.6646 8.17566 70.3142 8.54686L69.9174 8.97246C69.823 9.06846 69.7766 9.12126 69.7766 9.12126Z" fill="#031A6B"/>
<path d="M65.6229 17.0188C65.6232 17.1502 65.5846 17.2788 65.5118 17.3882C65.439 17.4976 65.3354 17.5829 65.2141 17.6334C65.0928 17.6839 64.9593 17.6973 64.8304 17.6719C64.7015 17.6464 64.583 17.5833 64.49 17.4905C64.3969 17.3977 64.3335 17.2794 64.3078 17.1506C64.282 17.0217 64.2951 16.8881 64.3453 16.7667C64.3955 16.6453 64.4806 16.5415 64.5899 16.4685C64.6991 16.3954 64.8275 16.3564 64.9589 16.3564C65.1347 16.3564 65.3034 16.4262 65.4279 16.5504C65.5524 16.6745 65.6225 16.843 65.6229 17.0188Z" fill="#FEFEFE"/>
<path d="M65.6223 17.0189C65.6223 17.0189 65.6223 16.9597 65.5935 16.8589C65.5559 16.7185 65.4733 16.5942 65.3583 16.5053C65.2722 16.4405 65.1713 16.3985 65.0647 16.3831C64.9582 16.3678 64.8495 16.3795 64.7487 16.4173C64.629 16.4599 64.5251 16.5381 64.4511 16.6413C64.3706 16.751 64.3272 16.8836 64.3272 17.0197C64.3272 17.1558 64.3706 17.2883 64.4511 17.3981C64.5251 17.5013 64.629 17.5795 64.7487 17.6221C64.8565 17.6619 64.973 17.6724 65.0863 17.6525C65.1847 17.6342 65.2778 17.5937 65.3583 17.5341C65.4763 17.4457 65.5617 17.3209 65.6015 17.1789C65.6271 17.0781 65.6255 17.0189 65.6303 17.0189C65.6326 17.0332 65.6326 17.0478 65.6303 17.0621C65.6298 17.103 65.6249 17.1438 65.6159 17.1837C65.5815 17.3333 65.4967 17.4666 65.3759 17.5613C65.3041 17.6159 65.2222 17.6557 65.1349 17.6785C65.0477 17.7012 64.9567 17.7064 64.8675 17.6938C64.7782 17.6811 64.6923 17.6509 64.6148 17.6048C64.5372 17.5587 64.4696 17.4977 64.4159 17.4253C64.3297 17.3076 64.2832 17.1655 64.2832 17.0197C64.2832 16.8738 64.3297 16.7318 64.4159 16.6141C64.4968 16.5049 64.6081 16.422 64.7359 16.3757C64.8512 16.3345 64.9756 16.3251 65.0959 16.3485C65.2 16.3692 65.298 16.4136 65.3823 16.4781C65.5034 16.5725 65.5882 16.7059 65.6223 16.8557C65.6314 16.8956 65.6362 16.9364 65.6367 16.9773C65.6344 16.9919 65.6295 17.006 65.6223 17.0189Z" fill="#031A6B"/>
<path d="M70.1053 10.55L69.9709 12.6732C69.9653 12.7562 69.9298 12.8343 69.8709 12.8932C69.8121 12.952 69.7339 12.9875 69.6509 12.9932C69.5628 12.9982 69.4761 12.9694 69.4086 12.9126C69.341 12.8557 69.2978 12.7752 69.2877 12.6876L69.0525 10.5532C69.0482 10.5151 69.052 10.4766 69.0638 10.4402C69.0755 10.4037 69.0949 10.3702 69.1207 10.3419C69.1464 10.3136 69.1779 10.2911 69.2131 10.2759C69.2482 10.2607 69.2862 10.2532 69.3245 10.254H69.8429C69.8799 10.2551 69.9163 10.2638 69.9499 10.2795C69.9834 10.2953 70.0134 10.3177 70.0379 10.3454C70.0625 10.3731 70.0811 10.4055 70.0927 10.4407C70.1043 10.4759 70.1086 10.5131 70.1053 10.55Z" fill="#031A6B"/>
<path d="M69.0847 14.1899C69.117 14.2871 69.1775 14.3726 69.2584 14.4355C69.3393 14.4984 69.437 14.5359 69.5392 14.5433C69.6414 14.5507 69.7435 14.5276 69.8326 14.477C69.9217 14.4264 69.9938 14.3505 70.0398 14.259C70.0858 14.1674 70.1036 14.0642 70.0911 13.9626C70.0785 13.8609 70.036 13.7652 69.9691 13.6876C69.9022 13.61 69.8137 13.554 69.715 13.5266C69.6162 13.4993 69.5116 13.5018 69.4143 13.5339C69.2837 13.5774 69.1757 13.6708 69.1139 13.7938C69.0522 13.9167 69.0416 14.0592 69.0847 14.1899Z" fill="#031A6B"/>
<path d="M47.7589 28.3634C47.5989 28.3634 43.3301 35.4722 42.4133 36.2034C41.4965 36.9346 38.2901 38.4178 37.7941 39.0658C37.5068 39.4315 37.2868 39.8454 37.1445 40.2882L41.5221 44.2882L44.9893 41.9602L53.3317 28.6946L54.5717 26.3762L53.5429 25.6802L51.5493 25.3682L47.7589 28.3634Z" fill="#CC9933"/>
<g opacity="0.3">
<path d="M37.4485 40.2558C37.4485 40.2558 37.3621 39.7118 38.9221 38.8158C40.4821 37.9198 43.2901 36.5534 44.2261 35.6158C45.1621 34.6782 47.1733 32.8174 47.1733 32.8174L42.6933 41.6782L37.4453 40.5582" fill="#0F0F0F"/>
</g>
<path d="M42.4011 14.3203C42.4011 14.3203 42.4251 12.9491 42.4011 12.4403C42.3771 11.9315 42.9579 10.6435 43.1899 10.4627C43.2547 10.4168 43.3058 10.3541 43.3377 10.2814C43.3695 10.2087 43.3809 10.1286 43.3707 10.0499C43.3707 10.0499 43.2107 8.49627 43.6619 8.31387L43.8571 8.36987C43.8571 8.36987 43.9771 10.0163 43.9899 10.0531C44.0027 10.0899 44.1499 10.1587 44.2939 9.94107C44.4379 9.72347 44.6139 8.96987 44.6139 8.96987C44.5737 8.67889 44.5856 8.38307 44.6491 8.09627C44.6831 8.03065 44.7302 7.97267 44.7874 7.9259C44.8447 7.87912 44.9108 7.84454 44.9819 7.82427L45.1051 7.79227C45.1051 7.79227 45.2507 9.07227 45.1771 9.33307C45.1035 9.59387 44.9835 10.1939 44.9835 10.1939L45.0907 10.1635L45.6219 8.89307C45.6219 8.89307 45.7819 7.69787 46.1019 7.55227C46.4219 7.40667 46.3579 7.61147 46.3579 7.61147C46.3579 7.61147 46.3131 8.88187 46.2283 9.17307C46.1947 9.29147 45.7563 10.3891 45.7563 10.3891H45.9627L46.4427 9.39227C46.4427 9.39227 46.6539 8.29307 47.0059 8.31707L47.2571 8.41147C47.2571 8.41147 46.9371 9.85147 46.9371 9.91547C46.9371 9.97947 46.1035 11.4403 46.1035 11.4403V11.6099L46.3867 11.4403C46.5554 11.2878 46.7723 11.1994 46.9995 11.1907C47.4363 11.1427 47.5339 11.3507 47.5339 11.3507L46.7579 11.9603C46.7579 11.9603 45.9675 12.7219 45.7131 12.8675C45.3475 13.0442 44.9661 13.1861 44.5739 13.2915C44.4635 13.3043 44.3931 13.7587 44.3931 13.7587L44.4155 14.1043L42.4011 14.3203Z" fill="#AE7461"/>
<path d="M45.4742 11.9557C45.4742 11.9685 45.3254 11.9061 45.0822 11.8677C44.7653 11.8169 44.4407 11.8491 44.1401 11.9613C43.8394 12.0735 43.573 12.2617 43.367 12.5077C43.207 12.6949 43.1398 12.8277 43.127 12.8277C43.1662 12.6959 43.2327 12.5738 43.3222 12.4693C43.5247 12.2032 43.7989 12.0004 44.1126 11.8845C44.4262 11.7686 44.7665 11.7444 45.0933 11.8149C45.2291 11.833 45.3592 11.8811 45.4742 11.9557Z" fill="#6F4439"/>
<path d="M46.1378 10.5214C45.7513 10.3445 45.3437 10.2177 44.925 10.1438C44.5028 10.0978 44.0763 10.1064 43.6562 10.1694C43.7715 10.1159 43.8947 10.0819 44.021 10.0686C44.6306 9.97012 45.2556 10.0577 45.8146 10.3198C45.9327 10.3689 46.0419 10.437 46.1378 10.5214Z" fill="#6F4439"/>
<path d="M41.7709 14.8002C41.7709 14.8002 41.6893 14.1154 41.6797 13.9138C41.6795 13.9108 41.6799 13.9079 41.6808 13.9051C41.6818 13.9023 41.6832 13.8997 41.6852 13.8975C41.6871 13.8952 41.6894 13.8934 41.6921 13.8921C41.6947 13.8908 41.6976 13.89 41.7005 13.8898L44.4941 13.6338L44.6253 14.4338L41.7709 14.8002Z" fill="#CFCFCF"/>
<path d="M41.0059 14.7207C41.0059 14.8455 41.6459 22.2167 42.3083 23.3511C42.9707 24.4855 47.8075 28.8183 47.8075 28.8183L51.8731 25.5447L45.7803 20.5511L44.7627 14.1895L41.0059 14.7207Z" fill="#CC9933"/>
<path d="M46.7871 33.173C46.792 33.1344 46.8005 33.0964 46.8127 33.0594C46.8335 32.9858 46.8607 32.8738 46.9071 32.7394C46.9951 32.461 47.1423 32.0642 47.3439 31.5826C47.5455 31.101 47.8031 30.5346 48.1071 29.9154C48.2591 29.6066 48.4271 29.2754 48.5967 28.9554L48.8655 28.4498C48.9119 28.3634 48.9599 28.2786 49.0079 28.1922L49.0447 28.1282C49.0579 28.1032 49.0729 28.0791 49.0895 28.0562C49.0944 28.0471 49.1015 28.0394 49.1102 28.0338C49.1188 28.0282 49.1288 28.0249 49.1391 28.0242C49.1545 28.0226 49.1701 28.0226 49.1855 28.0242L49.2623 28.0322C49.5647 28.0786 49.8511 28.1442 50.1327 28.205L50.0831 28.2514C50.0303 27.9026 49.9807 27.565 49.9327 27.2434V27.221L49.9487 27.2066C50.3432 26.8686 50.7607 26.5586 51.1983 26.2786C51.5506 26.0668 51.9331 25.9098 52.3327 25.813C52.5908 25.7433 52.8549 25.6983 53.1215 25.6786C53.1929 25.6748 53.2645 25.6748 53.3359 25.6786C53.3607 25.6779 53.3855 25.6806 53.4095 25.6866C53.4095 25.6866 53.3087 25.6866 53.1247 25.7074C52.8609 25.7384 52.6002 25.7919 52.3455 25.8674C51.9537 25.9731 51.5792 26.1348 51.2335 26.3474C50.8017 26.6301 50.3896 26.9418 49.9999 27.2802L50.0127 27.245C50.0623 27.565 50.1135 27.9026 50.1727 28.2514L50.1823 28.3106L50.1231 28.2978C49.8431 28.2386 49.5535 28.173 49.2591 28.1282H49.1887H49.1631C49.159 28.1203 49.1542 28.1128 49.1487 28.1058C49.1487 28.1058 49.1375 28.0914 49.1615 28.125V28.1362L49.0927 28.2546L48.9503 28.509L48.6815 29.013C48.5055 29.3442 48.3423 29.6674 48.1887 29.973C47.8815 30.5906 47.6191 31.1522 47.4095 31.629C47.1999 32.1058 47.0479 32.4994 46.9503 32.773C46.8991 32.9106 46.8687 33.0194 46.8415 33.093C46.8254 33.121 46.8072 33.1477 46.7871 33.173Z" fill="#031A6B"/>
<path d="M49.971 24.9824C49.94 25.0464 49.9025 25.107 49.859 25.1632L49.539 25.6432C49.2638 26.0464 48.8894 26.6032 48.483 27.232C48.0766 27.8608 47.723 28.4128 47.451 28.832L47.131 29.312C47.0958 29.3741 47.0545 29.4325 47.0078 29.4864C47.0327 29.4199 47.0643 29.3561 47.1022 29.296C47.1694 29.176 47.2622 29.0048 47.3918 28.7936C47.643 28.3744 47.9966 27.7984 48.4046 27.1744C48.8126 26.5504 49.195 25.992 49.483 25.5968C49.627 25.3984 49.7454 25.24 49.8302 25.1328C49.8723 25.0783 49.9194 25.028 49.971 24.9824Z" fill="#031A6B"/>
<g opacity="0.3">
<path d="M47.5274 28.576C47.5194 27.3232 48.2746 26.1184 49.4474 25.6816L47.5274 28.576Z" fill="#0F0F0F"/>
</g>
<path d="M27.7075 38.6465L11.6035 42.7649L12.7555 48.1313L27.5987 45.0433L38.8771 47.5393L46.0227 43.2545L43.4195 41.0465L27.7075 38.6465Z" fill="#031A6B"/>
<path d="M31.2802 69.4385L31.3778 73.9841C31.3778 73.9841 26.789 75.6113 26.7266 76.4529L35.5474 76.5793L35.685 69.4897L31.2802 69.4385Z" fill="#031A6B"/>
<path d="M34.1105 73.6415C34.1948 73.6688 34.2661 73.7261 34.3109 73.8024C34.3557 73.8788 34.371 73.969 34.3537 74.0559C34.33 74.1415 34.2742 74.2147 34.198 74.2603C34.1217 74.3059 34.0308 74.3204 33.9441 74.3007C33.855 74.2715 33.7797 74.2105 33.7328 74.1293C33.6858 74.0481 33.6705 73.9525 33.6897 73.8607C33.7238 73.7743 33.7899 73.7044 33.8743 73.6657C33.9587 73.6269 34.0548 73.6223 34.1425 73.6527" fill="#CFCFCF"/>
<path d="M35.5465 76.5795L35.5321 75.8643L27.0793 76.0099C27.0793 76.0099 26.6841 76.1699 26.7257 76.4531L35.5465 76.5795Z" fill="#CC9933"/>
<path d="M31.2346 73.9376C31.2346 73.9808 31.4506 74.0032 31.6602 74.1456C31.8698 74.288 31.9802 74.4656 32.0202 74.4528C32.0602 74.44 31.9994 74.1856 31.7418 74.0192C31.4842 73.8528 31.225 73.8976 31.2346 73.9376Z" fill="#FEFEFE"/>
<path d="M30.3031 74.3078C30.2935 74.3494 30.4791 74.4246 30.6231 74.6086C30.7671 74.7926 30.8071 74.9862 30.8503 74.9862C30.8935 74.9862 30.9239 74.7414 30.7399 74.5158C30.5559 74.2902 30.3047 74.2662 30.3031 74.3078Z" fill="#FEFEFE"/>
<path d="M29.7624 75.407C29.8008 75.4166 29.8648 75.2022 29.7624 74.9654C29.66 74.7286 29.4552 74.631 29.4424 74.6662C29.4296 74.7014 29.5464 74.8262 29.6312 75.0262C29.716 75.2262 29.7192 75.4022 29.7624 75.407Z" fill="#FEFEFE"/>
<path d="M31.3276 72.8996C31.3452 72.9396 31.5436 72.882 31.7868 72.8996C32.03 72.9172 32.2188 72.9988 32.2412 72.962C32.2636 72.9252 32.0812 72.77 31.798 72.7492C31.5148 72.7284 31.3068 72.866 31.3276 72.8996Z" fill="#FEFEFE"/>
<path d="M15.6989 42.6787L11.2797 43.7731C11.2797 43.7731 8.68446 39.6531 7.84766 39.7731L9.66366 48.4131L16.6125 46.9891L15.6989 42.6787Z" fill="#031A6B"/>
<path d="M12.2208 46.3648C12.2126 46.4531 12.1722 46.5354 12.1073 46.5958C12.0424 46.6563 11.9575 46.6908 11.8688 46.6928C11.7817 46.6863 11.7002 46.6471 11.6408 46.583C11.5815 46.5188 11.5486 46.4346 11.5488 46.3472C11.5571 46.2538 11.5995 46.1667 11.668 46.1026C11.7365 46.0385 11.8263 46.002 11.92 46C12.0119 46.0143 12.0947 46.0636 12.1511 46.1375C12.2075 46.2115 12.233 46.3044 12.2224 46.3968" fill="#CFCFCF"/>
<path d="M9.66756 48.4135L10.362 48.2407L8.36196 40.0247C8.36196 40.0247 8.11396 39.6743 7.85156 39.7751L9.66756 48.4135Z" fill="#CC9933"/>
<path d="M11.2992 43.6246C11.2576 43.6342 11.2832 43.8486 11.1904 44.0854C11.0976 44.3222 10.944 44.4694 10.9696 44.5046C10.9952 44.5398 11.224 44.4262 11.3312 44.1382C11.4384 43.8502 11.336 43.6006 11.2992 43.6246Z" fill="#FEFEFE"/>
<path d="M10.7331 42.8002C10.6899 42.8002 10.6563 42.997 10.5075 43.1778C10.3587 43.3586 10.1875 43.4386 10.1875 43.4802C10.1875 43.5218 10.4419 43.4994 10.6227 43.2706C10.8035 43.0418 10.7731 42.789 10.7331 42.8002Z" fill="#FEFEFE"/>
<path d="M9.54111 42.5103C9.54111 42.5503 9.76191 42.5647 9.96991 42.4079C10.1779 42.2511 10.2291 42.0335 10.1907 42.0239C10.1523 42.0143 10.0531 42.1615 9.88031 42.2879C9.70751 42.4143 9.53631 42.4671 9.54111 42.5103Z" fill="#FEFEFE"/>
<path d="M12.3317 43.4866C12.2965 43.5122 12.3957 43.693 12.4293 43.9346C12.4629 44.1762 12.4293 44.3778 12.4693 44.3922C12.5093 44.4066 12.6293 44.197 12.5781 43.9122C12.5269 43.6274 12.3605 43.4578 12.3317 43.4866Z" fill="#FEFEFE"/>
<path d="M41.5815 43.2021C41.5815 43.2021 32.7927 53.2005 32.0791 55.7141C31.5303 57.6805 30.2871 72.9093 30.2871 72.9093L36.3879 73.4165L38.2071 59.0005L48.4983 49.6485L48.9175 45.6117L43.5991 41.2773L41.5815 43.2021Z" fill="#031A6B"/>
<path d="M40.8082 44.0928C40.794 44.12 40.7762 44.1453 40.7554 44.168L40.5954 44.3712L39.9794 45.1088C39.4578 45.7312 38.7346 46.5888 37.9474 47.5456C37.1602 48.5024 36.4578 49.3776 35.949 50.0112L35.3474 50.76L35.1874 50.9616C35.149 51.0085 35.1282 51.0309 35.125 51.0288C35.1391 51.0017 35.1557 50.976 35.1746 50.952C35.2162 50.896 35.2658 50.8256 35.3346 50.7408C35.469 50.5584 35.6674 50.296 35.9154 49.9744C36.413 49.3344 37.1074 48.4496 37.8962 47.4928C38.685 46.536 39.4146 45.6832 39.9474 45.0704L40.5874 44.3504L40.7634 44.1568C40.7767 44.1343 40.7917 44.1129 40.8082 44.0928Z" fill="#CC9933"/>
<path d="M31.786 57.4854C31.7874 57.504 31.7874 57.5227 31.786 57.5414C31.786 57.583 31.786 57.6358 31.7748 57.7014C31.762 57.8502 31.7444 58.0597 31.722 58.3285C31.6708 58.8789 31.5988 59.6662 31.5108 60.6358C31.3252 62.5878 31.0676 65.2758 30.7844 68.2438C30.6244 69.9238 30.4644 71.5126 30.3284 72.9094L30.2932 72.8694L34.6996 73.2502L35.9476 73.3638L36.2772 73.3974L36.362 73.4086C36.3812 73.4086 36.3908 73.4086 36.3908 73.4086H36.3604H36.2756L35.9444 73.3862L34.6948 73.2934L30.2868 72.9414H30.25V72.9046C30.3844 71.5062 30.5364 69.9174 30.698 68.2374C30.9908 65.2694 31.2564 62.583 31.4484 60.6326C31.5492 59.663 31.6292 58.8726 31.6852 58.327C31.7156 58.0598 31.738 57.847 31.754 57.7014C31.762 57.6342 31.77 57.5798 31.7748 57.5414C31.7763 57.5223 31.78 57.5035 31.786 57.4854Z" fill="#CC9933"/>
<path d="M59.7344 24.8213C60.3991 24.3296 61.02 23.7814 61.5904 23.1829C62.1656 22.5806 62.5814 21.8442 62.8 21.0405C62.8288 20.9189 62.96 20.0581 62.8512 19.9989C62.7712 19.9557 62.552 20.6933 62.4704 20.7333C61.7024 21.1045 61.1088 21.7749 60.6896 22.5205C60.2889 23.2481 59.9706 24.0182 59.7408 24.8165" fill="#031A6B"/>
<path d="M53.3333 26.0292C53.6533 25.5412 53.9061 25.1556 53.9029 25.1524C53.8997 25.1492 52.3557 23.8724 53.3557 22.1476C53.8357 21.3188 54.9717 19.69 56.0149 18.2292C56.5553 17.4709 57.3615 16.9439 58.273 16.7533C59.1844 16.5626 60.1342 16.7223 60.9333 17.2004L61.0933 17.2996C62.8069 18.4644 62.7733 20.57 61.5605 22.25L57.5045 28.2612L55.4021 28.866C55.0337 28.9713 54.6418 28.961 54.2794 28.8365C53.917 28.712 53.6016 28.4793 53.3756 28.1698C53.1497 27.8604 53.0242 27.489 53.016 27.1059C53.0079 26.7228 53.1175 26.3464 53.3301 26.0276L53.3333 26.0292Z" fill="#AE7461"/>
<path d="M53.9011 25.1523C54.6902 25.6224 55.5975 25.8562 56.5155 25.8259C56.5155 25.8259 55.2355 26.7427 53.6211 25.5699L53.9011 25.1523Z" fill="#6F4439"/>
<path d="M55.6164 20.0596C55.5774 20.1225 55.5648 20.1983 55.5813 20.2704C55.5977 20.3426 55.642 20.4054 55.7044 20.4452C55.7338 20.4663 55.7672 20.4814 55.8025 20.4894C55.8379 20.4974 55.8745 20.4982 55.9101 20.4918C55.9458 20.4854 55.9798 20.4718 56.0102 20.452C56.0405 20.4322 56.0666 20.4065 56.0868 20.3764C56.1254 20.3131 56.1378 20.2372 56.1214 20.1649C56.1049 20.0926 56.061 20.0296 55.9988 19.9892C55.9692 19.9683 55.9357 19.9535 55.9003 19.9458C55.865 19.938 55.8284 19.9374 55.7928 19.9439C55.7571 19.9505 55.7232 19.9641 55.6929 19.984C55.6626 20.0038 55.6366 20.0295 55.6164 20.0596Z" fill="#031A6B"/>
<path d="M55.9555 19.1537C55.9667 19.2033 56.2339 19.1777 56.4947 19.3345C56.7555 19.4913 56.8707 19.7393 56.9187 19.7233C56.9411 19.7233 56.9443 19.6417 56.8963 19.5313C56.8299 19.3832 56.7177 19.2604 56.5763 19.1809C56.4406 19.098 56.2819 19.061 56.1235 19.0753C56.0115 19.0897 55.9491 19.1297 55.9555 19.1537Z" fill="#031A6B"/>
<path d="M57.7838 21.4883C57.7452 21.5513 57.7328 21.6269 57.7493 21.699C57.7657 21.771 57.8097 21.8338 57.8718 21.8739C57.9012 21.895 57.9346 21.9101 57.9699 21.9181C58.0053 21.9261 58.0419 21.9269 58.0775 21.9205C58.1132 21.9141 58.1472 21.9006 58.1776 21.8807C58.2079 21.8609 58.2339 21.8352 58.2542 21.8051C58.2928 21.7418 58.3052 21.6659 58.2888 21.5936C58.2723 21.5213 58.2283 21.4583 58.1662 21.4179C58.1366 21.397 58.1031 21.3823 58.0677 21.3745C58.0323 21.3667 57.9958 21.3661 57.9601 21.3727C57.9245 21.3792 57.8906 21.3928 57.8603 21.4127C57.83 21.4325 57.804 21.4582 57.7838 21.4883Z" fill="#031A6B"/>
<path d="M58.3403 20.7073C58.3515 20.7569 58.6171 20.7313 58.8795 20.8881C59.1419 21.0449 59.2555 21.2913 59.3019 21.2769C59.3483 21.2625 59.3291 21.1953 59.2811 21.0833C59.2123 20.9368 59.1007 20.8147 58.9611 20.7329C58.8249 20.6513 58.6664 20.6149 58.5083 20.6289C58.3963 20.6433 58.3339 20.6833 58.3403 20.7073Z" fill="#031A6B"/>
<path d="M56.3135 22.2482C56.2011 22.1227 56.0738 22.0115 55.9343 21.917C55.8719 21.869 55.8159 21.8178 55.8319 21.757C55.8479 21.6962 55.9167 21.645 55.9919 21.5858L56.4943 21.1954C57.2047 20.6338 57.7599 20.1554 57.7375 20.1282C57.7151 20.101 57.1215 20.5314 56.4127 21.0882L55.9199 21.4994C55.8301 21.5555 55.7624 21.6408 55.7279 21.741C55.7245 21.7699 55.7275 21.7992 55.7366 21.8268C55.7458 21.8544 55.7608 21.8798 55.7807 21.901C55.8112 21.9336 55.8462 21.9616 55.8847 21.9842C56.016 22.0898 56.1601 22.1785 56.3135 22.2482Z" fill="#031A6B"/>
<path d="M58.9707 19.7137C58.9707 19.8033 59.2667 19.8737 59.5867 20.0465C59.9067 20.2193 60.1387 20.4129 60.2107 20.3665C60.2427 20.3409 60.2251 20.2497 60.1451 20.1329C60.0353 19.9847 59.8933 19.8633 59.7298 19.778C59.5662 19.6926 59.3855 19.6455 59.2011 19.6401C59.0587 19.6353 58.9723 19.6721 58.9707 19.7137Z" fill="#031A6B"/>
<path d="M56.5821 18.179C56.5917 18.267 56.8093 18.3134 57.0285 18.4398C57.2477 18.5662 57.4061 18.7198 57.4861 18.683C57.5229 18.6638 57.5293 18.587 57.4861 18.483C57.4186 18.3509 57.3134 18.2417 57.1838 18.1694C57.0542 18.0971 56.9061 18.0648 56.7581 18.0766C56.6413 18.0926 56.5789 18.1374 56.5821 18.179Z" fill="#031A6B"/>
<path d="M60.6676 23.4404C60.7044 23.4404 62.0484 23.794 61.3076 24.938C60.5668 26.082 59.5764 25.1076 59.594 25.074C59.6116 25.0404 60.6676 23.4404 60.6676 23.4404Z" fill="#AE7461"/>
<path d="M60.2259 24.8582C60.2339 24.8582 60.2371 24.8838 60.2611 24.9222C60.2955 24.9728 60.3484 25.0078 60.4083 25.0198C60.5571 25.0534 60.7827 24.927 60.9203 24.7254C60.9857 24.6293 61.0294 24.5201 61.0483 24.4054C61.0603 24.3626 61.0618 24.3176 61.0526 24.2741C61.0434 24.2307 61.0238 24.1901 60.9955 24.1558C60.9764 24.1328 60.9493 24.1178 60.9196 24.1139C60.8899 24.1101 60.8599 24.1176 60.8355 24.135C60.7987 24.1574 60.7923 24.1846 60.7843 24.183C60.7763 24.1814 60.7731 24.1478 60.8115 24.1062C60.8365 24.0824 60.8685 24.0672 60.9027 24.063C60.9497 24.0595 60.9962 24.0744 61.0323 24.1046C61.0748 24.1449 61.1059 24.1957 61.1225 24.2519C61.1391 24.3081 61.1405 24.3677 61.1267 24.4246C61.1119 24.555 61.0652 24.6797 60.9907 24.7878C60.8307 25.0134 60.5779 25.1526 60.3827 25.095C60.3469 25.0837 60.314 25.0647 60.2863 25.0392C60.2587 25.0138 60.237 24.9826 60.2227 24.9478C60.2099 24.8806 60.2211 24.8566 60.2259 24.8582Z" fill="#6F4439"/>
<path d="M57.9848 16.8255C57.8664 16.6031 58.8104 16.3695 59.3976 16.4607C60.284 16.5983 61.4536 17.0911 61.9656 17.6831C62.5848 18.3951 62.9672 19.1855 62.8952 20.1263C62.8018 21.07 62.4589 21.9718 61.9016 22.7391C61.7529 22.9876 61.5401 23.1915 61.2856 23.3295C60.9656 23.4767 60.5528 23.4351 60.3384 23.7919C60.3018 23.8576 60.2523 23.9153 60.1929 23.9615C60.1335 24.0076 60.0655 24.0414 59.9928 24.0607C59.6408 24.1455 59.5224 23.7711 59.5416 23.4863C59.5832 22.8767 59.9048 22.3263 60.2168 21.8015C60.4187 21.4165 60.6825 21.0674 60.9976 20.7679C61.1768 20.6079 61.3848 20.4943 61.556 20.3311C61.6464 20.2547 61.7192 20.1597 61.7695 20.0526C61.8198 19.9454 61.8463 19.8286 61.8472 19.7103C61.8415 19.6561 61.8308 19.6025 61.8152 19.5503C61.7477 19.3079 61.6168 19.0879 61.436 18.9129C61.2551 18.738 61.0309 18.6145 60.7864 18.5551C59.996 18.3615 58.6808 17.9839 58.5384 17.5791C58.332 16.9967 58.3672 16.7279 58.3672 16.7279L57.9848 16.8255Z" fill="#0F0F0F"/>
<path d="M55.9977 22.7823C55.9257 22.6223 55.5641 22.5679 55.4345 22.6847L55.4089 22.7279C55.3507 22.8178 55.3064 22.916 55.2777 23.0191C55.2639 23.0706 55.2619 23.1246 55.2719 23.1769C55.2818 23.2293 55.3035 23.2787 55.3353 23.3215C55.4713 23.4815 55.7497 23.4191 55.8921 23.2639C55.9535 23.2019 55.996 23.1237 56.0147 23.0384C56.0334 22.9532 56.0275 22.8644 55.9977 22.7823Z" fill="#6F4439"/>
<path d="M55.2956 22.96C55.2924 22.989 55.2876 23.0179 55.2812 23.0464C55.2735 23.1237 55.2868 23.2016 55.3196 23.272C55.3426 23.3203 55.3823 23.3586 55.4315 23.3798C55.4806 23.401 55.5358 23.4036 55.5868 23.3872C55.7219 23.356 55.8402 23.2748 55.918 23.16C55.9526 23.1029 55.9719 23.0378 55.9739 22.9711C55.9758 22.9043 55.9604 22.8382 55.9292 22.7792C55.8981 22.7342 55.8557 22.6982 55.8062 22.6749C55.7568 22.6516 55.702 22.6418 55.6476 22.6464C55.57 22.6539 55.4962 22.6833 55.4348 22.7312C55.3916 22.7648 55.3692 22.7888 55.3644 22.7856C55.3596 22.7824 55.3724 22.7504 55.414 22.7056C55.4748 22.6433 55.5538 22.6019 55.6396 22.5872C55.7063 22.577 55.7745 22.5855 55.8366 22.6118C55.8987 22.6381 55.9524 22.6811 55.9916 22.736C56.0344 22.8064 56.057 22.8872 56.057 22.9696C56.057 23.052 56.0344 23.1328 55.9916 23.2032C55.9018 23.3373 55.7626 23.4305 55.6044 23.4624C55.5325 23.4768 55.4579 23.4679 55.3916 23.4368C55.3337 23.4073 55.2891 23.357 55.2668 23.296C55.2354 23.2149 55.2298 23.126 55.2508 23.0416C55.2668 22.984 55.2908 22.96 55.2956 22.96Z" fill="#031A6B"/>
<path d="M41.9876 41.04C41.9876 41.0048 41.8708 39.9328 42.3364 39.2256C43.9236 36.8256 48.1684 31.1216 51.0292 27.7328C51.6265 27.0007 52.3726 26.4041 53.218 25.9824L53.3172 26.056L53.114 27.552L54.858 27.0016L58.4228 27.472L58.2244 28.6592C58.2244 28.6592 50.6484 39.8272 50.7652 39.8928C50.882 39.9584 47.6212 46.0864 47.6212 46.0864L41.9876 41.04Z" fill="#FEFEFE"/>
<path d="M52.5135 28.2082C52.5135 28.2082 52.5135 28.221 52.4895 28.245L52.4159 28.3458C52.3439 28.437 52.2463 28.565 52.1231 28.7266L51.0415 30.1314C50.1311 31.3186 48.8895 32.9714 47.5631 34.8274C46.2367 36.6834 45.0735 38.3938 44.2399 39.6402L43.2623 41.117L42.9999 41.5202L42.9295 41.6226C42.9135 41.6466 42.9039 41.6578 42.9023 41.6562C42.9079 41.6429 42.9143 41.6301 42.9215 41.6178L42.9871 41.5106L43.2399 41.101C43.4607 40.7458 43.7871 40.2354 44.1999 39.6082C45.0175 38.3538 46.1727 36.6386 47.4991 34.781C48.8255 32.9234 50.0767 31.2754 50.9999 30.0962C51.4607 29.5074 51.8367 29.0338 52.1023 28.709C52.2319 28.549 52.3327 28.4258 52.4079 28.3362L52.4879 28.2402C52.5023 28.2178 52.5119 28.2066 52.5135 28.2082Z" fill="#031A6B"/>
<path d="M55.9531 28.7205C55.9049 28.7362 55.8549 28.7459 55.8044 28.7493L55.3883 28.8005C55.0347 28.8421 54.5404 28.8949 53.9756 28.9493H53.9148L53.9323 28.8901L54.0668 28.4501C54.1948 28.0373 54.3164 27.6501 54.4204 27.3125L54.462 27.3589C54.0924 27.4277 53.782 27.4821 53.5644 27.5189C53.4505 27.5434 53.335 27.5589 53.2188 27.5653C53.3284 27.526 53.4414 27.4965 53.5564 27.4773C53.7708 27.4293 54.0796 27.3653 54.4492 27.2901L54.5083 27.2773L54.4908 27.3365C54.3884 27.6741 54.2716 28.0629 54.1468 28.4773C54.1004 28.6277 54.0556 28.7749 54.0108 28.9157L53.9675 28.8629C54.5323 28.8117 55.0283 28.7701 55.3835 28.7429L55.8012 28.7157C55.8518 28.71 55.903 28.7116 55.9531 28.7205Z" fill="#031A6B"/>
<path d="M51.8108 27.3089C51.798 27.2865 52.2652 27.0257 52.7484 26.5873L52.9004 26.4449L52.9708 26.3809V26.4801C52.9859 26.8073 52.9757 27.1352 52.9404 27.4609C52.8988 27.1362 52.8817 26.8089 52.8892 26.4817L52.958 26.5105C52.91 26.5585 52.8588 26.6065 52.798 26.6561C52.5881 26.8449 52.361 27.0137 52.1196 27.1601C52.0243 27.2242 51.9203 27.2743 51.8108 27.3089Z" fill="#031A6B"/>
<g opacity="0.3">
<path d="M46.7057 49.9783C46.7057 49.9783 46.6689 45.7255 47.1729 43.7063C47.6769 41.6871 49.3169 38.1943 49.3169 38.1943L49.5825 38.6471L47.4881 49.5975L46.7057 49.9783Z" fill="#0F0F0F"/>
</g>
<path d="M60.5596 30.2885C61.9052 31.1493 62.0188 32.8485 62.0188 32.8485L55.7068 42.2309L55.6492 51.6709L46.918 51.6309C46.918 51.6309 47.238 46.8693 47.806 43.4101C48.374 39.9509 52.1724 33.2661 53.406 31.6117C54.6396 29.9573 57.2668 27.8981 57.2668 27.8981L58.4252 27.5781V28.6981L60.5596 30.2885Z" fill="#CC9933"/>
<path d="M57.2676 35.0385L64.6676 42.5585L68.1876 49.9457L71.778 49.3809L68.2644 40.3841L61.7156 31.7217C59.9748 31.8753 58.5396 33.1505 57.2676 35.0385Z" fill="#CC9933"/>
<path d="M58.4246 28.9072C58.4246 28.9072 58.415 28.9296 58.391 28.9712L58.2822 29.1504C58.183 29.3104 58.0374 29.5344 57.8438 29.816C57.3139 30.5902 56.7412 31.3343 56.1286 32.0448L56.1126 32.064L56.087 32.056L54.895 31.6208L54.9478 31.584C54.9355 32.0309 55.0432 32.4729 55.2598 32.864L55.2758 32.8944L55.2502 32.9152L54.8966 33.2352C53.4566 34.5152 52.2182 35.7488 51.3398 36.656C50.8998 37.1088 50.5478 37.48 50.3062 37.7376L50.0262 38.032C49.9951 38.0685 49.9608 38.1022 49.9238 38.1328C49.9507 38.0932 49.9807 38.0558 50.0134 38.0208L50.2822 37.7152C50.5174 37.4512 50.8614 37.0752 51.2966 36.6144C52.167 35.6976 53.4022 34.4608 54.8406 33.1728L55.1958 32.8528L55.1878 32.904C54.9653 32.5016 54.8548 32.0469 54.8678 31.5872V31.5312L54.9206 31.5504L56.1126 31.9904L56.071 32C56.8278 31.1312 57.4102 30.352 57.807 29.7952C58.0038 29.5168 58.1558 29.2944 58.2598 29.1424L58.3798 28.9696C58.3919 28.9469 58.407 28.9259 58.4246 28.9072Z" fill="#031A6B"/>
<path d="M60.3326 30.5415C60.3326 30.5495 60.2238 30.5511 60.035 30.5863C59.7674 30.6404 59.5103 30.7371 59.2734 30.8727C58.9244 31.0728 58.6227 31.3456 58.3886 31.6727C58.1084 32.0818 57.9261 32.5499 57.8558 33.0407C57.7841 33.5307 57.7988 34.0294 57.899 34.5143C57.9813 34.9111 58.1046 35.2982 58.267 35.6695C58.4062 35.9895 58.5374 36.2359 58.6302 36.4071C58.6829 36.493 58.7299 36.5823 58.771 36.6743C58.7526 36.6555 58.7364 36.6346 58.723 36.6119C58.6942 36.5703 58.6526 36.5063 58.6014 36.4231C58.4581 36.1877 58.3288 35.9441 58.2142 35.6935C58.0412 35.3215 57.9103 34.9314 57.8238 34.5303C57.7165 34.0367 57.6997 33.5276 57.7742 33.0279C57.8462 32.5255 58.0353 32.0471 58.3262 31.6311C58.5689 31.2956 58.8824 31.0176 59.2446 30.8167C59.4885 30.6833 59.7538 30.5934 60.0286 30.5511C60.1033 30.5409 60.1787 30.5356 60.2542 30.5351C60.2805 30.5327 60.307 30.5349 60.3326 30.5415Z" fill="#031A6B"/>
<path d="M53.8543 45.927C53.8755 45.9605 53.8937 45.9959 53.9087 46.0326C53.9471 46.111 53.9967 46.215 54.0591 46.3526L54.6063 47.535L54.6255 47.5766H54.5791L50.1503 47.4886H49.9359H49.9023V47.4566C49.7791 46.8694 49.6607 46.3062 49.5503 45.783L49.5391 45.7334H49.5903L52.6671 45.8694L53.5503 45.9142L53.7823 45.9302C53.8086 45.9302 53.8349 45.9329 53.8607 45.9382C53.8324 45.9405 53.8041 45.9405 53.7759 45.9382H53.5359L52.6463 45.9158L49.5871 45.8134L49.6271 45.767C49.7391 46.2886 49.8591 46.8534 49.9839 47.439L49.9439 47.407H50.1583L54.5871 47.519L54.5599 47.5606C54.3439 47.0662 54.1695 46.6646 54.0431 46.3782L53.9055 46.0582C53.8851 46.0158 53.868 45.972 53.8543 45.927Z" fill="#031A6B"/>
<g opacity="0.3">
<path d="M49.582 45.7617L49.8028 47.8593L54.3756 47.9521V47.5361L49.9372 47.4353L49.582 45.7617Z" fill="#0F0F0F"/>
</g>
<g opacity="0.3">
<path d="M51.5215 36.4142L55.6815 33.003L55.2191 32.0014L56.1791 32.3934L57.4431 30.3486L56.1119 32.0398L54.9151 31.5822C54.8383 31.611 54.9967 32.5582 55.2351 32.8782L51.5215 36.4142Z" fill="#0F0F0F"/>
</g>
<g opacity="0.3">
<path d="M57.8102 33.0625C57.8102 33.0625 56.9782 34.4449 57.7686 36.4225C58.559 38.4001 58.423 38.1969 58.423 38.1969L59.1782 37.0769C59.1782 37.0769 57.5382 35.4161 57.8102 33.0625Z" fill="#0F0F0F"/>
</g>
<path d="M68.3965 49.9475L68.5677 50.5539L71.7741 49.9475L71.4829 49.4307L68.3965 49.9475Z" fill="#CFCFCF"/>
<path d="M71.6196 49.9473L73.8148 50.8561L74.8276 52.3921C74.8276 52.3921 74.6756 52.5153 74.2452 52.3921C74.1598 52.4476 74.0621 52.4816 73.9607 52.4911C73.8592 52.5006 73.757 52.4853 73.6628 52.4465C73.386 52.3009 72.6196 51.5217 72.6196 51.5217H72.1588L72.834 52.5009C72.834 52.5009 72.4356 52.7009 72.1284 52.5009C71.8259 52.2574 71.5482 51.9846 71.2996 51.6865L70.5092 51.5857C70.3684 51.7045 70.2053 51.7941 70.0295 51.8491C69.8536 51.904 69.6686 51.9233 69.4852 51.9057C69.4852 51.9057 69.4516 52.8145 69.034 53.0257C68.7636 53.1617 68.7828 52.8481 68.7828 52.8481L68.5684 52.0801L68.77 50.4801L71.6196 49.9473Z" fill="#AE7461"/>
<path d="M69.7931 51.4199C69.8043 51.4295 69.7211 51.5079 69.6139 51.6375C69.5584 51.7221 69.5259 51.8197 69.5195 51.9207C69.5051 52.0327 69.4987 52.1623 69.4747 52.2967C69.4494 52.5344 69.3504 52.7582 69.1915 52.9367C69.1251 53.0113 69.0344 53.06 68.9355 53.0743C68.9355 53.0599 69.0347 53.0215 69.1483 52.8967C69.283 52.7185 69.3676 52.5075 69.3931 52.2855C69.4379 52.0295 69.4267 51.7639 69.5627 51.6103C69.6267 51.5328 69.7049 51.4682 69.7931 51.4199Z" fill="#6F4439"/>
<path d="M71.075 50.8564C71.1612 50.8778 71.2452 50.9067 71.3262 50.9428L71.9982 51.2132H72.0062L72.8638 52.466L72.8894 52.5044L72.8526 52.5236C72.8094 52.546 72.7646 52.57 72.7198 52.5892C72.6701 52.6026 72.6192 52.6111 72.5678 52.6148C72.4133 52.6153 72.2616 52.5733 72.1294 52.4932C72.0048 52.4243 71.8878 52.3423 71.7806 52.2484C71.591 52.0825 71.4189 51.8975 71.2671 51.6964L71.2894 51.7092L70.443 51.5604C70.3346 51.5458 70.2276 51.5222 70.123 51.49C70.2304 51.4922 70.3374 51.5029 70.443 51.522L71.2926 51.642H71.3054L71.315 51.6532C71.4677 51.8468 71.6386 52.0252 71.8254 52.186C71.9289 52.2756 72.0415 52.3539 72.1615 52.4196C72.2814 52.4914 72.4185 52.5296 72.5582 52.53C72.6014 52.5265 72.6442 52.5195 72.6862 52.5092L72.7982 52.4532L72.7886 52.5108L71.9471 51.2468L71.9615 51.258L71.3023 50.9636C71.2237 50.9342 71.1477 50.8984 71.075 50.8564Z" fill="#6F4439"/>
<path d="M72.3907 50.5537C72.4754 50.5788 72.5578 50.6109 72.6371 50.6497L73.2931 50.9425L74.2691 52.3601L74.2931 52.3937L74.2579 52.4161C74.1829 52.4662 74.0986 52.5005 74.0099 52.5169C73.9035 52.5389 73.793 52.5323 73.6899 52.4977C73.5947 52.4594 73.5065 52.4053 73.4291 52.3377C73.2837 52.2217 73.1449 52.0978 73.0131 51.9665C72.7603 51.7201 72.5427 51.4865 72.3651 51.2881L72.3747 51.2961L71.7955 51.0305C71.7223 51.0019 71.6521 50.9659 71.5859 50.9233C71.6624 50.9423 71.7369 50.9686 71.8083 51.0017L72.3987 51.2417C72.5811 51.4353 72.8019 51.6641 73.0563 51.9057C73.1843 52.0257 73.3203 52.1505 73.4691 52.2657C73.5403 52.3259 73.6208 52.374 73.7075 52.4081C73.7963 52.4375 73.8912 52.443 73.9827 52.4241C74.0596 52.4093 74.1329 52.3799 74.1987 52.3377L74.1891 52.3953L73.2291 50.9665L73.2419 50.9761L72.6019 50.6561C72.5292 50.6271 72.4586 50.5929 72.3907 50.5537Z" fill="#6F4439"/>
<g opacity="0.3">
<path d="M52.4086 29.0161C52.343 29.1137 50.5894 32.7121 51.0726 34.7313C51.5558 36.7505 54.175 38.4465 54.175 38.4465L53.7046 41.1761C53.7046 41.1761 51.6246 41.1473 50.6646 38.8737C49.7046 36.6001 48.9382 35.5025 49.5206 33.5201C50.103 31.5377 52.0806 28.9121 52.0806 28.9121L52.4086 29.0161Z" fill="#0F0F0F"/>
</g>
<path d="M52.2641 28.1221C51.1753 28.7188 50.2552 29.5813 49.5894 30.6293C48.9236 31.6772 48.5338 32.8765 48.4561 34.1157C48.3281 36.5877 49.0241 39.3381 51.0753 40.7237L53.2449 41.3397L53.7041 38.8629C53.7041 38.8629 49.9681 36.4837 50.7409 33.0933C51.5137 29.7029 52.9281 28.3717 52.9281 28.3717L52.2641 28.1221Z" fill="#031A6B"/>
<path d="M52.5595 27.0596L52.1035 28.1796C52.1035 28.1796 52.4411 28.746 52.5835 28.7348C52.7259 28.7236 53.7035 27.97 53.7035 27.97L52.5595 27.0596Z" fill="#031A6B"/>
<path d="M52.0801 28.1953C52.2978 28.0639 52.5356 27.9693 52.7841 27.9153C53.1969 27.8033 53.5489 27.8609 53.5425 27.8849C53.2944 27.9048 53.0479 27.9417 52.8049 27.9953C52.5671 28.075 52.3251 28.1418 52.0801 28.1953Z" fill="#031A6B"/>
<path d="M52.6678 28.7203C52.5322 28.6952 52.4063 28.6326 52.3045 28.5395C52.2027 28.4465 52.129 28.3268 52.0918 28.1939C52.1142 28.1827 52.2038 28.3347 52.3622 28.4771C52.5206 28.6195 52.6758 28.6979 52.6678 28.7203Z" fill="#031A6B"/>
</g>
</g>
<defs>
<filter id="filter0_d_4695_7385" x="0" y="0" width="84" height="84" filterUnits="userSpaceOnUse" color-interpolation-filters="sRGB">
<feFlood flood-opacity="0" result="BackgroundImageFix"/>
<feColorMatrix in="SourceAlpha" type="matrix" values="0 0 0 0 0 0 0 0 0 0 0 0 0 0 0 0 0 0 127 0" result="hardAlpha"/>
<feMorphology radius="1" operator="dilate" in="SourceAlpha" result="effect1_dropShadow_4695_7385"/>
<feOffset/>
<feGaussianBlur stdDeviation="0.5"/>
<feComposite in2="hardAlpha" operator="out"/>
<feColorMatrix type="matrix" values="0 0 0 0 0 0 0 0 0 0 0 0 0 0 0 0 0 0 0.05 0"/>
<feBlend mode="normal" in2="BackgroundImageFix" result="effect1_dropShadow_4695_7385"/>
<feBlend mode="normal" in="SourceGraphic" in2="effect1_dropShadow_4695_7385" result="shape"/>
</filter>
<clipPath id="clip0_4695_7385">
<rect x="2" y="2" width="80" height="80" rx="8" fill="white"/>
</clipPath>
</defs>
</svg>
