<svg width="40" height="40" viewBox="0 0 40 40" fill="none" xmlns="http://www.w3.org/2000/svg">
<g clip-path="url(#clip0_5215_33911)">
<path fill-rule="evenodd" clip-rule="evenodd" d="M23.8672 -0.0390625C24.2578 -0.0390625 24.6484 -0.0390625 25.0391 -0.0390625C25.5239 0.11995 25.9276 0.406408 26.25 0.820312C26.9331 1.64577 27.5972 2.4791 28.2422 3.32031C28.0153 3.87844 27.833 4.45135 27.6953 5.03906C27.6471 5.04771 27.608 5.07375 27.5781 5.11719C27.2066 4.55655 26.816 4.00968 26.4062 3.47656C25.6854 3.94664 24.8911 4.18102 24.0234 4.17969C23.628 2.99862 23.2113 1.82674 22.7734 0.664062C23.0977 0.36567 23.4623 0.131295 23.8672 -0.0390625Z" fill="#17D2AA"/>
<path fill-rule="evenodd" clip-rule="evenodd" d="M37.5395 12.9295C34.2556 13.5339 31.7686 12.3881 30.0786 9.49202C28.8459 7.14169 28.7938 4.77189 29.9223 2.38265C30.2562 1.80154 30.6859 1.30675 31.2114 0.898272C33.0868 0.353711 34.8315 0.65319 36.4458 1.79671C39.0797 3.90322 40.0823 6.62457 39.4536 9.96077C39.1463 11.1769 38.5083 12.1664 37.5395 12.9295Z" fill="#F9E16A"/>
<path opacity="0.994" fill-rule="evenodd" clip-rule="evenodd" d="M31.211 0.898438C30.6856 1.30691 30.2559 1.8017 29.922 2.38281C28.7935 4.77205 28.8456 7.14185 30.0782 9.49219C31.7683 12.3883 34.2553 13.5341 37.5392 12.9297C36.4741 13.8146 35.2501 14.1792 33.8673 14.0234C33.2165 13.9649 32.5915 13.8087 31.9923 13.5547C29.4926 12.2887 28.0213 10.2575 27.5782 7.46094C27.4999 6.64463 27.539 5.83734 27.6954 5.03906C27.8332 4.45135 28.0154 3.87844 28.2423 3.32031C28.9046 2.11105 29.8942 1.30376 31.211 0.898438Z" fill="#ECD15A"/>
<path fill-rule="evenodd" clip-rule="evenodd" d="M33.477 2.46095C34.5347 2.39958 35.4722 2.69906 36.2895 3.35939C38.0739 4.93636 38.79 6.90251 38.438 9.25783C37.9294 10.9768 36.7966 11.6669 35.0395 11.3281C33.433 10.6852 32.3262 9.55236 31.7192 7.9297C31.2607 6.78131 31.1826 5.60943 31.4848 4.41408C31.8347 3.42609 32.4987 2.77505 33.477 2.46095Z" fill="#EDD15A"/>
<path opacity="0.987" fill-rule="evenodd" clip-rule="evenodd" d="M18.2422 4.33691C17.9605 4.74894 17.622 5.11352 17.2266 5.43066C16.7407 5.12273 16.2198 4.87533 15.6641 4.68847C15.0466 4.49087 14.4607 4.55597 13.9062 4.88378C13.9582 5.51345 13.815 6.08637 13.4766 6.60253C13.4505 6.60253 13.4245 6.60253 13.3984 6.60253C12.9098 5.7033 12.441 4.79185 11.9922 3.86815C12.7487 3.57683 13.5038 3.27736 14.2578 2.96972C15.0391 2.77746 15.7943 2.85558 16.5234 3.20409C17.1388 3.52426 17.7116 3.90187 18.2422 4.33691Z" fill="#031A6B"/>
<path fill-rule="evenodd" clip-rule="evenodd" d="M22.7717 0.664062C23.2095 1.82674 23.6262 2.99862 24.0217 4.17969C24.8893 4.18102 25.6836 3.94664 26.4045 3.47656C26.8142 4.00968 27.2049 4.55655 27.5763 5.11719C27.6063 5.07375 27.6453 5.04771 27.6935 5.03906C27.5371 5.83734 27.4981 6.64463 27.5763 7.46094C28.0194 10.2575 29.4907 12.2887 31.9904 13.5547C32.6856 15.445 33.3106 17.3591 33.8654 19.2969C32.9481 20.2786 32.5965 21.4374 32.8107 22.7734C32.9279 23.2145 33.006 23.6573 33.0451 24.1016C31.9919 25.6111 30.781 26.9913 29.4123 28.2422C28.8612 27.2891 28.0278 26.8204 26.9123 26.8359C26.7372 28.7532 26.4507 30.6542 26.0529 32.5391C25.8042 32.2795 25.6349 31.967 25.5451 31.6016C24.4228 25.5555 21.8447 20.243 17.8107 15.6641C16.7145 14.4888 15.5035 13.4602 14.1779 12.5781C13.1838 11.7581 12.9885 10.7816 13.592 9.64844C13.8921 9.25547 14.1916 8.86484 14.4904 8.47656C15.3707 7.43965 16.2821 6.42402 17.2248 5.42969C17.6202 5.11255 17.9588 4.74797 18.2404 4.33594C19.6935 3.03709 21.204 1.81313 22.7717 0.664062Z" fill="#79E9B3"/>
<path fill-rule="evenodd" clip-rule="evenodd" d="M24.0234 4.17969C26.5413 11.5004 27.5308 19.0264 26.9922 26.7578C26.7838 26.7578 26.5755 26.7578 26.3672 26.7578C25.2162 22.7366 23.3282 19.1168 20.7031 15.8984C19.7051 14.6919 18.6504 13.533 17.5391 12.4219C18.428 10.9588 18.3499 9.53953 17.3047 8.16406C18.7124 6.37875 20.314 4.7902 22.1094 3.39844C22.6818 3.82141 23.3198 4.08183 24.0234 4.17969Z" fill="#B3FEC5"/>
<path fill-rule="evenodd" clip-rule="evenodd" d="M11.9916 3.86719C12.4404 4.79088 12.9092 5.70234 13.3979 6.60156C13.2838 6.75491 13.1536 6.89814 13.0072 7.03125C11.7927 7.62552 10.5687 8.19844 9.33536 8.75C8.8038 8.92531 8.28294 8.89922 7.77286 8.67188C7.36838 8.37125 6.96473 8.0718 6.56193 7.77344C5.95866 7.97422 5.38575 8.23461 4.84318 8.55469C4.37732 9.10125 4.2992 9.70023 4.6088 10.3516C12.7598 19.2838 20.9109 28.2162 29.0619 37.1484C29.742 37.6532 30.4321 37.6662 31.1322 37.1875C32.7118 34.9964 34.2743 32.7959 35.8197 30.5859C36.3001 30.8652 36.7949 31.1257 37.3041 31.3672C37.3665 31.4029 37.3925 31.455 37.3822 31.5234C35.7815 33.7868 34.1799 36.0524 32.5776 38.3203C31.9274 39.1427 31.1071 39.6896 30.1166 39.9609C29.6479 39.9609 29.1791 39.9609 28.7104 39.9609C27.7602 39.6875 26.9139 39.2188 26.1713 38.5547C17.8926 29.781 9.58528 21.031 1.24943 12.3047C0.720289 11.1667 0.694248 10.0209 1.1713 8.86719C1.42676 8.49813 1.72624 8.17258 2.06974 7.89062C5.36099 6.51138 8.66825 5.17024 11.9916 3.86719Z" fill="#031A6B"/>
<path fill-rule="evenodd" clip-rule="evenodd" d="M17.2266 5.42983C16.2839 6.42417 15.3725 7.43979 14.4922 8.47671C14.113 7.87452 13.7744 7.24954 13.4766 6.60171C13.815 6.08555 13.9582 5.51263 13.9062 4.88296C14.4607 4.55515 15.0466 4.49004 15.6641 4.68765C16.2198 4.87451 16.7407 5.12191 17.2266 5.42983Z" fill="#B8EBFC"/>
<path fill-rule="evenodd" clip-rule="evenodd" d="M13.4003 6.60156C13.4263 6.60156 13.4524 6.60156 13.4784 6.60156C13.7762 7.2494 14.1148 7.87437 14.494 8.47656C14.1952 8.86484 13.8957 9.25547 13.5956 9.64844C12.9921 10.7816 13.1874 11.7581 14.1815 12.5781C15.5071 13.4602 16.7181 14.4888 17.8143 15.6641C21.8483 20.243 24.4264 25.5555 25.5487 31.6016C25.6385 31.967 25.8078 32.2795 26.0565 32.5391C26.7851 33.3395 27.6445 33.5087 28.6346 33.0469C30.1865 31.7945 31.5928 30.4013 32.8534 28.8672C33.8214 29.4691 34.811 30.042 35.8221 30.5859C34.2767 32.7959 32.7142 34.9964 31.1346 37.1875C30.4345 37.6663 29.7444 37.6532 29.0643 37.1484C20.9133 28.2162 12.7622 19.2838 4.6112 10.3516C4.30159 9.70023 4.37972 9.10125 4.84557 8.55469C5.38814 8.23461 5.96105 7.97422 6.56432 7.77344C6.96712 8.0718 7.37077 8.37125 7.77526 8.67188C8.28534 8.89922 8.8062 8.92531 9.33776 8.75C10.5711 8.19844 11.7951 7.62552 13.0096 7.03125C13.156 6.89814 13.2862 6.75491 13.4003 6.60156Z" fill="#99E0FE"/>
<path fill-rule="evenodd" clip-rule="evenodd" d="M31.9922 13.5547C32.5914 13.8087 33.2164 13.9649 33.8672 14.0234C34.9837 17.2101 35.6087 20.4913 35.7422 23.8672C35.6512 24.3631 35.469 24.8319 35.1953 25.2734C34.5063 26.5346 33.725 27.7325 32.8516 28.8672C31.5909 30.4013 30.1847 31.7945 28.6328 33.0469C27.6427 33.5087 26.7833 33.3395 26.0547 32.5391C26.4525 30.6542 26.739 28.7532 26.9141 26.8359C28.0296 26.8204 28.863 27.2891 29.4141 28.2422C30.7827 26.9913 31.9937 25.6111 33.0469 24.1016C33.0078 23.6573 32.9297 23.2145 32.8125 22.7734C32.5983 21.4374 32.9498 20.2786 33.8672 19.2969C33.3124 17.3591 32.6874 15.445 31.9922 13.5547Z" fill="#16D2AA"/>
<path opacity="0.981" fill-rule="evenodd" clip-rule="evenodd" d="M35.7422 23.8672C36.7054 24.8955 37.6559 25.9373 38.5938 26.9922C39.0995 27.6502 39.2297 28.3794 38.9844 29.1797C38.5066 30.0068 37.9728 30.788 37.3828 31.5234C37.393 31.455 37.367 31.4029 37.3047 31.3672C36.7955 31.1257 36.3007 30.8652 35.8203 30.5859C36.2619 30.0162 36.6655 29.4173 37.0312 28.7891C37.2548 28.1073 37.1507 27.4823 36.7188 26.9141C36.2214 26.3518 35.7136 25.8049 35.1953 25.2734C35.469 24.8319 35.6513 24.3631 35.7422 23.8672Z" fill="#031A6B"/>
<path fill-rule="evenodd" clip-rule="evenodd" d="M9.57032 25.1175C11.5168 26.7997 12.3632 28.9351 12.1094 31.5238C11.6338 34.7838 9.92805 37.1406 6.9922 38.5941C5.75085 39.1028 4.47481 39.22 3.16407 38.9457C3.09248 38.949 3.04039 38.9751 3.00782 39.0238C1.46784 37.872 0.569397 36.3356 0.312508 34.4144C0.0230668 30.5529 1.52046 27.6233 4.8047 25.6254C6.3401 24.8492 7.92868 24.6799 9.57032 25.1175Z" fill="#F9E16A"/>
<path opacity="0.983" fill-rule="evenodd" clip-rule="evenodd" d="M9.57031 25.1172C11.8097 25.8336 13.203 27.3441 13.75 29.6484C14.362 33.0729 13.3855 35.9505 10.8203 38.2812C9.74602 39.118 8.54813 39.678 7.22656 39.9609C6.57552 39.9609 5.92448 39.9609 5.27344 39.9609C4.46106 39.8026 3.70585 39.4901 3.00781 39.0234C3.04038 38.9747 3.09247 38.9487 3.16406 38.9453C4.4748 39.2196 5.75084 39.1024 6.99219 38.5938C9.92805 37.1402 11.6337 34.7834 12.1094 31.5234C12.3632 28.9348 11.5168 26.7994 9.57031 25.1172Z" fill="#EDD15A"/>
<path fill-rule="evenodd" clip-rule="evenodd" d="M35.1953 25.2734C35.7136 25.8049 36.2214 26.3518 36.7188 26.9141C37.1507 27.4823 37.2548 28.1073 37.0312 28.7891C36.6655 29.4173 36.2619 30.0162 35.8203 30.5859C34.8091 30.042 33.8196 29.4691 32.8516 28.8672C33.725 27.7325 34.5063 26.5346 35.1953 25.2734Z" fill="#B9ECFD"/>
<path fill-rule="evenodd" clip-rule="evenodd" d="M6.05407 26.9137C8.15813 26.8425 9.34305 27.8581 9.60876 29.9605C9.72954 32.6222 8.72696 34.7447 6.60094 36.3277C5.59972 36.9678 4.53201 37.124 3.39782 36.7965C2.35819 36.2693 1.74622 35.4229 1.56188 34.2574C1.28369 31.4697 2.26026 29.2431 4.49157 27.5777C4.99423 27.2866 5.51506 27.0652 6.05407 26.9137Z" fill="#EDD15A"/>
</g>
<defs>
<clipPath id="clip0_5215_33911">
<rect width="40" height="40" fill="white"/>
</clipPath>
</defs>
</svg>
