<svg width="25" height="25" viewBox="0 0 25 25" fill="none" xmlns="http://www.w3.org/2000/svg">
<g clip-path="url(#clip0_4436_7994)">
<path opacity="0.994" fill-rule="evenodd" clip-rule="evenodd" d="M2.11719 0.476562C4.78906 0.476562 7.46094 0.476562 10.1328 0.476562C10.9758 0.718046 11.5149 1.26492 11.75 2.11719C11.7813 4.78906 11.7813 7.46094 11.75 10.1328C11.5235 10.9844 10.9844 11.5235 10.1328 11.75C7.46094 11.7813 4.78906 11.7813 2.11719 11.75C1.26451 11.5145 0.717638 10.9754 0.476562 10.1328C0.476562 7.46094 0.476562 4.78906 0.476562 2.11719C0.726562 1.27344 1.27344 0.726562 2.11719 0.476562ZM5.91406 3.38281C6.31489 3.30592 6.60397 3.44655 6.78125 3.80469C6.84627 4.34904 6.8697 4.89591 6.85156 5.44531C7.40098 5.42717 7.94783 5.45061 8.49219 5.51562C8.9045 5.72375 9.02169 6.04405 8.84375 6.47656C8.76102 6.61592 8.64383 6.7175 8.49219 6.78125C7.94783 6.84627 7.40098 6.8697 6.85156 6.85156C6.8697 7.40098 6.84627 7.94783 6.78125 8.49219C6.49236 8.95892 6.11736 9.03706 5.65625 8.72656C5.60938 8.64842 5.5625 8.57033 5.51562 8.49219C5.45061 7.94783 5.42717 7.40098 5.44531 6.85156C4.89591 6.8697 4.34904 6.84627 3.80469 6.78125C3.36736 6.53366 3.2658 6.18209 3.5 5.72656C3.59748 5.65048 3.69904 5.58017 3.80469 5.51562C4.34904 5.45061 4.89591 5.42717 5.44531 5.44531C5.42717 4.89591 5.45061 4.34904 5.51562 3.80469C5.59475 3.60851 5.72755 3.46788 5.91406 3.38281Z" fill="#031A6B"/>
<path opacity="0.996" fill-rule="evenodd" clip-rule="evenodd" d="M14.8203 0.476562C17.4922 0.476562 20.1641 0.476562 22.8359 0.476562C23.6797 0.726562 24.2266 1.27344 24.4766 2.11719C24.4766 4.78906 24.4766 7.46094 24.4766 10.1328C24.2351 10.9758 23.6882 11.5149 22.8359 11.75C20.1641 11.7813 17.4922 11.7813 14.8203 11.75C13.9684 11.523 13.4293 10.984 13.2031 10.1328C13.1719 7.46094 13.1719 4.78906 13.2031 2.11719C13.4383 1.26492 13.9773 0.718046 14.8203 0.476562ZM16.6953 5.44531C18.1173 5.43748 19.5391 5.44531 20.9609 5.46875C21.2674 5.48497 21.4784 5.63342 21.5938 5.91406C21.6777 6.42655 21.4667 6.73123 20.9609 6.82812C19.5391 6.85939 18.1172 6.85939 16.6953 6.82812C16.0725 6.68408 15.8929 6.31691 16.1563 5.72656C16.3113 5.57492 16.491 5.48117 16.6953 5.44531Z" fill="#031A6B"/>
<path opacity="0.992" fill-rule="evenodd" clip-rule="evenodd" d="M10.1328 24.4766C7.46094 24.4766 4.78906 24.4766 2.11719 24.4766C1.27303 24.2262 0.726154 23.6793 0.476562 22.8359C0.476562 20.1641 0.476562 17.4922 0.476562 14.8203C0.718046 13.9773 1.26492 13.4383 2.11719 13.2031C4.78906 13.1719 7.46094 13.1719 10.1328 13.2031C10.9844 13.4297 11.5235 13.9687 11.75 14.8203C11.7813 17.4922 11.7813 20.1641 11.75 22.8359C11.5149 23.6882 10.9758 24.2351 10.1328 24.4766ZM4.46094 16.6484C4.70478 16.6136 4.92353 16.6683 5.11719 16.8125C5.4538 17.1569 5.79753 17.4929 6.14844 17.8203C6.49934 17.4929 6.84308 17.1569 7.17969 16.8125C7.54789 16.567 7.88384 16.606 8.1875 16.9297C8.32311 17.1554 8.33872 17.3897 8.23438 17.6328C7.87578 18.0305 7.50856 18.4212 7.13281 18.8047C7.46023 19.1556 7.79619 19.4993 8.14062 19.8359C8.38616 20.2042 8.34711 20.5401 8.02344 20.8438C7.79642 20.9767 7.56205 20.9923 7.32031 20.8906C6.92263 20.532 6.53197 20.1648 6.14844 19.7891C5.76491 20.1648 5.37425 20.532 4.97656 20.8906C4.41725 21.0564 4.08913 20.8533 3.99219 20.2813C3.99193 20.1734 4.01536 20.0719 4.0625 19.9766C4.4211 19.5789 4.78829 19.1882 5.16406 18.8047C4.83662 18.4538 4.50069 18.1101 4.15625 17.7734C3.86495 17.2897 3.96651 16.9147 4.46094 16.6484Z" fill="#031A6B"/>
<path opacity="0.994" fill-rule="evenodd" clip-rule="evenodd" d="M24.4766 14.8203C24.4766 17.4922 24.4766 20.1641 24.4766 22.8359C24.2266 23.6797 23.6797 24.2266 22.8359 24.4766C20.1641 24.4766 17.4922 24.4766 14.8203 24.4766C13.9769 24.2347 13.4378 23.6878 13.2031 22.8359C13.1719 20.1641 13.1719 17.4922 13.2031 14.8203C13.4297 13.9687 13.9687 13.4297 14.8203 13.2031C17.4922 13.1719 20.1641 13.1719 22.8359 13.2031C23.6882 13.4383 24.2351 13.9773 24.4766 14.8203ZM16.6953 16.6953C18.1173 16.6875 19.5391 16.6953 20.9609 16.7188C21.2674 16.735 21.4784 16.8834 21.5938 17.1641C21.6777 17.6766 21.4667 17.9812 20.9609 18.0781C19.5391 18.1094 18.1172 18.1094 16.6953 18.0781C16.0725 17.9341 15.8929 17.5669 16.1563 16.9766C16.3113 16.8249 16.491 16.7312 16.6953 16.6953ZM16.6953 19.5078C18.1173 19.5 19.5391 19.5078 20.9609 19.5313C21.2674 19.5475 21.4784 19.6959 21.5938 19.9766C21.6777 20.4891 21.4667 20.7937 20.9609 20.8906C19.5391 20.9219 18.1172 20.9219 16.6953 20.8906C16.0725 20.7466 15.8929 20.3794 16.1563 19.7891C16.3113 19.6374 16.491 19.5437 16.6953 19.5078Z" fill="#031A6B"/>
</g>
<defs>
<clipPath id="clip0_4436_7994">
<rect width="24" height="24" fill="white" transform="translate(0.5 0.5)"/>
</clipPath>
</defs>
</svg>
