<svg width="60" height="60" viewBox="0 0 60 60" fill="none" xmlns="http://www.w3.org/2000/svg">
<g clip-path="url(#clip0_545_7307)">
<path opacity="0.989" fill-rule="evenodd" clip-rule="evenodd" d="M29.3555 -0.0585938C29.5508 -0.0585938 29.7461 -0.0585938 29.9414 -0.0585938C29.9414 4.78515 29.9414 9.62891 29.9414 14.4727C22.0898 14.4727 14.2383 14.4727 6.38672 14.4727C14.0141 9.57897 21.6703 4.73521 29.3555 -0.0585938Z" fill="#8CBCFF"/>
<path fill-rule="evenodd" clip-rule="evenodd" d="M29.9414 -0.0585938C30.1368 -0.0585938 30.332 -0.0585938 30.5273 -0.0585938C38.2125 4.73521 45.8687 9.57897 53.4961 14.4727C45.6445 14.4727 37.793 14.4727 29.9414 14.4727C29.9414 9.62891 29.9414 4.78515 29.9414 -0.0585938Z" fill="#6AA9FF"/>
<path opacity="0.995" fill-rule="evenodd" clip-rule="evenodd" d="M6.38672 14.4727C14.2383 14.4727 22.0898 14.4727 29.9414 14.4727C37.793 14.4727 45.6445 14.4727 53.4961 14.4727C53.5351 14.4727 53.5743 14.4727 53.6133 14.4727C45.7424 14.5897 37.8518 14.6287 29.9414 14.5898C29.9414 17.9101 29.9414 21.2305 29.9414 24.5508C28.3008 24.5508 26.6602 24.5508 25.0195 24.5508C22.5976 24.5508 20.1758 24.5508 17.7539 24.5508C16.1133 24.5508 14.4727 24.5508 12.832 24.5508C11.1914 24.5508 9.55078 24.5508 7.91016 24.5508C6.06589 24.6039 4.22997 24.5453 2.40234 24.375C1.09405 23.8082 0.371391 22.8121 0.234375 21.3867C0.15625 20.1367 0.15625 18.8868 0.234375 17.6367C0.441298 16.0241 1.3202 14.9889 2.87109 14.5312C4.04231 14.4727 5.21419 14.4532 6.38672 14.4727Z" fill="#2682FF"/>
<path fill-rule="evenodd" clip-rule="evenodd" d="M53.6133 14.4727C54.7467 14.4532 55.8796 14.4727 57.0117 14.5312C58.5626 14.9889 59.4415 16.0241 59.6484 17.6367C59.7509 19.1261 59.7117 20.6105 59.5312 22.0898C59.2034 23.3552 58.4026 24.156 57.1289 24.4922C55.3716 24.5508 53.6138 24.5703 51.8555 24.5508C50.1758 24.5508 48.4961 24.5508 46.8164 24.5508C45.1758 24.5508 43.5352 24.5508 41.8945 24.5508C39.5508 24.5508 37.207 24.5508 34.8633 24.5508C33.2227 24.5508 31.582 24.5508 29.9414 24.5508C29.9414 21.2305 29.9414 17.9101 29.9414 14.5898C37.8518 14.6287 45.7424 14.5897 53.6133 14.4727Z" fill="#046EFF"/>
<path opacity="0.978" fill-rule="evenodd" clip-rule="evenodd" d="M7.91016 24.5508C9.55078 24.5508 11.1914 24.5508 12.832 24.5508C12.832 30.8399 12.832 37.1289 12.832 43.418C11.1914 43.418 9.55078 43.418 7.91016 43.418C7.91016 37.1289 7.91016 30.8399 7.91016 24.5508Z" fill="#8CBCFF"/>
<path fill-rule="evenodd" clip-rule="evenodd" d="M12.832 24.5508C14.4727 24.5508 16.1133 24.5508 17.7539 24.5508C17.7539 30.8399 17.7539 37.1289 17.7539 43.418C16.1133 43.418 14.4727 43.418 12.832 43.418C12.832 37.1289 12.832 30.8399 12.832 24.5508Z" fill="#6AA9FF"/>
<path opacity="0.99" fill-rule="evenodd" clip-rule="evenodd" d="M25.0195 24.5508C26.6602 24.5508 28.3008 24.5508 29.9414 24.5508C29.9414 30.8399 29.9414 37.1289 29.9414 43.418C28.3008 43.418 26.6602 43.418 25.0195 43.418C25.0195 37.1289 25.0195 30.8399 25.0195 24.5508Z" fill="#8CBCFF"/>
<path fill-rule="evenodd" clip-rule="evenodd" d="M29.9414 24.5508C31.582 24.5508 33.2227 24.5508 34.8633 24.5508C34.8633 30.8399 34.8633 37.1289 34.8633 43.418C33.2227 43.418 31.582 43.418 29.9414 43.418C29.9414 37.1289 29.9414 30.8399 29.9414 24.5508Z" fill="#6AA9FF"/>
<path opacity="0.978" fill-rule="evenodd" clip-rule="evenodd" d="M41.8945 24.5508C43.5352 24.5508 45.1758 24.5508 46.8164 24.5508C46.8164 30.8399 46.8164 37.1289 46.8164 43.418C45.1758 43.418 43.5352 43.418 41.8945 43.418C41.8945 37.1289 41.8945 30.8399 41.8945 24.5508Z" fill="#8CBCFF"/>
<path fill-rule="evenodd" clip-rule="evenodd" d="M46.8164 24.5508C48.4961 24.5508 50.1758 24.5508 51.8555 24.5508C51.8555 30.8399 51.8555 37.1289 51.8555 43.418C50.1758 43.418 48.4961 43.418 46.8164 43.418C46.8164 37.1289 46.8164 30.8399 46.8164 24.5508Z" fill="#6AA9FF"/>
<path opacity="0.997" fill-rule="evenodd" clip-rule="evenodd" d="M7.91015 43.418C9.55078 43.418 11.1914 43.418 12.832 43.418C14.4727 43.418 16.1133 43.418 17.7539 43.418C20.1758 43.418 22.5976 43.418 25.0195 43.418C26.6602 43.418 28.3008 43.418 29.9414 43.418C31.582 43.418 33.2227 43.418 34.8633 43.418C33.2434 43.5347 31.6028 43.5737 29.9414 43.5352C29.9414 45.6445 29.9414 47.7539 29.9414 49.8633C38.2227 49.8633 46.5039 49.8633 54.7852 49.8633C46.5237 49.9804 38.2424 50.0195 29.9414 49.9805C21.6404 50.0195 13.3591 49.9804 5.09765 49.8633C5.07813 48.105 5.09766 46.3472 5.15625 44.5898C5.32524 44.1475 5.61821 43.8155 6.03515 43.5937C6.64879 43.4368 7.2738 43.3782 7.91015 43.418Z" fill="#2580FD"/>
<path fill-rule="evenodd" clip-rule="evenodd" d="M34.8633 43.418C37.207 43.418 39.5508 43.418 41.8945 43.418C43.5352 43.418 45.1758 43.418 46.8164 43.418C48.4961 43.418 50.1758 43.418 51.8555 43.418C52.5307 43.3768 53.1947 43.4354 53.8477 43.5937C54.2646 43.8155 54.5576 44.1475 54.7266 44.5898C54.7852 46.3472 54.8047 48.105 54.7852 49.8633C46.5039 49.8633 38.2227 49.8633 29.9414 49.8633C29.9414 47.7539 29.9414 45.6445 29.9414 43.5352C31.6028 43.5737 33.2434 43.5347 34.8633 43.418Z" fill="#046EFF"/>
<path opacity="0.996" fill-rule="evenodd" clip-rule="evenodd" d="M5.09771 49.8633C13.3592 49.9803 21.6405 50.0195 29.9415 49.9805C29.9415 53.3007 29.9415 56.6211 29.9415 59.9414C20.4102 59.9414 10.879 59.9414 1.34771 59.9414C0.717947 59.5833 0.346854 59.0364 0.234427 58.3008C0.122734 55.8729 0.161798 53.451 0.351614 51.0352C0.577409 50.4577 0.987565 50.0866 1.58208 49.9219C2.7533 49.8633 3.92518 49.8438 5.09771 49.8633Z" fill="#0050BF"/>
<path fill-rule="evenodd" clip-rule="evenodd" d="M54.7852 49.8633C55.9577 49.8438 57.1296 49.8633 58.3008 49.9219C58.8953 50.0866 59.3054 50.4577 59.5312 51.0352C59.7211 53.451 59.7601 55.8729 59.6484 58.3008C59.5361 59.0364 59.1649 59.5833 58.5352 59.9414C49.0039 59.9414 39.4726 59.9414 29.9414 59.9414C29.9414 56.6211 29.9414 53.3007 29.9414 49.9805C38.2424 50.0195 46.5237 49.9803 54.7852 49.8633Z" fill="#00347B"/>
</g>
<defs>
<clipPath id="clip0_545_7307">
<rect width="60" height="60" fill="white"/>
</clipPath>
</defs>
</svg>
