<svg width="20" height="20" viewBox="0 0 20 20" fill="none" xmlns="http://www.w3.org/2000/svg">
<path opacity="0.993" fill-rule="evenodd" clip-rule="evenodd" d="M9.78516 1.15238C10.0682 1.13999 10.3417 1.18556 10.6055 1.2891C12.6444 2.54169 14.8579 3.29689 17.2461 3.55472C17.6829 3.77042 17.9629 4.11546 18.0859 4.58988C18.1231 6.54382 18.1101 8.49695 18.0469 10.4493C17.6538 13.0276 16.4103 15.0784 14.3164 16.6016C13.0303 17.3814 11.7152 18.1106 10.3711 18.7891C10.0244 18.8768 9.68582 18.8508 9.35547 18.711C8.3659 18.1641 7.37629 17.6172 6.38672 17.0703C3.76052 15.4858 2.25661 13.1616 1.875 10.0977C1.84896 8.24874 1.84896 6.39976 1.875 4.55081C2.01183 4.03554 2.33084 3.69049 2.83203 3.51566C5.12242 3.28173 7.24481 2.56558 9.19922 1.36722C9.39195 1.27491 9.58727 1.2033 9.78516 1.15238ZM12.4805 7.08988C13.0678 7.04597 13.4063 7.31292 13.4961 7.89066C13.49 8.05222 13.4444 8.20195 13.3594 8.33988C12.3958 9.38156 11.4323 10.4232 10.4688 11.4649C10.3047 11.642 10.1289 11.8048 9.94141 11.9532C9.66125 12.088 9.38781 12.075 9.1211 11.9141C8.39778 11.2818 7.68813 10.6373 6.99219 9.9805C6.76504 9.43906 6.91477 9.04191 7.44141 8.7891C7.72633 8.73015 7.98672 8.78222 8.22266 8.94535C8.63934 9.32296 9.05598 9.70054 9.47266 10.0782C9.49871 10.1042 9.52473 10.1042 9.55078 10.0782C10.4088 9.1289 11.2813 8.1914 12.168 7.26566C12.2695 7.19554 12.3737 7.13695 12.4805 7.08988Z" fill="#031A6B"/>
</svg>
