<svg width="24" height="24" viewBox="0 0 24 24" fill="none" xmlns="http://www.w3.org/2000/svg">
<g clip-path="url(#clip0_3601_2673)">
<path d="M11.343 0.0279007C10.368 0.154463 9.43516 0.501337 8.62422 1.04509C8.17422 1.34509 7.34453 2.17477 7.04453 2.62477C6.61328 3.26696 6.31797 3.94665 6.13047 4.73415C6.04141 5.09509 6.03203 5.32009 6.01328 7.06384L5.98984 8.99977H5.48828C5.18828 8.99977 4.87422 9.0279 4.71016 9.07009C3.90391 9.28102 3.28047 9.90915 3.06953 10.7201C2.96641 11.1232 2.96641 21.8763 3.06953 22.2795C3.28047 23.0904 3.90391 23.7185 4.71016 23.9295C4.95391 23.9904 5.85391 23.9998 11.9992 23.9998C19.7148 23.9998 19.2602 24.0185 19.832 23.7138C20.3711 23.4232 20.8352 22.7904 20.9523 22.1763C20.9805 22.0123 20.9992 19.9779 20.9992 16.4576C20.9992 10.5045 21.0086 10.7482 20.7367 10.2091C20.568 9.87634 20.1602 9.46384 19.832 9.28571C19.4383 9.07477 19.0867 8.99977 18.5102 8.99977H18.0086L17.9852 7.06384C17.9664 5.32009 17.957 5.09509 17.868 4.73415C17.5773 3.52946 17.0711 2.62477 16.2227 1.77634C15.3555 0.909149 14.4414 0.402901 13.2648 0.135712C12.8758 0.0466499 11.7133 -0.0189762 11.343 0.0279007ZM12.7961 2.08102C13.2367 2.17477 13.8039 2.40446 14.1508 2.63415C15.0602 3.22946 15.7398 4.23727 15.932 5.27321C15.9648 5.43727 15.9836 6.23415 15.9836 7.27477V8.99977H11.9992H8.01484V7.25134C8.01484 5.34821 8.03359 5.18884 8.29141 4.52321C8.76016 3.30446 9.86641 2.37165 11.1789 2.08571C11.5539 2.00134 12.4164 2.00134 12.7961 2.08102ZM12.6836 13.1295C13.3773 13.392 13.8508 13.9732 13.9727 14.7138C14.0805 15.3935 13.7758 16.1388 13.218 16.5654L12.9883 16.7388L12.9742 18.0466L12.9602 19.3498L12.8195 19.556C12.3648 20.2029 11.3852 20.1091 11.0852 19.3966C11.0289 19.2513 11.0148 18.9935 11.0148 17.981V16.7435L10.7758 16.5654C10.2227 16.1435 9.91797 15.3935 10.0258 14.7232C10.1945 13.6638 11.1227 12.9232 12.1633 13.017C12.318 13.031 12.5523 13.0826 12.6836 13.1295Z" fill="#0F0F0F"/>
</g>
<defs>
<clipPath id="clip0_3601_2673">
<rect width="24" height="24" fill="white"/>
</clipPath>
</defs>
</svg>
