<svg width="24" height="24" viewBox="0 0 24 24" fill="none" xmlns="http://www.w3.org/2000/svg">
<path opacity="0.987" fill-rule="evenodd" clip-rule="evenodd" d="M19.3822 4.1486C19.7508 4.13637 20.0946 4.22231 20.4135 4.40642C20.8275 4.75798 21.2104 5.14081 21.5619 5.55485C21.8232 6.07887 21.8388 6.6101 21.6088 7.1486C17.6023 11.202 13.5788 15.2411 9.53849 19.2658C9.16349 19.4846 8.78849 19.4846 8.41349 19.2658C6.37312 17.2411 4.34969 15.202 2.34318 13.1486C2.11316 12.6101 2.12879 12.0789 2.39005 11.5549C2.74162 11.1408 3.12443 10.758 3.53849 10.4064C4.14211 10.0561 4.73587 10.0717 5.31974 10.4533C6.52288 11.6564 7.72598 12.8595 8.92912 14.0627C8.96038 14.0939 8.9916 14.0939 9.02287 14.0627C12.226 10.8596 15.4291 7.6564 18.6322 4.45329C18.8697 4.30932 19.1197 4.20775 19.3822 4.1486Z" fill="#031A6B"/>
</svg>
