<svg width="101" height="100" viewBox="0 0 101 100" fill="none" xmlns="http://www.w3.org/2000/svg">
<g clip-path="url(#clip0_4436_8159)">
<path d="M68.6557 36.3213H34.1319C33.8161 36.3213 33.5133 36.4467 33.2901 36.67C33.0668 36.8932 32.9414 37.196 32.9414 37.5118C32.9414 37.8275 33.0668 38.1303 33.2901 38.3536C33.5133 38.5768 33.8161 38.7022 34.1319 38.7022H68.6557C68.9714 38.7022 69.2742 38.5768 69.4975 38.3536C69.7207 38.1303 69.8462 37.8275 69.8462 37.5118C69.8462 37.196 69.7207 36.8932 69.4975 36.67C69.2742 36.4467 68.9714 36.3213 68.6557 36.3213Z" fill="#CC9933"/>
<path d="M34.1319 44.6544H60.3224C60.6381 44.6544 60.9409 44.529 61.1642 44.3057C61.3874 44.0825 61.5128 43.7796 61.5128 43.4639C61.5128 43.1482 61.3874 42.8454 61.1642 42.6221C60.9409 42.3989 60.6381 42.2734 60.3224 42.2734H34.1319C33.8161 42.2734 33.5133 42.3989 33.2901 42.6221C33.0668 42.8454 32.9414 43.1482 32.9414 43.4639C32.9414 43.7796 33.0668 44.0825 33.2901 44.3057C33.5133 44.529 33.8161 44.6544 34.1319 44.6544Z" fill="#031A6B"/>
<path d="M68.6557 48.2256H34.1319C33.8161 48.2256 33.5133 48.351 33.2901 48.5743C33.0668 48.7975 32.9414 49.1003 32.9414 49.4161C32.9414 49.7318 33.0668 50.0346 33.2901 50.2579C33.5133 50.4811 33.8161 50.6065 34.1319 50.6065H68.6557C68.9714 50.6065 69.2742 50.4811 69.4975 50.2579C69.7207 50.0346 69.8462 49.7318 69.8462 49.4161C69.8462 49.1003 69.7207 48.7975 69.4975 48.5743C69.2742 48.351 68.9714 48.2256 68.6557 48.2256Z" fill="#CC9933"/>
<path d="M34.1319 56.5587H60.3224C60.6381 56.5587 60.9409 56.4333 61.1642 56.21C61.3874 55.9867 61.5128 55.6839 61.5128 55.3682C61.5128 55.0525 61.3874 54.7497 61.1642 54.5264C60.9409 54.3032 60.6381 54.1777 60.3224 54.1777H34.1319C33.8161 54.1777 33.5133 54.3032 33.2901 54.5264C33.0668 54.7497 32.9414 55.0525 32.9414 55.3682C32.9414 55.6839 33.0668 55.9867 33.2901 56.21C33.5133 56.4333 33.8161 56.5587 34.1319 56.5587Z" fill="#031A6B"/>
<path d="M68.6557 60.1299H34.1319C33.8161 60.1299 33.5133 60.2553 33.2901 60.4786C33.0668 60.7018 32.9414 61.0046 32.9414 61.3204C32.9414 61.6361 33.0668 61.9389 33.2901 62.1622C33.5133 62.3854 33.8161 62.5108 34.1319 62.5108H68.6557C68.9714 62.5108 69.2742 62.3854 69.4975 62.1622C69.7207 61.9389 69.8462 61.6361 69.8462 61.3204C69.8462 61.0046 69.7207 60.7018 69.4975 60.4786C69.2742 60.2553 68.9714 60.1299 68.6557 60.1299Z" fill="#CC9933"/>
<path d="M34.1319 68.4649H60.3224C60.6381 68.4649 60.9409 68.3395 61.1642 68.1163C61.3874 67.893 61.5128 67.5902 61.5128 67.2745C61.5128 66.9587 61.3874 66.6559 61.1642 66.4327C60.9409 66.2094 60.6381 66.084 60.3224 66.084H34.1319C33.8161 66.084 33.5133 66.2094 33.2901 66.4327C33.0668 66.6559 32.9414 66.9587 32.9414 67.2745C32.9414 67.5902 33.0668 67.893 33.2901 68.1163C33.5133 68.3395 33.8161 68.4649 34.1319 68.4649Z" fill="#031A6B"/>
<path d="M68.6557 72.0361H34.1319C33.8161 72.0361 33.5133 72.1616 33.2901 72.3848C33.0668 72.6081 32.9414 72.9109 32.9414 73.2266C32.9414 73.5423 33.0668 73.8451 33.2901 74.0684C33.5133 74.2917 33.8161 74.4171 34.1319 74.4171H68.6557C68.9714 74.4171 69.2742 74.2917 69.4975 74.0684C69.7207 73.8451 69.8462 73.5423 69.8462 73.2266C69.8462 72.9109 69.7207 72.6081 69.4975 72.3848C69.2742 72.1616 68.9714 72.0361 68.6557 72.0361Z" fill="#CC9933"/>
<path d="M60.3224 77.9883H34.1319C33.8161 77.9883 33.5133 78.1137 33.2901 78.337C33.0668 78.5602 32.9414 78.863 32.9414 79.1788C32.9414 79.4945 33.0668 79.7973 33.2901 80.0206C33.5133 80.2438 33.8161 80.3692 34.1319 80.3692H60.3224C60.6381 80.3692 60.9409 80.2438 61.1642 80.0206C61.3874 79.7973 61.5128 79.4945 61.5128 79.1788C61.5128 78.863 61.3874 78.5602 61.1642 78.337C60.9409 78.1137 60.6381 77.9883 60.3224 77.9883Z" fill="#031A6B"/>
<path d="M68.6557 24.417H34.1319C33.8161 24.417 33.5133 24.5424 33.2901 24.7657C33.0668 24.9889 32.9414 25.2917 32.9414 25.6075C32.9414 25.9232 33.0668 26.226 33.2901 26.4493C33.5133 26.6725 33.8161 26.7979 34.1319 26.7979H68.6557C68.9714 26.7979 69.2742 26.6725 69.4975 26.4493C69.7207 26.226 69.8462 25.9232 69.8462 25.6075C69.8462 25.2917 69.7207 24.9889 69.4975 24.7657C69.2742 24.5424 68.9714 24.417 68.6557 24.417Z" fill="#CC9933"/>
<path d="M34.1319 32.7501H60.3224C60.6381 32.7501 60.9409 32.6247 61.1642 32.4014C61.3874 32.1782 61.5128 31.8754 61.5128 31.5596C61.5128 31.2439 61.3874 30.9411 61.1642 30.7178C60.9409 30.4946 60.6381 30.3691 60.3224 30.3691H34.1319C33.8161 30.3691 33.5133 30.4946 33.2901 30.7178C33.0668 30.9411 32.9414 31.2439 32.9414 31.5596C32.9414 31.8754 33.0668 32.1782 33.2901 32.4014C33.5133 32.6247 33.8161 32.7501 34.1319 32.7501Z" fill="#031A6B"/>
<path d="M1.69048 90.4884C2.34796 90.4884 2.88095 89.9554 2.88095 89.2979C2.88095 88.6404 2.34796 88.1074 1.69048 88.1074C1.03299 88.1074 0.5 88.6404 0.5 89.2979C0.5 89.9554 1.03299 90.4884 1.69048 90.4884Z" fill="#031A6B"/>
<path d="M7.0465 88.1074H5.26079C4.94505 88.1074 4.64225 88.2328 4.41899 88.4561C4.19574 88.6794 4.07031 88.9822 4.07031 89.2979C4.07031 89.6136 4.19574 89.9164 4.41899 90.1397C4.64225 90.363 4.94505 90.4884 5.26079 90.4884H7.0465C7.36224 90.4884 7.66504 90.363 7.8883 90.1397C8.11155 89.9164 8.23698 89.6136 8.23698 89.2979C8.23698 88.9822 8.11155 88.6794 7.8883 88.4561C7.66504 88.2328 7.36224 88.1074 7.0465 88.1074Z" fill="#031A6B"/>
<path d="M70.8296 92.8691H65.8844C65.5846 92.8924 65.3046 93.0279 65.1003 93.2486C64.8961 93.4693 64.7826 93.7589 64.7826 94.0596C64.7826 94.3603 64.8961 94.65 65.1003 94.8706C65.3046 95.0913 65.5846 95.2269 65.8844 95.2501H70.8296C71.1295 95.2269 71.4095 95.0913 71.6137 94.8706C71.818 94.65 71.9314 94.3603 71.9314 94.0596C71.9314 93.7589 71.818 93.4693 71.6137 93.2486C71.4095 93.0279 71.1295 92.8924 70.8296 92.8691ZM35.1154 92.8691H30.1701C29.8703 92.8924 29.5903 93.0279 29.3861 93.2486C29.1818 93.4693 29.0684 93.7589 29.0684 94.0596C29.0684 94.3603 29.1818 94.65 29.3861 94.8706C29.5903 95.0913 29.8703 95.2269 30.1701 95.2501H35.1154C35.4152 95.2269 35.6952 95.0913 35.8994 94.8706C36.1037 94.65 36.2171 94.3603 36.2171 94.0596C36.2171 93.7589 36.1037 93.4693 35.8994 93.2486C35.6952 93.0279 35.4152 92.8924 35.1154 92.8691ZM62.4046 92.8691H38.5951C38.2794 92.8691 37.9766 92.9946 37.7533 93.2178C37.5301 93.4411 37.4046 93.7439 37.4046 94.0596C37.4046 94.3754 37.5301 94.6782 37.7533 94.9014C37.9766 95.1247 38.2794 95.2501 38.5951 95.2501H48.0832V96.4406H43.357C43.0413 96.4406 42.7385 96.566 42.5152 96.7893C42.292 97.0125 42.1665 97.3153 42.1665 97.631C42.1665 97.9468 42.292 98.2496 42.5152 98.4728C42.7385 98.6961 43.0413 98.8215 43.357 98.8215H58.238C58.5537 98.8215 58.8565 98.6961 59.0798 98.4728C59.303 98.2496 59.4285 97.9468 59.4285 97.631C59.4285 97.3153 59.303 97.0125 59.0798 96.7893C58.8565 96.566 58.5537 96.4406 58.238 96.4406H52.9165V95.2501H62.4046C62.7204 95.2501 63.0232 95.1247 63.2464 94.9014C63.4697 94.6782 63.5951 94.3754 63.5951 94.0596C63.5951 93.7439 63.4697 93.4411 63.2464 93.2178C63.0232 92.9946 62.7204 92.8691 62.4046 92.8691Z" fill="#CC9933"/>
<path d="M95.7379 88.1074H93.9522C93.6365 88.1074 93.3337 88.2328 93.1104 88.4561C92.8871 88.6794 92.7617 88.9822 92.7617 89.2979C92.7617 89.6136 92.8871 89.9164 93.1104 90.1397C93.3337 90.363 93.6365 90.4884 93.9522 90.4884H95.7379C96.0536 90.4884 96.3564 90.363 96.5797 90.1397C96.803 89.9164 96.9284 89.6136 96.9284 89.2979C96.9284 88.9822 96.803 88.6794 96.5797 88.4561C96.3564 88.2328 96.0536 88.1074 95.7379 88.1074Z" fill="#031A6B"/>
<path d="M99.3116 90.4884C99.9691 90.4884 100.502 89.9554 100.502 89.2979C100.502 88.6404 99.9691 88.1074 99.3116 88.1074C98.6541 88.1074 98.1211 88.6404 98.1211 89.2979C98.1211 89.9554 98.6541 90.4884 99.3116 90.4884Z" fill="#031A6B"/>
<path d="M90.2128 88.1064H85.8319C77.9926 78.8755 81.8295 53.866 84.6474 35.5291C85.4343 30.413 86.1134 25.9951 86.4628 22.4451C86.6039 21.2809 86.5046 20.1002 86.1713 18.9758C85.8379 17.8515 85.2775 16.8074 84.5247 15.9082C84.1224 15.4248 83.6228 15.0314 83.0585 14.7537C82.4941 14.476 81.8777 14.3202 81.2491 14.2963C81.1452 14.3175 81.0382 14.3175 80.9343 14.2963H21.8474C21.8025 14.2983 21.7578 14.3029 21.7134 14.31C21.639 14.3052 21.5652 14.2963 21.4908 14.2963C17.367 14.2963 14.4861 17.5993 14.4861 22.3279V50.2207C14.4603 51.2759 14.8537 52.2983 15.5803 53.064C16.3068 53.8297 17.3071 54.2762 18.3622 54.3058H19.9122C18.5116 67.5862 18.4176 80.7737 23.1116 88.1058H10.7837C10.6143 88.0837 10.4422 88.098 10.2788 88.1477C10.1154 88.1974 9.96443 88.2814 9.83607 88.394C9.70771 88.5067 9.60487 88.6455 9.53442 88.8011C9.46397 88.9567 9.42753 89.1255 9.42753 89.2963C9.42753 89.4671 9.46397 89.6359 9.53442 89.7915C9.60487 89.9471 9.70771 90.0859 9.83607 90.1986C9.96443 90.3113 10.1154 90.3953 10.2788 90.445C10.4422 90.4947 10.6143 90.5089 10.7837 90.4868H90.2122C90.3816 90.5089 90.5537 90.4947 90.7171 90.445C90.8806 90.3953 91.0315 90.3113 91.1598 90.1986C91.2882 90.0859 91.391 89.9471 91.4615 89.7915C91.5319 89.6359 91.5684 89.4671 91.5684 89.2963C91.5684 89.1255 91.5319 88.9567 91.4615 88.8011C91.391 88.6455 91.2882 88.5067 91.1598 88.394C91.0315 88.2814 90.8806 88.1974 90.7171 88.1477C90.5537 88.098 90.3816 88.0837 90.2122 88.1058L90.2128 88.1064ZM18.3622 51.9243C17.9388 51.8943 17.5443 51.6986 17.2644 51.3795C16.9844 51.0604 16.8416 50.6438 16.867 50.2201V22.3273C16.867 19.7207 18.0783 16.6767 21.4908 16.6767C21.7863 16.7043 22.0729 16.7923 22.333 16.9352C22.5931 17.0782 22.821 17.273 23.0027 17.5076C23.5313 18.1607 23.9218 18.9142 24.1508 19.7226C24.3798 20.5309 24.4424 21.3773 24.3349 22.2106C23.9914 25.6963 23.317 30.085 22.536 35.1672C21.7343 40.385 20.8509 46.1302 20.1765 51.9243H18.3622ZM26.0545 88.1052C18.2271 78.8666 22.0724 53.8576 24.889 35.5285C25.6759 30.4124 26.3545 25.9945 26.7045 22.4445C26.9293 20.4245 26.454 18.3884 25.3581 16.6767H80.9343C81.0383 16.6554 81.1456 16.6554 81.2497 16.6767C81.5449 16.7044 81.8313 16.7924 82.0912 16.9352C82.351 17.0781 82.5788 17.2727 82.7605 17.507C83.2892 18.1602 83.6799 18.9137 83.9091 19.7222C84.1383 20.5306 84.2011 21.3772 84.0938 22.2106C83.7503 25.6969 83.0759 30.0856 82.2944 35.1672C79.5456 53.0505 75.8444 77.1326 82.867 88.1052H26.0545ZM87.1992 4.84096C87.5523 4.84096 87.8976 4.73623 88.1912 4.54001C88.4849 4.3438 88.7138 4.06491 88.8489 3.73861C88.9841 3.41231 89.0194 3.05327 88.9505 2.70687C88.8816 2.36048 88.7116 2.04229 88.4618 1.79256C88.2121 1.54282 87.8939 1.37275 87.5475 1.30384C87.2011 1.23494 86.8421 1.2703 86.5158 1.40546C86.1895 1.54062 85.9106 1.7695 85.7144 2.06316C85.5182 2.35682 85.4134 2.70207 85.4134 3.05525C85.4139 3.5287 85.6022 3.98263 85.937 4.31741C86.2718 4.6522 86.7257 4.84049 87.1992 4.84096ZM87.1992 2.16239C87.3757 2.16239 87.5484 2.21475 87.6952 2.31286C87.842 2.41097 87.9565 2.55042 88.024 2.71356C88.0916 2.87671 88.1093 3.05624 88.0748 3.22943C88.0404 3.40263 87.9554 3.56172 87.8305 3.68659C87.7056 3.81146 87.5465 3.8965 87.3733 3.93095C87.2001 3.9654 87.0206 3.94772 86.8575 3.88014C86.6943 3.81256 86.5549 3.69812 86.4568 3.55129C86.3587 3.40446 86.3063 3.23184 86.3063 3.05525C86.3064 2.81849 86.4006 2.59148 86.568 2.42408C86.7354 2.25667 86.9624 2.16255 87.1992 2.16239ZM96.9265 45.6683C96.6911 45.6683 96.4609 45.7382 96.2651 45.869C96.0694 45.9998 95.9168 46.1857 95.8267 46.4032C95.7366 46.6208 95.713 46.8601 95.7589 47.0911C95.8049 47.322 95.9182 47.5341 96.0847 47.7006C96.2512 47.8671 96.4633 47.9805 96.6943 48.0264C96.9252 48.0724 97.1646 48.0488 97.3821 47.9587C97.5996 47.8686 97.7856 47.716 97.9164 47.5202C98.0472 47.3244 98.117 47.0943 98.117 46.8588C98.1167 46.5432 97.9912 46.2406 97.768 46.0174C97.5448 45.7942 97.2422 45.6687 96.9265 45.6683ZM96.9265 47.4541C96.8088 47.4541 96.6937 47.4192 96.5958 47.3537C96.4979 47.2883 96.4217 47.1954 96.3766 47.0866C96.3316 46.9778 96.3198 46.8582 96.3427 46.7427C96.3657 46.6272 96.4224 46.5212 96.5056 46.4379C96.5889 46.3547 96.6949 46.298 96.8104 46.275C96.9259 46.2521 97.0455 46.2638 97.1543 46.3089C97.2631 46.3539 97.356 46.4302 97.4214 46.5281C97.4868 46.626 97.5218 46.7411 97.5218 46.8588C97.5216 47.0166 97.4588 47.1679 97.3473 47.2795C97.2357 47.3911 97.0843 47.4539 96.9265 47.4541ZM4.06938 3.58263C3.83393 3.58263 3.60376 3.65245 3.40799 3.78326C3.21222 3.91407 3.05963 4.1 2.96953 4.31753C2.87942 4.53506 2.85585 4.77442 2.90178 5.00535C2.94772 5.23628 3.0611 5.44841 3.22759 5.6149C3.39408 5.78139 3.6062 5.89477 3.83713 5.9407C4.06806 5.98664 4.30743 5.96306 4.52496 5.87296C4.74249 5.78286 4.92842 5.63027 5.05923 5.4345C5.19004 5.23872 5.25986 5.00856 5.25986 4.7731C5.25954 4.45747 5.13402 4.15485 4.91083 3.93166C4.68764 3.70847 4.38502 3.58294 4.06938 3.58263ZM4.06938 5.36834C3.95166 5.36834 3.83657 5.33343 3.73869 5.26803C3.6408 5.20262 3.56451 5.10966 3.51945 5.00089C3.4744 4.89213 3.46261 4.77244 3.48558 4.65698C3.50855 4.54151 3.56524 4.43545 3.64849 4.35221C3.73173 4.26896 3.83779 4.21227 3.95326 4.1893C4.06872 4.16634 4.18841 4.17812 4.29717 4.22318C4.40594 4.26823 4.4989 4.34452 4.56431 4.44241C4.62971 4.54029 4.66462 4.65538 4.66462 4.7731C4.66446 4.93092 4.6017 5.08223 4.49011 5.19383C4.37851 5.30542 4.2272 5.36818 4.06938 5.36834Z" fill="#031A6B"/>
<path d="M88.3907 29.179C88.1553 29.179 87.9251 29.2488 87.7293 29.3796C87.5336 29.5104 87.381 29.6964 87.2909 29.9139C87.2008 30.1314 87.1772 30.3708 87.2231 30.6017C87.2691 30.8326 87.3824 31.0448 87.5489 31.2113C87.7154 31.3778 87.9275 31.4911 88.1585 31.5371C88.3894 31.583 88.6288 31.5594 88.8463 31.4693C89.0638 31.3792 89.2498 31.2266 89.3806 31.0309C89.5114 30.8351 89.5812 30.6049 89.5812 30.3695C89.5809 30.0538 89.4554 29.7512 89.2322 29.528C89.009 29.3048 88.7064 29.1793 88.3907 29.179ZM88.3907 30.9647C88.273 30.9647 88.1579 30.9298 88.06 30.8644C87.9621 30.799 87.8858 30.706 87.8408 30.5973C87.7957 30.4885 87.784 30.3688 87.8069 30.2533C87.8299 30.1379 87.8866 30.0318 87.9698 29.9486C88.0531 29.8653 88.1591 29.8086 88.2746 29.7857C88.3901 29.7627 88.5097 29.7745 88.6185 29.8195C88.7273 29.8646 88.8202 29.9409 88.8856 30.0388C88.951 30.1367 88.986 30.2517 88.986 30.3695C88.9858 30.5273 88.923 30.6786 88.8114 30.7902C88.6998 30.9018 88.5485 30.9645 88.3907 30.9647ZM22.0157 10.7266C22.0157 10.4912 21.9459 10.261 21.8151 10.0652C21.6843 9.86944 21.4984 9.71686 21.2808 9.62675C21.0633 9.53665 20.8239 9.51307 20.593 9.55901C20.3621 9.60494 20.1499 9.71833 19.9835 9.88482C19.817 10.0513 19.7036 10.2634 19.6576 10.4944C19.6117 10.7253 19.6353 10.9647 19.7254 11.1822C19.8155 11.3997 19.9681 11.5856 20.1639 11.7165C20.3596 11.8473 20.5898 11.9171 20.8252 11.9171C21.1409 11.9168 21.4435 11.7912 21.6667 11.5681C21.8899 11.3449 22.0154 11.0422 22.0157 10.7266ZM20.23 10.7266C20.23 10.6089 20.2649 10.4938 20.3303 10.3959C20.3957 10.298 20.4887 10.2217 20.5975 10.1767C20.7062 10.1316 20.8259 10.1198 20.9414 10.1428C21.0568 10.1658 21.1629 10.2225 21.2461 10.3057C21.3294 10.389 21.3861 10.495 21.409 10.6105C21.432 10.7259 21.4202 10.8456 21.3752 10.9544C21.3301 11.0632 21.2538 11.1561 21.1559 11.2215C21.0581 11.2869 20.943 11.3218 20.8252 11.3218C20.6674 11.3217 20.5161 11.2589 20.4045 11.1473C20.2929 11.0357 20.2302 10.8844 20.23 10.7266Z" fill="#031A6B"/>
<path d="M6.98067 41.0888L7.86579 39.9251L7.30686 39.6085L6.73841 40.912H6.71996L6.14258 39.6174L5.57413 39.9436L6.44972 41.0799V41.0984L5.08008 40.9216V41.5549L6.45865 41.3781V41.3966L5.57413 42.5323L6.10448 42.868L6.71044 41.5549H6.72889L7.28782 42.8585L7.87472 42.5234L6.98067 41.4055V41.387L8.38663 41.5549V40.9216L6.98067 41.1079V41.0888ZM43.1985 2.20847L42.689 2.86264L42.995 3.0555L43.3438 2.29954H43.3545L43.6759 3.05014L44.014 2.85728L43.4991 2.21383V2.20312L44.3086 2.29954V1.93466L43.4991 2.04181V2.03109L44.0087 1.36085L43.6872 1.17871L43.3598 1.92931H43.3491L43.017 1.18407L42.689 1.37157L43.1938 2.02573V2.03645L42.4051 1.93466V2.29954L43.1985 2.19776V2.20847ZM98.5497 17.0109V16.39L97.1705 16.5722V16.5543L98.039 15.4126L97.4908 15.1019L96.9336 16.3805H96.9146L96.3491 15.1109L95.7908 15.4305L96.6503 16.5454V16.5632L95.3069 16.39V17.0109L96.6592 16.8376V16.8555L95.7908 17.9698L96.3116 18.299L96.9063 17.0109H96.9235L97.4717 18.29L98.0479 17.9609L97.1705 16.8644V16.8466L98.5497 17.0109ZM64.9944 10.5989L65.7432 9.61442L65.2706 9.34597L64.7902 10.4489H64.7741L64.2854 9.35371L63.8045 9.6299L64.5456 10.5912V10.6073L63.3866 10.4573V10.993L64.5533 10.8436V10.8591L63.8045 11.8204L64.2533 12.1043L64.7664 10.993H64.7819L65.2545 12.096L65.7509 11.8126L64.9944 10.8668V10.8513L66.1842 10.993V10.4573L64.9944 10.615V10.5989Z" fill="#CC9933"/>
</g>
<defs>
<clipPath id="clip0_4436_8159">
<rect width="100" height="100" fill="white" transform="translate(0.5)"/>
</clipPath>
</defs>
</svg>
