<svg width="24" height="24" viewBox="0 0 24 24" fill="none" xmlns="http://www.w3.org/2000/svg">
<g clip-path="url(#clip0_4139_8718)">
<path opacity="0.993" fill-rule="evenodd" clip-rule="evenodd" d="M11.6503 -0.0234375C11.8846 -0.0234375 12.119 -0.0234375 12.3534 -0.0234375C15.1685 0.938494 17.9654 1.96193 20.744 3.04688C21.1531 3.23724 21.4734 3.5263 21.705 3.91406C22.3201 7.56047 22.3982 11.2167 21.9393 14.8828C21.6465 15.8593 21.1933 16.7499 20.58 17.5547C19.5548 18.8455 18.3907 19.9939 17.0878 21C15.6142 22.1587 14.036 23.1509 12.3534 23.9766C12.119 23.9766 11.8846 23.9766 11.6503 23.9766C8.79155 22.5646 6.26813 20.6896 4.07996 18.3516C3.38921 17.5803 2.82671 16.721 2.39246 15.7734C2.02325 14.793 1.82013 13.7774 1.78308 12.7266C1.59668 9.92545 1.75294 7.14417 2.25183 4.38281C2.36048 3.64867 2.77454 3.17211 3.49402 2.95312C6.19763 1.9088 8.91638 0.916613 11.6503 -0.0234375ZM11.8378 8.03906C13.1569 8.08481 13.9928 8.74106 14.3456 10.0078C14.5049 11.1413 14.0986 12.0007 13.1268 12.5859C13.1243 13.4477 13.0931 14.3071 13.0331 15.1641C12.6885 15.8414 12.165 16.0367 11.4628 15.75C11.1493 15.5456 10.9696 15.2565 10.9237 14.8828C10.9081 14.1328 10.8924 13.3828 10.8768 12.6328C9.81642 11.984 9.4102 11.0465 9.65808 9.82031C10.0152 8.76741 10.7417 8.17364 11.8378 8.03906Z" fill="#031A6B"/>
</g>
<defs>
<clipPath id="clip0_4139_8718">
<rect width="24" height="24" fill="white"/>
</clipPath>
</defs>
</svg>
