<svg width="24" height="24" viewBox="0 0 24 24" fill="none" xmlns="http://www.w3.org/2000/svg">
<path opacity="0.989" fill-rule="evenodd" clip-rule="evenodd" d="M10.9453 -0.0234375C11.6328 -0.0234375 12.3203 -0.0234375 13.0078 -0.0234375C17.7097 0.561759 21.0613 2.99926 23.0625 7.28906C23.5452 8.4697 23.8499 9.68845 23.9766 10.9453C23.9766 11.6328 23.9766 12.3203 23.9766 13.0078C23.3915 17.7096 20.954 21.0612 16.6641 23.0625C15.4836 23.5451 14.2648 23.8498 13.0078 23.9766C12.3203 23.9766 11.6328 23.9766 10.9453 23.9766C6.24342 23.3914 2.89186 20.9539 0.890625 16.6641C0.407968 15.4834 0.103281 14.2647 -0.0234375 13.0078C-0.0234375 12.3203 -0.0234375 11.6328 -0.0234375 10.9453C0.561661 6.24352 2.99916 2.89194 7.28906 0.890625C8.46956 0.407997 9.68831 0.103309 10.9453 -0.0234375ZM11.6016 3.58594C13.6524 3.55264 15.0352 4.49014 15.75 6.39844C16.2136 8.60381 15.4402 10.2054 13.4297 11.2031C11.3973 11.833 9.78009 11.2783 8.57812 9.53906C7.64508 7.64498 7.93416 5.96531 9.44531 4.5C10.0858 3.99977 10.8045 3.69509 11.6016 3.58594ZM9.16406 13.4766C11.0391 13.4687 12.9141 13.4766 14.7891 13.5C16.5789 13.821 17.7117 14.8601 18.1875 16.6172C18.4645 17.6776 18.1442 18.498 17.2266 19.0781C14.6438 20.8736 11.8626 21.2643 8.88281 20.25C7.75814 19.833 6.78159 19.2002 5.95312 18.3516C5.64403 17.7849 5.58155 17.1912 5.76562 16.5703C6.27019 14.8388 7.40302 13.8075 9.16406 13.4766Z" fill="#0F0F0F"/>
</svg>
