<svg width="24" height="24" viewBox="0 0 24 24" fill="none" xmlns="http://www.w3.org/2000/svg">
<g clip-path="url(#clip0_796_13782)">
<path opacity="0.985" fill-rule="evenodd" clip-rule="evenodd" d="M15.0702 -0.0234375C16.1639 -0.0234375 17.2577 -0.0234375 18.3514 -0.0234375C18.9855 0.173026 19.4308 0.579277 19.6874 1.19531C19.7557 2.23971 19.7791 3.28658 19.7577 4.33594C19.2889 4.33594 18.8202 4.33594 18.3514 4.33594C18.3725 3.42712 18.3491 2.52088 18.2811 1.61719C18.1985 1.48744 18.0813 1.41712 17.9295 1.40625C17.1171 1.375 16.3045 1.375 15.492 1.40625C15.3403 1.41712 15.2231 1.48744 15.1405 1.61719C15.0725 2.52088 15.0491 3.42712 15.0702 4.33594C14.6014 4.33594 14.1327 4.33594 13.6639 4.33594C13.6425 3.28658 13.6659 2.23971 13.7342 1.19531C13.9927 0.578822 14.438 0.17257 15.0702 -0.0234375Z" fill="#0F0F0F"/>
<path opacity="0.995" fill-rule="evenodd" clip-rule="evenodd" d="M23.9766 6.96095C23.9766 11.7578 23.9766 16.5547 23.9766 21.3516C23.7559 22.0408 23.2871 22.4471 22.5703 22.5703C22.5781 22.8988 22.5703 23.2269 22.5469 23.5547C22.4678 23.7509 22.335 23.8915 22.1484 23.9766C21.9609 23.9766 21.7734 23.9766 21.5859 23.9766C21.3994 23.8915 21.2666 23.7509 21.1875 23.5547C21.1641 23.2269 21.1563 22.8988 21.1641 22.5703C18.1953 22.5703 15.2266 22.5703 12.2578 22.5703C12.2656 22.8988 12.2578 23.2269 12.2344 23.5547C12.1553 23.7509 12.0225 23.8915 11.8359 23.9766C11.6484 23.9766 11.4609 23.9766 11.2734 23.9766C11.0869 23.8915 10.9541 23.7509 10.875 23.5547C10.8516 23.2269 10.8438 22.8988 10.8516 22.5703C10.1356 22.456 9.67464 22.0498 9.46876 21.3516C9.4375 16.5547 9.4375 11.7578 9.46876 6.96095C9.67825 6.26711 10.1392 5.85306 10.8516 5.71876C14.7578 5.6875 18.6641 5.6875 22.5703 5.71876C23.2835 5.86196 23.7523 6.27601 23.9766 6.96095ZM12.8203 7.6172C13.3027 7.60731 13.5761 7.84168 13.6406 8.32032C13.6719 12.2109 13.6719 16.1016 13.6406 19.9922C13.4736 20.6498 13.0908 20.8138 12.4922 20.4844C12.3644 20.3458 12.2941 20.1818 12.2813 19.9922C12.25 16.1016 12.25 12.2109 12.2813 8.32032C12.3147 7.96736 12.4944 7.73298 12.8203 7.6172ZM20.3203 7.6172C20.8027 7.60731 21.0761 7.84168 21.1406 8.32032C21.1719 12.2109 21.1719 16.1016 21.1406 19.9922C20.9736 20.6498 20.5908 20.8138 19.9922 20.4844C19.8644 20.3458 19.7941 20.1818 19.7813 19.9922C19.75 16.1016 19.75 12.2109 19.7813 8.32032C19.8147 7.96736 19.9944 7.73298 20.3203 7.6172Z" fill="black"/>
<path opacity="0.956" fill-rule="evenodd" clip-rule="evenodd" d="M6.67872 6.0234C7.24206 6.00784 7.80456 6.02345 8.36622 6.07028C8.16733 6.50223 8.05797 6.95537 8.03809 7.42965C7.64842 7.46865 7.25776 7.49209 6.86622 7.49997C6.66976 7.5557 6.56823 7.68855 6.56153 7.8984C6.53809 8.27308 6.53031 8.64808 6.53809 9.0234C6.06934 9.0234 5.60059 9.0234 5.13184 9.0234C5.12401 8.49194 5.13184 7.96065 5.15528 7.42965C5.3898 6.65575 5.89759 6.187 6.67872 6.0234Z" fill="black"/>
<path opacity="0.995" fill-rule="evenodd" clip-rule="evenodd" d="M2.36719 23.9766C2.17969 23.9766 1.99219 23.9766 1.80469 23.9766C1.61818 23.8915 1.48537 23.7509 1.40625 23.5547C1.38283 23.2269 1.37502 22.8988 1.38281 22.5703C0.665991 22.4471 0.197241 22.0408 -0.0234375 21.3516C-0.0234375 18.1172 -0.0234375 14.8828 -0.0234375 11.6484C0.154337 10.9942 0.576211 10.5801 1.24219 10.4063C3.50776 10.3828 5.77341 10.375 8.03906 10.3828C8.03123 13.8985 8.03906 17.4141 8.0625 20.9297C8.07089 21.5184 8.23495 22.0575 8.55469 22.5469C6.63286 22.5703 4.71098 22.5781 2.78906 22.5703C2.79686 22.8988 2.78904 23.2269 2.76562 23.5547C2.68651 23.7509 2.55369 23.8915 2.36719 23.9766ZM3.25781 12.3047C3.76977 12.2436 4.07446 12.4624 4.17188 12.9609C4.20313 15.3047 4.20313 17.6484 4.17188 19.9922C4.00487 20.6498 3.62206 20.8138 3.02344 20.4844C2.8956 20.3458 2.82529 20.1818 2.8125 19.9922C2.78125 17.6484 2.78125 15.3047 2.8125 12.9609C2.85747 12.6667 3.00591 12.4479 3.25781 12.3047Z" fill="black"/>
</g>
<defs>
<clipPath id="clip0_796_13782">
<rect width="24" height="24" fill="white"/>
</clipPath>
</defs>
</svg>
