<svg width="280" height="280" viewBox="0 0 280 280" fill="none" xmlns="http://www.w3.org/2000/svg">
<path d="M52.3383 152.18C3.9263 180.13 3.9263 225.45 52.3383 253.4C100.75 281.35 179.245 281.35 227.657 253.4C276.069 225.45 276.069 180.13 227.657 152.18C179.245 124.23 100.75 124.23 52.3383 152.18Z" fill="#FAFAFA"/>
<path d="M130.834 183.882L28.1744 243.152C27.2673 243.673 25.688 243.611 24.6464 243.006L17.8984 239.109C16.8512 238.504 16.7393 237.591 17.6465 237.07L120.3 177.8C121.207 177.279 122.786 177.341 123.828 177.946L130.576 181.843C131.623 182.448 131.735 183.361 130.828 183.882H130.834Z" fill="#E0E0E0"/>
<path d="M200.032 250.902C222.424 250.902 240.576 240.422 240.576 227.494C240.576 214.567 222.424 204.086 200.032 204.086C177.64 204.086 159.488 214.567 159.488 227.494C159.488 240.422 177.64 250.902 200.032 250.902Z" fill="#E0E0E0"/>
<path d="M102.329 256.334L180.32 211.288C181.339 210.7 181.339 209.742 180.32 209.154L140.706 186.306C139.687 185.718 138.035 185.718 137.015 186.306L59.0242 231.353C58.005 231.941 58.005 232.898 59.0242 233.486L98.6386 256.334C99.6578 256.922 101.31 256.922 102.329 256.334Z" fill="#E0E0E0"/>
<path d="M222.264 211.389L231.201 216.552C231.084 213.36 230.804 208.617 231.246 205.419C233.945 185.881 241.556 179.435 245.179 169.926C248.993 159.914 244.339 156.688 238.302 158.491C232.915 160.098 225.125 168.067 222.673 182.65C221.043 192.349 221.329 202.888 222.264 211.394V211.389Z" fill="#031A6B"/>
<path opacity="0.65" d="M222.264 211.389L231.201 216.552C231.084 213.36 230.804 208.617 231.246 205.419C233.945 185.881 241.556 179.435 245.179 169.926C248.993 159.914 244.339 156.688 238.302 158.491C232.915 160.098 225.125 168.067 222.673 182.65C221.043 192.349 221.329 202.888 222.264 211.394V211.389Z" fill="#FEFEFE"/>
<path d="M227.001 214.127L227.897 214.642C224.699 191.862 232.489 172.105 240.177 163.946C240.323 163.789 240.317 163.542 240.161 163.391C239.998 163.246 239.752 163.251 239.606 163.408C231.923 171.573 224.139 191.464 227.001 214.127Z" fill="#FEFEFE"/>
<path d="M228.693 215.102L233.722 218.008C236.399 210.134 239.143 206.976 242.553 201.802C245.661 197.086 249.273 194.169 251.194 190.854C252.896 187.919 254.173 184.234 251.648 182.006C247.627 178.455 242.38 182.213 238.767 186.273C235.648 189.784 229.376 199.125 228.688 215.107L228.693 215.102Z" fill="#031A6B"/>
<path opacity="0.3" d="M228.693 215.102L233.722 218.008C236.399 210.134 239.143 206.976 242.553 201.802C245.661 197.086 249.273 194.169 251.194 190.854C252.896 187.919 254.173 184.234 251.648 182.006C247.627 178.455 242.38 182.213 238.767 186.273C235.648 189.784 229.376 199.125 228.688 215.107L228.693 215.102Z" fill="#FEFEFE"/>
<path d="M230.754 216.294L231.488 216.72C233.599 204.266 242.06 189.851 247.319 186.452C247.504 186.334 247.56 186.082 247.436 185.898C247.319 185.707 247.072 185.657 246.882 185.78C241.439 189.308 233 203.65 230.754 216.3V216.294Z" fill="#FEFEFE"/>
<path d="M119.051 15.1256L24.7913 69.4792C23.8169 70.0392 23.0273 71.4056 23.0273 72.5312V236.13C23.0273 237.255 23.8169 238.616 24.7913 239.176L25.1497 239.378C26.1241 239.938 27.7033 239.932 28.6777 239.372L122.937 184.946C123.911 184.386 124.701 183.014 124.701 181.894V18.368C124.701 17.2424 123.911 15.8816 122.937 15.3216L122.579 15.12C121.604 14.56 120.025 14.5656 119.051 15.1256Z" fill="#031A6B"/>
<path opacity="0.45" d="M119.051 15.1256L24.7913 69.4792C23.8169 70.0392 23.0273 71.4056 23.0273 72.5312V236.13C23.0273 237.255 23.8169 238.616 24.7913 239.176L25.1497 239.378C26.1241 239.938 27.7033 239.932 28.6777 239.372L122.937 184.946C123.911 184.386 124.701 183.014 124.701 181.894V18.368C124.701 17.2424 123.911 15.8816 122.937 15.3216L122.579 15.12C121.604 14.56 120.025 14.5656 119.051 15.1256Z" fill="#0F0F0F"/>
<path d="M124.707 182.022C124.707 183.574 123.621 184.559 122.271 185.332L29.3559 238.974C28.0175 239.747 26.9199 239.126 26.9199 237.569V75.5216C26.9199 73.7912 27.8439 72.1896 29.3447 71.3216L122.266 17.6568C123.346 17.0296 124.702 17.8136 124.702 19.0624V182.022H124.707Z" fill="#031A6B"/>
<path opacity="0.3" d="M124.707 182.022C124.707 183.574 123.621 184.559 122.271 185.332L29.3559 238.974C28.0175 239.747 26.9199 239.126 26.9199 237.569V75.5216C26.9199 73.7912 27.8439 72.1896 29.3447 71.3216L122.266 17.6568C123.346 17.0296 124.702 17.8136 124.702 19.0624V182.022H124.707Z" fill="#0F0F0F"/>
<path d="M124.706 18.368V19.0624C124.706 17.8136 123.351 17.0352 122.265 17.6568L29.3438 71.3216C28.5878 71.7472 27.9886 72.3688 27.5742 73.0912C27.563 73.1136 27.5518 73.1248 27.5462 73.1472L23.5254 70.8232C23.8502 70.2576 24.2926 69.7648 24.7966 69.4792L119.05 15.1256C120.025 14.56 121.609 14.56 122.578 15.12L122.937 15.3272C123.911 15.8816 124.706 17.248 124.706 18.3736V18.368Z" fill="#031A6B"/>
<path opacity="0.2" d="M124.706 18.368V19.0624C124.706 17.8136 123.351 17.0352 122.265 17.6568L29.3438 71.3216C28.5878 71.7472 27.9886 72.3688 27.5742 73.0912C27.563 73.1136 27.5518 73.1248 27.5462 73.1472L23.5254 70.8232C23.8502 70.2576 24.2926 69.7648 24.7966 69.4792L119.05 15.1256C120.025 14.56 121.609 14.56 122.578 15.12L122.937 15.3272C123.911 15.8816 124.706 17.248 124.706 18.3736V18.368Z" fill="#0F0F0F"/>
<path opacity="0.25" d="M122.405 174.882C122.405 176.478 121.285 177.498 119.896 178.293L32.0772 228.995C30.694 229.796 29.5684 229.146 29.5684 227.545V84.5096C29.5684 82.7232 30.5204 81.0768 32.066 80.1808L119.896 29.456C121.011 28.812 122.405 29.6184 122.405 30.9064V174.882Z" fill="#0F0F0F"/>
<path d="M31.8188 82.0848L119.313 31.5672C119.728 31.3264 120.4 31.3264 120.814 31.5672L121.66 32.0544C122.074 32.2952 122.41 32.872 122.41 33.3536V177.094C122.41 177.57 122.074 178.153 121.66 178.394L34.1596 228.906C33.7452 229.146 33.0732 229.146 32.6644 228.906L31.8188 228.418C31.4044 228.178 31.0684 227.601 31.0684 227.119V83.3784C31.0684 82.9024 31.4044 82.32 31.8188 82.0792V82.0848Z" fill="#F5F5F5"/>
<path d="M33.9806 228.99C33.8966 229.023 33.8014 229.046 33.7062 229.062C33.6614 229.068 33.6054 229.074 33.5606 229.079C33.4094 229.09 33.2526 229.085 33.107 229.062C33.0062 229.046 32.9166 229.023 32.8326 228.99C32.7766 228.967 32.715 228.939 32.6646 228.911L31.8246 228.43C31.4102 228.189 31.0742 227.612 31.0742 227.13V83.384C31.0742 83.1432 31.1526 82.8744 31.2926 82.6448L33.6334 83.9944C33.499 84.2296 33.415 84.4984 33.415 84.7336V228.474C33.415 228.883 33.6558 229.085 33.9862 228.99H33.9806Z" fill="#E0E0E0"/>
<path d="M121.66 32.0544L120.814 31.5672C120.4 31.3264 119.728 31.3264 119.319 31.5672L31.8188 82.0848C31.4044 82.3256 31.0684 82.9024 31.0684 83.384V102.777L33.4092 104.138L122.404 52.752V33.348C122.404 32.872 122.068 32.2896 121.654 32.0488L121.66 32.0544Z" fill="#031A6B"/>
<path opacity="0.4" d="M121.66 32.0544L120.814 31.5672C120.4 31.3264 119.728 31.3264 119.319 31.5672L31.8188 82.0848C31.4044 82.3256 31.0684 82.9024 31.0684 83.384V102.777L33.4092 104.138L122.404 52.752V33.348C122.404 32.872 122.068 32.2896 121.654 32.0488L121.66 32.0544Z" fill="#FEFEFE"/>
<path d="M122.377 33.124C122.287 32.816 121.996 32.7208 121.654 32.9168L34.1599 83.4344C33.9527 83.5576 33.7623 83.7592 33.6279 83.9944L31.2871 82.6448C31.4215 82.4096 31.6119 82.2024 31.8191 82.0848L119.319 31.5672C119.728 31.3264 120.406 31.3264 120.814 31.5672L121.66 32.0544C122.013 32.2616 122.304 32.704 122.382 33.124H122.377Z" fill="#031A6B"/>
<path opacity="0.6" d="M122.377 33.124C122.287 32.816 121.996 32.7208 121.654 32.9168L34.1599 83.4344C33.9527 83.5576 33.7623 83.7592 33.6279 83.9944L31.2871 82.6448C31.4215 82.4096 31.6119 82.2024 31.8191 82.0848L119.319 31.5672C119.728 31.3264 120.406 31.3264 120.814 31.5672L121.66 32.0544C122.013 32.2616 122.304 32.704 122.382 33.124H122.377Z" fill="#FEFEFE"/>
<path d="M31.0684 83.384V102.782L33.4092 104.132V84.728C33.4092 84.4928 33.4932 84.224 33.6276 83.9888L31.2868 82.6392C31.1468 82.8688 31.0684 83.1376 31.0684 83.3784V83.384Z" fill="#031A6B"/>
<path d="M51.1558 109.995L104.753 78.9656C104.989 78.8312 105.179 78.9376 105.179 79.212V79.7664C105.179 80.0408 104.989 80.3712 104.753 80.5056L51.1502 111.535C50.915 111.67 50.7246 111.563 50.7246 111.289V110.734C50.7246 110.46 50.915 110.13 51.1502 109.995H51.1558Z" fill="#031A6B"/>
<path d="M53.334 133.006V133.79C53.334 134.215 53.6308 134.383 54.0004 134.176L89.3252 113.809C89.6948 113.596 89.9916 113.081 89.9916 112.655V111.871C89.9916 111.446 89.6948 111.278 89.3252 111.485L54.0004 131.858C53.6308 132.07 53.334 132.586 53.334 133.011V133.006Z" fill="#E0E0E0"/>
<path d="M53.334 137.939V138.723C53.334 139.149 53.6308 139.317 54.0004 139.11L114.671 104.098C115.04 103.886 115.337 103.37 115.337 102.945V102.161C115.337 101.735 115.04 101.567 114.671 101.774L54.0004 136.786C53.6308 136.998 53.334 137.514 53.334 137.939Z" fill="#E0E0E0"/>
<path d="M53.334 142.632V143.416C53.334 143.842 53.6308 144.01 54.0004 143.802L114.671 108.791C115.04 108.578 115.337 108.063 115.337 107.638V106.854C115.337 106.428 115.04 106.26 114.671 106.467L54.0004 141.478C53.6308 141.691 53.334 142.206 53.334 142.632Z" fill="#E0E0E0"/>
<path d="M39.564 152.438C39.5024 152.438 39.4464 152.421 39.3904 152.393C39.284 152.331 39.2168 152.219 39.2168 152.096V140.767C39.2168 140.644 39.284 140.532 39.3904 140.47L49.1344 134.848C49.2408 134.786 49.3696 134.786 49.476 134.848C49.5824 134.91 49.6496 135.022 49.6496 135.145V146.474C49.6496 146.597 49.5824 146.709 49.476 146.77L39.7376 152.393C39.6872 152.426 39.6256 152.438 39.564 152.438ZM39.9056 140.963V151.502L48.9608 146.272V135.733L39.9056 140.963Z" fill="#455A64"/>
<path d="M44.3129 147.14L42.0449 144.962L42.8009 143.354L44.0945 144.598L49.6777 132.776L50.6521 133.717L44.3129 147.14Z" fill="#031A6B"/>
<path d="M53.334 150.741V151.525C53.334 151.95 53.6308 152.118 54.0004 151.911L89.3252 131.544C89.6948 131.331 89.9916 130.816 89.9916 130.39V129.606C89.9916 129.181 89.6948 129.013 89.3252 129.22L54.0004 149.593C53.6308 149.806 53.334 150.321 53.334 150.746V150.741Z" fill="#E0E0E0"/>
<path d="M53.334 155.674V156.458C53.334 156.884 53.6308 157.052 54.0004 156.845L114.671 121.834C115.04 121.621 115.337 121.106 115.337 120.68V119.896C115.337 119.47 115.04 119.302 114.671 119.51L54.0004 154.521C53.6308 154.734 53.334 155.249 53.334 155.674Z" fill="#E0E0E0"/>
<path d="M53.334 160.373V161.157C53.334 161.582 53.6308 161.75 54.0004 161.543L114.671 126.532C115.04 126.319 115.337 125.804 115.337 125.378V124.594C115.337 124.169 115.04 124.001 114.671 124.208L54.0004 159.219C53.6308 159.432 53.334 159.947 53.334 160.373Z" fill="#E0E0E0"/>
<path d="M39.564 170.173C39.5024 170.173 39.4464 170.156 39.3904 170.128C39.284 170.066 39.2168 169.954 39.2168 169.831V158.502C39.2168 158.379 39.284 158.267 39.3904 158.206L49.1344 152.583C49.2408 152.522 49.3696 152.522 49.476 152.583C49.5824 152.645 49.6496 152.757 49.6496 152.88V164.209C49.6496 164.332 49.5824 164.444 49.476 164.506L39.7376 170.128C39.6872 170.162 39.6256 170.173 39.564 170.173ZM39.9056 158.698V169.238L48.9608 164.007V153.468L39.9056 158.698Z" fill="#455A64"/>
<path d="M44.3129 164.875L42.0449 162.697L42.8009 161.09L44.0945 162.333L49.6777 150.517L50.6521 151.452L44.3129 164.875Z" fill="#031A6B"/>
<path d="M53.334 168.482V169.266C53.334 169.691 53.6308 169.859 54.0004 169.652L89.3252 149.285C89.6948 149.072 89.9916 148.557 89.9916 148.131V147.347C89.9916 146.922 89.6948 146.754 89.3252 146.961L54.0004 167.334C53.6308 167.546 53.334 168.062 53.334 168.487V168.482Z" fill="#E0E0E0"/>
<path d="M53.334 173.41V174.194C53.334 174.619 53.6308 174.787 54.0004 174.58L114.671 139.569C115.04 139.356 115.337 138.841 115.337 138.415V137.631C115.337 137.206 115.04 137.038 114.671 137.245L54.0004 172.256C53.6308 172.469 53.334 172.984 53.334 173.41Z" fill="#E0E0E0"/>
<path d="M53.334 178.108V178.892C53.334 179.318 53.6308 179.486 54.0004 179.278L114.671 144.267C115.04 144.054 115.337 143.539 115.337 143.114V142.33C115.337 141.904 115.04 141.736 114.671 141.943L54.0004 176.954C53.6308 177.167 53.334 177.682 53.334 178.108Z" fill="#E0E0E0"/>
<path d="M39.564 187.908C39.5024 187.908 39.4464 187.891 39.3904 187.863C39.284 187.802 39.2168 187.69 39.2168 187.566V176.238C39.2168 176.114 39.284 176.002 39.3904 175.941L49.1344 170.318C49.2408 170.257 49.3696 170.257 49.476 170.318C49.5824 170.38 49.6496 170.492 49.6496 170.615V181.944C49.6496 182.067 49.5824 182.179 49.476 182.241L39.7376 187.863C39.6872 187.891 39.6256 187.908 39.564 187.908ZM39.9056 176.434V186.973L48.9608 181.742V171.203L39.9056 176.434Z" fill="#455A64"/>
<path d="M44.3129 182.616L42.0449 180.432L42.8009 178.83L44.0945 180.068L49.6777 168.252L50.6521 169.193L44.3129 182.616Z" fill="#031A6B"/>
<path d="M53.334 186.217V187.001C53.334 187.426 53.6308 187.594 54.0004 187.387L89.3252 167.02C89.6948 166.807 89.9916 166.292 89.9916 165.866V165.082C89.9916 164.657 89.6948 164.489 89.3252 164.696L54.0004 185.069C53.6308 185.282 53.334 185.797 53.334 186.222V186.217Z" fill="#E0E0E0"/>
<path d="M53.334 191.15V191.934C53.334 192.36 53.6308 192.528 54.0004 192.321L114.671 157.31C115.04 157.097 115.337 156.582 115.337 156.156V155.372C115.337 154.946 115.04 154.778 114.671 154.986L54.0004 189.997C53.6308 190.21 53.334 190.725 53.334 191.15Z" fill="#E0E0E0"/>
<path d="M53.334 195.843V196.627C53.334 197.053 53.6308 197.221 54.0004 197.014L114.671 162.002C115.04 161.79 115.337 161.274 115.337 160.849V160.065C115.337 159.639 115.04 159.471 114.671 159.678L54.0004 194.69C53.6308 194.902 53.334 195.418 53.334 195.843Z" fill="#E0E0E0"/>
<path d="M39.564 205.649C39.5024 205.649 39.4464 205.632 39.3904 205.604C39.284 205.542 39.2168 205.43 39.2168 205.307V193.978C39.2168 193.855 39.284 193.743 39.3904 193.682L49.1344 188.059C49.2408 187.998 49.3696 187.998 49.476 188.059C49.5824 188.121 49.6496 188.233 49.6496 188.356V199.685C49.6496 199.808 49.5824 199.92 49.476 199.982L39.7376 205.604C39.6872 205.638 39.6256 205.649 39.564 205.649ZM39.9056 194.174V204.714L48.9608 199.483V188.944L39.9056 194.174Z" fill="#455A64"/>
<path d="M44.3129 200.351L42.0449 198.173L42.8009 196.566L44.0945 197.809L49.6777 185.987L50.6521 186.928L44.3129 200.351Z" fill="#031A6B"/>
<path d="M39.2224 124.135V124.919C39.2224 125.345 39.5192 125.513 39.8888 125.306L114.671 82.1184C115.041 81.9056 115.338 81.3904 115.338 80.9648V80.1808C115.338 79.7552 115.041 79.5872 114.671 79.7944L39.8832 122.987C39.5136 123.2 39.2168 123.715 39.2168 124.141L39.2224 124.135Z" fill="#E0E0E0"/>
<path d="M39.2224 129.119V129.903C39.2224 130.329 39.5192 130.497 39.8888 130.29L114.671 87.1024C115.041 86.8896 115.338 86.3744 115.338 85.9488V85.1648C115.338 84.7392 115.041 84.5712 114.671 84.7784L39.8832 127.966C39.5136 128.178 39.2168 128.694 39.2168 129.119H39.2224Z" fill="#E0E0E0"/>
<path d="M39.2224 134.103V134.887C39.2224 135.313 39.5192 135.481 39.8888 135.274L114.671 92.0864C115.041 91.8736 115.338 91.3584 115.338 90.9328V90.1488C115.338 89.7232 115.041 89.5552 114.671 89.7624L39.8832 132.95C39.5136 133.162 39.2168 133.678 39.2168 134.103H39.2224Z" fill="#E0E0E0"/>
<path d="M39.2224 212.268V213.052C39.2224 213.478 39.5192 213.646 39.8888 213.438L114.671 170.251C115.041 170.038 115.338 169.523 115.338 169.098V168.314C115.338 167.888 115.041 167.72 114.671 167.927L39.8832 211.114C39.5136 211.327 39.2168 211.842 39.2168 212.268H39.2224Z" fill="#E0E0E0"/>
<path d="M39.2224 217.246V218.03C39.2224 218.456 39.5192 218.624 39.8888 218.417L114.671 175.23C115.041 175.017 115.338 174.502 115.338 174.076V173.292C115.338 172.866 115.041 172.698 114.671 172.906L39.8832 216.093C39.5136 216.306 39.2168 216.821 39.2168 217.246H39.2224Z" fill="#E0E0E0"/>
<path d="M40.0176 90.104L70.6552 72.4024C71.0976 72.1448 71.456 72.352 71.456 72.8616V73.0968C71.456 73.6064 71.0976 74.228 70.6552 74.48L40.0176 92.1816C39.5752 92.4392 39.2168 92.232 39.2168 91.7224V91.4872C39.2168 90.9776 39.5752 90.356 40.0176 90.104Z" fill="#FAFAFA"/>
<path d="M40.0176 94.2928L58.2456 83.7704C58.688 83.5128 59.0464 83.72 59.0464 84.2296V84.4648C59.0464 84.9744 58.688 85.596 58.2456 85.848L40.0176 96.3704C39.5752 96.628 39.2168 96.4208 39.2168 95.9112V95.676C39.2168 95.1664 39.5752 94.5448 40.0176 94.2928Z" fill="#FAFAFA"/>
<path d="M101.31 54.4488L114.935 46.5752C115.153 46.4464 115.332 46.5528 115.332 46.8048V47.3256C115.332 47.5776 115.153 47.8912 114.935 48.0144L101.31 55.888C101.091 56.0168 100.912 55.9104 100.912 55.6584V55.1376C100.912 54.8856 101.091 54.572 101.31 54.4488Z" fill="#031A6B"/>
<path d="M101.31 60.732L114.935 52.8584C115.153 52.7296 115.332 52.836 115.332 53.088V53.6088C115.332 53.8608 115.153 54.1744 114.935 54.2976L101.31 62.1712C101.091 62.3 100.912 62.1936 100.912 61.9416V61.4208C100.912 61.1688 101.091 60.8552 101.31 60.732Z" fill="#031A6B"/>
<path d="M104.12 55.9496L114.934 49.7056C115.152 49.5768 115.331 49.6832 115.331 49.9352V50.456C115.331 50.708 115.152 51.0216 114.934 51.1448L104.12 57.3888C103.902 57.5176 103.723 57.4112 103.723 57.1592V56.6384C103.723 56.3864 103.902 56.0728 104.12 55.9496Z" fill="#031A6B"/>
<path d="M52.1978 107.509C52.1306 107.548 52.0746 107.542 52.0298 107.498C51.9794 107.453 51.957 107.38 51.957 107.274V98.3136C51.957 98.2128 51.9794 98.112 52.0298 98.0112C52.0802 97.9104 52.1362 97.8376 52.1978 97.804L52.9258 97.384C52.993 97.3448 53.049 97.3504 53.0994 97.3952C53.1498 97.44 53.1722 97.5128 53.1722 97.6192V106.579C53.1722 106.68 53.1498 106.781 53.0994 106.887C53.049 106.988 52.993 107.061 52.9258 107.094L52.1978 107.514V107.509Z" fill="#455A64"/>
<path d="M58.6661 103.774C58.5653 103.835 58.4869 103.835 58.4309 103.785C58.3749 103.734 58.3357 103.69 58.3133 103.656L55.7933 99.344V105.056C55.7933 105.157 55.7709 105.258 55.7205 105.364C55.6757 105.465 55.6141 105.538 55.5525 105.571L54.8245 105.991C54.7573 106.03 54.7013 106.025 54.6509 105.98C54.6061 105.935 54.5781 105.862 54.5781 105.756V96.796C54.5781 96.6952 54.6005 96.5944 54.6509 96.4936C54.7013 96.3928 54.7573 96.32 54.8245 96.2864L55.4573 95.9224C55.5581 95.8608 55.6365 95.8608 55.6925 95.9112C55.7485 95.9616 55.7877 96.0064 55.8101 96.04L58.3301 100.352V94.64C58.3301 94.5392 58.3525 94.4384 58.4029 94.3376C58.4533 94.2368 58.5093 94.164 58.5709 94.1304L59.2989 93.7104C59.3661 93.6712 59.4221 93.6768 59.4725 93.7216C59.5229 93.7664 59.5453 93.8392 59.5453 93.9456V102.906C59.5453 103.006 59.5229 103.107 59.4725 103.214C59.4221 103.314 59.3661 103.387 59.2989 103.421L58.6661 103.785V103.774Z" fill="#455A64"/>
<path d="M63.1057 91.364C63.5089 91.1344 63.8617 91.0112 64.1697 91C64.4777 90.9888 64.7297 91.0504 64.9369 91.1848C65.1441 91.3192 65.2953 91.504 65.4017 91.7392C65.5081 91.98 65.5641 92.232 65.5753 92.4896C65.5809 92.596 65.5585 92.7024 65.5081 92.7976C65.4577 92.8984 65.3961 92.9656 65.3345 93.0048L64.7017 93.3688C64.6009 93.4304 64.5225 93.4416 64.4721 93.4136C64.4217 93.3856 64.3769 93.3296 64.3321 93.2512C64.2425 93.072 64.1025 92.9488 63.9233 92.8872C63.7385 92.82 63.4697 92.8928 63.1113 93.1C62.9545 93.1896 62.8089 93.3016 62.6633 93.436C62.5233 93.5704 62.4001 93.7104 62.2937 93.8728C62.1873 94.0296 62.1033 94.1976 62.0473 94.3712C61.9857 94.5448 61.9577 94.7184 61.9577 94.8976C61.9577 95.1104 61.9857 95.2672 62.0417 95.368C62.0977 95.4688 62.1929 95.5304 62.3329 95.5472C62.4673 95.564 62.6465 95.5528 62.8705 95.508C63.0945 95.4632 63.3689 95.4016 63.6993 95.3232C64.0577 95.2336 64.3713 95.1944 64.6289 95.2056C64.8921 95.2168 65.1049 95.2896 65.2673 95.4184C65.4297 95.5472 65.5585 95.7376 65.6369 95.9896C65.7153 96.236 65.7601 96.5552 65.7601 96.9304C65.7601 97.3448 65.6985 97.7648 65.5809 98.1904C65.4577 98.616 65.2897 99.0192 65.0657 99.4C64.8417 99.7808 64.5673 100.145 64.2481 100.475C63.9233 100.811 63.5593 101.097 63.1561 101.326C62.8201 101.522 62.5009 101.646 62.1929 101.696C61.8849 101.746 61.6161 101.724 61.3753 101.623C61.1401 101.522 60.9497 101.349 60.8041 101.102C60.6585 100.856 60.5801 100.531 60.5633 100.134C60.5577 100.027 60.5801 99.9208 60.6305 99.8256C60.6809 99.7248 60.7425 99.6576 60.8097 99.6184L61.4369 99.2544C61.5377 99.1928 61.6161 99.176 61.6721 99.204C61.7281 99.2264 61.7729 99.2824 61.8065 99.3776C61.8457 99.4728 61.9017 99.5624 61.9577 99.652C62.0193 99.736 62.0977 99.7976 62.1985 99.8312C62.2993 99.8648 62.4281 99.8648 62.5793 99.8368C62.7305 99.8088 62.9209 99.7304 63.1505 99.596C63.3297 99.4896 63.5033 99.372 63.6713 99.232C63.8393 99.092 63.9849 98.9408 64.1137 98.7672C64.2425 98.5992 64.3433 98.42 64.4217 98.2296C64.5001 98.0392 64.5393 97.8432 64.5393 97.6304C64.5393 97.4176 64.4945 97.2832 64.4161 97.2048C64.3321 97.1264 64.2033 97.0872 64.0353 97.0928C63.8617 97.0984 63.6545 97.132 63.4025 97.1936C63.1505 97.2552 62.8593 97.3168 62.5289 97.3784C62.2265 97.44 61.9689 97.4624 61.7393 97.44C61.5153 97.4176 61.3305 97.3392 61.1793 97.1992C61.0337 97.0648 60.9217 96.8632 60.8489 96.6056C60.7761 96.348 60.7425 96.012 60.7425 95.592C60.7425 95.172 60.8041 94.7576 60.9217 94.3376C61.0449 93.9176 61.2073 93.52 61.4145 93.1504C61.6273 92.7808 61.8737 92.4392 62.1649 92.1256C62.4561 91.812 62.7697 91.56 63.1057 91.3696V91.364Z" fill="#455A64"/>
<path d="M71.6512 86.5648C71.7184 86.5256 71.7744 86.5312 71.8248 86.576C71.8696 86.6208 71.8976 86.6936 71.8976 86.8V92.484C71.8976 93.0552 71.8416 93.604 71.7352 94.1304C71.6288 94.6568 71.4664 95.144 71.248 95.6032C71.0296 96.0624 70.7608 96.4712 70.436 96.8408C70.1112 97.2104 69.736 97.5184 69.3104 97.7592C68.8792 98.0112 68.4984 98.1344 68.1792 98.14C67.86 98.14 67.5912 98.0448 67.3728 97.8376C67.16 97.6304 66.9976 97.3224 66.8912 96.9248C66.7848 96.5216 66.7344 96.0344 66.7344 95.4632V89.7792C66.7344 89.6784 66.7568 89.5776 66.8072 89.4768C66.852 89.376 66.9136 89.3032 66.9808 89.2696L67.7088 88.8496C67.776 88.8104 67.832 88.816 67.8824 88.8608C67.9272 88.9056 67.9552 88.9784 67.9552 89.0848V94.7016C67.9552 95.0824 67.9888 95.3848 68.056 95.6144C68.1232 95.844 68.2128 96.012 68.336 96.1128C68.4592 96.2136 68.5992 96.2584 68.7672 96.236C68.9352 96.2192 69.12 96.152 69.316 96.0344C69.512 95.9224 69.6968 95.7768 69.8704 95.5976C70.044 95.4184 70.1896 95.2112 70.3072 94.9704C70.4248 94.7296 70.52 94.4552 70.5928 94.1472C70.66 93.8392 70.6992 93.4976 70.6992 93.1168V87.5C70.6992 87.3992 70.7216 87.2984 70.772 87.1976C70.8168 87.0968 70.8784 87.024 70.94 86.9904L71.6624 86.576L71.6512 86.5648Z" fill="#455A64"/>
<path d="M75.8243 84.1568C76.5747 83.7256 77.1459 83.664 77.5379 83.972C77.9299 84.2856 78.1259 84.9128 78.1259 85.8648C78.1259 86.5424 78.0251 87.1752 77.8235 87.7632C77.6219 88.3568 77.3251 88.8776 76.9387 89.3368L78.1819 92.0472C78.1987 92.092 78.2099 92.1368 78.2099 92.1816C78.2099 92.2656 78.1875 92.3496 78.1539 92.428C78.1147 92.512 78.0699 92.568 78.0139 92.6016L77.2467 93.044C77.1291 93.1112 77.0395 93.1224 76.9779 93.0664C76.9219 93.0104 76.8827 92.9544 76.8547 92.8928L75.6731 90.3448L74.4747 91.0336V94.2648C74.4747 94.3656 74.4523 94.4664 74.4019 94.5728C74.3571 94.6736 74.2955 94.7464 74.2283 94.78L73.5003 95.2C73.4331 95.2392 73.3771 95.2336 73.3267 95.1888C73.2819 95.144 73.2539 95.0712 73.2539 94.9648V86.0048C73.2539 85.904 73.2763 85.8032 73.3267 85.7024C73.3771 85.6016 73.4331 85.5288 73.5003 85.4952L75.8243 84.1512V84.1568ZM74.4747 89.3032L75.7795 88.5472C76.1211 88.3512 76.3955 88.0992 76.5971 87.7968C76.8043 87.4944 76.9051 87.0856 76.9051 86.5648C76.9051 86.044 76.8043 85.7584 76.5971 85.7024C76.3955 85.6464 76.1211 85.7136 75.7795 85.9096L74.4747 86.6656V89.3032Z" fill="#455A64"/>
<path d="M82.2535 80.444C82.3487 80.388 82.4215 80.388 82.4719 80.4384C82.5223 80.4888 82.5615 80.584 82.6007 80.7184L84.8071 88.2112C84.8071 88.2112 84.8183 88.2672 84.8183 88.3008C84.8183 88.4016 84.7959 88.5024 84.7455 88.6088C84.6951 88.7096 84.6391 88.7824 84.5719 88.816L83.9223 89.1912C83.8047 89.2584 83.7207 89.2696 83.6703 89.2192C83.6199 89.1688 83.5919 89.1128 83.5695 89.0456L83.1831 87.7296L80.3383 89.3704L79.9519 91.1344C79.9351 91.2184 79.9015 91.3136 79.8511 91.42C79.8007 91.5264 79.7167 91.616 79.5991 91.6832L78.9495 92.0584C78.8823 92.0976 78.8263 92.092 78.7759 92.0472C78.7255 92.0024 78.7031 91.9296 78.7031 91.8232C78.7031 91.784 78.7031 91.7504 78.7143 91.7224L80.9207 81.6816C80.9543 81.5024 80.9991 81.3624 81.0439 81.256C81.0943 81.1496 81.1671 81.0712 81.2623 81.0152L82.2535 80.444ZM82.7463 86.2456L81.7551 82.8632L80.7639 87.388L82.7463 86.2456Z" fill="#455A64"/>
<path d="M89.7228 85.8424C89.622 85.904 89.5436 85.904 89.4876 85.8536C89.4316 85.8032 89.3924 85.7584 89.37 85.7248L86.85 81.4128V87.1248C86.85 87.2256 86.8276 87.3264 86.7772 87.4328C86.7324 87.5336 86.6708 87.6064 86.6092 87.64L85.8812 88.06C85.814 88.0992 85.758 88.0936 85.7076 88.0488C85.6628 88.004 85.6348 87.9312 85.6348 87.8248V78.8648C85.6348 78.764 85.6572 78.6632 85.7076 78.5624C85.758 78.4616 85.814 78.3888 85.8812 78.3552L86.514 77.9912C86.6148 77.9296 86.6932 77.9296 86.7492 77.98C86.8052 78.0304 86.8444 78.0752 86.8668 78.1088L89.3868 82.4208V76.7088C89.3868 76.608 89.4092 76.5072 89.4596 76.4064C89.51 76.3056 89.566 76.2328 89.6332 76.1992L90.3612 75.7792C90.4284 75.74 90.4844 75.7456 90.5348 75.7904C90.5852 75.8352 90.6076 75.908 90.6076 76.0144V84.9744C90.6076 85.0752 90.5852 85.176 90.5348 85.2824C90.4844 85.3888 90.4284 85.456 90.3612 85.4896L89.7284 85.8536L89.7228 85.8424Z" fill="#455A64"/>
<path d="M95.8719 79.212C95.8831 79.0832 95.9167 78.9768 95.9671 78.8872C96.0175 78.7976 96.0735 78.736 96.1351 78.7024L96.8631 78.2824C96.9303 78.2432 96.9863 78.2432 97.0367 78.2824C97.0871 78.3216 97.1095 78.4 97.1039 78.512C97.0871 78.904 97.0255 79.3184 96.9191 79.7552C96.8127 80.1976 96.6503 80.6288 96.4375 81.06C96.2191 81.4912 95.9503 81.9 95.6199 82.2808C95.2895 82.6672 94.8919 82.992 94.4215 83.2664C94.0071 83.5072 93.6431 83.6192 93.3239 83.6192C93.0047 83.6136 92.7359 83.5072 92.5119 83.2944C92.2879 83.0872 92.1143 82.7792 91.9911 82.3816C91.8679 81.9784 91.7951 81.508 91.7727 80.9704C91.7615 80.6288 91.7559 80.2424 91.7559 79.8168C91.7559 79.3912 91.7615 78.9992 91.7727 78.6408C91.7951 78.0696 91.8679 77.5152 91.9911 76.972C92.1143 76.4288 92.2879 75.9248 92.5119 75.46C92.7359 74.9952 93.0047 74.5752 93.3239 74.2C93.6431 73.8248 94.0071 73.5224 94.4215 73.2816C94.8919 73.0128 95.2895 72.8784 95.6199 72.884C95.9503 72.884 96.2247 72.9792 96.4375 73.1584C96.6559 73.3376 96.8127 73.5896 96.9191 73.9144C97.0255 74.2392 97.0871 74.5808 97.1039 74.9392C97.1095 75.0456 97.0871 75.152 97.0367 75.2472C96.9863 75.348 96.9247 75.4152 96.8631 75.4544L96.1351 75.8744C96.0735 75.908 96.0175 75.9136 95.9615 75.8856C95.9055 75.8576 95.8775 75.7848 95.8607 75.6728C95.8439 75.4992 95.7991 75.3424 95.7375 75.2024C95.6703 75.0624 95.5807 74.9616 95.4687 74.8888C95.3567 74.816 95.2111 74.788 95.0375 74.7992C94.8639 74.8104 94.6567 74.8832 94.4271 75.0232C94.1919 75.1576 93.9903 75.3312 93.8167 75.544C93.6431 75.7568 93.4975 75.9864 93.3799 76.2384C93.2623 76.4904 93.1727 76.7648 93.1111 77.0616C93.0495 77.3584 93.0103 77.6496 92.9991 77.9464C92.9879 78.3048 92.9823 78.6968 92.9823 79.1224C92.9823 79.548 92.9879 79.9344 92.9991 80.276C93.0103 80.5672 93.0495 80.8192 93.1111 81.0376C93.1727 81.256 93.2623 81.424 93.3799 81.5416C93.4975 81.6592 93.6431 81.7208 93.8167 81.732C93.9903 81.7432 94.1975 81.6816 94.4271 81.5472C94.6623 81.4128 94.8639 81.2504 95.0375 81.06C95.2111 80.8696 95.3567 80.6736 95.4743 80.4664C95.5919 80.2592 95.6815 80.052 95.7487 79.8336C95.8159 79.6208 95.8551 79.4136 95.8719 79.2176V79.212Z" fill="#455A64"/>
<path d="M102.356 76.8152C102.423 76.776 102.479 76.7816 102.524 76.8264C102.575 76.8712 102.597 76.944 102.597 77.0504V78.036C102.597 78.1368 102.575 78.2376 102.524 78.344C102.479 78.4448 102.418 78.5176 102.356 78.5512L98.4027 80.836C98.3355 80.8752 98.2795 80.8696 98.2291 80.8248C98.1787 80.78 98.1562 80.7072 98.1562 80.6008V71.6408C98.1562 71.54 98.1787 71.4392 98.2291 71.3384C98.2795 71.2376 98.3355 71.1648 98.4027 71.1312L102.283 68.8912C102.351 68.852 102.407 68.8576 102.457 68.9024C102.502 68.9472 102.53 69.02 102.53 69.1264V70.112C102.53 70.2128 102.507 70.3136 102.457 70.42C102.407 70.5208 102.351 70.5936 102.283 70.6272L99.3714 72.3072V74.5136L102.082 72.9456C102.149 72.9064 102.205 72.912 102.255 72.9568C102.306 73.0016 102.328 73.0744 102.328 73.1808V74.1664C102.328 74.2672 102.306 74.368 102.255 74.4688C102.211 74.5696 102.149 74.6424 102.082 74.6816L99.3714 76.2496V78.5512L102.351 76.832L102.356 76.8152Z" fill="#455A64"/>
<g opacity="0.25">
<path d="M102.167 37.8896V45.4104C102.167 47.3144 100.867 49.5656 99.2155 50.5176L84.6555 58.9232C83.9331 59.3376 83.5243 60.1664 83.0931 61.04C82.7739 61.684 82.4435 62.3392 81.9675 62.8768C80.8363 64.1592 78.3723 65.4976 76.6307 66.052C76.0427 66.2424 75.4603 66.3768 74.8835 66.4552C74.6651 66.4944 74.4187 66.5224 74.1667 66.5504C72.5763 66.7632 70.5995 67.032 69.4403 67.704L52.3995 77.5376C51.8843 77.8344 51.3803 77.9856 50.9155 77.9856C50.5571 77.9856 50.2211 77.9016 49.9187 77.728C49.2243 77.3248 48.8379 76.524 48.8379 75.488V67.9672C48.8379 66.0632 50.1315 63.812 51.7891 62.86L57.5123 59.556C57.5123 59.556 57.5627 59.5336 57.5907 59.528C57.8651 59.4048 58.1899 59.5168 58.3467 59.7856C58.4979 60.0488 58.4251 60.3904 58.1899 60.564C58.1731 60.5864 58.1451 60.6088 58.1227 60.62L52.3995 63.924C51.1339 64.6576 50.0587 66.5112 50.0587 67.9728V75.4936C50.0587 76.076 50.2323 76.5016 50.5291 76.6752C50.8259 76.8544 51.2851 76.7816 51.7891 76.4904L68.8299 66.6512C70.1963 65.8616 72.3131 65.576 74.0043 65.352C74.2563 65.324 74.4915 65.2848 74.7155 65.2568C75.2139 65.184 75.7403 65.0664 76.2667 64.8984C77.8123 64.4112 80.1083 63.1568 81.0547 62.0816C81.4299 61.6672 81.7043 61.096 82.0011 60.508C82.4939 59.5056 83.0091 58.4752 84.0451 57.876L98.6051 49.4704C99.8707 48.7368 100.946 46.8832 100.946 45.4216V37.9008C100.946 37.324 100.772 36.8928 100.475 36.7248C100.179 36.5456 99.7139 36.6184 99.2155 36.9096L94.2539 39.7712C94.0915 39.396 93.8731 39.0376 93.6323 38.7184L98.6051 35.8456C99.5011 35.3192 100.386 35.2576 101.086 35.6552C101.78 36.0584 102.167 36.8592 102.167 37.8952V37.8896Z" fill="#0F0F0F"/>
</g>
<path d="M91.5422 38.0296C91.9342 37.8 92.4774 37.828 93.0766 38.1752C94.2694 38.864 95.2382 40.544 95.2382 41.9216C95.2382 42.616 94.9918 43.1032 94.5942 43.3272L60.0478 63.2744L56.9902 57.9712L91.5366 38.024L91.5422 38.0296Z" fill="#37474F"/>
<path d="M58.5371 60.6424L94.6179 39.8104C94.2259 39.1272 93.6827 38.528 93.0835 38.1808C93.0107 38.1416 92.9435 38.1192 92.8763 38.0856L57.3555 58.5928L58.5371 60.6424Z" fill="#455A64"/>
<path d="M58.5366 58.128C57.3438 57.4392 56.375 57.9992 56.375 59.3768C56.375 60.7544 57.3438 62.4344 58.5366 63.1232C59.7294 63.812 60.6982 63.252 60.6982 61.8744C60.6982 60.4968 59.7294 58.8168 58.5366 58.128Z" fill="#263238"/>
<path d="M102.782 38.4272V45.948C102.782 47.852 101.483 50.1032 99.8307 51.0552L85.2707 59.4608C84.5483 59.8752 84.1395 60.704 83.7083 61.5776C83.3891 62.2216 83.0587 62.8768 82.5827 63.4144C81.4515 64.6968 78.9875 66.0352 77.2459 66.5896C76.6579 66.78 76.0755 66.9144 75.4987 66.9928C75.2803 67.032 75.0339 67.06 74.7819 67.088C73.1915 67.3008 71.2147 67.5696 70.0555 68.2416L53.0147 78.0752C52.4995 78.372 51.9955 78.5232 51.5307 78.5232C51.1723 78.5232 50.8363 78.4392 50.5339 78.2656C49.8395 77.8624 49.4531 77.0616 49.4531 76.0256V68.5048C49.4531 66.6008 50.7467 64.3496 52.4043 63.3976L58.1275 60.0936C58.1275 60.0936 58.1779 60.0712 58.2059 60.0656C58.4803 59.9424 58.8051 60.0544 58.9619 60.3232C59.1131 60.5864 59.0403 60.928 58.8051 61.096C58.7883 61.1184 58.7603 61.1408 58.7379 61.152L53.0147 64.456C51.7491 65.1896 50.6739 67.0432 50.6739 68.5048V76.0256C50.6739 76.608 50.8475 77.0336 51.1443 77.2016C51.4411 77.3808 51.9003 77.308 52.4043 77.0168L69.4451 67.1776C70.8115 66.388 72.9283 66.1024 74.6195 65.8784C74.8715 65.8504 75.1067 65.8112 75.3251 65.7832C75.8235 65.7104 76.3499 65.5928 76.8763 65.4248C78.4219 64.9376 80.7179 63.6832 81.6643 62.608C82.0395 62.1936 82.3139 61.6224 82.6107 61.0344C83.1035 60.032 83.6187 59.0016 84.6547 58.4024L99.2147 49.9968C100.48 49.2632 101.556 47.4096 101.556 45.948V38.4272C101.556 37.8504 101.382 37.4192 101.085 37.2512C100.788 37.072 100.324 37.1448 99.8251 37.436L94.8635 40.2976C94.7011 39.9224 94.4827 39.564 94.2419 39.2448L99.2147 36.372C100.111 35.8456 100.996 35.784 101.696 36.1816C102.39 36.5848 102.776 37.3856 102.776 38.4216L102.782 38.4272Z" fill="#455A64"/>
<path d="M65.168 222.158L138.534 179.928L175.219 201.04L101.848 243.27L65.168 222.158Z" fill="#031A6B"/>
<path opacity="0.7" d="M65.168 222.158L138.534 179.928L175.219 201.04L101.848 243.27L65.168 222.158Z" fill="#FEFEFE"/>
<path d="M138.535 182.146L69.0273 222.152L101.849 241.046L171.356 201.04L138.535 182.146ZM101.849 239.932L70.9593 222.152L138.535 183.254L169.424 201.034L101.849 239.932Z" fill="#031A6B"/>
<path d="M106.512 219.66C103.231 217.773 101.422 215.186 101.422 212.386C101.422 209.328 103.628 206.304 107.481 204.092C115.024 199.752 126.863 199.5 133.874 203.538C137.155 205.425 138.964 208.012 138.964 210.812C138.964 213.87 136.758 216.894 132.905 219.106C128.951 221.379 123.822 222.533 118.821 222.533C114.279 222.533 109.85 221.581 106.512 219.66ZM107.806 204.658C104.166 206.752 102.077 209.569 102.077 212.386C102.077 214.945 103.768 217.325 106.843 219.094C113.669 223.026 125.216 222.774 132.58 218.54C136.22 216.446 138.309 213.629 138.309 210.812C138.309 208.253 136.618 205.873 133.543 204.103C130.295 202.233 125.983 201.309 121.565 201.309C116.687 201.309 111.67 202.434 107.811 204.658H107.806Z" fill="#031A6B"/>
<g opacity="0.5">
<path d="M107.7 217.61C105.18 216.16 103.797 214.306 103.797 212.386C103.797 210.202 105.572 207.922 108.669 206.142C112.113 204.159 116.811 203.022 121.566 203.022C125.866 203.022 129.814 203.935 132.687 205.587C135.207 207.038 136.59 208.891 136.59 210.812C136.59 212.996 134.815 215.275 131.718 217.056C128.274 219.038 123.576 220.175 118.827 220.175C114.526 220.175 110.573 219.262 107.706 217.61H107.7Z" fill="#031A6B"/>
</g>
<path opacity="0.5" d="M103.618 234.819C102.644 234.259 101.053 234.265 100.079 234.819L97.9843 236.023L77.8691 224.521L80.2939 223.126C80.7027 222.891 80.9323 222.594 80.9323 222.298C80.9323 222.001 80.7083 221.71 80.2939 221.474L77.8747 220.08L99.9611 207.295L99.5299 208.236C98.9867 209.412 98.7123 210.627 98.7123 211.842C98.7123 215.426 102.313 219.1 105.88 221.155C109.067 222.986 114.639 224.84 119.914 224.84C121.37 224.84 122.832 224.745 124.265 224.56L125.884 224.353L105.718 236.029L103.624 234.819H103.618Z" fill="#031A6B"/>
<g opacity="0.4">
<path d="M93.8734 227.175C93.0334 226.694 92.5742 226.022 92.5742 225.282C92.5742 224.487 93.1286 223.709 94.0974 223.154C95.9006 222.113 98.7398 222.057 100.425 223.026C101.26 223.507 101.725 224.179 101.725 224.918C101.725 225.714 101.17 226.492 100.201 227.046C99.255 227.59 98.0286 227.864 96.8358 227.864C95.7438 227.864 94.6798 227.634 93.879 227.175H93.8734Z" fill="#FEFEFE"/>
</g>
<path opacity="0.5" d="M140.795 214.95C141.327 213.786 141.641 211.803 141.641 210.554C141.641 207.575 139.289 204.708 134.641 202.031C130.922 199.892 125.216 198.453 120.439 198.453C118.978 198.453 117.51 198.548 116.082 198.727L114.447 198.94L134.613 187.37L136.707 188.58C137.665 189.129 139.283 189.129 140.241 188.58L142.335 187.37L162.417 198.772L159.992 200.172C159.583 200.407 159.359 200.698 159.359 200.995C159.359 201.292 159.583 201.589 159.992 201.824L162.417 203.218L140.375 215.874L140.801 214.945L140.795 214.95Z" fill="#031A6B"/>
<g opacity="0.4">
<path d="M140.045 200.704C139.205 200.222 138.746 199.55 138.746 198.811C138.746 198.016 139.3 197.238 140.269 196.683C142.072 195.642 144.912 195.586 146.597 196.554C147.437 197.036 147.897 197.708 147.897 198.447C147.897 199.242 147.342 200.021 146.373 200.575C145.427 201.118 144.2 201.393 143.008 201.393C141.916 201.393 140.852 201.163 140.051 200.704H140.045Z" fill="#FEFEFE"/>
</g>
<path d="M65.168 222.158V231.045L101.848 252.162V243.27L65.168 222.158Z" fill="#031A6B"/>
<g opacity="0.2">
<path d="M65.168 222.158V231.045L101.848 252.162V243.27L65.168 222.158Z" fill="#FEFEFE"/>
</g>
<g opacity="0.1">
<path d="M101.848 245.252L90.2676 238.829L101.848 245.79V245.252Z" fill="#0F0F0F"/>
<path d="M65.168 226.38L69.0264 228.827L65.168 226.828V226.38Z" fill="#0F0F0F"/>
<path d="M65.168 228.497L84.4712 239.938L65.168 229.152V228.497Z" fill="#0F0F0F"/>
<path d="M101.848 247.369L82.5449 236.606L101.848 248.069V247.369Z" fill="#0F0F0F"/>
</g>
<path d="M101.848 252.162L175.219 209.933V201.04L101.848 243.27V252.162Z" fill="#031A6B"/>
<g opacity="0.2">
<path d="M101.848 252.162L175.219 209.933V201.04L101.848 243.27V252.162Z" fill="#0F0F0F"/>
</g>
<g opacity="0.3">
<path d="M101.848 245.252L105.717 243.27L101.848 245.79V245.252Z" fill="#0F0F0F"/>
</g>
<g opacity="0.3">
<path d="M101.848 247.369L121.263 236.55L101.848 248.069V247.369Z" fill="#0F0F0F"/>
</g>
<g opacity="0.3">
<path d="M175.22 205.223L161.701 213.265L175.22 205.75V205.223Z" fill="#0F0F0F"/>
</g>
<g opacity="0.3">
<path d="M175.218 207.463L167.496 212.156L175.218 207.962V207.463Z" fill="#0F0F0F"/>
</g>
<path d="M95.459 203.246L133.421 225.098L145.002 218.434L107.045 196.577L95.459 203.246Z" fill="#FAFAFA"/>
<path d="M145.003 218.434V228.105L133.422 234.774V225.098L145.003 218.434Z" fill="#E0E0E0"/>
<path d="M133.422 234.774L132.744 234.382L133.422 233.99V234.774Z" fill="#E0E0E0"/>
<path d="M95.459 203.246V204.719L96.7414 203.98L95.459 203.246Z" fill="#E0E0E0"/>
<g opacity="0.3">
<path d="M132.744 234.377V225.49L133.422 225.098V233.985L132.744 234.377Z" fill="#0F0F0F"/>
</g>
<g style="mix-blend-mode:multiply" opacity="0.2">
<path d="M132.744 225.49L96.0645 204.372L96.7421 203.98L133.422 225.098L132.744 225.49Z" fill="#0F0F0F"/>
</g>
<path d="M96.707 202.524L134.675 224.375L135.633 223.821L97.6758 201.975L96.707 202.524Z" fill="#455A64"/>
<path d="M104.822 197.859L142.785 219.71L143.748 219.156L105.785 197.305L104.822 197.859Z" fill="#455A64"/>
<path d="M134.676 224.375V234.052L135.633 233.498V223.821L134.676 224.375Z" fill="#263238"/>
<path d="M142.785 219.71V229.382L143.754 228.827L143.748 219.156L142.785 219.71Z" fill="#263238"/>
<path opacity="0.2" d="M98.124 241.13L171.495 198.901L138.534 179.928L65.168 222.158L98.124 241.13Z" fill="#0F0F0F"/>
<path opacity="0.2" d="M65.168 227.399L98.124 246.372V241.125L65.168 222.158V227.399Z" fill="#0F0F0F"/>
<path d="M58.957 210.745L132.328 168.515L169.008 189.627L95.6426 231.857L58.957 210.745Z" fill="#031A6B"/>
<path opacity="0.7" d="M58.957 210.745L132.328 168.515L169.008 189.627L95.6426 231.857L58.957 210.745Z" fill="#FEFEFE"/>
<path d="M132.328 170.738L62.8203 210.745L95.6419 229.639L165.149 189.633L132.328 170.738ZM95.6419 228.525L64.7523 210.745L132.328 171.847L163.217 189.627L95.6419 228.525Z" fill="#031A6B"/>
<path d="M100.307 208.253C97.0256 206.366 95.2168 203.778 95.2168 200.978C95.2168 197.921 97.4232 194.897 101.276 192.685C108.819 188.345 120.658 188.093 127.669 192.13C130.95 194.018 132.759 196.605 132.759 199.405C132.759 202.462 130.553 205.486 126.7 207.698C122.746 209.972 117.617 211.126 112.616 211.126C108.074 211.126 103.645 210.174 100.307 208.253ZM101.601 193.25C97.9608 195.345 95.872 198.162 95.872 200.978C95.872 203.538 97.5632 205.918 100.638 207.687C107.464 211.618 119.011 211.366 126.375 207.133C130.015 205.038 132.104 202.222 132.104 199.405C132.104 196.846 130.413 194.466 127.338 192.696C124.09 190.826 119.778 189.902 115.36 189.902C110.482 189.902 105.465 191.027 101.606 193.25H101.601Z" fill="#031A6B"/>
<g opacity="0.5">
<path d="M101.495 206.198C98.975 204.747 97.5918 202.894 97.5918 200.973C97.5918 198.789 99.367 196.51 102.464 194.729C105.908 192.746 110.606 191.61 115.361 191.61C119.661 191.61 123.609 192.522 126.482 194.174C129.002 195.625 130.385 197.478 130.385 199.399C130.385 201.583 128.61 203.862 125.513 205.643C122.069 207.626 117.371 208.762 112.622 208.762C108.321 208.762 104.368 207.85 101.501 206.198H101.495Z" fill="#031A6B"/>
</g>
<path opacity="0.5" d="M97.4129 223.406C96.4385 222.846 94.8481 222.852 93.8737 223.406L91.7793 224.61L71.6641 213.108L74.0889 211.714C74.4977 211.478 74.7273 211.182 74.7273 210.885C74.7273 210.588 74.5033 210.297 74.0889 210.062L71.6697 208.667L93.7561 195.882L93.3249 196.823C92.7817 197.999 92.5073 199.214 92.5073 200.43C92.5073 204.014 96.1081 207.687 99.6753 209.742C102.862 211.574 108.434 213.427 113.709 213.427C115.165 213.427 116.626 213.332 118.06 213.147L119.678 212.94L99.5129 224.616L97.4185 223.406H97.4129Z" fill="#031A6B"/>
<g opacity="0.4">
<path d="M87.6683 215.762C86.8283 215.281 86.3691 214.609 86.3691 213.87C86.3691 213.074 86.9235 212.296 87.8923 211.742C89.6955 210.7 92.5347 210.644 94.2203 211.613C95.0547 212.094 95.5195 212.766 95.5195 213.506C95.5195 214.301 94.9651 215.079 93.9963 215.634C93.0499 216.177 91.8235 216.451 90.6307 216.451C89.5387 216.451 88.4747 216.222 87.6739 215.762H87.6683Z" fill="#FEFEFE"/>
</g>
<path opacity="0.5" d="M134.59 203.538C135.122 202.373 135.436 200.39 135.436 199.142C135.436 196.162 133.084 193.295 128.436 190.618C124.717 188.479 119.011 187.04 114.234 187.04C112.773 187.04 111.305 187.135 109.877 187.314L108.242 187.527L128.408 175.958L130.502 177.167C131.46 177.716 133.078 177.716 134.036 177.167L136.13 175.958L156.212 187.359L153.787 188.759C153.378 188.994 153.154 189.286 153.154 189.582C153.154 189.879 153.378 190.176 153.787 190.411L156.212 191.806L134.17 204.462L134.596 203.532L134.59 203.538Z" fill="#031A6B"/>
<g opacity="0.4">
<path d="M133.84 189.297C133 188.815 132.541 188.143 132.541 187.404C132.541 186.609 133.095 185.83 134.064 185.276C135.867 184.234 138.707 184.178 140.392 185.147C141.232 185.629 141.691 186.301 141.691 187.04C141.691 187.835 141.137 188.614 140.168 189.168C139.222 189.711 137.995 189.986 136.803 189.986C135.711 189.986 134.647 189.756 133.846 189.297H133.84Z" fill="#FEFEFE"/>
</g>
<path d="M58.957 210.745V219.638L95.6426 240.75V231.857L58.957 210.745Z" fill="#031A6B"/>
<g opacity="0.2">
<path d="M58.957 210.745V219.638L95.6426 240.75V231.857L58.957 210.745Z" fill="#FEFEFE"/>
</g>
<g opacity="0.1">
<path d="M95.643 233.839L84.0566 227.416L95.643 234.382V233.839Z" fill="#0F0F0F"/>
<path d="M58.957 214.967L62.821 217.414L58.9626 215.415L58.957 214.967Z" fill="#0F0F0F"/>
<path d="M58.957 217.084L78.2602 228.525L58.957 217.739V217.084Z" fill="#0F0F0F"/>
<path d="M95.6428 235.956L76.334 225.193L95.6428 236.656V235.956Z" fill="#0F0F0F"/>
</g>
<path d="M95.6426 240.75L169.008 198.52V189.627L95.6426 231.857V240.75Z" fill="#031A6B"/>
<g opacity="0.2">
<path d="M95.6426 240.75L169.008 198.52V189.627L95.6426 231.857V240.75Z" fill="#0F0F0F"/>
</g>
<g opacity="0.3">
<path d="M95.6426 233.839L99.5066 231.857L95.6426 234.382V233.839Z" fill="#0F0F0F"/>
</g>
<g opacity="0.3">
<path d="M95.6426 235.956L115.058 225.142L95.6426 236.656V235.956Z" fill="#0F0F0F"/>
</g>
<g opacity="0.3">
<path d="M169.009 193.816L155.496 201.858L169.009 194.337V193.816Z" fill="#0F0F0F"/>
</g>
<g opacity="0.3">
<path d="M169.008 196.05L161.285 200.743L169.008 196.549V196.05Z" fill="#0F0F0F"/>
</g>
<path d="M89.2539 191.834L127.211 213.685L138.797 207.021L100.835 185.164L89.2539 191.834Z" fill="#FAFAFA"/>
<path d="M138.797 207.021V216.698L127.211 223.362V213.685L138.797 207.021Z" fill="#E0E0E0"/>
<path d="M127.211 223.362L126.533 222.97L127.211 222.578V223.362Z" fill="#E0E0E0"/>
<path d="M89.2539 191.834V193.306L90.5307 192.567L89.2539 191.834Z" fill="#E0E0E0"/>
<g opacity="0.3">
<path d="M126.533 222.964V214.082L127.211 213.685V222.578L126.533 222.964Z" fill="#0F0F0F"/>
</g>
<g style="mix-blend-mode:multiply" opacity="0.2">
<path d="M126.534 214.082L89.8535 192.959L90.5311 192.567L127.211 213.685L126.534 214.082Z" fill="#0F0F0F"/>
</g>
<path d="M90.498 191.117L128.466 212.968L129.429 212.408L91.4668 190.562L90.498 191.117Z" fill="#455A64"/>
<path d="M98.6113 186.446L136.579 208.298L137.543 207.743L99.5801 185.892L98.6113 186.446Z" fill="#455A64"/>
<path d="M128.465 212.968V222.639L129.428 222.085V212.408L128.465 212.968Z" fill="#263238"/>
<path d="M136.58 208.298V217.969L137.549 217.414L137.543 207.743L136.58 208.298Z" fill="#263238"/>
<path d="M145.516 104.787C145.544 104.042 145.365 103.578 145.035 103.398C145.035 103.393 145.04 103.393 145.04 103.393L144.996 103.365C144.643 103.208 142.302 101.814 141.966 101.634C141.966 101.629 141.972 101.629 141.972 101.629L141.927 101.601C141.574 101.444 141.053 101.595 140.426 102.071C134.176 106.854 125.58 108.018 119.04 105.14C118.138 104.474 117.304 103.712 116.559 102.844C116.52 102.799 116.486 102.754 116.447 102.715H116.441C116.228 102.48 116.021 102.306 115.808 102.194C115.808 102.194 112.952 100.537 112.745 100.425L112.639 100.363C111.939 100.033 111.295 100.369 110.875 101.41C104.944 116.15 92.3052 131.085 83.8716 134.82C83.2444 135.1 82.662 135.531 82.214 136.058C81.6204 136.746 81.2508 137.592 81.2788 138.471C81.2788 157.422 91.6612 187.701 111.328 197.82C112.493 198.582 113.697 199.27 114.935 199.875C141.994 171.965 145.522 127.254 145.522 104.798L145.516 104.787Z" fill="#031A6B"/>
<path opacity="0.4" d="M144.996 103.359C144.643 103.202 144.122 103.354 143.495 103.83C136.221 109.396 125.754 110.068 119.062 105.14C125.603 108.007 134.194 106.848 140.432 102.06C141.059 101.584 141.58 101.433 141.933 101.59L141.978 101.618C141.978 101.618 141.972 101.618 141.972 101.623C142.303 101.802 144.643 103.191 144.996 103.354V103.359Z" fill="#FEFEFE"/>
<path d="M115.696 102.122C114.996 101.791 114.352 102.127 113.932 103.169C108.001 117.914 95.3622 132.843 86.9286 136.578C86.3014 136.858 85.719 137.29 85.271 137.816C85.0246 138.113 84.8118 138.426 84.6494 138.768L81.5918 137.004C81.7486 136.662 81.9558 136.338 82.2022 136.052C82.6558 135.526 83.2382 135.094 83.8598 134.814C92.2878 131.079 104.927 116.144 110.863 101.405C111.283 100.363 111.927 100.022 112.627 100.358L112.733 100.419C112.834 100.47 113.433 100.817 114.094 101.198C114.744 101.573 115.438 101.982 115.696 102.127V102.122Z" fill="#031A6B"/>
<path opacity="0.4" d="M115.696 102.122C114.996 101.791 114.352 102.127 113.932 103.169C108.001 117.914 95.3622 132.843 86.9286 136.578C86.3014 136.858 85.719 137.29 85.271 137.816C85.0246 138.113 84.8118 138.426 84.6494 138.768L81.5918 137.004C81.7486 136.662 81.9558 136.338 82.2022 136.052C82.6558 135.526 83.2382 135.094 83.8598 134.814C92.2878 131.079 104.927 116.144 110.863 101.405C111.283 100.363 111.927 100.022 112.627 100.358L112.733 100.419C112.834 100.47 113.433 100.817 114.094 101.198C114.744 101.573 115.438 101.982 115.696 102.127V102.122Z" fill="#FEFEFE"/>
<path opacity="0.3" d="M111.283 197.781C91.6385 187.656 81.273 157.394 81.273 138.46C81.2562 137.945 81.385 137.458 81.5978 136.998L84.6553 138.762C84.4369 139.222 84.325 139.714 84.3362 140.224C84.3362 158.161 93.6153 186.239 111.283 197.781Z" fill="#0F0F0F"/>
<path d="M145.515 104.787C145.515 127.243 141.987 171.959 114.928 199.864C94.9027 190.036 84.3355 159.354 84.3355 140.23C84.3075 139.345 84.6771 138.499 85.2707 137.816C85.7243 137.29 86.3067 136.858 86.9283 136.578C95.3563 132.843 107.995 117.908 113.931 103.169C114.351 102.127 114.995 101.786 115.695 102.122L115.802 102.183C116.015 102.295 116.222 102.469 116.435 102.704H116.44C116.479 102.743 116.513 102.788 116.552 102.833C122.847 110.158 135.223 110.152 143.483 103.83C144.11 103.354 144.631 103.202 144.983 103.359L145.028 103.387C145.028 103.387 145.023 103.387 145.023 103.393C145.353 103.572 145.538 104.037 145.504 104.782L145.515 104.787Z" fill="#031A6B"/>
<path opacity="0.1" d="M145.515 104.787C145.515 127.243 141.987 171.959 114.928 199.864C94.9027 190.036 84.3355 159.354 84.3355 140.23C84.3075 139.345 84.6771 138.499 85.2707 137.816C85.7243 137.29 86.3067 136.858 86.9283 136.578C95.3563 132.843 107.995 117.908 113.931 103.169C114.351 102.127 114.995 101.786 115.695 102.122L115.802 102.183C116.015 102.295 116.222 102.469 116.435 102.704H116.44C116.479 102.743 116.513 102.788 116.552 102.833C122.847 110.158 135.223 110.152 143.483 103.83C144.11 103.354 144.631 103.202 144.983 103.359L145.028 103.387C145.028 103.387 145.023 103.387 145.023 103.393C145.353 103.572 145.538 104.037 145.504 104.782L145.515 104.787Z" fill="#FEFEFE"/>
<path d="M115.701 102.122C115.001 101.791 114.357 102.127 113.937 103.169C108.007 117.908 95.3677 132.843 86.9341 136.578C86.3069 136.858 85.7245 137.29 85.2765 137.816C84.6829 138.505 84.3133 139.35 84.3413 140.23C84.3413 159.354 94.9085 190.036 114.934 199.864C128.391 147.84 115.707 102.122 115.707 102.122H115.701Z" fill="#031A6B"/>
<path opacity="0.05" d="M115.701 102.122C115.001 101.791 114.357 102.127 113.937 103.169C108.007 117.908 95.3677 132.843 86.9341 136.578C86.3069 136.858 85.7245 137.29 85.2765 137.816C84.6829 138.505 84.3133 139.35 84.3413 140.23C84.3413 159.354 94.9085 190.036 114.934 199.864C128.391 147.84 115.707 102.122 115.707 102.122H115.701Z" fill="#0F0F0F"/>
<path opacity="0.4" d="M125.91 112.23C132.664 113.954 138.65 110.992 142.072 109.228C142.072 109.228 142.867 148.859 129.22 174.49C134.601 154.47 135.923 148.742 136.309 133.902C136.685 119.314 131.029 115.864 125.91 112.224V112.23Z" fill="#FEFEFE"/>
<path d="M116.776 168.151L103.18 159.303L107.24 153.059L114.077 157.511L128.385 131.141L134.932 134.691L116.776 168.151Z" fill="#FEFEFE"/>
<path d="M121.055 144.654L114.077 157.511L107.24 153.059L103.18 159.298L116.776 168.151L120.831 160.675C121.116 155.058 121.167 149.694 121.055 144.648V144.654Z" fill="#F0F0F0"/>
<path d="M191.382 225.338L189.293 224.342L191.348 223.759L191.382 225.338Z" fill="#263238"/>
<path d="M170.733 229.27C170.733 229.27 195.255 218.142 195.574 219.778C195.642 220.136 195.636 220.466 195.569 220.763C195.591 220.735 195.614 220.707 195.636 220.674L195.205 223.731C195.205 223.731 193.458 225.226 191.386 225.338C191.386 225.193 191.363 224.28 191.352 223.765C190.686 224.045 190.002 224.381 189.19 224.918C187.622 225.96 186.62 227.769 184.957 229.874C183.747 231.409 181.58 232.137 178.36 232.607C174.899 233.117 171.836 232.478 170.968 231.566C170.279 230.838 170.61 229.488 170.733 229.275V229.27Z" fill="#263238"/>
<path d="M171.411 228.698C171.646 228.452 172.514 227.489 173.696 226.442C174.726 225.523 175.93 224.37 177.224 223.429C177.739 223.054 178.534 222.454 178.977 221.978C179.402 221.519 179.811 221.049 180.192 220.55C181.368 219.005 182.32 217.314 183.126 215.555C183.507 214.721 183.983 213.842 184.145 212.934C184.319 211.977 184.414 211.008 184.42 210.034C184.42 205.649 184.319 204.954 184.28 201.617L194.679 201.886C194.349 203.739 193.85 206.265 193.682 208.37C193.43 211.568 193.346 212.279 194.634 215.46C195.015 216.395 195.575 217.297 195.625 218.299C195.715 219.934 194.421 221.357 192.977 222.163C191.778 222.835 190.389 223.126 189.225 223.843C187.998 224.594 187.052 225.719 186.184 226.834C185.361 227.886 184.705 229.124 183.552 229.869C182.269 230.692 181.043 230.955 179.553 231.263C177.84 231.616 175.639 231.672 174.172 231.566C171.618 231.386 169.709 230.479 171.417 228.687L171.411 228.698Z" fill="#FFBDA7"/>
<path d="M180.976 223.63C179.179 222.712 177.56 223.104 177.157 223.311C175.354 224.739 173.859 226.01 172.806 226.901C171.529 227.982 170.409 228.962 170.465 230.188C170.555 232.109 178.115 232.635 182.32 230.787C184.515 230.014 185.288 228.189 185.288 228.189C185.288 228.189 184.644 225.506 180.976 223.63ZM195.29 216.63C194.635 215.398 194.388 214.771 194.388 214.771C192.927 215.566 190.401 219.206 191.594 222.841C192.927 222.488 194.226 221.973 195.279 220.332C196.074 219.089 195.945 217.862 195.29 216.63Z" fill="#37474F"/>
<path d="M214.402 218.058C213.719 219.162 214.581 223.294 214.413 226.246C214.262 228.922 213.534 233.593 214.34 236.236C215.292 239.366 217.241 243.001 220.903 240.044C223.171 238.213 224.482 235.855 224.807 231.997C225.031 229.314 223.989 225.613 223.093 222.331C222.046 218.495 221.654 216.446 221.654 216.446L214.407 218.053L214.402 218.058Z" fill="#263238"/>
<path d="M221.744 198.234C222.013 204.484 221.274 208.874 221.229 212.878C221.274 214.743 221.397 216.317 221.811 218.282C222.343 220.836 223.256 224.386 223.637 226.044C224.169 228.357 224.572 229.813 223.76 232.411C223.699 232.613 223.603 232.809 223.491 232.999C222.355 235.138 219.465 236.751 218.535 236.494C218.278 236.914 217.623 237.171 216.906 237.054C216.805 237.037 216.699 237.014 216.598 236.981C216.497 236.947 216.391 236.908 216.29 236.858C215.674 236.561 215.091 235.95 214.75 234.892C214.694 234.718 214.643 234.528 214.599 234.326C213.927 231.106 214.279 228.95 214.296 227.685C214.319 225.949 214.279 224.269 214.151 221.922C214.022 219.576 213.635 212.402 212.807 208.88C212.191 206.422 211.423 203.342 210.611 200.054L221.739 198.234H221.744Z" fill="#FFBDA7"/>
<path d="M224.196 229.057C221.917 228.071 215.303 227.931 214.25 231.09C214.222 234.063 214.206 236.079 216.121 238.666C218.663 242.105 221.978 238.459 223.255 236.146C224.526 233.834 224.51 230.658 224.202 229.057H224.196Z" fill="#37474F"/>
<path d="M213.125 116.592C216.345 122.259 218.944 127.036 219.784 142.01C220.73 158.906 220.59 165.34 220.674 167.378C220.758 169.417 222.097 173.158 223.233 183.198C224.37 193.239 223.172 217.582 223.172 217.582C223.172 217.582 222.365 219.223 218.457 219.593C214.85 219.934 212.728 218.691 212.728 218.691C212.728 218.691 206.993 186.726 205.577 180.684C204.16 174.642 200.033 154.767 200.033 154.767L198.677 173.734C198.677 173.734 199.82 179.273 198.784 188.093C197.748 196.913 195.088 213.584 195.088 213.584C195.088 213.584 193.553 215.107 188.838 215.018C183.821 214.922 182.773 213.55 182.773 213.55C182.773 213.55 181.648 177.699 181.575 167.709C181.502 157.718 180.909 131.785 184 116.973L213.125 116.586V116.592Z" fill="#455A64"/>
<path d="M186.05 131.303C187.612 135.419 193.218 138.264 195.676 138.824L198.672 154.566V173.74L200.033 154.773L196.667 135.587C196.667 135.587 189.858 135.156 186.05 131.303ZM209.306 129.125C209.721 130.743 210.096 132.373 210.499 133.997C210.891 135.626 211.283 137.256 211.709 138.897C211.737 137.2 211.569 135.514 211.334 133.846C211.098 132.171 210.768 130.514 210.365 128.873C209.945 127.238 209.463 125.608 208.858 124.023C208.254 122.438 207.548 120.882 206.613 119.454C207.139 121.066 207.61 122.668 208.052 124.275C208.489 125.888 208.914 127.501 209.312 129.125H209.306ZM212.174 125.983C212.734 126.958 213.266 127.943 213.803 128.929L215.394 131.942C215.287 130.794 214.979 129.674 214.582 128.593C214.19 127.506 213.68 126.47 213.126 125.468C212.549 124.471 211.922 123.502 211.21 122.595C210.505 121.682 209.738 120.82 208.864 120.047C209.379 121.083 209.945 122.069 210.505 123.049C211.059 124.034 211.63 125.003 212.174 125.983ZM209.956 171.612C208.937 166.443 208.198 161.218 207.47 155.988C206.758 150.758 206.053 145.516 205.274 140.286C205.638 145.561 206.064 150.83 206.635 156.089C207.195 161.347 207.89 166.6 208.892 171.814C209.967 177.01 211.048 182.168 212.19 187.337C213.322 192.5 214.52 197.652 215.791 202.793C214.934 197.574 214.016 192.366 213.019 187.169C212.045 181.978 210.998 176.775 209.956 171.612ZM186.447 154.532L187.226 140.75C186.537 145.309 186.01 149.89 185.607 154.476C185.221 159.074 184.857 163.649 184.874 168.308C185.064 172.939 185.193 191.268 185.775 195.838C186.178 190.719 186.05 177.218 186.05 177.218C185.915 174.927 186.022 170.554 185.96 168.28C185.904 166.012 186.027 163.71 186.117 161.42C186.206 159.124 186.341 156.828 186.453 154.532H186.447Z" fill="#37474F"/>
<path d="M166.221 40.2808C171.507 41.6976 176.301 46.6088 178.776 51.6152C189.763 51.8728 203.209 56.6104 215.534 64.036L227.938 27.328C207.313 21.84 186.733 23.7944 166.226 40.2808H166.221Z" fill="#031A6B"/>
<path d="M269.15 75.0512C264.087 72.9736 257.294 73.9704 252.294 76.4512C243.401 69.9944 229.838 65.604 215.535 64.0304L227.934 27.3224C247.657 35.4648 262.844 49.504 269.144 75.0512H269.15Z" fill="#031A6B"/>
<path opacity="0.25" d="M269.15 75.0512C264.087 72.9736 257.294 73.9704 252.294 76.4512C243.401 69.9944 229.838 65.604 215.535 64.0304L227.934 27.3224C247.657 35.4648 262.844 49.504 269.144 75.0512H269.15Z" fill="#0F0F0F"/>
<path d="M178.775 51.6152C189.757 51.8728 203.214 56.6104 215.534 64.036L227.932 27.3336C213.546 25.536 192.35 34.4624 178.775 51.6208V51.6152Z" fill="#031A6B"/>
<path opacity="0.15" d="M178.775 51.6152C189.757 51.8728 203.214 56.6104 215.534 64.036L227.932 27.3336C213.546 25.536 192.35 34.4624 178.775 51.6208V51.6152Z" fill="#0F0F0F"/>
<path opacity="0.15" d="M269.148 75.0512C262.842 49.504 247.661 35.4704 227.938 27.3224C240.465 34.6192 251.906 54.572 252.298 76.4512C257.298 73.9704 264.091 72.9736 269.154 75.0512H269.148Z" fill="#0F0F0F"/>
<path d="M205.196 79.912C204.446 80.7072 204.211 81.5416 203.001 81.1552C201.965 80.8248 201.203 80.0296 200.363 79.3744C199.266 78.5232 198.191 77.6496 197.132 76.748C195.055 74.9728 193.055 73.0968 191.157 71.1312C190.071 70.0056 188.777 68.7512 188.116 67.312C187.478 65.912 187.047 64.3552 187.187 62.804C187.478 59.612 189.455 55.4624 195.323 54.2752C200.212 53.284 209.553 54.3536 210.746 60.6984C210.807 61.0288 211.535 61.4768 211.743 61.7736C212.107 62.2944 212.409 62.86 212.644 63.4536C213.12 64.6352 213.333 65.9232 213.243 67.1944C213.042 70.1232 211.351 72.7216 209.514 75.0176C208.153 76.72 206.686 78.3328 205.196 79.9176V79.912Z" fill="#263238"/>
<path d="M179.879 91.6328C175.382 96.7792 171.389 100.901 171.389 100.901C171.4 100.884 170.073 99.792 170 99.7248C168.522 98.4592 167.06 97.1712 165.66 95.8216C164.059 94.2816 162.591 92.652 162.054 90.4064C161.936 89.9192 161.886 89.4152 161.841 88.9168C161.701 87.4776 161.561 86.044 161.427 84.6048C161.359 83.916 161.191 83.1656 161.225 82.4768C161.247 82.04 161.477 81.5136 161.393 81.0712C161.298 80.5448 160.626 80.36 159.696 81.2504C159.119 81.8048 158.89 82.7064 158.727 83.3C158.543 83.9552 158.47 84.8064 158.24 84.8456C158.011 84.8848 157.249 84.1008 156.403 83.5688C155.552 83.0368 154.875 82.3648 153.749 82.32C152.623 82.2808 152.355 83.2496 152.371 83.636C152.388 84.0392 152.707 84.4424 152.707 84.4424C152.707 84.4424 152.198 84.1736 151.621 84.4088C151.044 84.6496 150.708 85.6744 150.988 86.1896C150.988 86.1896 150.339 85.9544 149.963 86.6264C149.65 87.192 149.51 87.8192 150.036 88.2616C150.036 88.2616 149.499 88.2112 149.364 88.4912C149.235 88.7712 148.855 89.6448 149.241 90.1544C149.627 90.664 150.831 91.1512 150.831 91.1512C150.831 91.1512 150.848 91.3976 151.324 91.896C151.492 92.0696 152.013 93.2232 152.685 93.94C153.603 94.9256 154.505 95.2 155.586 95.8216C157.344 96.8352 159.248 99.9768 161.231 103.079C163.594 106.775 165.565 110.107 168.029 112.482C171.098 115.444 173.108 115.153 176.995 111.283C181.715 106.579 186.867 100.083 186.867 100.083L188.727 85.4C185.215 85.8144 183.491 87.4944 179.884 91.6216L179.879 91.6328Z" fill="#FFBDA7"/>
<path d="M153.093 90.1376C153.082 90.2384 153.031 90.3 152.992 90.384C152.947 90.4848 152.886 90.5688 152.813 90.6528C152.706 90.7704 152.594 90.888 152.454 90.9664C152.37 91.0168 152.275 91.0448 152.18 91.0728C151.894 91.1512 151.62 91.1568 151.329 91.1568C151.161 91.1568 150.998 91.1624 150.83 91.168C151.043 91.252 151.262 91.308 151.491 91.336C151.76 91.364 152.051 91.3304 152.314 91.2632C152.376 91.2464 152.438 91.2296 152.499 91.2016C152.662 91.1288 152.802 91.0112 152.908 90.8656C153.014 90.72 153.126 90.5128 153.143 90.328C153.143 90.3112 153.154 90.1432 153.132 90.1432C153.322 90.16 153.502 90.1432 153.681 90.1264C153.95 90.0816 154.252 90.0872 154.515 89.8856C154.638 89.7792 154.711 89.6672 154.79 89.5328C154.812 89.4936 154.829 89.4432 154.834 89.3984L155.114 89.1912C155.114 89.1912 155.03 89.8632 155.484 90.9384C155.938 92.0136 156.822 92.6576 156.822 92.6576C156.822 92.6576 156.167 92.092 155.809 90.6976C155.501 89.4992 156.111 88.1328 156.626 87.5056C156.643 87.5056 156.66 87.5056 156.677 87.5056C156.8 87.472 156.884 87.3992 156.951 87.332C157.102 87.1752 157.164 86.9624 157.17 86.772C157.17 86.576 157.136 86.3912 157.074 86.2176C156.834 85.512 156.274 85.0024 155.68 84.6272C155.663 84.4592 155.613 84.3136 155.557 84.1736C155.49 84.0224 155.406 83.8824 155.31 83.748C155.389 83.8936 155.45 84.0448 155.506 84.196C155.557 84.3472 155.596 84.5096 155.59 84.6608V84.6888L155.613 84.7056C156.173 85.1144 156.677 85.6408 156.878 86.2904C156.979 86.5984 157.002 86.9792 156.794 87.1808C156.666 87.2984 156.598 87.3208 156.447 87.2424C156.302 87.1752 156.145 87.0744 155.982 86.996C155.658 86.828 155.327 86.7104 155.014 86.5592C154.706 86.408 154.42 86.2176 154.151 85.9936C153.888 85.7696 153.647 85.512 153.395 85.26C153.149 85.008 152.902 84.756 152.695 84.4704C153.059 85.0808 153.53 85.6184 154.034 86.1224C154.291 86.3688 154.588 86.5928 154.913 86.7496C155.232 86.912 155.568 87.0408 155.87 87.2032C155.932 87.2368 155.994 87.2704 156.055 87.304C156.139 87.4496 156.173 87.612 156.139 87.7688C156.089 88.0544 155.848 88.2504 155.568 88.312C155.277 88.3904 154.986 88.4632 154.7 88.48C154.409 88.48 154.095 88.4912 153.843 88.396C153.317 88.1944 152.88 87.7296 152.41 87.3544C151.939 86.968 151.469 86.5816 150.976 86.2232C151.402 86.6656 151.838 87.08 152.286 87.5C152.505 87.7072 152.734 87.9088 152.97 88.1104C153.205 88.3064 153.457 88.508 153.77 88.62C153.966 88.6704 154.157 88.6928 154.353 88.6984C154.515 88.816 154.65 88.9616 154.706 89.1408C154.745 89.2584 154.728 89.3816 154.666 89.4824C154.599 89.5832 154.504 89.7008 154.414 89.7624C154.218 89.8856 153.933 89.9024 153.67 89.9304C153.401 89.9528 153.126 89.964 152.908 89.8744C152.678 89.7904 152.499 89.5888 152.264 89.4152C152.034 89.2472 151.788 89.1072 151.542 88.9896C151.049 88.7376 150.55 88.508 150.035 88.3008C150.506 88.592 150.982 88.8664 151.452 89.152C151.682 89.2976 151.922 89.432 152.13 89.5944C152.337 89.7512 152.522 89.9808 152.813 90.104C152.908 90.1376 152.998 90.1544 153.093 90.1656V90.1376ZM156.167 87.36C156.167 87.36 156.167 87.3488 156.162 87.3432C156.162 87.3432 156.162 87.3544 156.167 87.36Z" fill="#F0997A"/>
<path d="M171.395 100.901C172.789 101.965 174.514 103.527 174.676 106.109C175.091 103.191 173.478 100.906 172.044 100.066L171.395 100.901Z" fill="#F28F8F"/>
<path d="M189.236 85.1144C184.739 85.6016 183.099 87.6288 179.363 91.84C176.087 95.536 171.395 100.492 171.395 100.492L164.574 94.7296C164.574 94.7296 164.977 96.152 163.023 98.42C161.393 100.307 159.041 99.9152 159.041 99.9152C159.041 99.9152 161.757 104.502 165.268 109.676C168.824 114.923 171.691 115.444 174.217 114.061C176.743 112.678 188.475 100.234 188.475 100.234L189.236 85.12V85.1144Z" fill="#37474F"/>
<path d="M171.395 100.492C173.674 102.402 174.995 106.148 175.27 108.265C175.656 103.387 172.453 99.372 172.453 99.372L171.395 100.492Z" fill="#263238"/>
<path d="M216.313 124.326C218.194 122.797 216.733 120.053 215.691 112.33C215.372 109.95 216.901 104.054 216.901 104.054C216.901 104.054 212.488 97.4008 213.916 85.848L207.067 84.5656L195.918 84.3976L189.506 85.4728C188.027 86.7776 186.571 89.0792 184.415 92.1984C181.313 96.7008 180.753 102.777 184.102 106.361C184.152 107.066 184.253 111.882 183.95 114.666C183.53 118.524 181.38 122.276 183.62 124.18C190.166 129.741 207.426 130.127 216.307 124.32L216.313 124.326Z" fill="#031A6B"/>
<path opacity="0.2" d="M216.313 124.326C218.194 122.797 216.733 120.053 215.691 112.33C215.372 109.95 216.901 104.054 216.901 104.054C216.901 104.054 212.488 97.4008 213.916 85.848L207.067 84.5656L195.918 84.3976L189.506 85.4728C188.027 86.7776 186.571 89.0792 184.415 92.1984C181.313 96.7008 180.753 102.777 184.102 106.361C184.152 107.066 184.253 111.882 183.95 114.666C183.53 118.524 181.38 122.276 183.62 124.18C190.166 129.741 207.426 130.127 216.307 124.32L216.313 124.326Z" fill="#FEFEFE"/>
<path d="M208.432 76.2496C209.72 76.4848 210.941 75.8632 211.719 75.0232C213.455 73.1528 213.618 71.2488 212.811 69.9776C212.151 68.936 210.515 68.2696 209.367 68.9696C208.141 69.72 208.102 70.336 207.637 71.1928C207.161 72.0664 205.985 71.3776 206.388 67.956C205.688 67.6312 205.212 67.032 204.876 66.3544C204.798 66.1976 204.171 64.2712 204.187 64.2768C202.754 63.9856 201.466 63.056 200.738 61.7904C200.71 62.4176 200.85 63.056 201.141 63.616C200.116 63.5544 199.075 63.4872 198.095 63.1848C197.115 62.8824 196.174 62.3168 195.619 61.4544C195.547 62.4064 195.698 63.3752 196.056 64.26C193.867 63.8792 192.03 61.964 191.739 59.7576C190.904 61.1072 190.019 62.328 189.639 63.8848C189.275 65.3912 189.09 66.9424 188.944 68.4824C188.367 74.6816 188.911 77.8736 190.77 79.5592C191.772 80.4664 193.419 81.4464 196 81.5304L195.916 84.4144C195.916 84.4144 189.571 90.44 197.753 89.8464C203.885 89.404 207.027 84.6888 207.027 84.6888L207.083 75.2864C207.083 75.2864 207.217 76.0368 208.438 76.2608L208.432 76.2496Z" fill="#FFBDA7"/>
<path d="M194.998 75.1464C195.194 76.1152 196.157 76.748 197.143 76.5576C198.134 76.3672 198.772 75.4208 198.576 74.452L194.992 75.152L194.998 75.1464Z" fill="#B16668"/>
<path d="M198.593 75.0344C198.492 75.7736 197.932 76.4008 197.148 76.5576C196.93 76.6024 196.711 76.5968 196.504 76.5632C196.655 75.5776 197.59 74.8944 198.598 75.0344H198.593Z" fill="#F28F8F"/>
<path d="M199.086 65.436L201.438 66.668C201.813 66.0352 201.589 65.2512 200.94 64.9096C200.29 64.568 199.461 64.8032 199.086 65.436Z" fill="#263238"/>
<path d="M192.723 65.1616L190.371 66.3936C189.996 65.7608 190.22 64.9768 190.87 64.6352C191.519 64.2936 192.348 64.5288 192.723 65.1616Z" fill="#263238"/>
<path d="M200.395 68.3368C200.395 68.8744 199.958 69.3056 199.426 69.3056C198.894 69.3056 198.457 68.8688 198.457 68.3368C198.457 67.8048 198.894 67.368 199.426 67.368C199.958 67.368 200.395 67.8048 200.395 68.3368Z" fill="#263238"/>
<path d="M192.92 68.04C192.92 68.5776 192.483 69.0088 191.951 69.0088C191.419 69.0088 190.982 68.572 190.982 68.04C190.982 67.508 191.419 67.0712 191.951 67.0712C192.483 67.0712 192.92 67.508 192.92 68.04Z" fill="#263238"/>
<path d="M192.281 70.98L195.591 72.7216L196.66 65.996L192.281 70.98Z" fill="#F0997A"/>
<path d="M196 81.5192C199.203 81.4016 204.266 80.0576 205.727 76.5352C204.87 80.2648 201.746 81.5752 199.948 82.0736C197.758 82.6784 196.022 82.74 196.022 82.74L196 81.5248V81.5192Z" fill="#F0997A"/>
<path d="M195.899 83.5968L195.916 84.4032C195.916 84.4032 191.397 87.7912 188.054 93.3016C184.711 98.812 185.719 105.711 185.551 112.818C185.383 119.924 185.758 134.999 185.758 134.999C185.758 134.999 182.605 134.361 180.992 131.947C180.992 127.988 182.118 114.492 182.191 110.264C182.252 106.848 182.034 105.134 181.479 102.004C180.925 98.8736 181.412 92.6576 189.235 85.12L195.899 83.5968Z" fill="#263238"/>
<path d="M207.027 83.7928C207.027 83.7928 203.986 90.5856 203.885 97.5128C203.785 104.434 206.624 138.051 206.624 138.051C206.624 138.051 217.213 138.897 222.27 134.445C221.161 128.99 218.664 121.016 217.773 117.583C216.883 114.145 216.39 111.356 217.213 107.772C218.037 104.194 218.77 101.842 218.77 101.842L214.71 85.5344L207.027 83.7984V83.7928Z" fill="#263238"/>
<path d="M225.574 34.328L225.849 34.3728C225.933 34.384 226.045 34.4008 226.168 34.4232C226.258 34.4288 226.375 34.44 226.448 34.4344C226.868 34.4512 226.767 34.2328 226.868 34.0312C227.008 33.6112 227.204 33.0064 227.439 32.284C227.904 30.8392 228.492 28.896 229.018 26.936C229.287 25.956 229.534 24.9704 229.746 24.0408C229.853 23.576 229.97 23.128 230.054 22.7024C230.144 22.2712 230.228 21.868 230.312 21.4928C230.396 21.1176 230.452 20.7704 230.508 20.4624C230.564 20.1544 230.614 19.8856 230.648 19.6672C230.721 19.2248 230.754 18.9672 230.754 18.9672C230.754 18.9672 230.626 19.1912 230.418 19.5888C230.312 19.7848 230.183 20.0256 230.049 20.3056C229.909 20.5856 229.741 20.8936 229.584 21.2408C229.422 21.588 229.242 21.9632 229.052 22.3552C228.862 22.7472 228.682 23.1728 228.486 23.6096C228.094 24.4776 227.691 25.4128 227.31 26.3536C226.543 28.2352 225.832 30.1336 225.322 31.5672C225.07 32.284 224.863 32.8832 224.718 33.3032C224.678 33.5216 224.466 33.6336 224.813 33.88C224.869 33.9304 224.97 33.992 225.042 34.0424C225.154 34.104 225.25 34.1544 225.328 34.1992C225.485 34.2832 225.569 34.328 225.569 34.328H225.574Z" fill="#263238"/>
<path d="M201.49 102.581L222.966 38.7632C223.134 38.2704 223.666 38.0072 224.159 38.1752C224.652 38.3432 224.915 38.8752 224.747 39.368L203.271 103.186C202.773 103.533 201.585 103.107 201.49 102.586V102.581Z" fill="#E0E0E0"/>
<path d="M200.744 102.295L198.196 108.864C196.846 112.549 194.634 112.991 192.529 112.174C190.345 111.328 190.529 107.85 191.084 106.439C191.638 105.028 189.454 103.51 188.379 105.403C187.304 107.296 186.273 113.092 191.509 115.142C194.483 116.306 197.513 115.186 199.058 113.786C199.758 113.148 200.413 112.442 201.063 110.779L203.88 103.505L200.738 102.29L200.744 102.295Z" fill="#455A64"/>
<path d="M201.394 101.881C202.139 101.73 203.153 102.066 203.657 102.631C204.161 103.197 203.97 103.785 203.225 103.936C202.481 104.087 201.467 103.751 200.963 103.186C200.459 102.62 200.649 102.032 201.394 101.881Z" fill="#455A64"/>
<path d="M221.056 47.684C232.525 49.4312 242.633 54.2304 251.38 62.0816C260.693 64.4224 266.209 68.9864 269.143 75.0512C263.75 49.14 246.978 33.7624 227.933 27.3224C208.881 20.888 186.218 22.9432 166.221 40.2752C172.235 37.2344 179.386 36.9488 188.212 40.7344C199.927 39.7936 210.881 42.112 221.056 47.6784V47.684Z" fill="#031A6B"/>
<g opacity="0.2">
<path d="M221.056 47.684C232.525 49.4312 242.633 54.2304 251.38 62.0816C260.693 64.4224 266.209 68.9864 269.143 75.0512C263.75 49.14 246.978 33.7624 227.933 27.3224C208.881 20.888 186.218 22.9432 166.221 40.2752C172.235 37.2344 179.386 36.9488 188.212 40.7344C199.927 39.7936 210.881 42.112 221.056 47.6784V47.684Z" fill="#FEFEFE"/>
</g>
<path d="M188.213 40.74C199.933 39.7992 210.881 42.1176 221.057 47.684L227.933 27.328C206.172 19.9752 188.207 40.74 188.207 40.74H188.213Z" fill="#031A6B"/>
<path opacity="0.1" d="M188.213 40.74C199.933 39.7992 210.881 42.1176 221.057 47.684L227.933 27.328C206.172 19.9752 188.207 40.74 188.207 40.74H188.213Z" fill="#FEFEFE"/>
<path d="M251.386 62.0816C242.639 54.2248 232.525 49.4312 221.057 47.684L227.933 27.328C249.695 34.6808 251.386 62.0816 251.386 62.0816Z" fill="#031A6B"/>
<path d="M269.148 75.0512C263.755 49.14 246.983 33.7624 227.938 27.3224C249.699 34.6752 251.385 62.0816 251.385 62.0816C260.697 64.4224 266.213 68.9864 269.148 75.0512Z" fill="#031A6B"/>
<path opacity="0.15" d="M269.148 75.0512C263.755 49.14 246.983 33.7624 227.938 27.3224C249.699 34.6752 251.385 62.0816 251.385 62.0816C260.697 64.4224 266.213 68.9864 269.148 75.0512Z" fill="#0F0F0F"/>
<path d="M230.246 119.739C224.68 120.618 215.149 117.438 208.524 116.917C206.754 116.782 205.242 116.939 204.609 116.95C202.224 116.984 200.953 114.8 199.351 113.518C199.267 113.456 199.189 113.394 199.105 113.333C198.763 113.086 198.388 112.874 197.973 112.717C196.993 112.196 196.741 112.078 196.45 111.675C195.263 112.694 194.053 112.582 193.353 112.426C192.928 111.77 192.648 111.065 192.855 110.667C193.006 110.387 193.253 110.303 193.253 110.303C193.253 110.303 193.163 110.152 193.073 109.379C192.928 108.214 193.986 107.979 194.664 107.722C194.664 107.722 194.457 107.072 194.933 106.585C195.403 106.098 195.935 105.739 198.483 104.698C198.864 104.541 199.239 104.362 199.754 104.367C199.816 104.367 199.872 104.367 199.939 104.373C200.437 104.401 201.07 104.591 201.955 105.09C202.19 105.224 202.509 105.414 202.879 105.638C202.924 105.666 202.974 105.694 203.025 105.722C204.929 106.859 208.188 108.562 209.409 108.965C210.904 109.458 220.956 108.606 220.956 108.606L216.47 99.3776C216.47 99.3776 212.914 91.644 214.589 86.3072C218.951 86.3464 221.258 86.94 224.137 90.4568C227.004 93.9568 233.522 110.034 234.149 112.907C234.849 116.133 235.684 118.877 230.246 119.739Z" fill="#FFBDA7"/>
<path d="M220.457 107.57L220.955 108.612C223.531 108.629 227.149 111.07 228.051 112.23C227.093 110.275 225.004 107.643 220.457 107.57Z" fill="#F0997A"/>
<path d="M194.664 107.722L197.655 106.327L194.625 107.279C194.614 107.436 194.625 107.582 194.664 107.722Z" fill="#F0997A"/>
<path d="M193.253 110.303L196.753 108.954L193.146 109.889C193.163 110.023 193.202 110.158 193.253 110.298V110.303Z" fill="#F0997A"/>
<path d="M214.717 85.5344C219.035 85.6576 222.742 86.744 225.693 91.8736C228.639 97.0032 231.221 103.298 233.186 108.853C235.152 114.408 235.577 117.135 233.981 118.591C232.385 120.047 229.602 120.602 225.077 120.098C220.553 119.594 213.849 117.886 213.849 117.886C213.849 117.886 214.992 115.886 214.807 112.767C214.622 109.648 213.76 109.032 213.76 109.032L220.497 108.45C220.497 108.45 217.865 103.096 216.084 99.3944C214.303 95.6872 213.093 87.5728 214.712 85.5344H214.717Z" fill="#37474F"/>
<path d="M220.502 108.45C223.33 108.237 226.841 109.015 228.448 111.143C226.836 107.414 221.924 107.033 219.914 107.24L220.508 108.444L220.502 108.45Z" fill="#263238"/>
<path d="M168.638 69.412L166.068 65.7272C168.929 59.4104 166.908 51.744 160.966 47.7456C154.341 43.288 145.325 45.052 140.868 51.6712C136.416 58.296 138.174 67.3064 144.799 71.764C150.74 75.7624 158.603 74.7488 163.374 69.72L167.764 70.7112C168.515 70.8792 169.08 70.0392 168.638 69.412ZM163.951 67.2056C162.114 69.9384 159.437 71.764 156.492 72.5928L155.002 72.9232C151.771 73.444 148.349 72.7944 145.426 70.8288C139.322 66.7184 137.698 58.408 141.808 52.304C143.774 49.3808 146.703 47.4936 149.889 46.76L151.396 46.5024C154.431 46.1552 157.6 46.844 160.333 48.6864C166.437 52.7968 168.061 61.1016 163.956 67.2056H163.951Z" fill="#455A64"/>
<path d="M160.333 48.6864C157.6 46.844 154.431 46.1608 151.395 46.5024L149.889 46.76C146.703 47.4936 143.774 49.3864 141.808 52.304C137.698 58.408 139.322 66.7184 145.426 70.8288C148.349 72.7944 151.771 73.4384 155.002 72.9232L156.491 72.5928C159.437 71.7696 162.114 69.9384 163.951 67.2056C168.061 61.1016 166.431 52.7912 160.327 48.6864H160.333Z" fill="#FEFEFE"/>
<path d="M151.233 66.6008C150.723 66.6008 150.236 66.388 149.883 66.0184L145.7 61.5496C145.005 60.8048 145.039 59.6344 145.784 58.94C146.529 58.24 147.699 58.2792 148.393 59.024L151.109 61.9248L157.544 53.7768C158.177 52.976 159.336 52.8416 160.137 53.4688C160.937 54.1016 161.072 55.2608 160.445 56.0616L152.683 65.8952C152.353 66.3152 151.849 66.5728 151.311 66.5952C151.283 66.5952 151.261 66.5952 151.233 66.5952V66.6008Z" fill="#031A6B"/>
</svg>
