<svg width="24" height="24" viewBox="0 0 24 24" fill="none" xmlns="http://www.w3.org/2000/svg">
<path d="M1.59395 3.6374C1.45332 3.6749 1.31738 3.72646 1.28926 3.75459C1.2377 3.80615 11.4189 14.0202 11.6346 14.1374C11.7986 14.2218 12.2018 14.2218 12.3658 14.1374C12.5814 14.0202 22.7627 3.80615 22.7111 3.75459C22.683 3.72646 22.5377 3.6749 22.383 3.6374C22.1346 3.57178 20.9861 3.5624 11.9768 3.56709C3.20645 3.56709 1.81895 3.57646 1.59395 3.6374Z" fill="#0F0F0F"/>
<path d="M0.107813 5.025C0.028125 5.25938 0.0234375 5.60156 0.0234375 12C0.0234375 18.3984 0.028125 18.7406 0.107813 18.9703C0.154688 19.1063 0.210938 19.2188 0.225 19.2188C0.24375 19.2188 1.88438 17.5922 3.86719 15.6094L7.47656 12L3.86719 8.39063C1.88438 6.40313 0.24375 4.78125 0.225 4.78125C0.210938 4.78125 0.154688 4.89375 0.107813 5.025Z" fill="#0F0F0F"/>
<path d="M20.1328 8.39063L16.5234 12L20.1328 15.6094C22.1156 17.5922 23.7563 19.2188 23.775 19.2188C23.7891 19.2188 23.8453 19.1063 23.8922 18.9703C23.9719 18.7406 23.9766 18.3984 23.9766 12C23.9766 5.60156 23.9719 5.25938 23.8922 5.025C23.8453 4.89375 23.7891 4.78125 23.775 4.78125C23.7563 4.78125 22.1156 6.40313 20.1328 8.39063Z" fill="#0F0F0F"/>
<path d="M4.82859 16.6172C2.50828 18.9375 1.2614 20.2172 1.28953 20.2453C1.31765 20.2734 1.46297 20.325 1.61765 20.3625C1.86609 20.4281 3.01922 20.4375 12.0005 20.4375C20.9817 20.4375 22.1348 20.4281 22.3833 20.3625C22.538 20.325 22.6833 20.2734 22.7114 20.2453C22.7395 20.2172 21.4927 18.9375 19.163 16.6078L15.5677 13.0125L14.452 14.1141C13.4302 15.1266 13.3036 15.2344 12.9661 15.4031L12.5911 15.5859H12.0005H11.4098L11.0348 15.4031C10.6973 15.2344 10.5661 15.1219 9.55828 14.1234C8.95359 13.5234 8.44734 13.0313 8.43328 13.0313C8.4239 13.0313 6.80203 14.6438 4.82859 16.6172Z" fill="#0F0F0F"/>
</svg>
