<svg width="24" height="24" viewBox="0 0 24 24" fill="none" xmlns="http://www.w3.org/2000/svg">
<path opacity="0.987" fill-rule="evenodd" clip-rule="evenodd" d="M3.63281 0.679688C7.28906 0.679688 10.9453 0.679688 14.6016 0.679688C14.5937 2.25789 14.6016 3.83602 14.625 5.41406C14.7878 6.53011 15.4206 7.19419 16.5234 7.40625C18.1484 7.42969 19.7734 7.43752 21.3984 7.42969C21.4063 12.2891 21.3984 17.1485 21.375 22.0078C21.2557 22.6427 20.8884 23.0568 20.2734 23.25C14.6927 23.2966 9.11456 23.281 3.53906 23.2031C2.97455 22.9575 2.65424 22.5278 2.57813 21.9141C2.54687 15.2578 2.54687 8.60156 2.57813 1.94531C2.70224 1.3294 3.0538 0.907523 3.63281 0.679688ZM5.55469 3.72656C7.80469 3.72656 10.0547 3.72656 12.3047 3.72656C12.3047 4.21094 12.3047 4.69533 12.3047 5.17969C10.0547 5.17969 7.80469 5.17969 5.55469 5.17969C5.55469 4.69533 5.55469 4.21094 5.55469 3.72656ZM8.13281 7.66406C8.50425 7.95727 8.84803 8.28539 9.16406 8.64844C8.22722 9.60872 7.28189 10.5619 6.32813 11.5078C5.78058 10.9681 5.24152 10.4212 4.71094 9.86719C5.02345 9.52345 5.35158 9.19533 5.69531 8.88281C5.88994 9.05395 6.07744 9.23363 6.25781 9.42188C6.30469 9.45314 6.35156 9.45314 6.39844 9.42188C6.98602 8.84212 7.56417 8.25619 8.13281 7.66406ZM10.8516 9.72656C13.3672 9.72656 15.8828 9.72656 18.3984 9.72656C18.3984 10.2109 18.3984 10.6953 18.3984 11.1797C15.8828 11.1797 13.3672 11.1797 10.8516 11.1797C10.8516 10.6953 10.8516 10.2109 10.8516 9.72656ZM8.13281 12.2578C8.50425 12.551 8.84803 12.8791 9.16406 13.2422C8.22722 14.2025 7.28189 15.1556 6.32813 16.1016C5.78058 15.5618 5.24152 15.015 4.71094 14.4609C5.02345 14.1172 5.35158 13.7891 5.69531 13.4766C5.88994 13.6477 6.07744 13.8274 6.25781 14.0156C6.30469 14.0469 6.35156 14.0469 6.39844 14.0156C6.98602 13.4359 7.56417 12.8499 8.13281 12.2578ZM10.8516 13.5703C13.3672 13.5703 15.8828 13.5703 18.3984 13.5703C18.3984 14.0391 18.3984 14.5078 18.3984 14.9766C15.8828 14.9766 13.3672 14.9766 10.8516 14.9766C10.8516 14.5078 10.8516 14.0391 10.8516 13.5703ZM8.13281 16.8516C8.50425 17.1448 8.84803 17.4729 9.16406 17.8359C8.22722 18.7962 7.28189 19.7494 6.32813 20.6953C5.77345 20.1406 5.21874 19.5859 4.66406 19.0312C5.00067 18.6868 5.34441 18.3509 5.69531 18.0234C5.90555 18.2102 6.10866 18.4055 6.30469 18.6094C6.33595 18.6406 6.36717 18.6406 6.39844 18.6094C6.98602 18.0296 7.56417 17.4437 8.13281 16.8516ZM10.8516 17.2734C13.3672 17.2734 15.8828 17.2734 18.3984 17.2734C18.3984 17.7578 18.3984 18.2422 18.3984 18.7266C15.8828 18.7266 13.3672 18.7266 10.8516 18.7266C10.8516 18.2422 10.8516 17.7578 10.8516 17.2734Z" fill="#5F5F5F"/>
<path opacity="0.975" fill-rule="evenodd" clip-rule="evenodd" d="M16.0557 1.42969C17.5775 2.92806 19.0931 4.43587 20.6025 5.95312C19.2588 5.98439 17.9151 5.98439 16.5713 5.95312C16.3145 5.83917 16.1504 5.64389 16.0791 5.36719C16.0557 4.05478 16.0478 2.74228 16.0557 1.42969Z" fill="#5F5F5F"/>
</svg>
