<svg width="46" height="40" viewBox="0 0 46 40" fill="none" xmlns="http://www.w3.org/2000/svg">
<path fill-rule="evenodd" clip-rule="evenodd" d="M19.8532 0.477539C27.1674 0.477539 33.5569 4.41202 37.0006 10.2686L33.016 12.6853C30.3922 8.16248 25.4802 5.11845 19.8525 5.11845C11.4651 5.11845 4.66597 11.88 4.66597 20.2205C4.66597 28.5605 11.4651 35.3226 19.8525 35.3226C26.7228 35.3226 32.5273 30.7846 34.4012 24.5587L39.6753 21.2871C39.1186 31.6942 30.4568 39.9635 19.8525 39.9635C8.88804 39.9635 0 31.1243 0 20.2212C0 9.31809 8.88804 0.47886 19.8525 0.47886L19.8532 0.477539ZM34.9994 19.1269C35.0252 19.4877 35.0397 19.8525 35.0397 20.2199C35.0397 20.4441 35.0337 20.6671 35.0238 20.8894C35.0535 20.2786 35.0423 19.6896 34.9994 19.1276V19.1269Z" fill="#031A6B"/>
<path d="M44.0925 15.3764C45.4256 14.5717 45.8728 12.8357 45.0905 11.5039C44.3082 10.1722 42.6038 9.72568 41.282 10.533L25.5427 20.0325L21.6465 13.3178C20.8675 11.9749 19.1598 11.5396 17.838 12.3469C16.5162 13.1543 16.0571 14.8877 16.84 16.2187L22.1458 25.3627C22.9248 26.7056 24.6331 27.141 25.9543 26.3336L44.0932 15.3764H44.0925Z" fill="#031A6B"/>
</svg>
