<svg width="32" height="32" viewBox="0 0 32 32" fill="none" xmlns="http://www.w3.org/2000/svg">
<circle cx="16" cy="16" r="15.5" fill="#CFCFCF" stroke="#CFCFCF"/>
<g clip-path="url(#clip0_4139_9010)">
<path opacity="0.991" fill-rule="evenodd" clip-rule="evenodd" d="M23.9844 13.3906C23.9844 15.8698 23.9844 18.349 23.9844 20.8281C23.7677 21.6646 23.2364 22.1802 22.3906 22.375C18.1198 22.3958 13.849 22.3958 9.57812 22.375C8.73233 22.1802 8.20108 21.6646 7.98438 20.8281C7.98438 18.349 7.98438 15.8698 7.98438 13.3906C8.19417 12.509 8.74625 11.983 9.64062 11.8125C10.2867 11.8073 10.9325 11.7917 11.5781 11.7656C11.9105 11.251 12.2491 10.7406 12.5938 10.2344C12.9148 9.89413 13.3055 9.68059 13.7656 9.59375C15.2448 9.57292 16.724 9.57292 18.2031 9.59375C18.6633 9.68059 19.0539 9.89413 19.375 10.2344C19.7197 10.7406 20.0582 11.251 20.3906 11.7656C21.0362 11.7917 21.682 11.8073 22.3281 11.8125C23.2225 11.983 23.7746 12.509 23.9844 13.3906ZM15.5469 12.2344C17.397 12.141 18.798 12.8806 19.75 14.4531C20.572 16.1337 20.4261 17.7274 19.3125 19.2344C18.0779 20.6042 16.5623 21.0677 14.7656 20.625C13.0262 20.0315 12.0106 18.8284 11.7188 17.0156C11.5897 15.1435 12.324 13.7217 13.9219 12.75C14.4383 12.4858 14.9799 12.3139 15.5469 12.2344ZM20.9844 13.3906C21.2866 13.3854 21.5887 13.3906 21.8906 13.4063C22.3462 13.5958 22.4451 13.9031 22.1875 14.3281C22.1172 14.3868 22.039 14.4337 21.9531 14.4688C21.6198 14.4896 21.2865 14.4896 20.9531 14.4688C20.6336 14.3558 20.5034 14.1319 20.5625 13.7969C20.638 13.5911 20.7787 13.4557 20.9844 13.3906Z" fill="black"/>
<path opacity="0.985" fill-rule="evenodd" clip-rule="evenodd" d="M15.7043 14.1102C16.7194 14.0423 17.5059 14.4277 18.0636 15.2664C18.6106 16.3536 18.4804 17.3484 17.673 18.2508C16.7977 18.9938 15.8394 19.1188 14.798 18.6258C13.7473 17.9432 13.3775 16.9901 13.6886 15.7664C14.0461 14.8308 14.7179 14.2787 15.7043 14.1102Z" fill="black"/>
</g>
<defs>
<clipPath id="clip0_4139_9010">
<rect width="16" height="16" fill="white" transform="translate(8 8)"/>
</clipPath>
</defs>
</svg>
