<svg width="16" height="16" viewBox="0 0 16 16" fill="none" xmlns="http://www.w3.org/2000/svg">
<path d="M4.6875 15.9468C4.80937 15.9062 5.30625 15.4218 8.55625 12.175C11.9781 8.75933 12.2875 8.44058 12.3437 8.28746C12.4219 8.07808 12.4219 7.92183 12.3437 7.71246C12.2875 7.55933 11.9781 7.24058 8.55625 3.82496C4.99062 0.262456 4.82188 0.0968308 4.65937 0.0468308C3.99062 -0.168794 3.38437 0.506206 3.675 1.14683C3.70937 1.22496 4.85313 2.39058 7.09062 4.63121L10.4531 7.99996L7.09062 11.3656C4.9 13.5625 3.70937 14.775 3.675 14.85C3.48437 15.2718 3.6875 15.7781 4.1125 15.9375C4.3125 16.0093 4.49062 16.0125 4.6875 15.9468Z" fill="#5F5F5F"/>
</svg>
