<svg width="60" height="60" viewBox="0 0 60 60" fill="none" xmlns="http://www.w3.org/2000/svg">
<path d="M3.98486 9.09375C3.6333 9.1875 3.29346 9.31641 3.22314 9.38672C3.09424 9.51562 28.5474 35.0508 29.0864 35.3438C29.4966 35.5547 30.5044 35.5547 30.9146 35.3438C31.4536 35.0508 56.9067 9.51562 56.7778 9.38672C56.7075 9.31641 56.3442 9.1875 55.9575 9.09375C55.3364 8.92969 52.4653 8.90625 29.9419 8.91797C8.01611 8.91797 4.54736 8.94141 3.98486 9.09375Z" fill="#031A6B"/>
<path d="M0.269531 12.5625C0.0703125 13.1484 0.0585938 14.0039 0.0585938 30C0.0585938 45.9961 0.0703125 46.8516 0.269531 47.4258C0.386719 47.7656 0.527344 48.0469 0.5625 48.0469C0.609375 48.0469 4.71094 43.9805 9.66797 39.0234L18.6914 30L9.66797 20.9766C4.71094 16.0078 0.609375 11.9531 0.5625 11.9531C0.527344 11.9531 0.386719 12.2344 0.269531 12.5625Z" fill="#031A6B"/>
<path d="M50.332 20.9766L41.3086 30L50.332 39.0234C55.2891 43.9805 59.3906 48.0469 59.4375 48.0469C59.4727 48.0469 59.6133 47.7656 59.7305 47.4258C59.9297 46.8516 59.9414 45.9961 59.9414 30C59.9414 14.0039 59.9297 13.1484 59.7305 12.5625C59.6133 12.2344 59.4727 11.9531 59.4375 11.9531C59.3906 11.9531 55.2891 16.0078 50.332 20.9766Z" fill="#031A6B"/>
<path d="M12.0695 41.543C6.26874 47.3438 3.15155 50.543 3.22187 50.6133C3.29218 50.6836 3.65546 50.8125 4.04218 50.9062C4.66327 51.0703 7.54609 51.0938 29.9992 51.0938C52.4523 51.0938 55.3351 51.0703 55.9562 50.9062C56.343 50.8125 56.7062 50.6836 56.7766 50.6133C56.8469 50.543 53.7297 47.3438 47.9055 41.5195L38.9172 32.5312L36.1281 35.2852C33.5734 37.8164 33.257 38.0859 32.4133 38.5078L31.4758 38.9648H29.9992H28.5226L27.5851 38.5078C26.7414 38.0859 26.4133 37.8047 23.8937 35.3086C22.382 33.8086 21.1164 32.5781 21.0812 32.5781C21.0578 32.5781 17.0031 36.6094 12.0695 41.543Z" fill="#031A6B"/>
</svg>
