<svg width="120" height="120" viewBox="0 0 120 120" fill="none" xmlns="http://www.w3.org/2000/svg">
<g clip-path="url(#clip0_5215_33623)">
<path opacity="0.994" fill-rule="evenodd" clip-rule="evenodd" d="M54.7266 -0.117188C58.1641 -0.117188 61.6015 -0.117188 65.0391 -0.117188C88.548 2.8083 105.306 14.9958 115.312 36.4453C117.726 42.3485 119.249 48.4423 119.883 54.7266C119.883 55.8204 119.883 56.914 119.883 58.0078C113.681 52.392 107.509 46.728 101.367 41.0156C100.688 40.4508 99.9851 39.9429 99.2578 39.4922C98.9916 38.4912 98.4839 37.632 97.7344 36.9141C95.6571 34.7585 93.5086 32.688 91.2891 30.7031C88.0216 29.0402 84.9748 29.3527 82.1484 31.6406C71.7937 42.0345 61.403 52.3861 50.9766 62.6953C46.0969 57.933 41.2533 53.1284 36.4453 48.2812C33.1748 46.6184 30.128 46.931 27.3047 49.2188C24.9841 51.3823 22.8358 53.6869 20.8594 56.1328C19.6678 58.7102 19.824 61.2101 21.3281 63.6328C29.8521 72.5084 38.5629 81.1802 47.4609 89.6484C56.7518 99.1737 66.2048 108.549 75.8203 117.773C72.2824 118.78 68.6885 119.483 65.0391 119.883C61.6015 119.883 58.1641 119.883 54.7266 119.883C31.2176 116.957 14.4597 104.77 4.45312 83.3203C2.03984 77.4171 0.516403 71.3234 -0.117188 65.0391C-0.117188 61.6015 -0.117188 58.1641 -0.117188 54.7266C2.8083 31.2176 14.9958 14.4597 36.4453 4.45312C42.3485 2.03984 48.4423 0.516403 54.7266 -0.117188Z" fill="#32BA7C"/>
<path fill-rule="evenodd" clip-rule="evenodd" d="M99.2588 39.4913C100.043 41.7933 99.7695 43.9808 98.4385 46.0538C84.0245 60.4679 69.6104 74.8819 55.1963 89.296C52.6634 90.8466 50.0853 90.9638 47.462 89.6476C38.5639 81.1793 29.8531 72.5075 21.3292 63.6319C19.8251 61.2092 19.6688 58.7093 20.8604 56.1319C22.8368 53.686 24.9852 51.3814 27.3057 49.2179C30.129 46.9301 33.1759 46.6175 36.4463 48.2804C41.2543 53.1275 46.0979 57.9322 50.9776 62.6944C61.404 52.3852 71.7948 42.0336 82.1495 31.6397C84.9758 29.3518 88.0227 29.0393 91.2901 30.7022C93.5096 32.6872 95.6581 34.7576 97.7354 36.9132C98.4849 37.6311 98.9926 38.4903 99.2588 39.4913Z" fill="#FEFEFE"/>
<path fill-rule="evenodd" clip-rule="evenodd" d="M99.2578 39.4922C99.9851 39.9429 100.688 40.4508 101.367 41.0156C107.509 46.728 113.681 52.392 119.883 58.0078C119.883 60.4296 119.883 62.8516 119.883 65.2734C117.585 85.0209 108.132 100.294 91.5234 111.094C86.6187 114.093 81.3844 116.319 75.8203 117.773C66.2048 108.549 56.7518 99.1737 47.4609 89.6484C50.0843 90.9647 52.6624 90.8475 55.1953 89.2969C69.6094 74.8828 84.0234 60.4688 98.4375 46.0547C99.7685 43.9816 100.042 41.7942 99.2578 39.4922Z" fill="#0AA06E"/>
</g>
<defs>
<clipPath id="clip0_5215_33623">
<rect width="120" height="120" fill="white"/>
</clipPath>
</defs>
</svg>
