<svg width="24" height="24" viewBox="0 0 24 24" fill="none" xmlns="http://www.w3.org/2000/svg">
<path opacity="0.98" fill-rule="evenodd" clip-rule="evenodd" d="M5.55377 1.33496C9.38191 1.32715 13.21 1.33496 17.0381 1.3584C18.3932 1.74869 19.0417 2.64713 18.9835 4.05371C18.5109 3.36299 17.8624 2.93331 17.0381 2.76465C15.1251 2.7112 13.2111 2.68776 11.296 2.69434C9.38083 2.68776 7.46678 2.7112 5.55377 2.76465C4.72947 2.93331 4.08104 3.36299 3.60845 4.05371C3.55563 2.64319 4.20407 1.73693 5.55377 1.33496Z" fill="#AFAFAF"/>
<path opacity="0.954" fill-rule="evenodd" clip-rule="evenodd" d="M18.0703 1.3824C18.5702 1.35366 19.0234 1.5021 19.4297 1.82772C19.9323 2.23641 20.237 2.75985 20.3437 3.39803C20.375 9.11678 20.375 14.8355 20.3437 20.5543C20.1869 21.4458 19.6947 22.0786 18.8672 22.4527C18.6118 22.5675 18.3462 22.6143 18.0703 22.5933C18.84 22.0885 19.2854 21.3776 19.4062 20.4605C19.4375 14.8043 19.4375 9.14804 19.4062 3.49178C19.2899 2.57258 18.8446 1.86945 18.0703 1.3824Z" fill="#AFAFAF"/>
<path opacity="0.976" fill-rule="evenodd" clip-rule="evenodd" d="M5.74219 3.11621C9.44536 3.1084 13.1485 3.11621 16.8516 3.13965C18.0208 3.3401 18.7317 4.01979 18.9844 5.17871C19.0156 9.5537 19.0156 13.9287 18.9844 18.3037C18.7422 19.4209 18.0625 20.1006 16.9453 20.3428C13.1797 20.374 9.41405 20.374 5.64844 20.3428C4.53125 20.1006 3.85157 19.4209 3.60938 18.3037C3.57812 13.9287 3.57812 9.5537 3.60938 5.17871C3.8706 4.01895 4.58154 3.33145 5.74219 3.11621ZM6.67969 5.45996C7.13724 5.40418 7.52006 5.54481 7.82813 5.88184C7.92352 6.02532 7.97817 6.1816 7.99219 6.35059C7.89717 6.35818 7.80342 6.35035 7.71094 6.32715C7.58128 5.93204 7.30786 5.73671 6.89063 5.74121C6.49102 5.75335 6.20977 5.94085 6.04688 6.30371C5.92945 6.78474 5.96072 7.25349 6.14063 7.70996C6.59836 8.17449 7.06711 8.1901 7.54688 7.75684C7.63444 7.61129 7.68914 7.45506 7.71094 7.28809C7.82456 7.27365 7.93392 7.28931 8.03906 7.33496C7.82109 8.13156 7.30547 8.45185 6.49219 8.2959C6.05466 8.13957 5.78124 7.83488 5.67188 7.38184C5.5057 6.71256 5.66977 6.14223 6.16406 5.6709C6.33549 5.58549 6.50738 5.51518 6.67969 5.45996ZM8.55469 5.55371C8.66405 5.55371 8.77345 5.55371 8.88281 5.55371C8.88281 6.3662 8.88281 7.17873 8.88281 7.99121C9.35156 7.99121 9.82031 7.99121 10.2891 7.99121C10.2891 8.08496 10.2891 8.17871 10.2891 8.27246C9.71095 8.27246 9.1328 8.27246 8.55469 8.27246C8.55469 7.36623 8.55469 6.45995 8.55469 5.55371ZM11.5078 5.55371C11.646 5.54073 11.7788 5.55634 11.9063 5.60059C12.2312 6.47377 12.5515 7.34879 12.8672 8.22559C12.7484 8.28545 12.6312 8.28545 12.5156 8.22559C12.4343 7.97382 12.3484 7.72384 12.2578 7.47559C11.8684 7.4288 11.4778 7.4132 11.0859 7.42871C11.0052 7.6944 10.9193 7.96004 10.8281 8.22559C10.7156 8.27724 10.5984 8.28507 10.4766 8.24902C10.8271 7.35268 11.1709 6.45423 11.5078 5.55371ZM13.3828 5.55371C13.4922 5.55371 13.6016 5.55371 13.7109 5.55371C13.7109 6.45995 13.7109 7.36623 13.7109 8.27246C13.6016 8.27246 13.4922 8.27246 13.3828 8.27246C13.3828 7.36623 13.3828 6.45995 13.3828 5.55371ZM14.3672 5.55371C14.5391 5.55371 14.7109 5.55371 14.8828 5.55371C15.1169 6.34191 15.3747 7.12318 15.6563 7.89746C15.9523 7.1423 16.2257 6.37665 16.4766 5.60059C16.6456 5.55423 16.8175 5.53857 16.9922 5.55371C16.9922 6.45995 16.9922 7.36623 16.9922 8.27246C16.8828 8.27246 16.7734 8.27246 16.6641 8.27246C16.6719 7.49106 16.6641 6.70979 16.6406 5.92871C16.3762 6.70646 16.1027 7.4799 15.8203 8.24902C15.6854 8.29388 15.5682 8.27045 15.4688 8.17871C15.2303 7.41652 14.9648 6.66652 14.6719 5.92871C14.6484 6.70979 14.6406 7.49106 14.6484 8.27246C14.5547 8.27246 14.4609 8.27246 14.3672 8.27246C14.3672 7.36623 14.3672 6.45995 14.3672 5.55371ZM6.67969 9.49121C7.86066 9.43135 8.61849 9.96259 8.95313 11.085C9.0571 12.5122 8.40085 13.3247 6.98438 13.5225C5.58961 13.331 4.93336 12.5341 5.01563 11.1318C5.25581 10.2588 5.81049 9.71195 6.67969 9.49121ZM10.3359 10.1006C10.9611 10.0928 11.5861 10.1006 12.2109 10.124C12.4069 10.2716 12.3913 10.3966 12.1641 10.499C11.5703 10.5303 10.9766 10.5303 10.3828 10.499C10.1506 10.3891 10.135 10.2563 10.3359 10.1006ZM13.1016 10.1006C14.5704 10.0928 16.0391 10.1006 17.5078 10.124C17.6367 10.2652 17.6211 10.3902 17.4609 10.499C16.0234 10.5303 14.586 10.5303 13.1484 10.499C12.9288 10.3827 12.9132 10.2499 13.1016 10.1006ZM7.57031 10.8037C7.78125 10.788 7.86717 10.8817 7.82813 11.085C7.46095 11.4521 7.09374 11.8194 6.72656 12.1865C6.66056 12.2013 6.59808 12.1857 6.53906 12.1396C6.40627 12.0069 6.27342 11.874 6.14063 11.7412C6.08714 11.5839 6.1418 11.4901 6.30469 11.46C6.4552 11.5281 6.59583 11.5984 6.72656 11.6709C7.01733 11.388 7.29858 11.0989 7.57031 10.8037ZM10.3828 11.2725C11.9923 11.2646 13.6016 11.2725 15.2109 11.2959C15.4269 11.4007 15.4425 11.5257 15.2578 11.6709C13.6172 11.7022 11.9766 11.7022 10.3359 11.6709C10.1449 11.5166 10.1605 11.3838 10.3828 11.2725ZM16.1016 11.2725C16.5393 11.2647 16.9769 11.2725 17.4141 11.2959C17.6154 11.3824 17.6467 11.5074 17.5078 11.6709C17.0235 11.7022 16.539 11.7022 16.0547 11.6709C15.9218 11.516 15.9375 11.3832 16.1016 11.2725ZM10.3359 12.4912C12.0548 12.4834 13.7735 12.4912 15.4922 12.5146C15.6281 12.6626 15.6124 12.7876 15.4453 12.8896C13.7578 12.9209 12.0703 12.9209 10.3828 12.8896C10.1506 12.7797 10.135 12.6469 10.3359 12.4912ZM6.86719 14.2256C8.45231 14.3967 9.132 15.2717 8.90625 16.8506C8.45386 17.9246 7.64916 18.3699 6.49219 18.1865C5.55272 17.8878 5.05275 17.2472 4.99219 16.2646C5.09058 15.0961 5.71556 14.4164 6.86719 14.2256ZM10.3828 14.835C10.9768 14.8271 11.5705 14.835 12.1641 14.8584C12.3913 14.9609 12.4069 15.0858 12.2109 15.2334C11.586 15.2647 10.9609 15.2647 10.3359 15.2334C10.1449 15.0791 10.1605 14.9463 10.3828 14.835ZM13.1484 14.835C14.586 14.8271 16.0235 14.835 17.4609 14.8584C17.6211 14.9672 17.6367 15.0922 17.5078 15.2334C16.0391 15.2647 14.5703 15.2647 13.1016 15.2334C12.9272 15.0866 12.9428 14.9538 13.1484 14.835ZM7.57031 15.5381C7.78125 15.5223 7.86717 15.6161 7.82813 15.8193C7.47656 16.1709 7.125 16.5225 6.77344 16.874C6.6953 16.9053 6.6172 16.9053 6.53906 16.874C6.40627 16.7412 6.27342 16.6084 6.14063 16.4756C6.1095 16.2414 6.21103 16.1554 6.44531 16.2178C6.51563 16.2881 6.58594 16.3584 6.65625 16.4287C6.95602 16.1211 7.2607 15.8242 7.57031 15.5381ZM10.3359 16.0537C11.9767 16.0459 13.6173 16.0537 15.2578 16.0771C15.4398 16.2463 15.4086 16.3713 15.1641 16.4521C13.5703 16.4834 11.9766 16.4834 10.3828 16.4521C10.1506 16.3422 10.135 16.2094 10.3359 16.0537ZM16.0547 16.0537C16.5393 16.0459 17.0237 16.0537 17.5078 16.0771C17.6467 16.2406 17.6154 16.3657 17.4141 16.4521C16.9922 16.4834 16.5703 16.4834 16.1484 16.4521C15.9364 16.3695 15.9052 16.2367 16.0547 16.0537ZM10.3828 17.2256C12.0704 17.2178 13.7579 17.2256 15.4453 17.249C15.6124 17.3511 15.6281 17.4761 15.4922 17.624C13.7734 17.6553 12.0547 17.6553 10.3359 17.624C10.1449 17.4698 10.1605 17.337 10.3828 17.2256Z" fill="#AFAFAF"/>
<path opacity="0.837" fill-rule="evenodd" clip-rule="evenodd" d="M11.6484 5.92975C11.6952 5.92834 11.7264 5.95178 11.7422 6.00006C11.8817 6.39508 12.0067 6.79351 12.1172 7.19537C11.8203 7.19537 11.5234 7.19537 11.2266 7.19537C11.3537 6.76909 11.4944 6.34722 11.6484 5.92975Z" fill="#AFAFAF"/>
<path opacity="0.937" fill-rule="evenodd" clip-rule="evenodd" d="M6.63281 9.9141C7.78322 9.82457 8.43947 10.348 8.60156 11.4844C8.49914 12.4619 7.96008 13.0009 6.98438 13.1016C6.00956 13.0018 5.4705 12.4627 5.36719 11.4844C5.45728 10.6843 5.87916 10.1609 6.63281 9.9141ZM7.57031 10.8047C7.29858 11.0999 7.01733 11.389 6.72656 11.6719C6.59583 11.5994 6.4552 11.5291 6.30469 11.461C6.1418 11.4911 6.08714 11.5849 6.14062 11.7422C6.27342 11.875 6.40627 12.0079 6.53906 12.1407C6.59808 12.1867 6.66056 12.2023 6.72656 12.1875C7.09373 11.8204 7.46095 11.4532 7.82812 11.086C7.86717 10.8827 7.78125 10.789 7.57031 10.8047Z" fill="#AFAFAF"/>
<path opacity="0.941" fill-rule="evenodd" clip-rule="evenodd" d="M6.7262 14.6485C7.74339 14.5959 8.36059 15.0646 8.57777 16.0548C8.55433 17.3281 7.90591 17.914 6.63245 17.8126C5.59314 17.4607 5.21031 16.7498 5.48402 15.6798C5.72524 15.1175 6.13933 14.7737 6.7262 14.6485ZM7.56995 15.5391C7.26034 15.8252 6.95566 16.1221 6.65589 16.4298C6.58558 16.3595 6.51527 16.2891 6.44495 16.2188C6.21067 16.1565 6.10914 16.2425 6.14027 16.4766C6.27306 16.6094 6.40591 16.7423 6.5387 16.8751C6.61684 16.9063 6.69494 16.9063 6.77308 16.8751C7.12464 16.5235 7.4762 16.172 7.82777 15.8204C7.86681 15.6171 7.78089 15.5234 7.56995 15.5391Z" fill="#AFAFAF"/>
<path opacity="0.974" fill-rule="evenodd" clip-rule="evenodd" d="M3.58691 19.4297C4.10465 20.1878 4.82342 20.6332 5.74316 20.7656C9.44628 20.7969 13.1494 20.7969 16.8525 20.7656C17.7706 20.6432 18.4815 20.1979 18.9853 19.4297C19.1961 20.6083 18.8289 21.5536 17.8838 22.2656C17.6205 22.4211 17.3392 22.5305 17.04 22.5937C13.2119 22.625 9.3838 22.625 5.55566 22.5937C4.49031 22.3097 3.84187 21.63 3.61034 20.5547C3.58692 20.18 3.57911 19.805 3.58691 19.4297ZM9.54003 21.4922C10.6026 21.4844 11.6652 21.4922 12.7275 21.5156C12.8634 21.6636 12.8478 21.7885 12.6807 21.8906C11.6494 21.9219 10.6182 21.9219 9.58691 21.8906C9.3688 21.7765 9.35314 21.6437 9.54003 21.4922Z" fill="#AFAFAF"/>
</svg>
