<svg width="40" height="40" viewBox="0 0 40 40" fill="none" xmlns="http://www.w3.org/2000/svg">
<path fill-rule="evenodd" clip-rule="evenodd" d="M29.1035 1.91342C29.1893 1.9835 29.1893 2.0486 29.1035 2.10874C25.2333 4.56554 21.5876 7.32596 18.166 10.39C17.6033 10.9396 17.0564 11.4995 16.5254 12.0697C14.0949 13.4545 11.647 14.8217 9.18163 16.1712C7.76199 16.1844 6.35574 16.2234 4.96288 16.2884C4.21215 16.3641 3.61319 16.7027 3.166 17.304C2.86862 17.6648 2.67331 18.0815 2.58006 18.554C2.54102 19.413 2.52799 20.2724 2.541 21.1322C1.9851 20.307 1.52938 19.4216 1.17381 18.4759C0.958189 17.3333 1.2837 16.3828 2.15038 15.6244C10.1712 11.1973 18.192 6.7702 26.2129 2.34311C27.114 1.74592 28.0776 1.6027 29.1035 1.91342Z" fill="#FDBC21"/>
<path fill-rule="evenodd" clip-rule="evenodd" d="M29.1016 1.91406C29.7086 2.14286 30.1904 2.53348 30.5469 3.08594C33.08 7.68809 35.593 12.2974 38.0859 16.9141C38.4602 18.1479 38.1738 19.2026 37.2266 20.0781C36.7527 20.3931 36.2579 20.6666 35.7422 20.8984C35.7552 20.0907 35.7422 19.2834 35.7031 18.4766C35.368 17.2429 34.5738 16.5138 33.3203 16.2891C28.2033 16.211 23.073 16.185 17.9297 16.2109C22.3914 13.7063 26.8705 11.2194 31.3672 8.75C31.8177 8.32898 31.8697 7.8732 31.5234 7.38281C31.1938 6.69763 30.8423 6.02055 30.4688 5.35156C30.2035 5.06352 29.878 4.94633 29.4922 5C25.1776 7.37855 20.8546 9.73531 16.5234 12.0703C17.0545 11.5002 17.6013 10.9402 18.1641 10.3906C21.5856 7.3266 25.2314 4.56618 29.1016 2.10938C29.1873 2.04924 29.1873 1.98414 29.1016 1.91406Z" fill="#FED374"/>
<path fill-rule="evenodd" clip-rule="evenodd" d="M31.5234 7.38374C31.5289 7.93913 31.2684 8.31679 30.7422 8.51655C26.0682 11.0488 21.4067 13.6008 16.7578 16.1728C17.1476 16.2118 17.5382 16.2248 17.9297 16.2119C23.073 16.1859 28.2033 16.2119 33.3203 16.29C23.8672 16.29 14.4141 16.29 4.96094 16.29C6.3538 16.225 7.76005 16.1859 9.17969 16.1728C11.6451 14.8233 14.093 13.4561 16.5234 12.0712C20.8546 9.73624 25.1776 7.37947 29.4922 5.00093C29.878 4.94725 30.2035 5.06444 30.4688 5.35249C30.8423 6.02147 31.1938 6.69856 31.5234 7.38374Z" fill="#2D4084"/>
<path fill-rule="evenodd" clip-rule="evenodd" d="M31.5234 7.38281C31.8697 7.8732 31.8177 8.32898 31.3672 8.75C26.8705 11.2194 22.3914 13.7063 17.9297 16.2109C17.5382 16.2239 17.1476 16.2109 16.7578 16.1719C21.4067 13.5999 26.0682 11.0479 30.7422 8.51562C31.2684 8.31586 31.5289 7.9382 31.5234 7.38281Z" fill="#031A6B"/>
<path fill-rule="evenodd" clip-rule="evenodd" d="M32.3047 9.72656C33.5686 11.2906 34.5712 13.0094 35.3125 14.8828C34.0912 13.3008 33.0886 11.582 32.3047 9.72656Z" fill="#FFFCF5"/>
<path fill-rule="evenodd" clip-rule="evenodd" d="M13.6328 11.5226C13.7796 11.5142 13.8056 11.5533 13.7109 11.6398C12.0566 12.8191 10.3118 13.8608 8.47656 14.7648C8.39844 14.8169 8.32031 14.8169 8.24219 14.7648C9.93102 13.5059 11.7279 12.4251 13.6328 11.5226Z" fill="#FFFAF1"/>
<path fill-rule="evenodd" clip-rule="evenodd" d="M4.96094 16.2891C14.4141 16.2891 23.8672 16.2891 33.3203 16.2891C34.5738 16.5137 35.368 17.2429 35.7031 18.4766C35.7422 19.2834 35.7552 20.0907 35.7422 20.8984C35.7422 21.3412 35.7422 21.7838 35.7422 22.2266C35.7422 26.1849 35.7422 30.1432 35.7422 34.1016C35.3215 31.8898 34.397 29.9107 32.9688 28.1641C31.1966 26.1043 29.1263 24.4246 26.7578 23.125C22.7773 21.0603 18.5845 19.602 14.1797 18.75C10.523 18.062 6.8512 17.5802 3.16406 17.3047C3.61125 16.7034 4.21021 16.3648 4.96094 16.2891Z" fill="#2D4084"/>
<path opacity="0.978" fill-rule="evenodd" clip-rule="evenodd" d="M38.0859 16.9141C38.8162 17.8534 38.9855 18.8952 38.5938 20.0391C38.4098 20.4577 38.1364 20.8092 37.7734 21.0938C37.1068 21.4921 36.4298 21.8697 35.7422 22.2266C35.7422 21.7838 35.7422 21.3412 35.7422 20.8984C36.2579 20.6666 36.7527 20.3931 37.2266 20.0781C38.1738 19.2026 38.4602 18.1479 38.0859 16.9141Z" fill="#FEBC1F"/>
<path fill-rule="evenodd" clip-rule="evenodd" d="M3.16503 17.3047C6.85216 17.5802 10.524 18.062 14.1807 18.75C18.5855 19.602 22.7782 21.0603 26.7588 23.125C29.1272 24.4246 31.1975 26.1043 32.9697 28.1641C34.398 29.9107 35.3225 31.8898 35.7432 34.1016C35.7432 34.3099 35.7432 34.5182 35.7432 34.7266C35.4612 36.037 34.6539 36.8052 33.3213 37.0312C23.8421 37.0834 14.3629 37.0834 4.88378 37.0312C3.614 36.712 2.83275 35.9177 2.54003 34.6484C2.54003 30.1432 2.54003 25.638 2.54003 21.1328C2.52702 20.273 2.54005 19.4137 2.57909 18.5547C2.67234 18.0821 2.86765 17.6655 3.16503 17.3047Z" fill="#57669C"/>
<path fill-rule="evenodd" clip-rule="evenodd" d="M7.61814 19.4931C7.61814 20.2223 7.61814 20.9515 7.61814 21.6806C6.6546 21.6806 5.69105 21.6806 4.72751 21.6806C4.71454 21.2372 4.72756 20.7945 4.76658 20.3525C4.94285 19.9418 5.24233 19.6684 5.66501 19.5322C6.31554 19.4931 6.96658 19.4802 7.61814 19.4931Z" fill="#FDD376"/>
<path fill-rule="evenodd" clip-rule="evenodd" d="M7.61893 19.4922C7.80122 19.4922 7.98354 19.4922 8.1658 19.4922C8.1658 20.2213 8.1658 20.9505 8.1658 21.6797C9.38979 21.6797 10.6137 21.6797 11.8377 21.6797C11.8377 21.888 11.8377 22.0963 11.8377 22.3047C11.2127 22.3047 10.5877 22.3047 9.96268 22.3047C9.96268 23.0078 9.96268 23.7109 9.96268 24.4141C10.3869 24.4405 10.8036 24.4015 11.2127 24.2969C11.5256 24.128 11.7339 23.8806 11.8377 23.5547C11.8377 23.6328 11.8377 23.7109 11.8377 23.7891C11.7592 24.2972 11.4728 24.6227 10.9783 24.7656C9.15541 24.8177 7.33247 24.8177 5.50955 24.7656C4.94051 24.5264 4.6801 24.0967 4.7283 23.4766C4.98528 24.1983 5.50612 24.5108 6.2908 24.4141C6.2908 23.6849 6.2908 22.9557 6.2908 22.2266C5.76997 22.2266 5.24914 22.2266 4.7283 22.2266C4.7283 22.0443 4.7283 21.862 4.7283 21.6797C5.69184 21.6797 6.65539 21.6797 7.61893 21.6797C7.61893 20.9505 7.61893 20.2213 7.61893 19.4922Z" fill="#FDBC23"/>
<path fill-rule="evenodd" clip-rule="evenodd" d="M8.16406 19.4912C9.04984 19.4782 9.93531 19.4912 10.8203 19.5303C11.5259 19.7148 11.8774 20.1705 11.875 20.8975C11.9396 21.8746 11.9266 22.8381 11.8359 23.7881C11.8359 23.71 11.8359 23.6318 11.8359 23.5537C11.8359 23.1371 11.8359 22.7204 11.8359 22.3037C11.8359 22.0954 11.8359 21.8871 11.8359 21.6787C10.612 21.6787 9.38805 21.6787 8.16406 21.6787C8.16406 20.9496 8.16406 20.2204 8.16406 19.4912Z" fill="#FBD378"/>
<path fill-rule="evenodd" clip-rule="evenodd" d="M27.3053 20.4287C29.2847 20.4157 31.2638 20.4287 33.2428 20.4678C33.5779 20.6655 33.643 20.939 33.4381 21.2881C33.3795 21.337 33.3143 21.3761 33.2428 21.4053C31.2897 21.4574 29.3365 21.4574 27.3834 21.4053C27.0872 21.2449 26.9961 20.9976 27.11 20.6631C27.1916 20.5949 27.2567 20.5168 27.3053 20.4287Z" fill="#FCFDFF"/>
<path fill-rule="evenodd" clip-rule="evenodd" d="M4.72656 22.2266C5.2474 22.2266 5.76823 22.2266 6.28906 22.2266C6.28906 22.9557 6.28906 23.6849 6.28906 24.4141C5.50438 24.5108 4.98354 24.1983 4.72656 23.4766C4.72656 23.0599 4.72656 22.6432 4.72656 22.2266Z" fill="#FFD373"/>
<path fill-rule="evenodd" clip-rule="evenodd" d="M6.83594 22.2266C7.66927 22.2266 8.50258 22.2266 9.33594 22.2266C9.33594 22.9557 9.33594 23.6849 9.33594 24.4141C8.50258 24.4141 7.66927 24.4141 6.83594 24.4141C6.83594 23.6849 6.83594 22.9557 6.83594 22.2266Z" fill="#FFD373"/>
<path fill-rule="evenodd" clip-rule="evenodd" d="M11.8359 22.3047C11.8359 22.7213 11.8359 23.138 11.8359 23.5547C11.7321 23.8806 11.5238 24.128 11.2109 24.2969C10.8019 24.4015 10.3852 24.4405 9.96094 24.4141C9.96094 23.7109 9.96094 23.0078 9.96094 22.3047C10.5859 22.3047 11.2109 22.3047 11.8359 22.3047Z" fill="#FFD374"/>
<path fill-rule="evenodd" clip-rule="evenodd" d="M29.6465 22.6162C30.8447 22.6032 32.0426 22.6162 33.2403 22.6553C33.5754 22.853 33.6405 23.1265 33.4356 23.4756C33.377 23.5245 33.3118 23.5636 33.2403 23.5928C32.0684 23.6449 30.8965 23.6449 29.7247 23.5928C29.3437 23.2983 29.3176 22.9728 29.6465 22.6162Z" fill="#FBFCFF"/>
<path fill-rule="evenodd" clip-rule="evenodd" d="M9.57114 31.9141C9.64778 32.5526 9.38739 32.9823 8.78989 33.2031C7.74822 33.2553 6.70655 33.2553 5.66489 33.2031C5.25115 33.1135 4.93865 32.8922 4.72739 32.5391C4.62865 31.8642 4.88907 31.3824 5.50864 31.0938C6.57635 31.0417 7.64405 31.0417 8.71176 31.0938C9.1402 31.2228 9.42661 31.4962 9.57114 31.9141Z" fill="#FCFDFE"/>
<path fill-rule="evenodd" clip-rule="evenodd" d="M17.6191 32.3828C17.4771 32.7981 17.1907 33.0716 16.7597 33.2031C16.2389 33.2162 15.7181 33.2292 15.1972 33.2422C14.5925 33.2513 13.9936 33.2122 13.4003 33.125C13.0493 32.9788 12.8149 32.7314 12.6972 32.3828C12.6482 31.7645 12.9086 31.3348 13.4785 31.0938C14.5462 31.0417 15.6139 31.0417 16.6816 31.0938C17.3295 31.2836 17.642 31.7133 17.6191 32.3828Z" fill="#FCFDFE"/>
<path fill-rule="evenodd" clip-rule="evenodd" d="M25.5857 32.5391C25.3745 32.8922 25.062 33.1135 24.6482 33.2031C23.6326 33.2553 22.617 33.2553 21.6014 33.2031C20.954 33.0119 20.6675 32.5822 20.742 31.9141C20.8257 31.4787 21.0861 31.2053 21.5232 31.0938C22.591 31.0417 23.6586 31.0417 24.7264 31.0938C25.4027 31.3392 25.6892 31.8209 25.5857 32.5391Z" fill="#FCFDFE"/>
<path fill-rule="evenodd" clip-rule="evenodd" d="M33.5549 32.5391C33.3812 32.8036 33.1468 32.9989 32.8517 33.125C31.7059 33.1771 30.5601 33.1771 29.4142 33.125C29.1174 32.9967 28.883 32.8014 28.7111 32.5391C28.5743 31.8358 28.8347 31.354 29.4924 31.0938C30.5601 31.0417 31.6278 31.0417 32.6955 31.0938C33.3739 31.3439 33.6603 31.8257 33.5549 32.5391Z" fill="#FDFEFE"/>
<path fill-rule="evenodd" clip-rule="evenodd" d="M9.57031 31.9141C9.69133 32.371 9.62617 32.8137 9.375 33.2422C9.23977 33.4076 9.07047 33.5248 8.86719 33.5938C7.7474 33.6459 6.6276 33.6459 5.50781 33.5938C5.02094 33.4068 4.76052 33.0552 4.72656 32.5391C4.93782 32.8922 5.25032 33.1135 5.66406 33.2031C6.70573 33.2552 7.7474 33.2552 8.78906 33.2031C9.38656 32.9823 9.64695 32.5526 9.57031 31.9141Z" fill="#DEE5F0"/>
<path fill-rule="evenodd" clip-rule="evenodd" d="M20.7438 31.9141C20.6694 32.5822 20.9559 33.0119 21.6032 33.2031C22.6188 33.2552 23.6345 33.2552 24.6501 33.2031C25.0638 33.1135 25.3763 32.8922 25.5876 32.5391C25.5524 33.0562 25.292 33.4077 24.8063 33.5938C23.6866 33.6459 22.5667 33.6459 21.447 33.5938C20.7656 33.22 20.5312 32.6601 20.7438 31.9141Z" fill="#DEE5F0"/>
<path fill-rule="evenodd" clip-rule="evenodd" d="M12.697 32.3828C12.8146 32.7314 13.049 32.9788 13.4001 33.125C13.9933 33.2122 14.5922 33.2513 15.197 33.2422C15.7178 33.2291 16.2386 33.2162 16.7595 33.2031C17.1904 33.0716 17.4768 32.7981 17.6189 32.3828C17.6431 32.9729 17.3826 33.3766 16.8376 33.5938C15.7178 33.6459 14.598 33.6459 13.4782 33.5938C12.9321 33.3739 12.6718 32.9702 12.697 32.3828Z" fill="#DEE5F0"/>
<path fill-rule="evenodd" clip-rule="evenodd" d="M28.7112 32.5391C28.8831 32.8014 29.1174 32.9967 29.4143 33.125C30.5602 33.1771 31.7059 33.1771 32.8518 33.125C33.1469 32.9989 33.3813 32.8036 33.5549 32.5391C33.5317 33.0674 33.2713 33.419 32.7737 33.5938C31.6539 33.6459 30.5341 33.6459 29.4143 33.5938C28.9367 33.4073 28.7023 33.0557 28.7112 32.5391Z" fill="#E1E6F1"/>
<path opacity="0.993" fill-rule="evenodd" clip-rule="evenodd" d="M2.5383 34.6484C2.83102 35.9177 3.61227 36.712 4.88205 37.0312C14.3612 37.0834 23.8404 37.0834 33.3195 37.0312C34.6522 36.8052 35.4595 36.037 35.7414 34.7266C35.9557 36.4491 35.2526 37.582 33.632 38.125C23.9706 38.1771 14.3092 38.1771 4.64767 38.125C3.00051 37.5538 2.29738 36.3949 2.5383 34.6484Z" fill="#57669C"/>
<path fill-rule="evenodd" clip-rule="evenodd" d="M24.8047 35.5068C26.2372 35.4938 27.6695 35.5068 29.1016 35.5459C29.6003 35.5648 30.0952 35.6168 30.5859 35.7022C28.2941 35.9626 26.0023 35.9626 23.7109 35.7022C24.0837 35.6254 24.4483 35.5602 24.8047 35.5068Z" fill="#F2F9FF"/>
</svg>
