<svg width="24" height="24" viewBox="0 0 24 24" fill="none" xmlns="http://www.w3.org/2000/svg">
<path opacity="0.98" fill-rule="evenodd" clip-rule="evenodd" d="M5.55377 1.33594C9.38191 1.32812 13.21 1.33594 17.0381 1.35938C18.3932 1.74967 19.0417 2.64811 18.9835 4.05469C18.5109 3.36397 17.8624 2.93428 17.0381 2.76563C15.1251 2.71217 13.2111 2.68874 11.296 2.69531C9.38083 2.68874 7.46678 2.71217 5.55377 2.76563C4.72947 2.93428 4.08104 3.36397 3.60845 4.05469C3.55563 2.64416 4.20407 1.73791 5.55377 1.33594Z" fill="#FEFEFE"/>
<path opacity="0.954" fill-rule="evenodd" clip-rule="evenodd" d="M18.0703 1.38289C18.5702 1.35415 19.0234 1.50259 19.4297 1.8282C19.9323 2.2369 20.237 2.76034 20.3437 3.39852C20.375 9.11727 20.375 14.836 20.3437 20.5548C20.1869 21.4463 19.6947 22.0791 18.8672 22.4532C18.6118 22.568 18.3462 22.6148 18.0703 22.5938C18.84 22.089 19.2854 21.3781 19.4062 20.461C19.4375 14.8048 19.4375 9.14853 19.4062 3.49227C19.2899 2.57307 18.8446 1.86994 18.0703 1.38289Z" fill="#FEFEFE"/>
<path opacity="0.976" fill-rule="evenodd" clip-rule="evenodd" d="M5.74219 3.11719C9.44536 3.10937 13.1485 3.11719 16.8516 3.14063C18.0208 3.34108 18.7317 4.02076 18.9844 5.17969C19.0156 9.55467 19.0156 13.9297 18.9844 18.3047C18.7422 19.4219 18.0625 20.1015 16.9453 20.3437C13.1797 20.375 9.41405 20.375 5.64844 20.3437C4.53125 20.1015 3.85157 19.4219 3.60938 18.3047C3.57812 13.9297 3.57812 9.55467 3.60938 5.17969C3.8706 4.01993 4.58154 3.33242 5.74219 3.11719ZM6.67969 5.46094C7.13724 5.40516 7.52006 5.54578 7.82813 5.88281C7.92352 6.0263 7.97817 6.18258 7.99219 6.35156C7.89717 6.35916 7.80342 6.35133 7.71094 6.32813C7.58128 5.93302 7.30786 5.73769 6.89063 5.74219C6.49102 5.75433 6.20977 5.94183 6.04688 6.30469C5.92945 6.78572 5.96072 7.25447 6.14063 7.71094C6.59836 8.17547 7.06711 8.19108 7.54688 7.75781C7.63444 7.61227 7.68914 7.45603 7.71094 7.28906C7.82456 7.27463 7.93392 7.29028 8.03906 7.33594C7.82109 8.13253 7.30547 8.45283 6.49219 8.29688C6.05466 8.14055 5.78124 7.83586 5.67188 7.38281C5.5057 6.71353 5.66977 6.1432 6.16406 5.67188C6.33549 5.58647 6.50738 5.51616 6.67969 5.46094ZM8.55469 5.55469C8.66405 5.55469 8.77345 5.55469 8.88281 5.55469C8.88281 6.36717 8.88281 7.1797 8.88281 7.99219C9.35156 7.99219 9.82031 7.99219 10.2891 7.99219C10.2891 8.08594 10.2891 8.17969 10.2891 8.27344C9.71095 8.27344 9.1328 8.27344 8.55469 8.27344C8.55469 7.3672 8.55469 6.46092 8.55469 5.55469ZM11.5078 5.55469C11.646 5.5417 11.7788 5.55731 11.9063 5.60156C12.2312 6.47475 12.5515 7.34977 12.8672 8.22656C12.7484 8.28642 12.6312 8.28642 12.5156 8.22656C12.4343 7.9748 12.3484 7.72481 12.2578 7.47656C11.8684 7.42978 11.4778 7.41417 11.0859 7.42969C11.0052 7.69538 10.9193 7.96102 10.8281 8.22656C10.7156 8.27822 10.5984 8.28605 10.4766 8.25C10.8271 7.35366 11.1709 6.4552 11.5078 5.55469ZM13.3828 5.55469C13.4922 5.55469 13.6016 5.55469 13.7109 5.55469C13.7109 6.46092 13.7109 7.3672 13.7109 8.27344C13.6016 8.27344 13.4922 8.27344 13.3828 8.27344C13.3828 7.3672 13.3828 6.46092 13.3828 5.55469ZM14.3672 5.55469C14.5391 5.55469 14.7109 5.55469 14.8828 5.55469C15.1169 6.34289 15.3747 7.12416 15.6563 7.89844C15.9523 7.14328 16.2257 6.37763 16.4766 5.60156C16.6456 5.5552 16.8175 5.53955 16.9922 5.55469C16.9922 6.46092 16.9922 7.3672 16.9922 8.27344C16.8828 8.27344 16.7734 8.27344 16.6641 8.27344C16.6719 7.49203 16.6641 6.71077 16.6406 5.92969C16.3762 6.70744 16.1027 7.48088 15.8203 8.25C15.6854 8.29486 15.5682 8.27142 15.4688 8.17969C15.2303 7.4175 14.9648 6.6675 14.6719 5.92969C14.6484 6.71077 14.6406 7.49203 14.6484 8.27344C14.5547 8.27344 14.4609 8.27344 14.3672 8.27344C14.3672 7.3672 14.3672 6.46092 14.3672 5.55469ZM6.67969 9.49219C7.86066 9.43233 8.61849 9.96356 8.95313 11.0859C9.0571 12.5131 8.40085 13.3257 6.98438 13.5234C5.58961 13.332 4.93336 12.5351 5.01563 11.1328C5.25581 10.2598 5.81049 9.71292 6.67969 9.49219ZM10.3359 10.1016C10.9611 10.0937 11.5861 10.1016 12.2109 10.125C12.4069 10.2726 12.3913 10.3975 12.1641 10.5C11.5703 10.5313 10.9766 10.5313 10.3828 10.5C10.1506 10.3901 10.135 10.2572 10.3359 10.1016ZM13.1016 10.1016C14.5704 10.0937 16.0391 10.1016 17.5078 10.125C17.6367 10.2662 17.6211 10.3912 17.4609 10.5C16.0234 10.5313 14.586 10.5313 13.1484 10.5C12.9288 10.3837 12.9132 10.2509 13.1016 10.1016ZM7.57031 10.8047C7.78125 10.7889 7.86717 10.8827 7.82813 11.0859C7.46095 11.4531 7.09374 11.8203 6.72656 12.1875C6.66056 12.2023 6.59808 12.1867 6.53906 12.1406C6.40627 12.0078 6.27342 11.875 6.14063 11.7422C6.08714 11.5848 6.1418 11.4911 6.30469 11.4609C6.4552 11.529 6.59583 11.5994 6.72656 11.6719C7.01733 11.389 7.29858 11.0999 7.57031 10.8047ZM10.3828 11.2734C11.9923 11.2656 13.6016 11.2734 15.2109 11.2969C15.4269 11.4016 15.4425 11.5267 15.2578 11.6719C13.6172 11.7031 11.9766 11.7031 10.3359 11.6719C10.1449 11.5176 10.1605 11.3848 10.3828 11.2734ZM16.1016 11.2734C16.5393 11.2657 16.9769 11.2734 17.4141 11.2969C17.6154 11.3834 17.6467 11.5084 17.5078 11.6719C17.0235 11.7031 16.539 11.7031 16.0547 11.6719C15.9218 11.517 15.9375 11.3842 16.1016 11.2734ZM10.3359 12.4922C12.0548 12.4844 13.7735 12.4922 15.4922 12.5156C15.6281 12.6636 15.6124 12.7885 15.4453 12.8906C13.7578 12.9219 12.0703 12.9219 10.3828 12.8906C10.1506 12.7807 10.135 12.6479 10.3359 12.4922ZM6.86719 14.2266C8.45231 14.3977 9.132 15.2727 8.90625 16.8516C8.45386 17.9256 7.64916 18.3709 6.49219 18.1875C5.55272 17.8888 5.05275 17.2482 4.99219 16.2656C5.09058 15.0971 5.71556 14.4174 6.86719 14.2266ZM10.3828 14.8359C10.9768 14.8281 11.5705 14.8359 12.1641 14.8594C12.3913 14.9618 12.4069 15.0868 12.2109 15.2344C11.586 15.2656 10.9609 15.2656 10.3359 15.2344C10.1449 15.0801 10.1605 14.9473 10.3828 14.8359ZM13.1484 14.8359C14.586 14.8281 16.0235 14.8359 17.4609 14.8594C17.6211 14.9682 17.6367 15.0932 17.5078 15.2344C16.0391 15.2656 14.5703 15.2656 13.1016 15.2344C12.9272 15.0876 12.9428 14.9548 13.1484 14.8359ZM7.57031 15.5391C7.78125 15.5233 7.86717 15.6171 7.82813 15.8203C7.47656 16.1719 7.125 16.5234 6.77344 16.875C6.6953 16.9063 6.6172 16.9063 6.53906 16.875C6.40627 16.7422 6.27342 16.6094 6.14063 16.4766C6.1095 16.2424 6.21103 16.1564 6.44531 16.2187C6.51563 16.2891 6.58594 16.3594 6.65625 16.4297C6.95602 16.122 7.2607 15.8251 7.57031 15.5391ZM10.3359 16.0547C11.9767 16.0469 13.6173 16.0547 15.2578 16.0781C15.4398 16.2472 15.4086 16.3723 15.1641 16.4531C13.5703 16.4844 11.9766 16.4844 10.3828 16.4531C10.1506 16.3432 10.135 16.2104 10.3359 16.0547ZM16.0547 16.0547C16.5393 16.0469 17.0237 16.0547 17.5078 16.0781C17.6467 16.2416 17.6154 16.3666 17.4141 16.4531C16.9922 16.4844 16.5703 16.4844 16.1484 16.4531C15.9364 16.3705 15.9052 16.2376 16.0547 16.0547ZM10.3828 17.2266C12.0704 17.2187 13.7579 17.2266 15.4453 17.25C15.6124 17.3521 15.6281 17.4771 15.4922 17.625C13.7734 17.6563 12.0547 17.6563 10.3359 17.625C10.1449 17.4707 10.1605 17.3379 10.3828 17.2266Z" fill="#FEFEFE"/>
<path opacity="0.837" fill-rule="evenodd" clip-rule="evenodd" d="M11.6484 5.92975C11.6952 5.92834 11.7264 5.95178 11.7422 6.00006C11.8817 6.39508 12.0067 6.79351 12.1172 7.19537C11.8203 7.19537 11.5234 7.19537 11.2266 7.19537C11.3537 6.76909 11.4944 6.34722 11.6484 5.92975Z" fill="#FEFEFE"/>
<path opacity="0.937" fill-rule="evenodd" clip-rule="evenodd" d="M6.63281 9.9141C7.78322 9.82457 8.43947 10.348 8.60156 11.4844C8.49914 12.4619 7.96008 13.0009 6.98438 13.1016C6.00956 13.0018 5.4705 12.4627 5.36719 11.4844C5.45728 10.6843 5.87916 10.1609 6.63281 9.9141ZM7.57031 10.8047C7.29858 11.0999 7.01733 11.389 6.72656 11.6719C6.59583 11.5994 6.4552 11.5291 6.30469 11.461C6.1418 11.4911 6.08714 11.5849 6.14062 11.7422C6.27342 11.875 6.40627 12.0079 6.53906 12.1407C6.59808 12.1867 6.66056 12.2023 6.72656 12.1875C7.09373 11.8204 7.46095 11.4532 7.82812 11.086C7.86717 10.8827 7.78125 10.789 7.57031 10.8047Z" fill="#FEFEFE"/>
<path opacity="0.941" fill-rule="evenodd" clip-rule="evenodd" d="M6.7262 14.6485C7.74339 14.5959 8.36059 15.0646 8.57777 16.0548C8.55433 17.3281 7.90591 17.914 6.63245 17.8126C5.59314 17.4607 5.21031 16.7498 5.48402 15.6798C5.72524 15.1175 6.13933 14.7737 6.7262 14.6485ZM7.56995 15.5391C7.26034 15.8252 6.95566 16.1221 6.65589 16.4298C6.58558 16.3595 6.51527 16.2891 6.44495 16.2188C6.21067 16.1565 6.10914 16.2425 6.14027 16.4766C6.27306 16.6094 6.40591 16.7423 6.5387 16.8751C6.61684 16.9063 6.69494 16.9063 6.77308 16.8751C7.12464 16.5235 7.4762 16.172 7.82777 15.8204C7.86681 15.6171 7.78089 15.5234 7.56995 15.5391Z" fill="#FEFEFE"/>
<path opacity="0.974" fill-rule="evenodd" clip-rule="evenodd" d="M3.58691 19.4297C4.10465 20.1878 4.82342 20.6332 5.74316 20.7656C9.44628 20.7969 13.1494 20.7969 16.8525 20.7656C17.7706 20.6432 18.4815 20.1979 18.9853 19.4297C19.1961 20.6083 18.8289 21.5536 17.8838 22.2656C17.6205 22.4211 17.3392 22.5305 17.04 22.5937C13.2119 22.625 9.3838 22.625 5.55566 22.5937C4.49031 22.3097 3.84187 21.63 3.61034 20.5547C3.58692 20.18 3.57911 19.805 3.58691 19.4297ZM9.54003 21.4922C10.6026 21.4844 11.6652 21.4922 12.7275 21.5156C12.8634 21.6636 12.8478 21.7885 12.6807 21.8906C11.6494 21.9219 10.6182 21.9219 9.58691 21.8906C9.3688 21.7765 9.35314 21.6437 9.54003 21.4922Z" fill="#FEFEFE"/>
</svg>
