<svg width="20" height="20" viewBox="0 0 20 20" fill="none" xmlns="http://www.w3.org/2000/svg">
<path d="M14.1416 0.0669475C13.9893 0.117729 13.3682 0.723198 9.30566 4.78179C5.02832 9.05132 4.6416 9.44976 4.57129 9.64117C4.47363 9.90289 4.47363 10.0982 4.57129 10.3599C4.6416 10.5513 5.02832 10.9498 9.30566 15.2193C13.7627 19.6724 13.9736 19.8794 14.1768 19.9419C15.0127 20.2115 15.7705 19.3677 15.4072 18.5669C15.3643 18.4693 13.9346 17.0123 11.1377 14.2115L6.93457 10.0005L11.1377 5.79351C13.876 3.04742 15.3643 1.53179 15.4072 1.43804C15.6455 0.910698 15.3916 0.277885 14.8604 0.0786662C14.6104 -0.0111775 14.3877 -0.0150838 14.1416 0.0669475Z" fill="#FEFEFE"/>
</svg>
