<svg width="24" height="24" viewBox="0 0 24 24" fill="none" xmlns="http://www.w3.org/2000/svg">
<g clip-path="url(#clip0_3577_8673)">
<path opacity="0.984" fill-rule="evenodd" clip-rule="evenodd" d="M4.42969 -0.0234375C5.10155 -0.0234375 5.77345 -0.0234375 6.44531 -0.0234375C6.71006 0.0773363 6.88974 0.264836 6.98438 0.539062C7.01564 2.28906 7.01564 4.03906 6.98438 5.78906C6.90267 6.04266 6.73861 6.22237 6.49219 6.32812C6.15192 6.3803 5.80819 6.40373 5.46094 6.39844C5.09874 6.40294 4.73939 6.3795 4.38281 6.32812C4.11729 6.21881 3.95323 6.02348 3.89063 5.74219C3.85937 4.02344 3.85937 2.30469 3.89063 0.585938C3.96512 0.285131 4.14482 0.0820064 4.42969 -0.0234375Z" fill="#0F0F0F"/>
<path opacity="0.984" fill-rule="evenodd" clip-rule="evenodd" d="M17.4609 -0.0234375C18.1328 -0.0234375 18.8047 -0.0234375 19.4766 -0.0234375C19.7401 0.0761423 19.9198 0.263642 20.0156 0.539062C20.0469 2.28906 20.0469 4.03906 20.0156 5.78906C19.9339 6.04266 19.7699 6.22237 19.5234 6.32812C19.1747 6.37941 18.8231 6.40284 18.4688 6.39844C18.1144 6.40284 17.7628 6.37941 17.4141 6.32812C17.1677 6.22237 17.0036 6.04266 16.9219 5.78906C16.8906 4.03906 16.8906 2.28906 16.9219 0.539062C17.0177 0.263642 17.1974 0.0761423 17.4609 -0.0234375Z" fill="#0F0F0F"/>
<path opacity="0.985" fill-rule="evenodd" clip-rule="evenodd" d="M22.0078 23.9766C15.3203 23.9766 8.63283 23.9766 1.94531 23.9766C0.949238 23.6752 0.378924 23.0033 0.234375 21.9609C0.203125 16.1953 0.203125 10.4297 0.234375 4.66406C0.398494 3.41397 1.10943 2.74209 2.36719 2.64844C2.35938 3.7423 2.36719 4.83605 2.39063 5.92969C2.63631 7.00345 3.30037 7.65192 4.38281 7.875C5.08594 7.90627 5.78906 7.90627 6.49219 7.875C7.57922 7.67859 8.25891 7.04578 8.53125 5.97656C8.55469 4.85166 8.56252 3.72667 8.55469 2.60156C10.836 2.60156 13.1172 2.60156 15.3984 2.60156C15.3906 3.72667 15.3984 4.85166 15.4219 5.97656C15.6942 7.04578 16.3739 7.67859 17.4609 7.875C18.1641 7.90627 18.8672 7.90627 19.5703 7.875C20.6528 7.65192 21.3168 7.00345 21.5625 5.92969C21.5859 4.83605 21.5938 3.7423 21.5859 2.64844C22.8437 2.74209 23.5546 3.41397 23.7188 4.66406C23.75 10.4297 23.75 16.1953 23.7188 21.9609C23.5742 23.0033 23.0039 23.6752 22.0078 23.9766ZM3.86719 11.0391C9.25781 11.0312 14.6484 11.0391 20.0391 11.0625C20.4483 11.099 20.7218 11.3099 20.8594 11.6953C20.8906 14.7891 20.8906 17.8828 20.8594 20.9766C20.7352 21.4102 20.4461 21.6367 19.9922 21.6562C14.6328 21.6875 9.27342 21.6875 3.91406 21.6562C3.47716 21.6141 3.1881 21.3875 3.04688 20.9766C3.01562 17.8984 3.01562 14.8203 3.04688 11.7422C3.18693 11.3485 3.46037 11.1141 3.86719 11.0391Z" fill="#0F0F0F"/>
<path opacity="0.965" fill-rule="evenodd" clip-rule="evenodd" d="M6.21095 12.6328C6.883 12.625 7.5549 12.6328 8.22657 12.6563C8.49447 12.6898 8.65853 12.8382 8.71876 13.1016C8.75003 13.8203 8.75003 14.5391 8.71876 15.2578C8.66406 15.4688 8.53126 15.6016 8.32032 15.6563C7.58593 15.6875 6.85159 15.6875 6.1172 15.6563C5.90293 15.5825 5.77014 15.4341 5.71876 15.2109C5.6875 14.5234 5.6875 13.836 5.71876 13.1484C5.76629 12.8589 5.93036 12.687 6.21095 12.6328Z" fill="#0F0F0F"/>
<path opacity="0.975" fill-rule="evenodd" clip-rule="evenodd" d="M10.9922 12.6327C11.7289 12.613 12.4633 12.6365 13.1953 12.703C13.3086 12.781 13.3945 12.8825 13.4531 13.0077C13.4844 13.789 13.4844 14.5702 13.4531 15.3515C13.3799 15.5028 13.2627 15.6044 13.1016 15.6562C12.3516 15.6874 11.6016 15.6874 10.8516 15.6562C10.6905 15.6044 10.5733 15.5028 10.5 15.3515C10.4687 14.5702 10.4687 13.789 10.5 13.0077C10.6052 12.796 10.7692 12.671 10.9922 12.6327Z" fill="black"/>
<path opacity="0.965" fill-rule="evenodd" clip-rule="evenodd" d="M15.7266 12.6328C16.3986 12.625 17.0705 12.6328 17.7422 12.6563C18.0313 12.6953 18.1953 12.8594 18.2344 13.1484C18.2657 13.836 18.2657 14.5234 18.2344 15.2109C18.2016 15.3781 18.1157 15.5109 17.9766 15.6094C17.1984 15.6855 16.4172 15.7011 15.6328 15.6563C15.4219 15.6016 15.2891 15.4688 15.2344 15.2578C15.2031 14.5391 15.2031 13.8203 15.2344 13.1016C15.3028 12.8377 15.4668 12.6815 15.7266 12.6328Z" fill="black"/>
<path opacity="0.974" fill-rule="evenodd" clip-rule="evenodd" d="M6.07032 17.4141C6.83612 17.4062 7.60173 17.4141 8.3672 17.4375C8.55461 17.5072 8.67179 17.64 8.71876 17.8359C8.75003 18.5547 8.75003 19.2735 8.71876 19.9922C8.68745 20.1796 8.58587 20.3124 8.41407 20.3906C7.6172 20.4219 6.82032 20.4219 6.02345 20.3906C5.85812 20.2868 5.75654 20.1383 5.71876 19.9453C5.6875 19.2578 5.6875 18.5703 5.71876 17.8828C5.75729 17.6649 5.87448 17.5087 6.07032 17.4141Z" fill="black"/>
<path opacity="0.985" fill-rule="evenodd" clip-rule="evenodd" d="M10.8516 17.4141C11.6017 17.4062 12.3517 17.4141 13.1016 17.4375C13.2236 17.4789 13.3251 17.5492 13.4063 17.6484C13.4831 18.4567 13.4987 19.2691 13.4532 20.0859C13.4006 20.1855 13.3302 20.2714 13.2422 20.3438C12.434 20.4205 11.6215 20.4361 10.8047 20.3906C10.7052 20.338 10.6192 20.2677 10.5469 20.1797C10.4701 19.3715 10.4545 18.559 10.5 17.7422C10.5817 17.59 10.6989 17.4807 10.8516 17.4141Z" fill="black"/>
<path opacity="0.974" fill-rule="evenodd" clip-rule="evenodd" d="M15.5859 17.4141C16.3517 17.4062 17.1174 17.4141 17.8828 17.4375C18.0843 17.5205 18.2015 17.6689 18.2344 17.8828C18.2657 18.5703 18.2657 19.2578 18.2344 19.9453C18.1966 20.1383 18.095 20.2868 17.9297 20.3906C17.1328 20.4219 16.3359 20.4219 15.5391 20.3906C15.3673 20.3124 15.2657 20.1796 15.2344 19.9922C15.2031 19.2735 15.2031 18.5547 15.2344 17.8359C15.2866 17.636 15.4037 17.4954 15.5859 17.4141Z" fill="black"/>
</g>
<defs>
<clipPath id="clip0_3577_8673">
<rect width="24" height="24" fill="white"/>
</clipPath>
</defs>
</svg>
