<svg width="80" height="80" viewBox="0 0 80 80" fill="none" xmlns="http://www.w3.org/2000/svg">
<path opacity="0.983" fill-rule="evenodd" clip-rule="evenodd" d="M38.0467 3.98455C44.4928 3.72677 50.5865 5.05489 56.3279 7.96893C57.7862 9.42725 57.7862 10.8856 56.3279 12.3439C55.4656 12.787 54.5801 12.839 53.6717 12.5002C42.795 7.39221 32.3262 8.12136 22.2654 14.6877C13.8617 20.9205 9.48674 29.306 9.14043 39.8439C9.71088 53.0105 15.9089 62.4375 27.7342 68.1252C39.4945 72.6433 50.2757 70.9766 60.0779 63.1252C67.4261 56.4192 70.9937 48.0599 70.7811 38.0471C71.6456 36.3005 72.9737 35.8578 74.7654 36.7189C75.7506 37.591 76.1151 38.6847 75.8592 40.0002C75.4573 52.7871 70.0407 62.787 59.6092 70.0002C49.2837 76.3677 38.3982 77.5135 26.9529 73.4377C15.2791 68.5858 7.90933 60.0181 4.84355 47.7346C2.4589 35.395 5.42765 24.5616 13.7498 15.2346C20.4217 8.4223 28.5206 4.6723 38.0467 3.98455Z" fill="#008000"/>
<path opacity="0.982" fill-rule="evenodd" clip-rule="evenodd" d="M72.5773 12.8906C75.4057 12.9312 76.3693 14.2854 75.4679 16.9531C64.4046 27.7559 53.389 38.6153 42.421 49.5312C41.7366 50.1637 41.0076 50.7367 40.2335 51.25C39.6605 51.3542 39.0877 51.3542 38.5148 51.25C37.8455 50.8414 37.2205 50.3727 36.6398 49.8438C31.5052 44.657 26.3229 39.5269 21.0929 34.4531C20.1843 32.2073 20.9135 30.8533 23.2804 30.3906C23.8684 30.4477 24.4152 30.63 24.921 30.9375C29.7865 35.6467 34.6041 40.4123 39.3741 45.2344C50.0816 34.5789 60.8368 23.98 71.6398 13.4375C71.9416 13.2096 72.2541 13.0273 72.5773 12.8906Z" fill="#008000"/>
</svg>
