<svg width="60" height="60" viewBox="0 0 60 60" fill="none" xmlns="http://www.w3.org/2000/svg">
<g clip-path="url(#clip0_3577_8791)">
<path d="M28.3594 0.07024C25.9219 0.386646 23.5898 1.25383 21.5625 2.61321C20.4375 3.36321 18.3633 5.43743 17.6133 6.56243C16.5352 8.1679 15.7969 9.86712 15.3281 11.8359C15.1055 12.7382 15.082 13.3007 15.0352 17.6601L14.9766 22.4999H13.7227C12.9727 22.4999 12.1875 22.5702 11.7773 22.6757C9.76172 23.203 8.20312 24.7734 7.67578 26.8007C7.41797 27.8085 7.41797 54.6913 7.67578 55.6991C8.20312 57.7265 9.76172 59.2968 11.7773 59.8241C12.3867 59.9765 14.6367 59.9999 30 59.9999C49.2891 59.9999 48.1523 60.0468 49.582 59.2851C50.9297 58.5585 52.0898 56.9765 52.3828 55.4413C52.4531 55.0312 52.5 49.9452 52.5 41.1445C52.5 26.2616 52.5234 26.871 51.8437 25.5234C51.4219 24.6913 50.4023 23.6601 49.582 23.2148C48.5977 22.6874 47.7187 22.4999 46.2773 22.4999H45.0234L44.9648 17.6601C44.918 13.3007 44.8945 12.7382 44.6719 11.8359C43.9453 8.82415 42.6797 6.56243 40.5586 4.44133C38.3906 2.27337 36.1055 1.00774 33.1641 0.339771C32.1914 0.117115 29.2852 -0.0469475 28.3594 0.07024ZM31.9922 5.20305C33.0937 5.43743 34.5117 6.01165 35.3789 6.58587C37.6523 8.07415 39.3516 10.5937 39.832 13.1835C39.9141 13.5937 39.9609 15.5859 39.9609 18.1874V22.4999H30H20.0391V18.1288C20.0391 13.371 20.0859 12.9726 20.7305 11.3085C21.9023 8.26165 24.668 5.92962 27.9492 5.21477C28.8867 5.00383 31.043 5.00383 31.9922 5.20305ZM31.7109 32.8241C33.4453 33.4804 34.6289 34.9335 34.9336 36.7851C35.2031 38.4843 34.4414 40.3476 33.0469 41.414L32.4727 41.8476L32.4375 45.1171L32.4023 48.3749L32.0508 48.8906C30.9141 50.5077 28.4648 50.2734 27.7148 48.4921C27.5742 48.1288 27.5391 47.4843 27.5391 44.953V41.8593L26.9414 41.414C25.5586 40.3593 24.7969 38.4843 25.0664 36.8085C25.4883 34.1601 27.8086 32.3085 30.4102 32.5429C30.7969 32.578 31.3828 32.707 31.7109 32.8241Z" fill="#031A6B"/>
</g>
<defs>
<clipPath id="clip0_3577_8791">
<rect width="60" height="60" fill="white"/>
</clipPath>
</defs>
</svg>
