<svg width="92" height="24" viewBox="0 0 92 24" fill="none" xmlns="http://www.w3.org/2000/svg">
<path d="M28.5402 19.1602C27.312 19.1602 26.2307 18.9199 25.2962 18.4393C24.3751 17.9587 23.6609 17.3046 23.1536 16.477C22.6464 15.6359 22.3927 14.6814 22.3927 13.6135C22.3927 12.5322 22.6397 11.5777 23.1336 10.75C23.6409 9.90901 24.3284 9.25489 25.1961 8.78765C26.0638 8.30707 27.045 8.06678 28.1397 8.06678C29.1943 8.06678 30.1421 8.29373 30.9831 8.74761C31.8375 9.18814 32.5116 9.82891 33.0056 10.6699C33.4995 11.4976 33.7465 12.4921 33.7465 13.6535C33.7465 13.7737 33.7398 13.9139 33.7264 14.074C33.7131 14.2209 33.6997 14.3611 33.6864 14.4946H24.9358V12.6724H32.0444L30.8429 13.213C30.8429 12.6523 30.7295 12.1651 30.5025 11.7512C30.2756 11.3374 29.9619 11.017 29.5614 10.7901C29.1609 10.5498 28.6937 10.4296 28.1597 10.4296C27.6257 10.4296 27.1518 10.5498 26.738 10.7901C26.3375 11.017 26.0238 11.3441 25.7968 11.7713C25.5699 12.1851 25.4564 12.679 25.4564 13.2531V13.7336C25.4564 14.321 25.5833 14.8416 25.8369 15.2955C26.1039 15.7361 26.471 16.0765 26.9382 16.3168C27.4188 16.5437 27.9795 16.6572 28.6203 16.6572C29.1943 16.6572 29.6949 16.5704 30.1221 16.3969C30.5626 16.2233 30.9631 15.963 31.3235 15.6159L32.9855 17.4181C32.4916 17.9788 31.8709 18.4126 31.1233 18.7197C30.3757 19.0133 29.5147 19.1602 28.5402 19.1602ZM40.2315 19.1602C38.9633 19.1602 37.9754 18.8398 37.2679 18.199C36.5604 17.5449 36.2066 16.5771 36.2066 15.2955V5.8441H39.3304V15.2555C39.3304 15.7094 39.4505 16.0631 39.6908 16.3168C39.9311 16.557 40.2582 16.6772 40.672 16.6772C41.1659 16.6772 41.5864 16.5437 41.9335 16.2767L42.7746 18.4794C42.4542 18.7063 42.067 18.8799 41.6131 19C41.1726 19.1068 40.7121 19.1602 40.2315 19.1602ZM34.5446 10.8702V8.46727H42.0136V10.8702H34.5446ZM49.4019 19.1602C48.2405 19.1602 47.206 18.9266 46.2982 18.4593C45.3904 17.9788 44.6762 17.318 44.1556 16.477C43.6483 15.6359 43.3947 14.6814 43.3947 13.6135C43.3947 12.5322 43.6483 11.5777 44.1556 10.75C44.6762 9.90901 45.3904 9.25489 46.2982 8.78765C47.206 8.30707 48.2405 8.06678 49.4019 8.06678C50.5366 8.06678 51.5245 8.30707 52.3655 8.78765C53.2065 9.25489 53.8273 9.92904 54.2278 10.8101L51.8048 12.1117C51.5245 11.6044 51.1707 11.2306 50.7436 10.9903C50.3297 10.75 49.8758 10.6299 49.3819 10.6299C48.8479 10.6299 48.3674 10.75 47.9402 10.9903C47.513 11.2306 47.1726 11.571 46.9189 12.0116C46.6786 12.4521 46.5585 12.9861 46.5585 13.6135C46.5585 14.2409 46.6786 14.7749 46.9189 15.2154C47.1726 15.656 47.513 15.9964 47.9402 16.2367C48.3674 16.477 48.8479 16.5971 49.3819 16.5971C49.8758 16.5971 50.3297 16.4836 50.7436 16.2567C51.1707 16.0164 51.5245 15.6359 51.8048 15.1153L54.2278 16.4369C53.8273 17.3046 53.2065 17.9788 52.3655 18.4593C51.5245 18.9266 50.5366 19.1602 49.4019 19.1602ZM61.0157 19.1602C59.8676 19.1602 58.8464 18.9199 57.952 18.4393C57.0709 17.9587 56.37 17.3046 55.8494 16.477C55.3421 15.6359 55.0885 14.6814 55.0885 13.6135C55.0885 12.5322 55.3421 11.5777 55.8494 10.75C56.37 9.90901 57.0709 9.25489 57.952 8.78765C58.8464 8.30707 59.8676 8.06678 61.0157 8.06678C62.1504 8.06678 63.1649 8.30707 64.0593 8.78765C64.9538 9.25489 65.6546 9.90234 66.1619 10.73C66.6692 11.5577 66.9228 12.5188 66.9228 13.6135C66.9228 14.6814 66.6692 15.6359 66.1619 16.477C65.6546 17.3046 64.9538 17.9587 64.0593 18.4393C63.1649 18.9199 62.1504 19.1602 61.0157 19.1602ZM61.0157 16.5971C61.5363 16.5971 62.0035 16.477 62.4174 16.2367C62.8312 15.9964 63.1583 15.656 63.3985 15.2154C63.6388 14.7615 63.759 14.2276 63.759 13.6135C63.759 12.9861 63.6388 12.4521 63.3985 12.0116C63.1583 11.571 62.8312 11.2306 62.4174 10.9903C62.0035 10.75 61.5363 10.6299 61.0157 10.6299C60.495 10.6299 60.0278 10.75 59.614 10.9903C59.2001 11.2306 58.8664 11.571 58.6128 12.0116C58.3725 12.4521 58.2523 12.9861 58.2523 13.6135C58.2523 14.2276 58.3725 14.7615 58.6128 15.2154C58.8664 15.656 59.2001 15.9964 59.614 16.2367C60.0278 16.477 60.495 16.5971 61.0157 16.5971ZM71.641 19L67.1155 8.22698H70.3394L74.104 17.4982H72.502L76.4068 8.22698H79.4104L74.8649 19H71.641ZM86.9411 19V16.8975L86.7408 16.4369V12.6724C86.7408 12.0049 86.5339 11.4842 86.1201 11.1105C85.7196 10.7367 85.0988 10.5498 84.2578 10.5498C83.6838 10.5498 83.1164 10.6432 82.5558 10.8301C82.0084 11.0037 81.5412 11.244 81.1541 11.551L80.0327 9.36836C80.6201 8.95452 81.3276 8.63414 82.1553 8.4072C82.9829 8.18025 83.824 8.06678 84.6783 8.06678C86.3203 8.06678 87.5952 8.45392 88.503 9.22819C89.4107 10.0025 89.8646 11.2106 89.8646 12.8526V19H86.9411ZM83.6571 19.1602C82.8161 19.1602 82.0952 19.02 81.4945 18.7397C80.8938 18.446 80.4332 18.0522 80.1128 17.5583C79.7924 17.0643 79.6322 16.5103 79.6322 15.8962C79.6322 15.2555 79.7857 14.6948 80.0928 14.2142C80.4132 13.7336 80.9138 13.3598 81.5946 13.0929C82.2754 12.8125 83.1632 12.6724 84.2578 12.6724H87.1213V14.4946H84.5982C83.864 14.4946 83.3567 14.6147 83.0764 14.855C82.8094 15.0953 82.6759 15.3956 82.6759 15.7561C82.6759 16.1566 82.8294 16.477 83.1365 16.7172C83.4569 16.9442 83.8907 17.0577 84.438 17.0577C84.9587 17.0577 85.4259 16.9375 85.8397 16.6972C86.2536 16.4436 86.5539 16.0765 86.7408 15.5959L87.2214 17.0376C86.9945 17.7318 86.5806 18.2591 85.9799 18.6195C85.3792 18.98 84.6049 19.1602 83.6571 19.1602Z" fill="#CC9933"/>
<path fill-rule="evenodd" clip-rule="evenodd" d="M10.3004 1.25391C14.0032 1.25391 17.2378 3.2457 18.9812 6.21051L16.964 7.43397C15.6357 5.14433 13.1491 3.60332 10.3001 3.60332C6.05408 3.60332 2.6121 7.02626 2.6121 11.2486C2.6121 15.4706 6.05408 18.8939 10.3001 18.8939C13.7782 18.8939 16.7166 16.5965 17.6652 13.4447L20.3352 11.7885C20.0534 17.057 15.6684 21.2433 10.3001 21.2433C4.74948 21.2433 0.25 16.7685 0.25 11.2489C0.25 5.72934 4.74948 1.25457 10.3001 1.25457L10.3004 1.25391ZM17.9681 10.695C17.9811 10.8776 17.9885 11.0623 17.9885 11.2483C17.9885 11.3618 17.9855 11.4746 17.9804 11.5872C17.9955 11.278 17.9898 10.9798 17.9681 10.6953V10.695Z" fill="#FEFEFE"/>
<path d="M22.5722 8.79664C23.247 8.38926 23.4734 7.5104 23.0774 6.83623C22.6814 6.16206 21.8186 5.936 21.1494 6.34471L13.1816 11.1537L11.2091 7.75449C10.8148 7.07464 9.95029 6.85426 9.28112 7.26297C8.61196 7.67168 8.37956 8.54921 8.77591 9.22304L11.4619 13.8521C11.8563 14.5319 12.7211 14.7523 13.3899 14.3436L22.5725 8.79664H22.5722Z" fill="#FEFEFE"/>
</svg>
