<svg width="24" height="24" viewBox="0 0 24 24" fill="none" xmlns="http://www.w3.org/2000/svg">
<path opacity="0.988" fill-rule="evenodd" clip-rule="evenodd" d="M11.4158 1.94532C15.4549 1.89786 18.5409 3.56974 20.6736 6.96094C22.0251 9.39788 22.3376 11.9604 21.6111 14.6484C21.2427 15.431 20.6255 15.8763 19.7595 15.9844C17.4119 15.9848 15.0682 16.0161 12.7283 16.0781C12.62 16.1549 12.5497 16.2564 12.5174 16.3828C12.516 17.9163 12.4848 19.4476 12.4236 20.9766C12.1806 21.5945 11.7275 21.9226 11.0642 21.9609C6.98779 21.4317 4.15969 19.2754 2.57985 15.4922C1.33712 11.7219 1.97775 8.31568 4.50173 5.27344C6.37771 3.27689 8.68237 2.16751 11.4158 1.94532ZM8.65017 6.02344C9.45079 5.92744 10.0211 6.23996 10.3611 6.96094C10.5847 7.83371 10.2957 8.46652 9.49392 8.85938C8.62115 9.08302 7.98834 8.79394 7.59548 7.99219C7.37217 7.01649 7.72373 6.36024 8.65017 6.02344ZM14.6502 6.02344C15.4508 5.92744 16.0211 6.23996 16.3611 6.96094C16.5847 7.83371 16.2957 8.46652 15.4939 8.85938C14.6212 9.08302 13.9883 8.79394 13.5955 7.99219C13.3722 7.01649 13.7237 6.36024 14.6502 6.02344ZM6.21267 10.0078C7.08454 9.96296 7.65487 10.3536 7.92361 11.1797C8.00292 12.1158 7.58887 12.7017 6.68142 12.9375C5.77289 12.9667 5.21821 12.537 5.01736 11.6484C5.00564 10.7951 5.40407 10.2483 6.21267 10.0078ZM17.1814 10.0078C18.3209 9.96783 18.9069 10.5147 18.9392 11.6484C18.7384 12.537 18.1837 12.9667 17.2752 12.9375C16.3677 12.7017 15.9537 12.1158 16.033 11.1797C16.2056 10.5774 16.5884 10.1868 17.1814 10.0078Z" fill="#031A6B"/>
</svg>
