<svg width="16" height="16" viewBox="0 0 16 16" fill="none" xmlns="http://www.w3.org/2000/svg">
<g clip-path="url(#clip0_4139_9012)">
<path opacity="0.991" fill-rule="evenodd" clip-rule="evenodd" d="M15.9844 5.39063C15.9844 7.86978 15.9844 10.349 15.9844 12.8281C15.7677 13.6646 15.2364 14.1802 14.3906 14.375C10.1198 14.3958 5.84897 14.3958 1.57812 14.375C0.732334 14.1802 0.201084 13.6646 -0.015625 12.8281C-0.015625 10.349 -0.015625 7.86978 -0.015625 5.39063C0.194166 4.50903 0.74625 3.983 1.64062 3.8125C2.28671 3.80728 2.93254 3.79166 3.57812 3.76563C3.91053 3.25097 4.24906 2.74055 4.59375 2.23438C4.91484 1.89413 5.30547 1.68059 5.76562 1.59375C7.24478 1.57292 8.72397 1.57292 10.2031 1.59375C10.6633 1.68059 11.0539 1.89413 11.375 2.23438C11.7197 2.74055 12.0582 3.25097 12.3906 3.76563C13.0362 3.79166 13.682 3.80728 14.3281 3.8125C15.2225 3.983 15.7746 4.50903 15.9844 5.39063ZM7.54688 4.23438C9.39697 4.141 10.798 4.88059 11.75 6.45313C12.572 8.13366 12.4261 9.72741 11.3125 11.2344C10.0779 12.6042 8.56228 13.0677 6.76562 12.625C5.02622 12.0315 4.01059 10.8284 3.71875 9.01563C3.58966 7.14353 4.32403 5.72166 5.92188 4.75C6.43828 4.48578 6.97994 4.31391 7.54688 4.23438ZM12.9844 5.39063C13.2866 5.38544 13.5887 5.39063 13.8906 5.40625C14.3462 5.59581 14.4451 5.90309 14.1875 6.32813C14.1172 6.38678 14.039 6.43366 13.9531 6.46875C13.6198 6.48959 13.2865 6.48959 12.9531 6.46875C12.6336 6.35584 12.5034 6.13191 12.5625 5.79688C12.638 5.59109 12.7787 5.45569 12.9844 5.39063Z" fill="black"/>
<path opacity="0.985" fill-rule="evenodd" clip-rule="evenodd" d="M7.70426 6.11016C8.71945 6.04229 9.50592 6.42769 10.0636 7.26641C10.6106 8.3536 10.4804 9.34838 9.67301 10.2508C8.79773 10.9938 7.83939 11.1188 6.79801 10.6258C5.74732 9.94322 5.37754 8.9901 5.68864 7.76641C6.04607 6.83079 6.71795 6.27872 7.70426 6.11016Z" fill="black"/>
</g>
<defs>
<clipPath id="clip0_4139_9012">
<rect width="16" height="16" fill="white"/>
</clipPath>
</defs>
</svg>
