<svg width="84" height="84" viewBox="0 0 84 84" fill="none" xmlns="http://www.w3.org/2000/svg">
<g filter="url(#filter0_d_4695_7557)">
<g clip-path="url(#clip0_4695_7557)">
<rect x="2" y="2" width="80" height="80" rx="8" fill="#FEFEFE"/>
<path d="M3.74501 35.9086C3.74501 35.9086 8.74821 25.7598 24.9002 20.043C41.0522 14.3262 48.5594 15.1518 58.0986 23.0286C67.6378 30.9054 64.9226 36.9086 77.2154 39.1886C89.5082 41.4686 94.7994 54.0622 96.3706 62.7806C97.9418 71.499 94.9402 77.7902 94.9402 77.7902H-2.68699C-2.68699 77.7902 -5.54619 58.4926 -2.40059 49.4878C0.745011 40.483 3.74501 35.9086 3.74501 35.9086Z" fill="#031A6B"/>
<path opacity="0.8" d="M3.74501 35.9086C3.74501 35.9086 8.74821 25.7598 24.9002 20.043C41.0522 14.3262 48.5594 15.1518 58.0986 23.0286C67.6378 30.9054 64.9226 36.9086 77.2154 39.1886C89.5082 41.4686 94.7994 54.0622 96.3706 62.7806C97.9418 71.499 94.9402 77.7902 94.9402 77.7902H-2.68699C-2.68699 77.7902 -5.54619 58.4926 -2.40059 49.4878C0.745011 40.483 3.74501 35.9086 3.74501 35.9086Z" fill="white"/>
<path opacity="0.3" d="M75.4402 11.3236L76.0562 11.2052V11.242L74.5474 11.5796C74.5794 10.8404 74.6098 10.1396 74.6418 9.38759C74.341 9.57479 74.0018 9.64519 73.8418 9.98119C73.7272 10.1817 73.6023 10.3761 73.4674 10.5636C73.4528 10.5952 73.4263 10.6198 73.3937 10.6321C73.3611 10.6444 73.3249 10.6433 73.293 10.6292C72.9506 10.5332 72.9506 10.5364 72.9138 10.1844C72.8978 10.034 72.8834 9.88359 72.861 9.73479C72.8418 9.61799 72.861 9.53159 72.9842 9.48679C73.062 9.44985 73.1369 9.40706 73.2082 9.35879C73.1106 9.34919 73.0482 9.34919 72.9874 9.33639C72.8946 9.31719 72.7762 9.36679 72.7346 9.20999C72.693 9.05319 72.7554 8.98279 72.8946 8.94279L72.8754 8.90119C72.7618 8.91079 72.6498 8.91879 72.5362 8.93159C72.4127 8.95492 72.2875 8.96883 72.1618 8.97319C72.0411 8.95725 71.9222 8.92992 71.8066 8.89159C71.906 8.76007 72.0443 8.66322 72.2018 8.61479C72.48 8.54502 72.7527 8.45518 73.0178 8.34599C72.893 8.34599 72.7682 8.32519 72.6434 8.32519C72.5186 8.32519 72.5138 8.25639 72.4946 8.16519C72.4754 8.07399 72.4802 8.00519 72.5778 7.96999C72.6754 7.93479 72.7554 7.88039 72.8834 7.80999C72.76 7.8011 72.6372 7.78561 72.5154 7.76359C72.4889 7.75706 72.4641 7.74517 72.4423 7.72866C72.4206 7.71215 72.4024 7.69137 72.389 7.66759C72.301 7.44359 72.2194 7.21479 72.1458 6.98599C72.1395 6.95837 72.1394 6.92971 72.1455 6.90204C72.1516 6.87438 72.1637 6.84841 72.181 6.82599C72.4098 6.56679 72.4114 6.56999 72.7074 6.74119C72.9744 6.88137 73.2339 7.03517 73.485 7.20199C73.693 7.35239 73.9202 7.29959 74.181 7.37319L73.1266 5.46279L74.5474 5.11719L74.5618 5.16519L73.9762 5.30919C74.0818 5.38279 74.1554 5.43719 74.2338 5.48839C74.469 5.64839 74.7138 5.79559 74.9442 5.95239C75.4354 6.27239 75.9234 6.60999 76.4178 6.93159C76.4821 6.9629 76.5515 6.98241 76.6226 6.98919C76.6562 6.98919 76.693 6.98919 76.7282 6.98919C77.3366 7.06865 77.9524 7.07295 78.5618 7.00199C79.1227 6.96886 79.6814 6.9053 80.2354 6.81159C80.5823 6.76624 80.9327 6.75445 81.2818 6.77639C80.9036 7.07778 80.4682 7.29931 80.0018 7.42759C79.3858 7.62759 78.7714 7.83399 78.1698 8.06759C77.8536 8.21056 77.5454 8.3708 77.2466 8.54759C77.1538 8.59559 77.0594 8.64359 76.9682 8.69639C76.9293 8.71556 76.8957 8.74416 76.8706 8.77959C76.3992 9.59239 75.9288 10.4057 75.4594 11.2196C75.4658 11.25 75.4626 11.2692 75.4402 11.3236Z" fill="black"/>
<path opacity="0.3" d="M70.7309 9.08203L-6.58594 23.4484" stroke="black" stroke-width="0.16" stroke-linecap="round" stroke-linejoin="round"/>
<path opacity="0.3" d="M83.6389 12.9775L32.0117 22.9615" stroke="black" stroke-width="0.16" stroke-linecap="round" stroke-linejoin="round"/>
<path opacity="0.3" d="M94.812 50.6237H87.3544V35.3438H73.9416V44.7229H72.3464V49.1325H67.8152V56.0733H66.0616V57.4798H63.0952V47.6318H57.6504V77.7406H93.4008" stroke="black" stroke-width="0.16" stroke-linecap="round" stroke-linejoin="round"/>
<path opacity="0.3" d="M59.987 49.1084H58.5742V50.5212H59.987V49.1084Z" stroke="black" stroke-width="0.16" stroke-linecap="round" stroke-linejoin="round"/>
<path opacity="0.3" d="M62.2058 49.1084H60.793V50.5212H62.2058V49.1084Z" stroke="black" stroke-width="0.16" stroke-linecap="round" stroke-linejoin="round"/>
<path opacity="0.3" d="M59.987 51.7314H58.5742V53.1442H59.987V51.7314Z" stroke="black" stroke-width="0.16" stroke-linecap="round" stroke-linejoin="round"/>
<path opacity="0.3" d="M62.2058 51.7314H60.793V53.1442H62.2058V51.7314Z" stroke="black" stroke-width="0.16" stroke-linecap="round" stroke-linejoin="round"/>
<path opacity="0.3" d="M59.987 54.5566H58.5742V55.9694H59.987V54.5566Z" stroke="black" stroke-width="0.16" stroke-linecap="round" stroke-linejoin="round"/>
<path opacity="0.3" d="M62.2058 54.5566H60.793V55.9694H62.2058V54.5566Z" stroke="black" stroke-width="0.16" stroke-linecap="round" stroke-linejoin="round"/>
<path opacity="0.3" d="M59.987 57.1797H58.5742V58.5925H59.987V57.1797Z" stroke="black" stroke-width="0.16" stroke-linecap="round" stroke-linejoin="round"/>
<path opacity="0.3" d="M62.2058 57.1797H60.793V58.5925H62.2058V57.1797Z" stroke="black" stroke-width="0.16" stroke-linecap="round" stroke-linejoin="round"/>
<path opacity="0.3" d="M59.987 60.0049H58.5742V61.4177H59.987V60.0049Z" stroke="black" stroke-width="0.16" stroke-linecap="round" stroke-linejoin="round"/>
<path opacity="0.3" d="M62.2058 60.0049H60.793V61.4177H62.2058V60.0049Z" stroke="black" stroke-width="0.16" stroke-linecap="round" stroke-linejoin="round"/>
<path opacity="0.3" d="M59.987 62.627H58.5742V64.0398H59.987V62.627Z" stroke="black" stroke-width="0.16" stroke-linecap="round" stroke-linejoin="round"/>
<path opacity="0.3" d="M62.2058 62.627H60.793V64.0398H62.2058V62.627Z" stroke="black" stroke-width="0.16" stroke-linecap="round" stroke-linejoin="round"/>
<path opacity="0.3" d="M75.4219 37.5069H82.9867L83.8955 37.0029H86.2155" stroke="black" stroke-width="0.16" stroke-linecap="round" stroke-linejoin="round"/>
<path opacity="0.3" d="M75.4219 38.9278H82.9867L83.8955 38.4238H86.2155" stroke="black" stroke-width="0.16" stroke-linecap="round" stroke-linejoin="round"/>
<path opacity="0.3" d="M75.4219 40.3487H82.9867L83.8955 39.8447H86.2155" stroke="black" stroke-width="0.16" stroke-linecap="round" stroke-linejoin="round"/>
<path opacity="0.3" d="M75.4219 41.7696H82.9867L83.8955 41.2656H86.2155" stroke="black" stroke-width="0.16" stroke-linecap="round" stroke-linejoin="round"/>
<path opacity="0.3" d="M75.4219 43.1921H82.9867L83.8955 42.6865H86.2155" stroke="black" stroke-width="0.16" stroke-linecap="round" stroke-linejoin="round"/>
<path opacity="0.3" d="M75.4219 44.6124H82.9867L83.8955 44.1084H86.2155" stroke="black" stroke-width="0.16" stroke-linecap="round" stroke-linejoin="round"/>
<path opacity="0.3" d="M75.4219 46.0333H82.9867L83.8955 45.5293H86.2155" stroke="black" stroke-width="0.16" stroke-linecap="round" stroke-linejoin="round"/>
<path opacity="0.3" d="M75.4219 47.4542H82.9867L83.8955 46.9502H86.2155" stroke="black" stroke-width="0.16" stroke-linecap="round" stroke-linejoin="round"/>
<path opacity="0.3" d="M75.4219 48.8751H82.9867L83.8955 48.3711H86.2155" stroke="black" stroke-width="0.16" stroke-linecap="round" stroke-linejoin="round"/>
<path opacity="0.3" d="M75.4219 50.296H82.9867L83.8955 49.792H86.2155" stroke="black" stroke-width="0.16" stroke-linecap="round" stroke-linejoin="round"/>
<path opacity="0.3" d="M75.4219 51.7169H82.9867L83.8955 51.2129H86.2155" stroke="black" stroke-width="0.16" stroke-linecap="round" stroke-linejoin="round"/>
<path opacity="0.3" d="M75.4219 53.1394H82.9867L83.8955 52.6338H86.2155" stroke="black" stroke-width="0.16" stroke-linecap="round" stroke-linejoin="round"/>
<path opacity="0.3" d="M75.4219 54.5603H82.9867L83.8955 54.0547H86.2155" stroke="black" stroke-width="0.16" stroke-linecap="round" stroke-linejoin="round"/>
<path opacity="0.3" d="M75.4219 55.9806H82.9867L83.8955 55.4766H86.2155" stroke="black" stroke-width="0.16" stroke-linecap="round" stroke-linejoin="round"/>
<path opacity="0.3" d="M75.4219 57.4015H82.9867L83.8955 56.8975H86.2155" stroke="black" stroke-width="0.16" stroke-linecap="round" stroke-linejoin="round"/>
<path opacity="0.3" d="M75.4219 58.8224H82.9867L83.8955 58.3184H86.2155" stroke="black" stroke-width="0.16" stroke-linecap="round" stroke-linejoin="round"/>
<path opacity="0.3" d="M7.2168 37.5069H14.7832L15.6904 37.0029H18.012" stroke="black" stroke-width="0.16" stroke-linecap="round" stroke-linejoin="round"/>
<path opacity="0.3" d="M7.2168 38.9278H14.7832L15.6904 38.4238H18.012" stroke="black" stroke-width="0.16" stroke-linecap="round" stroke-linejoin="round"/>
<path opacity="0.3" d="M7.2168 40.3487H14.7832L15.6904 39.8447H18.012" stroke="black" stroke-width="0.16" stroke-linecap="round" stroke-linejoin="round"/>
<path opacity="0.3" d="M7.2168 41.7696H14.7832L15.6904 41.2656H18.012" stroke="black" stroke-width="0.16" stroke-linecap="round" stroke-linejoin="round"/>
<path opacity="0.3" d="M7.2168 43.1921H14.7832L15.6904 42.6865H18.012" stroke="black" stroke-width="0.16" stroke-linecap="round" stroke-linejoin="round"/>
<path opacity="0.3" d="M7.2168 44.6124H14.7832L15.6904 44.1084H18.012" stroke="black" stroke-width="0.16" stroke-linecap="round" stroke-linejoin="round"/>
<path opacity="0.3" d="M7.2168 46.0333H14.7832L15.6904 45.5293H18.012" stroke="black" stroke-width="0.16" stroke-linecap="round" stroke-linejoin="round"/>
<path opacity="0.3" d="M7.2168 47.4542H14.7832L15.6904 46.9502H18.012" stroke="black" stroke-width="0.16" stroke-linecap="round" stroke-linejoin="round"/>
<path opacity="0.3" d="M7.2168 48.8751H14.7832L15.6904 48.3711H18.012" stroke="black" stroke-width="0.16" stroke-linecap="round" stroke-linejoin="round"/>
<path opacity="0.3" d="M7.2168 50.296H14.7832L15.6904 49.792H18.012" stroke="black" stroke-width="0.16" stroke-linecap="round" stroke-linejoin="round"/>
<path opacity="0.3" d="M7.2168 51.7169H14.7832L15.6904 51.2129H18.012" stroke="black" stroke-width="0.16" stroke-linecap="round" stroke-linejoin="round"/>
<path opacity="0.3" d="M7.2168 53.1394H14.7832L15.6904 52.6338H18.012" stroke="black" stroke-width="0.16" stroke-linecap="round" stroke-linejoin="round"/>
<path opacity="0.3" d="M7.2168 54.5603H14.7832L15.6904 54.0547H18.012" stroke="black" stroke-width="0.16" stroke-linecap="round" stroke-linejoin="round"/>
<path opacity="0.3" d="M7.2168 55.9806H14.7832L15.6904 55.4766H18.012" stroke="black" stroke-width="0.16" stroke-linecap="round" stroke-linejoin="round"/>
<path opacity="0.3" d="M7.2168 57.4015H14.7832L15.6904 56.8975H18.012" stroke="black" stroke-width="0.16" stroke-linecap="round" stroke-linejoin="round"/>
<path opacity="0.3" d="M7.2168 58.8224H14.7832L15.6904 58.3184H18.012" stroke="black" stroke-width="0.16" stroke-linecap="round" stroke-linejoin="round"/>
<path opacity="0.3" d="M24.8853 77.7409H56.6405V54.2913H52.6085V36.0001H46.9797V45.5681H43.2277V46.5057H44.1653V54.1041H36.3797V35.0977H30.4709V50.6241H27.8981H24.0485H19.1509V35.3441H5.73651V44.7233H4.14291V49.1329H-0.389888V56.0737H-2.14189V57.4801H-5.10829V47.6321H-10.5547V77.7409H25.1957" stroke="black" stroke-width="0.16" stroke-linecap="round" stroke-linejoin="round"/>
<path opacity="0.3" d="M45.0391 47.3936H48.7719" stroke="black" stroke-width="0.16" stroke-linecap="round" stroke-linejoin="round"/>
<path opacity="0.3" d="M47.3594 37.4062H49.1754" stroke="black" stroke-width="0.16" stroke-linecap="round" stroke-linejoin="round"/>
<path opacity="0.3" d="M47.3594 38.8193H49.1754" stroke="black" stroke-width="0.16" stroke-linecap="round" stroke-linejoin="round"/>
<path opacity="0.3" d="M47.3594 40.2324H49.1754" stroke="black" stroke-width="0.16" stroke-linecap="round" stroke-linejoin="round"/>
<path opacity="0.3" d="M47.3594 41.6436H49.1754" stroke="black" stroke-width="0.16" stroke-linecap="round" stroke-linejoin="round"/>
<path opacity="0.3" d="M47.3594 43.0557H49.1754" stroke="black" stroke-width="0.16" stroke-linecap="round" stroke-linejoin="round"/>
<path opacity="0.3" d="M47.3594 44.4688H49.1754" stroke="black" stroke-width="0.16" stroke-linecap="round" stroke-linejoin="round"/>
<path opacity="0.3" d="M45.0391 48.8066H48.7719" stroke="black" stroke-width="0.16" stroke-linecap="round" stroke-linejoin="round"/>
<path opacity="0.3" d="M45.0391 50.2197H48.7719" stroke="black" stroke-width="0.16" stroke-linecap="round" stroke-linejoin="round"/>
<path opacity="0.3" d="M45.0391 51.6309H48.7719" stroke="black" stroke-width="0.16" stroke-linecap="round" stroke-linejoin="round"/>
<path opacity="0.3" d="M45.0391 53.043H48.7719" stroke="black" stroke-width="0.16" stroke-linecap="round" stroke-linejoin="round"/>
<path opacity="0.3" d="M45.0391 54.4561H48.7719" stroke="black" stroke-width="0.16" stroke-linecap="round" stroke-linejoin="round"/>
<path opacity="0.3" d="M50.1836 37.0029V62.5261" stroke="black" stroke-width="0.16" stroke-linecap="round" stroke-linejoin="round"/>
<path opacity="0.3" d="M50.9902 37.0029V62.5261" stroke="black" stroke-width="0.16" stroke-linecap="round" stroke-linejoin="round"/>
<path opacity="0.3" d="M51.7969 37.0029V62.5261" stroke="black" stroke-width="0.16" stroke-linecap="round" stroke-linejoin="round"/>
<path opacity="0.3" d="M32.9343 36.1973H31.5215V37.6101H32.9343V36.1973Z" stroke="black" stroke-width="0.16" stroke-linecap="round" stroke-linejoin="round"/>
<path opacity="0.3" d="M35.153 36.1973H33.7402V37.6101H35.153V36.1973Z" stroke="black" stroke-width="0.16" stroke-linecap="round" stroke-linejoin="round"/>
<path opacity="0.3" d="M32.9343 38.8193H31.5215V40.2321H32.9343V38.8193Z" stroke="black" stroke-width="0.16" stroke-linecap="round" stroke-linejoin="round"/>
<path opacity="0.3" d="M35.153 38.8193H33.7402V40.2321H35.153V38.8193Z" stroke="black" stroke-width="0.16" stroke-linecap="round" stroke-linejoin="round"/>
<path opacity="0.3" d="M32.9343 41.4414H31.5215V42.8542H32.9343V41.4414Z" stroke="black" stroke-width="0.16" stroke-linecap="round" stroke-linejoin="round"/>
<path opacity="0.3" d="M35.153 41.4414H33.7402V42.8542H35.153V41.4414Z" stroke="black" stroke-width="0.16" stroke-linecap="round" stroke-linejoin="round"/>
<path opacity="0.3" d="M32.9343 44.0645H31.5215V45.4773H32.9343V44.0645Z" stroke="black" stroke-width="0.16" stroke-linecap="round" stroke-linejoin="round"/>
<path opacity="0.3" d="M35.153 44.0645H33.7402V45.4773H35.153V44.0645Z" stroke="black" stroke-width="0.16" stroke-linecap="round" stroke-linejoin="round"/>
<path opacity="0.3" d="M32.9343 46.6885H31.5215V48.1013H32.9343V46.6885Z" stroke="black" stroke-width="0.16" stroke-linecap="round" stroke-linejoin="round"/>
<path opacity="0.3" d="M35.153 46.6885H33.7402V48.1013H35.153V46.6885Z" stroke="black" stroke-width="0.16" stroke-linecap="round" stroke-linejoin="round"/>
<path opacity="0.3" d="M32.9343 49.3105H31.5215V50.7233H32.9343V49.3105Z" stroke="black" stroke-width="0.16" stroke-linecap="round" stroke-linejoin="round"/>
<path opacity="0.3" d="M35.153 49.3105H33.7402V50.7233H35.153V49.3105Z" stroke="black" stroke-width="0.16" stroke-linecap="round" stroke-linejoin="round"/>
<path opacity="0.3" d="M32.9343 51.9326H31.5215V53.3454H32.9343V51.9326Z" stroke="black" stroke-width="0.16" stroke-linecap="round" stroke-linejoin="round"/>
<path opacity="0.3" d="M35.153 51.9326H33.7402V53.3454H35.153V51.9326Z" stroke="black" stroke-width="0.16" stroke-linecap="round" stroke-linejoin="round"/>
<path opacity="0.3" d="M32.9343 54.5566H31.5215V55.9694H32.9343V54.5566Z" stroke="black" stroke-width="0.16" stroke-linecap="round" stroke-linejoin="round"/>
<path opacity="0.3" d="M35.153 54.5566H33.7402V55.9694H35.153V54.5566Z" stroke="black" stroke-width="0.16" stroke-linecap="round" stroke-linejoin="round"/>
<path opacity="0.3" d="M32.9343 57.1797H31.5215V58.5925H32.9343V57.1797Z" stroke="black" stroke-width="0.16" stroke-linecap="round" stroke-linejoin="round"/>
<path opacity="0.3" d="M35.153 57.1797H33.7402V58.5925H35.153V57.1797Z" stroke="black" stroke-width="0.16" stroke-linecap="round" stroke-linejoin="round"/>
<path d="M-10.0919 63.3522C-10.0919 63.3522 -6.48068 63.709 -4.65189 65.9474C-4.65189 65.9474 -2.71748 63.3538 0.756116 63.4066C1.60498 62.3825 2.14547 61.1384 2.31466 59.8191C2.48384 58.4998 2.27477 57.1595 1.71176 55.9544C1.14876 54.7493 0.255006 53.7289 -0.865438 53.0121C-1.98588 52.2952 -3.28691 51.9114 -4.61703 51.9053C-5.94715 51.8993 -7.25163 52.2712 -8.37858 52.9777C-9.50553 53.6843 -10.4086 54.6965 -10.9826 55.8964C-11.5566 57.0963 -11.7779 58.4346 -11.6208 59.7554C-11.4636 61.0762 -10.9345 62.3252 -10.0951 63.357L-10.0919 63.3522Z" fill="black"/>
<path opacity="0.82" d="M-10.0919 63.3522C-10.0919 63.3522 -6.48068 63.709 -4.65189 65.9474C-4.65189 65.9474 -2.71748 63.3538 0.756116 63.4066C1.60498 62.3825 2.14547 61.1384 2.31466 59.8191C2.48384 58.4998 2.27477 57.1595 1.71176 55.9544C1.14876 54.7493 0.255006 53.7289 -0.865438 53.0121C-1.98588 52.2952 -3.28691 51.9114 -4.61703 51.9053C-5.94715 51.8993 -7.25163 52.2712 -8.37858 52.9777C-9.50553 53.6843 -10.4086 54.6965 -10.9826 55.8964C-11.5566 57.0963 -11.7779 58.4346 -11.6208 59.7554C-11.4636 61.0762 -10.9345 62.3252 -10.0951 63.357L-10.0919 63.3522Z" fill="white"/>
<path d="M-4.52657 54.4082C-4.52657 54.4082 -4.75857 53.8834 -4.99217 53.709C-5.22577 53.5346 -5.28337 52.8914 -5.10897 52.5426C-4.93457 52.1938 -5.57617 51.8418 -5.57617 51.8418C-5.19895 51.0938 -4.66138 50.4382 -4.00177 49.9218C-2.89297 49.0402 -2.79857 48.205 -2.63857 47.4274C-2.47857 46.6498 -2.47857 46.1858 -1.54737 45.7186C-0.616171 45.2514 0.553429 44.8434 0.727829 44.3778L0.902228 43.9106C0.902228 43.9106 0.668629 45.1906 0.143828 45.485C-0.380971 45.7794 -1.25457 46.4194 -1.25457 46.765C-1.25457 47.1106 -1.19697 47.757 -1.19697 47.757C-1.19697 47.757 -1.08017 46.6482 -0.088171 46.6482C0.903829 46.6482 1.71983 46.8818 1.95183 46.1826C2.09808 45.7274 2.19621 45.2582 2.24463 44.7826L3.00143 43.5586C3.00143 43.5586 2.47663 44.7826 2.65263 45.4786C2.82863 46.1746 3.46863 46.7586 3.87663 45.7122C4.11905 45.0587 4.15974 44.3475 3.99343 43.6706C3.99343 43.6706 4.57743 45.1298 4.28463 45.9458C3.99183 46.7618 3.81903 47.2258 2.94383 47.3458C2.06863 47.4658 1.66383 47.4034 1.02383 47.9282C0.383829 48.453 0.148629 48.9202 0.383829 49.037C0.619029 49.1538 1.02383 49.037 1.08463 49.2706C1.14543 49.5042 1.19183 49.5186 1.31183 50.0066C1.43183 50.4946 1.43343 49.7954 2.25103 49.7954C3.06863 49.7954 3.82543 50.7282 4.46703 49.445C5.10863 48.1618 4.87503 47.2866 5.80783 47.1122C6.18809 47.03 6.57352 46.9739 6.96143 46.9442C6.96143 46.9442 5.62063 47.1762 5.50383 48.1106C5.38703 49.045 6.08623 49.9762 5.32783 50.9682C4.56943 51.9602 3.87023 51.901 3.51983 52.3666C3.16943 52.8322 3.05423 53.709 3.11183 53.8834C3.16943 54.0578 3.69583 55.1634 3.69583 55.1634C3.69583 55.1634 3.51983 54.9298 4.57103 54.5234L5.62063 54.1154C5.62063 54.1154 4.91983 54.6978 4.98063 55.2818C5.04143 55.8658 5.38863 56.0978 5.09743 56.973C4.80623 57.8482 4.45743 58.0802 3.93103 58.3138C3.40463 58.5474 3.05583 58.7218 3.05583 59.0146C3.05583 59.3074 3.40623 59.4226 3.58063 59.773C3.75503 60.1234 4.22063 60.7058 3.81423 60.8226C3.40783 60.9394 2.53423 61.405 2.35503 61.7554C2.17583 62.1058 2.06383 62.3954 2.06383 62.3954C2.06383 62.3954 2.23983 60.4114 1.53903 59.7714C0.838229 59.1314 -0.152171 59.3042 -0.152171 59.3042C-0.152171 59.3042 1.12783 58.4882 0.606228 57.5538C0.0846286 56.6194 -0.603371 57.3554 -0.603371 57.3554C-0.603371 57.3554 -0.297771 56.4802 -0.734571 56.3298C-1.17137 56.1794 -1.60977 56.5042 -1.60977 56.5042C-1.44363 56.2294 -1.3608 55.9123 -1.3713 55.5914C-1.38181 55.2705 -1.48522 54.9595 -1.66897 54.6962C-2.30897 53.7634 -2.89297 53.997 -3.24337 54.405C-3.59377 54.813 -4.52337 56.8546 -4.52337 56.8546C-4.52337 56.8546 -4.05937 55.109 -4.52657 54.4082Z" fill="#031A6B"/>
<path opacity="0.49" d="M-0.152237 59.3073C-0.152237 59.3073 1.47176 58.3585 1.90856 58.0657C2.34536 57.7729 1.63496 57.1985 1.63496 57.1985L3.07496 55.5857C3.07496 55.5857 2.85576 55.2209 2.05416 55.2945C1.25256 55.3681 0.668563 55.3681 0.454163 54.6385C0.239763 53.9089 1.76616 53.2529 1.76616 53.2529C1.76616 53.2529 1.32936 53.3249 0.599762 52.3041C-0.129838 51.2833 1.62056 50.9921 1.62056 50.9921C1.62056 50.9921 0.308563 50.9921 -0.201837 51.2833C-0.712237 51.5745 -1.00184 51.9393 -1.58904 51.7937C-2.17624 51.6481 -1.29624 50.5537 -1.29624 50.5537C-1.29624 50.5537 -2.39064 50.9921 -2.97464 51.5745C-3.55864 52.1569 -3.12024 52.3041 -3.26584 53.3985C-3.41144 54.4929 -4.52344 54.4081 -4.52344 54.4081C-4.05624 55.1089 -4.52344 56.8577 -4.52344 56.8577C-4.52344 56.8577 -3.58904 54.8161 -3.24344 54.4081C-2.89784 54.0001 -2.31064 53.7681 -1.66904 54.6993C-1.48528 54.9626 -1.38188 55.2736 -1.37137 55.5945C-1.36086 55.9155 -1.4437 56.2325 -1.60984 56.5073C-1.60984 56.5073 -1.17144 56.1873 -0.734637 56.3329C-0.297837 56.4785 -0.603437 57.3585 -0.603437 57.3585C-0.603437 57.3585 0.0813622 56.6241 0.606163 57.5569C1.13096 58.4897 -0.152237 59.3073 -0.152237 59.3073Z" fill="white"/>
<path d="M70.213 30.753C71.8322 29.0474 70.7122 22.4634 69.093 20.2682C67.4738 18.073 70.0882 16.001 70.0882 16.001C70.0882 16.001 68.3458 16.977 67.4738 20.025C66.6018 23.073 64.733 20.3914 64.1138 19.7818C63.4946 19.1722 66.1026 16.2394 66.1026 16.2394C66.1026 16.2394 62.6146 17.9466 61.4946 20.2618C60.3746 22.577 59.501 22.3418 58.629 21.8474C57.757 21.353 59.501 19.7674 59.501 19.7674C59.501 19.7674 57.261 20.6202 55.2658 22.937C53.2706 25.2538 54.2706 26.473 53.3986 27.577C52.981 28.1034 51.5922 28.2922 50.2578 28.3482V65.073C51.9106 65.017 53.7906 64.8746 54.7682 64.5258C56.7474 63.8186 57.509 60.9898 57.509 60.9898L52.8994 61.3594C54.4026 60.2508 55.7422 58.936 56.8786 57.4538C58.7474 55.0154 57.1282 51.9674 57.7506 50.7482C58.373 49.529 61.4882 49.7738 62.733 48.9194C63.9778 48.065 64.973 45.7498 64.973 45.7498C64.973 45.7498 62.8546 47.2122 62.1074 46.2378C61.3602 45.2634 64.101 43.6778 64.101 43.6778C64.101 43.6778 62.7298 43.433 61.6098 44.0426C60.4898 44.6522 59.1186 46.8474 57.4994 48.6826C55.8802 50.5178 54.6386 49.4074 54.6386 49.4074C54.6386 49.4074 57.3794 47.8218 59.1186 45.0186C60.8578 42.2154 60.1138 41.4826 61.8578 40.5066C63.6018 39.5306 66.8402 39.4106 67.837 38.1914C68.8338 36.9722 69.0834 34.4106 69.0834 34.4106L68.0866 35.5082C67.0898 36.6058 65.0962 36.2394 63.3538 35.8746C61.6114 35.5098 60.2386 37.0938 60.2386 37.0938C60.2386 37.0938 60.3634 35.5082 61.8578 33.9242C63.3522 32.3402 68.5938 32.4602 70.213 30.753Z" fill="#031A6B"/>
<path opacity="0.49" d="M65.9785 27.0957C65.9785 27.0957 63.1145 27.2189 61.4985 27.9501C59.8825 28.6813 59.8793 30.7533 57.8857 30.7533C55.8921 30.7533 58.0105 27.8285 58.0105 27.8285C58.0105 27.8285 55.5193 29.0477 54.5225 29.7789C53.5257 30.5101 53.6505 31.9725 53.5257 33.4365C53.4153 34.7485 50.8057 35.3725 50.2617 35.4893V55.7853L50.2873 61.1117C50.4374 59.9637 50.6456 58.8241 50.9113 57.6973C51.2841 56.2349 52.1561 54.8941 53.7753 54.3453C55.3945 53.7965 56.2633 51.1197 56.2633 51.1197C56.2633 51.1197 55.2041 52.0941 52.7897 50.5565C52.1065 50.1213 51.7193 49.9773 51.5097 49.9725C51.4393 49.0493 51.7593 48.1165 53.5193 46.9693C55.3881 45.7501 56.7593 46.1165 58.3785 44.4093C59.9977 42.7021 60.7481 38.7997 60.7481 38.7997C60.7481 38.7997 60.1241 39.1645 59.2537 41.4813C58.3833 43.7981 56.3257 43.0669 56.3257 43.0669L57.3849 41.7245C58.4425 40.3837 57.7577 39.2861 57.0105 38.7997C56.2633 38.3133 56.2633 36.4829 58.5049 35.0189C60.7465 33.5549 61.4953 33.0685 61.2457 31.1181C60.9961 29.1677 65.9785 27.0957 65.9785 27.0957Z" fill="white"/>
<path d="M55.5787 34.1674C56.1637 34.1674 56.6379 33.7032 56.6379 33.1306C56.6379 32.5579 56.1637 32.0938 55.5787 32.0938C54.9938 32.0938 54.5195 32.5579 54.5195 33.1306C54.5195 33.7032 54.9938 34.1674 55.5787 34.1674Z" fill="#263238"/>
<path d="M53.6472 38.8623C53.6495 38.9735 53.6185 39.0829 53.5583 39.1764C53.4982 39.27 53.4115 39.3435 53.3094 39.3876C53.2073 39.4317 53.0944 39.4444 52.985 39.4241C52.8757 39.4037 52.7748 39.3513 52.6954 39.2735C52.6159 39.1956 52.5615 39.0959 52.539 38.9869C52.5164 38.878 52.5268 38.7648 52.5689 38.6619C52.6109 38.5589 52.6827 38.4708 52.775 38.4087C52.8673 38.3467 52.976 38.3135 53.0872 38.3135C53.2342 38.3122 53.3757 38.3693 53.4807 38.4721C53.5856 38.575 53.6455 38.7153 53.6472 38.8623Z" fill="#263238"/>
<path d="M55.8902 39.5313C56.0281 39.5313 56.1398 39.4224 56.1398 39.2881C56.1398 39.1538 56.0281 39.0449 55.8902 39.0449C55.7524 39.0449 55.6406 39.1538 55.6406 39.2881C55.6406 39.4224 55.7524 39.5313 55.8902 39.5313Z" fill="#263238"/>
<path d="M54.8949 42.2752C54.8972 42.3621 54.8735 42.4476 54.8268 42.5209C54.7802 42.5942 54.7128 42.6519 54.6332 42.6867C54.5536 42.7215 54.4655 42.7317 54.38 42.7162C54.2945 42.7006 54.2157 42.6599 54.1535 42.5993C54.0912 42.5387 54.0485 42.4609 54.0307 42.3759C54.013 42.2908 54.0209 42.2024 54.0536 42.122C54.0863 42.0415 54.1423 41.9726 54.2143 41.9241C54.2864 41.8756 54.3713 41.8497 54.4581 41.8496C54.5724 41.8484 54.6826 41.8924 54.7645 41.9722C54.8463 42.052 54.8933 42.1609 54.8949 42.2752Z" fill="#263238"/>
<path d="M53.8969 45.6889C53.8988 45.7758 53.8748 45.8612 53.8279 45.9343C53.781 46.0074 53.7134 46.0649 53.6337 46.0994C53.554 46.1339 53.4658 46.1438 53.3804 46.128C53.295 46.1121 53.2162 46.0711 53.1543 46.0102C53.0923 45.9494 53.0498 45.8714 53.0324 45.7864C53.0149 45.7013 53.0232 45.6129 53.0562 45.5326C53.0892 45.4522 53.1454 45.3835 53.2177 45.3353C53.2899 45.287 53.3749 45.2614 53.4617 45.2617C53.576 45.2609 53.686 45.3054 53.7676 45.3854C53.8492 45.4655 53.8957 45.5746 53.8969 45.6889Z" fill="#263238"/>
<path d="M56.7621 43.494C56.7644 43.5808 56.7406 43.6663 56.694 43.7396C56.6474 43.8129 56.58 43.8706 56.5004 43.9054C56.4208 43.9402 56.3326 43.9505 56.2472 43.9349C56.1617 43.9193 56.0829 43.8787 56.0206 43.818C55.9584 43.7574 55.9157 43.6796 55.8979 43.5946C55.8801 43.5096 55.8881 43.4212 55.9208 43.3407C55.9535 43.2603 56.0095 43.1914 56.0815 43.1428C56.1536 43.0943 56.2385 43.0684 56.3253 43.0684C56.4396 43.0671 56.5498 43.1112 56.6317 43.191C56.7135 43.2707 56.7604 43.3797 56.7621 43.494Z" fill="#263238"/>
<path d="M53.7719 54.3452C53.7738 54.432 53.7498 54.5175 53.7029 54.5906C53.656 54.6637 53.5884 54.7212 53.5087 54.7557C53.429 54.7902 53.3408 54.8001 53.2554 54.7842C53.17 54.7683 53.0912 54.7273 53.0292 54.6665C52.9673 54.6056 52.9248 54.5277 52.9074 54.4426C52.8899 54.3575 52.8982 54.2692 52.9312 54.1888C52.9642 54.1085 53.0204 54.0398 53.0927 53.9915C53.1649 53.9433 53.2499 53.9177 53.3367 53.918C53.451 53.9171 53.561 53.9616 53.6426 54.0417C53.7242 54.1218 53.7707 54.2309 53.7719 54.3452Z" fill="#263238"/>
<path d="M55.5165 52.3996C55.5178 52.4612 55.5007 52.5218 55.4676 52.5738C55.4344 52.6257 55.3866 52.6667 55.3302 52.6915C55.2738 52.7163 55.2112 52.7239 55.1505 52.7132C55.0898 52.7025 55.0337 52.6741 54.9891 52.6316C54.9445 52.589 54.9136 52.5342 54.9001 52.474C54.8866 52.4139 54.8913 52.3511 54.9135 52.2936C54.9357 52.2361 54.9744 52.1865 55.0248 52.1509C55.0751 52.1154 55.1349 52.0956 55.1965 52.094C55.2378 52.0923 55.279 52.0989 55.3176 52.1135C55.3563 52.128 55.3916 52.1503 55.4215 52.1788C55.4514 52.2073 55.4752 52.2416 55.4915 52.2795C55.5078 52.3175 55.5163 52.3583 55.5165 52.3996Z" fill="#263238"/>
<path d="M54.0215 57.3935C54.024 57.5052 53.9932 57.6151 53.933 57.7091C53.8728 57.8032 53.7859 57.8772 53.6835 57.9216C53.581 57.966 53.4676 57.9789 53.3578 57.9586C53.248 57.9382 53.1467 57.8856 53.067 57.8074C52.9872 57.7293 52.9325 57.6291 52.91 57.5197C52.8875 57.4103 52.898 57.2967 52.9404 57.1934C52.9827 57.09 53.0549 57.0017 53.1478 56.9396C53.2406 56.8775 53.3498 56.8445 53.4615 56.8447C53.6085 56.8435 53.75 56.9005 53.8549 57.0034C53.9599 57.1063 54.0198 57.2466 54.0215 57.3935Z" fill="#263238"/>
<path d="M53.5205 62.9402C53.5224 63.039 53.4948 63.1361 53.4413 63.2192C53.3878 63.3023 53.3108 63.3675 53.2201 63.4067C53.1293 63.4458 53.029 63.4571 52.9318 63.439C52.8347 63.4209 52.7451 63.3742 52.6746 63.305C52.604 63.2359 52.5557 63.1472 52.5357 63.0504C52.5157 62.9537 52.525 62.8531 52.5623 62.7616C52.5997 62.6701 52.6634 62.5919 52.7455 62.5367C52.8275 62.4816 52.9241 62.4522 53.0229 62.4522C53.0876 62.4515 53.1518 62.4637 53.2119 62.4878C53.2719 62.512 53.3266 62.5478 53.3728 62.5931C53.419 62.6384 53.4558 62.6924 53.4812 62.7519C53.5065 62.8115 53.5199 62.8755 53.5205 62.9402Z" fill="#263238"/>
<path d="M31.1618 11.6494H4.52344V77.7886H31.1618V11.6494Z" fill="white" stroke="#263238" stroke-width="0.16" stroke-linecap="round" stroke-linejoin="round"/>
<path d="M31.1618 11.6494H4.52344V13.5454H31.1618V11.6494Z" fill="#263238" stroke="#263238" stroke-width="0.16" stroke-linecap="round" stroke-linejoin="round"/>
<path d="M31.1618 28.3037H4.52344V30.1997H31.1618V28.3037Z" fill="#263238" stroke="#263238" stroke-width="0.16" stroke-linecap="round" stroke-linejoin="round"/>
<path d="M31.1618 45.0381H4.52344V46.9341H31.1618V45.0381Z" fill="#263238" stroke="#263238" stroke-width="0.16" stroke-linecap="round" stroke-linejoin="round"/>
<path d="M31.1618 61.3711H4.52344V63.2671H31.1618V61.3711Z" fill="#263238" stroke="#263238" stroke-width="0.16" stroke-linecap="round" stroke-linejoin="round"/>
<path d="M50.3045 11.6494H31.1621V77.7886H50.3045V11.6494Z" fill="#BDBDBD" stroke="#263238" stroke-width="0.16" stroke-linecap="round" stroke-linejoin="round"/>
<path d="M52.054 27.5615H3.48438V29.3839H52.054V27.5615Z" fill="#919191" stroke="#263238" stroke-width="0.16" stroke-linecap="round" stroke-linejoin="round"/>
<path d="M32.5196 27.5615H3.48438V29.3839H32.5196V27.5615Z" fill="white" stroke="#263238" stroke-width="0.16" stroke-linecap="round" stroke-linejoin="round"/>
<path d="M52.054 44.0703H3.48438V45.8927H52.054V44.0703Z" fill="#919191" stroke="#263238" stroke-width="0.16" stroke-linecap="round" stroke-linejoin="round"/>
<path d="M32.5196 44.0703H3.48438V45.8927H32.5196V44.0703Z" fill="white" stroke="#263238" stroke-width="0.16" stroke-linecap="round" stroke-linejoin="round"/>
<path d="M52.054 60.5771H3.48438V62.3996H52.054V60.5771Z" fill="white" stroke="#263238" stroke-width="0.16" stroke-linecap="round" stroke-linejoin="round"/>
<path d="M32.5196 60.5771H3.48438V62.3996H32.5196V60.5771Z" fill="white" stroke="#263238" stroke-width="0.16" stroke-linecap="round" stroke-linejoin="round"/>
<path d="M11.1157 15.79H6.27734V24.3548H11.1157V15.79Z" fill="#263238" stroke="#263238" stroke-width="0.16" stroke-linecap="round" stroke-linejoin="round"/>
<path d="M10.7378 16.459H6.65625V23.6862H10.7378V16.459Z" fill="white" stroke="#263238" stroke-width="0.16" stroke-linecap="round" stroke-linejoin="round"/>
<path d="M10.7378 19.7646H6.65625V20.3806H10.7378V19.7646Z" fill="#263238" stroke="#263238" stroke-width="0.16" stroke-linecap="round" stroke-linejoin="round"/>
<path d="M20.2837 15.79H15.4453V24.3548H20.2837V15.79Z" fill="#263238" stroke="#263238" stroke-width="0.16" stroke-linecap="round" stroke-linejoin="round"/>
<path d="M19.9039 16.459H15.8223V23.6862H19.9039V16.459Z" fill="white" stroke="#263238" stroke-width="0.16" stroke-linecap="round" stroke-linejoin="round"/>
<path d="M19.9039 19.7646H15.8223V20.3806H19.9039V19.7646Z" fill="#263238" stroke="#263238" stroke-width="0.16" stroke-linecap="round" stroke-linejoin="round"/>
<path d="M11.1157 33.1182H6.27734V41.683H11.1157V33.1182Z" fill="#263238" stroke="#263238" stroke-width="0.16" stroke-linecap="round" stroke-linejoin="round"/>
<path d="M10.7378 33.7871H6.65625V41.0143H10.7378V33.7871Z" fill="white" stroke="#263238" stroke-width="0.16" stroke-linecap="round" stroke-linejoin="round"/>
<path d="M10.7378 37.0928H6.65625V37.7088H10.7378V37.0928Z" fill="#263238" stroke="#263238" stroke-width="0.16" stroke-linecap="round" stroke-linejoin="round"/>
<path d="M20.2837 33.1182H15.4453V41.683H20.2837V33.1182Z" fill="#263238" stroke="#263238" stroke-width="0.16" stroke-linecap="round" stroke-linejoin="round"/>
<path d="M19.9039 33.7871H15.8223V41.0143H19.9039V33.7871Z" fill="white" stroke="#263238" stroke-width="0.16" stroke-linecap="round" stroke-linejoin="round"/>
<path d="M19.9039 37.0928H15.8223V37.7088H19.9039V37.0928Z" fill="#263238" stroke="#263238" stroke-width="0.16" stroke-linecap="round" stroke-linejoin="round"/>
<path d="M11.1157 49.3389H6.27734V57.9037H11.1157V49.3389Z" fill="#263238" stroke="#263238" stroke-width="0.16" stroke-linecap="round" stroke-linejoin="round"/>
<path d="M10.7378 50.0098H6.65625V57.237H10.7378V50.0098Z" fill="white" stroke="#263238" stroke-width="0.16" stroke-linecap="round" stroke-linejoin="round"/>
<path d="M10.7378 53.3145H6.65625V53.9305H10.7378V53.3145Z" fill="#263238" stroke="#263238" stroke-width="0.16" stroke-linecap="round" stroke-linejoin="round"/>
<path d="M20.2837 49.3389H15.4453V57.9037H20.2837V49.3389Z" fill="#263238" stroke="#263238" stroke-width="0.16" stroke-linecap="round" stroke-linejoin="round"/>
<path d="M19.9039 50.0098H15.8223V57.237H19.9039V50.0098Z" fill="white" stroke="#263238" stroke-width="0.16" stroke-linecap="round" stroke-linejoin="round"/>
<path d="M19.9039 53.3145H15.8223V53.9305H19.9039V53.3145Z" fill="#263238" stroke="#263238" stroke-width="0.16" stroke-linecap="round" stroke-linejoin="round"/>
<path d="M11.1157 65.4092H6.27734V73.974H11.1157V65.4092Z" fill="#263238" stroke="#263238" stroke-width="0.16" stroke-linecap="round" stroke-linejoin="round"/>
<path d="M10.7378 66.0781H6.65625V73.3053H10.7378V66.0781Z" fill="white" stroke="#263238" stroke-width="0.16" stroke-linecap="round" stroke-linejoin="round"/>
<path d="M10.7378 69.3838H6.65625V69.9998H10.7378V69.3838Z" fill="#263238" stroke="#263238" stroke-width="0.16" stroke-linecap="round" stroke-linejoin="round"/>
<path d="M20.2837 65.4092H15.4453V73.974H20.2837V65.4092Z" fill="#263238" stroke="#263238" stroke-width="0.16" stroke-linecap="round" stroke-linejoin="round"/>
<path d="M19.9039 66.0781H15.8223V73.3053H19.9039V66.0781Z" fill="white" stroke="#263238" stroke-width="0.16" stroke-linecap="round" stroke-linejoin="round"/>
<path d="M19.9039 69.3838H15.8223V69.9998H19.9039V69.3838Z" fill="#263238" stroke="#263238" stroke-width="0.16" stroke-linecap="round" stroke-linejoin="round"/>
<path d="M29.1763 15.79H24.3379V24.3548H29.1763V15.79Z" fill="#263238" stroke="#263238" stroke-width="0.16" stroke-linecap="round" stroke-linejoin="round"/>
<path d="M28.7964 16.459H24.7148V23.6862H28.7964V16.459Z" fill="white" stroke="#263238" stroke-width="0.16" stroke-linecap="round" stroke-linejoin="round"/>
<path d="M28.7964 19.7646H24.7148V20.3806H28.7964V19.7646Z" fill="#263238" stroke="#263238" stroke-width="0.16" stroke-linecap="round" stroke-linejoin="round"/>
<path d="M29.1763 33.1182H24.3379V41.683H29.1763V33.1182Z" fill="#263238" stroke="#263238" stroke-width="0.16" stroke-linecap="round" stroke-linejoin="round"/>
<path d="M28.7964 33.7871H24.7148V41.0143H28.7964V33.7871Z" fill="white" stroke="#263238" stroke-width="0.16" stroke-linecap="round" stroke-linejoin="round"/>
<path d="M28.7964 37.0928H24.7148V37.7088H28.7964V37.0928Z" fill="#263238" stroke="#263238" stroke-width="0.16" stroke-linecap="round" stroke-linejoin="round"/>
<path d="M39.7407 15.79H34.9023V24.3548H39.7407V15.79Z" fill="#263238" stroke="#263238" stroke-width="0.16" stroke-linecap="round" stroke-linejoin="round"/>
<path d="M39.3609 16.459H35.2793V23.6862H39.3609V16.459Z" fill="white" stroke="#263238" stroke-width="0.16" stroke-linecap="round" stroke-linejoin="round"/>
<path d="M39.3609 19.7646H35.2793V20.3806H39.3609V19.7646Z" fill="#263238" stroke="#263238" stroke-width="0.16" stroke-linecap="round" stroke-linejoin="round"/>
<path d="M29.1763 49.3389H24.3379V57.9037H29.1763V49.3389Z" fill="#263238" stroke="#263238" stroke-width="0.16" stroke-linecap="round" stroke-linejoin="round"/>
<path d="M28.7964 50.0098H24.7148V57.237H28.7964V50.0098Z" fill="white" stroke="#263238" stroke-width="0.16" stroke-linecap="round" stroke-linejoin="round"/>
<path d="M28.7964 53.3145H24.7148V53.9305H28.7964V53.3145Z" fill="#263238" stroke="#263238" stroke-width="0.16" stroke-linecap="round" stroke-linejoin="round"/>
<path d="M39.7407 33.1182H34.9023V41.683H39.7407V33.1182Z" fill="#263238" stroke="#263238" stroke-width="0.16" stroke-linecap="round" stroke-linejoin="round"/>
<path d="M39.3609 33.7871H35.2793V41.0143H39.3609V33.7871Z" fill="white" stroke="#263238" stroke-width="0.16" stroke-linecap="round" stroke-linejoin="round"/>
<path d="M39.3609 37.0928H35.2793V37.7088H39.3609V37.0928Z" fill="#263238" stroke="#263238" stroke-width="0.16" stroke-linecap="round" stroke-linejoin="round"/>
<path d="M47.6294 33.1182H42.791V41.683H47.6294V33.1182Z" fill="#263238" stroke="#263238" stroke-width="0.16" stroke-linecap="round" stroke-linejoin="round"/>
<path d="M47.2515 33.7871H43.1699V41.0143H47.2515V33.7871Z" fill="white" stroke="#263238" stroke-width="0.16" stroke-linecap="round" stroke-linejoin="round"/>
<path d="M47.2515 37.0928H43.1699V37.7088H47.2515V37.0928Z" fill="#263238" stroke="#263238" stroke-width="0.16" stroke-linecap="round" stroke-linejoin="round"/>
<path d="M47.6294 49.3389H42.791V57.9037H47.6294V49.3389Z" fill="#263238" stroke="#263238" stroke-width="0.16" stroke-linecap="round" stroke-linejoin="round"/>
<path d="M47.2515 50.0098H43.1699V57.237H47.2515V50.0098Z" fill="white" stroke="#263238" stroke-width="0.16" stroke-linecap="round" stroke-linejoin="round"/>
<path d="M47.2515 53.3145H43.1699V53.9305H47.2515V53.3145Z" fill="#263238" stroke="#263238" stroke-width="0.16" stroke-linecap="round" stroke-linejoin="round"/>
<path d="M29.1763 65.4092H24.3379V73.974H29.1763V65.4092Z" fill="#263238" stroke="#263238" stroke-width="0.16" stroke-linecap="round" stroke-linejoin="round"/>
<path d="M28.7964 66.0781H24.7148V73.3053H28.7964V66.0781Z" fill="white" stroke="#263238" stroke-width="0.16" stroke-linecap="round" stroke-linejoin="round"/>
<path d="M28.7964 69.3838H24.7148V69.9998H28.7964V69.3838Z" fill="#263238" stroke="#263238" stroke-width="0.16" stroke-linecap="round" stroke-linejoin="round"/>
<path d="M39.7407 49.3389H34.9023V57.9037H39.7407V49.3389Z" fill="#263238" stroke="#263238" stroke-width="0.16" stroke-linecap="round" stroke-linejoin="round"/>
<path d="M39.3609 50.0098H35.2793V57.237H39.3609V50.0098Z" fill="white" stroke="#263238" stroke-width="0.16" stroke-linecap="round" stroke-linejoin="round"/>
<path d="M39.3609 53.3145H35.2793V53.9305H39.3609V53.3145Z" fill="#263238" stroke="#263238" stroke-width="0.16" stroke-linecap="round" stroke-linejoin="round"/>
<path d="M47.6294 65.4092H42.791V73.974H47.6294V65.4092Z" fill="#263238" stroke="#263238" stroke-width="0.16" stroke-linecap="round" stroke-linejoin="round"/>
<path d="M47.2515 66.0781H43.1699V73.3053H47.2515V66.0781Z" fill="white" stroke="#263238" stroke-width="0.16" stroke-linecap="round" stroke-linejoin="round"/>
<path d="M47.2515 69.3838H43.1699V69.9998H47.2515V69.3838Z" fill="#263238" stroke="#263238" stroke-width="0.16" stroke-linecap="round" stroke-linejoin="round"/>
<path d="M39.7407 65.4092H34.9023V73.974H39.7407V65.4092Z" fill="#263238" stroke="#263238" stroke-width="0.16" stroke-linecap="round" stroke-linejoin="round"/>
<path d="M39.3609 66.0781H35.2793V73.3053H39.3609V66.0781Z" fill="white" stroke="#263238" stroke-width="0.16" stroke-linecap="round" stroke-linejoin="round"/>
<path d="M39.3609 69.3838H35.2793V69.9998H39.3609V69.3838Z" fill="#263238" stroke="#263238" stroke-width="0.16" stroke-linecap="round" stroke-linejoin="round"/>
<path d="M42.1457 12.7678L43.2465 14.5102L45.9985 16.803L45.6305 18.363L43.9793 20.8382L44.6225 22.3054L45.8145 25.0574H46.4561L47.5569 25.3326L49.3905 25.1486L50.3041 25.8014V11.6494H49.2113L41.7793 11.851L42.1457 12.7678Z" fill="#C2C2C2" stroke="#263238" stroke-width="0.16" stroke-linecap="round" stroke-linejoin="round"/>
<path d="M47.3729 25.2862L48.7489 25.1486L48.8273 25.2046L49.3905 25.1486L49.6625 25.3438V11.6494H49.2113L41.7793 11.851L42.1457 12.7678L43.2465 14.5102L45.9985 16.803L45.6305 18.363L43.9793 20.8382L44.6225 22.3054L45.8145 25.0574H46.4561L47.3729 25.2862Z" fill="#263238" stroke="#263238" stroke-width="0.16" stroke-linecap="round" stroke-linejoin="round"/>
<path d="M52.054 10.8701H3.48438V12.6925H52.054V10.8701Z" fill="#919191" stroke="#263238" stroke-width="0.16" stroke-linecap="round" stroke-linejoin="round"/>
<path d="M32.5196 10.8701H3.48438V12.6925H32.5196V10.8701Z" fill="white" stroke="#263238" stroke-width="0.16" stroke-linecap="round" stroke-linejoin="round"/>
<path d="M48.7844 67.352L48.6836 68.1904L48.9444 68.32C48.9444 68.32 49.1172 68.84 49.1604 68.84C49.2036 68.84 49.6228 68.696 49.6228 68.696L50.1028 69.1152L50.5508 68.4208L50.146 68.2192C50.146 68.2192 50.3636 67.2944 50.2772 67.0912C50.1908 66.888 50.1028 66.8032 49.5252 66.7456C48.9476 66.688 48.9012 66.9328 48.7844 67.352Z" fill="white" stroke="#263238" stroke-width="0.16" stroke-miterlimit="10"/>
<path d="M49.519 66.746C49.0502 66.698 48.9333 66.8516 48.8438 67.1348H49.3029C49.3029 67.1348 49.1142 67.4388 49.215 67.4676C49.2939 67.4918 49.3714 67.5207 49.4469 67.554C49.4469 67.554 49.3894 67.8868 49.4614 67.9156C49.5334 67.9444 49.5477 67.93 49.5765 67.7716C49.6053 67.6132 49.7365 67.5396 49.8085 67.714C49.8467 67.8519 49.8416 67.9982 49.7942 68.1332L49.751 68.234L50.1398 68.2196C50.1398 68.2196 50.3574 67.2948 50.271 67.0916C50.1846 66.8884 50.0982 66.8004 49.519 66.746Z" fill="#263238" stroke="#263238" stroke-width="0.16" stroke-linecap="round" stroke-linejoin="round"/>
<path d="M48.9868 67.8007C48.9868 67.8647 48.9676 67.9159 48.9436 67.9159C48.9196 67.9159 48.9004 67.8647 48.9004 67.8007C48.9004 67.7367 48.9196 67.6855 48.9436 67.6855C48.9676 67.6855 48.9868 67.7367 48.9868 67.8007Z" fill="#263238"/>
<path d="M48.8438 67.568C48.8438 67.568 49.0454 67.4816 49.103 67.6128" stroke="#263238" stroke-width="0.16" stroke-linecap="round" stroke-linejoin="round"/>
<path d="M51.4906 71.6002C51.4906 71.6002 49.065 73.8402 49.233 73.9762C49.401 74.1122 50.2777 76.8562 50.2777 76.8562L50.7162 76.941L50.3962 74.1602L52.1994 72.997C52.1994 72.997 53.8329 75.0866 54.0521 75.1042C54.2713 75.1218 57.0521 73.941 57.0521 73.941L56.985 73.4354L54.5418 73.8226L53.8506 71.4802C53.8645 71.3958 53.8507 71.3091 53.8111 71.2333C53.7716 71.1574 53.7085 71.0964 53.6314 71.0594C53.345 70.8674 51.4906 71.6002 51.4906 71.6002Z" fill="#263238" stroke="#263238" stroke-width="0.16" stroke-linecap="round" stroke-linejoin="round"/>
<path d="M56.9863 73.4293C56.9863 73.4293 57.6087 73.3461 57.6599 73.3957C57.7111 73.4453 57.7447 73.9189 57.7447 74.3061C57.7447 74.6933 57.5415 75.0981 57.4919 75.0981C57.4423 75.0981 57.0535 73.9349 57.0535 73.9349L56.9863 73.4293Z" fill="white" stroke="#263238" stroke-width="0.16" stroke-miterlimit="10"/>
<path d="M50.2774 76.8496C50.2774 76.8496 49.0134 76.968 49.0294 77.0352C49.0454 77.1024 50.0406 77.4736 50.3094 77.5072C50.5782 77.5408 50.8486 77.6256 50.8822 77.5248C50.9158 77.424 50.7222 76.9344 50.7222 76.9344L50.2774 76.8496Z" fill="white" stroke="#263238" stroke-width="0.16" stroke-miterlimit="10"/>
<path d="M53.379 70.7153C53.3118 70.6657 53.3614 68.5425 53.2942 68.4417C53.227 68.3409 51.0542 67.9697 50.867 67.9697C50.6798 67.9697 50.547 68.3057 50.547 68.3057L48.9806 69.8737L47.3454 68.7281L47.1102 68.1377C47.1102 68.1377 46.9406 68.0193 46.9246 68.1041L46.891 68.2721C46.891 68.2721 46.5534 68.3729 46.571 68.4577C46.6131 68.5783 46.6821 68.6877 46.7726 68.7777C46.8238 68.8113 47.1102 69.0305 47.1102 69.0305C47.1102 69.0305 49.0478 70.6817 49.1662 70.6817C49.2846 70.6817 50.2606 70.1601 50.2606 70.1601L51.5406 71.8113C51.5406 71.8113 52.163 72.0977 52.6686 71.9121C53.1742 71.7265 53.6286 71.1537 53.6286 71.0529C53.6286 70.9521 53.4462 70.7665 53.379 70.7153ZM52.1486 69.2337H52.8558L53.1422 70.3537L52.1486 69.2337Z" fill="white" stroke="#263238" stroke-width="0.16" stroke-miterlimit="10"/>
<path d="M52.1491 69.2337H52.8563L52.8755 69.3089L53.3347 69.2913C53.3445 69.0075 53.3312 68.7234 53.2947 68.4417C53.2275 68.3393 51.0547 67.9697 50.8675 67.9697C50.6803 67.9697 50.5475 68.3057 50.5475 68.3057L48.9811 69.8737L48.6467 69.6401L48.3555 70.0721C48.6082 70.2979 48.8795 70.5018 49.1667 70.6817C49.2835 70.6817 50.2611 70.1601 50.2611 70.1601L51.5411 71.8113C51.5411 71.8113 52.1635 72.0977 52.6691 71.9121C53.1747 71.7265 53.6291 71.1537 53.6291 71.0529C53.6291 70.9521 53.4435 70.7665 53.3763 70.7153L53.1395 70.3457L52.1491 69.2337Z" fill="#031A6B" stroke="#263238" stroke-width="0.16" stroke-miterlimit="10"/>
<path d="M87.7261 75.8099L86.8061 70.0787L85.8861 68.8051L84.6141 68.4515L68.0605 43.6211L67.4941 44.3299L82.4909 69.5139L84.1885 70.4323L85.2509 77.7907H88.5757L87.7261 75.8099Z" fill="#263238" stroke="#263238" stroke-width="0.16" stroke-linecap="round" stroke-linejoin="round"/>
<path d="M68.0601 43.6211L58.0137 57.4163L58.9337 57.8403L70.1817 46.8051" stroke="#263238" stroke-width="0.48" stroke-linecap="round" stroke-linejoin="round"/>
<path d="M62.1875 51.6865L63.8147 53.0305" stroke="#263238" stroke-width="0.48" stroke-linecap="round" stroke-linejoin="round"/>
<path d="M58.4801 59.1285C58.6673 59.3797 59.0001 59.4917 59.4049 59.4741C59.9601 59.4501 60.6545 59.1845 61.2977 58.7077C62.0545 58.1445 62.5441 57.4277 62.6433 56.8453C62.6717 56.723 62.6745 56.5962 62.6513 56.4728C62.6282 56.3494 62.5797 56.2321 62.5089 56.1285C62.0641 55.5333 60.8033 55.7221 59.6913 56.5509C58.5793 57.3797 58.0337 58.5333 58.4801 59.1285Z" fill="white" stroke="#263238" stroke-width="0.16" stroke-linecap="round" stroke-linejoin="round"/>
<path d="M59.4004 59.4735C59.9556 59.4495 60.65 59.1839 61.2932 58.7071C62.05 58.1439 62.5396 57.4271 62.6388 56.8447C62.0836 56.8671 61.3924 57.1327 60.7492 57.6127C59.9924 58.1743 59.4996 58.8863 59.4004 59.4735Z" fill="white" stroke="#263238" stroke-width="0.16" stroke-linecap="round" stroke-linejoin="round"/>
<path d="M61.881 73.7354H62.585L62.5962 73.7498C62.6561 73.7409 62.7165 73.7361 62.777 73.7354C63.6378 73.7354 64.3338 74.6313 64.3338 75.7385C64.3338 76.8458 63.6378 77.7402 62.777 77.7402C62.7165 77.7402 62.656 77.7354 62.5962 77.7258L62.585 77.7402H61.881C61.0202 77.7402 60.3242 76.8442 60.3242 75.7385C60.3242 74.6329 61.0202 73.7354 61.881 73.7354Z" fill="#263238" stroke="#263238" stroke-width="0.16" stroke-linecap="round" stroke-linejoin="round"/>
<path d="M76.3224 73.7354H77.028L77.0376 73.7498C77.098 73.7409 77.159 73.7361 77.22 73.7354C78.0792 73.7354 78.7768 74.6313 78.7768 75.7385C78.7768 76.8458 78.0792 77.7402 77.22 77.7402C77.1589 77.7402 77.0979 77.7354 77.0376 77.7258L77.028 77.7402H76.3224C75.4632 77.7402 74.7656 76.8442 74.7656 75.7385C74.7656 74.6329 75.4632 73.7354 76.3224 73.7354Z" fill="#263238" stroke="#263238" stroke-width="0.16" stroke-linecap="round" stroke-linejoin="round"/>
<path d="M83.6361 72.1117L84.0553 70.1997L82.6793 68.3117L81.8169 67.4717L80.3241 67.8221L78.3433 68.8701L77.8633 69.2237C77.8633 69.2237 82.6633 72.3437 82.7257 72.3677C82.7881 72.3917 83.6361 72.1117 83.6361 72.1117Z" fill="#CC9933" stroke="#263238" stroke-width="0.16" stroke-linecap="round" stroke-linejoin="round"/>
<path d="M83.3785 69.3133L82.3065 68.5901L81.8633 67.8445L80.9769 68.8477L81.0713 69.5693L79.8121 69.5469L78.7865 69.1277L77.8633 69.2237L79.1129 68.3341L80.5113 67.6589L81.8169 67.4717L82.8889 68.5677L83.3785 69.3133Z" fill="#CC9933" stroke="#263238" stroke-width="0.16" stroke-linecap="round" stroke-linejoin="round"/>
<path d="M55.1709 73.7949H55.5085L55.8125 71.6685C55.8306 71.5435 55.8932 71.4293 55.9887 71.3467C56.0842 71.2641 56.2063 71.2187 56.3325 71.2189H58.2285L61.3085 67.9501C61.4729 67.7755 61.6713 67.6363 61.8914 67.5411C62.1115 67.4459 62.3487 67.3967 62.5885 67.3965H70.7485C70.9245 67.3967 71.0987 67.4324 71.2606 67.5014C71.4225 67.5704 71.5689 67.6713 71.6909 67.7981L85.3597 73.5677L85.3101 73.6493L85.3789 74.1853L85.4957 74.5821L85.4269 75.5853C85.4269 75.5853 85.1837 76.0781 85.2349 76.2157H64.6973L59.4173 76.1789L55.5085 75.9197V75.9021H55.1885C55.1546 75.9021 55.122 75.8886 55.098 75.8646C55.074 75.8406 55.0605 75.808 55.0605 75.7741V73.9069C55.0605 73.8775 55.0721 73.8492 55.0928 73.8282C55.1134 73.8073 55.1415 73.7953 55.1709 73.7949Z" fill="#CC9933" stroke="#263238" stroke-width="0.16" stroke-linecap="round" stroke-linejoin="round"/>
<path d="M61.1414 75.8317V76.1901L59.4198 76.1789L55.5078 75.9197V75.9021H55.1878C55.164 75.902 55.1407 75.8952 55.1206 75.8824C55.1006 75.8697 55.0845 75.8516 55.0742 75.8301L61.1414 75.8317Z" fill="#263238" stroke="#263238" stroke-width="0.16" stroke-linecap="round" stroke-linejoin="round"/>
<path d="M59.4311 75.9197H61.4087L68.7207 67.3965H70.7527C70.9287 67.3967 71.1028 67.4324 71.2648 67.5014C71.4267 67.5704 71.573 67.6713 71.6951 67.7981L85.3607 73.5677L85.3111 73.6493L85.3799 74.1853L85.4967 74.5821L85.4279 75.5853C85.4279 75.5853 85.1847 76.0781 85.2359 76.2157H64.6983L59.4183 76.1789C59.3839 76.1772 59.3516 76.1619 59.3285 76.1364C59.3054 76.1109 59.2934 76.0773 59.2951 76.0429C59.2968 76.0085 59.3121 75.9762 59.3376 75.9531C59.3631 75.93 59.3967 75.918 59.4311 75.9197Z" fill="#263238" stroke="#263238" stroke-width="0.16" stroke-linecap="round" stroke-linejoin="round"/>
<path d="M82.4419 73.7354H83.1475L83.6099 74.4137C83.8639 74.8087 83.9989 75.2682 83.9989 75.7377C83.9989 76.2072 83.8639 76.6668 83.6099 77.0618L83.1475 77.7402H82.4419C81.5827 77.7402 80.8867 76.8441 80.8867 75.7385C80.8867 74.6329 81.5827 73.7354 82.4419 73.7354Z" fill="#263238" stroke="#263238" stroke-width="0.16" stroke-linecap="round" stroke-linejoin="round"/>
<path d="M83.338 77.7418C84.1978 77.7418 84.8948 76.8449 84.8948 75.7385C84.8948 74.6322 84.1978 73.7354 83.338 73.7354C82.4782 73.7354 81.7812 74.6322 81.7812 75.7385C81.7812 76.8449 82.4782 77.7418 83.338 77.7418Z" fill="#636363" stroke="#263238" stroke-width="0.16" stroke-linecap="round" stroke-linejoin="round"/>
<path d="M66.7317 73.7354H67.4405L67.9029 74.4137C68.1568 74.8087 68.2918 75.2682 68.2918 75.7377C68.2918 76.2072 68.1568 76.6668 67.9029 77.0618L67.4405 77.7402H66.7349C65.8757 77.7402 65.1797 76.8441 65.1797 75.7385C65.1797 74.6329 65.8725 73.7354 66.7317 73.7354Z" fill="#263238" stroke="#263238" stroke-width="0.16" stroke-linecap="round" stroke-linejoin="round"/>
<path d="M67.6291 77.7418C68.4889 77.7418 69.1859 76.8449 69.1859 75.7385C69.1859 74.6322 68.4889 73.7354 67.6291 73.7354C66.7693 73.7354 66.0723 74.6322 66.0723 75.7385C66.0723 76.8449 66.7693 77.7418 67.6291 77.7418Z" fill="#636363" stroke="#263238" stroke-width="0.16" stroke-linecap="round" stroke-linejoin="round"/>
<path d="M67.6283 77.3374C68.314 77.3374 68.8699 76.6218 68.8699 75.739C68.8699 74.8563 68.314 74.1406 67.6283 74.1406C66.9426 74.1406 66.3867 74.8563 66.3867 75.739C66.3867 76.6218 66.9426 77.3374 67.6283 77.3374Z" fill="white" stroke="#263238" stroke-width="0.16" stroke-linecap="round" stroke-linejoin="round"/>
<path d="M67.3669 75.739C67.3795 75.7879 67.4055 75.8324 67.4421 75.8673C67.4787 75.9023 67.5243 75.9262 67.5738 75.9365C67.6234 75.9468 67.6748 75.943 67.7222 75.9255C67.7697 75.9081 67.8113 75.8776 67.8423 75.8377C67.8734 75.7978 67.8926 75.7499 67.8978 75.6996C67.903 75.6493 67.894 75.5986 67.8718 75.5531C67.8496 75.5077 67.8151 75.4694 67.7723 75.4426C67.7294 75.4157 67.6799 75.4015 67.6293 75.4014C67.5505 75.4129 67.4791 75.4545 67.4302 75.5174C67.3813 75.5803 67.3586 75.6597 67.3669 75.739Z" fill="white" stroke="#263238" stroke-width="0.16" stroke-linecap="round" stroke-linejoin="round"/>
<path d="M61.3095 67.9498C61.3335 67.9226 61.3623 67.8986 61.3895 67.873H67.7479V71.0154H58.4199L61.3095 67.9498Z" fill="#263238" stroke="#263238" stroke-width="0.16" stroke-linecap="round" stroke-linejoin="round"/>
<path d="M60.9493 73.7949L61.3157 71.2189H63.6677L66.7477 67.9501C66.9121 67.7755 67.1104 67.6363 67.3306 67.5411C67.5507 67.4459 67.7879 67.3967 68.0277 67.3965H75.5205C75.6968 67.3965 75.8713 67.4321 76.0335 67.5011C76.1957 67.5701 76.3423 67.6711 76.4645 67.7981L81.2501 70.9981L83.0965 71.7981L83.6341 72.1181L83.7029 72.5837L83.9205 72.8797L85.1573 72.9277L85.5061 73.3469L85.3205 73.6493L85.3893 74.1853L85.5061 74.5821L85.4373 75.5853C85.3554 75.7492 85.291 75.9214 85.2453 76.0989V75.6877C85.2453 74.3965 84.3061 73.3501 83.1477 73.3501C82.1157 73.3501 81.4741 74.1869 81.3125 75.3229L81.1861 76.2157H69.5109V75.6877C69.5109 74.3965 68.9813 73.3501 67.5573 73.3501C66.2885 73.3501 65.8341 74.1869 65.6373 75.3229L65.4885 76.1789L60.9493 75.9197V75.9021H60.5781V73.7949H60.9493Z" fill="#CC9933" stroke="#263238" stroke-width="0.16" stroke-linecap="round" stroke-linejoin="round"/>
<path d="M76.4267 68.2686L80.5355 70.9982H72.8555V67.9102H75.5755C75.734 67.9105 75.8909 67.9424 76.037 68.0039C76.1832 68.0655 76.3156 68.1554 76.4267 68.2686Z" fill="white" stroke="#263238" stroke-width="0.16" stroke-linecap="round" stroke-linejoin="round"/>
<path d="M77.9221 70.971L77.5204 70.7486L77.298 70.1038L77.098 69.5022L76.7637 69.3454L76.3188 69.2574L76.0292 68.5438L75.5733 67.9102L75.5604 68.611L75.0933 69.5022L74.938 69.8142L74.7812 70.2142L75.5829 70.7486L75.4948 71.0158L77.9221 70.971Z" fill="#263238" stroke="#263238" stroke-width="0.16" stroke-linecap="round" stroke-linejoin="round"/>
<path d="M75.0941 69.5025L74.6269 69.2801L74.5821 68.7217L73.6013 68.7009L73.3789 67.9873" stroke="#263238" stroke-width="0.16" stroke-linecap="round" stroke-linejoin="round"/>
<path d="M75.2063 69.2794C75.2063 69.2794 74.9375 69.1194 74.9167 69.0554C74.8959 68.9914 74.9823 68.8554 74.9599 68.7882C74.9375 68.721 74.8943 68.5434 74.8943 68.5434L74.8047 68.2762L74.8719 68.1162" stroke="#263238" stroke-width="0.16" stroke-linecap="round" stroke-linejoin="round"/>
<path d="M74.7829 70.2145L74.3604 69.9473L73.9588 69.9921L73.7812 69.9697" stroke="#263238" stroke-width="0.16" stroke-linecap="round" stroke-linejoin="round"/>
<path d="M77.0547 69.7466L77.2995 69.457L77.5443 69.6346L77.9459 69.7242" stroke="#263238" stroke-width="0.16" stroke-linecap="round" stroke-linejoin="round"/>
<path d="M72.8555 70.9979V68.7803L74.6043 70.9979H72.8555Z" fill="#263238" stroke="#263238" stroke-width="0.16" stroke-linecap="round" stroke-linejoin="round"/>
<path d="M67.0022 68.4142L65.255 70.1998C65.1976 70.2599 65.1563 70.3337 65.135 70.4142C65.1178 70.4834 65.1165 70.5557 65.1314 70.6256C65.1462 70.6954 65.1768 70.761 65.2207 70.8173C65.2647 70.8735 65.3209 70.9191 65.385 70.9504C65.4492 70.9818 65.5196 70.9981 65.591 70.9982H72.3398V67.9102H68.1974C67.9747 67.9103 67.7542 67.955 67.549 68.0415C67.3437 68.1281 67.1578 68.2548 67.0022 68.4142Z" fill="#263238" stroke="#263238" stroke-width="0.16" stroke-linecap="round" stroke-linejoin="round"/>
<path d="M68.6406 67.9102H69.319L71.7558 70.9982H71.0758L68.6406 67.9102Z" fill="white" stroke="#263238" stroke-width="0.16" stroke-linecap="round" stroke-linejoin="round"/>
<path d="M72.3411 68.1294V70.595L70.2227 67.9102H72.1683L72.3411 68.1294Z" fill="white" stroke="#263238" stroke-width="0.16" stroke-linecap="round" stroke-linejoin="round"/>
<path d="M61.3142 71.2188H56.3318C56.2055 71.2186 56.0835 71.264 55.988 71.3466C55.8924 71.4291 55.8299 71.5434 55.8118 71.6683L55.5078 73.7948H60.9478L61.3142 71.2188Z" fill="#CC9933" stroke="#263238" stroke-width="0.16" stroke-linecap="round" stroke-linejoin="round"/>
<path d="M56.586 73.3496H58.9492V72.3784H56.586V73.3496Z" fill="white" stroke="#263238" stroke-width="0.16" stroke-linecap="round" stroke-linejoin="round"/>
<path d="M55.25 74.1914H65.3764" stroke="#263238" stroke-width="0.32" stroke-linecap="round" stroke-linejoin="round"/>
<path d="M69.9023 74.1914H81.1247" stroke="#263238" stroke-width="0.32" stroke-linecap="round" stroke-linejoin="round"/>
<path d="M59.3574 72.3994H61.5974C61.7008 72.3998 61.8021 72.4288 61.89 72.4833C61.9778 72.5379 62.0488 72.6157 62.095 72.7082L62.4678 73.4538C62.4835 73.4879 62.4905 73.5254 62.4881 73.5629C62.4856 73.6004 62.4738 73.6367 62.4538 73.6685C62.4338 73.7003 62.4061 73.7266 62.3734 73.745C62.3406 73.7633 62.3038 73.7733 62.2662 73.7738H59.3574V72.3994Z" fill="#FEFEFE" stroke="#263238" stroke-width="0.16" stroke-linecap="round" stroke-linejoin="round"/>
<path d="M59.3574 72.3945H61.1574L60.9606 73.7753H59.3574V72.3945Z" fill="#263238" stroke="#263238" stroke-width="0.16" stroke-linecap="round" stroke-linejoin="round"/>
<path d="M55.7179 72.3945H56.2619L56.2699 73.7753H55.5195L55.7179 72.3945Z" fill="#263238" stroke="#263238" stroke-width="0.16" stroke-linecap="round" stroke-linejoin="round"/>
<path d="M80.193 71.5664H80.9866C81.1634 71.5664 81.3066 71.4231 81.3066 71.2464V70.6736C81.3066 70.4969 81.1634 70.3536 80.9866 70.3536H80.193C80.0163 70.3536 79.873 70.4969 79.873 70.6736V71.2464C79.873 71.4231 80.0163 71.5664 80.193 71.5664Z" fill="#263238" stroke="#263238" stroke-width="0.16" stroke-linecap="round" stroke-linejoin="round"/>
<path d="M73.0404 72.1182H74.418V71.5662H73.0404V72.1182Z" fill="#263238" stroke="#263238" stroke-width="0.16" stroke-linecap="round" stroke-linejoin="round"/>
<path d="M72.709 71.3467V75.5355" stroke="#263238" stroke-width="0.16" stroke-linecap="round" stroke-linejoin="round"/>
<path d="M82.0236 73.2207C82.0236 73.2207 81.014 73.7903 80.886 75.7391H70.166" stroke="#263238" stroke-width="0.16" stroke-linecap="round" stroke-linejoin="round"/>
<path d="M65.0996 74.0475C65.0996 74.0475 65.6276 72.6699 67.394 72.6699C68.626 72.6699 69.2148 73.3099 69.5092 73.8267" stroke="#263238" stroke-width="0.16" stroke-linecap="round" stroke-linejoin="round"/>
<g opacity="0.24">
<path d="M83.9215 60.9062C81.9615 60.9062 80.3727 62.3126 80.3727 64.0502C80.3742 64.6454 80.5609 65.2253 80.9071 65.7094C79.9647 65.879 79.2559 66.6134 79.2559 67.4934C79.2559 68.4998 80.1807 69.3142 81.3231 69.3142C82.4655 69.3142 83.3887 68.4998 83.3887 67.4934C83.3886 67.3789 83.3763 67.2646 83.3519 67.1527C83.5405 67.1803 83.7308 67.1942 83.9215 67.1942C85.8831 67.1942 87.4719 65.7862 87.4719 64.0502C87.4719 62.3142 85.8751 60.9062 83.9215 60.9062Z" fill="black"/>
<path d="M83.5087 60.8036C84.9092 60.8036 86.0447 59.6911 86.0447 58.3188C86.0447 56.9465 84.9092 55.834 83.5087 55.834C82.1081 55.834 80.9727 56.9465 80.9727 58.3188C80.9727 59.6911 82.1081 60.8036 83.5087 60.8036Z" fill="black"/>
<path d="M80.2606 55.53C80.2606 54.97 79.6926 54.5156 78.9934 54.5156C78.2942 54.5156 77.7246 54.97 77.7246 55.53C77.7246 56.09 78.2926 56.5444 78.9934 56.5444C79.6942 56.5444 80.2606 56.09 80.2606 55.53Z" fill="black"/>
<path d="M78.3206 50.6726C78.2566 50.4294 77.9638 50.2934 77.6646 50.3718C77.3654 50.4502 77.1846 50.7094 77.2406 50.9526C77.2966 51.1958 77.5958 51.3318 77.895 51.255C78.1942 51.1782 78.3798 50.9174 78.3206 50.6726Z" fill="black"/>
</g>
<g opacity="0.24">
<path d="M52.607 25.1064C50.647 25.1064 49.0566 26.5128 49.0566 28.2504C49.0586 28.8458 49.2459 29.4257 49.5926 29.9096C48.6502 30.0792 47.9414 30.8136 47.9414 31.6936C47.9414 32.7 48.8662 33.5144 50.007 33.5144C51.1478 33.5144 52.0822 32.7 52.0822 31.6936C52.0814 31.5791 52.0691 31.4649 52.0454 31.3528C52.234 31.3805 52.4244 31.3944 52.615 31.3944C54.575 31.3944 56.1654 29.9864 56.1654 28.2504C56.1654 26.5144 54.567 25.1064 52.607 25.1064Z" fill="black"/>
<path d="M52.2001 25.0038C53.6007 25.0038 54.7361 23.8913 54.7361 22.519C54.7361 21.1467 53.6007 20.0342 52.2001 20.0342C50.7995 20.0342 49.6641 21.1467 49.6641 22.519C49.6641 23.8913 50.7995 25.0038 52.2001 25.0038Z" fill="black"/>
<path d="M48.9559 19.7302C48.9559 19.1702 48.3879 18.7158 47.6871 18.7158C46.9863 18.7158 46.4199 19.1702 46.4199 19.7302C46.4199 20.2902 46.9879 20.7446 47.6871 20.7446C48.3863 20.7446 48.9559 20.2902 48.9559 19.7302Z" fill="black"/>
<path d="M51.6437 16.9913C52.1237 16.9913 52.506 16.6505 52.506 16.2313C52.506 15.8121 52.1189 15.4697 51.6437 15.4697C51.1685 15.4697 50.7812 15.8105 50.7812 16.2313C50.7812 16.6521 51.1669 16.9913 51.6437 16.9913Z" fill="black"/>
<path d="M47.0095 14.8728C46.9471 14.6296 46.6543 14.4936 46.3551 14.572C46.0559 14.6504 45.8751 14.9096 45.9295 15.1528C45.9839 15.396 46.2864 15.532 46.584 15.4552C46.8816 15.3784 47.0735 15.1208 47.0095 14.8728Z" fill="black"/>
</g>
<g opacity="0.24">
<path d="M14.0807 17.5635C11.6951 17.5635 9.76074 19.2771 9.76074 21.3907C9.76288 22.115 9.99048 22.8208 10.4119 23.4099C9.26635 23.6163 8.40234 24.5091 8.40234 25.5811C8.40234 26.8051 9.52234 27.7971 10.9175 27.7971C12.3127 27.7971 13.4327 26.8051 13.4327 25.5811C13.432 25.4417 13.4164 25.3028 13.3863 25.1667C13.6164 25.1995 13.8484 25.216 14.0807 25.2163C16.4663 25.2163 18.4007 23.5027 18.4007 21.3907C18.4007 19.2787 16.4663 17.5635 14.0807 17.5635Z" fill="black"/>
<path d="M13.5864 17.4406C15.291 17.4406 16.6728 16.0867 16.6728 14.4166C16.6728 12.7465 15.291 11.3926 13.5864 11.3926C11.8818 11.3926 10.5 12.7465 10.5 14.4166C10.5 16.0867 11.8818 17.4406 13.5864 17.4406Z" fill="black"/>
<path d="M8.09513 12.2543C8.94698 12.2543 9.63753 11.702 9.63753 11.0207C9.63753 10.3394 8.94698 9.78711 8.09513 9.78711C7.24329 9.78711 6.55273 10.3394 6.55273 11.0207C6.55273 11.702 7.24329 12.2543 8.09513 12.2543Z" fill="black"/>
<path d="M12.907 7.68971C13.4867 7.68971 13.9566 7.27495 13.9566 6.76331C13.9566 6.25168 13.4867 5.83691 12.907 5.83691C12.3273 5.83691 11.8574 6.25168 11.8574 6.76331C11.8574 7.27495 12.3273 7.68971 12.907 7.68971Z" fill="black"/>
<path d="M7.27073 5.11238C7.19233 4.81478 6.83713 4.64998 6.47073 4.74438C6.10433 4.83878 5.87553 5.15558 5.95233 5.45318C6.02913 5.75078 6.38593 5.91398 6.75233 5.81958C7.11873 5.72518 7.34753 5.40838 7.27073 5.11238Z" fill="black"/>
</g>
<g opacity="0.24">
<path d="M51.6374 51.5508C49.2518 51.5508 47.3174 53.2644 47.3174 55.378C47.3195 56.1023 47.5471 56.8081 47.9686 57.3972C46.8214 57.6036 45.959 58.498 45.959 59.5684C45.959 60.7924 47.079 61.7844 48.4742 61.7844C49.8694 61.7844 50.9878 60.7924 50.9878 59.5684C50.9875 59.4291 50.9725 59.2902 50.943 59.154C51.1729 59.1876 51.405 59.2042 51.6374 59.2036C54.023 59.2036 55.9574 57.4916 55.9574 55.378C55.9574 53.2644 54.023 51.5508 51.6374 51.5508Z" fill="black"/>
<path d="M51.143 51.4279C52.8476 51.4279 54.2294 50.074 54.2294 48.4039C54.2294 46.7338 52.8476 45.3799 51.143 45.3799C49.4385 45.3799 48.0566 46.7338 48.0566 48.4039C48.0566 50.074 49.4385 51.4279 51.143 51.4279Z" fill="black"/>
<path d="M45.6498 46.2436C46.5017 46.2436 47.1922 45.6913 47.1922 45.01C47.1922 44.3287 46.5017 43.7764 45.6498 43.7764C44.798 43.7764 44.1074 44.3287 44.1074 45.01C44.1074 45.6913 44.798 46.2436 45.6498 46.2436Z" fill="black"/>
<path d="M50.4637 41.6813C51.0429 41.6813 51.5133 41.2669 51.5133 40.7549C51.5133 40.2429 51.0429 39.8301 50.4637 39.8301C49.8845 39.8301 49.4141 40.2445 49.4141 40.7549C49.4141 41.2653 49.8845 41.6813 50.4637 41.6813Z" fill="black"/>
<path d="M44.8258 39.1C44.749 38.804 44.3922 38.6392 44.0258 38.7336C43.6594 38.828 43.4322 39.1432 43.509 39.4408C43.5858 39.7384 43.9426 39.9016 44.309 39.8088C44.6754 39.716 44.9026 39.3976 44.8258 39.1Z" fill="black"/>
</g>
<path d="M20.3082 45.1715C19.9802 44.7907 19.7146 44.3923 19.6682 43.9875C19.537 42.8979 18.5354 41.8947 17.0522 41.7203C15.569 41.5459 15.8314 42.2003 14.785 41.7635C13.7386 41.3267 12.4314 40.3683 10.945 41.3715C9.45863 42.3747 9.72423 43.4195 10.2906 43.7715C10.857 44.1235 10.4218 44.7315 9.89863 44.6883C9.37543 44.6451 7.76263 45.2547 7.41383 46.1283C7.06503 47.0019 7.84903 49.0931 6.97703 49.5283C6.10503 49.9635 3.70823 48.8307 1.65863 50.9235C-0.390968 53.0163 1.22343 54.3235 1.30983 55.2435C1.39623 56.1635 0.220232 55.6371 0.349832 57.0307C0.479432 58.4243 2.00583 59.9523 4.09863 59.5171C6.19143 59.0819 6.49863 58.4707 6.97863 59.4723C7.45863 60.4739 9.98663 62.4803 12.1226 61.5651C14.2586 60.6499 14.913 60.2131 15.4826 60.3875C16.0522 60.5619 18.4906 59.7779 19.0138 59.0371C19.537 58.2963 18.9274 57.2051 19.3626 56.9011C19.7978 56.5971 20.8026 56.6819 20.6714 55.2883C20.5402 53.8947 21.2378 52.4547 22.0218 51.9747C22.8058 51.4947 23.5482 50.0547 22.9818 48.4003C22.4154 46.7459 22.2842 47.5283 21.5418 46.5251C21.2458 46.1155 20.7194 45.6595 20.3082 45.1715Z" fill="#263238" stroke="#263238" stroke-width="0.16" stroke-linecap="round" stroke-linejoin="round"/>
<path d="M13.9997 57.6691C13.9997 57.6691 12.3485 57.5923 11.4653 57.6691C10.5821 57.7459 4.07973 59.9731 4.07973 59.9731C4.07973 59.9731 -2.44667 64.3363 -2.02107 64.8883C-1.59547 65.4403 -1.13787 65.6179 -0.369869 65.6179C0.398131 65.6179 7.47013 64.4275 7.47013 64.4275C7.47013 64.4275 8.08453 70.2259 8.12293 70.8787C8.16133 71.5315 6.08773 77.7907 6.08773 77.7907H20.5261L21.2557 71.1859C21.8448 70.4238 22.2994 69.5667 22.5997 68.6515C23.0605 67.1923 23.7517 62.3539 23.7517 62.3539C23.7517 62.3539 32.4301 61.1251 33.1917 60.3955C33.9533 59.6659 30.5037 57.0547 29.5821 56.6707C28.6605 56.2867 25.1277 56.5939 24.7053 56.5939C24.2829 56.5939 23.7453 56.3635 21.5565 56.6707C19.3677 56.9779 16.5965 57.5155 16.5965 57.5155L13.9997 57.6691Z" fill="#031A6B" stroke="#263238" stroke-width="0.16" stroke-miterlimit="10"/>
<path d="M13.6804 55.5999C13.6804 55.5999 13.6036 57.4047 13.45 57.9039C13.2964 58.4031 16.9444 62.7423 17.45 62.6655C17.9556 62.5887 18.986 58.6335 19.0628 58.2111C19.1396 57.7887 18.9028 55.5615 18.9028 55.5615C18.9028 55.5615 18.25 57.0591 16.7524 56.7519C15.2548 56.4447 13.6804 55.5999 13.6804 55.5999Z" fill="white" stroke="#263238" stroke-width="0.16" stroke-linecap="round" stroke-linejoin="round"/>
<path d="M14.0231 55.9512L13.7559 57.8984L16.7351 57.9752L14.0231 55.9512Z" fill="#263238" stroke="#263238" stroke-width="0.16" stroke-linecap="round" stroke-linejoin="round"/>
<path d="M24.2613 60.1685L23.7461 62.3541L25.1285 59.8965" stroke="#263238" stroke-width="0.16" stroke-linecap="round" stroke-linejoin="round"/>
<path d="M24.5529 58.9365L24.4121 59.5349" stroke="#263238" stroke-width="0.16" stroke-linecap="round" stroke-linejoin="round"/>
<path d="M6.31302 62.3535L7.46502 64.4271L5.89062 62.8911" stroke="#263238" stroke-width="0.16" stroke-linecap="round" stroke-linejoin="round"/>
<path d="M12.1562 72.9334L16.9482 71.2246" stroke="#263238" stroke-width="0.16" stroke-linecap="round" stroke-linejoin="round"/>
<path d="M11.457 73.1826L11.7786 73.0674" stroke="#263238" stroke-width="0.16" stroke-linecap="round" stroke-linejoin="round"/>
<path d="M18.2297 71.3203L16.5273 72.0691" stroke="#263238" stroke-width="0.16" stroke-linecap="round" stroke-linejoin="round"/>
<path d="M19.0607 70.9551L18.6367 71.1407" stroke="#263238" stroke-width="0.16" stroke-linecap="round" stroke-linejoin="round"/>
<path d="M18.516 46.5815C18.516 46.5815 17.9544 46.7415 17.396 46.0807C16.8376 45.4199 16.6456 45.7991 16.2392 46.7063C15.8328 47.6135 15.0808 48.6775 14.0504 48.0823C13.02 47.4871 12.7048 48.7079 12.6424 49.1463C12.58 49.5847 11.4632 51.7927 11.5832 52.2359C11.7032 52.6791 11.8296 53.9607 12.1416 54.6183C12.4536 55.2759 15.9816 58.2151 17.1144 58.1511C18.2472 58.0871 18.516 57.7271 19.6424 55.7879C20.7688 53.8487 21.06 52.1079 20.492 49.6455C19.924 47.1831 18.516 46.5815 18.516 46.5815Z" fill="white" stroke="#263238" stroke-width="0.16" stroke-linecap="round" stroke-linejoin="round"/>
<path d="M16.6715 48.207C16.6715 48.207 16.7659 49.4278 16.8907 49.583C17.0155 49.7382 17.5467 50.1782 17.3595 50.4902C17.1723 50.8022 16.4219 51.0534 16.4219 51.0534" stroke="#263238" stroke-width="0.16" stroke-linecap="round" stroke-linejoin="round"/>
<path d="M17.7886 52.5839C17.7268 52.4767 17.6416 52.3848 17.5394 52.315C17.4372 52.2452 17.3206 52.1993 17.1982 52.1807C16.7556 52.1108 16.3022 52.1663 15.8894 52.3407C15.0126 52.7167 15.075 53.6863 15.107 54.5919C15.139 55.4975 16.2638 56.6255 17.171 56.3743C18.0782 56.1231 18.3902 55.0303 18.2334 53.9359C18.1725 53.4611 18.0216 53.0022 17.7886 52.5839Z" fill="#263238" stroke="#263238" stroke-width="0.16" stroke-linecap="round" stroke-linejoin="round"/>
<path d="M17.6794 55.2113C17.4906 55.6801 16.7722 55.8369 16.4282 55.7121C16.0842 55.5873 15.9594 55.0561 15.6458 54.8993C15.3322 54.7425 15.3642 55.3057 15.3642 55.3057V55.3601C15.753 56.0129 16.5194 56.5489 17.1738 56.3681C17.9162 56.1633 18.2602 55.3937 18.2746 54.5201C18.1943 54.4829 18.1071 54.4628 18.0186 54.4609C17.7642 54.4609 17.8586 54.7425 17.6794 55.2113Z" fill="white" stroke="#263238" stroke-width="0.16" stroke-linecap="round" stroke-linejoin="round"/>
<path d="M15.8895 52.8655C16.3887 52.6479 16.6703 52.5855 17.1695 52.6783C17.3993 52.7178 17.6324 52.735 17.8655 52.7295C17.8383 52.6767 17.8127 52.6271 17.7871 52.5839C17.7253 52.4767 17.6401 52.3848 17.5379 52.315C17.4357 52.2452 17.3191 52.1993 17.1967 52.1807C16.7541 52.1108 16.3007 52.1663 15.8879 52.3407C15.7238 52.4076 15.577 52.5106 15.4584 52.6423C15.3398 52.7739 15.2526 52.9306 15.2031 53.1007C15.4392 53.0455 15.6692 52.9667 15.8895 52.8655Z" fill="white" stroke="#263238" stroke-width="0.16" stroke-linecap="round" stroke-linejoin="round"/>
<path d="M14.514 50.0534C14.6695 50.0534 14.7956 49.8291 14.7956 49.5526C14.7956 49.276 14.6695 49.0518 14.514 49.0518C14.3585 49.0518 14.2324 49.276 14.2324 49.5526C14.2324 49.8291 14.3585 50.0534 14.514 50.0534Z" fill="#263238"/>
<path d="M18.016 49.3952C18.1715 49.3952 18.2976 49.1709 18.2976 48.8944C18.2976 48.6178 18.1715 48.3936 18.016 48.3936C17.8605 48.3936 17.7344 48.6178 17.7344 48.8944C17.7344 49.1709 17.8605 49.3952 18.016 49.3952Z" fill="#263238"/>
<path d="M13.7637 48.5201C13.7637 48.5201 14.4517 47.8001 15.1397 48.2689" stroke="#263238" stroke-width="0.16" stroke-linecap="round" stroke-linejoin="round"/>
<path d="M17.2012 47.7076C17.2012 47.7076 17.8268 46.9252 18.4812 47.6132" stroke="#263238" stroke-width="0.16" stroke-linecap="round" stroke-linejoin="round"/>
<path d="M9.27221 53.8401C9.27221 53.8401 8.60981 51.0929 8.51381 50.5873C8.41781 50.0817 8.57781 49.4817 8.70421 49.1025C8.89845 48.5215 9.17312 47.9706 9.52021 47.4657C9.93141 46.8977 10.1842 47.1825 10.1202 47.4033C10.0562 47.6241 9.52021 48.3185 9.45781 48.5713C9.39541 48.8241 9.42581 50.1505 9.42581 50.1505L10.1202 48.2561C10.1202 48.2561 11.005 46.6449 11.2898 46.7393C11.5746 46.8337 11.4786 47.1185 11.3842 47.2449C11.2898 47.3713 10.6258 49.0769 10.6258 49.0769L10.4994 50.3409C10.4994 50.3409 11.4466 48.4769 11.573 48.2609C11.6994 48.0449 12.4002 46.8337 12.5602 47.1201C12.7202 47.4065 12.4002 47.9409 12.4002 47.9409L11.389 50.1217L11.2946 50.8161C11.6477 50.5292 11.9753 50.2123 12.2738 49.8689C12.557 49.4897 13.0002 48.8577 13.189 48.8577C13.3778 48.8577 13.3778 49.0785 13.253 49.2993C13.1282 49.5201 12.0514 51.0689 12.021 51.1633C11.9906 51.2577 11.5778 52.2369 11.5778 52.2369C11.5778 52.2369 11.5778 54.1569 11.389 54.8273C11.2002 55.4977 10.4098 56.4065 10.4098 56.4065C10.4098 56.4065 2.41781 64.0497 2.00821 64.4929C1.59861 64.9361 0.680212 65.4401 -1.59339 65.4401C-3.86699 65.4401 -2.66699 62.4705 -1.37259 61.3649C-0.0781882 60.2593 2.16021 58.8689 2.48021 58.7425C2.80021 58.6161 8.48181 55.0145 8.79701 54.6993C9.01449 54.4498 9.17647 54.157 9.27221 53.8401Z" fill="white" stroke="#263238" stroke-width="0.16" stroke-linecap="round" stroke-linejoin="round"/>
<path d="M19.9785 46.0127C19.9785 46.0127 20.7369 46.7071 21.0217 47.2127C21.3065 47.7183 21.8105 49.5823 21.8105 49.5823L19.9785 46.0127Z" stroke="#263238" stroke-width="0.16" stroke-linecap="round" stroke-linejoin="round"/>
<path d="M21.9374 55.1108C21.9374 55.1108 20.5486 54.226 20.643 53.1204C20.699 52.4596 20.1374 50.1204 20.1374 50.1204C20.1374 50.1204 18.6222 47.466 18.779 47.1828C18.9358 46.8996 19.099 47.1188 19.259 47.2132C19.419 47.3076 20.7438 49.4884 20.7438 49.4884C20.7438 49.4884 20.2398 47.6868 19.9198 47.1828C19.5998 46.6788 18.9406 45.7284 19.3822 45.634C19.8238 45.5396 20.835 47.6244 21.0254 48.0036C21.2158 48.3828 21.9998 50.0004 22.0638 50.8468C22.1278 51.6932 22.443 53.4676 22.443 53.4676C22.443 53.4676 31.6974 55.6468 32.4878 56.4052C33.2782 57.1636 35.0478 58.7428 34.5678 59.5956C34.0878 60.4484 32.7982 61.1428 30.4622 59.9156C28.1262 58.6884 24.8398 56.8212 24.1438 56.442C23.4478 56.0628 21.9374 55.1108 21.9374 55.1108Z" fill="white" stroke="#263238" stroke-width="0.16" stroke-linecap="round" stroke-linejoin="round"/>
<path d="M97.1269 77.79H-12.2363" stroke="#263238" stroke-width="0.16" stroke-linecap="round" stroke-linejoin="round"/>
</g>
</g>
<defs>
<filter id="filter0_d_4695_7557" x="0" y="0" width="84" height="84" filterUnits="userSpaceOnUse" color-interpolation-filters="sRGB">
<feFlood flood-opacity="0" result="BackgroundImageFix"/>
<feColorMatrix in="SourceAlpha" type="matrix" values="0 0 0 0 0 0 0 0 0 0 0 0 0 0 0 0 0 0 127 0" result="hardAlpha"/>
<feMorphology radius="1" operator="dilate" in="SourceAlpha" result="effect1_dropShadow_4695_7557"/>
<feOffset/>
<feGaussianBlur stdDeviation="0.5"/>
<feComposite in2="hardAlpha" operator="out"/>
<feColorMatrix type="matrix" values="0 0 0 0 0 0 0 0 0 0 0 0 0 0 0 0 0 0 0.05 0"/>
<feBlend mode="normal" in2="BackgroundImageFix" result="effect1_dropShadow_4695_7557"/>
<feBlend mode="normal" in="SourceGraphic" in2="effect1_dropShadow_4695_7557" result="shape"/>
</filter>
<clipPath id="clip0_4695_7557">
<rect x="2" y="2" width="80" height="80" rx="8" fill="white"/>
</clipPath>
</defs>
</svg>
