<svg width="100" height="100" viewBox="0 0 100 100" fill="none" xmlns="http://www.w3.org/2000/svg">
<path d="M50.1049 18.6458C57.466 18.6458 64.4104 20.2264 70.9382 23.3875C77.466 26.5486 82.9174 31.1139 87.2924 37.0833C87.7785 37.7083 87.9354 38.2639 87.7632 38.75C87.591 39.2361 87.2952 39.6528 86.8757 40C86.4563 40.3472 85.9702 40.5042 85.4174 40.4708C84.8646 40.4375 84.3785 40.1417 83.959 39.5833C80.1396 34.1667 75.2271 30.0181 69.2215 27.1375C63.216 24.2569 56.8438 22.8153 50.1049 22.8125C43.366 22.8097 37.0465 24.2514 31.1465 27.1375C25.2465 30.0236 20.3507 34.1722 16.459 39.5833C16.0424 40.2083 15.5563 40.5556 15.0007 40.625C14.4452 40.6944 13.959 40.5556 13.5424 40.2083C13.0563 39.8611 12.7604 39.4278 12.6549 38.9083C12.5493 38.3889 12.7063 37.85 13.1257 37.2917C17.4313 31.3889 22.8313 26.8056 29.3257 23.5417C35.8202 20.2778 42.7465 18.6458 50.1049 18.6458ZM50.1049 28.4375C59.4799 28.4375 67.5354 31.5625 74.2715 37.8125C81.0077 44.0625 84.3757 51.8056 84.3757 61.0417C84.3757 64.5139 83.1438 67.4139 80.6799 69.7417C78.216 72.0695 75.2118 73.232 71.6674 73.2292C68.1229 73.2264 65.0854 72.0639 62.5549 69.7417C60.0243 67.4195 58.7563 64.5194 58.7507 61.0417C58.7507 58.75 57.9007 56.8222 56.2007 55.2583C54.5007 53.6944 52.4688 52.9139 50.1049 52.9167C47.741 52.9194 45.709 53.7014 44.009 55.2625C42.309 56.8236 41.459 58.75 41.459 61.0417C41.459 67.7778 43.4563 73.4028 47.4507 77.9167C51.4452 82.4306 56.6007 85.5903 62.9174 87.3958C63.5424 87.6042 63.959 87.9514 64.1674 88.4375C64.3757 88.9236 64.4104 89.4445 64.2715 90C64.1327 90.4861 63.8549 90.9028 63.4382 91.25C63.0215 91.5972 62.5007 91.7014 61.8757 91.5625C54.6535 89.757 48.7507 86.1625 44.1674 80.7792C39.584 75.3958 37.2924 68.8167 37.2924 61.0417C37.2924 57.5694 38.5424 54.6528 41.0424 52.2917C43.5424 49.9306 46.5632 48.75 50.1049 48.75C53.6465 48.75 56.6674 49.9306 59.1674 52.2917C61.6674 54.6528 62.9174 57.5694 62.9174 61.0417C62.9174 63.3333 63.7854 65.2611 65.5215 66.825C67.2577 68.3889 69.3063 69.1695 71.6674 69.1667C74.0285 69.1639 76.0424 68.3833 77.709 66.825C79.3757 65.2667 80.209 63.3389 80.209 61.0417C80.209 52.9861 77.2577 46.2153 71.3549 40.7292C65.4521 35.2431 58.4035 32.5 50.209 32.5C42.0146 32.5 34.966 35.2431 29.0632 40.7292C23.1604 46.2153 20.209 52.9514 20.209 60.9375C20.209 62.6042 20.366 64.6875 20.6799 67.1875C20.9938 69.6875 21.7396 72.6042 22.9174 75.9375C23.1257 76.5625 23.109 77.1181 22.8674 77.6042C22.6257 78.0903 22.2257 78.4375 21.6674 78.6458C21.109 78.8542 20.5715 78.8375 20.0549 78.5958C19.5382 78.3542 19.1729 77.9542 18.959 77.3958C17.9174 74.6875 17.1715 71.9972 16.7215 69.325C16.2715 66.6528 16.0452 63.8917 16.0424 61.0417C16.0424 51.8056 19.3938 44.0625 26.0965 37.8125C32.7993 31.5625 40.8021 28.4375 50.1049 28.4375ZM50.1049 8.4375C54.5493 8.4375 58.8896 8.975 63.1257 10.05C67.3618 11.125 71.459 12.6708 75.4174 14.6875C76.0424 15.0347 76.4077 15.4514 76.5132 15.9375C76.6188 16.4236 76.566 16.9097 76.3549 17.3958C76.1438 17.8819 75.7965 18.2639 75.3132 18.5417C74.8299 18.8194 74.2396 18.7847 73.5424 18.4375C69.8618 16.5625 66.059 15.1222 62.134 14.1167C58.209 13.1111 54.1993 12.6069 50.1049 12.6042C46.0771 12.6042 42.1188 13.0736 38.2299 14.0125C34.341 14.9514 30.6257 16.4264 27.084 18.4375C26.5285 18.7847 25.9729 18.8722 25.4174 18.7C24.8618 18.5278 24.4452 18.1625 24.1674 17.6042C23.8896 17.0458 23.8202 16.5431 23.959 16.0958C24.0979 15.6486 24.4452 15.2486 25.0007 14.8958C28.8896 12.8125 32.9521 11.2153 37.1882 10.1042C41.4243 8.99305 45.7299 8.4375 50.1049 8.4375ZM50.1049 38.5417C56.5632 38.5417 62.1188 40.7125 66.7715 45.0542C71.4243 49.3958 73.7507 54.725 73.7507 61.0417C73.7507 61.6667 73.5604 62.1708 73.1799 62.5542C72.7993 62.9375 72.2952 63.1278 71.6674 63.125C71.1118 63.125 70.6257 62.9347 70.209 62.5542C69.7924 62.1736 69.584 61.6694 69.584 61.0417C69.584 55.8333 67.6563 51.4764 63.8007 47.9708C59.9452 44.4653 55.3799 42.7111 50.1049 42.7083C44.8299 42.7056 40.2993 44.4597 36.5132 47.9708C32.7271 51.4819 30.834 55.8389 30.834 61.0417C30.834 66.6667 31.8063 71.4417 33.7507 75.3667C35.6952 79.2917 38.5424 83.2319 42.2924 87.1875C42.709 87.6042 42.9174 88.0903 42.9174 88.6458C42.9174 89.2014 42.709 89.6875 42.2924 90.1042C41.8757 90.5208 41.3896 90.7292 40.834 90.7292C40.2785 90.7292 39.7924 90.5208 39.3757 90.1042C35.2785 85.7986 32.1368 81.407 29.9507 76.9292C27.7646 72.4514 26.6702 67.1556 26.6674 61.0417C26.6674 54.7222 28.959 49.3917 33.5424 45.05C38.1257 40.7083 43.6465 38.5389 50.1049 38.5417ZM50.0007 58.9583C50.6257 58.9583 51.1299 59.1667 51.5132 59.5833C51.8965 60 52.0868 60.4861 52.084 61.0417C52.084 66.25 53.959 70.5208 57.709 73.8542C61.459 77.1875 65.834 78.8542 70.834 78.8542C71.2507 78.8542 71.841 78.8195 72.6049 78.75C73.3688 78.6806 74.1674 78.5764 75.0007 78.4375C75.6257 78.2986 76.1646 78.3861 76.6174 78.7C77.0702 79.0139 77.3646 79.482 77.5007 80.1042C77.6396 80.6597 77.5354 81.1458 77.1882 81.5625C76.841 81.9792 76.3896 82.257 75.834 82.3958C74.584 82.7431 73.491 82.9347 72.5549 82.9708C71.6188 83.007 71.0452 83.0236 70.834 83.0208C64.6535 83.0208 59.2882 80.9375 54.7382 76.7708C50.1882 72.6042 47.9146 67.3611 47.9174 61.0417C47.9174 60.4861 48.109 60 48.4924 59.5833C48.8757 59.1667 49.3785 58.9583 50.0007 58.9583Z" fill="#AFAFAF"/>
</svg>
