<svg width="24" height="24" viewBox="0 0 24 24" fill="none" xmlns="http://www.w3.org/2000/svg">
<g clip-path="url(#clip0_4695_12253)">
<path opacity="0.985" fill-rule="evenodd" clip-rule="evenodd" d="M23.9766 4.14844C23.9766 4.38281 23.9766 4.61719 23.9766 4.85156C23.7887 5.48447 23.3668 5.86725 22.7109 6C15.5547 6.03127 8.39845 6.03127 1.24219 6C0.608156 5.87363 0.18628 5.50645 -0.0234375 4.89844C-0.0234375 4.63281 -0.0234375 4.36719 -0.0234375 4.10156C0.174823 3.53628 0.565448 3.1691 1.14844 3C8.36719 2.96875 15.5859 2.96875 22.8047 3C23.407 3.17264 23.7976 3.55545 23.9766 4.14844Z" fill="#031A6B"/>
<path opacity="0.972" fill-rule="evenodd" clip-rule="evenodd" d="M-0.0234375 12.3516C-0.0234375 12.1016 -0.0234375 11.8516 -0.0234375 11.6016C0.194701 10.921 0.66345 10.5382 1.38281 10.4531C5.91408 10.4219 10.4453 10.4219 14.9766 10.4531C15.8678 10.572 16.3366 11.0798 16.3828 11.9766C16.3368 12.8727 15.868 13.3805 14.9766 13.5C10.4453 13.5313 5.91408 13.5313 1.38281 13.5C0.66345 13.4149 0.194701 13.0322 -0.0234375 12.3516Z" fill="#031A6B"/>
<path opacity="0.98" fill-rule="evenodd" clip-rule="evenodd" d="M-0.0234375 19.8516C-0.0234375 19.5859 -0.0234375 19.3203 -0.0234375 19.0547C0.180765 18.4678 0.587016 18.1007 1.19531 17.9531C3.32031 17.9219 5.44533 17.9219 7.57031 17.9531C8.57789 18.2724 8.96067 18.952 8.71875 19.9922C8.51147 20.4964 8.1443 20.8167 7.61719 20.9531C5.46094 20.9844 3.30469 20.9844 1.14844 20.9531C0.565448 20.7841 0.174823 20.4168 -0.0234375 19.8516Z" fill="#031A6B"/>
</g>
<defs>
<clipPath id="clip0_4695_12253">
<rect width="24" height="24" fill="white"/>
</clipPath>
</defs>
</svg>
