<svg width="16" height="16" viewBox="0 0 16 16" fill="none" xmlns="http://www.w3.org/2000/svg">
<g clip-path="url(#clip0_4695_9360)">
<path opacity="0.978" fill-rule="evenodd" clip-rule="evenodd" d="M6.07798 -0.015625C6.50507 -0.015625 6.93213 -0.015625 7.35923 -0.015625C9.78367 0.3137 11.5389 1.57412 12.6249 3.76562C13.4919 5.84822 13.3669 7.86906 12.2499 9.82812C12.0797 10.092 11.8974 10.3472 11.703 10.5938C12.9999 11.9531 14.2967 13.3125 15.5936 14.6719C15.8542 15.2706 15.6928 15.7081 15.1092 15.9844C14.953 15.9844 14.7967 15.9844 14.6405 15.9844C14.5448 15.9469 14.451 15.9 14.3592 15.8438C13.0415 14.4844 11.7238 13.125 10.4061 11.7656C8.82726 12.8313 7.10329 13.1595 5.23423 12.75C2.79534 12.0923 1.2068 10.5559 0.468603 8.14062C-0.125414 5.56247 0.536044 3.36975 2.45298 1.5625C3.49982 0.669984 4.70817 0.143944 6.07798 -0.015625ZM6.60923 1.67188C8.79598 1.75665 10.322 2.79832 11.1874 4.79688C11.7685 6.58887 11.456 8.20347 10.2499 9.64062C8.7542 11.1408 6.99898 11.5522 4.98423 10.875C3.43588 10.2119 2.46194 9.06087 2.06235 7.42188C1.7371 5.44309 2.35689 3.83372 3.92173 2.59375C4.73095 2.02716 5.62676 1.71987 6.60923 1.67188Z" fill="#0F0F0F"/>
</g>
<defs>
<clipPath id="clip0_4695_9360">
<rect width="16" height="16" fill="white"/>
</clipPath>
</defs>
</svg>
