<svg width="60" height="60" viewBox="0 0 60 60" fill="none" xmlns="http://www.w3.org/2000/svg">
<path opacity="0.987" fill-rule="evenodd" clip-rule="evenodd" d="M48.4571 10.3711C49.3785 10.3405 50.238 10.5554 51.0352 11.0156C52.0703 11.8945 53.0274 12.8516 53.9063 13.8867C54.5595 15.1968 54.5985 16.5248 54.0235 17.8711C44.0071 28.0047 33.9486 38.1022 23.8477 48.1641C22.9102 48.711 21.9727 48.711 21.0352 48.1641C15.9343 43.1023 10.8757 38.0046 5.85941 32.8711C5.28437 31.5249 5.32343 30.1968 5.9766 28.8867C6.85551 27.8516 7.81254 26.8945 8.84769 26.0156C10.3567 25.1399 11.8411 25.1789 13.3008 26.1328C16.3087 29.1407 19.3164 32.1484 22.3243 35.1563C22.4024 35.2344 22.4805 35.2344 22.5586 35.1563C30.5664 27.1485 38.5743 19.1406 46.5821 11.1328C47.1757 10.7729 47.8008 10.519 48.4571 10.3711Z" fill="black"/>
</svg>
