<svg width="24" height="24" viewBox="0 0 24 24" fill="none" xmlns="http://www.w3.org/2000/svg">
<path opacity="0.979" fill-rule="evenodd" clip-rule="evenodd" d="M2.88184 1.05469C6.69437 1.04687 10.5069 1.05469 14.3193 1.07813C15.0559 1.20528 15.5012 1.63497 15.6553 2.36719C15.6943 3.88306 15.6865 5.39869 15.6318 6.91406C12.1475 8.84377 8.66307 10.7734 5.17871 12.7031C4.61928 13.1472 4.47084 13.7018 4.7334 14.3672C5.51654 15.785 6.30559 17.1991 7.10059 18.6094C5.24129 18.6328 3.3819 18.6406 1.52246 18.6328C1.51465 13.2109 1.52246 7.78903 1.5459 2.36719C1.70771 1.63501 2.15302 1.19752 2.88184 1.05469ZM4.42871 2.55469C4.53919 2.54703 4.64856 2.55485 4.75684 2.57813C4.81313 2.62043 4.85223 2.67512 4.87402 2.74219C4.93824 3.03476 4.96168 3.33164 4.94434 3.63281C5.21893 3.64242 5.48457 3.69711 5.74121 3.79688C5.97873 4.11671 5.90841 4.32765 5.53027 4.42969C5.0731 4.29572 4.61217 4.27229 4.14746 4.35938C3.79215 4.63372 3.77653 4.93059 4.10059 5.25C4.56088 5.45672 5.01399 5.67549 5.45996 5.90625C5.94971 6.35452 6.08251 6.89358 5.8584 7.52344C5.67418 7.90866 5.36949 8.12738 4.94434 8.17969C4.95976 8.49567 4.93632 8.80819 4.87402 9.11719C4.64869 9.37139 4.44557 9.35578 4.26465 9.07031C4.24124 8.77383 4.23342 8.47697 4.24121 8.17969C3.88858 8.16581 3.56046 8.07206 3.25684 7.89844C3.1132 7.68999 3.14444 7.51031 3.35059 7.35938C3.75398 7.413 4.16023 7.4677 4.56934 7.52344C5.18959 7.52011 5.40052 7.22325 5.20215 6.63281C5.13184 6.5625 5.06152 6.49219 4.99121 6.42188C4.52431 6.22988 4.07119 6.01116 3.63184 5.76563C3.15436 5.31642 3.0528 4.79302 3.32715 4.19531C3.54187 3.86372 3.84656 3.67622 4.24121 3.63281C4.23342 3.33553 4.24124 3.03865 4.26465 2.74219C4.29698 2.65546 4.35167 2.59296 4.42871 2.55469ZM8.74121 3.91406C10.4288 3.90625 12.1163 3.91406 13.8037 3.9375C14.1258 4.17586 14.1102 4.39461 13.7568 4.59375C12.1006 4.625 10.4443 4.625 8.78809 4.59375C8.42973 4.38722 8.41412 4.16066 8.74121 3.91406ZM8.74121 6.35156C10.4288 6.34374 12.1163 6.35156 13.8037 6.375C14.1268 6.61125 14.1112 6.83002 13.7568 7.03125C12.1006 7.06252 10.4443 7.06252 8.78809 7.03125C8.42902 6.82261 8.41337 6.59606 8.74121 6.35156Z" fill="#0F0F0F"/>
<path opacity="0.956" fill-rule="evenodd" clip-rule="evenodd" d="M18.1176 6.30444C18.2945 6.29333 18.4664 6.31677 18.6332 6.37475C18.9027 6.65656 19.0746 6.97686 19.1489 7.33569C14.7033 9.81631 10.2501 12.2851 5.78948 14.7419C5.61829 14.5251 5.46984 14.2907 5.34416 14.0388C5.2896 13.7938 5.32865 13.5673 5.46135 13.3591C9.68793 11.014 13.9067 8.66239 18.1176 6.30444Z" fill="#0F0F0F"/>
<path opacity="0.944" fill-rule="evenodd" clip-rule="evenodd" d="M19.5234 7.89844C19.743 8.21972 19.9462 8.55563 20.1328 8.90625C15.6668 11.4166 11.1903 13.9088 6.70312 16.3828C6.48478 16.0715 6.28945 15.7434 6.11719 15.3984C10.5872 12.8979 15.056 10.3979 19.5234 7.89844Z" fill="#0F0F0F"/>
<path opacity="0.982" fill-rule="evenodd" clip-rule="evenodd" d="M20.4141 9.53906C21.2762 10.9343 22.0809 12.3719 22.8281 13.8516C22.8587 13.9966 22.843 14.1372 22.7813 14.2734C22.6598 14.4263 22.5113 14.5435 22.3359 14.625C18.2422 16.8906 14.1484 19.1563 10.0547 21.4219C9.63445 21.5282 9.34542 21.3797 9.1875 20.9766C8.47284 19.6565 7.74628 18.344 7.00781 17.0391C11.4795 14.5378 15.9482 12.0378 20.4141 9.53906ZM20.3203 13.1016C20.7189 13.0699 20.8673 13.2418 20.7656 13.6172C20.5462 13.8675 20.343 13.8519 20.1563 13.5703C20.1179 13.3814 20.1726 13.2251 20.3203 13.1016ZM18.6797 14.0391C19.0476 14.072 19.1648 14.2595 19.0313 14.6016C18.7355 14.8253 18.5246 14.7627 18.3984 14.4141C18.4254 14.2336 18.5191 14.1086 18.6797 14.0391ZM16.8047 15.0703C17.048 15.0714 17.2042 15.1886 17.2734 15.4219C17.1222 15.8154 16.8956 15.87 16.5938 15.5859C16.5184 15.3487 16.5887 15.1768 16.8047 15.0703Z" fill="#0F0F0F"/>
<path opacity="0.97" fill-rule="evenodd" clip-rule="evenodd" d="M15.2101 19.3356C15.3545 19.3243 15.4951 19.3399 15.632 19.3824C15.6867 19.9912 15.6945 20.6006 15.6554 21.2106C15.5014 21.9428 15.056 22.3725 14.3195 22.4996C10.507 22.5309 6.69448 22.5309 2.882 22.4996C2.22157 22.4017 1.79188 22.0344 1.59294 21.3981C1.52589 20.729 1.50245 20.0571 1.52262 19.3824C3.52269 19.3746 5.5227 19.3824 7.52262 19.4059C7.95823 20.1599 8.38794 20.9177 8.81169 21.6793C9.2187 22.138 9.71089 22.2709 10.2882 22.0778C11.9469 21.1861 13.5875 20.2721 15.2101 19.3356Z" fill="black"/>
</svg>
