<svg width="24" height="24" viewBox="0 0 24 24" fill="none" xmlns="http://www.w3.org/2000/svg">
<g clip-path="url(#clip0_4695_13912)">
<path opacity="0.986" fill-rule="evenodd" clip-rule="evenodd" d="M11.6953 -0.0234375C11.8828 -0.0234375 12.0703 -0.0234375 12.2578 -0.0234375C15.9255 1.62266 19.5974 3.2711 23.2734 4.92188C23.6145 5.06747 23.8488 5.30963 23.9766 5.64844C23.9766 5.8672 23.9766 6.08592 23.9766 6.30469C23.8148 6.73945 23.5023 6.99727 23.0391 7.07812C15.6484 7.10939 8.25783 7.10939 0.867188 7.07812C0.429536 6.97603 0.132661 6.71822 -0.0234375 6.30469C-0.0234375 6.08592 -0.0234375 5.8672 -0.0234375 5.64844C0.122976 5.27555 0.388601 5.01773 0.773438 4.875C4.41829 3.23985 8.05889 1.60704 11.6953 -0.0234375Z" fill="#0F0F0F"/>
<path opacity="0.981" fill-rule="evenodd" clip-rule="evenodd" d="M2.22654 8.03907C8.71095 8.03124 15.1953 8.03907 21.6797 8.06251C22.0324 8.21733 22.1495 8.47515 22.0312 8.83594C21.8466 9.1036 21.5888 9.21301 21.2578 9.16407C21.2578 12.4141 21.2578 15.6641 21.2578 18.9141C22.2126 18.9077 22.6579 19.3765 22.5937 20.3203C22.4717 20.7705 22.1827 21.0439 21.7265 21.1406C15.2265 21.1719 8.72656 21.1719 2.22654 21.1406C1.53653 20.9344 1.24747 20.4734 1.35936 19.7578C1.57639 19.1291 2.0217 18.8479 2.69529 18.9141C2.69529 15.6641 2.69529 12.4141 2.69529 9.16407C2.06202 9.21094 1.80421 8.92969 1.92186 8.32032C2.01157 8.20988 2.11314 8.11613 2.22654 8.03907ZM4.89842 9.16407C5.97654 9.16407 7.05467 9.16407 8.13279 9.16407C8.13279 12.4141 8.13279 15.6641 8.13279 18.9141C7.05467 18.9141 5.97654 18.9141 4.89842 18.9141C4.89842 15.6641 4.89842 12.4141 4.89842 9.16407ZM10.3359 9.16407C11.414 9.16407 12.4922 9.16407 13.5703 9.16407C13.5703 12.4141 13.5703 15.6641 13.5703 18.9141C12.4922 18.9141 11.414 18.9141 10.3359 18.9141C10.3359 15.6641 10.3359 12.4141 10.3359 9.16407ZM15.8203 9.16407C16.8984 9.16407 17.9765 9.16407 19.0547 9.16407C19.0547 12.4141 19.0547 15.6641 19.0547 18.9141C17.9765 18.9141 16.8984 18.9141 15.8203 18.9141C15.8203 15.6641 15.8203 12.4141 15.8203 9.16407Z" fill="black"/>
<path opacity="0.987" fill-rule="evenodd" clip-rule="evenodd" d="M23.9766 22.6172C23.9766 22.8047 23.9766 22.9922 23.9766 23.1797C23.8203 23.5547 23.5547 23.8203 23.1797 23.9766C15.711 23.9766 8.24217 23.9766 0.773438 23.9766C0.382813 23.8359 0.117188 23.5703 -0.0234375 23.1797C-0.0234375 22.9766 -0.0234375 22.7734 -0.0234375 22.5703C0.129041 22.1758 0.410291 21.918 0.820312 21.7969C8.25783 21.7656 15.6953 21.7656 23.1328 21.7969C23.5649 21.9243 23.8461 22.1978 23.9766 22.6172Z" fill="black"/>
</g>
<defs>
<clipPath id="clip0_4695_13912">
<rect width="24" height="24" fill="white"/>
</clipPath>
</defs>
</svg>
