<svg width="24" height="24" viewBox="0 0 24 24" fill="none" xmlns="http://www.w3.org/2000/svg">
<g clip-path="url(#clip0_4985_1366)">
<path opacity="0.974" fill-rule="evenodd" clip-rule="evenodd" d="M7.33594 -0.0234375C7.53905 -0.0234375 7.7422 -0.0234375 7.94531 -0.0234375C8.16286 0.0596395 8.36597 0.176827 8.55469 0.328125C9.8309 1.57301 11.0731 2.84645 12.2812 4.14844C12.4704 4.64325 12.4235 5.112 12.1406 5.55469C10.914 6.78127 9.68751 8.0078 8.46094 9.23437C7.91348 9.57806 7.36659 9.57806 6.82031 9.23437C5.59373 8.0078 4.36719 6.78127 3.14062 5.55469C2.79688 5.0078 2.79688 4.46094 3.14062 3.91406C4.35156 2.70313 5.56251 1.49219 6.77344 0.28125C6.94439 0.141222 7.13189 0.039659 7.33594 -0.0234375ZM6.67969 2.88281C6.7807 2.87681 6.87445 2.90025 6.96094 2.95312C7.85156 3.84375 8.74219 4.73437 9.63281 5.625C9.45314 5.80467 9.27342 5.98439 9.09375 6.16406C8.31248 5.3828 7.53126 4.60156 6.75 3.82031C6.70312 3.86719 6.65625 3.91406 6.60937 3.96094C6.58594 4.30433 6.57815 4.64808 6.58594 4.99219C6.3203 4.99219 6.0547 4.99219 5.78906 4.99219C5.78128 4.57002 5.78906 4.14815 5.8125 3.72656C6.06675 3.40187 6.35583 3.12062 6.67969 2.88281Z" fill="#0F0F0F"/>
<path opacity="0.979" fill-rule="evenodd" clip-rule="evenodd" d="M17.4141 -0.0234375C19.3047 -0.0234375 21.1953 -0.0234375 23.0859 -0.0234375C23.5234 0.132812 23.8203 0.429688 23.9766 0.867188C23.9766 2.75781 23.9766 4.64844 23.9766 6.53906C23.8289 6.97575 23.532 7.26483 23.0859 7.40625C21.2109 7.43752 19.3359 7.43752 17.4609 7.40625C16.9895 7.29417 16.6848 7.00514 16.5469 6.53906C16.5156 4.64844 16.5156 2.75781 16.5469 0.867188C16.6883 0.421119 16.9774 0.124244 17.4141 -0.0234375ZM18.6328 1.66406C19.6329 1.65625 20.6329 1.66406 21.6328 1.6875C21.7344 1.72656 21.8047 1.79687 21.8438 1.89844C21.875 2.55469 21.875 3.21094 21.8438 3.86719C21.7891 3.92188 21.7344 3.97656 21.6797 4.03125C20.9185 4.10017 20.1529 4.1236 19.3828 4.10156C19.3828 4.38281 19.3828 4.66406 19.3828 4.94531C20.211 4.94531 21.0391 4.94531 21.8672 4.94531C21.8672 5.21095 21.8672 5.47655 21.8672 5.74219C20.8671 5.75002 19.8671 5.74219 18.8672 5.71875C18.7656 5.6797 18.6953 5.60939 18.6563 5.50781C18.625 4.85156 18.625 4.19531 18.6563 3.53906C18.711 3.48437 18.7656 3.42969 18.8203 3.375C19.5815 3.30608 20.3471 3.28265 21.1172 3.30469C21.1172 3.00781 21.1172 2.71094 21.1172 2.41406C20.2891 2.41406 19.461 2.41406 18.6328 2.41406C18.6328 2.16406 18.6328 1.91406 18.6328 1.66406Z" fill="black"/>
<path opacity="0.979" fill-rule="evenodd" clip-rule="evenodd" d="M-0.0234375 14.7891C-0.0234375 12.8985 -0.0234375 11.0078 -0.0234375 9.1172C0.163402 8.67282 0.491527 8.38375 0.960938 8.25001C2.22656 8.21875 3.49219 8.21875 4.75781 8.25001C5.28905 8.78125 5.82033 9.31253 6.35156 9.84376C6.66445 10.0601 7.00819 10.2086 7.38281 10.2891C7.43752 11.7888 7.4453 13.2888 7.40625 14.7891C7.27659 15.2155 7.00317 15.5046 6.58594 15.6563C4.72875 15.7333 2.86937 15.7489 1.00781 15.7031C0.492183 15.5856 0.148432 15.2809 -0.0234375 14.7891ZM2.46094 9.91407C3.13518 9.89481 3.80706 9.91825 4.47656 9.98439C5.23931 10.3305 5.48152 10.9008 5.20312 11.6953C4.98436 11.8828 4.98436 12.0703 5.20312 12.2578C5.48911 13.1782 5.16881 13.7641 4.24219 14.0156C3.64864 14.0391 3.0549 14.0469 2.46094 14.0391C2.46094 13.7734 2.46094 13.5078 2.46094 13.2422C3.0549 13.25 3.64864 13.2422 4.24219 13.2188C4.44008 13.1528 4.54946 13.0121 4.57031 12.7969C4.52752 12.5822 4.40252 12.4416 4.19531 12.375C3.83594 12.3594 3.47656 12.3437 3.11719 12.3281C2.81384 12.0913 2.81384 11.8569 3.11719 11.625C3.52697 11.6208 3.93322 11.5896 4.33594 11.5313C4.62697 11.2987 4.64259 11.0487 4.38281 10.7813C3.74562 10.7135 3.105 10.69 2.46094 10.7109C2.46094 10.4453 2.46094 10.1797 2.46094 9.91407Z" fill="black"/>
<path opacity="0.975" fill-rule="evenodd" clip-rule="evenodd" d="M10.5244 8.22657C11.9151 8.21874 13.3057 8.22657 14.6963 8.25001C15.251 8.36719 15.5869 8.70315 15.7041 9.25782C15.7354 11.0703 15.7354 12.8828 15.7041 14.6953C15.5869 15.25 15.251 15.5859 14.6963 15.7031C12.8838 15.7344 11.0713 15.7344 9.25879 15.7031C8.70412 15.5859 8.36816 15.25 8.25097 14.6953C8.21193 13.1951 8.21971 11.6951 8.27441 10.1953C8.49913 10.0907 8.7179 9.97355 8.93066 9.84376C9.47137 9.31088 10.0026 8.77182 10.5244 8.22657ZM10.7588 9.86719C10.9786 9.8971 11.1973 9.93615 11.415 9.98438C11.4627 10.0087 11.4939 10.0478 11.5088 10.1016C11.3968 10.5988 11.3031 11.0988 11.2275 11.6016C11.6181 11.6016 12.0088 11.6016 12.3994 11.6016C12.3994 11.0391 12.3994 10.4766 12.3994 9.91407C12.6651 9.91407 12.9306 9.91407 13.1963 9.91407C13.1963 10.4766 13.1963 11.0391 13.1963 11.6016C13.4775 11.6016 13.7588 11.6016 14.04 11.6016C14.04 11.8516 14.04 12.1016 14.04 12.3516C13.7588 12.3516 13.4775 12.3516 13.1963 12.3516C13.1963 12.9141 13.1963 13.4766 13.1963 14.0391C12.9306 14.0391 12.6651 14.0391 12.3994 14.0391C12.3994 13.4766 12.3994 12.9141 12.3994 12.3516C11.7898 12.3594 11.1805 12.3516 10.5713 12.3281C10.4455 12.2416 10.3674 12.1245 10.3369 11.9766C10.4837 11.2741 10.6243 10.5709 10.7588 9.86719Z" fill="black"/>
<path opacity="0.976" fill-rule="evenodd" clip-rule="evenodd" d="M23.9766 9.16407C23.9766 11.0391 23.9766 12.9141 23.9766 14.7891C23.8047 15.2809 23.4609 15.5856 22.9453 15.7031C21.1485 15.7344 19.3516 15.7344 17.5547 15.7031C17.0411 15.5958 16.7051 15.2912 16.5469 14.7891C16.5156 12.9141 16.5156 11.0391 16.5469 9.16407C16.7051 8.662 17.0411 8.35731 17.5547 8.25001C19.3672 8.21875 21.1797 8.21875 22.9922 8.25001C23.4818 8.38829 23.8099 8.69298 23.9766 9.16407ZM18.9609 9.91407C19.9297 9.91407 20.8984 9.91407 21.8672 9.91407C21.8672 10.1797 21.8672 10.4453 21.8672 10.7109C21.0391 10.7109 20.211 10.7109 19.3828 10.7109C19.3828 11.0078 19.3828 11.3047 19.3828 11.6016C20.1685 11.5795 20.9498 11.6029 21.7266 11.6719C21.7829 11.7142 21.822 11.7689 21.8438 11.8359C21.875 12.4922 21.875 13.1484 21.8438 13.8047C21.767 13.913 21.6654 13.9833 21.5391 14.0156C20.5704 14.0391 19.6017 14.0469 18.6328 14.0391C18.6328 13.7734 18.6328 13.5078 18.6328 13.2422C19.461 13.2422 20.2891 13.2422 21.1172 13.2422C21.1172 12.9453 21.1172 12.6484 21.1172 12.3516C20.3671 12.3594 19.6171 12.3516 18.8672 12.3281C18.8001 12.3063 18.7455 12.2672 18.7031 12.2109C18.6266 11.5434 18.611 10.8716 18.6563 10.1953C18.7236 10.0574 18.8252 9.96367 18.9609 9.91407Z" fill="black"/>
<path opacity="0.981" fill-rule="evenodd" clip-rule="evenodd" d="M6.53906 23.9766C4.64844 23.9766 2.75781 23.9766 0.867188 23.9766C0.429688 23.8203 0.132812 23.5234 -0.0234375 23.0859C-0.0234375 21.1953 -0.0234375 19.3047 -0.0234375 17.4141C0.124244 16.9774 0.421119 16.6883 0.867188 16.5469C2.75781 16.5156 4.64844 16.5156 6.53906 16.5469C6.98438 16.6797 7.27345 16.9688 7.40625 17.4141C7.43752 19.3047 7.43752 21.1953 7.40625 23.0859C7.26483 23.532 6.97575 23.8289 6.53906 23.9766ZM2.32031 18.2109C3.24232 18.2031 4.1642 18.2109 5.08594 18.2344C5.18752 18.2734 5.25783 18.3437 5.29688 18.4453C5.32031 18.7574 5.32809 19.0699 5.32031 19.3828C5.07033 19.3828 4.8203 19.3828 4.57031 19.3828C4.57031 19.2578 4.57031 19.1328 4.57031 19.0078C3.99219 19.0078 3.41406 19.0078 2.83594 19.0078C2.83594 19.2891 2.83594 19.5703 2.83594 19.8516C3.57048 19.8437 4.30485 19.8516 5.03906 19.875C5.13863 19.9276 5.22455 19.9979 5.29688 20.0859C5.32814 20.7422 5.32814 21.3984 5.29688 22.0547C5.27508 22.1218 5.23598 22.1764 5.17969 22.2188C4.69191 22.2724 4.19972 22.2958 3.70312 22.2891C3.20653 22.2958 2.71434 22.2724 2.22656 22.2188C2.17025 22.1764 2.13118 22.1218 2.10938 22.0547C2.07812 20.8516 2.07812 19.6485 2.10938 18.4453C2.15742 18.3428 2.22773 18.2647 2.32031 18.2109Z" fill="black"/>
<path opacity="0.981" fill-rule="evenodd" clip-rule="evenodd" d="M14.7891 23.9766C12.9141 23.9766 11.0391 23.9766 9.16407 23.9766C8.69298 23.8099 8.38829 23.4818 8.25001 22.9922C8.21875 21.1641 8.21875 19.3359 8.25001 17.5078C8.37821 17.0202 8.6829 16.6999 9.16407 16.5469C11.0391 16.5156 12.9141 16.5156 14.7891 16.5469C15.2912 16.7051 15.5958 17.0411 15.7031 17.5547C15.7344 19.3672 15.7344 21.1797 15.7031 22.9922C15.5649 23.4818 15.2602 23.8099 14.7891 23.9766ZM10.6172 18.2109C11.5236 18.2031 12.4299 18.2109 13.3359 18.2344C13.4531 18.2891 13.5391 18.375 13.5938 18.4922C13.3527 19.7597 13.0871 21.0253 12.7969 22.2891C12.7824 22.3269 12.759 22.3582 12.7266 22.3828C12.5104 22.3193 12.2917 22.2646 12.0703 22.2188C12.0489 22.1994 12.0332 22.1759 12.0234 22.1484C12.2653 21.103 12.4997 20.0562 12.7266 19.0078C12.2419 19 11.7576 19.0078 11.2734 19.0313C11.3559 19.2396 11.4341 19.4506 11.5078 19.6641C11.2671 19.7625 11.025 19.8563 10.7813 19.9453C10.6281 19.4936 10.4797 19.0405 10.3359 18.5859C10.3782 18.4192 10.4719 18.2942 10.6172 18.2109Z" fill="black"/>
<path opacity="0.985" fill-rule="evenodd" clip-rule="evenodd" d="M23.9766 17.4141C23.9766 19.3047 23.9766 21.1953 23.9766 23.0859C23.8203 23.5234 23.5234 23.8203 23.0859 23.9766C21.1953 23.9766 19.3047 23.9766 17.4141 23.9766C16.9774 23.8289 16.6883 23.532 16.5469 23.0859C16.5156 21.1953 16.5156 19.3047 16.5469 17.4141C16.6797 16.9688 16.9688 16.6797 17.4141 16.5469C19.3047 16.5156 21.1953 16.5156 23.0859 16.5469C23.532 16.6883 23.8289 16.9774 23.9766 17.4141ZM19.5703 18.2109C20.074 18.1908 20.574 18.2143 21.0703 18.2813C21.9224 18.7519 22.0943 19.4081 21.5859 20.25C22.0605 21.0158 21.9355 21.6564 21.2109 22.1719C21.1172 22.2032 21.0234 22.2344 20.9297 22.2656C20.4766 22.2969 20.0235 22.2969 19.5703 22.2656C18.867 22.0234 18.5623 21.5312 18.6563 20.7891C18.7157 20.5843 18.8172 20.4046 18.9609 20.25C18.476 19.5855 18.5385 18.9761 19.1484 18.4219C19.2934 18.3494 19.434 18.2791 19.5703 18.2109Z" fill="black"/>
<path opacity="0.935" fill-rule="evenodd" clip-rule="evenodd" d="M19.6163 19.0078C20.0384 19 20.4603 19.0078 20.8819 19.0312C21.2039 19.32 21.1883 19.5856 20.835 19.8281C20.4444 19.8594 20.0538 19.8594 19.6632 19.8281C19.4163 19.6769 19.346 19.466 19.4522 19.1953C19.5167 19.1388 19.5714 19.0763 19.6163 19.0078Z" fill="black"/>
<path opacity="0.888" fill-rule="evenodd" clip-rule="evenodd" d="M2.83594 20.6484C3.41406 20.6484 3.99219 20.6484 4.57031 20.6484C4.58483 20.9418 4.56921 21.2308 4.52344 21.5156C3.96115 21.5391 3.39865 21.5469 2.83594 21.5391C2.83594 21.2422 2.83594 20.9453 2.83594 20.6484Z" fill="black"/>
<path opacity="0.906" fill-rule="evenodd" clip-rule="evenodd" d="M19.6643 20.6484C20.0553 20.6406 20.4459 20.6484 20.8362 20.6719C21.1895 20.9143 21.2051 21.18 20.8831 21.4687C20.4612 21.5625 20.0393 21.5625 19.6175 21.4687C19.3106 21.178 19.3262 20.9045 19.6643 20.6484Z" fill="black"/>
</g>
<defs>
<clipPath id="clip0_4985_1366">
<rect width="24" height="24" fill="white"/>
</clipPath>
</defs>
</svg>
