<svg width="100" height="100" viewBox="0 0 100 100" fill="none" xmlns="http://www.w3.org/2000/svg">
<path fill-rule="evenodd" clip-rule="evenodd" d="M22.9172 16.6672C21.2596 16.6672 19.6699 17.3257 18.4978 18.4978C17.3257 19.6699 16.6672 21.2596 16.6672 22.9172V31.25C16.6672 31.8026 16.4477 32.3326 16.0569 32.7233C15.6662 33.1141 15.1362 33.3336 14.5836 33.3336C14.031 33.3336 13.501 33.1141 13.1103 32.7233C12.7195 32.3326 12.5 31.8026 12.5 31.25V22.9172C12.5 20.1544 13.5975 17.5047 15.5511 15.5511C17.5047 13.5975 20.1544 12.5 22.9172 12.5H31.25C31.8026 12.5 32.3326 12.7195 32.7233 13.1103C33.1141 13.501 33.3336 14.031 33.3336 14.5836C33.3336 15.1362 33.1141 15.6662 32.7233 16.0569C32.3326 16.4477 31.8026 16.6672 31.25 16.6672H22.9172ZM22.9172 83.3328C21.2596 83.3328 19.6699 82.6743 18.4978 81.5022C17.3257 80.3301 16.6672 78.7404 16.6672 77.0828V68.75C16.6672 68.1974 16.4477 67.6674 16.0569 67.2767C15.6662 66.8859 15.1362 66.6664 14.5836 66.6664C14.031 66.6664 13.501 66.8859 13.1103 67.2767C12.7195 67.6674 12.5 68.1974 12.5 68.75V77.0828C12.5 78.4508 12.7694 79.8054 13.293 81.0693C13.8165 82.3332 14.5838 83.4816 15.5511 84.4489C16.5184 85.4162 17.6668 86.1835 18.9307 86.707C20.1946 87.2306 21.5492 87.5 22.9172 87.5H31.25C31.8026 87.5 32.3326 87.2805 32.7233 86.8897C33.1141 86.499 33.3336 85.969 33.3336 85.4164C33.3336 84.8638 33.1141 84.3338 32.7233 83.9431C32.3326 83.5523 31.8026 83.3328 31.25 83.3328H22.9172ZM77.0828 16.6672C78.7404 16.6672 80.3301 17.3257 81.5022 18.4978C82.6743 19.6699 83.3328 21.2596 83.3328 22.9172V31.25C83.3328 31.8026 83.5523 32.3326 83.9431 32.7233C84.3338 33.1141 84.8638 33.3336 85.4164 33.3336C85.969 33.3336 86.499 33.1141 86.8897 32.7233C87.2805 32.3326 87.5 31.8026 87.5 31.25V22.9172C87.5 21.5492 87.2306 20.1946 86.707 18.9307C86.1835 17.6668 85.4162 16.5184 84.4489 15.5511C83.4816 14.5838 82.3332 13.8165 81.0693 13.293C79.8054 12.7694 78.4508 12.5 77.0828 12.5H68.75C68.1974 12.5 67.6674 12.7195 67.2767 13.1103C66.8859 13.501 66.6664 14.031 66.6664 14.5836C66.6664 15.1362 66.8859 15.6662 67.2767 16.0569C67.6674 16.4477 68.1974 16.6672 68.75 16.6672H77.0828ZM77.0828 83.3328C78.7404 83.3328 80.3301 82.6743 81.5022 81.5022C82.6743 80.3301 83.3328 78.7404 83.3328 77.0828V68.75C83.3328 68.1974 83.5523 67.6674 83.9431 67.2767C84.3338 66.8859 84.8638 66.6664 85.4164 66.6664C85.969 66.6664 86.499 66.8859 86.8897 67.2767C87.2805 67.6674 87.5 68.1974 87.5 68.75V77.0828C87.5 78.4508 87.2306 79.8054 86.707 81.0693C86.1835 82.3332 85.4162 83.4816 84.4489 84.4489C83.4816 85.4162 82.3332 86.1835 81.0693 86.707C79.8054 87.2306 78.4508 87.5 77.0828 87.5H68.75C68.1974 87.5 67.6674 87.2805 67.2767 86.8897C66.8859 86.499 66.6664 85.969 66.6664 85.4164C66.6664 84.8638 66.8859 84.3338 67.2767 83.9431C67.6674 83.5523 68.1974 83.3328 68.75 83.3328H77.0828ZM34.375 30.4172C35.525 30.4172 36.4578 31.35 36.4578 32.5V35.9719C36.4578 36.5243 36.2384 37.054 35.8478 37.4446C35.4572 37.8352 34.9274 38.0547 34.375 38.0547C33.8226 38.0547 33.2928 37.8352 32.9022 37.4446C32.5116 37.054 32.2922 36.5243 32.2922 35.9719V32.5C32.2922 31.35 33.225 30.4172 34.375 30.4172ZM65.625 30.4172C66.775 30.4172 67.7078 31.35 67.7078 32.5V35.9719C67.7078 36.5243 67.4884 37.054 67.0978 37.4446C66.7072 37.8352 66.1774 38.0547 65.625 38.0547C65.0726 38.0547 64.5428 37.8352 64.1522 37.4446C63.7616 37.054 63.5422 36.5243 63.5422 35.9719V32.5C63.5422 31.35 64.475 30.4172 65.625 30.4172ZM51.7359 37.3609C52.8859 37.3609 53.8187 38.2937 53.8187 39.4437V49.1672C53.8187 49.9879 53.6571 50.8007 53.343 51.559C53.0289 52.3172 52.5685 53.0062 51.9882 53.5866C51.4078 54.167 50.7188 54.6273 49.9605 54.9414C49.2022 55.2555 48.3895 55.4172 47.5687 55.4172H46.5281C45.9755 55.4172 45.4456 55.1977 45.0548 54.8069C44.6641 54.4162 44.4445 53.8862 44.4445 53.3336C44.4445 52.781 44.6641 52.251 45.0548 51.8603C45.4456 51.4695 45.9755 51.25 46.5281 51.25H47.5687C48.7203 51.25 49.6531 50.3172 49.6531 49.1672V39.4437C49.6531 38.2937 50.5859 37.3609 51.7359 37.3609ZM33.2234 58.5406C33.4515 58.3894 33.7071 58.2846 33.9756 58.2323C34.2442 58.1799 34.5204 58.1809 34.7886 58.2353C35.0567 58.2898 35.3115 58.3965 35.5384 58.5494C35.7653 58.7023 35.9599 58.8984 36.1109 59.1266C38.3328 62.4781 43.5406 65.1391 50 65.1391C56.4594 65.1391 61.6672 62.4781 63.8891 59.1266C64.1965 58.6714 64.6713 58.3562 65.2101 58.2494C65.7488 58.1427 66.308 58.253 66.7658 58.5565C67.2236 58.86 67.5429 59.332 67.6544 59.8698C67.7659 60.4076 67.6604 60.9677 67.3609 61.4281C64.1484 66.275 57.4078 69.3047 50 69.3047C42.5938 69.3047 35.8516 66.2734 32.6391 61.4297C32.4875 61.2017 32.3825 60.946 32.3298 60.6774C32.2772 60.4087 32.278 60.1323 32.3323 59.864C32.3866 59.5957 32.4932 59.3407 32.6461 59.1136C32.799 58.8865 32.9952 58.6918 33.2234 58.5406Z" fill="#AFAFAF"/>
</svg>
