<svg width="24" height="24" viewBox="0 0 24 24" fill="none" xmlns="http://www.w3.org/2000/svg">
<g clip-path="url(#clip0_5912_2388)">
<path opacity="0.993" fill-rule="evenodd" clip-rule="evenodd" d="M23.9766 5.22656C23.9766 9.72656 23.9766 14.2266 23.9766 18.7266C23.6869 19.9303 22.9369 20.6725 21.7266 20.9531C15.2265 20.9844 8.72658 20.9844 2.22656 20.9531C1.01373 20.67 0.26373 19.9278 -0.0234375 18.7266C-0.0234375 14.2266 -0.0234375 9.72656 -0.0234375 5.22656C0.26373 4.02536 1.01373 3.28318 2.22656 3C8.72658 2.96875 15.2265 2.96875 21.7266 3C22.9369 3.28066 23.6869 4.02285 23.9766 5.22656ZM7.10156 7.00781C8.78592 6.98138 9.73903 7.80169 9.96094 9.46875C9.85027 10.7508 9.17841 11.5633 7.94531 11.9063C6.47194 12.0413 5.511 11.4084 5.0625 10.0078C4.89816 8.43056 5.57784 7.43058 7.10156 7.00781ZM14.6953 7.47656C16.5391 7.46874 18.3829 7.47656 20.2266 7.5C20.7817 7.58658 21.0082 7.90688 20.9062 8.46094C20.7843 8.76811 20.5578 8.93217 20.2266 8.95313C18.3984 8.98439 16.5703 8.98439 14.7422 8.95313C14.0987 8.83003 13.8878 8.46286 14.1094 7.85156C14.1953 7.76564 14.2813 7.67967 14.3672 7.59375C14.4846 7.56103 14.5939 7.52199 14.6953 7.47656ZM14.5078 11.5078C16.4766 11.5 18.4454 11.5078 20.4141 11.5313C20.9012 11.7326 21.0496 12.0842 20.8594 12.5859C20.7334 12.7591 20.5694 12.8763 20.3672 12.9375C18.4453 12.9688 16.5234 12.9688 14.6016 12.9375C14.0608 12.7388 13.8968 12.3716 14.1094 11.8359C14.2238 11.6975 14.3566 11.5881 14.5078 11.5078ZM5.32031 13.0078C6.75787 13 8.19539 13.0078 9.63281 13.0313C10.8697 13.2837 11.6275 14.0259 11.9062 15.2578C12.0103 15.7018 11.9947 16.1393 11.8594 16.5703C11.7598 16.749 11.6114 16.8662 11.4141 16.9219C8.73947 16.9682 6.06759 16.9525 3.39844 16.875C3.07616 16.6598 2.93554 16.3552 2.97656 15.9609C3.03415 14.3888 3.8154 13.4044 5.32031 13.0078ZM14.6016 15.4922C16.5235 15.4844 18.4454 15.4922 20.3672 15.5156C20.8448 15.6664 21.0245 15.9867 20.9062 16.4766C20.8159 16.7076 20.6519 16.856 20.4141 16.9219C18.4453 16.9531 16.4766 16.9531 14.5078 16.9219C13.9936 16.6606 13.8765 16.2778 14.1562 15.7734C14.2895 15.6486 14.4379 15.5549 14.6016 15.4922Z" fill="#0F0F0F"/>
</g>
<defs>
<clipPath id="clip0_5912_2388">
<rect width="24" height="24" fill="white"/>
</clipPath>
</defs>
</svg>
