<svg width="40" height="40" viewBox="0 0 40 40" fill="none" xmlns="http://www.w3.org/2000/svg">
<circle cx="20" cy="20" r="20" fill="#2D4084"/>
<g clip-path="url(#clip0_4436_7978)">
<path opacity="0.989" fill-rule="evenodd" clip-rule="evenodd" d="M25.2733 7.97656C25.7265 7.97656 26.1796 7.97656 26.6327 7.97656C28.713 8.34554 30.0958 9.53304 30.7812 11.5391C31.3356 13.9236 30.6247 15.822 28.6483 17.2344C26.5971 18.362 24.6283 18.237 22.7421 16.8594C20.9722 15.1937 20.5113 13.2171 21.3593 10.9297C22.1651 9.28101 23.4698 8.29664 25.2733 7.97656Z" fill="#B00020"/>
<path opacity="0.993" fill-rule="evenodd" clip-rule="evenodd" d="M18.5224 9.9446C18.9028 9.92403 19.2778 9.95529 19.6474 10.0383C18.5953 12.4835 18.8063 14.8116 20.2802 17.0227C21.7195 18.8988 23.6258 19.8988 25.9989 20.0227C26.143 22.1078 27.018 23.8109 28.6239 25.1321C29.0724 25.8269 29.088 26.5301 28.6708 27.2415C28.3555 27.6217 27.957 27.8639 27.4755 27.968C21.8036 27.9993 16.1318 27.9993 10.4599 27.968C9.31926 27.686 8.82707 26.9594 8.98331 25.7883C9.05915 25.4803 9.20758 25.2146 9.42863 24.9915C11.0427 23.6382 11.8786 21.9039 11.9364 19.7883C11.9397 18.4589 11.9709 17.1308 12.0302 15.804C12.623 12.9611 14.3027 11.0939 17.0693 10.2024C17.5551 10.0851 18.0394 9.99912 18.5224 9.9446Z" fill="#FEFEFE"/>
<path opacity="0.983" fill-rule="evenodd" clip-rule="evenodd" d="M19.5547 31.9766C19.1641 31.9766 18.7734 31.9766 18.3828 31.9766C16.7402 31.6232 15.6933 30.631 15.2422 29C17.7109 28.9766 20.1796 28.9687 22.6484 28.9766C22.247 30.628 21.2158 31.6281 19.5547 31.9766Z" fill="#FEFEFE"/>
</g>
<defs>
<clipPath id="clip0_4436_7978">
<rect width="24" height="24" fill="white" transform="translate(8 8)"/>
</clipPath>
</defs>
</svg>
