<svg width="24" height="24" viewBox="0 0 24 24" fill="none" xmlns="http://www.w3.org/2000/svg">
<path opacity="0.993" fill-rule="evenodd" clip-rule="evenodd" d="M11.7422 1.38324C12.0819 1.36837 12.41 1.42306 12.7266 1.54731C15.1733 3.05041 17.8295 3.95666 20.6953 4.26606C21.2195 4.52489 21.5555 4.93895 21.7031 5.50824C21.7478 7.85298 21.7321 10.1967 21.6563 12.5395C21.1845 15.6335 19.6923 18.0944 17.1797 19.9223C15.6363 20.8581 14.0582 21.7331 12.4453 22.5473C12.0293 22.6526 11.623 22.6213 11.2266 22.4536C10.0391 21.7973 8.85155 21.1411 7.66406 20.4848C4.51262 18.5834 2.70793 15.7943 2.25 12.1176C2.21875 9.89888 2.21875 7.6801 2.25 5.46137C2.4142 4.84304 2.79701 4.42898 3.39844 4.21918C6.14691 3.93847 8.69377 3.07909 11.0391 1.64106C11.2703 1.53029 11.5047 1.44434 11.7422 1.38324ZM14.9766 8.50824C15.6813 8.45556 16.0875 8.7759 16.1953 9.46918C16.188 9.66306 16.1333 9.84273 16.0313 10.0082C14.875 11.2583 13.7188 12.5082 12.5625 13.7582C12.3657 13.9708 12.1547 14.1661 11.9297 14.3442C11.5935 14.506 11.2654 14.4904 10.9453 14.2973C10.0773 13.5385 9.22575 12.7651 8.39063 11.977C8.11805 11.3273 8.29772 10.8507 8.92969 10.5473C9.2716 10.4766 9.58406 10.5391 9.86719 10.7348C10.3672 11.1879 10.8672 11.641 11.3672 12.0942C11.3985 12.1254 11.4297 12.1254 11.4609 12.0942C12.4906 10.9551 13.5375 9.83007 14.6016 8.71918C14.7234 8.63504 14.8484 8.56473 14.9766 8.50824Z" fill="#FEFEFE"/>
</svg>
