<svg width="20" height="20" viewBox="0 0 20 20" fill="none" xmlns="http://www.w3.org/2000/svg">
<g clip-path="url(#clip0_4436_4698)">
<path opacity="0.982" fill-rule="evenodd" clip-rule="evenodd" d="M19.9817 4.1607C19.9817 4.52527 19.9817 4.88988 19.9817 5.25445C19.598 7.23312 18.4132 8.41148 16.427 8.78961C14.4044 8.94738 12.9526 8.12055 12.0715 6.30914C11.4284 4.46121 11.8125 2.86615 13.2239 1.52398C14.3402 0.646108 15.5902 0.385692 16.9739 0.742733C18.6516 1.29383 19.6542 2.43316 19.9817 4.1607ZM17.4426 2.98883C18.0392 2.95876 18.267 3.23219 18.1262 3.80914C17.2994 4.68805 16.4465 5.5409 15.5676 6.36773C15.3308 6.46258 15.1095 6.43652 14.9035 6.28961C14.4662 5.86527 14.043 5.4291 13.634 4.98101C13.4924 4.39828 13.7203 4.13133 14.3176 4.18023C14.6535 4.43789 14.966 4.72437 15.2551 5.03961C15.2812 5.06566 15.3072 5.06566 15.3332 5.03961C16.0204 4.33285 16.7235 3.64924 17.4426 2.98883Z" fill="#CC9933"/>
<path opacity="0.992" fill-rule="evenodd" clip-rule="evenodd" d="M-0.0195312 17.9888C-0.0195312 14.2127 -0.0195312 10.4367 -0.0195312 6.66065C0.181705 5.95815 0.637434 5.50893 1.34766 5.31299C4.45961 5.29346 7.5716 5.28694 10.6836 5.29346C11.1052 7.79186 12.5505 9.32178 15.0195 9.88331C16.3746 10.0978 17.6246 9.83092 18.7695 9.08252C18.8151 12.0512 18.8216 15.0199 18.7891 17.9888C18.6003 18.6984 18.1511 19.1476 17.4414 19.3364C12.0768 19.3625 6.71223 19.3625 1.34766 19.3364C0.637434 19.1405 0.181705 18.6913 -0.0195312 17.9888ZM4.86328 8.84815C6.01289 8.74276 6.85273 9.1985 7.38281 10.2153C7.75156 11.1971 7.57578 12.063 6.85547 12.813C7.68602 13.4128 8.12223 14.2266 8.16406 15.2544C8.19012 15.645 8.19012 16.0357 8.16406 16.4263C8.13133 16.668 8.00766 16.8437 7.79297 16.9536C6.16688 17.0176 4.53926 17.0307 2.91016 16.9927C2.6685 16.9599 2.49271 16.8363 2.38281 16.6216C2.30985 16.0234 2.30985 15.4244 2.38281 14.8247C2.53403 13.9818 2.95721 13.3112 3.65234 12.813C3.02706 12.1866 2.81221 11.438 3.00781 10.5669C3.30996 9.64604 3.92844 9.07315 4.86328 8.84815ZM10.9961 11.1919C11.5489 11.1392 11.7898 11.3866 11.7188 11.9341C11.4896 12.3148 11.1836 12.3864 10.8008 12.1489C10.5432 11.7589 10.6083 11.4399 10.9961 11.1919ZM13.3398 11.1919C13.8927 11.1392 14.1336 11.3866 14.0625 11.9341C13.8334 12.3148 13.5274 12.3864 13.1445 12.1489C12.887 11.7589 12.9521 11.4399 13.3398 11.1919ZM15.6836 11.1919C16.2364 11.1392 16.4773 11.3866 16.4062 11.9341C16.1771 12.3148 15.8711 12.3864 15.4883 12.1489C15.2307 11.7589 15.2958 11.4399 15.6836 11.1919ZM11.1914 13.4966C12.7539 13.4901 14.3164 13.4966 15.8789 13.5161C16.3004 13.5969 16.4762 13.8508 16.4062 14.2778C16.2964 14.4925 16.1206 14.6162 15.8789 14.6489C14.3164 14.675 12.7539 14.675 11.1914 14.6489C10.6434 14.5098 10.5067 14.1908 10.7812 13.6919C10.9042 13.588 11.0409 13.5229 11.1914 13.4966ZM11.1914 15.8403C12.7539 15.8338 14.3164 15.8403 15.8789 15.8599C16.3004 15.9406 16.4762 16.1945 16.4062 16.6216C16.2964 16.8363 16.1206 16.9599 15.8789 16.9927C14.3164 17.0187 12.7539 17.0187 11.1914 16.9927C10.6434 16.8535 10.5067 16.5345 10.7812 16.0357C10.9042 15.9318 11.0409 15.8667 11.1914 15.8403Z" fill="#CC9933"/>
<path opacity="0.964" fill-rule="evenodd" clip-rule="evenodd" d="M4.94016 9.98043C6.00051 9.91445 6.48879 10.4093 6.405 11.4648C6.15074 12.1423 5.66246 12.4223 4.94016 12.3047C4.26266 12.0504 3.9827 11.5621 4.10032 10.8398C4.23117 10.403 4.51114 10.1165 4.94016 9.98043Z" fill="#CC9933"/>
<path opacity="0.982" fill-rule="evenodd" clip-rule="evenodd" d="M4.8618 13.4962C5.94126 13.3875 6.65087 13.8433 6.99071 14.8633C7.01024 15.1886 7.01673 15.5141 7.01024 15.8399C5.83837 15.8399 4.66649 15.8399 3.49462 15.8399C3.32803 14.8984 3.64053 14.1758 4.43212 13.6719C4.58083 13.6162 4.72407 13.5576 4.8618 13.4962Z" fill="#CC9933"/>
</g>
<defs>
<clipPath id="clip0_4436_4698">
<rect width="20" height="20" fill="white"/>
</clipPath>
</defs>
</svg>
