<svg width="24" height="24" viewBox="0 0 24 24" fill="none" xmlns="http://www.w3.org/2000/svg">
<g clip-path="url(#clip0_4139_8723)">
<path d="M10.8877 0.046875C6.20018 0.501562 2.18299 3.65625 0.659552 8.07656C-0.643573 11.8594 0.0173645 16.0078 2.45018 19.2609C2.88611 19.8422 4.16111 21.1172 4.74705 21.5578C6.4158 22.8047 8.24862 23.5641 10.358 23.8922C11.1127 24.0047 12.8846 24.0047 13.6392 23.8922C15.0033 23.6812 16.0767 23.3484 17.2721 22.7625C19.6064 21.6141 21.4439 19.8234 22.6392 17.5219C23.6002 15.6656 24.0596 13.6359 23.9799 11.5781C23.8627 8.48906 22.6486 5.69062 20.4783 3.52031C18.6267 1.67344 16.3252 0.520311 13.6861 0.117188C13.1002 0.0281239 11.4924 -0.00937653 10.8877 0.046875ZM12.983 5.01562C14.5205 5.25469 15.7205 6.04219 16.2783 7.18594C16.5689 7.76719 16.658 8.21719 16.6252 8.85469C16.5971 9.39844 16.5033 9.73125 16.2596 10.1672C15.983 10.6547 15.7346 10.9266 14.6658 11.9109C14.0752 12.4547 13.5174 12.9891 13.4283 13.0969C13.2174 13.3594 13.0674 13.7016 12.9361 14.25C12.8752 14.4937 12.7908 14.7703 12.7439 14.8641C12.4299 15.4969 11.4642 15.6047 10.9627 15.0609C10.7049 14.7844 10.6627 14.6437 10.6674 14.0625C10.6674 13.4391 10.7471 13.0781 10.9955 12.5812C11.2346 12.0984 11.558 11.7328 12.5471 10.8281C13.8642 9.62812 14.0658 9.34219 14.0705 8.70469C14.0705 8.17969 13.9346 7.84219 13.5689 7.48125C13.1939 7.10625 12.7346 6.9375 12.0689 6.9375C10.9205 6.9375 10.3299 7.43906 9.82362 8.84531C9.59393 9.49219 9.39236 9.76406 9.02674 9.91406C8.7783 10.0219 8.34705 10.0125 8.08924 9.89531C7.82205 9.77812 7.52674 9.47344 7.42361 9.21094C7.3158 8.92031 7.3533 8.38594 7.51736 7.89844C7.92986 6.69375 8.94705 5.71875 10.3017 5.24531C10.9814 5.00156 12.2189 4.89844 12.983 5.01562ZM12.3924 16.3594C12.8846 16.5469 13.2127 16.9922 13.2549 17.5359C13.2971 18.1359 13.058 18.5906 12.5564 18.8672C12.3267 18.9937 12.2611 19.0078 11.8814 19.0078C11.5158 19.0078 11.4267 18.9891 11.2252 18.8812C10.7517 18.6328 10.4986 18.225 10.4939 17.7094C10.4892 17.325 10.5267 17.1797 10.6955 16.9125C11.0471 16.3547 11.7549 16.125 12.3924 16.3594Z" fill="#031A6B"/>
</g>
<defs>
<clipPath id="clip0_4139_8723">
<rect width="24" height="24" fill="white"/>
</clipPath>
</defs>
</svg>
