<svg width="24" height="24" viewBox="0 0 24 24" fill="none" xmlns="http://www.w3.org/2000/svg">
<g clip-path="url(#clip0_3577_8668)">
<path opacity="0.989" fill-rule="evenodd" clip-rule="evenodd" d="M4.19531 -0.0234375C4.52344 -0.0234375 4.85156 -0.0234375 5.17969 -0.0234375C5.6047 0.0953194 5.99531 0.290632 6.35156 0.5625C7.61212 1.79176 8.8387 3.04958 10.0312 4.33594C10.6103 5.44008 10.4618 6.43228 9.58594 7.3125C9.19533 7.542 8.78906 7.74511 8.36719 7.92188C7.36852 8.67994 7.1107 9.64087 7.59375 10.8047C8.74219 13.3281 10.5781 15.1641 13.1016 16.3125C14.3197 16.768 15.3118 16.479 16.0781 15.4453C16.4764 14.0625 17.3905 13.4452 18.8203 13.5938C19.2472 13.6822 19.6222 13.8697 19.9453 14.1562C21.1732 15.3685 22.3841 16.5951 23.5781 17.8359C23.7824 18.176 23.9152 18.5354 23.9766 18.9141C23.9766 19.086 23.9766 19.2578 23.9766 19.4297C23.9051 19.9322 23.7098 20.3853 23.3906 20.7891C22.5547 21.625 21.7187 22.461 20.8828 23.2969C20.3867 23.6545 19.8398 23.8811 19.2422 23.9766C18.7734 23.9766 18.3047 23.9766 17.8359 23.9766C16.4807 23.741 15.1838 23.3113 13.9453 22.6875C10.9627 21.0971 8.31427 19.058 6 16.5703C4.09559 14.5587 2.50184 12.3243 1.21875 9.86719C0.590119 8.58328 0.176058 7.23956 -0.0234375 5.83594C-0.0234375 5.50781 -0.0234375 5.17969 -0.0234375 4.85156C0.0396469 4.18621 0.266209 3.57683 0.65625 3.02344C1.50781 2.17187 2.35937 1.32031 3.21094 0.46875C3.51773 0.25285 3.84586 0.0887878 4.19531 -0.0234375Z" fill="#0F0F0F"/>
</g>
<defs>
<clipPath id="clip0_3577_8668">
<rect width="24" height="24" fill="white"/>
</clipPath>
</defs>
</svg>
