<svg width="24" height="24" viewBox="0 0 24 24" fill="none" xmlns="http://www.w3.org/2000/svg">
<g clip-path="url(#clip0_4139_9130)">
<path opacity="0.988" fill-rule="evenodd" clip-rule="evenodd" d="M11.0396 -0.0234375C11.6646 -0.0234375 12.2896 -0.0234375 12.9146 -0.0234375C16.699 0.565359 19.2537 2.65911 20.5786 6.25781C21.0371 7.89787 21.0996 9.55416 20.7661 11.2266C20.2736 13.2581 19.4611 15.1487 18.3286 16.8984C16.635 19.5325 14.6115 21.8919 12.2583 23.9766C12.0708 23.9766 11.8833 23.9766 11.6958 23.9766C9.34266 21.8919 7.3192 19.5325 5.62552 16.8984C4.49306 15.1487 3.68056 13.2581 3.18802 11.2266C2.46829 7.63031 3.44485 4.59127 6.1177 2.10938C7.55081 0.920691 9.19144 0.209753 11.0396 -0.0234375ZM11.4146 4.00781C13.5533 3.89342 15.186 4.73719 16.313 6.53906C17.301 8.52455 17.1292 10.3995 15.7974 12.1641C14.1754 13.8957 12.2457 14.3566 10.0083 13.5469C8.30053 12.745 7.30838 11.409 7.03177 9.53906C6.91514 7.06036 7.98549 5.31816 10.2427 4.3125C10.6335 4.1875 11.0242 4.08593 11.4146 4.00781Z" fill="#0F0F0F"/>
</g>
<defs>
<clipPath id="clip0_4139_9130">
<rect width="24" height="24" fill="white"/>
</clipPath>
</defs>
</svg>
