<svg width="262" height="70" viewBox="0 0 262 70" fill="none" xmlns="http://www.w3.org/2000/svg">
<path d="M81.3345 56.4606C77.8035 56.4606 74.6948 55.7697 72.0082 54.3881C69.36 53.0064 67.3067 51.1258 65.8482 48.7462C64.3898 46.3283 63.6606 43.5842 63.6606 40.5138C63.6606 37.405 64.3706 34.6609 65.7907 32.2813C67.2491 29.8634 69.2256 27.9828 71.7203 26.6395C74.215 25.2578 77.0359 24.567 80.1831 24.567C83.2151 24.567 85.94 25.2195 88.3579 26.5244C90.8142 27.7909 92.7524 29.6331 94.1725 32.051C95.5925 34.4306 96.3025 37.2899 96.3025 40.6289C96.3025 40.9743 96.2834 41.3773 96.245 41.8379C96.2066 42.2601 96.1682 42.663 96.1298 43.0468H70.9719V37.808H91.4091L87.955 39.3624C87.955 37.7504 87.6287 36.3496 86.9763 35.1598C86.3238 33.97 85.4219 33.0489 84.2705 32.3965C83.1191 31.7056 81.7758 31.3602 80.2406 31.3602C78.7054 31.3602 77.343 31.7056 76.1532 32.3965C75.0018 33.0489 74.0999 33.9892 73.4474 35.2174C72.795 36.4071 72.4687 37.8272 72.4687 39.4775V40.8592C72.4687 42.5479 72.8333 44.0447 73.5626 45.3496C74.3302 46.6162 75.3856 47.5948 76.7289 48.2857C78.1106 48.9381 79.7225 49.2644 81.5647 49.2644C83.2151 49.2644 84.6543 49.0149 85.8824 48.516C87.149 48.017 88.3004 47.2686 89.3366 46.2707L94.1149 51.452C92.6949 53.064 90.9102 54.3113 88.7609 55.194C86.6117 56.0384 84.1362 56.4606 81.3345 56.4606ZM114.947 56.4606C111.301 56.4606 108.461 55.5394 106.427 53.6972C104.393 51.8166 103.376 49.0341 103.376 45.3496V18.1768H112.356V45.2345C112.356 46.5394 112.702 47.5565 113.393 48.2857C114.083 48.9765 115.024 49.3219 116.214 49.3219C117.634 49.3219 118.843 48.9381 119.84 48.1705L122.258 54.5032C121.337 55.1556 120.224 55.6546 118.919 56C117.653 56.307 116.329 56.4606 114.947 56.4606ZM98.5972 32.6267V25.7184H120.071V32.6267H98.5972ZM141.312 56.4606C137.973 56.4606 134.999 55.7889 132.389 54.4456C129.779 53.064 127.726 51.1642 126.229 48.7462C124.77 46.3283 124.041 43.5842 124.041 40.5138C124.041 37.405 124.77 34.6609 126.229 32.2813C127.726 29.8634 129.779 27.9828 132.389 26.6395C134.999 25.2578 137.973 24.567 141.312 24.567C144.574 24.567 147.414 25.2578 149.832 26.6395C152.25 27.9828 154.035 29.921 155.186 32.454L148.22 36.1961C147.414 34.7376 146.397 33.663 145.169 32.9722C143.979 32.2813 142.675 31.9359 141.255 31.9359C139.719 31.9359 138.338 32.2813 137.109 32.9722C135.881 33.663 134.903 34.6417 134.173 35.9082C133.483 37.1747 133.137 38.7099 133.137 40.5138C133.137 42.3176 133.483 43.8528 134.173 45.1193C134.903 46.3859 135.881 47.3646 137.109 48.0554C138.338 48.7462 139.719 49.0916 141.255 49.0916C142.675 49.0916 143.979 48.7654 145.169 48.113C146.397 47.4221 147.414 46.3283 148.22 44.8315L155.186 48.6311C154.035 51.1258 152.25 53.064 149.832 54.4456C147.414 55.7889 144.574 56.4606 141.312 56.4606ZM174.702 56.4606C171.401 56.4606 168.465 55.7697 165.893 54.3881C163.36 53.0064 161.345 51.1258 159.849 48.7462C158.39 46.3283 157.661 43.5842 157.661 40.5138C157.661 37.405 158.39 34.6609 159.849 32.2813C161.345 29.8634 163.36 27.9828 165.893 26.6395C168.465 25.2578 171.401 24.567 174.702 24.567C177.964 24.567 180.881 25.2578 183.452 26.6395C186.024 27.9828 188.038 29.8442 189.497 32.2238C190.955 34.6033 191.685 37.3666 191.685 40.5138C191.685 43.5842 190.955 46.3283 189.497 48.7462C188.038 51.1258 186.024 53.0064 183.452 54.3881C180.881 55.7697 177.964 56.4606 174.702 56.4606ZM174.702 49.0916C176.198 49.0916 177.542 48.7462 178.731 48.0554C179.921 47.3646 180.861 46.3859 181.552 45.1193C182.243 43.8144 182.589 42.2792 182.589 40.5138C182.589 38.7099 182.243 37.1747 181.552 35.9082C180.861 34.6417 179.921 33.663 178.731 32.9722C177.542 32.2813 176.198 31.9359 174.702 31.9359C173.205 31.9359 171.861 32.2813 170.672 32.9722C169.482 33.663 168.522 34.6417 167.793 35.9082C167.102 37.1747 166.757 38.7099 166.757 40.5138C166.757 42.2792 167.102 43.8144 167.793 45.1193C168.522 46.3859 169.482 47.3646 170.672 48.0554C171.861 48.7462 173.205 49.0916 174.702 49.0916ZM205.249 56L192.239 25.0276H201.507L212.33 51.6823H207.725L218.951 25.0276H227.586L214.518 56H205.249ZM249.237 56V49.9552L248.661 48.6311V37.808C248.661 35.889 248.066 34.3922 246.877 33.3176C245.725 32.2429 243.941 31.7056 241.523 31.7056C239.872 31.7056 238.241 31.9743 236.629 32.5116C235.056 33.0105 233.712 33.7014 232.599 34.5841L229.376 28.309C231.064 27.1193 233.098 26.1981 235.478 25.5457C237.857 24.8932 240.275 24.567 242.732 24.567C247.452 24.567 251.118 25.68 253.727 27.906C256.337 30.1321 257.642 33.6054 257.642 38.3261V56H249.237ZM239.796 56.4606C237.378 56.4606 235.305 56.0576 233.578 55.2516C231.851 54.4072 230.527 53.275 229.606 51.855C228.685 50.4349 228.224 48.8422 228.224 47.0767C228.224 45.2345 228.666 43.6225 229.548 42.2409C230.469 40.8592 231.909 39.7846 233.866 39.017C235.823 38.211 238.376 37.808 241.523 37.808H249.755V43.0468H242.501C240.391 43.0468 238.932 43.3923 238.126 44.0831C237.359 44.7739 236.975 45.6375 236.975 46.6737C236.975 47.8251 237.416 48.7462 238.299 49.4371C239.22 50.0895 240.467 50.4157 242.041 50.4157C243.538 50.4157 244.881 50.0703 246.071 49.3795C247.261 48.6503 248.124 47.5948 248.661 46.2132L250.043 50.3582C249.391 52.3539 248.201 53.8699 246.474 54.9062C244.747 55.9424 242.521 56.4606 239.796 56.4606Z" fill="#CC9933"/>
<path fill-rule="evenodd" clip-rule="evenodd" d="M28.895 3.60558C39.5405 3.60558 48.84 9.33197 53.8522 17.8558L48.0528 21.3733C44.2339 14.7905 37.0848 10.3601 28.8941 10.3601C16.6867 10.3601 6.79104 20.2011 6.79104 32.3403C6.79104 44.4785 16.6867 54.3205 28.8941 54.3205C38.8934 54.3205 47.3414 47.7157 50.0688 38.6542L57.745 33.8926C56.9347 49.0395 44.328 61.075 28.8941 61.075C12.936 61.075 0 48.2101 0 32.3413C0 16.4725 12.936 3.6075 28.8941 3.6075L28.895 3.60558ZM50.9395 30.7486C50.977 31.2737 50.9981 31.8046 50.9981 32.3393C50.9981 32.6657 50.9894 32.9902 50.975 33.3137C51.0182 32.4248 51.0019 31.5675 50.9395 30.7496V30.7486Z" fill="#031A6B"/>
<path d="M64.1729 25.2901C66.1131 24.1189 66.764 21.5921 65.6254 19.6539C64.4868 17.7156 62.0062 17.0657 60.0824 18.2408L37.1748 32.0667L31.5041 22.2939C30.3703 20.3393 27.8849 19.7057 25.9611 20.8808C24.0372 22.0558 23.3691 24.5787 24.5086 26.516L32.2308 39.8245C33.3646 41.779 35.851 42.4126 37.7739 41.2376L64.1739 25.2901H64.1729Z" fill="#031A6B"/>
</svg>
