<svg width="24" height="24" viewBox="0 0 24 24" fill="none" xmlns="http://www.w3.org/2000/svg">
<path opacity="0.994" fill-rule="evenodd" clip-rule="evenodd" d="M11.1801 1.47692C14.0384 1.29283 16.2493 2.38659 17.8129 4.75817C18.6759 6.28381 18.9416 7.90878 18.6097 9.63317C17.8591 12.5245 16.0231 14.2823 13.1019 14.9066C10.1112 15.2585 7.7909 14.1882 6.14099 11.6957C5.08129 9.72936 4.94066 7.69812 5.71912 5.60192C6.80737 3.25565 8.62767 1.88065 11.1801 1.47692Z" fill="#0F0F0F"/>
<path opacity="0.984" fill-rule="evenodd" clip-rule="evenodd" d="M3.96002 10.4762C4.00671 10.4722 4.04577 10.4878 4.07721 10.5231C4.66559 12.4543 5.79059 13.9855 7.45221 15.1168C7.39699 17.3576 8.06885 19.342 9.46784 21.07C9.78176 21.3996 10.1099 21.7121 10.4522 22.0075C10.4811 22.0519 10.4734 22.091 10.4288 22.1246C7.62565 22.9532 5.21159 22.3204 3.18659 20.2262C1.58231 18.2675 1.12919 16.0644 1.82721 13.6168C2.2599 12.3751 2.97083 11.3282 3.96002 10.4762Z" fill="#0F0F0F"/>
<path opacity="0.987" fill-rule="evenodd" clip-rule="evenodd" d="M19.8992 10.4766C20.0206 10.506 20.1299 10.5607 20.2273 10.6406C22.4141 12.7611 23.0157 15.2689 22.032 18.1641C20.6558 21.2161 18.2887 22.6458 14.9304 22.4531C12.6368 22.1418 10.9103 20.9933 9.75074 19.0078C9.21862 18.0444 8.96081 17.0132 8.97731 15.9141C12.2556 17.0069 15.1774 16.4053 17.7429 14.1094C18.7552 13.0777 19.474 11.8667 19.8992 10.4766Z" fill="#0F0F0F"/>
</svg>
