<svg width="181" height="48" viewBox="0 0 181 48" fill="none" xmlns="http://www.w3.org/2000/svg">
<path d="M55.8837 38.3164C53.4577 38.3164 51.3217 37.8418 49.4758 36.8925C47.6563 35.9431 46.2455 34.651 45.2434 33.0161C44.2414 31.3548 43.7404 29.4693 43.7404 27.3598C43.7404 25.2238 44.2282 23.3383 45.2039 21.7034C46.2059 20.0421 47.564 18.75 49.278 17.827C50.9921 16.8777 52.9303 16.4031 55.0926 16.4031C57.1758 16.4031 59.0481 16.8514 60.7094 17.7479C62.397 18.6181 63.7287 19.8839 64.7044 21.5452C65.6801 23.1801 66.1679 25.1447 66.1679 27.4389C66.1679 27.6762 66.1548 27.9531 66.1284 28.2695C66.102 28.5596 66.0756 28.8365 66.0493 29.1002H48.7638V25.5007H62.8058L60.4325 26.5687C60.4325 25.4611 60.2083 24.4986 59.7601 23.6812C59.3118 22.8637 58.6921 22.2308 57.901 21.7825C57.1099 21.3079 56.1869 21.0705 55.1321 21.0705C54.0774 21.0705 53.1412 21.3079 52.3238 21.7825C51.5327 22.2308 50.913 22.8769 50.4647 23.7207C50.0164 24.5382 49.7922 25.5139 49.7922 26.6478V27.5971C49.7922 28.7574 50.0428 29.7858 50.5438 30.6824C51.0712 31.5526 51.7964 32.225 52.7193 32.6997C53.6686 33.1479 54.7762 33.3721 56.0419 33.3721C57.1758 33.3721 58.1647 33.2007 59.0085 32.8579C59.8787 32.5151 60.6698 32.0009 61.3818 31.3152L64.6649 34.8752C63.6892 35.9827 62.463 36.8397 60.9863 37.4462C59.5095 38.0264 57.8087 38.3164 55.8837 38.3164ZM78.9781 38.3164C76.473 38.3164 74.5216 37.6836 73.124 36.4178C71.7264 35.1257 71.0276 33.2139 71.0276 30.6824V12.0125H77.1982V30.6033C77.1982 31.4998 77.4355 32.1986 77.9102 32.6997C78.3848 33.1743 79.0309 33.4116 79.8483 33.4116C80.824 33.4116 81.6547 33.1479 82.3403 32.6205L84.0016 36.9716C83.3687 37.4199 82.604 37.7627 81.7074 38C80.8372 38.211 79.9275 38.3164 78.9781 38.3164ZM67.7446 21.9407V17.1942H82.4985V21.9407H67.7446ZM97.093 38.3164C94.7988 38.3164 92.7552 37.855 90.962 36.932C89.1689 35.9827 87.7581 34.6774 86.7296 33.0161C85.7276 31.3548 85.2266 29.4693 85.2266 27.3598C85.2266 25.2238 85.7276 23.3383 86.7296 21.7034C87.7581 20.0421 89.1689 18.75 90.962 17.827C92.7552 16.8777 94.7988 16.4031 97.093 16.4031C99.3344 16.4031 101.286 16.8777 102.947 17.827C104.608 18.75 105.835 20.0817 106.626 21.8221L101.84 24.3931C101.286 23.3911 100.587 22.6527 99.7432 22.1781C98.9257 21.7034 98.0291 21.4661 97.0535 21.4661C95.9987 21.4661 95.0493 21.7034 94.2055 22.1781C93.3617 22.6527 92.6892 23.3252 92.1882 24.1954C91.7136 25.0656 91.4762 26.1204 91.4762 27.3598C91.4762 28.5991 91.7136 29.6539 92.1882 30.5241C92.6892 31.3943 93.3617 32.0668 94.2055 32.5414C95.0493 33.0161 95.9987 33.2534 97.0535 33.2534C98.0291 33.2534 98.9257 33.0293 99.7432 32.581C100.587 32.1063 101.286 31.3548 101.84 30.3264L106.626 32.937C105.835 34.651 104.608 35.9827 102.947 36.932C101.286 37.855 99.3344 38.3164 97.093 38.3164ZM120.034 38.3164C117.766 38.3164 115.749 37.8418 113.982 36.8925C112.242 35.9431 110.857 34.651 109.829 33.0161C108.827 31.3548 108.326 29.4693 108.326 27.3598C108.326 25.2238 108.827 23.3383 109.829 21.7034C110.857 20.0421 112.242 18.75 113.982 17.827C115.749 16.8777 117.766 16.4031 120.034 16.4031C122.276 16.4031 124.28 16.8777 126.047 17.827C127.813 18.75 129.198 20.0289 130.2 21.6639C131.202 23.2988 131.703 25.1974 131.703 27.3598C131.703 29.4693 131.202 31.3548 130.2 33.0161C129.198 34.651 127.813 35.9431 126.047 36.8925C124.28 37.8418 122.276 38.3164 120.034 38.3164ZM120.034 33.2534C121.063 33.2534 121.986 33.0161 122.803 32.5414C123.62 32.0668 124.267 31.3943 124.741 30.5241C125.216 29.6276 125.453 28.5728 125.453 27.3598C125.453 26.1204 125.216 25.0656 124.741 24.1954C124.267 23.3252 123.62 22.6527 122.803 22.1781C121.986 21.7034 121.063 21.4661 120.034 21.4661C119.006 21.4661 118.083 21.7034 117.265 22.1781C116.448 22.6527 115.789 23.3252 115.288 24.1954C114.813 25.0656 114.576 26.1204 114.576 27.3598C114.576 28.5728 114.813 29.6276 115.288 30.5241C115.789 31.3943 116.448 32.0668 117.265 32.5414C118.083 33.0161 119.006 33.2534 120.034 33.2534ZM141.023 38L132.084 16.7195H138.452L145.888 35.0334H142.724L150.437 16.7195H156.37L147.391 38H141.023ZM171.246 38V33.8467L170.85 32.937V25.5007C170.85 24.1822 170.442 23.1538 169.624 22.4154C168.833 21.677 167.607 21.3079 165.946 21.3079C164.812 21.3079 163.691 21.4925 162.583 21.8616C161.502 22.2044 160.579 22.6791 159.815 23.2856L157.6 18.9741C158.76 18.1567 160.157 17.5238 161.792 17.0755C163.427 16.6272 165.089 16.4031 166.776 16.4031C170.02 16.4031 172.538 17.1678 174.331 18.6973C176.124 20.2267 177.021 22.6132 177.021 25.8567V38H171.246ZM164.759 38.3164C163.098 38.3164 161.674 38.0396 160.487 37.4858C159.3 36.9057 158.391 36.1277 157.758 35.1521C157.125 34.1764 156.808 33.082 156.808 31.869C156.808 30.6033 157.112 29.4957 157.718 28.5464C158.351 27.5971 159.34 26.8587 160.685 26.3313C162.03 25.7776 163.783 25.5007 165.946 25.5007H171.602V29.1002H166.618C165.168 29.1002 164.166 29.3375 163.612 29.8122C163.084 30.2868 162.821 30.8801 162.821 31.5921C162.821 32.3832 163.124 33.0161 163.73 33.4908C164.363 33.939 165.22 34.1632 166.302 34.1632C167.33 34.1632 168.253 33.9259 169.07 33.4512C169.888 32.9502 170.481 32.225 170.85 31.2757L171.8 34.1236C171.351 35.4949 170.534 36.5365 169.347 37.2485C168.161 37.9604 166.631 38.3164 164.759 38.3164Z" fill="#CC9933"/>
<path fill-rule="evenodd" clip-rule="evenodd" d="M19.8532 2.47754C27.1674 2.47754 33.5569 6.41202 37.0006 12.2686L33.016 14.6853C30.3922 10.1625 25.4802 7.11845 19.8525 7.11845C11.4651 7.11845 4.66597 13.88 4.66597 22.2205C4.66597 30.5605 11.4651 37.3226 19.8525 37.3226C26.7228 37.3226 32.5273 32.7846 34.4012 26.5587L39.6753 23.2871C39.1186 33.6942 30.4568 41.9635 19.8525 41.9635C8.88804 41.9635 0 33.1243 0 22.2212C0 11.3181 8.88804 2.47886 19.8525 2.47886L19.8532 2.47754ZM34.9994 21.1269C35.0252 21.4877 35.0397 21.8525 35.0397 22.2199C35.0397 22.4441 35.0337 22.6671 35.0238 22.8894C35.0535 22.2786 35.0423 21.6896 34.9994 21.1276V21.1269Z" fill="#031A6B"/>
<path d="M44.0925 17.3764C45.4256 16.5717 45.8728 14.8357 45.0905 13.5039C44.3082 12.1722 42.6038 11.7257 41.282 12.533L25.5427 22.0325L21.6465 15.3178C20.8675 13.9749 19.1598 13.5396 17.838 14.3469C16.5162 15.1543 16.0571 16.8877 16.84 18.2187L22.1458 27.3627C22.9248 28.7056 24.6331 29.141 25.9543 28.3336L44.0932 17.3764H44.0925Z" fill="#031A6B"/>
</svg>
