<svg width="20" height="20" viewBox="0 0 20 20" fill="none" xmlns="http://www.w3.org/2000/svg">
<g clip-path="url(#clip0_4436_4684)">
<path opacity="0.995" fill-rule="evenodd" clip-rule="evenodd" d="M1.34766 -0.0195312C4.40754 -0.0195312 7.46746 -0.0195312 10.5273 -0.0195312C10.5208 1.34772 10.5273 2.71491 10.5469 4.08203C10.5794 4.42707 10.7682 4.6159 11.1133 4.64844C12.4804 4.66797 13.8476 4.67449 15.2148 4.66797C15.2214 5.52746 15.2148 6.38684 15.1953 7.24609C13.8281 8.61328 12.4609 9.98047 11.0938 11.3477C10.9568 11.5434 10.8396 11.7517 10.7422 11.9727C10.4745 12.7105 10.2466 13.4593 10.0586 14.2188C10.2048 15.236 10.7907 15.7047 11.8164 15.625C12.5965 15.3823 13.3647 15.1089 14.1211 14.8047C14.4908 14.5002 14.8489 14.1812 15.1953 13.8477C15.2214 15.4232 15.2214 16.9987 15.1953 18.5742C15.0125 19.3235 14.5502 19.7922 13.8086 19.9805C9.65496 19.9805 5.50129 19.9805 1.34766 19.9805C0.644531 19.7721 0.188802 19.3164 -0.0195312 18.6133C-0.0195312 12.8581 -0.0195312 7.10285 -0.0195312 1.34766C0.188802 0.644531 0.644531 0.188802 1.34766 -0.0195312ZM2.91016 5.83984C5.63152 5.83332 8.35289 5.83984 11.0742 5.85938C11.5894 5.95887 11.7521 6.25184 11.5625 6.73828C11.435 6.88992 11.2723 6.97457 11.0742 6.99219C8.35285 7.01824 5.63152 7.01824 2.91016 6.99219C2.36217 6.85301 2.22545 6.53402 2.5 6.03516C2.62291 5.93129 2.75963 5.86617 2.91016 5.83984ZM2.91016 8.18359C4.85031 8.17707 6.79039 8.18359 8.73047 8.20312C9.24566 8.30262 9.4084 8.59559 9.21875 9.08203C9.09125 9.23367 8.92852 9.31832 8.73047 9.33594C6.79035 9.36199 4.85027 9.36199 2.91016 9.33594C2.36217 9.19676 2.22545 8.87777 2.5 8.37891C2.62291 8.27504 2.75963 8.20992 2.91016 8.18359ZM2.91016 10.5273C4.85031 10.5208 6.79039 10.5273 8.73047 10.5469C9.24566 10.6464 9.4084 10.9393 9.21875 11.4258C9.09125 11.5774 8.92852 11.6621 8.73047 11.6797C6.79035 11.7057 4.85027 11.7057 2.91016 11.6797C2.36217 11.5405 2.22545 11.2215 2.5 10.7227C2.62291 10.6188 2.75963 10.5537 2.91016 10.5273ZM2.91016 12.8711C4.85031 12.8646 6.79039 12.8711 8.73047 12.8906C9.24566 12.9901 9.4084 13.2831 9.21875 13.7695C9.09125 13.9212 8.92852 14.0058 8.73047 14.0234C6.79035 14.0495 4.85027 14.0495 2.91016 14.0234C2.36217 13.8843 2.22545 13.5653 2.5 13.0664C2.62291 12.9625 2.75963 12.8974 2.91016 12.8711ZM7.59766 16.3867C8.7566 16.3802 9.91543 16.3867 11.0742 16.4062C11.5894 16.5057 11.7521 16.7987 11.5625 17.2852C11.435 17.4368 11.2723 17.5214 11.0742 17.5391C9.91535 17.5651 8.75652 17.5651 7.59766 17.5391C7.08246 17.4396 6.91973 17.1466 7.10938 16.6602C7.24469 16.5113 7.40746 16.4202 7.59766 16.3867Z" fill="#CC9933"/>
<path opacity="0.984" fill-rule="evenodd" clip-rule="evenodd" d="M11.6602 -0.0195312C11.8164 -0.0195312 11.9727 -0.0195312 12.1289 -0.0195312C12.4214 0.0692125 12.6948 0.205931 12.9492 0.390625C13.5677 1.00911 14.1862 1.62761 14.8047 2.24609C15.0858 2.61424 15.2225 3.03091 15.2148 3.49609C14.03 3.49609 12.845 3.49609 11.6602 3.49609C11.6602 2.32422 11.6602 1.15234 11.6602 -0.0195312Z" fill="#CC9933"/>
<path opacity="0.956" fill-rule="evenodd" clip-rule="evenodd" d="M19.9805 6.62105C19.9805 6.81636 19.9805 7.01167 19.9805 7.20698C19.9117 7.42226 19.801 7.61757 19.6484 7.79292C19.3734 8.08108 19.0869 8.35452 18.7891 8.61323C18.2042 8.07394 17.6378 7.51405 17.0898 6.93355C17.4333 6.60964 17.7718 6.27761 18.1055 5.93745C18.7209 5.618 19.2742 5.70265 19.7656 6.19136C19.8565 6.32874 19.9281 6.47194 19.9805 6.62105Z" fill="#CC9933"/>
<path opacity="0.957" fill-rule="evenodd" clip-rule="evenodd" d="M16.2305 7.75402C16.2716 7.7482 16.3106 7.75468 16.3477 7.77355C16.9016 8.32097 17.4485 8.87437 17.9883 9.4337C16.7193 10.7222 15.4432 12.0048 14.1602 13.2814C14.1211 13.3074 14.082 13.3074 14.043 13.2814C13.489 12.7339 12.9421 12.1805 12.4023 11.6212C13.6792 10.3313 14.9552 9.04226 16.2305 7.75402Z" fill="#CC9933"/>
<path opacity="0.926" fill-rule="evenodd" clip-rule="evenodd" d="M11.7397 12.5586C12.2071 13.0064 12.6693 13.4621 13.1264 13.9258C13.1533 13.9583 13.1467 13.9843 13.1069 14.0039C12.6266 14.1705 12.1448 14.3333 11.6616 14.4922C11.3444 14.5654 11.1947 14.4417 11.2123 14.1211C11.3846 13.5977 11.5604 13.0769 11.7397 12.5586Z" fill="#373737"/>
</g>
<defs>
<clipPath id="clip0_4436_4684">
<rect width="20" height="20" fill="white"/>
</clipPath>
</defs>
</svg>
