<svg width="24" height="24" viewBox="0 0 24 24" fill="none" xmlns="http://www.w3.org/2000/svg">
<path opacity="0.981" fill-rule="evenodd" clip-rule="evenodd" d="M19.6646 1.94536C21.1127 1.90313 22.1518 2.52812 22.7818 3.82036C23.2755 5.35491 22.877 6.5971 21.5865 7.54693C20.348 8.20463 19.1605 8.12649 18.024 7.31255C17.0993 6.44433 16.7789 5.38965 17.0631 4.14849C17.4946 2.89651 18.3617 2.16214 19.6646 1.94536Z" fill="#031A6B"/>
<path opacity="0.987" fill-rule="evenodd" clip-rule="evenodd" d="M1.71073 3.96094C5.88265 3.95312 10.0545 3.96094 14.2264 3.98438C14.8496 4.19132 15.0919 4.62101 14.9529 5.27344C14.8513 5.625 14.6248 5.85155 14.2732 5.95313C10.0701 5.98439 5.86699 5.98439 1.66385 5.95313C1.11514 5.72334 0.888572 5.3093 0.984164 4.71094C1.11002 4.34296 1.35221 4.09296 1.71073 3.96094Z" fill="#031A6B"/>
<path opacity="0.98" fill-rule="evenodd" clip-rule="evenodd" d="M7.4299 8.97724C8.97537 8.82382 10.0925 9.4332 10.7815 10.8054C11.2838 12.329 10.901 13.5712 9.63302 14.5319C8.13476 15.3078 6.79882 15.0969 5.62521 13.8991C5.4221 13.6332 5.25804 13.3441 5.13302 13.0319C4.02364 13.0163 2.91427 13.0007 1.8049 12.9851C1.02913 12.7381 0.78694 12.2303 1.07833 11.4616C1.24363 11.1873 1.48582 11.0232 1.8049 10.9694C2.91427 10.9538 4.02364 10.9382 5.13302 10.9226C5.56858 9.87767 6.33419 9.22924 7.4299 8.97724Z" fill="#031A6B"/>
<path opacity="0.965" fill-rule="evenodd" clip-rule="evenodd" d="M13.8053 10.9453C16.5866 10.9375 19.3679 10.9453 22.1491 10.9688C22.9248 11.2157 23.167 11.7235 22.8756 12.4922C22.7103 12.7665 22.4681 12.9306 22.1491 12.9844C19.3678 13.0156 16.5865 13.0156 13.8053 12.9844C13.1527 12.7998 12.8793 12.3701 12.985 11.6953C13.1191 11.2876 13.3925 11.0376 13.8053 10.9453Z" fill="#031A6B"/>
<path opacity="0.983" fill-rule="evenodd" clip-rule="evenodd" d="M15.5395 15.9609C17.0949 15.862 18.1886 16.5182 18.8208 17.9296C20.0265 17.9543 21.2296 17.9934 22.4301 18.0468C22.936 18.3607 23.1 18.8061 22.9223 19.3828C22.7824 19.679 22.5558 19.8743 22.2426 19.9687C21.102 19.9843 19.9614 20 18.8208 20.0156C18.1433 21.5107 16.987 22.1514 15.352 21.9374C14.1021 21.6251 13.3209 20.8438 13.0083 19.5937C12.7857 18.1171 13.3169 17.0077 14.602 16.2656C14.9123 16.1387 15.2248 16.0371 15.5395 15.9609Z" fill="#031A6B"/>
<path opacity="0.985" fill-rule="evenodd" clip-rule="evenodd" d="M1.66388 17.9766C4.53892 17.9687 7.41394 17.9766 10.2889 18C10.8376 18.2298 11.0641 18.6438 10.9686 19.2422C10.8514 19.6094 10.6092 19.8516 10.242 19.9688C7.39824 20 4.5545 20 1.71075 19.9688C1.06531 19.7169 0.838751 19.256 1.03107 18.5859C1.15904 18.2924 1.36998 18.0893 1.66388 17.9766Z" fill="#031A6B"/>
</svg>
