<svg width="24" height="24" viewBox="0 0 24 24" fill="none" xmlns="http://www.w3.org/2000/svg">
<g clip-path="url(#clip0_796_13525)">
<path opacity="0.985" fill-rule="evenodd" clip-rule="evenodd" d="M23.9766 8.8826C23.9766 9.0701 23.9766 9.2576 23.9766 9.4451C23.8496 10.0242 23.7011 10.6023 23.5312 11.1795C23.4589 11.2675 23.373 11.3378 23.2734 11.3904C22.979 11.4416 22.6821 11.4728 22.3828 11.4842C23.3032 12.685 23.561 14.0209 23.1562 15.492C22.9483 16.1678 22.5889 16.7459 22.0781 17.2263C22.0625 18.0076 22.0469 18.7888 22.0312 19.5701C21.9814 20.1043 21.6923 20.409 21.1641 20.4842C20.3828 20.5154 19.6016 20.5154 18.8203 20.4842C18.455 20.4314 18.1972 20.2361 18.0469 19.8982C17.9838 19.4791 17.9603 19.0572 17.9766 18.6326C13.9766 18.6326 9.97655 18.6326 5.97656 18.6326C5.99278 19.0572 5.96934 19.4791 5.90625 19.8982C5.75592 20.2361 5.49811 20.4314 5.13281 20.4842C4.35156 20.5154 3.57031 20.5154 2.78906 20.4842C2.26082 20.409 1.97176 20.1043 1.92188 19.5701C1.90625 18.7732 1.89062 17.9763 1.875 17.1795C0.70905 15.9532 0.349673 14.5157 0.796875 12.867C0.949472 12.3636 1.19166 11.9105 1.52344 11.5076C1.24152 11.4721 0.960267 11.433 0.679688 11.3904C0.580134 11.3378 0.494198 11.2675 0.421875 11.1795C0.251998 10.6023 0.10356 10.0242 -0.0234375 9.4451C-0.0234375 9.2576 -0.0234375 9.0701 -0.0234375 8.8826C0.0473986 8.71324 0.172398 8.59605 0.351562 8.53104C1.2108 8.5076 2.07017 8.49977 2.92969 8.5076C3.27669 7.42291 3.7845 6.42293 4.45312 5.5076C5.00756 4.92157 5.67164 4.50752 6.44531 4.26541C8.24564 3.70831 10.0894 3.43487 11.9766 3.4451C13.8637 3.43487 15.7075 3.70831 17.5078 4.26541C18.2815 4.50752 18.9456 4.92157 19.5 5.5076C20.1686 6.42293 20.6764 7.42291 21.0234 8.5076C21.8829 8.49977 22.7423 8.5076 23.6016 8.53104C23.7807 8.59605 23.9057 8.71324 23.9766 8.8826ZM11.8828 5.3201C13.5413 5.30937 15.1663 5.53591 16.7578 5.99979C17.2653 6.15569 17.7106 6.41351 18.0938 6.77323C18.6165 7.60788 19.0462 8.49073 19.3828 9.42166C14.4453 9.45293 9.5078 9.45293 4.57031 9.42166C4.90692 8.49073 5.33658 7.60788 5.85938 6.77323C6.24248 6.41351 6.6878 6.15569 7.19531 5.99979C8.73202 5.55148 10.2945 5.32493 11.8828 5.3201ZM4.80469 12.5857C5.93152 12.5039 6.64242 13.0039 6.9375 14.0857C7.00852 15.077 6.57881 15.7411 5.64844 16.0779C4.50899 16.2543 3.7668 15.7934 3.42188 14.6951C3.34271 13.634 3.80364 12.9309 4.80469 12.5857ZM18.4453 12.5857C19.4953 12.5047 20.1906 12.9578 20.5312 13.9451C20.6881 14.9908 20.274 15.7017 19.2891 16.0779C17.9701 16.2513 17.2045 15.681 16.9922 14.367C17.1014 13.4582 17.5858 12.8644 18.4453 12.5857Z" fill="#0F0F0F"/>
</g>
<defs>
<clipPath id="clip0_796_13525">
<rect width="24" height="24" fill="white"/>
</clipPath>
</defs>
</svg>
