<svg width="84" height="84" viewBox="0 0 84 84" fill="none" xmlns="http://www.w3.org/2000/svg">
<g filter="url(#filter0_d_4695_6596)">
<g clip-path="url(#clip0_4695_6596)">
<rect x="2" y="2" width="80" height="80" rx="8" fill="white"/>
<path d="M82 63.1836H2V63.2236H82V63.1836Z" fill="#CFCFCF"/>
<path d="M73.9835 64.707H59.4395V64.747H73.9835V64.707Z" fill="#CFCFCF"/>
<path d="M54.9961 64.2734H51.0137V64.3134H54.9961V64.2734Z" fill="#CFCFCF"/>
<path d="M64.0982 66.1934H57.9238V66.2334H64.0982V66.1934Z" fill="#CFCFCF"/>
<path d="M14.0169 65.9248H10.3945V65.9648H14.0169V65.9248Z" fill="#CFCFCF"/>
<path d="M19.7419 65.9248H15.4395V65.9648H19.7419V65.9248Z" fill="#CFCFCF"/>
<path d="M38.0237 65.249H30.5293V65.289H38.0237V65.249Z" fill="#CFCFCF"/>
<path d="M39.9197 56.0478H9.02528C8.78326 56.0474 8.55129 55.9509 8.3803 55.7797C8.20932 55.6084 8.11328 55.3762 8.11328 55.1342V11.7054C8.11539 11.4648 8.21235 11.2347 8.38311 11.0651C8.55387 10.8956 8.78464 10.8002 9.02528 10.7998H39.9197C40.162 10.7998 40.3944 10.8961 40.5657 11.0674C40.737 11.2387 40.8333 11.4711 40.8333 11.7134V55.1342C40.8333 55.3765 40.737 55.6089 40.5657 55.7802C40.3944 55.9516 40.162 56.0478 39.9197 56.0478ZM9.02528 10.8318C8.79387 10.8322 8.57207 10.9245 8.40859 11.0882C8.2451 11.252 8.15328 11.474 8.15328 11.7054V55.1342C8.15328 55.3656 8.2451 55.5876 8.40859 55.7514C8.57207 55.9152 8.79387 56.0074 9.02528 56.0078H39.9197C40.1512 56.0074 40.3732 55.9152 40.5369 55.7515C40.7007 55.5877 40.7929 55.3658 40.7933 55.1342V11.7054C40.7929 11.4738 40.7007 11.2519 40.5369 11.0881C40.3732 10.9244 40.1512 10.8322 39.9197 10.8318H9.02528Z" fill="#CFCFCF"/>
<path d="M74.5303 56.0478H43.6343C43.3921 56.0474 43.16 55.951 42.9888 55.7798C42.8175 55.6085 42.7211 55.3764 42.7207 55.1342V11.7054C42.7232 11.4646 42.8205 11.2345 42.9916 11.065C43.1626 10.8955 43.3935 10.8002 43.6343 10.7998H74.5303C74.7707 10.8006 75.001 10.8962 75.1714 11.0657C75.3419 11.2352 75.4386 11.465 75.4407 11.7054V55.1342C75.4407 55.3759 75.3449 55.6078 75.1743 55.7791C75.0036 55.9503 74.7721 56.047 74.5303 56.0478ZM43.6343 10.8318C43.4027 10.8322 43.1808 10.9244 43.017 11.0881C42.8533 11.2519 42.7611 11.4738 42.7607 11.7054V55.1342C42.7611 55.3658 42.8533 55.5877 43.017 55.7515C43.1808 55.9152 43.4027 56.0074 43.6343 56.0078H74.5303C74.7619 56.0074 74.9838 55.9152 75.1476 55.7515C75.3113 55.5877 75.4035 55.3658 75.4039 55.1342V11.7054C75.4035 11.4738 75.3113 11.2519 75.1476 11.0881C74.9838 10.9244 74.7619 10.8322 74.5303 10.8318H43.6343Z" fill="#CFCFCF"/>
<path d="M63.3317 28.4846C66.4068 28.4846 68.8997 25.9918 68.8997 22.9166C68.8997 19.8415 66.4068 17.3486 63.3317 17.3486C60.2566 17.3486 57.7637 19.8415 57.7637 22.9166C57.7637 25.9918 60.2566 28.4846 63.3317 28.4846Z" fill="#FEFEFE"/>
<path d="M11.6002 27.4481C11.7909 27.4584 11.9793 27.4945 12.1602 27.5553C12.205 27.1841 12.653 26.9553 13.4498 26.9809C13.8919 27.0015 14.33 27.0735 14.7554 27.1953C14.4786 26.6337 14.7554 26.2353 15.5394 26.2353C16.0576 26.2554 16.5676 26.3715 17.0434 26.5777C17.1554 26.2017 17.5826 25.9697 18.301 25.9697C19.4434 25.9697 20.9906 26.5585 22.1714 27.3825C22.741 27.3985 23.8322 27.7233 24.0178 28.0225H11.3906L11.3298 27.9681C11.0226 27.6641 11.1442 27.4401 11.6002 27.4481Z" fill="#CFCFCF"/>
<path d="M61.2466 23.3136C61.4574 23.3246 61.6657 23.3645 61.8658 23.432C61.9138 23.0224 62.4098 22.7696 63.2914 22.792C63.7789 22.8154 64.262 22.8948 64.7314 23.0288C64.4242 22.4096 64.7314 21.9696 65.5986 21.9696C66.1714 21.9922 66.735 22.1208 67.261 22.3488C67.3858 21.9328 67.8578 21.6768 68.6514 21.6768C69.9154 21.6768 71.6258 22.3264 72.933 23.24C73.5618 23.256 74.7698 23.616 74.9746 23.9392H61.0066L60.9394 23.8784C60.605 23.5536 60.7394 23.2976 61.2466 23.3136Z" fill="#FAFAFA"/>
<path d="M15.1913 19.4669C15.5009 19.488 15.8056 19.5555 16.0953 19.6669C15.9353 18.9741 16.4665 18.5469 17.6729 18.5965C18.3803 18.6406 19.0792 18.7745 19.7529 18.9949C18.9977 17.9517 19.1801 17.2125 20.3481 17.2125C21.0121 17.2125 21.8873 17.4509 22.8025 17.8525C22.7417 17.1501 23.2425 16.7197 24.3161 16.7197C25.6473 16.7197 27.5577 17.3821 29.4089 18.3997C29.4601 18.1037 29.7401 17.9293 30.2521 17.9293C30.9641 17.9293 31.9657 18.2637 32.9561 18.7885C33.0201 18.7885 33.0873 18.7885 33.1577 18.7885C34.4185 18.8765 36.1881 19.5533 37.2153 20.3277H14.9929C14.4585 19.8237 14.5321 19.4397 15.1913 19.4669Z" fill="#FAFAFA"/>
<path d="M56.9018 28.1282C57.0293 28.1376 57.1548 28.165 57.2746 28.2098C57.2074 27.925 57.4266 27.749 57.9242 27.7698C58.2168 27.7864 58.506 27.8401 58.785 27.9298C58.4746 27.501 58.5482 27.1954 59.0298 27.1954C59.3813 27.2172 59.7252 27.3069 60.0426 27.4594C60.017 27.1698 60.2234 26.9922 60.6666 26.9922C61.2154 26.9922 62.0026 27.2642 62.7674 27.685C62.7882 27.5618 62.9034 27.4898 63.1146 27.4898C63.5097 27.5236 63.8923 27.645 64.2346 27.845C64.2623 27.8435 64.2901 27.8435 64.3178 27.845C64.9201 27.9144 65.4951 28.1345 65.9898 28.485H56.8202C56.5994 28.2754 56.6298 28.1186 56.9018 28.1282Z" fill="#FEFEFE"/>
<path d="M64.1475 12.499C65.0131 12.2174 65.5315 11.7262 66.2083 12.451C65.2995 11.9166 64.2035 12.8622 64.2035 12.8622C64.2035 12.8622 62.8723 12.2942 62.1699 13.0798C62.5923 12.1838 63.2355 12.4958 64.1475 12.499Z" fill="#CFCFCF"/>
<path d="M60.2565 15.3024C60.8069 15.1248 61.1365 14.8112 61.5653 15.272C60.9877 14.9328 60.2853 15.5344 60.2853 15.5344C60.2853 15.5344 59.4405 15.1728 58.9941 15.672C59.2693 15.1024 59.6773 15.3008 60.2565 15.3024Z" fill="#CFCFCF"/>
<path d="M19.6331 14.097C20.3723 13.913 20.8315 13.5322 21.3531 14.1754C20.6267 13.6778 19.6603 14.4042 19.6603 14.4042C19.6603 14.4042 18.5835 13.8538 17.9531 14.4698C18.3563 13.7466 18.8747 14.0426 19.6331 14.097Z" fill="#CFCFCF"/>
<path d="M25.3312 41.0225H16.4624L13.712 43.1105V42.2689H11.9872V44.4193L10.0352 45.9025V46.2865V63.1841H14.864H16.4624H31.76V45.9025L25.3312 41.0225Z" fill="#FAFAFA"/>
<path d="M11.2776 49.9854H18.26L20.4264 51.6302V50.9677H21.7832V52.6606L23.3208 53.827V54.131V63.1838H19.5192H18.26H6.2168V53.827L11.2776 49.9854Z" fill="#FEFEFE"/>
<path d="M62.2112 49.9854H69.1936L71.3584 51.6302V50.9677H72.7168V52.6606L74.2544 53.827V54.131V63.1838H70.4512H69.1936H57.1504V53.827L62.2112 49.9854Z" fill="#FEFEFE"/>
<path d="M42.0009 70.4095C59.1341 70.4095 73.0233 69.5986 73.0233 68.5983C73.0233 67.598 59.1341 66.7871 42.0009 66.7871C24.8677 66.7871 10.9785 67.598 10.9785 68.5983C10.9785 69.5986 24.8677 70.4095 42.0009 70.4095Z" fill="#FEFEFE"/>
<path d="M67.1199 32.5742H15.9199V63.1374H67.1199V32.5742Z" fill="#031A6B"/>
<path opacity="0.2" d="M67.1199 32.5742H15.9199V63.1374H67.1199V32.5742Z" fill="#0F0F0F"/>
<path opacity="0.2" d="M15.9199 32.5742H67.1199V36.7646L15.9199 37.787V32.5742Z" fill="#0F0F0F"/>
<path d="M70.1071 63.1367H15.9199V68.5975H70.1071V63.1367Z" fill="#5F5F5F"/>
<path d="M42.5854 40.4521H22.1582V69.4857H42.5854V40.4521Z" fill="#031A6B"/>
<path opacity="0.2" d="M22.1582 43.7241L42.5854 42.5865V40.4521H22.1582V43.7241Z" fill="#0F0F0F"/>
<path d="M44.3198 40.2666H20.4238V41.4042H44.3198V40.2666Z" fill="#FEFEFE"/>
<path d="M23.6238 36.4697H41.1198L44.3198 40.2665H20.4238L23.6238 36.4697Z" fill="#5F5F5F"/>
<path d="M37.1821 44.6846H27.5645V63.9406H37.1821V44.6846Z" fill="#FEFEFE"/>
<path d="M36.7824 63.94H36.6224V45.244H28.1248V63.94H27.9648V45.084H36.7824V63.94Z" fill="#CFCFCF"/>
<path d="M29.1854 54.9212C29.1858 55.0115 29.1593 55.0998 29.1094 55.175C29.0595 55.2502 28.9883 55.3089 28.905 55.3436C28.8218 55.3784 28.73 55.3876 28.6415 55.3702C28.5529 55.3528 28.4715 55.3095 28.4076 55.2458C28.3436 55.1821 28.3 55.1008 28.2823 55.0123C28.2646 54.9238 28.2735 54.8321 28.308 54.7487C28.3425 54.6652 28.4009 54.5939 28.4759 54.5438C28.551 54.4936 28.6392 54.4668 28.7294 54.4668C28.8501 54.4668 28.9658 54.5146 29.0513 54.5998C29.1368 54.685 29.185 54.8005 29.1854 54.9212Z" fill="#031A6B"/>
<path d="M37.9558 63.9404H26.791V65.8908H37.9558V63.9404Z" fill="#5F5F5F"/>
<path d="M39.3964 65.8906H25.3516V67.841H39.3964V65.8906Z" fill="#5F5F5F"/>
<path d="M41.1956 67.8408H23.5508V69.7912H41.1956V67.8408Z" fill="#5F5F5F"/>
<path d="M34.3236 52.6147C35.4014 51.5369 35.4014 49.7893 34.3236 48.7115C33.2457 47.6336 31.4982 47.6336 30.4204 48.7115C29.3425 49.7893 29.3425 51.5369 30.4204 52.6147C31.4982 53.6925 33.2457 53.6925 34.3236 52.6147Z" fill="#031A6B"/>
<path opacity="0.3" d="M33.5756 48.1758L32.1484 53.4126C32.2242 53.419 32.2994 53.4222 32.374 53.4222C32.5426 53.4222 32.7108 53.4067 32.8764 53.3758L34.1836 48.5758C33.9997 48.4159 33.7952 48.2814 33.5756 48.1758Z" fill="#FEFEFE"/>
<path opacity="0.3" d="M32.3732 47.9024C32.0457 47.901 31.7205 47.9585 31.4132 48.072L30.2324 52.4112C30.5491 52.7982 30.965 53.0919 31.4356 53.2608L32.8836 47.9504C32.7154 47.9184 32.5445 47.9023 32.3732 47.9024Z" fill="#FEFEFE"/>
<path d="M32.3632 54.3072C32.3066 54.3068 32.2525 54.284 32.2126 54.2438C32.1728 54.2037 32.1504 54.1494 32.1504 54.0928V47.2128C32.1508 47.1565 32.1734 47.1026 32.2132 47.0628C32.253 47.023 32.3069 47.0004 32.3632 47C32.4195 47.0004 32.4734 47.023 32.5132 47.0628C32.553 47.1026 32.5756 47.1565 32.576 47.2128V54.0928C32.576 54.1494 32.5536 54.2037 32.5138 54.2438C32.4739 54.284 32.4198 54.3068 32.3632 54.3072Z" fill="#FEFEFE"/>
<path d="M28.7109 50.6523C28.7114 50.5959 28.7339 50.5421 28.7737 50.5022C28.8135 50.4624 28.8674 50.4399 28.9237 50.4395H35.8037C35.86 50.4399 35.9139 50.4624 35.9537 50.5022C35.9936 50.5421 36.0161 50.5959 36.0165 50.6523C36.0165 50.7088 35.9942 50.7631 35.9543 50.8033C35.9144 50.8435 35.8603 50.8662 35.8037 50.8667H28.9237C28.8672 50.8662 28.813 50.8435 28.7732 50.8033C28.7333 50.7631 28.7109 50.7088 28.7109 50.6523Z" fill="#FEFEFE"/>
<path d="M61.9655 41.8047H46.6055V60.1151H61.9655V41.8047Z" fill="#FEFEFE"/>
<path d="M15.9214 41.8047H15.459V60.1151H15.9214V41.8047Z" fill="#031A6B"/>
<path d="M61.4863 59.6346V42.2842H47.0863V59.6346H61.4863Z" fill="#031A6B"/>
<path d="M55.0684 59.7592V42.1592H53.5036V59.7592H55.0684Z" fill="#FEFEFE"/>
<path opacity="0.3" d="M48.6484 59.7592L51.0052 42.1592H54.0628L51.7044 59.7592H48.6484Z" fill="#FEFEFE"/>
<path opacity="0.3" d="M54.8984 59.7592L57.2568 42.1592H58.3L55.9416 59.7592H54.8984Z" fill="#FEFEFE"/>
<path d="M70.1086 62.2666H42.627V63.137H70.1086V62.2666Z" fill="#CFCFCF"/>
<path d="M70.1086 52.1865H42.627V53.0569H70.1086V52.1865Z" fill="#CFCFCF"/>
<path d="M69.823 53.0576H69.2598V62.2672H69.823V53.0576Z" fill="#CFCFCF"/>
<path d="M63.4929 53.0576H62.9297V62.2672H63.4929V53.0576Z" fill="#CFCFCF"/>
<path d="M57.1628 53.0576H56.5996V62.2672H57.1628V53.0576Z" fill="#CFCFCF"/>
<path d="M50.8327 53.0576H50.2695V62.2672H50.8327V53.0576Z" fill="#CFCFCF"/>
<path d="M44.5007 53.0576H43.9375V62.2672H44.5007V53.0576Z" fill="#CFCFCF"/>
<path d="M67.8679 32.252H15.1719V33.3896H67.8679V32.252Z" fill="#FEFEFE"/>
<path d="M19.9557 25.6171L38.6405 9.01074L57.3253 25.6171C57.5087 25.78 57.6384 25.9948 57.6971 26.2329C57.7558 26.4711 57.7407 26.7215 57.654 26.9509C57.5673 27.1804 57.413 27.3781 57.2114 27.5179C57.0099 27.6577 56.7706 27.7331 56.5253 27.7339H20.7605C20.5148 27.734 20.2749 27.6594 20.0726 27.52C19.8703 27.3805 19.7152 27.1828 19.6279 26.9532C19.5406 26.7235 19.5252 26.4727 19.5837 26.2341C19.6423 25.9955 19.772 25.7803 19.9557 25.6171Z" fill="#5F5F5F"/>
<path d="M47.12 11.9004H52.8016C52.9395 11.9004 53.0717 11.9552 53.1693 12.0527C53.2668 12.1502 53.3216 12.2825 53.3216 12.4204V22.7996H46.6016V12.4188C46.602 12.2814 46.6567 12.1498 46.7539 12.0527C46.851 11.9556 46.9826 11.9008 47.12 11.9004Z" fill="#5F5F5F"/>
<path d="M38.6406 10.8584L21.3574 26.22H55.9238L38.6406 10.8584Z" fill="#031A6B"/>
<path opacity="0.2" d="M38.6406 10.8584L21.3574 26.22L39.1958 11.3528L38.6406 10.8584Z" fill="#0F0F0F"/>
<path d="M18.3738 25.2764H64.6698L67.8698 32.2524H15.1738L18.3738 25.2764Z" fill="#5F5F5F"/>
<path opacity="0.2" d="M42.9241 20.0762C43.308 17.7116 41.7022 15.4835 39.3376 15.0997C36.9729 14.7158 34.7448 16.3216 34.361 18.6862C33.9772 21.0509 35.5829 23.2789 37.9476 23.6628C40.3122 24.0466 42.5403 22.4408 42.9241 20.0762Z" fill="#0F0F0F"/>
<path d="M38.6403 23.2504C41.0359 23.2504 42.9779 21.3084 42.9779 18.9128C42.9779 16.5172 41.0359 14.5752 38.6403 14.5752C36.2447 14.5752 34.3027 16.5172 34.3027 18.9128C34.3027 21.3084 36.2447 23.2504 38.6403 23.2504Z" fill="#FEFEFE"/>
<path d="M38.6412 22.6368C40.6974 22.6368 42.3644 20.9699 42.3644 18.9136C42.3644 16.8574 40.6974 15.1904 38.6412 15.1904C36.5849 15.1904 34.918 16.8574 34.918 18.9136C34.918 20.9699 36.5849 22.6368 38.6412 22.6368Z" fill="#031A6B"/>
<path opacity="0.3" d="M40.2618 15.5596L38.3418 22.6252C38.4426 22.6332 38.545 22.638 38.6458 22.638C38.8733 22.6375 39.1004 22.6166 39.3242 22.5756L41.0842 16.1036C40.8357 15.8862 40.5591 15.7032 40.2618 15.5596Z" fill="#FEFEFE"/>
<path opacity="0.3" d="M38.6398 15.1904C38.2029 15.1904 37.7695 15.2678 37.3598 15.4192L35.7598 21.2736C36.1864 21.7962 36.7472 22.1928 37.3822 22.4208L39.3358 15.256C39.1064 15.2121 38.8733 15.1902 38.6398 15.1904Z" fill="#FEFEFE"/>
<path d="M38.6506 14.6729H38.609C38.4614 14.6729 38.3418 14.7925 38.3418 14.9401V22.8649C38.3418 23.0124 38.4614 23.1321 38.609 23.1321H38.6506C38.7982 23.1321 38.9178 23.0124 38.9178 22.8649V14.9401C38.9178 14.7925 38.7982 14.6729 38.6506 14.6729Z" fill="#FEFEFE"/>
<path d="M42.7422 18.9279V18.8767C42.7422 18.7317 42.6247 18.6143 42.4798 18.6143H34.7774C34.6325 18.6143 34.515 18.7317 34.515 18.8767V18.9279C34.515 19.0728 34.6325 19.1903 34.7774 19.1903H42.4798C42.6247 19.1903 42.7422 19.0728 42.7422 18.9279Z" fill="#FEFEFE"/>
<path d="M50.2702 60.9502C49.2331 60.9695 48.2342 61.3452 47.4414 62.0142V69.6622H50.5582L51.3166 60.9502H50.2702Z" fill="#031A6B"/>
<path opacity="0.6" d="M50.2702 60.9502C49.2331 60.9695 48.2342 61.3452 47.4414 62.0142V69.6622H50.5582L51.3166 60.9502H50.2702Z" fill="#0F0F0F"/>
<path d="M51.3075 60.9502C50.2676 60.9677 49.2656 61.3435 48.4707 62.0142V69.6622H54.1427V62.0142C53.3483 61.3437 52.3469 60.9679 51.3075 60.9502Z" fill="#031A6B"/>
<path d="M53.5829 69.1817H53.4229V62.3657C52.8042 61.9098 52.0549 61.6656 51.2863 61.6697C50.5178 61.6737 49.7711 61.9257 49.1573 62.3881L49.0645 62.2585C49.7106 61.7738 50.4966 61.5117 51.3045 61.5117C52.1123 61.5117 52.8983 61.7738 53.5445 62.2585L53.5781 62.2825L53.5829 69.1817Z" fill="#FEFEFE"/>
<path d="M52.7919 64H49.8223V64.16H52.7919V64Z" fill="#FEFEFE"/>
<path d="M52.1525 64.7998H50.4629V64.9598H52.1525V64.7998Z" fill="#FEFEFE"/>
<path opacity="0.3" d="M64.6729 48.5967C64.2185 48.7263 64.1289 48.3055 64.2457 47.9183C64.3625 47.5311 64.5209 47.3343 64.4969 46.9023C64.8889 47.6751 65.1385 48.4655 64.6729 48.5967Z" fill="#FEFEFE"/>
<path opacity="0.3" d="M64.5289 48.5407C64.7625 48.6175 64.8041 48.3807 64.7433 48.1583C64.6825 47.9359 64.5993 47.8239 64.6089 47.5791C64.4137 48.0159 64.2921 48.4623 64.5289 48.5407Z" fill="#FEFEFE"/>
<path d="M64.5383 49.2947H64.5271C64.5167 49.2932 64.5067 49.2896 64.4977 49.2841C64.4887 49.2787 64.4808 49.2715 64.4746 49.2631C64.4683 49.2546 64.4638 49.245 64.4613 49.2348C64.4588 49.2245 64.4583 49.2139 64.4599 49.2035C64.495 48.9588 64.5095 48.7115 64.5031 48.4643C64.5025 48.4539 64.5039 48.4434 64.5073 48.4336C64.5108 48.4237 64.5162 48.4146 64.5232 48.4069C64.5302 48.3991 64.5387 48.3929 64.5481 48.3884C64.5576 48.384 64.5679 48.3815 64.5783 48.3811C64.5889 48.3803 64.5995 48.3815 64.6095 48.3849C64.6196 48.3882 64.6288 48.3936 64.6368 48.4006C64.6447 48.4076 64.6511 48.4162 64.6556 48.4258C64.6602 48.4353 64.6627 48.4457 64.6631 48.4563C64.6697 48.7142 64.6547 48.9722 64.6183 49.2275C64.6149 49.2463 64.6051 49.2633 64.5905 49.2756C64.5759 49.2879 64.5574 49.2946 64.5383 49.2947Z" fill="#5F5F5F"/>
<path d="M65.2553 52.0173C65.1529 51.9821 65.1097 51.7149 65.1097 51.7149C65.1097 51.7149 65.3065 51.8125 65.2441 51.5549C65.1469 50.8152 65.0935 50.0705 65.0841 49.3245C65.1897 49.2797 65.2697 48.9773 65.0841 48.9949C64.7529 49.0269 64.2041 48.9501 64.0265 48.9949C63.8489 49.0397 63.8665 49.1997 63.9897 49.2349C63.9897 49.3869 63.9641 50.2749 63.8297 50.4973C63.6953 50.7197 63.9545 50.7373 63.9545 50.7373C63.9465 51.1645 63.9545 51.7949 63.7945 51.9293C63.6345 52.0637 63.7769 52.1869 64.0969 52.1869H65.2553C65.2553 52.1869 65.3593 52.0525 65.2553 52.0173Z" fill="#FEFEFE"/>
<path d="M27.5635 44.3692C27.5572 44.3706 27.5507 44.3706 27.5443 44.3692L22.1395 41.4396C22.1305 41.4342 22.1238 41.4256 22.1208 41.4155C22.1179 41.4054 22.1188 41.3946 22.1235 41.3852C22.126 41.3806 22.1295 41.3765 22.1335 41.3732C22.1376 41.3698 22.1424 41.3674 22.1474 41.3659C22.1525 41.3644 22.1578 41.3639 22.163 41.3645C22.1682 41.3651 22.1733 41.3667 22.1779 41.3692L27.5827 44.294C27.5873 44.2963 27.5914 44.2996 27.5947 44.3035C27.598 44.3075 27.6004 44.3121 27.6019 44.317C27.6034 44.3219 27.6039 44.3271 27.6034 44.3322C27.6028 44.3373 27.6012 44.3423 27.5987 44.3468C27.5955 44.3534 27.5905 44.359 27.5843 44.3629C27.5781 44.3669 27.5709 44.3691 27.5635 44.3692Z" fill="#FEFEFE"/>
<path d="M28.6751 42.537L22.1599 41.4426C22.1547 41.442 22.1497 41.4404 22.1452 41.4378C22.1407 41.4351 22.1368 41.4316 22.1338 41.4274C22.1308 41.4231 22.1287 41.4183 22.1277 41.4132C22.1266 41.4081 22.1267 41.4028 22.1279 41.3978C22.1281 41.3887 22.1313 41.3799 22.1371 41.373C22.143 41.366 22.151 41.3612 22.1599 41.3594L28.6767 42.4522C28.6872 42.4541 28.6965 42.46 28.7027 42.4687C28.709 42.4773 28.7117 42.488 28.7103 42.4986C28.7097 42.508 28.7058 42.517 28.6994 42.524C28.693 42.5309 28.6844 42.5355 28.6751 42.537Z" fill="#FEFEFE"/>
<path d="M27.679 47.097C27.6737 47.0972 27.6684 47.0964 27.6634 47.0944C27.6585 47.0925 27.654 47.0896 27.6502 47.0858L22.1286 41.4314C22.1213 41.4239 22.1172 41.4139 22.1172 41.4034C22.1172 41.3929 22.1213 41.3829 22.1286 41.3754C22.1322 41.3716 22.1366 41.3685 22.1414 41.3664C22.1462 41.3644 22.1514 41.3633 22.1566 41.3633C22.1619 41.3633 22.1671 41.3644 22.1719 41.3664C22.1767 41.3685 22.181 41.3716 22.1846 41.3754L27.7062 47.0298C27.71 47.0334 27.7131 47.0377 27.7152 47.0425C27.7173 47.0474 27.7183 47.0526 27.7183 47.0578C27.7183 47.063 27.7173 47.0682 27.7152 47.0731C27.7131 47.0779 27.71 47.0822 27.7062 47.0858C27.7028 47.0895 27.6985 47.0924 27.6938 47.0944C27.6892 47.0963 27.6841 47.0972 27.679 47.097Z" fill="#FEFEFE"/>
<path d="M22.8351 42.9071C22.8265 42.9068 22.8182 42.9039 22.8113 42.8988C22.8044 42.8936 22.7993 42.8864 22.7967 42.8783C22.7936 42.8683 22.7946 42.8575 22.7994 42.8483C22.8042 42.839 22.8124 42.832 22.8223 42.8287L23.3919 42.6399C23.3968 42.6381 23.402 42.6374 23.4072 42.6378C23.4124 42.6382 23.4175 42.6396 23.4222 42.642C23.4268 42.6444 23.4309 42.6477 23.4342 42.6517C23.4376 42.6558 23.44 42.6604 23.4415 42.6655C23.4451 42.6754 23.4446 42.6864 23.4401 42.696C23.4356 42.7056 23.4274 42.713 23.4175 42.7167L22.8479 42.9023L22.8351 42.9071Z" fill="#FEFEFE"/>
<path d="M24.9201 47.4095C24.9123 47.4095 24.9047 47.4073 24.8981 47.403C24.8916 47.3987 24.8865 47.3927 24.8833 47.3855L22.1233 41.4207C22.1209 41.416 22.1195 41.4109 22.1192 41.4056C22.1189 41.4003 22.1197 41.3951 22.1215 41.3901C22.1233 41.3852 22.1261 41.3806 22.1297 41.3768C22.1333 41.373 22.1377 41.37 22.1425 41.3679C22.1521 41.3635 22.163 41.3631 22.1729 41.3667C22.1828 41.3703 22.1908 41.3776 22.1953 41.3871L24.9553 47.3519C24.9577 47.3566 24.9591 47.3617 24.9595 47.367C24.9598 47.3722 24.959 47.3775 24.9572 47.3825C24.9554 47.3874 24.9526 47.392 24.949 47.3958C24.9454 47.3996 24.941 47.4026 24.9361 47.4047C24.9314 47.4078 24.9258 47.4094 24.9201 47.4095Z" fill="#FEFEFE"/>
<path d="M22.8527 46.3197C22.8433 46.3198 22.8342 46.3164 22.8271 46.3102C22.82 46.304 22.8155 46.2955 22.8143 46.2861L22.1199 41.4141C22.1175 41.4078 22.1166 41.4011 22.1175 41.3944C22.1184 41.3877 22.121 41.3814 22.125 41.3759C22.129 41.3705 22.1342 41.3662 22.1404 41.3633C22.1465 41.3605 22.1532 41.3593 22.1599 41.3597C22.1703 41.3583 22.1808 41.3611 22.1892 41.3674C22.1975 41.3737 22.2031 41.383 22.2047 41.3933L22.8991 46.2653C22.9005 46.2757 22.8977 46.2862 22.8915 46.2946C22.8852 46.303 22.8759 46.3085 22.8655 46.3101L22.8527 46.3197Z" fill="#FEFEFE"/>
<path d="M22.5704 44.329L22.1592 44.2714C22.154 44.2708 22.1489 44.2691 22.1444 44.2665C22.1398 44.2639 22.1358 44.2604 22.1327 44.2562C22.1295 44.252 22.1273 44.2472 22.1261 44.2421C22.1248 44.237 22.1247 44.2317 22.1256 44.2266C22.1262 44.2213 22.1278 44.2163 22.1304 44.2117C22.133 44.2072 22.1365 44.2032 22.1407 44.2001C22.1449 44.1969 22.1497 44.1947 22.1548 44.1934C22.1599 44.1922 22.1652 44.1921 22.1704 44.193L22.5816 44.2506C22.5922 44.2506 22.6024 44.2548 22.6099 44.2623C22.6174 44.2698 22.6216 44.28 22.6216 44.2906C22.6216 44.3012 22.6174 44.3113 22.6099 44.3188C22.6024 44.3263 22.5922 44.3306 22.5816 44.3306L22.5704 44.329Z" fill="#FEFEFE"/>
<path d="M22.5258 44.0284C22.517 44.0281 22.5086 44.0249 22.5017 44.0195C22.4948 44.014 22.4898 44.0065 22.4874 43.998C22.485 43.9878 22.4866 43.9771 22.492 43.9681C22.4974 43.9592 22.5061 43.9527 22.5162 43.95L23.2586 43.7628C23.2688 43.7604 23.2795 43.762 23.2885 43.7674C23.2975 43.7728 23.304 43.7815 23.3066 43.7916C23.3091 43.8018 23.3074 43.8125 23.302 43.8215C23.2966 43.8305 23.2879 43.837 23.2778 43.8396L22.537 44.0268L22.5258 44.0284Z" fill="#FEFEFE"/>
<path d="M23.7238 44.8223C23.7177 44.8225 23.7117 44.8213 23.7061 44.8188C23.7006 44.8163 23.6957 44.8126 23.6918 44.8079C23.688 44.8043 23.6849 44.8 23.6828 44.7951C23.6808 44.7903 23.6797 44.7851 23.6797 44.7799C23.6797 44.7746 23.6808 44.7694 23.6828 44.7646C23.6849 44.7598 23.688 44.7555 23.6918 44.7519L24.6838 43.9887C24.6874 43.9849 24.6917 43.9818 24.6966 43.9797C24.7014 43.9776 24.7066 43.9766 24.7118 43.9766C24.7171 43.9766 24.7222 43.9776 24.7271 43.9797C24.7319 43.9818 24.7362 43.9849 24.7398 43.9887C24.7471 43.9962 24.7512 44.0062 24.7512 44.0167C24.7512 44.0272 24.7471 44.0372 24.7398 44.0447L23.7494 44.8079C23.7464 44.8119 23.7425 44.8153 23.7381 44.8177C23.7337 44.8202 23.7288 44.8218 23.7238 44.8223Z" fill="#FEFEFE"/>
<path d="M24.3994 43.7419C24.3907 43.7422 24.3822 43.7393 24.3754 43.7339C24.3712 43.7308 24.3676 43.7268 24.365 43.7223C24.3623 43.7178 24.3605 43.7128 24.3598 43.7076C24.359 43.7024 24.3593 43.6971 24.3606 43.692C24.3619 43.6869 24.3642 43.6821 24.3674 43.6779L24.953 42.9115C24.9561 42.9073 24.9601 42.9038 24.9646 42.9011C24.9691 42.8984 24.9741 42.8967 24.9793 42.8959C24.9845 42.8952 24.9898 42.8955 24.9949 42.8968C25 42.8981 25.0048 42.9004 25.009 42.9035C25.0132 42.9067 25.0167 42.9106 25.0194 42.9151C25.0221 42.9196 25.0238 42.9247 25.0246 42.9299C25.0253 42.9351 25.025 42.9403 25.0237 42.9454C25.0224 42.9505 25.0201 42.9553 25.017 42.9595L24.4314 43.7275C24.4275 43.7322 24.4226 43.7359 24.417 43.7384C24.4115 43.7409 24.4055 43.7421 24.3994 43.7419Z" fill="#FEFEFE"/>
<path d="M25.8103 43.4208C25.805 43.42 25.8 43.4182 25.7955 43.4154C25.791 43.4126 25.7871 43.4089 25.7841 43.4046C25.7811 43.4002 25.7791 43.3953 25.778 43.3901C25.777 43.3849 25.7771 43.3796 25.7783 43.3744L26.0199 42.0512C26.0218 42.0408 26.0278 42.0316 26.0365 42.0256C26.0452 42.0196 26.0559 42.0173 26.0663 42.0192C26.0765 42.0215 26.0854 42.0275 26.0913 42.0361C26.0973 42.0447 26.0997 42.0552 26.0983 42.0656L25.8567 43.3888C25.8544 43.399 25.8483 43.4079 25.8397 43.4138C25.8311 43.4198 25.8206 43.4223 25.8103 43.4208Z" fill="#FEFEFE"/>
<path d="M25.4008 43.1985H25.3912C25.3811 43.1958 25.3724 43.1893 25.367 43.1803C25.3616 43.1714 25.36 43.1606 25.3624 43.1505L25.6712 41.9921C25.6718 41.9863 25.6736 41.9808 25.6765 41.9759C25.6794 41.9709 25.6833 41.9666 25.688 41.9633C25.6927 41.96 25.6981 41.9578 25.7037 41.9567C25.7094 41.9557 25.7152 41.9559 25.7207 41.9572C25.7263 41.9586 25.7315 41.9612 25.736 41.9648C25.7405 41.9684 25.7441 41.9729 25.7467 41.978C25.7493 41.9831 25.7508 41.9888 25.751 41.9945C25.7512 42.0002 25.7502 42.0059 25.748 42.0113L25.4408 43.1713C25.4378 43.1794 25.4324 43.1864 25.4252 43.1913C25.418 43.1961 25.4095 43.1987 25.4008 43.1985Z" fill="#FEFEFE"/>
<path d="M25.8305 45.1993C25.8232 45.2015 25.8154 45.2015 25.8081 45.1993C25.8037 45.1963 25.8001 45.1924 25.7972 45.188C25.7944 45.1835 25.7925 45.1785 25.7916 45.1733C25.7907 45.1681 25.7908 45.1628 25.792 45.1576C25.7932 45.1525 25.7954 45.1476 25.7985 45.1433L26.7009 43.8633C26.7035 43.8583 26.7071 43.8539 26.7116 43.8504C26.716 43.8469 26.7211 43.8444 26.7266 43.843C26.7321 43.8416 26.7378 43.8414 26.7434 43.8424C26.7489 43.8434 26.7542 43.8456 26.7589 43.8488C26.7636 43.852 26.7675 43.8561 26.7704 43.8609C26.7734 43.8657 26.7753 43.8711 26.776 43.8767C26.7767 43.8823 26.7762 43.888 26.7746 43.8934C26.773 43.8988 26.7702 43.9038 26.7665 43.9081L25.8641 45.1881C25.8596 45.1923 25.8543 45.1955 25.8485 45.1975C25.8427 45.1994 25.8365 45.2 25.8305 45.1993Z" fill="#FEFEFE"/>
<path d="M23.8987 43.2271C23.8919 43.2292 23.8847 43.2292 23.8779 43.2271C23.8691 43.2215 23.8628 43.2126 23.8604 43.2025C23.858 43.1923 23.8597 43.1816 23.8651 43.1727L24.2619 42.5455C24.2648 42.541 24.2686 42.5372 24.273 42.5342C24.2774 42.5312 24.2823 42.5292 24.2876 42.5281C24.2928 42.5271 24.2981 42.5271 24.3034 42.5281C24.3086 42.5292 24.3135 42.5313 24.3179 42.5343C24.3223 42.537 24.3261 42.5406 24.3291 42.5449C24.332 42.5492 24.3341 42.554 24.3351 42.5591C24.3362 42.5642 24.3362 42.5694 24.3352 42.5745C24.3341 42.5796 24.3321 42.5844 24.3291 42.5887L23.9323 43.2143C23.9284 43.2192 23.9232 43.223 23.9173 43.2253C23.9114 43.2275 23.9049 43.2282 23.8987 43.2271Z" fill="#FEFEFE"/>
<path d="M24.5881 42.7583C24.5823 42.7598 24.5763 42.7598 24.5705 42.7583C24.5611 42.7532 24.5541 42.7448 24.5508 42.7346C24.5476 42.7245 24.5483 42.7135 24.5529 42.7039L24.9641 41.8671C24.9661 41.8623 24.9692 41.8579 24.973 41.8543C24.9768 41.8507 24.9813 41.8479 24.9863 41.8461C24.9913 41.8443 24.9965 41.8435 25.0018 41.8438C25.007 41.8441 25.0122 41.8456 25.0169 41.8479C25.0218 41.8502 25.0262 41.8534 25.0298 41.8573C25.0335 41.8613 25.0363 41.866 25.0381 41.8711C25.0399 41.8761 25.0406 41.8815 25.0403 41.8869C25.0399 41.8923 25.0385 41.8975 25.0361 41.9023L24.6249 42.7391C24.6211 42.7454 24.6156 42.7505 24.6092 42.7539C24.6027 42.7573 24.5954 42.7588 24.5881 42.7583Z" fill="#FEFEFE"/>
<path d="M23.884 45.1742C23.875 45.1743 23.8663 45.1714 23.8593 45.1659C23.8522 45.1604 23.8472 45.1528 23.845 45.1441C23.8428 45.1355 23.8435 45.1264 23.8471 45.1182C23.8507 45.11 23.8569 45.1033 23.8648 45.099L25.0984 44.3998C25.1075 44.3946 25.1183 44.3932 25.1285 44.3959C25.1387 44.3986 25.1474 44.4052 25.1528 44.4142C25.1579 44.4238 25.1592 44.435 25.1562 44.4455C25.1532 44.456 25.1462 44.4649 25.1368 44.4702L23.9032 45.1694C23.8973 45.1727 23.8907 45.1744 23.884 45.1742Z" fill="#FEFEFE"/>
<path d="M27.2794 42.3041C27.2697 42.3039 27.2604 42.3002 27.2531 42.2938C27.2457 42.2873 27.2409 42.2785 27.2394 42.2689L27.1194 41.3185C27.1188 41.3133 27.1192 41.3079 27.1206 41.3029C27.1221 41.2978 27.1245 41.293 27.1278 41.2888C27.131 41.2847 27.1351 41.2812 27.1397 41.2786C27.1443 41.276 27.1494 41.2744 27.1546 41.2737C27.1599 41.2731 27.1652 41.2735 27.1703 41.2749C27.1754 41.2764 27.1802 41.2788 27.1843 41.282C27.1885 41.2853 27.192 41.2894 27.1945 41.294C27.1971 41.2986 27.1988 41.3037 27.1994 41.3089L27.3194 42.2593C27.3201 42.2646 27.3197 42.2699 27.3183 42.275C27.3169 42.2801 27.3145 42.2849 27.3112 42.2891C27.3079 42.2933 27.3039 42.2967 27.2992 42.2993C27.2946 42.3019 27.2895 42.3035 27.2842 42.3041H27.2794Z" fill="#FEFEFE"/>
<path d="M22.4485 43.4713C22.4408 43.4717 22.4332 43.4698 22.4266 43.4658C22.4201 43.4618 22.4148 43.4559 22.4117 43.4489C22.4073 43.439 22.4071 43.4277 22.4109 43.4175C22.4148 43.4073 22.4226 43.3991 22.4325 43.3945L22.9685 43.1513C22.9733 43.1481 22.9788 43.1459 22.9846 43.145C22.9903 43.1441 22.9962 43.1445 23.0018 43.1461C23.0075 43.1477 23.0126 43.1505 23.0171 43.1544C23.0215 43.1582 23.025 43.1629 23.0273 43.1683C23.0297 43.1736 23.0309 43.1794 23.0308 43.1853C23.0307 43.1911 23.0293 43.1968 23.0267 43.2021C23.0242 43.2073 23.0205 43.212 23.0159 43.2156C23.0114 43.2193 23.0061 43.2219 23.0005 43.2233L22.4645 43.4681L22.4485 43.4713Z" fill="#FEFEFE"/>
<path d="M55.2673 37.718C55.2589 37.7179 55.2508 37.7152 55.2439 37.7104C55.2371 37.7055 55.2318 37.6987 55.2289 37.6908C55.2253 37.6808 55.2258 37.6698 55.2303 37.6602C55.2348 37.6506 55.243 37.6432 55.2529 37.6396L67.1073 33.4796C67.1124 33.4779 67.1177 33.4773 67.123 33.4776C67.1283 33.478 67.1335 33.4794 67.1382 33.4818C67.143 33.4842 67.1472 33.4875 67.1507 33.4915C67.1542 33.4955 67.1569 33.5002 67.1585 33.5052C67.1602 33.5103 67.1609 33.5156 67.1605 33.5209C67.1601 33.5262 67.1587 33.5314 67.1564 33.5361C67.154 33.5409 67.1507 33.5451 67.1467 33.5486C67.1426 33.5521 67.138 33.5547 67.1329 33.5564L55.2801 37.7164L55.2673 37.718Z" fill="#FEFEFE"/>
<path d="M52.8274 35.1197C52.8173 35.1197 52.8076 35.1159 52.8002 35.1091C52.7928 35.1023 52.7882 35.0929 52.7874 35.0829C52.7868 35.0777 52.7871 35.0724 52.7886 35.0674C52.79 35.0624 52.7924 35.0577 52.7957 35.0537C52.799 35.0496 52.8031 35.0463 52.8077 35.0439C52.8124 35.0415 52.8174 35.04 52.8226 35.0397L67.1202 33.4797C67.1308 33.4787 67.1413 33.4818 67.1496 33.4884C67.1579 33.4949 67.1634 33.5044 67.165 33.5149C67.166 33.5254 67.1628 33.5359 67.1563 33.5442C67.1498 33.5526 67.1403 33.5581 67.1298 33.5597L52.8306 35.1197H52.8274Z" fill="#FEFEFE"/>
<path d="M62.6027 36.5593C62.5926 36.5587 62.583 36.5548 62.5755 36.5481L61.4939 35.5129C61.4865 35.5054 61.4824 35.4954 61.4824 35.4849C61.4824 35.4744 61.4865 35.4644 61.4939 35.4569C61.5016 35.4495 61.5119 35.4453 61.5227 35.4453C61.5334 35.4453 61.5437 35.4495 61.5515 35.4569L62.6331 36.4905C62.6369 36.4942 62.64 36.4987 62.6421 36.5036C62.6442 36.5086 62.6453 36.5139 62.6453 36.5193C62.6453 36.5247 62.6442 36.53 62.6421 36.5349C62.64 36.5399 62.6369 36.5444 62.6331 36.5481C62.6292 36.5522 62.6244 36.5553 62.6192 36.5572C62.6139 36.5592 62.6082 36.5599 62.6027 36.5593Z" fill="#FEFEFE"/>
<path d="M61.8093 34.1373C61.8009 34.1371 61.7927 34.1345 61.7858 34.1296C61.779 34.1248 61.7738 34.118 61.7709 34.1101L61.5197 33.3453C61.5163 33.3351 61.5171 33.324 61.5219 33.3144C61.5267 33.3048 61.5351 33.2975 61.5453 33.2941C61.5554 33.2907 61.5666 33.2915 61.5762 33.2963C61.5858 33.3011 61.5931 33.3095 61.5965 33.3197L61.8509 34.0845C61.854 34.0947 61.853 34.1056 61.8483 34.1152C61.8435 34.1247 61.8353 34.132 61.8253 34.1357L61.8093 34.1373Z" fill="#FEFEFE"/>
<path d="M54.3446 42.0399C54.338 42.0398 54.3315 42.0382 54.3257 42.0351C54.3199 42.0321 54.3148 42.0277 54.311 42.0223C54.3054 42.0133 54.3034 42.0025 54.3055 41.992C54.3076 41.9816 54.3136 41.9724 54.3222 41.9663L67.0982 33.4863C67.1071 33.4803 67.118 33.4782 67.1285 33.4803C67.139 33.4824 67.1483 33.4886 67.1542 33.4975C67.1602 33.5064 67.1623 33.5173 67.1602 33.5278C67.1581 33.5383 67.1519 33.5475 67.143 33.5535L54.367 42.0335C54.3604 42.0378 54.3526 42.04 54.3446 42.0399Z" fill="#FEFEFE"/>
<path d="M65.635 35.6379H65.627L64.379 35.3723C64.3739 35.3712 64.369 35.369 64.3647 35.366C64.3604 35.363 64.3567 35.3591 64.3539 35.3546C64.3511 35.3502 64.3492 35.3452 64.3482 35.34C64.3473 35.3348 64.3475 35.3295 64.3486 35.3243C64.3498 35.3192 64.3519 35.3143 64.355 35.31C64.358 35.3057 64.3619 35.302 64.3663 35.2992C64.3708 35.2964 64.3758 35.2945 64.381 35.2936C64.3862 35.2927 64.3915 35.2928 64.3966 35.2939L65.643 35.5595C65.6483 35.5605 65.6534 35.5625 65.6579 35.5655C65.6624 35.5684 65.6663 35.5722 65.6693 35.5767C65.6722 35.5812 65.6743 35.5863 65.6753 35.5915C65.6763 35.5968 65.6762 35.6023 65.675 35.6075C65.6726 35.6163 65.6674 35.624 65.6601 35.6295C65.6529 35.635 65.6441 35.6379 65.635 35.6379Z" fill="#FEFEFE"/>
<path d="M61.0664 42.0395C61.0579 42.039 61.0496 42.0363 61.0424 42.0315C61.0381 42.0285 61.0344 42.0246 61.0316 42.0201C61.0288 42.0157 61.0269 42.0107 61.026 42.0055C61.0251 42.0003 61.0252 41.995 61.0264 41.9898C61.0276 41.9847 61.0298 41.9798 61.0328 41.9755L67.0888 33.4955C67.0952 33.487 67.1047 33.4814 67.1152 33.4799C67.1257 33.4784 67.1363 33.4811 67.1448 33.4875C67.1533 33.4939 67.1589 33.5033 67.1604 33.5138C67.1619 33.5243 67.1592 33.535 67.1528 33.5435L61.0984 42.0235C61.0946 42.0284 61.0898 42.0323 61.0842 42.0351C61.0787 42.0379 61.0726 42.0394 61.0664 42.0395Z" fill="#FEFEFE"/>
<path d="M65.5977 40.4845H65.5881C65.5829 40.4833 65.578 40.4812 65.5737 40.4782C65.5694 40.4751 65.5657 40.4713 65.5628 40.4668C65.56 40.4623 65.5581 40.4574 65.5572 40.4522C65.5563 40.4469 65.5565 40.4416 65.5577 40.4365L67.0825 33.5197C67.0834 33.5146 67.0854 33.5097 67.0882 33.5054C67.0911 33.5011 67.0948 33.4974 67.0992 33.4946C67.1035 33.4917 67.1084 33.4898 67.1135 33.4889C67.1186 33.488 67.1238 33.4881 67.1288 33.4893C67.1339 33.4902 67.1388 33.4922 67.1431 33.4951C67.1474 33.4979 67.1511 33.5016 67.154 33.506C67.1568 33.5103 67.1587 33.5152 67.1596 33.5203C67.1606 33.5254 67.1604 33.5306 67.1592 33.5357L65.6361 40.4621C65.6328 40.4693 65.6273 40.4754 65.6204 40.4794C65.6135 40.4834 65.6056 40.4852 65.5977 40.4845Z" fill="#FEFEFE"/>
<path d="M66.2179 37.6609C66.208 37.6614 66.1982 37.658 66.1908 37.6514C66.1833 37.6448 66.1787 37.6356 66.1779 37.6257C66.177 37.615 66.1803 37.6042 66.1872 37.5959C66.1941 37.5875 66.2039 37.5822 66.2147 37.5809L67.1171 37.4993C67.1223 37.4987 67.1275 37.4991 67.1325 37.5005C67.1375 37.5019 67.1422 37.5044 67.1462 37.5077C67.1503 37.5109 67.1536 37.515 67.156 37.5197C67.1584 37.5243 67.1599 37.5293 67.1603 37.5345C67.1612 37.5453 67.1578 37.556 67.151 37.5644C67.1441 37.5728 67.1342 37.5781 67.1235 37.5793L66.2211 37.6609H66.2179Z" fill="#FEFEFE"/>
<path d="M66.3196 37.2333L64.694 36.9677L62.7964 36.4301C62.7862 36.4272 62.7776 36.4203 62.7725 36.411C62.7674 36.4017 62.7662 36.3907 62.7692 36.3805C62.7722 36.3703 62.779 36.3616 62.7882 36.3562C62.7975 36.3509 62.8084 36.3492 62.8188 36.3517L64.7116 36.8893L66.3196 37.1549C66.3299 37.1565 66.3392 37.1621 66.3455 37.1705C66.3518 37.1788 66.3546 37.1893 66.3532 37.1997C66.3515 37.208 66.3474 37.2156 66.3414 37.2216C66.3354 37.2275 66.3278 37.2316 66.3196 37.2333Z" fill="#FEFEFE"/>
<path d="M63.6886 38.3629H63.671L61.4982 37.2781C61.4889 37.273 61.4819 37.2645 61.4786 37.2544C61.4753 37.2443 61.476 37.2333 61.4806 37.2237C61.4854 37.2145 61.4936 37.2075 61.5034 37.2042C61.5133 37.2009 61.524 37.2016 61.5334 37.2061L63.7078 38.2909C63.717 38.2957 63.724 38.3039 63.7273 38.3137C63.7306 38.3236 63.7299 38.3343 63.7254 38.3437C63.7216 38.3499 63.7162 38.3551 63.7097 38.3584C63.7032 38.3618 63.6959 38.3634 63.6886 38.3629Z" fill="#FEFEFE"/>
<path d="M62.1964 36.8272C62.1876 36.8303 62.178 36.8303 62.1692 36.8272L60.8892 35.736C60.8853 35.7323 60.8822 35.7278 60.8801 35.7229C60.878 35.7179 60.877 35.7126 60.877 35.7072C60.877 35.7018 60.878 35.6965 60.8801 35.6916C60.8822 35.6866 60.8853 35.6822 60.8892 35.6784C60.8967 35.6711 60.9067 35.667 60.9172 35.667C60.9277 35.667 60.9377 35.6711 60.9452 35.6784L62.2252 36.768C62.2326 36.7758 62.2368 36.7861 62.2368 36.7968C62.2368 36.8076 62.2326 36.8179 62.2252 36.8256C62.2162 36.8299 62.2058 36.8305 62.1964 36.8272Z" fill="#FEFEFE"/>
<path d="M59.1195 36.3691C59.1109 36.3691 59.1024 36.3663 59.0955 36.3611C59.0886 36.3559 59.0835 36.3486 59.0811 36.3403L58.5515 34.4587C58.5495 34.4535 58.5486 34.4479 58.5489 34.4423C58.5492 34.4367 58.5506 34.4312 58.5531 34.4262C58.5557 34.4212 58.5592 34.4168 58.5636 34.4133C58.5679 34.4097 58.573 34.4072 58.5784 34.4057C58.5838 34.4042 58.5894 34.4039 58.595 34.4048C58.6005 34.4056 58.6058 34.4076 58.6105 34.4107C58.6152 34.4137 58.6192 34.4177 58.6223 34.4224C58.6254 34.4271 58.6274 34.4324 58.6283 34.4379L59.1579 36.3179C59.1604 36.3283 59.1588 36.3392 59.1534 36.3485C59.1481 36.3577 59.1394 36.3645 59.1291 36.3675L59.1195 36.3691Z" fill="#FEFEFE"/>
<path d="M60.0098 36.0541C60.0018 36.054 59.9941 36.0515 59.9875 36.0469C59.9809 36.0424 59.9759 36.036 59.973 36.0285L59.2978 34.3821C59.294 34.3723 59.294 34.3614 59.2978 34.3516C59.3017 34.3418 59.3091 34.3338 59.3186 34.3293C59.3235 34.3272 59.3288 34.3262 59.3342 34.3262C59.3395 34.3262 59.3448 34.3273 59.3498 34.3294C59.3547 34.3314 59.3591 34.3345 59.3629 34.3383C59.3666 34.3422 59.3695 34.3467 59.3714 34.3517L60.0466 35.9981C60.0487 36.003 60.0498 36.0083 60.0498 36.0137C60.0497 36.019 60.0487 36.0243 60.0466 36.0292C60.0445 36.0342 60.0414 36.0386 60.0376 36.0423C60.0338 36.0461 60.0292 36.049 60.0242 36.0509L60.0098 36.0541Z" fill="#FEFEFE"/>
<path d="M59.0657 38.9053C59.0594 38.9053 59.0533 38.9038 59.0478 38.9011C59.0422 38.8983 59.0374 38.8942 59.0336 38.8893L57.5392 36.8941C57.5361 36.8899 57.5338 36.8851 57.5325 36.88C57.5312 36.8749 57.5309 36.8696 57.5317 36.8644C57.5324 36.8592 57.5342 36.8542 57.5368 36.8497C57.5395 36.8452 57.5431 36.8412 57.5473 36.8381C57.5515 36.8349 57.5562 36.8326 57.5613 36.8313C57.5664 36.83 57.5717 36.8297 57.5769 36.8305C57.5821 36.8312 57.5871 36.833 57.5916 36.8357C57.5962 36.8383 57.6001 36.8419 57.6032 36.8461L59.0976 38.8413C59.1008 38.8455 59.1031 38.8503 59.1044 38.8554C59.1057 38.8604 59.106 38.8657 59.1053 38.8709C59.1045 38.8761 59.1027 38.8811 59.1001 38.8857C59.0974 38.8902 59.0939 38.8941 59.0896 38.8973C59.0826 38.9023 59.0743 38.9051 59.0657 38.9053Z" fill="#FEFEFE"/>
<path d="M63.2998 36.0943C63.2914 36.0921 63.284 36.087 63.279 36.0799L62.4086 35.1903C62.4048 35.1867 62.4017 35.1824 62.3996 35.1776C62.3976 35.1728 62.3965 35.1676 62.3965 35.1623C62.3965 35.1571 62.3976 35.1519 62.3996 35.1471C62.4017 35.1422 62.4048 35.1379 62.4086 35.1343C62.4123 35.1304 62.4168 35.1274 62.4218 35.1253C62.4267 35.1232 62.432 35.1221 62.4374 35.1221C62.4428 35.1221 62.4481 35.1232 62.4531 35.1253C62.458 35.1274 62.4625 35.1304 62.4662 35.1343L63.335 36.0255C63.3403 36.0312 63.3438 36.0383 63.3451 36.0459C63.3464 36.0535 63.3455 36.0614 63.3424 36.0685C63.3394 36.0756 63.3343 36.0817 63.3279 36.086C63.3215 36.0903 63.3139 36.0926 63.3062 36.0927L63.2998 36.0943Z" fill="#FEFEFE"/>
<path d="M61.7924 35.4282C61.7862 35.4282 61.78 35.4268 61.7745 35.424C61.7689 35.4213 61.7641 35.4172 61.7604 35.4123L60.8596 34.2203C60.8564 34.216 60.8541 34.2113 60.8528 34.2062C60.8515 34.2011 60.8512 34.1958 60.852 34.1906C60.8527 34.1854 60.8545 34.1804 60.8571 34.1759C60.8598 34.1714 60.8634 34.1674 60.8676 34.1642C60.8718 34.1611 60.8765 34.1588 60.8816 34.1575C60.8867 34.1562 60.892 34.1559 60.8972 34.1567C60.9024 34.1574 60.9074 34.1592 60.9119 34.1618C60.9165 34.1645 60.9204 34.168 60.9236 34.1723L61.8244 35.3642C61.8317 35.3717 61.8358 35.3818 61.8358 35.3923C61.8358 35.4027 61.8317 35.4128 61.8244 35.4203C61.8152 35.427 61.8037 35.4299 61.7924 35.4282Z" fill="#FEFEFE"/>
<path d="M63.3343 38.8624H63.3199L60.6143 37.8672C60.6043 37.8636 60.5962 37.8562 60.5917 37.8466C60.5872 37.837 60.5867 37.826 60.5903 37.816C60.5942 37.8063 60.6017 37.7984 60.6112 37.794C60.6207 37.7895 60.6315 37.7888 60.6415 37.792L63.3471 38.7872C63.3554 38.7907 63.3623 38.7969 63.3666 38.8048C63.371 38.8127 63.3725 38.8218 63.3711 38.8307C63.3696 38.8396 63.3651 38.8477 63.3585 38.8537C63.3518 38.8598 63.3433 38.8634 63.3343 38.864V38.8624Z" fill="#FEFEFE"/>
<path d="M55.8861 34.7823H55.8781C55.8679 34.78 55.859 34.774 55.8531 34.7654C55.8471 34.7568 55.8447 34.7463 55.8461 34.7359L56.1117 33.3839C56.1127 33.3788 56.1146 33.374 56.1175 33.3697C56.1204 33.3653 56.1241 33.3617 56.1284 33.3588C56.1328 33.356 56.1376 33.354 56.1427 33.3531C56.1478 33.3522 56.1531 33.3524 56.1581 33.3535C56.1633 33.3543 56.1684 33.3561 56.1729 33.3589C56.1774 33.3617 56.1812 33.3654 56.1843 33.3697C56.1873 33.3741 56.1893 33.379 56.1903 33.3842C56.1913 33.3894 56.1913 33.3948 56.1901 33.3999L55.9197 34.7487C55.918 34.757 55.9139 34.7646 55.9079 34.7706C55.902 34.7765 55.8944 34.7806 55.8861 34.7823Z" fill="#FEFEFE"/>
<path d="M66.4798 36.4427L65.3038 36.0955C65.2939 36.0921 65.2856 36.0852 65.2805 36.076C65.2755 36.0668 65.2741 36.056 65.2766 36.0459C65.2781 36.0406 65.2806 36.0358 65.284 36.0315C65.2874 36.0273 65.2916 36.0238 65.2964 36.0213C65.3012 36.0187 65.3064 36.0172 65.3119 36.0167C65.3173 36.0163 65.3227 36.0169 65.3278 36.0187L66.5038 36.3659C66.5089 36.3673 66.5136 36.3698 66.5177 36.3731C66.5218 36.3764 66.5252 36.3804 66.5277 36.385C66.5302 36.3896 66.5318 36.3947 66.5324 36.3999C66.533 36.4051 66.5325 36.4104 66.531 36.4155C66.5277 36.4258 66.5205 36.4344 66.511 36.4394C66.5014 36.4445 66.4902 36.4457 66.4798 36.4427Z" fill="#FEFEFE"/>
<path d="M64.7209 64.7694C64.3641 64.083 64.1033 64.0974 63.8729 63.9774C63.6425 63.8574 63.9545 63.3822 64.3929 63.4974C64.8313 63.6126 65.0649 64.4926 64.9737 64.7662C64.7209 64.931 64.7209 64.7694 64.7209 64.7694Z" fill="#FEFEFE"/>
<path d="M64.863 69.36C64.4835 69.3667 64.1039 69.3475 63.727 69.3024C63.2214 69.2336 62.5238 69.0736 62.2102 68.7712C61.2502 67.872 61.2502 66.1648 62.2102 65.2656C62.5302 64.9632 63.2214 64.8032 63.727 64.7344C64.104 64.6896 64.4835 64.6709 64.863 64.6784C65.2425 64.6709 65.6221 64.6896 65.999 64.7344C66.5046 64.8032 67.2022 64.9632 67.5142 65.2656C68.4822 66.1648 68.4822 67.872 67.5142 68.7712C67.2022 69.0736 66.5046 69.2336 65.999 69.3024C65.6221 69.3475 65.2426 69.3667 64.863 69.36Z" fill="#031A6B"/>
<path opacity="0.1" d="M64.863 69.3593C64.3558 69.3593 63.1942 69.0393 62.6998 68.4521C62.4106 68.0297 62.2559 67.5297 62.2559 67.0177C62.2559 66.5058 62.4106 66.0058 62.6998 65.5833C63.1942 64.9977 64.3558 64.6761 64.863 64.6777C65.3702 64.6777 66.5318 64.9977 67.0262 65.5833C67.3154 66.0058 67.4702 66.5058 67.4702 67.0177C67.4702 67.5297 67.3154 68.0297 67.0262 68.4521C66.5318 69.0393 65.3702 69.3593 64.863 69.3593Z" fill="#0F0F0F"/>
<path opacity="0.1" d="M64.8635 69.3593C64.576 69.3474 64.3009 69.2389 64.0825 69.0514C63.8642 68.8638 63.7155 68.6082 63.6603 68.3257C63.5611 67.4566 63.5611 66.5789 63.6603 65.7097C63.7158 65.4276 63.8647 65.1723 64.083 64.9851C64.3012 64.7979 64.5762 64.6896 64.8635 64.6777C65.1509 64.6896 65.4258 64.7979 65.6441 64.9851C65.8624 65.1723 66.0113 65.4276 66.0667 65.7097C66.1643 66.579 66.1643 67.4565 66.0667 68.3257C66.0116 68.6082 65.8628 68.8638 65.6445 69.0514C65.4262 69.2389 65.1511 69.3474 64.8635 69.3593Z" fill="#0F0F0F"/>
<path d="M64.8621 66.8623L65.1773 67.3439H64.5469L64.8621 66.8623Z" fill="#5F5F5F"/>
<path d="M62.748 67.5471L62.8808 67.9134L63.4856 67.8974L63.8216 68.3998L64.3896 68.1919L64.8632 68.5678L65.3368 68.1919L65.9048 68.3998L66.2408 67.8974L66.8456 67.9134L66.9784 67.5486L66.604 67.4062L66.2456 67.8398L65.7464 67.5774L65.3256 67.9519L64.8632 67.6286L64.4008 67.9519L63.98 67.5774L63.4808 67.8398L63.1208 67.4062L62.748 67.5471Z" fill="#5F5F5F"/>
<path d="M65.3359 66.465L66.9775 65.9482C66.9775 65.9482 66.7999 67.0986 65.3359 66.465Z" fill="#5F5F5F"/>
<path d="M64.388 66.465L62.748 65.9482C62.748 65.9482 62.9256 67.0986 64.388 66.465Z" fill="#5F5F5F"/>
<path d="M17.0694 65.0558C16.9382 64.4046 16.7814 64.3982 16.6582 64.2718C16.535 64.1454 16.7766 63.739 17.023 63.8798C17.2694 64.0206 17.3046 64.8398 17.2182 65.075C17.0534 65.1998 17.0694 65.0558 17.0694 65.0558Z" fill="#FEFEFE"/>
<path d="M17.3125 65.1258C17.5781 64.7338 17.7077 64.769 17.8389 64.7178C17.9701 64.6666 17.8709 64.3402 17.6357 64.369C17.4005 64.3978 17.1733 64.921 17.1861 65.1002C17.2885 65.225 17.3125 65.1258 17.3125 65.1258Z" fill="#FEFEFE"/>
<path d="M17.2614 69.1839C16.914 69.1919 16.5664 69.1748 16.2214 69.1327C15.7606 69.0703 15.1222 68.9231 14.8374 68.6527C13.9526 67.8303 13.9526 66.2687 14.8374 65.4527C15.1222 65.1775 15.7606 65.0303 16.2214 64.9727C16.5665 64.9314 16.914 64.9143 17.2614 64.9215C17.6083 64.9144 17.9553 64.9315 18.2998 64.9727C18.7606 65.0367 19.399 65.1823 19.6854 65.4527C20.5702 66.2751 20.5702 67.8367 19.6854 68.6527C19.399 68.9279 18.7622 69.0751 18.2998 69.1327C17.9553 69.1739 17.6083 69.1911 17.2614 69.1839Z" fill="#031A6B"/>
<path opacity="0.1" d="M17.2622 69.1837C16.7982 69.1837 15.7358 68.8909 15.2846 68.3565C15.0203 67.9703 14.8789 67.5132 14.8789 67.0453C14.8789 66.5773 15.0203 66.1203 15.2846 65.7341C15.7358 65.1981 16.7982 64.9037 17.2622 64.9053C17.7246 64.9053 18.787 65.1981 19.2398 65.7341C19.5041 66.1203 19.6456 66.5773 19.6456 67.0453C19.6456 67.5132 19.5041 67.9703 19.2398 68.3565C18.787 68.8909 17.7246 69.1853 17.2622 69.1837Z" fill="#0F0F0F"/>
<path opacity="0.1" d="M17.2613 69.1837C16.9984 69.1736 16.7467 69.0748 16.5471 68.9034C16.3475 68.732 16.2118 68.498 16.1621 68.2397C16.071 67.4455 16.071 66.6435 16.1621 65.8493C16.2118 65.5909 16.3475 65.357 16.5471 65.1856C16.7467 65.0141 16.9984 64.9154 17.2613 64.9053C17.5242 64.9156 17.7758 65.0145 17.9753 65.1859C18.1748 65.3573 18.3106 65.591 18.3605 65.8493C18.4501 66.6436 18.4501 67.4454 18.3605 68.2397C18.3106 68.4979 18.1748 68.7317 17.9753 68.903C17.7758 69.0744 17.5242 69.1733 17.2613 69.1837Z" fill="#0F0F0F"/>
<path d="M19.274 68.0428L19.1476 67.6956L18.5716 67.71L18.2532 67.2332L17.7124 67.43L17.2612 67.0732L16.8116 67.43L16.2708 67.2332L15.9508 67.71L15.3764 67.6956L15.25 68.0428L15.6052 68.1772L15.9476 67.766L16.4212 68.0156L16.8228 67.6588L17.2612 67.966L17.7012 67.6588L18.1012 68.0156L18.5764 67.766L18.9188 68.1772L19.274 68.0428Z" fill="#5F5F5F"/>
<path d="M17.6953 66.5504L19.1945 65.8672C19.1945 65.8672 19.0313 67.3872 17.6953 66.5504Z" fill="#5F5F5F"/>
<path d="M16.827 66.5504L15.3262 65.8672C15.3262 65.8672 15.4894 67.3872 16.827 66.5504Z" fill="#5F5F5F"/>
<path d="M41.5655 44.6875C41.1968 44.9988 40.7823 45.2514 40.3367 45.4363L40.2103 45.3355L40.1847 45.4955L40.1127 45.5243L40.0407 45.5515L39.9095 45.4459L39.8855 45.6059C39.4316 45.7715 38.9552 45.867 38.4727 45.8891C38.4727 45.8891 38.9063 45.9467 38.9879 46.3019C39.3911 46.1147 39.7335 46.2123 39.9047 46.4699C39.9734 46.3642 40.0563 46.2683 40.1511 46.1851C40.2359 46.2987 40.3415 46.3579 40.4263 46.3243C40.5111 46.2907 40.5495 46.1755 40.5335 46.0347C40.6597 46.0313 40.7857 46.0459 40.9079 46.0779C40.8599 45.7707 41.0439 45.4683 41.4679 45.3323C41.2855 45.0235 41.5655 44.6875 41.5655 44.6875Z" fill="#5F5F5F"/>
<path d="M26.5971 50.5757C26.0787 50.6428 25.5531 50.6299 25.0387 50.5373L24.9827 50.3773L24.8627 50.5133L24.7795 50.4973L24.6979 50.4797L24.6403 50.3085L24.5235 50.4397C24.0136 50.3246 23.5243 50.1325 23.0723 49.8701C23.0723 49.8701 23.4339 50.1773 23.2995 50.5485C23.7795 50.6141 24.0291 50.9021 24.0355 51.2381C24.1598 51.1823 24.2911 51.1436 24.4259 51.1229C24.4355 51.2749 24.4995 51.3917 24.5955 51.4109C24.6915 51.4301 24.7939 51.3485 24.8627 51.2109C24.9804 51.2821 25.088 51.3687 25.1827 51.4685C25.3187 51.1613 25.6627 50.9885 26.1283 51.1197C26.1443 50.7181 26.5971 50.5757 26.5971 50.5757Z" fill="#5F5F5F"/>
<path d="M32.5735 22.1391C32.0506 22.1386 31.5309 22.0576 31.0327 21.8991L30.9991 21.7279L30.8631 21.8463L30.7831 21.8207L30.7031 21.7919L30.6679 21.6143L30.5367 21.7295C30.0458 21.5505 29.5854 21.2969 29.1719 20.9775C29.1719 20.9775 29.4919 21.3279 29.3079 21.6799C29.7719 21.8063 29.9863 22.1247 29.9479 22.4591C30.0781 22.4193 30.2133 22.3978 30.3495 22.3951C30.3399 22.5471 30.3879 22.6719 30.4807 22.7023C30.5735 22.7327 30.6855 22.6655 30.7703 22.5423C30.8773 22.6271 30.9716 22.7268 31.0503 22.8383C31.2247 22.5519 31.5895 22.4303 32.0343 22.6143C32.1063 22.2223 32.5735 22.1391 32.5735 22.1391Z" fill="#5F5F5F"/>
<path d="M48.5187 21.8027C47.7992 22.2051 47.0221 22.4944 46.2147 22.6603L46.0339 22.4491L45.9379 22.7195L45.8083 22.7435L45.6771 22.7675L45.4915 22.5483L45.3987 22.8107C44.5845 22.9414 43.7552 22.9468 42.9395 22.8267C42.9395 22.8267 43.6483 23.0635 43.6691 23.6875C44.4067 23.5035 44.9491 23.7771 45.1523 24.2651C45.3017 24.1102 45.4718 23.9766 45.6579 23.8683C45.7619 24.0859 45.9219 24.2187 46.0739 24.1883C46.2259 24.1579 46.3283 23.9787 46.3475 23.7387C46.5597 23.7739 46.7659 23.8386 46.9603 23.9307C46.9795 23.4011 47.3875 22.9531 48.1427 22.8635C47.9411 22.2763 48.5187 21.8027 48.5187 21.8027Z" fill="#5F5F5F"/>
<path d="M50.7833 38.8979C50.131 38.9586 49.4733 38.9192 48.8329 38.7811L48.7689 38.5699L48.6089 38.7299L48.5065 38.7075L48.4041 38.6819L48.3385 38.4643L48.1865 38.6243C47.5529 38.4585 46.9484 38.1963 46.3945 37.8467C46.3945 37.8467 46.8329 38.2467 46.6489 38.7075C47.2441 38.8099 47.5481 39.1875 47.5417 39.6019C47.7 39.5377 47.8664 39.4957 48.0361 39.4771C48.0361 39.6675 48.1145 39.8163 48.2345 39.8451C48.3545 39.8739 48.4873 39.7731 48.5785 39.6051C48.7213 39.6989 48.8505 39.812 48.9625 39.9411C49.1465 39.5635 49.5865 39.3683 50.1625 39.5459C50.2105 39.0563 50.7833 38.8979 50.7833 38.8979Z" fill="#5F5F5F"/>
<path d="M56.0872 54.622C48.212 54.622 42.6664 52.382 42.6088 52.3644C42.5983 52.3602 42.5888 52.354 42.5807 52.3461C42.5726 52.3382 42.5661 52.3287 42.5617 52.3183C42.5572 52.3079 42.5548 52.2968 42.5547 52.2855C42.5546 52.2741 42.5566 52.2629 42.5608 52.2524C42.5651 52.2419 42.5713 52.2323 42.5792 52.2242C42.5871 52.2161 42.5965 52.2097 42.6069 52.2052C42.6173 52.2008 42.6285 52.1984 42.6398 52.1982C42.6511 52.1981 42.6623 52.2002 42.6729 52.2044C42.7337 52.2284 48.7896 54.6668 57.2328 54.4332C66.2536 54.1852 69.9785 52.2268 70.0153 52.2076C70.0347 52.1992 70.0566 52.1985 70.0766 52.2055C70.0967 52.2125 70.1133 52.2267 70.1234 52.2454C70.1334 52.2641 70.1361 52.2858 70.1309 52.3064C70.1257 52.3269 70.113 52.3448 70.0953 52.3564C70.0585 52.3756 66.2984 54.3516 57.2376 54.5964C56.8462 54.6145 56.4627 54.6231 56.0872 54.622Z" fill="#5F5F5F"/>
<path d="M44.1556 52.6318L45.8292 53.0718L44.0996 55.7374L44.1556 52.6318Z" fill="#5F5F5F"/>
<path d="M48.4688 53.6895L50.1727 53.9903L48.6687 56.7887L48.4688 53.6895Z" fill="#FEFEFE"/>
<path d="M54.1562 54.292L55.8858 54.3448L54.7978 57.3304L54.1562 54.292Z" fill="#5F5F5F"/>
<path d="M65.6562 53.3663L67.3587 53.0527L66.9251 56.1999L65.6562 53.3663Z" fill="#5F5F5F"/>
<path d="M58.9473 54.2127L60.6705 54.0527L59.9553 57.1487L58.9473 54.2127Z" fill="#FEFEFE"/>
<path d="M35.2435 56.3998C35.1555 55.7438 34.4787 55.2942 33.7315 55.395C32.9843 55.4958 32.4515 56.1102 32.5411 56.7662C32.564 56.93 32.623 57.0867 32.7138 57.225C32.8045 57.3634 32.9248 57.4799 33.0659 57.5662C33.0612 57.5759 33.0574 57.5861 33.0547 57.5966C33.0291 57.6958 33.1171 57.7998 33.2595 57.8478V57.9006C33.2726 57.9823 33.3118 58.0576 33.3712 58.1153C33.4305 58.173 33.507 58.2099 33.5891 58.2206L33.6019 58.307C33.6029 58.3146 33.6053 58.3219 33.6092 58.3285C33.613 58.3351 33.6182 58.3409 33.6243 58.3456C33.6304 58.3502 33.6373 58.3535 33.6448 58.3554C33.6522 58.3573 33.6599 58.3577 33.6675 58.3566L33.7907 58.3406C33.7983 58.3396 33.8056 58.3371 33.8122 58.3333C33.8188 58.3294 33.8246 58.3243 33.8293 58.3182C33.8339 58.3121 33.8372 58.3051 33.8391 58.2977C33.841 58.2903 33.8414 58.2826 33.8403 58.275L33.8307 58.2014L33.9731 58.1822L33.9843 58.2558C33.9851 58.2633 33.9874 58.2706 33.991 58.2772C33.9947 58.2838 33.9997 58.2896 34.0057 58.2943C34.0117 58.2989 34.0185 58.3023 34.0258 58.3042C34.0332 58.3061 34.0408 58.3065 34.0483 58.3054L34.1731 58.2894C34.1807 58.2884 34.188 58.2859 34.1946 58.2821C34.2012 58.2782 34.207 58.2731 34.2117 58.267C34.2163 58.2609 34.2196 58.2539 34.2215 58.2465C34.2234 58.2391 34.2238 58.2314 34.2227 58.2238L34.2131 58.1502L34.3555 58.131L34.3651 58.2046C34.3661 58.2122 34.3685 58.2195 34.3724 58.2261C34.3762 58.2327 34.3814 58.2385 34.3875 58.2432C34.3936 58.2478 34.4005 58.2511 34.408 58.253C34.4154 58.2549 34.4231 58.2553 34.4307 58.2542L34.5539 58.2366C34.569 58.2346 34.5828 58.2268 34.5923 58.2149C34.6019 58.2029 34.6065 58.1878 34.6051 58.1726L34.5923 58.0846C34.6698 58.0525 34.7345 57.9958 34.7765 57.9232C34.8184 57.8506 34.8352 57.7661 34.8243 57.683V57.6286C34.9475 57.5454 35.0051 57.4222 34.9539 57.3326C34.9496 57.3263 34.9448 57.3204 34.9395 57.315C35.0551 57.1947 35.1424 57.0501 35.195 56.8918C35.2476 56.7334 35.2642 56.5653 35.2435 56.3998Z" fill="#5F5F5F"/>
<path d="M33.6252 56.8624C33.5996 56.9776 33.4476 57.0416 33.286 57.0064C33.1244 56.9712 33.0124 56.8464 33.0364 56.7344C33.0604 56.6224 33.214 56.5552 33.3756 56.5904C33.5372 56.6256 33.6492 56.7472 33.6252 56.8624Z" fill="#FEFEFE"/>
<path d="M34.7426 56.5038C34.7986 56.6078 34.7234 56.755 34.5826 56.8318C34.5271 56.8717 34.4585 56.8889 34.3907 56.88C34.323 56.8711 34.2611 56.8367 34.2178 56.7838C34.1618 56.6798 34.237 56.5326 34.3778 56.4542C34.4335 56.4145 34.5023 56.3975 34.5701 56.4067C34.6378 56.416 34.6996 56.4507 34.7426 56.5038Z" fill="#FEFEFE"/>
<path d="M29.5007 60.3149C29.5887 60.9709 30.2655 61.4221 31.0127 61.3213C31.7599 61.2205 32.2927 60.6061 32.2031 59.9501C32.1794 59.7865 32.1201 59.63 32.0294 59.4918C31.9387 59.3536 31.8189 59.237 31.6783 59.1501C31.6834 59.141 31.6871 59.1313 31.6895 59.1213C31.7151 59.0205 31.6271 58.9165 31.4847 58.8701V58.8157C31.4721 58.7337 31.433 58.6581 31.3736 58.6004C31.3141 58.5426 31.2373 58.5058 31.1551 58.4957L31.1423 58.4076C31.1413 58.4001 31.1388 58.3927 31.135 58.3861C31.1311 58.3795 31.126 58.3737 31.1199 58.3691C31.1138 58.3645 31.1068 58.3611 31.0994 58.3592C31.092 58.3573 31.0842 58.3569 31.0767 58.358L30.9535 58.3757C30.9459 58.3764 30.9386 58.3787 30.932 58.3824C30.9254 58.3861 30.9196 58.3911 30.915 58.397C30.9103 58.403 30.907 58.4099 30.9051 58.4172C30.9031 58.4245 30.9027 58.4322 30.9039 58.4397L30.9135 58.5132L30.7711 58.5324L30.7599 58.4605C30.7579 58.4453 30.7501 58.4315 30.7382 58.422C30.7262 58.4124 30.7111 58.4079 30.6959 58.4092L30.5711 58.4269C30.5635 58.4278 30.5561 58.4303 30.5495 58.4342C30.5429 58.438 30.5371 58.4431 30.5325 58.4492C30.5279 58.4553 30.5245 58.4623 30.5226 58.4697C30.5207 58.4772 30.5203 58.4849 30.5215 58.4924L30.5311 58.5661L30.3887 58.5853L30.3791 58.5117C30.3781 58.5041 30.3756 58.4967 30.3718 58.4901C30.3679 58.4835 30.3628 58.4777 30.3567 58.4731C30.3506 58.4685 30.3436 58.4651 30.3362 58.4632C30.3288 58.4613 30.321 58.4609 30.3135 58.4621L30.1903 58.478C30.175 58.4804 30.1612 58.4885 30.1517 58.5007C30.1422 58.5129 30.1377 58.5283 30.1391 58.5436L30.1519 58.6317C30.0744 58.6637 30.0096 58.7204 29.9677 58.7931C29.9257 58.8657 29.9089 58.9501 29.9199 59.0332V59.0861C29.7967 59.1693 29.7391 59.2924 29.7903 59.3836C29.7946 59.3899 29.7994 59.3958 29.8047 59.4013C29.6892 59.5213 29.6021 59.6657 29.5495 59.8237C29.4969 59.9818 29.4802 60.1495 29.5007 60.3149Z" fill="#5F5F5F"/>
<path d="M31.1208 59.8489C31.1464 59.7353 31.2984 59.6697 31.46 59.7065C31.6216 59.7433 31.7336 59.8665 31.7096 59.9785C31.6856 60.0905 31.532 60.1577 31.3704 60.1209C31.2088 60.0841 31.0952 59.9641 31.1208 59.8489Z" fill="#FEFEFE"/>
<path d="M29.9991 60.2092C29.9431 60.1052 30.0183 59.958 30.1591 59.8812C30.2145 59.8409 30.2832 59.8234 30.3511 59.8324C30.4189 59.8413 30.4808 59.8759 30.5239 59.9292C30.5799 60.0332 30.5047 60.1804 30.3639 60.2572C30.3084 60.297 30.2398 60.3143 30.172 60.3054C30.1042 60.2964 30.0424 60.262 29.9991 60.2092Z" fill="#FEFEFE"/>
</g>
</g>
<defs>
<filter id="filter0_d_4695_6596" x="0" y="0" width="84" height="84" filterUnits="userSpaceOnUse" color-interpolation-filters="sRGB">
<feFlood flood-opacity="0" result="BackgroundImageFix"/>
<feColorMatrix in="SourceAlpha" type="matrix" values="0 0 0 0 0 0 0 0 0 0 0 0 0 0 0 0 0 0 127 0" result="hardAlpha"/>
<feMorphology radius="1" operator="dilate" in="SourceAlpha" result="effect1_dropShadow_4695_6596"/>
<feOffset/>
<feGaussianBlur stdDeviation="0.5"/>
<feComposite in2="hardAlpha" operator="out"/>
<feColorMatrix type="matrix" values="0 0 0 0 0 0 0 0 0 0 0 0 0 0 0 0 0 0 0.05 0"/>
<feBlend mode="normal" in2="BackgroundImageFix" result="effect1_dropShadow_4695_6596"/>
<feBlend mode="normal" in="SourceGraphic" in2="effect1_dropShadow_4695_6596" result="shape"/>
</filter>
<clipPath id="clip0_4695_6596">
<rect x="2" y="2" width="80" height="80" rx="8" fill="white"/>
</clipPath>
</defs>
</svg>
